<svg xmlns="http://www.w3.org/2000/svg" xmlns:xlink="http://www.w3.org/1999/xlink" width="124.914" height="124.914" viewBox="0 0 124.914 124.914">
  <defs>
    <filter id="Elipse_5351" x="0" y="0" width="124.914" height="124.914" filterUnits="userSpaceOnUse">
      <feOffset dy="3" input="SourceAlpha"/>
      <feGaussianBlur stdDeviation="3" result="blur"/>
      <feFlood flood-opacity="0.161"/>
      <feComposite operator="in" in2="blur"/>
      <feComposite in="SourceGraphic"/>
    </filter>
  </defs>
  <g id="Grupo_963419" data-name="Grupo 963419" transform="translate(-1047.117 -6052.137)">
    <g transform="matrix(1, 0, 0, 1, 1047.12, 6052.14)" filter="url(#Elipse_5351)">
      <ellipse id="Elipse_5351-2" data-name="Elipse 5351" cx="53.457" cy="53.457" rx="53.457" ry="53.457" transform="translate(9 6)" fill="#fff"/>
    </g>
    <ellipse id="Elipse_5353" data-name="Elipse 5353" cx="44.912" cy="44.912" rx="44.912" ry="44.912" transform="translate(1064.663 6066.682)" fill="none" stroke="#ffb338" stroke-miterlimit="10" stroke-width="1"/>
    <g id="_015---Cream-Pot" data-name="015---Cream-Pot" transform="translate(1081.411 6087.594)">
      <path id="Shape" d="M0,41c0,5.416,16.084,6,23,6,8.566,0,15.533-.832,19.326-2.292A8.033,8.033,0,0,0,47.483,47c.813,0,.791-.043,6.056-1.228,2.886-.65,4.991-3.634,5.932-8.4a39.769,39.769,0,0,0-.632-15.856C56.067,9.207,49.4.573,43.652,1.871l-4.877,1.1c-2.051.462-3.657,2.133-4.76,4.632C26.827,5.651,26.053,11,19.142,10.01,13.1,9.147,13,2.29,13,2a1,1,0,0,0-1.786-.619C11.005,1.647,6.324,7.712,7.271,15,1.793,15.867,1,16.951,1,18v3.4A1.912,1.912,0,0,0,0,23ZM9.938,21.354a133.694,133.694,0,0,0,22.624.313c.106,1,.239,2.02.419,3.059-6.654.386-24.2.606-29.981-1.385V20a30.507,30.507,0,0,0,6.938,1.354ZM2,41V29.055A56.283,56.283,0,0,0,14.937,31a1,1,0,0,0,.125-2C7.751,28.545,3.959,27.673,2,26.944V25.1c6.009,2.308,24.542,2.02,31.369,1.609,1.207,5.629,3.6,12.081,7.394,16.434C37.056,44.329,30.729,45,23,45,8.515,45,2,42.661,2,41ZM56.888,21.954a37.726,37.726,0,0,1,.62,15.03c-.766,3.886-2.372,6.378-4.408,6.837-4.007.9-10.1-6.171-12.8-18.132S40.087,4.724,44.092,3.822a3.243,3.243,0,0,1,.706-.077c3.984,0,9.55,6.931,12.09,18.209ZM39.214,4.921l.606-.137c-6.239,9.442-.678,34.143,9.009,40l-.607.137c-2.037.458-4.557-1.1-6.915-4.286A37.742,37.742,0,0,1,35.425,26.79a48.728,48.728,0,0,1-.989-6.342c-.727-8.695,1.52-14.793,4.778-15.527ZM10.119,7.706c.1,4.606,2.366,7.843,6.565,9.243a1,1,0,1,0,.632-1.9c-4.3-1.434-5.3-4.932-5.193-8.15a8.52,8.52,0,0,0,6.735,5.089c7.574,1.085,8.371-4.014,14.457-2.5a30.1,30.1,0,0,0-.92,10.186,132.353,132.353,0,0,1-21.688-.252,14.157,14.157,0,0,1-.588-11.716ZM7.652,16.964A17.612,17.612,0,0,0,8.39,19.14,21.24,21.24,0,0,1,3.39,18,17.961,17.961,0,0,1,7.652,16.964Z"/>
      <circle id="Oval" cx="1" cy="1" r="1" transform="translate(18 29)"/>
      <path id="Shape-2" data-name="Shape" d="M42.137,16.263a1,1,0,0,0,1.99-.2c-.477-4.772.484-6.282,1.1-6.757a1.721,1.721,0,0,1,1.544-.21A1,1,0,0,0,47.5,7.235,3.7,3.7,0,0,0,44.04,7.7c-1.7,1.281-2.34,4.163-1.9,8.567Z"/>
      <path id="Shape-3" data-name="Shape" d="M50.5,38.929a3.7,3.7,0,0,0,3.464-.462c1.7-1.281,2.343-4.163,1.9-8.567a1,1,0,0,0-1.99.2c.478,4.772-.484,6.281-1.1,6.757a1.717,1.717,0,0,1-1.543.211,1,1,0,0,0-.733,1.861Z"/>
    </g>
  </g>
</svg>
