<svg xmlns="http://www.w3.org/2000/svg" xmlns:xlink="http://www.w3.org/1999/xlink" width="124.914" height="124.914" viewBox="0 0 124.914 124.914">
  <defs>
    <filter id="Elipse_5349" x="0" y="0" width="124.914" height="124.914" filterUnits="userSpaceOnUse">
      <feOffset dy="3" input="SourceAlpha"/>
      <feGaussianBlur stdDeviation="3" result="blur"/>
      <feFlood flood-opacity="0.161"/>
      <feComposite operator="in" in2="blur"/>
      <feComposite in="SourceGraphic"/>
    </filter>
  </defs>
  <g id="Grupo_963421" data-name="Grupo 963421" transform="translate(-557.929 -6229.421)">
    <g transform="matrix(1, 0, 0, 1, 557.93, 6229.42)" filter="url(#Elipse_5349)">
      <ellipse id="Elipse_5349-2" data-name="Elipse 5349" cx="53.457" cy="53.457" rx="53.457" ry="53.457" transform="translate(9 6)" fill="#fff"/>
    </g>
    <ellipse id="Elipse_5350" data-name="Elipse 5350" cx="44.912" cy="44.912" rx="44.912" ry="44.912" transform="translate(575.474 6243.966)" fill="none" stroke="#ffb338" stroke-miterlimit="10" stroke-width="1"/>
    <g id="bastoncillos-de-algodon" transform="translate(553.999 6263.459)">
      <path id="Trazado_701650" data-name="Trazado 701650" d="M75.924,157.63,58.838,140.544a9.976,9.976,0,0,0-2.929-6.509A6.275,6.275,0,0,0,51.583,132h-.064A5.727,5.727,0,0,0,46,137.584a6.275,6.275,0,0,0,2.032,4.326,10.52,10.52,0,0,0,4.817,2.72,7.494,7.494,0,0,0,1.706.222l17.073,17.072a9.934,9.934,0,0,0,2.94,6.52,6.168,6.168,0,0,0,4.367,2.028A5.5,5.5,0,0,0,82.8,168.8c1.96-1.96,2.609-5.266-.358-8.234a9.925,9.925,0,0,0-6.52-2.94ZM56.882,144.314a3.657,3.657,0,0,0,.818-.614,3.585,3.585,0,0,0,.61-.822l17.6,17.6a1.012,1.012,0,0,1-1.432,1.432Zm-7.416-3.836a4.314,4.314,0,0,1-1.44-2.92,3.711,3.711,0,0,1,3.491-3.531h.039a4.314,4.314,0,0,1,2.92,1.44c2.128,2.128,3.031,5.56,1.79,6.8a3.136,3.136,0,0,1-2.94.394A8.56,8.56,0,0,1,49.466,140.479Zm31.9,26.893c-1.569,1.569-3.577,1.435-5.37-.358a8.673,8.673,0,0,1-1.909-2.988,3.036,3.036,0,0,0,3.933-3.933A8.671,8.671,0,0,1,81.012,162C82.806,163.795,82.939,165.8,81.37,167.371Z" transform="translate(0 -118.636)"/>
      <path id="Trazado_701651" data-name="Trazado 701651" d="M122.445,28.568a9.937,9.937,0,0,0-6.52-2.94l-9.4-9.4a1.013,1.013,0,0,0-1.432,1.432l10.817,10.817a1.012,1.012,0,0,1-1.432,1.432l-17.6-17.6A3.656,3.656,0,0,0,97.7,11.7a3.585,3.585,0,0,0,.61-.822l.341.341a1.013,1.013,0,0,0,1.432-1.432L98.839,8.542A9.976,9.976,0,0,0,95.91,2.033,6.275,6.275,0,0,0,91.584,0H91.52a5.445,5.445,0,0,0-3.843,1.675A5.434,5.434,0,0,0,86,5.582a6.275,6.275,0,0,0,2.032,4.326,10.52,10.52,0,0,0,4.817,2.72,7.494,7.494,0,0,0,1.706.222L111.63,29.924a9.925,9.925,0,0,0,2.939,6.52,6.168,6.168,0,0,0,4.367,2.028A5.5,5.5,0,0,0,122.8,36.8c1.96-1.96,2.609-5.266-.358-8.234ZM89.467,8.477a4.314,4.314,0,0,1-1.44-2.92,3.385,3.385,0,0,1,1.082-2.449,3.394,3.394,0,0,1,2.41-1.082h.039a4.314,4.314,0,0,1,2.92,1.44c2.128,2.128,3.031,5.56,1.79,6.8a3.136,3.136,0,0,1-2.94.394A8.56,8.56,0,0,1,89.467,8.477Zm31.9,26.893c-1.569,1.569-3.576,1.435-5.37-.358a8.672,8.672,0,0,1-1.91-2.988,3.042,3.042,0,0,0,3.252-.681,3.041,3.041,0,0,0,.683-3.251A8.675,8.675,0,0,1,121.013,30C122.806,31.793,122.94,33.8,121.371,35.369Z" transform="translate(-35.951 0)"/>
      <path id="Trazado_701652" data-name="Trazado 701652" d="M240.831,127.558a1.013,1.013,0,0,0,.716-1.729h0a1.013,1.013,0,1,0-.715,1.729Z" transform="translate(-174.193 -112.822)"/>
    </g>
  </g>
</svg>
