<svg xmlns="http://www.w3.org/2000/svg" xmlns:xlink="http://www.w3.org/1999/xlink" width="558.987" height="470" viewBox="0 0 558.987 470">
  <defs>
    <clipPath id="clip-path">
      <rect id="Rectángulo_337564" data-name="Rectángulo 337564" width="361" height="470" transform="translate(1020 6033)" fill="#fff" stroke="#707070" stroke-width="1"/>
    </clipPath>
  </defs>
  <g id="Grupo_963432" data-name="Grupo 963432" transform="translate(527.987 6105)">
    <g id="Enmascarar_grupo_927197" data-name="Enmascarar grupo 927197" transform="translate(-1350 -12138)" clip-path="url(#clip-path)">
      <g id="Grupo_948612" data-name="Grupo 948612" transform="translate(-23.684 5962.835)">
        <g id="Grupo_948574" data-name="Grupo 948574" transform="translate(1055.618 127.91)">
          <path id="Trazado_683799" data-name="Trazado 683799" d="M1056.365,577.776c10.771,158.8,211.136,223.159,310.046,98.456,20.2-25.466,25.034-86.881,19.8-119.274-21.1-130.563-88.051-143.9-38.062-226.49S1402.783,97.95,1264.775,99.12s-49.042,221.753-144.11,283.449C1077.183,410.788,1050.755,495.072,1056.365,577.776Z" transform="translate(-1055.618 -99.114)" fill="#32324c" opacity="0.1"/>
          <path id="Trazado_683800" data-name="Trazado 683800" d="M1088.331,260.309a21.054,21.054,0,0,0,23.212-6.674c8.981-10.88,23.308-32.851,19.044-58.42-6.093-36.526-52.382-7.368-56.024,33.689C1072.744,249.431,1080.31,257.436,1088.331,260.309Z" transform="translate(-1035.276 -12.552)" fill="#32324c" opacity="0.1"/>
          <path id="Trazado_683801" data-name="Trazado 683801" d="M1115.47,194.569a10.981,10.981,0,0,0,7.441-10.165c.23-7.355-.878-20.993-10.8-30.176-14.179-13.118-23.956,13.69-12.347,31.787C1105.568,195.062,1111.245,195.946,1115.47,194.569Z" transform="translate(-1013.122 -42.87)" fill="#32324c" opacity="0.1"/>
          <path id="Trazado_683802" data-name="Trazado 683802" d="M1221.9,280.683a10.981,10.981,0,0,0,9.16-8.651c1.559-7.192,2.94-20.8-5.157-31.635-11.568-15.471-26.041,9.125-17.9,29.025C1212.073,279.371,1217.5,281.271,1221.9,280.683Z" transform="translate(-892.186 49.508)" fill="#32324c" opacity="0.1"/>
        </g>
        <g id="Grupo_948611" data-name="Grupo 948611" transform="translate(1102.718 72.683)">
          <path id="Trazado_683803" data-name="Trazado 683803" d="M1254.626,283.623l-80.862,9.97-8.812-58.338,4.128-.525,76.793-9.7,7.752,51.868Z" transform="translate(-983.6 93.303)" fill="#fff0e7"/>
          <g id="Grupo_948610" data-name="Grupo 948610">
            <g id="Grupo_948575" data-name="Grupo 948575" transform="translate(179.269 322.932)">
              <path id="Trazado_683804" data-name="Trazado 683804" d="M1253.629,285.821l-80.863,9.971-8.811-58.338,4.127-.525,76.793-9.7,7.752,51.87Z" transform="translate(-1163.956 -227.234)" fill="#006aab"/>
              <path id="Trazado_683805" data-name="Trazado 683805" d="M1253.628,280.766l-80.863,9.971-8.809-58.338,4.127-.525c2.156,12.871,14.47,47.484,84.545,42.174Z" transform="translate(-1163.955 -222.178)" fill="#005789"/>
            </g>
            <g id="Grupo_948577" data-name="Grupo 948577" transform="translate(193.512 361.866)">
              <g id="Grupo_948576" data-name="Grupo 948576">
                <path id="Trazado_683806" data-name="Trazado 683806" d="M1170.931,268.4a9.052,9.052,0,0,0,1.216,2,8.258,8.258,0,0,0,2.284,2.006s2.217,10.778,3.784,12.284,11.22-.972,13.214-1.7,11.459-5.077,14.075-8.063-2.447-29.071-2.447-29.071l-26.986.654S1169.7,265.583,1170.931,268.4Z" transform="translate(-1170.772 -245.867)" fill="#fdbd8e"/>
              </g>
              <path id="Trazado_683807" data-name="Trazado 683807" d="M1171.43,263.774a8.259,8.259,0,0,0,2.284,2.006s1.782-4.53,2.317-4.731a24.794,24.794,0,0,0,3.022-3s-1.085-6.122-1.619-6.1-2.113,2.654-2.113,2.654l-.445,4.183A28.062,28.062,0,0,0,1171.43,263.774Z" transform="translate(-1170.055 -239.233)" fill="#fb9988"/>
            </g>
            <g id="Grupo_948578" data-name="Grupo 948578" transform="translate(8.889 720.57)">
              <path id="Trazado_683808" data-name="Trazado 683808" d="M1086.388,453.2h28.952c6.252,0,19.171-11.06,19.171-11.06s3.753,7.5,7.087,10.838,4.271-35.444,4.271-35.444l-18.542,2.781-36.071,21.4-6.9,4.1a3.968,3.968,0,0,0,2.027,7.384Z" transform="translate(-1082.414 -417.538)" fill="#6c3509"/>
              <path id="Trazado_683809" data-name="Trazado 683809" d="M1086.646,441.724c39.521,12.951,54.613-24.186,54.613-24.186h-18.339Z" transform="translate(-1077.803 -417.538)" fill="#fdbd8e"/>
            </g>
            <g id="Grupo_948580" data-name="Grupo 948580" transform="translate(81.267 292.558)">
              <g id="Grupo_948579" data-name="Grupo 948579" transform="translate(115.486 399.585)">
                <path id="Trazado_683810" data-name="Trazado 683810" d="M1177.946,461.08l26.338-12.023c5.687-2.6,12.85-18.024,12.85-18.024s6.527,5.27,10.945,6.918-10.828-34.019-10.828-34.019l-15.717,10.23-23.925,34.449-4.574,6.588a3.971,3.971,0,0,0,4.91,5.88Z" transform="translate(-1172.323 -403.933)" fill="#6c3509"/>
                <path id="Trazado_683811" data-name="Trazado 683811" d="M1174.853,448.612c41.33-4.628,39.642-44.679,39.642-44.679l-16.685,7.616Z" transform="translate(-1169.566 -403.933)" fill="#fdbd8e"/>
              </g>
              <path id="Trazado_683812" data-name="Trazado 683812" d="M1120.146,212.7l-3.093,184.443L1254.9,622.817l27.41-8.953s-61.141-158.64-66.107-163.7-29.307-41.769-29.307-41.769l-.493-174.539Z" transform="translate(-1117.053 -212.697)" fill="#1f2123"/>
            </g>
            <path id="Trazado_683813" data-name="Trazado 683813" d="M1161.571,212.7s-48.374,169.031-49.376,180.7-13,247.309-13,247.309l32.443,2.781s36.664-203.407,35.62-236.751c-.276-8.765,55.718-67.622,58.683-114.025,3.021-47.3-9.764-76.684-9.764-76.684Z" transform="translate(-1055.241 79.861)" fill="#2e3032"/>
            <g id="Grupo_948609" data-name="Grupo 948609">
              <g id="Grupo_948592" data-name="Grupo 948592" transform="translate(0 60.972)">
                <g id="Grupo_948591" data-name="Grupo 948591">
                  <g id="Grupo_948588" data-name="Grupo 948588" transform="translate(43.439)">
                    <g id="Grupo_948587" data-name="Grupo 948587" transform="translate(0)">
                      <g id="Grupo_948583" data-name="Grupo 948583" transform="translate(0.517 31.187)">
                        <path id="Trazado_683814" data-name="Trazado 683814" d="M1099.2,130.048l6.432-10.969,11.413,6.283-7.4,11.755Z" transform="translate(-1099.196 -114.293)" fill="#fb9988"/>
                        <g id="Grupo_948582" data-name="Grupo 948582" transform="translate(8.958)">
                          <g id="Grupo_948581" data-name="Grupo 948581">
                            <path id="Trazado_683815" data-name="Trazado 683815" d="M1106.419,140.592l-1.446-.98-1.49-5.487s.8-7.579,6.644-10.943a7.361,7.361,0,0,1,3.318-.817,21.363,21.363,0,0,1,4.854.395,56.83,56.83,0,0,1,9.643,2.815,74.46,74.46,0,0,1,8.249-7.537c1.642-1.224,2.6-1.39,3.157-1.164.811.326.788,1.467.788,1.467l-9.1,17.677s-12.792,6.231-19.842,7.8Z" transform="translate(-1103.483 -116.789)" fill="#fdbd8e"/>
                          </g>
                        </g>
                      </g>
                      <g id="Grupo_948584" data-name="Grupo 948584">
                        <path id="Rectángulo_337562" data-name="Rectángulo 337562" d="M.7,0H29.959a.7.7,0,0,1,.7.7V50.067a.7.7,0,0,1-.7.7H.7a.7.7,0,0,1-.7-.7V.7A.7.7,0,0,1,.7,0Z" transform="matrix(-0.828, -0.56, 0.56, -0.828, 25.389, 59.222)" fill="#171228"/>
                        <rect id="Rectángulo_337563" data-name="Rectángulo 337563" width="24.292" height="39.585" transform="translate(26.871 51.356) rotate(-145.918)" fill="#28b69a"/>
                        <path id="Trazado_683816" data-name="Trazado 683816" d="M1105.366,124.466a2.278,2.278,0,1,0,3.164-.61A2.282,2.282,0,0,0,1105.366,124.466Z" transform="translate(-1092.382 -78.328)" fill="#909aa3"/>
                      </g>
                      <g id="Grupo_948586" data-name="Grupo 948586" transform="translate(3.674 3.583)">
                        <g id="Grupo_948585" data-name="Grupo 948585">
                          <path id="Trazado_683817" data-name="Trazado 683817" d="M1104.56,105.394a5.9,5.9,0,0,0,.543,4c.713,1.438,1.4,2.927,2.24,4.3.083.134.169.27.253.405a14.54,14.54,0,0,0,1.333,1.784c.177.2.361.391.549.577a8.1,8.1,0,0,0,2.146,1.538,1.842,1.842,0,0,0,2.637-1.841,13.236,13.236,0,0,0-1.479-5.658,23.289,23.289,0,0,0-4.706-6.022C1106.579,103.269,1105.16,103.012,1104.56,105.394Z" transform="translate(-1096.667 -103.578)" fill="#fdbd8e"/>
                          <path id="Trazado_683818" data-name="Trazado 683818" d="M1103.515,109.128a5.932,5.932,0,0,0,.535,4c.464.926.916,1.881,1.411,2.815.19.37.393.733.6,1.082a16.1,16.1,0,0,0,1.82,2.6c.138.157.282.3.424.451a8.434,8.434,0,0,0,2.269,1.663,1.838,1.838,0,0,0,2.631-1.847,12.93,12.93,0,0,0-1.477-5.654,20.4,20.4,0,0,0-1.112-1.843,27.787,27.787,0,0,0-1.766-2.336c-.123-.148-.242-.293-.37-.43C1106.526,107.436,1104.294,105.986,1103.515,109.128Z" transform="translate(-1097.807 -99.508)" fill="#fdbd8e"/>
                          <path id="Trazado_683819" data-name="Trazado 683819" d="M1101.89,111.948a5.939,5.939,0,0,0,.535,4c.577,1.166,1.153,2.376,1.8,3.523.2.353.4.71.627,1.043a14.039,14.039,0,0,0,1.408,1.931,9.99,9.99,0,0,0,1.007.988,7.756,7.756,0,0,0,1.691,1.126,1.842,1.842,0,0,0,2.63-1.847,12.972,12.972,0,0,0-1.482-5.658.245.245,0,0,0-.027-.046,25.422,25.422,0,0,0-2.43-3.629c-.134-.165-.272-.343-.418-.5C1105.2,110.458,1102.722,108.6,1101.89,111.948Z" transform="translate(-1099.576 -96.439)" fill="#fdbd8e"/>
                          <path id="Trazado_683820" data-name="Trazado 683820" d="M1100.853,115.551a5.925,5.925,0,0,0,.533,4c.1.194.186.376.28.57a25.938,25.938,0,0,0,3.556,5.924,8.682,8.682,0,0,0,2.7,2.117,1.84,1.84,0,0,0,2.631-1.849,13.025,13.025,0,0,0-1.481-5.654,11.612,11.612,0,0,0-.671-1.158,26.7,26.7,0,0,0-2.635-3.519c-.138-.157-.274-.3-.407-.443C1103.521,113.66,1101.576,112.659,1100.853,115.551Z" transform="translate(-1100.707 -92.51)" fill="#fdbd8e"/>
                        </g>
                        <path id="Trazado_683821" data-name="Trazado 683821" d="M1108.6,105.394a5.9,5.9,0,0,0,.543,4c.713,1.438,1.4,2.927,2.24,4.3-1.958-2.19-4.189-3.64-4.969-.5a5.932,5.932,0,0,0,.535,4c.464.926.915,1.881,1.41,2.815-2.031-2.415-4.507-4.275-5.339-.926a5.939,5.939,0,0,0,.535,4c.577,1.166,1.153,2.376,1.8,3.523-1.833-1.878-3.778-2.879-4.5.013a5.925,5.925,0,0,0,.533,4c.1.194.186.376.28.57.033-.132.063-.257.1-.384a5.415,5.415,0,0,1,1.45-2.626,2.558,2.558,0,0,1,2.762-.529l.057.033c-.094-.215-.184-.418-.276-.633a6.344,6.344,0,0,1-.583-4.2c.5-1.6,2.766-2.627,3.905-1.4-.04-.121-.079-.242-.119-.361-.065-.188-.125-.384-.186-.581a7.323,7.323,0,0,1-.372-3.939,3.181,3.181,0,0,1,3.23-2.474c.04.01.082.015.117.025a2.553,2.553,0,0,1,.378.117c-.882-2.486-1.645-4.937-.89-7.566a19.6,19.6,0,0,1,.875-2.2C1110.619,103.269,1109.2,103.012,1108.6,105.394Z" transform="translate(-1100.707 -103.578)" fill="#fb9988"/>
                      </g>
                    </g>
                  </g>
                  <g id="Grupo_948590" data-name="Grupo 948590" transform="translate(0 45.135)">
                    <g id="Grupo_948589" data-name="Grupo 948589">
                      <path id="Trazado_683822" data-name="Trazado 683822" d="M1175.666,219.708s-7.394,4.169-17.957,9.261l-.006.01c-21.7,10.452-56.771,24.823-68.608,15.028-36.121-29.867,28.57-114.913,31.47-120.542l1.551.919,24.5,14.478c-12.365,24.161-34.6,54.655-30.845,57.987,11.67-4.459,54.742-24.067,54.742-24.067Z" transform="translate(-1078.16 -123.464)" fill="#ff9300"/>
                    </g>
                  </g>
                </g>
                <path id="Trazado_683823" data-name="Trazado 683823" d="M1157.709,228.968l-.006.01c-21.7,10.452-56.771,24.823-68.608,15.028-36.121-29.867,28.57-114.913,31.47-120.542l1.551.919v.89s-55.8,93.676-31.913,111.909,67.01-16.306,67.01-16.306Z" transform="translate(-1078.16 -78.329)" fill="#cf691f"/>
              </g>
              <g id="Grupo_948608" data-name="Grupo 948608" transform="translate(75.719)">
                <g id="Grupo_948607" data-name="Grupo 948607">
                  <path id="Trazado_683824" data-name="Trazado 683824" d="M1226.906,165.767c-.856,3.926-2.618,10.5-4.975,22.75-1.828,9.461-4.235,20.157-6.828,31.046v.006c-7.871,33.114-17.4,68.117-17.182,76.243,0,0-42.316,25.41-76.578-3.335,0,0-.226-43.748-1.891-51.665s-10.955-67.958,9.885-85.466c9.781-8.21,17.374-12.213,22.667-14.129a34.791,34.791,0,0,1,3.343-1.034v-.008a19.814,19.814,0,0,1,5.061-.708.079.079,0,0,1,.042.008c.167,0,.3.008.4.017a.378.378,0,0,0,.092.008.66.66,0,0,1,.117.008h27.8a118.767,118.767,0,0,1,11.881,3.508c6.034,2.146,21.332,11.005,25.467,15.615a.117.117,0,0,0,.042.044,5.541,5.541,0,0,1,.808,1.13C1227.715,161.124,1227.609,162.558,1226.906,165.767Z" transform="translate(-1112.704 0.076)" fill="#ff9300"/>
                  <g id="Grupo_948593" data-name="Grupo 948593" transform="translate(14.188 221.294)">
                    <path id="Trazado_683825" data-name="Trazado 683825" d="M1121.188,184.446l2.85-.146,7.7-.483c6.452-.318,15.293-.811,24.236,1.582,2.278.6,4.563,1.31,6.864,1.933a56.787,56.787,0,0,0,6.83,1.435,53.03,53.03,0,0,0,11.781.378,20.117,20.117,0,0,0,4.57-.857,10.314,10.314,0,0,0,3.151-1.609,6.9,6.9,0,0,0,1.5-1.6c.259-.424.374-.648.374-.648s-.19.165-.552.483a7.224,7.224,0,0,1-1.766.995,14.654,14.654,0,0,1-7.217.391,85.479,85.479,0,0,1-10.872-2.234c-2.01-.547-4.045-1.191-6.216-1.941s-4.484-1.559-7-2.225a41.891,41.891,0,0,0-14.652-1.1,64.724,64.724,0,0,0-11.5,2.217c-3.178.9-5.688,1.784-7.416,2.413S1121.188,184.446,1121.188,184.446Z" transform="translate(-1121.188 -178.591)" fill="#cf691f"/>
                  </g>
                  <g id="Grupo_948606" data-name="Grupo 948606">
                    <path id="Trazado_683826" data-name="Trazado 683826" d="M1115.456,126.531c.127-.656.324-1.6.644-2.75a25.045,25.045,0,0,1,1.456-3.972,16.9,16.9,0,0,1,2.953-4.421,16.023,16.023,0,0,1,4.279-3.2,21.557,21.557,0,0,1,3.958-1.565c.5-.146.953-.259,1.368-.355.506-.476.809-.738.809-.738l-.264.618c.316-.067.606-.123.846-.167.66-.115,1.028-.161,1.028-.161s-.911.6-2.407,1.578c-.314.74-.711,1.67-1.177,2.762a49.091,49.091,0,0,0-3.439,10.888,64.474,64.474,0,0,0-.537,11.494c.013,1.546.025,2.806.029,3.68-.012.878-.021,1.367-.021,1.367l-.552-1.252c-.341-.811-.811-1.989-1.3-3.483a33.093,33.093,0,0,1-1.312-5.416,22.421,22.421,0,0,1,0-7.008,21.083,21.083,0,0,1,2.349-6.64,28.253,28.253,0,0,1,3.017-4.4,30.871,30.871,0,0,0-4.6,3.943,49.235,49.235,0,0,0-5.182,7.029c-.646.982-1.168,1.782-1.532,2.338l-.589.853S1115.341,127.187,1115.456,126.531Z" transform="translate(-1113.441 -32.541)" fill="#85441d"/>
                    <g id="Grupo_948594" data-name="Grupo 948594" transform="translate(87.77 9.434)">
                      <path id="Trazado_683827" data-name="Trazado 683827" d="M1160.475,181.2a54.469,54.469,0,0,0,7.677,12.7c6.828,8.63,16.39,15.972,27.368,16.691a37.811,37.811,0,0,1-14.472-9.706c.669.435,1.341.861,2.035,1.243a36.712,36.712,0,0,0,25.316,4.035,31.591,31.591,0,0,1-7.052-13.348,46.6,46.6,0,0,1-1.55-10.7c-.282-8.694,1.343-17.313,2.533-25.935,1.945-13.962,3.295-28.411,2.81-42.523-.385-11.321-4.06-23.609-12.654-31.436a19.283,19.283,0,0,0-28.776,3.176,18.1,18.1,0,0,0-1.693,2.886c-.717,1.542-1.107,2.733-.159,4.141a30.315,30.315,0,0,0,3.435,3.753,25.251,25.251,0,0,1,6.16,12.361,16.767,16.767,0,0,0-1.517,1.36,32.858,32.858,0,0,0-6.726,10.995,95.634,95.634,0,0,0-6.77,33.977C1156.206,163.808,1157.025,172.945,1160.475,181.2Z" transform="translate(-1156.403 -77.198)" fill="#85441d"/>
                      <path id="Trazado_683828" data-name="Trazado 683828" d="M1159.9,85.389a16.776,16.776,0,0,0,2.325,5.134c5.195-.215,9.921,3.569,12.255,8.214s2.718,10.011,2.766,15.211a139.5,139.5,0,0,1-1.726,23.308c-1.283,8.136-3.3,16.239-3.174,24.476s2.716,16.906,9.068,22.159a32.721,32.721,0,0,1,2.419-14.271,31.341,31.341,0,0,0,13.7,23.189,46.6,46.6,0,0,1-1.55-10.7,107.016,107.016,0,0,1,1.517-18.939c.343-2.336.692-4.662,1.016-7,1.945-13.962,3.295-28.411,2.81-42.523-.385-11.321-4.06-23.609-12.654-31.436a19.627,19.627,0,0,0-16.764-4.66,18.446,18.446,0,0,0-4.727,1.634A19.752,19.752,0,0,0,1159.9,85.389Z" transform="translate(-1152.594 -77.198)" fill="#965326"/>
                      <path id="Trazado_683829" data-name="Trazado 683829" d="M1163.387,79.188c5.192,3.583,10.446,7.152,13.053,12.763a33.9,33.9,0,0,1,2.219,8.011,76.444,76.444,0,0,1,1.567,11.221c.267,6.611-1.2,13.164-1.626,19.775a63.071,63.071,0,0,0,2.842,23.124,41,41,0,0,1,4.244-10.138c.334,7.094,3.761,13.412,8.02,19.225.343-2.336.692-4.662,1.016-7,1.945-13.962,3.295-28.411,2.81-42.523-.385-11.321-4.06-23.609-12.654-31.436a19.627,19.627,0,0,0-16.764-4.66A18.447,18.447,0,0,0,1163.387,79.188Z" transform="translate(-1148.795 -77.198)" fill="#b5693c"/>
                    </g>
                    <circle id="Elipse_5268" data-name="Elipse 5268" cx="11.252" cy="11.252" r="11.252" transform="translate(83.167 14.963)" fill="#fff0e7"/>
                    <g id="Grupo_948601" data-name="Grupo 948601" transform="translate(1.249)">
                      <path id="Trazado_683830" data-name="Trazado 683830" d="M1135.643,140.751l-3,33.737,14.848-7.551,7.745-9.587s.1-12.288.067-18.306h-10.6a.947.947,0,0,1-.117-.01.528.528,0,0,1-.094-.006c-.1,0-.232-.008-.4-.019a.068.068,0,0,0-.04-.008,19.941,19.941,0,0,0-5.061.71v.008A34.736,34.736,0,0,0,1135.643,140.751Z" transform="translate(-1095.77 -0.433)" fill="#fff0e7"/>
                      <g id="Grupo_948600" data-name="Grupo 948600">
                        <g id="Grupo_948595" data-name="Grupo 948595" transform="translate(42.969 100.568)">
                          <path id="Trazado_683831" data-name="Trazado 683831" d="M1144.313,186.747l25.009-27.888c-.042-4.143-.393-5.7-.767-15.955-.4-11.4-.817-22.09-.817-22.09l-32.178,12.719c3.592,8.045,5.211,17.215,5.75,25.951C1142.447,177.9,1144.313,186.747,1144.313,186.747Z" transform="translate(-1135.56 -120.813)" fill="#fdbd8e"/>
                          <path id="Trazado_683832" data-name="Trazado 683832" d="M1135.56,133.532c3.592,8.045,5.211,17.215,5.75,25.951,1.02.426,2.012.817,2.944,1.143,3.734,1.3,15.74-9.355,24.3-17.723-.4-11.4-.817-22.09-.817-22.09Z" transform="translate(-1135.56 -120.813)" fill="#fb9988"/>
                        </g>
                        <g id="Grupo_948599" data-name="Grupo 948599">
                          <g id="Grupo_948596" data-name="Grupo 948596">
                            <path id="Trazado_683833" data-name="Trazado 683833" d="M1120.44,136.94c.65,2.975,1.482,6.1,2.516,9.369,0,0-1.442,16.114.251,19.725s12.537,26.123,23.925,24.733c9.5-1.16,32.744-15.082,40.824-23.377,1.615-1.649,2.624-3.074,2.808-4.133,1.108-6.394,4.919-34.6,5.276-36.955.968-6.4,3.652-54.82-54.893-41.349a28.192,28.192,0,0,0-21.25,21.158C1118.17,113.73,1117.6,123.958,1120.44,136.94Z" transform="translate(-1111.224 -61.88)" fill="#fdbd8e"/>
                            <path id="Trazado_683834" data-name="Trazado 683834" d="M1115,117.643a24.8,24.8,0,0,0,1.542,7.537c1.645,4.927,3.926,9.879,8,13.086a82.387,82.387,0,0,1,.875-19.583c13.964,15.216,43.173,20.427,44.356,20.627-5.535-1.7-7.194-12.773-7.194-12.773,6.67,15.565,35.906,18.766,35.906,18.766,7-5.686,11.862,5.075,11.862,5.075,2.367-4.375,4.336-8.335,5.869-12.01.409-.961.784-1.9,1.126-2.81a39.95,39.95,0,0,0,2.008-7.535c3.892-23.367-13.58-46.267-36.09-52.805a.239.239,0,0,0-.065-.015c-21.275-6.154-46.424-.518-58.271,11.237a24.5,24.5,0,0,0-5.042,6.985c-.178.368-.334.75-.476,1.135-.05.117-.092.232-.134.349a18.105,18.105,0,0,0-1.149,6.893,23.948,23.948,0,0,0,.5,4.235A23.145,23.145,0,0,0,1115,117.643Z" transform="translate(-1114.996 -72.683)" fill="#85441d"/>
                            <path id="Trazado_683835" data-name="Trazado 683835" d="M1117.1,94.559a17.688,17.688,0,0,0,4,1.617c2.819.742,5.777.8,8.594,1.55a17.949,17.949,0,0,1,8.853,5.51c4.118,4.693,5.953,11.655,11.513,14.488,3.845,1.958,8.487,1.352,12.656.226s8.329-2.733,12.646-2.61c6.785.2,12.779,4.676,17.015,9.977a20.007,20.007,0,0,0,4.085,4.394c2.315,1.584,5.284,1.876,8.084,1.734a30.823,30.823,0,0,0,12.5-3.425,41.873,41.873,0,0,0-2.443-22.151,52.5,52.5,0,0,0-33.647-30.655.24.24,0,0,0-.065-.015,70.162,70.162,0,0,0-41.8,1.433,44.756,44.756,0,0,0-16.474,9.8,24.5,24.5,0,0,0-5.042,6.985C1117.4,93.792,1117.245,94.175,1117.1,94.559Z" transform="translate(-1112.7 -72.682)" fill="#965326"/>
                            <path id="Trazado_683836" data-name="Trazado 683836" d="M1127.628,76.636c6.87,5.621,10.378,15.448,18.688,18.54,4.827,1.8,10.171.848,15.283.265s10.763-.616,14.812,2.56c2.117,1.669,3.55,4.043,5.552,5.853,4.219,3.8,10.487,4.57,16.072,3.494a29.6,29.6,0,0,0,5.1-1.475,52.5,52.5,0,0,0-33.647-30.655.239.239,0,0,0-.065-.015A70.162,70.162,0,0,0,1127.628,76.636Z" transform="translate(-1101.233 -72.682)" fill="#b5693c"/>
                            <path id="Trazado_683837" data-name="Trazado 683837" d="M1121.922,117.974s-1.442,16.114.251,19.725,12.537,26.123,23.925,24.733c9.5-1.16,32.744-15.082,40.824-23.377-9.9,6.87-36.282,24.4-44.017,21.71-9.586-3.335-20.422-24.549-20.216-26.651s.833-15.855.833-15.855-1.935-4.344-4.116-9.653C1120.056,111.58,1120.887,114.706,1121.922,117.974Z" transform="translate(-1110.191 -33.546)" fill="#ffdaba"/>
                          </g>
                          <g id="Grupo_948598" data-name="Grupo 948598" transform="translate(76.919 68.865)">
                            <path id="Trazado_683838" data-name="Trazado 683838" d="M1151.808,137.341a22.387,22.387,0,0,0,15.567-8.59,18.513,18.513,0,0,0,1.55-2.309c2.1-3.809,2.7-17.008-2.7-20.078-3.789-2.148-6.544.967-7.855,3.028v.008a12.286,12.286,0,0,0-.855,1.561Z" transform="translate(-1151.808 -105.64)" fill="#ffdaba"/>
                            <path id="Trazado_683839" data-name="Trazado 683839" d="M1151.808,136.691a22.387,22.387,0,0,0,15.567-8.59c.246-.374.464-.727.65-1.064,2.1-3.807,2.7-17.01-2.7-20.074-3.067-1.743-5.458-.029-6.954,1.778v.008a12.286,12.286,0,0,0-.855,1.561Z" transform="translate(-1151.808 -104.99)" fill="#fdbd8e"/>
                            <path id="Trazado_683840" data-name="Trazado 683840" d="M1164.938,112.244a5.665,5.665,0,0,1-.249,3.2c-1.475,4.43-5.9,7.81-10.138,10.949a11.107,11.107,0,0,0,1.485-6.937c-.09-.821-.267-1.638-.276-2.464C1155.727,113.667,1163.335,106,1164.938,112.244Z" transform="translate(-1148.819 -101.033)" fill="#fb9988"/>
                            <g id="Grupo_948597" data-name="Grupo 948597" transform="translate(3.607 8.767)">
                              <path id="Trazado_683841" data-name="Trazado 683841" d="M1153.534,127.689l.24-.136c.152-.094.4-.217.681-.41a9.464,9.464,0,0,0,2.089-1.887,8.543,8.543,0,0,0,1.722-3.517,7.363,7.363,0,0,0-.535-4.655,4.262,4.262,0,0,0-.307-.581l-.086-.142-.011-.017,0,0,0,0h0s0,.006.013-.025l.069-.125.144-.251c.1-.169.19-.332.295-.5a19.6,19.6,0,0,1,1.277-1.824c.445-.566.9-1.087,1.36-1.565a12.206,12.206,0,0,1,1.339-1.245,2.956,2.956,0,0,1,1.373-.606,2.142,2.142,0,0,1,1.166.194,1.1,1.1,0,0,1,.52.47.772.772,0,0,1,.073.221.509.509,0,0,0-.015-.236,1.034,1.034,0,0,0-.434-.6,2.4,2.4,0,0,0-1.337-.42,3.745,3.745,0,0,0-1.816.518,11.637,11.637,0,0,0-1.651,1.185,17.393,17.393,0,0,0-1.628,1.527,15.994,15.994,0,0,0-1.507,1.866c-.117.169-.228.343-.338.516l-.163.267-.217.372-.151.263c.042.09.1.178.149.263l.215.376a3.46,3.46,0,0,1,.265.508,7.787,7.787,0,0,1,.683,4.114,8.8,8.8,0,0,1-1.122,3.36,9.673,9.673,0,0,1-1.6,2.041c-.226.228-.431.382-.556.5S1153.534,127.689,1153.534,127.689Z" transform="translate(-1153.534 -109.836)" fill="#fd7d6f"/>
                            </g>
                          </g>
                        </g>
                      </g>
                      <path id="Trazado_683842" data-name="Trazado 683842" d="M1139.748,166.913l19,14.846,17.892-39.228a118.031,118.031,0,0,0-11.879-3.51Z" transform="translate(-1088.028 -0.409)" fill="#fff0e7"/>
                    </g>
                    <path id="Trazado_683843" data-name="Trazado 683843" d="M1148.469,122.368c.127-.658.326-1.6.646-2.75a24.867,24.867,0,0,1,1.454-3.972,16.946,16.946,0,0,1,2.955-4.421,15.983,15.983,0,0,1,4.279-3.2,21.508,21.508,0,0,1,3.958-1.565c.5-.146.955-.259,1.37-.355.5-.476.8-.738.8-.738l-.261.616c.313-.065.606-.123.846-.165.66-.117,1.028-.159,1.028-.159s-.911.593-2.407,1.575c-.316.736-.712,1.669-1.178,2.76a49.238,49.238,0,0,0-3.439,10.89,65,65,0,0,0-.537,11.492c.012,1.548.027,2.808.033,3.682-.017.878-.023,1.367-.023,1.367s-.2-.449-.552-1.254-.813-1.987-1.3-3.481a32.869,32.869,0,0,1-1.312-5.416,22.414,22.414,0,0,1,0-7.008,21.086,21.086,0,0,1,2.348-6.64,28.188,28.188,0,0,1,3.015-4.4,30.712,30.712,0,0,0-4.6,3.943,49.12,49.12,0,0,0-5.184,7.029c-.644.982-1.166,1.782-1.53,2.338-.38.547-.589.853-.589.853S1148.354,123.024,1148.469,122.368Z" transform="translate(-1077.472 -37.077)" fill="#85441d"/>
                    <g id="Grupo_948605" data-name="Grupo 948605" transform="translate(5.15 53.55)">
                      <path id="Trazado_683844" data-name="Trazado 683844" d="M1116.865,106.691s7.474-10,11.64-6.043,2.294,4.375,2.294,4.375Z" transform="translate(-1116.86 -96.774)" fill="#965326"/>
                      <path id="Trazado_683845" data-name="Trazado 683845" d="M1156.236,109.76s-13.789-15.878-19.436-10.236c-3.295,3.291-1.005,5.533-1.005,5.533Z" transform="translate(-1097.08 -98.311)" fill="#965326"/>
                      <path id="Trazado_683846" data-name="Trazado 683846" d="M1136.341,104.572c.66,1.705,2.882,3.038,4.436,3.792a3.789,3.789,0,0,1,2.821-1.456c2.687,0,4.862,3.5,4.862,7.81s-2.175,7.808-4.862,7.808-4.862-3.5-4.862-7.808a11.705,11.705,0,0,1,.579-3.692C1137.264,109.223,1136.341,104.572,1136.341,104.572Z" transform="translate(-1095.641 -91.489)" fill="#161818"/>
                      <path id="Trazado_683847" data-name="Trazado 683847" d="M1149.961,107.457a10.014,10.014,0,0,1-10.732,4.346,10.007,10.007,0,0,1,10.732-4.346Z" transform="translate(-1092.494 -88.589)" fill="#fff0e7"/>
                      <path id="Trazado_683848" data-name="Trazado 683848" d="M1120.6,106.56c.455,1.168,1.962,2.089,3.04,2.618a2.73,2.73,0,0,1,1.9-.861c2.023,0,3.665,2.637,3.665,5.888s-1.642,5.886-3.665,5.886-3.667-2.637-3.667-5.886a8.574,8.574,0,0,1,.635-3.312C1121.195,109.546,1120.6,106.56,1120.6,106.56Z" transform="translate(-1112.794 -89.323)" fill="#161818"/>
                      <path id="Trazado_683849" data-name="Trazado 683849" d="M1119.7,108.889a8.083,8.083,0,0,0,7.633,3.09,8.078,8.078,0,0,0-7.633-3.09Z" transform="translate(-1113.769 -86.864)" fill="#fff0e7"/>
                      <g id="Grupo_948602" data-name="Grupo 948602" transform="translate(18.462 18.994)">
                        <path id="Trazado_683850" data-name="Trazado 683850" d="M1135.741,118.551a8.584,8.584,0,0,1,3.656-.959,12.2,12.2,0,0,1-6.634,6.4,1.391,1.391,0,0,1-1.532-.142,14.321,14.321,0,0,1-4.189-3.732,2.762,2.762,0,0,1-.541-1c-.29-1.231.556-.961,1.287-.673a11.385,11.385,0,0,0,7.953.107Z" transform="translate(-1124.886 -96.316)" fill="#fb9988"/>
                        <path id="Trazado_683851" data-name="Trazado 683851" d="M1133.314,134.368c-.75-.671-1.592-1.237-2.361-1.891a19.27,19.27,0,0,1-2.606-2.662c4-2.752,3.953-6.925,3.761-11.653a13.776,13.776,0,0,0-4.935-9.992,4.985,4.985,0,0,0-1.384-.769c.247.284.414.61.637.9a26.853,26.853,0,0,1,1.69,2.278,16.948,16.948,0,0,1,1.285,2.57,16.714,16.714,0,0,1,1.193,5.6,13.811,13.811,0,0,1-.9,5.535,10.9,10.9,0,0,1-4,5.157c-.015.01,2.731,3.182,3,3.439a14.038,14.038,0,0,0,2.265,1.786,4.975,4.975,0,0,0,2.691,1.068,1.582,1.582,0,0,0,.867-.259,2.981,2.981,0,0,1-.468-.376c-.063-.061-.123-.125-.182-.188C1133.693,134.717,1133.506,134.541,1133.314,134.368Z" transform="translate(-1125.698 -107.401)" fill="#fd7d6f"/>
                      </g>
                      <path id="Trazado_683852" data-name="Trazado 683852" d="M1131.132,122.355c-.641,1.709-4.331,1.906-8.245.443s-6.569-4.041-5.93-5.75,4.332-1.908,8.245-.441S1131.772,120.643,1131.132,122.355Z" transform="translate(-1116.862 -79.449)" fill="#fb9988"/>
                      <path id="Trazado_683853" data-name="Trazado 683853" d="M1158.438,116.414c.669,2.576-3.575,5.907-9.478,7.434s-11.231.681-11.9-1.9,3.575-5.907,9.478-7.436S1157.772,113.835,1158.438,116.414Z" transform="translate(-1094.93 -81.485)" fill="#fb9988"/>
                      <g id="Grupo_948604" data-name="Grupo 948604" transform="translate(21.604 47.325)">
                        <g id="Grupo_948603" data-name="Grupo 948603" transform="translate(10.123 13.856)">
                          <path id="Trazado_683854" data-name="Trazado 683854" d="M1132.047,128.694a14.388,14.388,0,0,0,11.933-1.1,6.192,6.192,0,0,1-5.078,3.6A10.235,10.235,0,0,1,1132.047,128.694Z" transform="translate(-1132.047 -127.591)" fill="#fd7d6f"/>
                        </g>
                        <path id="Trazado_683855" data-name="Trazado 683855" d="M1156.407,121.3a19.281,19.281,0,0,1-5.006,8.991,14.678,14.678,0,0,1-7.714,4.018,12.951,12.951,0,0,1-8.617-1.314,21.279,21.279,0,0,1-7.867-7.873c17.33-5.748,28.733-3.9,29.188-3.828Z" transform="translate(-1127.202 -120.96)" fill="#fc5b68"/>
                        <path id="Trazado_683856" data-name="Trazado 683856" d="M1156.407,121.3s-.265,1-2.754,2.359-20.178,3.583-22.257,3.335a10.162,10.162,0,0,1-4.194-1.872c17.33-5.748,28.733-3.9,29.188-3.828Z" transform="translate(-1127.202 -120.96)" fill="#fff0e7"/>
                        <path id="Trazado_683857" data-name="Trazado 683857" d="M1147.3,126.224a14.677,14.677,0,0,1-7.714,4.018,12.951,12.951,0,0,1-8.617-1.314C1134.038,126.654,1141.147,122.417,1147.3,126.224Z" transform="translate(-1123.1 -116.888)" fill="#cf4a57"/>
                      </g>
                    </g>
                    <path id="Trazado_683858" data-name="Trazado 683858" d="M1114.4,118.162a14.89,14.89,0,0,0,29.767.631c2.361-1.757,5.627-.577,6.937.027a16.293,16.293,0,1,0,32.2-4.217l21.154-3.456-.4-2.468-21.484,3.508a16.286,16.286,0,0,0-31.388,3.951,9.647,9.647,0,0,0-7.161-.155,14.891,14.891,0,0,0-29.623,2.177Zm39.163-.134a13.8,13.8,0,1,1,13.805,13.8A13.819,13.819,0,0,1,1153.561,118.028Zm-36.662.134a12.4,12.4,0,1,1,12.4,12.4A12.414,12.414,0,0,1,1116.9,118.162Z" transform="translate(-1114.398 -41.042)" fill="#fff0e7"/>
                  </g>
                </g>
              </g>
            </g>
            <path id="Trazado_683859" data-name="Trazado 683859" d="M1215.6,354.921h-32.786s1.11-59.155,1.11-60.823c0-1.367-14.338-62.1-19.549-84.114v-.006c-1.151-4.887-1.858-7.863-1.858-7.863V165.37l9.451-13.272,2.733-3.834s.278.274.777.784a.116.116,0,0,0,.042.044c4.266,4.35,23.8,24.564,24.4,30.776.675,6.968,15.124,101.442,15.681,116.731S1215.6,354.921,1215.6,354.921Z" transform="translate(-986.255 9.661)" fill="#ff9300"/>
            <path id="Trazado_683860" data-name="Trazado 683860" d="M1181.845,326.111s1.11-59.155,1.11-60.823c0-1.366-14.338-62.1-19.549-84.114v-.006l1.918-6.461s22.874,78.909,22.473,86.129c-.307,5.518,1.569,46.307,2.47,65.276Z" transform="translate(-985.286 38.471)" fill="#cf691f"/>
            <path id="Trazado_683861" data-name="Trazado 683861" d="M1222.12,362.655h-5.153c.184-16.072.535-53.213-.092-55.823-.79-3.333-11.985-101.7-16.99-119.232-1.983-6.943-9.192-15.673-17.188-23.684-1.383-1.392-2.8-2.758-4.21-4.085-10.976-10.387-21.956-18.665-21.956-18.665,6.034,2.146,21.332,11.005,25.467,15.615a.116.116,0,0,0,.042.044c4.266,4.35,23.8,24.564,24.4,30.776.675,6.968,15.124,101.442,15.681,116.731S1222.12,362.655,1222.12,362.655Z" transform="translate(-992.775 1.928)" fill="#ffb800"/>
          </g>
        </g>
        <ellipse id="Elipse_5269" data-name="Elipse 5269" cx="127.392" cy="19.327" rx="127.392" ry="19.327" transform="translate(1115.772 813.72)" fill="#32324c" opacity="0.1"/>
      </g>
    </g>
    <g id="Grupo_948614" data-name="Grupo 948614" transform="translate(-527.987 -6097.482)">
      <rect id="Rectángulo_335418" data-name="Rectángulo 335418" width="269.067" height="125.139" rx="13.129" transform="translate(0 0)" fill="#fff"/>
      <path id="Trazado_639247" data-name="Trazado 639247" d="M446.365,258.388s6.546,17.249,15.789,24.359c0,0-21.243-.262-27.838-7.364A109.274,109.274,0,0,0,446.365,258.388Z" transform="translate(-179.167 -181.528)" fill="#fff"/>
    </g>
    <path id="Trazado_702396" data-name="Trazado 702396" d="M7.727,13.32H2.078A2.992,2.992,0,0,0,2.8,15.383a2.478,2.478,0,0,0,1.891.727,3.931,3.931,0,0,0,2.484-.891v1.2a4.643,4.643,0,0,1-2.789.766A3.381,3.381,0,0,1,1.719,16.1,4.461,4.461,0,0,1,.75,13.031,4.375,4.375,0,0,1,1.809,9.988,3.394,3.394,0,0,1,4.438,8.813a3.008,3.008,0,0,1,2.43,1.016,4.234,4.234,0,0,1,.859,2.82ZM6.414,12.234a2.607,2.607,0,0,0-.535-1.727,1.823,1.823,0,0,0-1.465-.617,2.07,2.07,0,0,0-1.539.648,2.943,2.943,0,0,0-.781,1.7ZM15.508,9,12.82,13.047,15.461,17H13.969L12.4,14.406q-.148-.242-.352-.609h-.031q-.039.07-.367.609L10.047,17H8.57L11.3,13.078,8.688,9H10.18l1.547,2.734q.172.3.336.625h.031l2-3.359Zm6.953,7.633a4.163,4.163,0,0,1-2.187.555,3.622,3.622,0,0,1-2.762-1.113,4.035,4.035,0,0,1-1.051-2.887,4.435,4.435,0,0,1,1.133-3.176,3.963,3.963,0,0,1,3.023-1.2,4.209,4.209,0,0,1,1.859.391v1.313a3.258,3.258,0,0,0-1.906-.625,2.576,2.576,0,0,0-2.012.879,3.335,3.335,0,0,0-.785,2.309,3.176,3.176,0,0,0,.738,2.219,2.545,2.545,0,0,0,1.98.813,3.211,3.211,0,0,0,1.969-.7Zm8.367-3.312H25.18a2.992,2.992,0,0,0,.719,2.063,2.478,2.478,0,0,0,1.891.727,3.931,3.931,0,0,0,2.484-.891v1.2a4.643,4.643,0,0,1-2.789.766A3.381,3.381,0,0,1,24.82,16.1a4.461,4.461,0,0,1-.969-3.066A4.375,4.375,0,0,1,24.91,9.988a3.394,3.394,0,0,1,2.629-1.176,3.008,3.008,0,0,1,2.43,1.016,4.234,4.234,0,0,1,.859,2.82Zm-1.312-1.086a2.607,2.607,0,0,0-.535-1.727,1.823,1.823,0,0,0-1.465-.617,2.07,2.07,0,0,0-1.539.648,2.943,2.943,0,0,0-.781,1.7ZM34.047,17H32.766V5.156h1.281Zm9.023-3.68H37.422a2.992,2.992,0,0,0,.719,2.063,2.478,2.478,0,0,0,1.891.727,3.931,3.931,0,0,0,2.484-.891v1.2a4.643,4.643,0,0,1-2.789.766,3.381,3.381,0,0,1-2.664-1.09,4.461,4.461,0,0,1-.969-3.066,4.375,4.375,0,0,1,1.059-3.043,3.394,3.394,0,0,1,2.629-1.176,3.008,3.008,0,0,1,2.43,1.016,4.234,4.234,0,0,1,.859,2.82Zm-1.312-1.086a2.607,2.607,0,0,0-.535-1.727,1.823,1.823,0,0,0-1.465-.617,2.07,2.07,0,0,0-1.539.648,2.943,2.943,0,0,0-.781,1.7ZM51.648,17H50.367V12.438q0-2.547-1.859-2.547a2.017,2.017,0,0,0-1.59.723,2.679,2.679,0,0,0-.629,1.824V17H45.008V9h1.281v1.328h.031a2.887,2.887,0,0,1,2.625-1.516,2.448,2.448,0,0,1,2.008.848,3.776,3.776,0,0,1,.7,2.449Zm6.125-.078a2.47,2.47,0,0,1-1.2.25q-2.1,0-2.1-2.344V10.094H53.1V9h1.375V7.047l1.281-.414V9h2.016v1.094H55.758V14.6a1.869,1.869,0,0,0,.273,1.148,1.091,1.091,0,0,0,.906.344,1.347,1.347,0,0,0,.836-.266Zm8.141-3.6H60.266a2.992,2.992,0,0,0,.719,2.063,2.478,2.478,0,0,0,1.891.727,3.931,3.931,0,0,0,2.484-.891v1.2a4.643,4.643,0,0,1-2.789.766,3.381,3.381,0,0,1-2.664-1.09,4.461,4.461,0,0,1-.969-3.066A4.375,4.375,0,0,1,60,9.988a3.394,3.394,0,0,1,2.629-1.176,3.008,3.008,0,0,1,2.43,1.016,4.234,4.234,0,0,1,.859,2.82ZM64.6,12.234a2.607,2.607,0,0,0-.535-1.727A1.823,1.823,0,0,0,62.6,9.891a2.07,2.07,0,0,0-1.539.648,2.943,2.943,0,0,0-.781,1.7Zm11.734,4.906a.816.816,0,0,1-.605-.25.836.836,0,0,1-.246-.609.876.876,0,0,1,.246-.621.8.8,0,0,1,.605-.262.815.815,0,0,1,.605.262.862.862,0,0,1,.254.621.823.823,0,0,1-.254.609A.833.833,0,0,1,76.336,17.141Zm-3.922,0a.842.842,0,0,1-.613-.25.823.823,0,0,1-.254-.609.862.862,0,0,1,.254-.621.823.823,0,0,1,.613-.262.815.815,0,0,1,.605.262.862.862,0,0,1,.254.621.823.823,0,0,1-.254.609A.833.833,0,0,1,72.414,17.141Zm-3.922,0a.8.8,0,0,1-.6-.25.843.843,0,0,1-.242-.609.884.884,0,0,1,.242-.621.786.786,0,0,1,.6-.262.815.815,0,0,1,.605.262.862.862,0,0,1,.254.621.854.854,0,0,1-.859.859ZM90.328,9l-3.68,9.281q-.984,2.484-2.766,2.484a2.931,2.931,0,0,1-.836-.1V19.516a2.375,2.375,0,0,0,.758.141A1.57,1.57,0,0,0,85.258,18.5l.641-1.516L82.773,9H84.2l2.164,6.156q.039.117.164.609h.047q.039-.187.156-.594L89,9Zm12.125,0-3.68,9.281q-.984,2.484-2.766,2.484a2.931,2.931,0,0,1-.836-.1V19.516a2.375,2.375,0,0,0,.758.141A1.57,1.57,0,0,0,97.383,18.5l.641-1.516L94.9,9H96.32l2.164,6.156q.039.117.164.609H98.7q.039-.187.156-.594L101.125,9Zm4.719,8.188a3.711,3.711,0,0,1-2.832-1.121,4.153,4.153,0,0,1-1.059-2.973,4.326,4.326,0,0,1,1.1-3.148,3.96,3.96,0,0,1,2.977-1.133,3.588,3.588,0,0,1,2.793,1.1,4.368,4.368,0,0,1,1,3.055,4.3,4.3,0,0,1-1.082,3.066A3.791,3.791,0,0,1,107.172,17.188Zm.094-7.3a2.437,2.437,0,0,0-1.953.84,3.449,3.449,0,0,0-.719,2.316,3.262,3.262,0,0,0,.727,2.242,2.469,2.469,0,0,0,1.945.82,2.342,2.342,0,0,0,1.91-.8,3.492,3.492,0,0,0,.668-2.289,3.552,3.552,0,0,0-.668-2.312A2.332,2.332,0,0,0,107.266,9.891ZM123.313,17h-1.281V15.75H122a2.682,2.682,0,0,1-2.461,1.438,2.63,2.63,0,0,1-1.871-.633,2.192,2.192,0,0,1-.676-1.68q0-2.242,2.641-2.609l2.4-.336q0-2.039-1.648-2.039a3.938,3.938,0,0,0-2.609.984V9.563a4.958,4.958,0,0,1,2.719-.75q2.82,0,2.82,2.984Zm-1.281-4.047-1.93.266a3.133,3.133,0,0,0-1.344.441,1.273,1.273,0,0,0-.453,1.121,1.221,1.221,0,0,0,.418.957,1.615,1.615,0,0,0,1.113.371,2.056,2.056,0,0,0,1.574-.668,2.387,2.387,0,0,0,.621-1.691ZM132.016,9l-3.187,8H127.57l-3.031-8h1.406l2.031,5.813a5.216,5.216,0,0,1,.281,1.117h.031a5.283,5.283,0,0,1,.25-1.086L130.664,9Zm7.8,4.32h-5.648a2.992,2.992,0,0,0,.719,2.063,2.478,2.478,0,0,0,1.891.727,3.931,3.931,0,0,0,2.484-.891v1.2a4.643,4.643,0,0,1-2.789.766,3.381,3.381,0,0,1-2.664-1.09,4.461,4.461,0,0,1-.969-3.066A4.374,4.374,0,0,1,133.9,9.988a3.394,3.394,0,0,1,2.629-1.176,3.008,3.008,0,0,1,2.43,1.016,4.234,4.234,0,0,1,.859,2.82Zm-1.312-1.086a2.607,2.607,0,0,0-.535-1.727,1.823,1.823,0,0,0-1.465-.617,2.07,2.07,0,0,0-1.539.648,2.943,2.943,0,0,0-.781,1.7ZM145.93,10.3a1.567,1.567,0,0,0-.969-.258,1.635,1.635,0,0,0-1.371.773,3.576,3.576,0,0,0-.551,2.109V17h-1.281V9h1.281v1.648h.031a2.794,2.794,0,0,1,.836-1.316,1.906,1.906,0,0,1,1.258-.473,2.092,2.092,0,0,1,.766.109Zm2.047-3.328a.812.812,0,0,1-.586-.234.791.791,0,0,1-.242-.594.821.821,0,0,1,.828-.836.827.827,0,0,1,.6.238.835.835,0,0,1,0,1.184A.82.82,0,0,1,147.977,6.969ZM148.6,17H147.32V9H148.6Zm9.422-.641q0,4.406-4.219,4.406a5.664,5.664,0,0,1-2.594-.562V18.922a5.327,5.327,0,0,0,2.578.75q2.953,0,2.953-3.141v-.875h-.031a3.237,3.237,0,0,1-5.152.465,4.263,4.263,0,0,1-.91-2.863,4.981,4.981,0,0,1,.98-3.242,3.275,3.275,0,0,1,2.684-1.2,2.608,2.608,0,0,1,2.4,1.3h.031V9h1.281Zm-1.281-2.977V12.2a2.289,2.289,0,0,0-.645-1.633,2.122,2.122,0,0,0-1.605-.68,2.225,2.225,0,0,0-1.859.863,3.853,3.853,0,0,0-.672,2.418,3.308,3.308,0,0,0,.645,2.137,2.082,2.082,0,0,0,1.707.8,2.23,2.23,0,0,0,1.754-.766A2.854,2.854,0,0,0,156.742,13.383ZM167.086,17H165.8V15.734h-.031a2.631,2.631,0,0,1-2.469,1.453q-2.859,0-2.859-3.406V9h1.273v4.578q0,2.531,1.938,2.531a1.96,1.96,0,0,0,1.543-.691,2.645,2.645,0,0,0,.605-1.809V9h1.281Zm5.93.188a3.711,3.711,0,0,1-2.832-1.121,4.153,4.153,0,0,1-1.059-2.973,4.326,4.326,0,0,1,1.1-3.148A3.96,3.96,0,0,1,173.2,8.813,3.588,3.588,0,0,1,176,9.914a4.368,4.368,0,0,1,1,3.055,4.3,4.3,0,0,1-1.082,3.066A3.791,3.791,0,0,1,173.016,17.188Zm.094-7.3a2.437,2.437,0,0,0-1.953.84,3.449,3.449,0,0,0-.719,2.316,3.262,3.262,0,0,0,.727,2.242,2.469,2.469,0,0,0,1.945.82,2.342,2.342,0,0,0,1.91-.8,3.492,3.492,0,0,0,.668-2.289,3.552,3.552,0,0,0-.668-2.312A2.332,2.332,0,0,0,173.109,9.891Zm16.75,3.43h-5.648a2.992,2.992,0,0,0,.719,2.063,2.478,2.478,0,0,0,1.891.727,3.931,3.931,0,0,0,2.484-.891v1.2a4.643,4.643,0,0,1-2.789.766,3.381,3.381,0,0,1-2.664-1.09,4.461,4.461,0,0,1-.969-3.066,4.374,4.374,0,0,1,1.059-3.043,3.394,3.394,0,0,1,2.629-1.176A3.008,3.008,0,0,1,189,9.828a4.234,4.234,0,0,1,.859,2.82Zm-1.312-1.086a2.607,2.607,0,0,0-.535-1.727,1.823,1.823,0,0,0-1.465-.617,2.07,2.07,0,0,0-1.539.648,2.943,2.943,0,0,0-.781,1.7ZM198.438,17h-1.281V12.438q0-2.547-1.859-2.547a2.017,2.017,0,0,0-1.59.723,2.679,2.679,0,0,0-.629,1.824V17H191.8V9h1.281v1.328h.031a2.887,2.887,0,0,1,2.625-1.516,2.448,2.448,0,0,1,2.008.848,3.776,3.776,0,0,1,.7,2.449Zm8.078,0h-1.281V5.156h1.281Zm8.32,0h-1.281V15.75h-.031a2.682,2.682,0,0,1-2.461,1.438,2.63,2.63,0,0,1-1.871-.633,2.192,2.192,0,0,1-.676-1.68q0-2.242,2.641-2.609l2.4-.336q0-2.039-1.648-2.039a3.938,3.938,0,0,0-2.609.984V9.563a4.958,4.958,0,0,1,2.719-.75q2.82,0,2.82,2.984Zm-1.281-4.047-1.93.266a3.133,3.133,0,0,0-1.344.441,1.273,1.273,0,0,0-.453,1.121,1.221,1.221,0,0,0,.418.957,1.615,1.615,0,0,0,1.113.371,2.056,2.056,0,0,0,1.574-.668,2.387,2.387,0,0,0,.621-1.691ZM4.641,41.188a3.711,3.711,0,0,1-2.832-1.121A4.153,4.153,0,0,1,.75,37.094a4.326,4.326,0,0,1,1.1-3.148,3.96,3.96,0,0,1,2.977-1.133,3.588,3.588,0,0,1,2.793,1.1,4.368,4.368,0,0,1,1,3.055,4.3,4.3,0,0,1-1.082,3.066A3.791,3.791,0,0,1,4.641,41.188Zm.094-7.3a2.437,2.437,0,0,0-1.953.84,3.449,3.449,0,0,0-.719,2.316,3.262,3.262,0,0,0,.727,2.242,2.469,2.469,0,0,0,1.945.82,2.342,2.342,0,0,0,1.91-.8,3.492,3.492,0,0,0,.668-2.289A3.552,3.552,0,0,0,6.645,34.7,2.332,2.332,0,0,0,4.734,33.891Zm9.891-3.609a1.707,1.707,0,0,0-.852-.211q-1.344,0-1.344,1.7V33H14.3v1.094H12.43V41H11.156V34.094H9.789V33h1.367V31.7a2.7,2.7,0,0,1,.727-1.988,2.453,2.453,0,0,1,1.813-.73,2.511,2.511,0,0,1,.93.141Zm1.711.688a.812.812,0,0,1-.586-.234.791.791,0,0,1-.242-.594.821.821,0,0,1,.828-.836.827.827,0,0,1,.6.238.835.835,0,0,1,0,1.184A.82.82,0,0,1,16.336,30.969ZM16.961,41H15.68V33h1.281Zm8.047-.367a4.163,4.163,0,0,1-2.187.555,3.622,3.622,0,0,1-2.762-1.113,4.035,4.035,0,0,1-1.051-2.887,4.435,4.435,0,0,1,1.133-3.176,3.963,3.963,0,0,1,3.023-1.2,4.209,4.209,0,0,1,1.859.391v1.313a3.258,3.258,0,0,0-1.906-.625,2.576,2.576,0,0,0-2.012.879,3.335,3.335,0,0,0-.785,2.309,3.176,3.176,0,0,0,.738,2.219,2.545,2.545,0,0,0,1.98.813,3.211,3.211,0,0,0,1.969-.7ZM27.6,30.969a.812.812,0,0,1-.586-.234.791.791,0,0,1-.242-.594A.821.821,0,0,1,27.6,29.3a.827.827,0,0,1,.6.238.835.835,0,0,1,0,1.184A.82.82,0,0,1,27.6,30.969ZM28.227,41H26.945V33h1.281Zm9.234,0H36.18V36.438q0-2.547-1.859-2.547a2.017,2.017,0,0,0-1.59.723,2.679,2.679,0,0,0-.629,1.824V41H30.82V33H32.1v1.328h.031a2.887,2.887,0,0,1,2.625-1.516,2.448,2.448,0,0,1,2.008.848,3.776,3.776,0,0,1,.7,2.449ZM45.6,41H44.32V39.75h-.031a2.682,2.682,0,0,1-2.461,1.438,2.63,2.63,0,0,1-1.871-.633,2.192,2.192,0,0,1-.676-1.68q0-2.242,2.641-2.609l2.4-.336q0-2.039-1.648-2.039a3.938,3.938,0,0,0-2.609.984V33.563a4.958,4.958,0,0,1,2.719-.75q2.82,0,2.82,2.984ZM44.32,36.953l-1.93.266a3.133,3.133,0,0,0-1.344.441,1.273,1.273,0,0,0-.453,1.121,1.221,1.221,0,0,0,.418.957,1.615,1.615,0,0,0,1.113.371,2.056,2.056,0,0,0,1.574-.668,2.387,2.387,0,0,0,.621-1.691ZM59.227,41H57.945V39.641h-.031a2.958,2.958,0,0,1-2.75,1.547,2.988,2.988,0,0,1-2.41-1.074,4.407,4.407,0,0,1-.9-2.926,4.794,4.794,0,0,1,1-3.18,3.3,3.3,0,0,1,2.664-1.2,2.564,2.564,0,0,1,2.4,1.3h.031V29.156h1.281Zm-1.281-3.617V36.2a2.289,2.289,0,0,0-.641-1.641,2.149,2.149,0,0,0-1.625-.672,2.212,2.212,0,0,0-1.844.859,3.766,3.766,0,0,0-.672,2.375,3.387,3.387,0,0,0,.645,2.184,2.107,2.107,0,0,0,1.73.8,2.188,2.188,0,0,0,1.738-.773A2.882,2.882,0,0,0,57.945,37.383Zm10.3-.062H62.6a2.992,2.992,0,0,0,.719,2.063,2.478,2.478,0,0,0,1.891.727,3.931,3.931,0,0,0,2.484-.891v1.2a4.643,4.643,0,0,1-2.789.766,3.381,3.381,0,0,1-2.664-1.09,4.461,4.461,0,0,1-.969-3.066,4.375,4.375,0,0,1,1.059-3.043,3.394,3.394,0,0,1,2.629-1.176,3.008,3.008,0,0,1,2.43,1.016,4.234,4.234,0,0,1,.859,2.82Zm-1.312-1.086a2.607,2.607,0,0,0-.535-1.727,1.823,1.823,0,0,0-1.465-.617,2.07,2.07,0,0,0-1.539.648,2.943,2.943,0,0,0-.781,1.7Zm8.945,3.609h-.031V44.68H74.57V33h1.281v1.406h.031a3.03,3.03,0,0,1,2.766-1.594,2.93,2.93,0,0,1,2.414,1.074,4.449,4.449,0,0,1,.867,2.879,4.959,4.959,0,0,1-.977,3.215,3.251,3.251,0,0,1-2.672,1.207A2.676,2.676,0,0,1,75.883,39.844Zm-.031-3.227v1.117a2.379,2.379,0,0,0,.645,1.684,2.3,2.3,0,0,0,3.461-.2,4.086,4.086,0,0,0,.66-2.477A3.225,3.225,0,0,0,80,34.648a2.043,2.043,0,0,0-1.672-.758,2.27,2.27,0,0,0-1.8.777A2.854,2.854,0,0,0,75.852,36.617ZM89.7,41H88.422V39.75h-.031a2.682,2.682,0,0,1-2.461,1.438,2.63,2.63,0,0,1-1.871-.633,2.192,2.192,0,0,1-.676-1.68q0-2.242,2.641-2.609l2.4-.336q0-2.039-1.648-2.039a3.938,3.938,0,0,0-2.609.984V33.563a4.958,4.958,0,0,1,2.719-.75q2.82,0,2.82,2.984Zm-1.281-4.047-1.93.266a3.133,3.133,0,0,0-1.344.441,1.273,1.273,0,0,0-.453,1.121,1.221,1.221,0,0,0,.418.957,1.615,1.615,0,0,0,1.113.371,2.056,2.056,0,0,0,1.574-.668,2.387,2.387,0,0,0,.621-1.691ZM96.289,34.3a1.567,1.567,0,0,0-.969-.258,1.635,1.635,0,0,0-1.371.773,3.576,3.576,0,0,0-.551,2.109V41H92.117V33H93.4v1.648h.031a2.793,2.793,0,0,1,.836-1.316,1.906,1.906,0,0,1,1.258-.473,2.092,2.092,0,0,1,.766.109Zm8.219,10.383h-1.281V39.625H103.2a2.867,2.867,0,0,1-2.734,1.563,3.011,3.011,0,0,1-2.418-1.074,4.381,4.381,0,0,1-.91-2.926,4.791,4.791,0,0,1,1-3.184,3.328,3.328,0,0,1,2.688-1.191,2.523,2.523,0,0,1,2.375,1.3h.031V33h1.281ZM103.227,37.4V36.234a2.328,2.328,0,0,0-.645-1.664,2.158,2.158,0,0,0-1.637-.68,2.2,2.2,0,0,0-1.828.855,3.819,3.819,0,0,0-.672,2.41,3.308,3.308,0,0,0,.648,2.168,2.069,2.069,0,0,0,1.672.785,2.254,2.254,0,0,0,1.793-.77A2.855,2.855,0,0,0,103.227,37.4ZM113.57,41h-1.281V39.734h-.031a2.631,2.631,0,0,1-2.469,1.453q-2.859,0-2.859-3.406V33H108.2v4.578q0,2.531,1.938,2.531a1.96,1.96,0,0,0,1.543-.691,2.645,2.645,0,0,0,.605-1.809V33h1.281Zm9.016-3.68h-5.648a2.992,2.992,0,0,0,.719,2.063,2.478,2.478,0,0,0,1.891.727,3.931,3.931,0,0,0,2.484-.891v1.2a4.643,4.643,0,0,1-2.789.766,3.381,3.381,0,0,1-2.664-1.09,4.461,4.461,0,0,1-.969-3.066,4.375,4.375,0,0,1,1.059-3.043,3.394,3.394,0,0,1,2.629-1.176,3.008,3.008,0,0,1,2.43,1.016,4.234,4.234,0,0,1,.859,2.82Zm-1.312-1.086a2.607,2.607,0,0,0-.535-1.727,1.823,1.823,0,0,0-1.465-.617,2.07,2.07,0,0,0-1.539.648,2.943,2.943,0,0,0-.781,1.7Zm2.766,4.477V39.336a3.792,3.792,0,0,0,2.3.773q1.688,0,1.688-1.125a.976.976,0,0,0-.145-.543,1.44,1.44,0,0,0-.391-.395,3.007,3.007,0,0,0-.578-.309q-.332-.137-.715-.285a9.206,9.206,0,0,1-.934-.426,2.82,2.82,0,0,1-.672-.484,1.8,1.8,0,0,1-.406-.613,2.17,2.17,0,0,1-.137-.8,1.912,1.912,0,0,1,.258-1A2.286,2.286,0,0,1,125,33.4a3.206,3.206,0,0,1,.98-.441,4.349,4.349,0,0,1,1.137-.148,4.59,4.59,0,0,1,1.859.359v1.3a3.624,3.624,0,0,0-2.031-.578,2.374,2.374,0,0,0-.648.082,1.587,1.587,0,0,0-.5.23,1.065,1.065,0,0,0-.32.355.936.936,0,0,0-.113.457,1.1,1.1,0,0,0,.113.523,1.152,1.152,0,0,0,.332.375,2.538,2.538,0,0,0,.531.3q.313.133.711.289a9.9,9.9,0,0,1,.953.418,3.269,3.269,0,0,1,.719.484,1.893,1.893,0,0,1,.457.621,2,2,0,0,1,.16.836,1.971,1.971,0,0,1-.262,1.031,2.243,2.243,0,0,1-.7.727,3.2,3.2,0,0,1-1.008.43,4.976,4.976,0,0,1-1.2.141A4.539,4.539,0,0,1,124.039,40.711Zm18.3.289h-1.281V36.438q0-2.547-1.859-2.547a2.017,2.017,0,0,0-1.59.723,2.679,2.679,0,0,0-.629,1.824V41H135.7V33h1.281v1.328h.031a2.887,2.887,0,0,1,2.625-1.516,2.448,2.448,0,0,1,2.008.848,3.776,3.776,0,0,1,.7,2.449Zm8.141,0H149.2V39.75h-.031a2.682,2.682,0,0,1-2.461,1.438,2.63,2.63,0,0,1-1.871-.633,2.192,2.192,0,0,1-.676-1.68q0-2.242,2.641-2.609l2.4-.336q0-2.039-1.648-2.039a3.938,3.938,0,0,0-2.609.984V33.563a4.958,4.958,0,0,1,2.719-.75q2.82,0,2.82,2.984ZM149.2,36.953l-1.93.266a3.133,3.133,0,0,0-1.344.441,1.273,1.273,0,0,0-.453,1.121,1.221,1.221,0,0,0,.418.957,1.615,1.615,0,0,0,1.113.371,2.056,2.056,0,0,0,1.574-.668,2.387,2.387,0,0,0,.621-1.691Zm9.148,3.68a4.163,4.163,0,0,1-2.187.555,3.622,3.622,0,0,1-2.762-1.113,4.035,4.035,0,0,1-1.051-2.887,4.435,4.435,0,0,1,1.133-3.176,3.963,3.963,0,0,1,3.023-1.2,4.208,4.208,0,0,1,1.859.391v1.313a3.258,3.258,0,0,0-1.906-.625,2.576,2.576,0,0,0-2.012.879,3.335,3.335,0,0,0-.785,2.309,3.176,3.176,0,0,0,.738,2.219,2.545,2.545,0,0,0,1.98.813,3.211,3.211,0,0,0,1.969-.7Zm2.594-9.664a.812.812,0,0,1-.586-.234.791.791,0,0,1-.242-.594.821.821,0,0,1,.828-.836.827.827,0,0,1,.6.238.835.835,0,0,1,0,1.184A.82.82,0,0,1,160.938,30.969ZM161.563,41h-1.281V33h1.281Zm5.938.188a3.711,3.711,0,0,1-2.832-1.121,4.153,4.153,0,0,1-1.059-2.973,4.326,4.326,0,0,1,1.1-3.148,3.96,3.96,0,0,1,2.977-1.133,3.588,3.588,0,0,1,2.793,1.1,4.368,4.368,0,0,1,1,3.055,4.3,4.3,0,0,1-1.082,3.066A3.791,3.791,0,0,1,167.5,41.188Zm.094-7.3a2.437,2.437,0,0,0-1.953.84,3.449,3.449,0,0,0-.719,2.316,3.262,3.262,0,0,0,.727,2.242,2.469,2.469,0,0,0,1.945.82,2.342,2.342,0,0,0,1.91-.8,3.492,3.492,0,0,0,.668-2.289A3.552,3.552,0,0,0,169.5,34.7,2.332,2.332,0,0,0,167.594,33.891ZM180.172,41h-1.281V36.438q0-2.547-1.859-2.547a2.017,2.017,0,0,0-1.59.723,2.679,2.679,0,0,0-.629,1.824V41h-1.281V33h1.281v1.328h.031a2.887,2.887,0,0,1,2.625-1.516,2.448,2.448,0,0,1,2.008.848,3.776,3.776,0,0,1,.7,2.449Zm8.141,0h-1.281V39.75H187a2.682,2.682,0,0,1-2.461,1.438,2.63,2.63,0,0,1-1.871-.633,2.192,2.192,0,0,1-.676-1.68q0-2.242,2.641-2.609l2.4-.336q0-2.039-1.648-2.039a3.938,3.938,0,0,0-2.609.984V33.563a4.958,4.958,0,0,1,2.719-.75q2.82,0,2.82,2.984Zm-1.281-4.047-1.93.266a3.133,3.133,0,0,0-1.344.441,1.273,1.273,0,0,0-.453,1.121,1.221,1.221,0,0,0,.418.957,1.615,1.615,0,0,0,1.113.371,2.056,2.056,0,0,0,1.574-.668,2.387,2.387,0,0,0,.621-1.691ZM192.008,41h-1.281V29.156h1.281Zm9.023-3.68h-5.648a2.992,2.992,0,0,0,.719,2.063,2.478,2.478,0,0,0,1.891.727,3.931,3.931,0,0,0,2.484-.891v1.2a4.643,4.643,0,0,1-2.789.766,3.381,3.381,0,0,1-2.664-1.09,4.461,4.461,0,0,1-.969-3.066,4.374,4.374,0,0,1,1.059-3.043,3.394,3.394,0,0,1,2.629-1.176,3.008,3.008,0,0,1,2.43,1.016,4.234,4.234,0,0,1,.859,2.82Zm-1.312-1.086a2.607,2.607,0,0,0-.535-1.727,1.823,1.823,0,0,0-1.465-.617,2.07,2.07,0,0,0-1.539.648,2.943,2.943,0,0,0-.781,1.7Zm2.766,4.477V39.336a3.792,3.792,0,0,0,2.3.773q1.688,0,1.688-1.125a.976.976,0,0,0-.145-.543,1.44,1.44,0,0,0-.391-.395,3.007,3.007,0,0,0-.578-.309q-.332-.137-.715-.285a9.206,9.206,0,0,1-.934-.426,2.82,2.82,0,0,1-.672-.484,1.8,1.8,0,0,1-.406-.613,2.17,2.17,0,0,1-.137-.8,1.912,1.912,0,0,1,.258-1,2.286,2.286,0,0,1,.688-.727,3.206,3.206,0,0,1,.98-.441,4.349,4.349,0,0,1,1.137-.148,4.59,4.59,0,0,1,1.859.359v1.3a3.624,3.624,0,0,0-2.031-.578,2.374,2.374,0,0,0-.648.082,1.587,1.587,0,0,0-.5.23,1.065,1.065,0,0,0-.32.355.936.936,0,0,0-.113.457,1.1,1.1,0,0,0,.113.523,1.152,1.152,0,0,0,.332.375,2.538,2.538,0,0,0,.531.3q.312.133.711.289a9.894,9.894,0,0,1,.953.418,3.269,3.269,0,0,1,.719.484,1.893,1.893,0,0,1,.457.621,2,2,0,0,1,.16.836,1.971,1.971,0,0,1-.262,1.031,2.243,2.243,0,0,1-.7.727,3.2,3.2,0,0,1-1.008.43,4.976,4.976,0,0,1-1.2.141A4.539,4.539,0,0,1,202.484,40.711ZM6.75,64.633a4.163,4.163,0,0,1-2.187.555A3.622,3.622,0,0,1,1.8,64.074,4.035,4.035,0,0,1,.75,61.188a4.435,4.435,0,0,1,1.133-3.176,3.963,3.963,0,0,1,3.023-1.2,4.209,4.209,0,0,1,1.859.391v1.313a3.258,3.258,0,0,0-1.906-.625,2.576,2.576,0,0,0-2.012.879,3.335,3.335,0,0,0-.785,2.309A3.176,3.176,0,0,0,2.8,63.3a2.545,2.545,0,0,0,1.98.813,3.211,3.211,0,0,0,1.969-.7ZM15.156,65H13.875V63.734h-.031a2.631,2.631,0,0,1-2.469,1.453q-2.859,0-2.859-3.406V57H9.789v4.578q0,2.531,1.938,2.531a1.96,1.96,0,0,0,1.543-.691,2.645,2.645,0,0,0,.605-1.809V57h1.281Zm8.313,0H22.188V63.75h-.031A2.682,2.682,0,0,1,19.7,65.188a2.63,2.63,0,0,1-1.871-.633,2.192,2.192,0,0,1-.676-1.68q0-2.242,2.641-2.609l2.4-.336q0-2.039-1.648-2.039a3.938,3.938,0,0,0-2.609.984V57.563a4.958,4.958,0,0,1,2.719-.75q2.82,0,2.82,2.984Zm-1.281-4.047-1.93.266a3.133,3.133,0,0,0-1.344.441,1.273,1.273,0,0,0-.453,1.121,1.221,1.221,0,0,0,.418.957,1.615,1.615,0,0,0,1.113.371,2.056,2.056,0,0,0,1.574-.668,2.387,2.387,0,0,0,.621-1.691Zm.172-8.031-2.047,2.563H19.32l1.742-2.562ZM27.164,65H25.883V53.156h1.281Zm9.023-3.68H30.539a2.992,2.992,0,0,0,.719,2.063,2.478,2.478,0,0,0,1.891.727,3.931,3.931,0,0,0,2.484-.891v1.2a4.643,4.643,0,0,1-2.789.766A3.381,3.381,0,0,1,30.18,64.1a4.461,4.461,0,0,1-.969-3.066,4.375,4.375,0,0,1,1.059-3.043A3.394,3.394,0,0,1,32.9,56.813a3.008,3.008,0,0,1,2.43,1.016,4.234,4.234,0,0,1,.859,2.82Zm-1.312-1.086a2.607,2.607,0,0,0-.535-1.727,1.823,1.823,0,0,0-1.465-.617,2.07,2.07,0,0,0-1.539.648,2.943,2.943,0,0,0-.781,1.7Zm2.766,4.477V63.336a3.792,3.792,0,0,0,2.3.773q1.688,0,1.688-1.125a.976.976,0,0,0-.145-.543,1.44,1.44,0,0,0-.391-.395,3.007,3.007,0,0,0-.578-.309q-.332-.137-.715-.285a9.206,9.206,0,0,1-.934-.426,2.82,2.82,0,0,1-.672-.484,1.8,1.8,0,0,1-.406-.613,2.17,2.17,0,0,1-.137-.8,1.912,1.912,0,0,1,.258-1A2.286,2.286,0,0,1,38.6,57.4a3.206,3.206,0,0,1,.98-.441,4.349,4.349,0,0,1,1.137-.148,4.59,4.59,0,0,1,1.859.359v1.3a3.624,3.624,0,0,0-2.031-.578,2.374,2.374,0,0,0-.648.082,1.587,1.587,0,0,0-.5.23,1.065,1.065,0,0,0-.32.355.936.936,0,0,0-.113.457,1.1,1.1,0,0,0,.113.523,1.152,1.152,0,0,0,.332.375,2.538,2.538,0,0,0,.531.3q.312.133.711.289a9.894,9.894,0,0,1,.953.418,3.269,3.269,0,0,1,.719.484,1.893,1.893,0,0,1,.457.621,2,2,0,0,1,.16.836,1.971,1.971,0,0,1-.262,1.031,2.243,2.243,0,0,1-.7.727,3.2,3.2,0,0,1-1.008.43,4.976,4.976,0,0,1-1.2.141A4.539,4.539,0,0,1,37.641,64.711ZM55.727,61.32H50.078a2.992,2.992,0,0,0,.719,2.063,2.478,2.478,0,0,0,1.891.727,3.931,3.931,0,0,0,2.484-.891v1.2a4.643,4.643,0,0,1-2.789.766,3.381,3.381,0,0,1-2.664-1.09,4.461,4.461,0,0,1-.969-3.066,4.375,4.375,0,0,1,1.059-3.043,3.394,3.394,0,0,1,2.629-1.176,3.008,3.008,0,0,1,2.43,1.016,4.234,4.234,0,0,1,.859,2.82Zm-1.312-1.086a2.607,2.607,0,0,0-.535-1.727,1.823,1.823,0,0,0-1.465-.617,2.07,2.07,0,0,0-1.539.648,2.943,2.943,0,0,0-.781,1.7Zm2.766,4.477V63.336a3.792,3.792,0,0,0,2.3.773q1.688,0,1.688-1.125a.976.976,0,0,0-.145-.543,1.44,1.44,0,0,0-.391-.395,3.007,3.007,0,0,0-.578-.309q-.332-.137-.715-.285a9.206,9.206,0,0,1-.934-.426,2.82,2.82,0,0,1-.672-.484,1.8,1.8,0,0,1-.406-.613,2.17,2.17,0,0,1-.137-.8,1.912,1.912,0,0,1,.258-1,2.286,2.286,0,0,1,.688-.727,3.206,3.206,0,0,1,.98-.441,4.349,4.349,0,0,1,1.137-.148,4.59,4.59,0,0,1,1.859.359v1.3a3.624,3.624,0,0,0-2.031-.578,2.374,2.374,0,0,0-.648.082,1.587,1.587,0,0,0-.5.23,1.065,1.065,0,0,0-.32.355.936.936,0,0,0-.113.457,1.1,1.1,0,0,0,.113.523,1.152,1.152,0,0,0,.332.375,2.538,2.538,0,0,0,.531.3q.312.133.711.289a9.894,9.894,0,0,1,.953.418,3.269,3.269,0,0,1,.719.484,1.893,1.893,0,0,1,.457.621,2,2,0,0,1,.16.836,1.971,1.971,0,0,1-.262,1.031,2.243,2.243,0,0,1-.7.727,3.2,3.2,0,0,1-1.008.43,4.976,4.976,0,0,1-1.2.141A4.539,4.539,0,0,1,57.18,64.711Zm10.984.211a2.47,2.47,0,0,1-1.2.25q-2.1,0-2.1-2.344V58.094H63.492V57h1.375V55.047l1.281-.414V57h2.016v1.094H66.148V62.6a1.869,1.869,0,0,0,.273,1.148,1.091,1.091,0,0,0,.906.344,1.347,1.347,0,0,0,.836-.266ZM75.6,65H74.32V63.75h-.031a2.682,2.682,0,0,1-2.461,1.438,2.63,2.63,0,0,1-1.871-.633,2.192,2.192,0,0,1-.676-1.68q0-2.242,2.641-2.609l2.4-.336q0-2.039-1.648-2.039a3.938,3.938,0,0,0-2.609.984V57.563a4.958,4.958,0,0,1,2.719-.75q2.82,0,2.82,2.984ZM74.32,60.953l-1.93.266a3.133,3.133,0,0,0-1.344.441,1.273,1.273,0,0,0-.453,1.121,1.221,1.221,0,0,0,.418.957,1.615,1.615,0,0,0,1.113.371,2.056,2.056,0,0,0,1.574-.668,2.387,2.387,0,0,0,.621-1.691Zm.172-8.031-2.047,2.563h-.992L73.2,52.922ZM84.656,65H83.375V60.438q0-2.547-1.859-2.547a2.017,2.017,0,0,0-1.59.723,2.679,2.679,0,0,0-.629,1.824V65H78.016V57H79.3v1.328h.031a2.887,2.887,0,0,1,2.625-1.516,2.448,2.448,0,0,1,2.008.848,3.776,3.776,0,0,1,.7,2.449Zm13.438,0H96.813V60.391q0-2.5-1.859-2.5a2.027,2.027,0,0,0-1.578.723,2.693,2.693,0,0,0-.641,1.855V65H91.453V53.156h1.281v5.172h.031a2.91,2.91,0,0,1,2.625-1.516q2.7,0,2.7,3.258Zm8.141,0h-1.281V63.75h-.031a2.682,2.682,0,0,1-2.461,1.438,2.63,2.63,0,0,1-1.871-.633,2.192,2.192,0,0,1-.676-1.68q0-2.242,2.641-2.609l2.4-.336q0-2.039-1.648-2.039a3.938,3.938,0,0,0-2.609.984V57.563a4.958,4.958,0,0,1,2.719-.75q2.82,0,2.82,2.984Zm-1.281-4.047-1.93.266a3.133,3.133,0,0,0-1.344.441,1.273,1.273,0,0,0-.453,1.121,1.221,1.221,0,0,0,.418.957,1.615,1.615,0,0,0,1.113.371,2.056,2.056,0,0,0,1.574-.668,2.387,2.387,0,0,0,.621-1.691Zm5.008,2.891h-.031V65h-1.281V53.156h1.281v5.25h.031a3.03,3.03,0,0,1,2.766-1.594,2.932,2.932,0,0,1,2.41,1.074,4.436,4.436,0,0,1,.871,2.879,4.959,4.959,0,0,1-.977,3.215,3.251,3.251,0,0,1-2.672,1.207A2.631,2.631,0,0,1,109.961,63.844Zm-.031-3.227v1.117a2.379,2.379,0,0,0,.645,1.684,2.3,2.3,0,0,0,3.461-.2,4.086,4.086,0,0,0,.66-2.477,3.225,3.225,0,0,0-.617-2.094,2.043,2.043,0,0,0-1.672-.758,2.27,2.27,0,0,0-1.8.777A2.854,2.854,0,0,0,109.93,60.617Zm8.781-5.648a.812.812,0,0,1-.586-.234.791.791,0,0,1-.242-.594.821.821,0,0,1,.828-.836.827.827,0,0,1,.6.238.835.835,0,0,1,0,1.184A.82.82,0,0,1,118.711,54.969ZM119.336,65h-1.281V57h1.281Zm3.875,0H121.93V53.156h1.281Zm3.25-10.031a.812.812,0,0,1-.586-.234.791.791,0,0,1-.242-.594.821.821,0,0,1,.828-.836.827.827,0,0,1,.6.238.835.835,0,0,1,0,1.184A.82.82,0,0,1,126.461,54.969ZM127.086,65H125.8V57h1.281Zm6.3-.078a2.47,2.47,0,0,1-1.2.25q-2.1,0-2.1-2.344V58.094h-1.375V57h1.375V55.047l1.281-.414V57h2.016v1.094h-2.016V62.6a1.869,1.869,0,0,0,.273,1.148,1.091,1.091,0,0,0,.906.344,1.347,1.347,0,0,0,.836-.266Zm7.438.078h-1.281V63.75h-.031a2.682,2.682,0,0,1-2.461,1.438,2.63,2.63,0,0,1-1.871-.633,2.192,2.192,0,0,1-.676-1.68q0-2.242,2.641-2.609l2.4-.336q0-2.039-1.648-2.039a3.938,3.938,0,0,0-2.609.984V57.563a4.958,4.958,0,0,1,2.719-.75q2.82,0,2.82,2.984Zm-1.281-4.047-1.93.266a3.133,3.133,0,0,0-1.344.441,1.273,1.273,0,0,0-.453,1.121,1.221,1.221,0,0,0,.418.957,1.615,1.615,0,0,0,1.113.371,2.056,2.056,0,0,0,1.574-.668,2.387,2.387,0,0,0,.621-1.691ZM150.07,65h-1.281V63.641h-.031a2.958,2.958,0,0,1-2.75,1.547,2.988,2.988,0,0,1-2.41-1.074,4.407,4.407,0,0,1-.9-2.926,4.794,4.794,0,0,1,1-3.18,3.3,3.3,0,0,1,2.664-1.2,2.564,2.564,0,0,1,2.4,1.3h.031V53.156h1.281Zm-1.281-3.617V60.2a2.289,2.289,0,0,0-.641-1.641,2.149,2.149,0,0,0-1.625-.672,2.212,2.212,0,0,0-1.844.859,3.766,3.766,0,0,0-.672,2.375,3.387,3.387,0,0,0,.645,2.184,2.107,2.107,0,0,0,1.73.8,2.188,2.188,0,0,0,1.738-.773A2.882,2.882,0,0,0,148.789,61.383Zm7.219,3.8a3.711,3.711,0,0,1-2.832-1.121,4.153,4.153,0,0,1-1.059-2.973,4.326,4.326,0,0,1,1.1-3.148,3.96,3.96,0,0,1,2.977-1.133,3.588,3.588,0,0,1,2.793,1.1,4.368,4.368,0,0,1,1,3.055,4.3,4.3,0,0,1-1.082,3.066A3.791,3.791,0,0,1,156.008,65.188Zm.094-7.3a2.437,2.437,0,0,0-1.953.84,3.449,3.449,0,0,0-.719,2.316,3.262,3.262,0,0,0,.727,2.242,2.469,2.469,0,0,0,1.945.82,2.342,2.342,0,0,0,1.91-.8,3.492,3.492,0,0,0,.668-2.289,3.552,3.552,0,0,0-.668-2.312A2.332,2.332,0,0,0,156.1,57.891Zm5.453,6.82V63.336a3.792,3.792,0,0,0,2.3.773q1.688,0,1.688-1.125a.976.976,0,0,0-.145-.543,1.44,1.44,0,0,0-.391-.395,3.007,3.007,0,0,0-.578-.309q-.332-.137-.715-.285a9.206,9.206,0,0,1-.934-.426,2.82,2.82,0,0,1-.672-.484,1.8,1.8,0,0,1-.406-.613,2.17,2.17,0,0,1-.137-.8,1.912,1.912,0,0,1,.258-1,2.286,2.286,0,0,1,.688-.727,3.206,3.206,0,0,1,.98-.441,4.349,4.349,0,0,1,1.137-.148,4.59,4.59,0,0,1,1.859.359v1.3a3.624,3.624,0,0,0-2.031-.578,2.374,2.374,0,0,0-.648.082,1.587,1.587,0,0,0-.5.23,1.065,1.065,0,0,0-.32.355.936.936,0,0,0-.113.457,1.1,1.1,0,0,0,.113.523,1.152,1.152,0,0,0,.332.375,2.538,2.538,0,0,0,.531.3q.312.133.711.289a9.894,9.894,0,0,1,.953.418,3.269,3.269,0,0,1,.719.484,1.893,1.893,0,0,1,.457.621,2,2,0,0,1,.16.836,1.971,1.971,0,0,1-.262,1.031,2.243,2.243,0,0,1-.7.727,3.2,3.2,0,0,1-1.008.43,4.976,4.976,0,0,1-1.2.141A4.539,4.539,0,0,1,161.555,64.711Zm12.969-.867h-.031V68.68h-1.281V57h1.281v1.406h.031a3.03,3.03,0,0,1,2.766-1.594,2.93,2.93,0,0,1,2.414,1.074,4.449,4.449,0,0,1,.867,2.879,4.958,4.958,0,0,1-.977,3.215,3.251,3.251,0,0,1-2.672,1.207A2.676,2.676,0,0,1,174.523,63.844Zm-.031-3.227v1.117a2.379,2.379,0,0,0,.645,1.684,2.3,2.3,0,0,0,3.461-.2,4.086,4.086,0,0,0,.66-2.477,3.225,3.225,0,0,0-.617-2.094,2.043,2.043,0,0,0-1.672-.758,2.27,2.27,0,0,0-1.8.777A2.854,2.854,0,0,0,174.492,60.617ZM188.344,65h-1.281V63.75h-.031a2.682,2.682,0,0,1-2.461,1.438,2.63,2.63,0,0,1-1.871-.633,2.192,2.192,0,0,1-.676-1.68q0-2.242,2.641-2.609l2.4-.336q0-2.039-1.648-2.039a3.938,3.938,0,0,0-2.609.984V57.563a4.958,4.958,0,0,1,2.719-.75q2.82,0,2.82,2.984Zm-1.281-4.047-1.93.266a3.133,3.133,0,0,0-1.344.441,1.273,1.273,0,0,0-.453,1.121,1.221,1.221,0,0,0,.418.957,1.615,1.615,0,0,0,1.113.371,2.056,2.056,0,0,0,1.574-.668,2.387,2.387,0,0,0,.621-1.691ZM194.93,58.3a1.567,1.567,0,0,0-.969-.258,1.635,1.635,0,0,0-1.371.773,3.576,3.576,0,0,0-.551,2.109V65h-1.281V57h1.281v1.648h.031a2.794,2.794,0,0,1,.836-1.316,1.906,1.906,0,0,1,1.258-.473,2.092,2.092,0,0,1,.766.109Zm7.117,6.7h-1.281V63.75h-.031a2.682,2.682,0,0,1-2.461,1.438,2.63,2.63,0,0,1-1.871-.633,2.192,2.192,0,0,1-.676-1.68q0-2.242,2.641-2.609l2.4-.336q0-2.039-1.648-2.039a3.938,3.938,0,0,0-2.609.984V57.563a4.958,4.958,0,0,1,2.719-.75q2.82,0,2.82,2.984Zm-1.281-4.047-1.93.266a3.133,3.133,0,0,0-1.344.441,1.273,1.273,0,0,0-.453,1.121,1.221,1.221,0,0,0,.418.957,1.615,1.615,0,0,0,1.113.371,2.056,2.056,0,0,0,1.574-.668,2.387,2.387,0,0,0,.621-1.691ZM215.484,65H214.2V60.391q0-2.5-1.859-2.5a2.027,2.027,0,0,0-1.578.723,2.693,2.693,0,0,0-.641,1.855V65h-1.281V53.156h1.281v5.172h.031a2.91,2.91,0,0,1,2.625-1.516q2.7,0,2.7,3.258Zm8.141,0h-1.281V63.75h-.031a2.682,2.682,0,0,1-2.461,1.438,2.63,2.63,0,0,1-1.871-.633,2.192,2.192,0,0,1-.676-1.68q0-2.242,2.641-2.609l2.4-.336q0-2.039-1.648-2.039a3.938,3.938,0,0,0-2.609.984V57.563a4.958,4.958,0,0,1,2.719-.75q2.82,0,2.82,2.984Zm-1.281-4.047-1.93.266a3.133,3.133,0,0,0-1.344.441,1.273,1.273,0,0,0-.453,1.121,1.221,1.221,0,0,0,.418.957,1.615,1.615,0,0,0,1.113.371,2.056,2.056,0,0,0,1.574-.668,2.387,2.387,0,0,0,.621-1.691Zm9.148,3.68a4.163,4.163,0,0,1-2.187.555,3.622,3.622,0,0,1-2.762-1.113,4.035,4.035,0,0,1-1.051-2.887,4.435,4.435,0,0,1,1.133-3.176,3.963,3.963,0,0,1,3.023-1.2,4.208,4.208,0,0,1,1.859.391v1.313a3.258,3.258,0,0,0-1.906-.625,2.576,2.576,0,0,0-2.012.879,3.335,3.335,0,0,0-.785,2.309,3.176,3.176,0,0,0,.738,2.219,2.545,2.545,0,0,0,1.98.813,3.211,3.211,0,0,0,1.969-.7Zm8.367-3.312h-5.648a2.992,2.992,0,0,0,.719,2.063,2.478,2.478,0,0,0,1.891.727,3.931,3.931,0,0,0,2.484-.891v1.2a4.643,4.643,0,0,1-2.789.766,3.381,3.381,0,0,1-2.664-1.09,4.461,4.461,0,0,1-.969-3.066,4.374,4.374,0,0,1,1.059-3.043,3.394,3.394,0,0,1,2.629-1.176A3.008,3.008,0,0,1,239,57.828a4.234,4.234,0,0,1,.859,2.82Zm-1.312-1.086a2.607,2.607,0,0,0-.535-1.727,1.823,1.823,0,0,0-1.465-.617,2.07,2.07,0,0,0-1.539.648,2.943,2.943,0,0,0-.781,1.7Zm7.422-1.937a1.567,1.567,0,0,0-.969-.258,1.635,1.635,0,0,0-1.371.773,3.576,3.576,0,0,0-.551,2.109V65H241.8V57h1.281v1.648h.031a2.794,2.794,0,0,1,.836-1.316,1.906,1.906,0,0,1,1.258-.473,2.092,2.092,0,0,1,.766.109ZM6.75,88.633a4.163,4.163,0,0,1-2.187.555A3.622,3.622,0,0,1,1.8,88.074,4.035,4.035,0,0,1,.75,85.188a4.435,4.435,0,0,1,1.133-3.176,3.963,3.963,0,0,1,3.023-1.2,4.209,4.209,0,0,1,1.859.391v1.313a3.258,3.258,0,0,0-1.906-.625,2.576,2.576,0,0,0-2.012.879,3.335,3.335,0,0,0-.785,2.309A3.176,3.176,0,0,0,2.8,87.3a2.545,2.545,0,0,0,1.98.813,3.211,3.211,0,0,0,1.969-.7ZM14.414,89H13.133V87.75H13.1a2.682,2.682,0,0,1-2.461,1.438,2.63,2.63,0,0,1-1.871-.633,2.192,2.192,0,0,1-.676-1.68q0-2.242,2.641-2.609l2.4-.336q0-2.039-1.648-2.039a3.938,3.938,0,0,0-2.609.984V81.563a4.958,4.958,0,0,1,2.719-.75q2.82,0,2.82,2.984Zm-1.281-4.047-1.93.266a3.133,3.133,0,0,0-1.344.441,1.273,1.273,0,0,0-.453,1.121,1.221,1.221,0,0,0,.418.957,1.615,1.615,0,0,0,1.113.371,2.056,2.056,0,0,0,1.574-.668,2.387,2.387,0,0,0,.621-1.691ZM28.188,89H26.906V84.406a3.466,3.466,0,0,0-.41-1.922,1.555,1.555,0,0,0-1.379-.594,1.708,1.708,0,0,0-1.395.75,2.869,2.869,0,0,0-.574,1.8V89H21.867V84.25q0-2.359-1.82-2.359a1.686,1.686,0,0,0-1.391.707,2.923,2.923,0,0,0-.547,1.84V89H16.828V81h1.281v1.266h.031a2.718,2.718,0,0,1,2.484-1.453,2.311,2.311,0,0,1,2.266,1.656,2.855,2.855,0,0,1,2.656-1.656q2.641,0,2.641,3.258Zm3.734-1.156h-.031V92.68H30.609V81h1.281v1.406h.031a3.03,3.03,0,0,1,2.766-1.594A2.93,2.93,0,0,1,37.1,81.887a4.449,4.449,0,0,1,.867,2.879,4.959,4.959,0,0,1-.977,3.215,3.251,3.251,0,0,1-2.672,1.207A2.676,2.676,0,0,1,31.922,87.844Zm-.031-3.227v1.117a2.379,2.379,0,0,0,.645,1.684,2.3,2.3,0,0,0,3.461-.2,4.086,4.086,0,0,0,.66-2.477,3.225,3.225,0,0,0-.617-2.094,2.043,2.043,0,0,0-1.672-.758,2.27,2.27,0,0,0-1.8.777A2.854,2.854,0,0,0,31.891,84.617Zm8.781-5.648a.812.812,0,0,1-.586-.234.791.791,0,0,1-.242-.594.821.821,0,0,1,.828-.836.827.827,0,0,1,.6.238.835.835,0,0,1,0,1.184A.82.82,0,0,1,40.672,78.969ZM41.3,89H40.016V81H41.3Zm9.234,0H49.25V84.438q0-2.547-1.859-2.547a2.017,2.017,0,0,0-1.59.723,2.679,2.679,0,0,0-.629,1.824V89H43.891V81h1.281v1.328H45.2a2.887,2.887,0,0,1,2.625-1.516,2.448,2.448,0,0,1,2.008.848,3.776,3.776,0,0,1,.7,2.449Zm9.242-.641q0,4.406-4.219,4.406a5.664,5.664,0,0,1-2.594-.562V90.922a5.327,5.327,0,0,0,2.578.75q2.953,0,2.953-3.141v-.875h-.031a3.237,3.237,0,0,1-5.152.465,4.263,4.263,0,0,1-.91-2.863,4.981,4.981,0,0,1,.98-3.242,3.275,3.275,0,0,1,2.684-1.2,2.608,2.608,0,0,1,2.4,1.3h.031V81h1.281Zm-1.281-2.977V84.2a2.289,2.289,0,0,0-.645-1.633,2.122,2.122,0,0,0-1.605-.68,2.225,2.225,0,0,0-1.859.863,3.853,3.853,0,0,0-.672,2.418,3.308,3.308,0,0,0,.645,2.137,2.082,2.082,0,0,0,1.707.8,2.23,2.23,0,0,0,1.754-.766A2.854,2.854,0,0,0,58.492,85.383ZM73.117,81l-3.68,9.281q-.984,2.484-2.766,2.484a2.931,2.931,0,0,1-.836-.1V91.516a2.375,2.375,0,0,0,.758.141A1.57,1.57,0,0,0,68.047,90.5l.641-1.516L65.563,81h1.422l2.164,6.156q.039.117.164.609h.047q.039-.187.156-.594L71.789,81Zm5.273,7.711V87.336a3.792,3.792,0,0,0,2.3.773q1.688,0,1.688-1.125a.976.976,0,0,0-.145-.543,1.44,1.44,0,0,0-.391-.395,3.007,3.007,0,0,0-.578-.309q-.332-.137-.715-.285a9.207,9.207,0,0,1-.934-.426,2.82,2.82,0,0,1-.672-.484,1.8,1.8,0,0,1-.406-.613,2.17,2.17,0,0,1-.137-.8,1.912,1.912,0,0,1,.258-1,2.286,2.286,0,0,1,.688-.727,3.206,3.206,0,0,1,.98-.441,4.349,4.349,0,0,1,1.137-.148,4.59,4.59,0,0,1,1.859.359v1.3a3.624,3.624,0,0,0-2.031-.578,2.374,2.374,0,0,0-.648.082,1.587,1.587,0,0,0-.5.23,1.065,1.065,0,0,0-.32.355.936.936,0,0,0-.113.457,1.1,1.1,0,0,0,.113.523,1.152,1.152,0,0,0,.332.375,2.538,2.538,0,0,0,.531.3q.313.133.711.289a9.9,9.9,0,0,1,.953.418,3.269,3.269,0,0,1,.719.484,1.893,1.893,0,0,1,.457.621,2,2,0,0,1,.16.836,1.971,1.971,0,0,1-.262,1.031,2.243,2.243,0,0,1-.7.727,3.2,3.2,0,0,1-1.008.43,4.976,4.976,0,0,1-1.2.141A4.539,4.539,0,0,1,78.391,88.711ZM92.133,89H90.852V87.734H90.82a2.631,2.631,0,0,1-2.469,1.453q-2.859,0-2.859-3.406V81h1.273v4.578q0,2.531,1.938,2.531a1.96,1.96,0,0,0,1.543-.691,2.645,2.645,0,0,0,.605-1.809V81h1.281Zm2.1-.289V87.336a3.792,3.792,0,0,0,2.3.773q1.688,0,1.688-1.125a.976.976,0,0,0-.145-.543,1.44,1.44,0,0,0-.391-.395,3.007,3.007,0,0,0-.578-.309q-.332-.137-.715-.285a9.207,9.207,0,0,1-.934-.426,2.82,2.82,0,0,1-.672-.484,1.8,1.8,0,0,1-.406-.613,2.17,2.17,0,0,1-.137-.8,1.912,1.912,0,0,1,.258-1A2.286,2.286,0,0,1,95.2,81.4a3.206,3.206,0,0,1,.98-.441,4.349,4.349,0,0,1,1.137-.148,4.59,4.59,0,0,1,1.859.359v1.3a3.624,3.624,0,0,0-2.031-.578,2.374,2.374,0,0,0-.648.082,1.587,1.587,0,0,0-.5.23,1.065,1.065,0,0,0-.32.355.936.936,0,0,0-.113.457,1.1,1.1,0,0,0,.113.523,1.152,1.152,0,0,0,.332.375,2.538,2.538,0,0,0,.531.3q.313.133.711.289a9.9,9.9,0,0,1,.953.418,3.269,3.269,0,0,1,.719.484,1.893,1.893,0,0,1,.457.621,2,2,0,0,1,.16.836,1.971,1.971,0,0,1-.262,1.031,2.243,2.243,0,0,1-.7.727,3.2,3.2,0,0,1-1.008.43,4.976,4.976,0,0,1-1.2.141A4.539,4.539,0,0,1,94.234,88.711ZM110.063,82.3a1.567,1.567,0,0,0-.969-.258,1.635,1.635,0,0,0-1.371.773,3.576,3.576,0,0,0-.551,2.109V89h-1.281V81h1.281v1.648h.031a2.793,2.793,0,0,1,.836-1.316,1.906,1.906,0,0,1,1.258-.473,2.092,2.092,0,0,1,.766.109Zm7.82,3.023h-5.648a2.992,2.992,0,0,0,.719,2.063,2.478,2.478,0,0,0,1.891.727,3.931,3.931,0,0,0,2.484-.891v1.2a4.643,4.643,0,0,1-2.789.766,3.381,3.381,0,0,1-2.664-1.09,4.461,4.461,0,0,1-.969-3.066,4.375,4.375,0,0,1,1.059-3.043,3.394,3.394,0,0,1,2.629-1.176,3.008,3.008,0,0,1,2.43,1.016,4.234,4.234,0,0,1,.859,2.82Zm-1.312-1.086a2.607,2.607,0,0,0-.535-1.727,1.823,1.823,0,0,0-1.465-.617,2.07,2.07,0,0,0-1.539.648,2.943,2.943,0,0,0-.781,1.7Zm10.078,8.445h-1.281V87.625h-.031a2.867,2.867,0,0,1-2.734,1.563,3.011,3.011,0,0,1-2.418-1.074,4.381,4.381,0,0,1-.91-2.926,4.791,4.791,0,0,1,1-3.184,3.328,3.328,0,0,1,2.688-1.191,2.523,2.523,0,0,1,2.375,1.3h.031V81h1.281ZM125.367,85.4V84.234a2.328,2.328,0,0,0-.645-1.664,2.158,2.158,0,0,0-1.637-.68,2.2,2.2,0,0,0-1.828.855,3.819,3.819,0,0,0-.672,2.41,3.308,3.308,0,0,0,.648,2.168,2.069,2.069,0,0,0,1.672.785,2.254,2.254,0,0,0,1.793-.77A2.855,2.855,0,0,0,125.367,85.4ZM135.711,89H134.43V87.734H134.4a2.631,2.631,0,0,1-2.469,1.453q-2.859,0-2.859-3.406V81h1.273v4.578q0,2.531,1.938,2.531a1.96,1.96,0,0,0,1.543-.691,2.645,2.645,0,0,0,.605-1.809V81h1.281Zm9.016-3.68h-5.648a2.992,2.992,0,0,0,.719,2.063,2.478,2.478,0,0,0,1.891.727,3.931,3.931,0,0,0,2.484-.891v1.2a4.643,4.643,0,0,1-2.789.766,3.381,3.381,0,0,1-2.664-1.09,4.461,4.461,0,0,1-.969-3.066,4.374,4.374,0,0,1,1.059-3.043,3.394,3.394,0,0,1,2.629-1.176,3.008,3.008,0,0,1,2.43,1.016,4.234,4.234,0,0,1,.859,2.82Zm-1.312-1.086a2.607,2.607,0,0,0-.535-1.727,1.823,1.823,0,0,0-1.465-.617,2.07,2.07,0,0,0-1.539.648,2.943,2.943,0,0,0-.781,1.7Zm7.422-1.937a1.567,1.567,0,0,0-.969-.258,1.635,1.635,0,0,0-1.371.773,3.576,3.576,0,0,0-.551,2.109V89h-1.281V81h1.281v1.648h.031a2.794,2.794,0,0,1,.836-1.316,1.906,1.906,0,0,1,1.258-.473,2.092,2.092,0,0,1,.766.109Zm2.047-3.328a.812.812,0,0,1-.586-.234.791.791,0,0,1-.242-.594.821.821,0,0,1,.828-.836.827.827,0,0,1,.6.238.835.835,0,0,1,0,1.184A.82.82,0,0,1,152.883,78.969ZM153.508,89h-1.281V81h1.281Zm13.953,0H166.18V84.406a3.466,3.466,0,0,0-.41-1.922,1.555,1.555,0,0,0-1.379-.594,1.708,1.708,0,0,0-1.395.75,2.869,2.869,0,0,0-.574,1.8V89h-1.281V84.25q0-2.359-1.82-2.359a1.686,1.686,0,0,0-1.391.707,2.923,2.923,0,0,0-.547,1.84V89H156.1V81h1.281v1.266h.031a2.718,2.718,0,0,1,2.484-1.453,2.311,2.311,0,0,1,2.266,1.656,2.855,2.855,0,0,1,2.656-1.656q2.641,0,2.641,3.258Zm3.078-10.031a.812.812,0,0,1-.586-.234.791.791,0,0,1-.242-.594.821.821,0,0,1,.828-.836.827.827,0,0,1,.6.238.835.835,0,0,1,0,1.184A.82.82,0,0,1,170.539,78.969ZM171.164,89h-1.281V81h1.281Zm9.023-3.68h-5.648a2.992,2.992,0,0,0,.719,2.063,2.478,2.478,0,0,0,1.891.727,3.931,3.931,0,0,0,2.484-.891v1.2a4.643,4.643,0,0,1-2.789.766,3.381,3.381,0,0,1-2.664-1.09,4.461,4.461,0,0,1-.969-3.066,4.374,4.374,0,0,1,1.059-3.043,3.394,3.394,0,0,1,2.629-1.176,3.008,3.008,0,0,1,2.43,1.016,4.234,4.234,0,0,1,.859,2.82Zm-1.312-1.086a2.607,2.607,0,0,0-.535-1.727,1.823,1.823,0,0,0-1.465-.617,2.07,2.07,0,0,0-1.539.648,2.943,2.943,0,0,0-.781,1.7ZM188.766,89h-1.281V84.438q0-2.547-1.859-2.547a2.017,2.017,0,0,0-1.59.723,2.679,2.679,0,0,0-.629,1.824V89h-1.281V81h1.281v1.328h.031a2.887,2.887,0,0,1,2.625-1.516,2.448,2.448,0,0,1,2.008.848,3.776,3.776,0,0,1,.7,2.449Zm6.125-.078a2.47,2.47,0,0,1-1.2.25q-2.1,0-2.1-2.344V82.094h-1.375V81h1.375V79.047l1.281-.414V81h2.016v1.094h-2.016V86.6a1.869,1.869,0,0,0,.273,1.148,1.091,1.091,0,0,0,.906.344,1.347,1.347,0,0,0,.836-.266Zm5.055.266a3.711,3.711,0,0,1-2.832-1.121,4.153,4.153,0,0,1-1.059-2.973,4.326,4.326,0,0,1,1.1-3.148,3.96,3.96,0,0,1,2.977-1.133,3.588,3.588,0,0,1,2.793,1.1,4.368,4.368,0,0,1,1,3.055,4.3,4.3,0,0,1-1.082,3.066A3.791,3.791,0,0,1,199.945,89.188Zm.094-7.3a2.437,2.437,0,0,0-1.953.84,3.449,3.449,0,0,0-.719,2.316,3.262,3.262,0,0,0,.727,2.242,2.469,2.469,0,0,0,1.945.82,2.342,2.342,0,0,0,1.91-.8,3.492,3.492,0,0,0,.668-2.289,3.552,3.552,0,0,0-.668-2.312A2.332,2.332,0,0,0,200.039,81.891Zm5.453,6.82V87.336a3.792,3.792,0,0,0,2.3.773q1.688,0,1.688-1.125a.976.976,0,0,0-.145-.543,1.441,1.441,0,0,0-.391-.395,3.007,3.007,0,0,0-.578-.309q-.332-.137-.715-.285a9.207,9.207,0,0,1-.934-.426,2.82,2.82,0,0,1-.672-.484,1.8,1.8,0,0,1-.406-.613,2.17,2.17,0,0,1-.137-.8,1.912,1.912,0,0,1,.258-1,2.286,2.286,0,0,1,.688-.727,3.206,3.206,0,0,1,.98-.441,4.349,4.349,0,0,1,1.137-.148,4.59,4.59,0,0,1,1.859.359v1.3a3.624,3.624,0,0,0-2.031-.578,2.374,2.374,0,0,0-.648.082,1.587,1.587,0,0,0-.5.23,1.065,1.065,0,0,0-.32.355.936.936,0,0,0-.113.457,1.1,1.1,0,0,0,.113.523,1.152,1.152,0,0,0,.332.375,2.538,2.538,0,0,0,.531.3q.312.133.711.289a9.894,9.894,0,0,1,.953.418,3.269,3.269,0,0,1,.719.484,1.893,1.893,0,0,1,.457.621,2,2,0,0,1,.16.836,1.971,1.971,0,0,1-.262,1.031,2.243,2.243,0,0,1-.7.727,3.2,3.2,0,0,1-1.008.43,4.976,4.976,0,0,1-1.2.141A4.539,4.539,0,0,1,205.492,88.711Zm7.719.461a.829.829,0,0,1-.613-.258.849.849,0,0,1-.254-.617.862.862,0,0,1,.254-.621.823.823,0,0,1,.613-.262.845.845,0,0,1,.625.262.855.855,0,0,1,.258.621.842.842,0,0,1-.258.617A.851.851,0,0,1,213.211,89.172Z" transform="translate(-517.995 -6083.572)" fill="#12263f"/>
  </g>
</svg>
