<svg xmlns="http://www.w3.org/2000/svg" xmlns:xlink="http://www.w3.org/1999/xlink" width="556" height="470" viewBox="0 0 556 470">
  <defs>
    <clipPath id="clip-path">
      <rect id="Rectángulo_337567" data-name="Rectángulo 337567" width="389" height="470" transform="translate(234 6033)" fill="#fff" stroke="#707070" stroke-width="1"/>
    </clipPath>
  </defs>
  <g id="Grupo_963431" data-name="Grupo 963431" transform="translate(1116 6105)">
    <g id="Enmascarar_grupo_927198" data-name="Enmascarar grupo 927198" transform="translate(-1350 -12138)" clip-path="url(#clip-path)">
      <g id="Grupo_948731" data-name="Grupo 948731" transform="translate(-575.595 5966.792)">
        <g id="Grupo_948615" data-name="Grupo 948615" transform="translate(893.132 73.727)">
          <path id="Trazado_683862" data-name="Trazado 683862" d="M1012.6,151c1.59,4.676,3.233,9.512,4.8,14.637,4.985,16.337-10.741,18.4-10.741,18.4s5.05,11.128-2.892,20.033-17.987,4.127-17.987,4.127-3.641,4.847-13.209,5.449c-13.879.877-18.933-4.7-18.933-4.7l-14.505-2.6c-1.909,1.067-3.393,8.16-18.732,9.953-13.944,1.629-21.121-6.737-21.121-6.737-3.689,7.225-21.046,5.955-23.013-5.488-1.849-10.747,3.151-15.147,3.762-15.646-9.009,6.38-24.039-10.875-8.115-27.238,6.477-6.659,10.058-9.752,12.48-13.086-7.214,1.715-14.754-6.689-11.531-14.022,4.162-9.46,11.773-5.691,19.21-19.268,9.883-18.033,17.445-24.188,17.886-24.538l.013-.011c12.758-12.1,31.6-17.639,52.24-16.361,17.544,1.084,27.769,8.259,33.689,15.633a37.04,37.04,0,0,1,7.858,22.486q.055,2.563.285,5.056c2.456,5.963,7.484,16.54,13.423,19.752C1025.539,141.21,1021.021,152.8,1012.6,151Z" transform="translate(-864.919 -73.727)" fill="#32324c"/>
        </g>
        <g id="Grupo_948616" data-name="Grupo 948616" transform="translate(840.595 128.559)">
          <path id="Trazado_683863" data-name="Trazado 683863" d="M1187.166,593.894C1176.032,758.042,968.921,824.567,866.68,695.666c-20.881-26.324-25.875-89.806-20.467-123.29,21.806-134.96,91.016-148.748,39.344-234.116S829.084,97.911,971.739,99.121s50.694,229.22,148.962,292.994C1165.648,421.283,1192.966,508.4,1187.166,593.894Z" transform="translate(-836.423 -99.114)" fill="#32324c" opacity="0.1"/>
          <path id="Trazado_683864" data-name="Trazado 683864" d="M1001.839,263.061a21.763,21.763,0,0,1-23.994-6.9c-9.283-11.246-24.093-33.957-19.685-60.387,6.3-37.756,54.145-7.616,57.91,34.823C1017.952,251.817,1010.131,260.092,1001.839,263.061Z" transform="translate(-705.165 -6.962)" fill="#32324c" opacity="0.1"/>
          <path id="Trazado_683865" data-name="Trazado 683865" d="M958.507,196.045a11.351,11.351,0,0,1-7.691-10.508c-.238-7.6.907-21.7,11.167-31.192,14.657-13.56,24.765,14.151,12.762,32.858C968.743,196.554,962.875,197.468,958.507,196.045Z" transform="translate(-712.786 -39.237)" fill="#32324c" opacity="0.1"/>
          <path id="Trazado_683866" data-name="Trazado 683866" d="M851.295,282.2a11.351,11.351,0,0,1-9.469-8.942c-1.611-7.434-3.039-21.506,5.333-32.7,11.957-15.991,26.916,9.432,18.5,30C861.453,280.847,855.848,282.811,851.295,282.2Z" transform="translate(-840.595 59.106)" fill="#32324c" opacity="0.1"/>
        </g>
        <path id="Trazado_683867" data-name="Trazado 683867" d="M898.06,149.534s10.944.717,99.893,42.3c0,0,5.678,2.359,14,.564,15.7-3.391-1.728-30.082-1.728-30.082S947.356,120.693,898.06,149.534Z" transform="translate(66.651 76.122)" fill="#c11c57"/>
        <ellipse id="Elipse_5270" data-name="Elipse 5270" cx="131.681" cy="19.978" rx="131.681" ry="19.978" transform="translate(877.761 837.462)" fill="#32324c" opacity="0.1"/>
        <g id="Grupo_948692" data-name="Grupo 948692" transform="translate(933.985 445.424)">
          <g id="Grupo_948650" data-name="Grupo 948650" transform="translate(60.449 7.806)">
            <g id="Grupo_948617" data-name="Grupo 948617">
              <path id="Trazado_683868" data-name="Trazado 683868" d="M977.286,443.177,962.7,619.358H937c-5.948-68.661-18.767-159.537,1.3-183.967-35.529-82.908-25.03-166.8-25.03-166.8,19.616-8.981,50.294-19.158,50.294-19.158C974,308.695,977.286,443.177,977.286,443.177Z" transform="translate(-911.822 -249.435)" fill="#211931"/>
            </g>
            <g id="Grupo_948649" data-name="Grupo 948649" transform="translate(18.719 341.937)">
              <g id="Grupo_948619" data-name="Grupo 948619">
                <g id="Grupo_948618" data-name="Grupo 948618">
                  <path id="Trazado_683869" data-name="Trazado 683869" d="M1012.329,477.264H928.277a7.785,7.785,0,0,1-7.765-8.38l3.415-44.147a49.145,49.145,0,0,1,8.4-2.771,8.516,8.516,0,0,0,6.233-5.654c.061-.209.115-.425.171-.641,1.929-8.495,14.179-11.2,16.443-2.9.294,1.073.549,2.117.765,3.121.054.246.108.5.153.741.363,1.784.626,3.43.812,4.866.006.03.006.063.015.093a47.4,47.4,0,0,1,.417,6q1.669,2.122,3.229,4.173c.533.678,1.043,1.359,1.553,2.022,1.1,1.436,2.177,2.836,3.235,4.179.486.633.972,1.244,1.46,1.847,1.166,1.458,2.315,2.842,3.467,4.132.518.587,1.035,1.158,1.568,1.706,4.333,4.557,8.7,7.67,13.873,8.389,9.112,1.25,24,2.255,31.195,15.631a4.839,4.839,0,0,1,.363.851A5.184,5.184,0,0,1,1012.329,477.264Z" transform="translate(-920.489 -407.75)" fill="#3555af"/>
                </g>
              </g>
              <g id="Grupo_948621" data-name="Grupo 948621" transform="translate(0.071 62.771)">
                <g id="Grupo_948620" data-name="Grupo 948620">
                  <path id="Trazado_683870" data-name="Trazado 683870" d="M1012.292,443.554H928.239a7.784,7.784,0,0,1-7.717-6.741h96.714A5.184,5.184,0,0,1,1012.292,443.554Z" transform="translate(-920.522 -436.813)" fill="#3986d7"/>
                </g>
              </g>
              <g id="Grupo_948629" data-name="Grupo 948629" transform="translate(29.468 24.017)">
                <g id="Grupo_948624" data-name="Grupo 948624" transform="translate(2.246)">
                  <g id="Grupo_948623" data-name="Grupo 948623">
                    <g id="Grupo_948622" data-name="Grupo 948622">
                      <path id="Trazado_683871" data-name="Trazado 683871" d="M945.082,420.892c-.974,1.43-2.959,3.16-6.959,4.758q-1.02.418-2.225.812l-.726-2.194q1.192-.392,2.162-.788c4.6-1.853,5.855-3.676,6.194-4.609C944.063,419.548,944.573,420.228,945.082,420.892Z" transform="translate(-935.173 -418.87)" fill="#fff"/>
                    </g>
                  </g>
                </g>
                <g id="Grupo_948628" data-name="Grupo 948628" transform="translate(0 3.888)">
                  <g id="Grupo_948627" data-name="Grupo 948627">
                    <g id="Grupo_948626" data-name="Grupo 948626">
                      <g id="Grupo_948625" data-name="Grupo 948625">
                        <path id="Trazado_683872" data-name="Trazado 683872" d="M939.347,423.277a2.607,2.607,0,1,1-2.607-2.607A2.609,2.609,0,0,1,939.347,423.277Z" transform="translate(-934.133 -420.67)" fill="#fff"/>
                      </g>
                    </g>
                  </g>
                </g>
              </g>
              <g id="Grupo_948637" data-name="Grupo 948637" transform="translate(35.356 30.217)">
                <g id="Grupo_948632" data-name="Grupo 948632" transform="translate(1.819)">
                  <g id="Grupo_948631" data-name="Grupo 948631">
                    <g id="Grupo_948630" data-name="Grupo 948630">
                      <path id="Trazado_683873" data-name="Trazado 683873" d="M946.846,423.588a16.507,16.507,0,0,1-5.754,3.622c-.8.348-1.685.672-2.665,1L937.7,426q1.367-.454,2.456-.9a13.267,13.267,0,0,0,5.229-3.361C945.872,422.374,946.358,422.985,946.846,423.588Z" transform="translate(-937.701 -421.741)" fill="#fff"/>
                    </g>
                  </g>
                </g>
                <g id="Grupo_948636" data-name="Grupo 948636" transform="translate(0 2.76)">
                  <g id="Grupo_948635" data-name="Grupo 948635">
                    <g id="Grupo_948634" data-name="Grupo 948634">
                      <g id="Grupo_948633" data-name="Grupo 948633">
                        <path id="Trazado_683874" data-name="Trazado 683874" d="M942.073,425.626a2.607,2.607,0,1,1-2.607-2.607A2.607,2.607,0,0,1,942.073,425.626Z" transform="translate(-936.859 -423.019)" fill="#fff"/>
                      </g>
                    </g>
                  </g>
                </g>
              </g>
              <g id="Grupo_948645" data-name="Grupo 948645" transform="translate(40.57 36.196)">
                <g id="Grupo_948640" data-name="Grupo 948640" transform="translate(1.786)">
                  <g id="Grupo_948639" data-name="Grupo 948639">
                    <g id="Grupo_948638" data-name="Grupo 948638">
                      <path id="Trazado_683875" data-name="Trazado 683875" d="M949.1,426.215a16.751,16.751,0,0,1-5.574,3.469c-.812.346-1.708.687-2.7,1.011l-.719-2.2c.92-.3,1.739-.611,2.473-.92a14.342,14.342,0,0,0,4.957-3.065C948.048,425.1,948.564,425.667,949.1,426.215Z" transform="translate(-940.1 -424.509)" fill="#fff"/>
                    </g>
                  </g>
                </g>
                <g id="Grupo_948644" data-name="Grupo 948644" transform="translate(0 2.477)">
                  <g id="Grupo_948643" data-name="Grupo 948643">
                    <g id="Grupo_948642" data-name="Grupo 948642">
                      <g id="Grupo_948641" data-name="Grupo 948641">
                        <path id="Trazado_683876" data-name="Trazado 683876" d="M944.487,428.263a2.607,2.607,0,1,1-2.607-2.607A2.609,2.609,0,0,1,944.487,428.263Z" transform="translate(-939.273 -425.656)" fill="#fff"/>
                      </g>
                    </g>
                  </g>
                </g>
              </g>
              <g id="Grupo_948648" data-name="Grupo 948648" transform="translate(28.918 8.885)">
                <g id="Grupo_948647" data-name="Grupo 948647">
                  <g id="Grupo_948646" data-name="Grupo 948646">
                    <path id="Trazado_683877" data-name="Trazado 683877" d="M941.37,416.73a58.943,58.943,0,0,0-7.492.425l.048-4.21a18.98,18.98,0,0,1,6.633-1.082C940.921,413.648,941.185,415.294,941.37,416.73Z" transform="translate(-933.878 -411.864)" fill="#fff"/>
                  </g>
                </g>
              </g>
            </g>
          </g>
          <g id="Grupo_948691" data-name="Grupo 948691">
            <g id="Grupo_948689" data-name="Grupo 948689" transform="translate(0 19.542)">
              <g id="Grupo_948651" data-name="Grupo 948651">
                <path id="Trazado_683878" data-name="Trazado 683878" d="M953.3,262.29s-6.073,94.02-18.391,174.965c-2.633,17.3-5.868,128.174-13.862,175.8H895.309l-4.953-173.027s-13.905-110.45-1.108-185.159Z" transform="translate(-883.834 -254.869)" fill="#32324c"/>
              </g>
              <g id="Grupo_948688" data-name="Grupo 948688" transform="translate(0.982 335.241)">
                <g id="Grupo_948654" data-name="Grupo 948654">
                  <g id="Grupo_948653" data-name="Grupo 948653">
                    <g id="Grupo_948652" data-name="Grupo 948652">
                      <path id="Trazado_683879" data-name="Trazado 683879" d="M943.063,468.684c-.741,14.81-47.046,9.708-54.452,5.266-2.858-1.719-4.058-5.028-4.281-9.035-.363-6.391,1.741-14.566,3.564-20.972,2.961-10.434,2.555-10.242,4.613-17.374,0,0-.533-11.6,14.639-16.024s20.734,24.445,23.326,30c2.372,5.089,11.59,12.05,12.544,24.57A28.274,28.274,0,0,1,943.063,468.684Z" transform="translate(-884.289 -410.084)" fill="#3555af"/>
                    </g>
                  </g>
                </g>
                <g id="Grupo_948657" data-name="Grupo 948657" transform="translate(13.404 18.534)">
                  <g id="Grupo_948656" data-name="Grupo 948656">
                    <g id="Grupo_948655" data-name="Grupo 948655">
                      <path id="Trazado_683880" data-name="Trazado 683880" d="M891.709,425.991l-1.214-1.862c.566-.367,13.955-8.955,25.607-3.845l-.892,2.037C904.646,417.688,891.838,425.906,891.709,425.991Z" transform="translate(-890.495 -418.665)" fill="#fff"/>
                    </g>
                  </g>
                </g>
                <g id="Grupo_948660" data-name="Grupo 948660" transform="translate(14.726 31.422)">
                  <g id="Grupo_948659" data-name="Grupo 948659">
                    <g id="Grupo_948658" data-name="Grupo 948658">
                      <path id="Trazado_683881" data-name="Trazado 683881" d="M892.319,431.957l-1.212-1.862c.564-.367,13.955-8.953,25.6-3.845l-.892,2.037C905.254,423.653,892.448,431.873,892.319,431.957Z" transform="translate(-891.107 -424.633)" fill="#fff"/>
                    </g>
                  </g>
                </g>
                <g id="Grupo_948663" data-name="Grupo 948663" transform="translate(14.065 24.978)">
                  <g id="Grupo_948662" data-name="Grupo 948662">
                    <g id="Grupo_948661" data-name="Grupo 948661">
                      <path id="Trazado_683882" data-name="Trazado 683882" d="M892.015,428.973l-1.214-1.862c.564-.367,13.955-8.953,25.6-3.842l-.892,2.035C904.95,420.668,892.142,428.888,892.015,428.973Z" transform="translate(-890.801 -421.649)" fill="#fff"/>
                    </g>
                  </g>
                </g>
                <g id="Grupo_948666" data-name="Grupo 948666" transform="translate(11.38 22.777)">
                  <g id="Grupo_948665" data-name="Grupo 948665">
                    <g id="Grupo_948664" data-name="Grupo 948664">
                      <path id="Trazado_683883" data-name="Trazado 683883" d="M894.556,423.129a2.5,2.5,0,1,1-2.5-2.5A2.5,2.5,0,0,1,894.556,423.129Z" transform="translate(-889.558 -420.63)" fill="#fff"/>
                    </g>
                  </g>
                </g>
                <g id="Grupo_948669" data-name="Grupo 948669" transform="translate(11.512 28.883)">
                  <g id="Grupo_948668" data-name="Grupo 948668">
                    <g id="Grupo_948667" data-name="Grupo 948667">
                      <path id="Trazado_683884" data-name="Trazado 683884" d="M894.617,425.958a2.5,2.5,0,1,1-2.5-2.5A2.5,2.5,0,0,1,894.617,425.958Z" transform="translate(-889.619 -423.457)" fill="#fff"/>
                    </g>
                  </g>
                </g>
                <g id="Grupo_948672" data-name="Grupo 948672" transform="translate(12.834 34.991)">
                  <g id="Grupo_948671" data-name="Grupo 948671">
                    <g id="Grupo_948670" data-name="Grupo 948670">
                      <path id="Trazado_683885" data-name="Trazado 683885" d="M895.229,428.784a2.5,2.5,0,1,1-2.5-2.5A2.5,2.5,0,0,1,895.229,428.784Z" transform="translate(-890.231 -426.285)" fill="#fff"/>
                    </g>
                  </g>
                </g>
                <g id="Grupo_948675" data-name="Grupo 948675" transform="translate(37.385 31.384)">
                  <g id="Grupo_948674" data-name="Grupo 948674">
                    <g id="Grupo_948673" data-name="Grupo 948673">
                      <path id="Trazado_683886" data-name="Trazado 683886" d="M906.6,427.112a2.5,2.5,0,1,1-2.5-2.5A2.5,2.5,0,0,1,906.6,427.112Z" transform="translate(-901.598 -424.615)" fill="#fff"/>
                    </g>
                  </g>
                </g>
                <g id="Grupo_948678" data-name="Grupo 948678" transform="translate(36.726 24.719)">
                  <g id="Grupo_948677" data-name="Grupo 948677">
                    <g id="Grupo_948676" data-name="Grupo 948676">
                      <path id="Trazado_683887" data-name="Trazado 683887" d="M906.291,424.028a2.5,2.5,0,1,1-2.5-2.5A2.5,2.5,0,0,1,906.291,424.028Z" transform="translate(-901.293 -421.529)" fill="#fff"/>
                    </g>
                  </g>
                </g>
                <g id="Grupo_948681" data-name="Grupo 948681" transform="translate(36.065 18.053)">
                  <g id="Grupo_948680" data-name="Grupo 948680">
                    <g id="Grupo_948679" data-name="Grupo 948679">
                      <path id="Trazado_683888" data-name="Trazado 683888" d="M905.985,420.942a2.5,2.5,0,1,1-2.5-2.5A2.5,2.5,0,0,1,905.985,420.942Z" transform="translate(-900.987 -418.443)" fill="#fff"/>
                    </g>
                  </g>
                </g>
                <g id="Grupo_948684" data-name="Grupo 948684" transform="translate(0.041 54.831)">
                  <g id="Grupo_948683" data-name="Grupo 948683">
                    <g id="Grupo_948682" data-name="Grupo 948682">
                      <path id="Trazado_683889" data-name="Trazado 683889" d="M943.041,439.24c-.741,14.81-47.046,9.708-54.452,5.266-2.858-1.719-4.058-5.028-4.281-9.035,4.866,2.775,13.441,6.235,26.244,6.464,15.708.281,27.037-2.9,32.443-6.266A28.274,28.274,0,0,1,943.041,439.24Z" transform="translate(-884.308 -435.471)" fill="#3986d7"/>
                    </g>
                  </g>
                </g>
                <g id="Grupo_948687" data-name="Grupo 948687" transform="translate(16.378 4.964)">
                  <g id="Grupo_948686" data-name="Grupo 948686">
                    <g id="Grupo_948685" data-name="Grupo 948685">
                      <path id="Trazado_683890" data-name="Trazado 683890" d="M904.9,412.453s-7.041-.741-13.026,2.592l.678,4.691s8.393-2.469,13.948-2.1A11.021,11.021,0,0,0,904.9,412.453Z" transform="translate(-891.872 -412.383)" fill="#fff"/>
                    </g>
                  </g>
                </g>
              </g>
            </g>
            <g id="Grupo_948690" data-name="Grupo 948690" transform="translate(5.252)">
              <path id="Trazado_683891" data-name="Trazado 683891" d="M888.75,245.821c-2.54,13.423-4.756,35.847,2.02,58.394,0,0,47.27,11.741,80.515-14.659,21.752-17.277,22.776-37.495,22.516-43.735Z" transform="translate(-886.266 -245.821)" fill="#32324c"/>
            </g>
          </g>
        </g>
        <g id="Grupo_948697" data-name="Grupo 948697" transform="translate(882.254 224.759)">
          <g id="Grupo_948693" data-name="Grupo 948693" transform="translate(0 227.256)">
            <path id="Trazado_683892" data-name="Trazado 683892" d="M882.708,250.286s6.156,5.581,9.354,11.637,6.3,12.527,8.2,16.3c2.289,4.538-2.529,4.834-5.864,1.6-5.054-4.9-5.778-8.508-5.778-8.508s7.3,26.268,6.365,33.534c-.853,6.635-5.6-7.648-10.186-19.244,0,0,2.644,26.594-.937,29.389-4.7,3.672-7.81-28.555-7.81-28.555s-1.242,24.1-4.1,23.555c-3.19-.613-4.933-25.445-4.933-25.445s-2.32,16.484-4.084,15.443c-3.492-2.06-5.773-37.415,3.482-50.709C866.415,249.283,879.585,247.871,882.708,250.286Z" transform="translate(-859.883 -248.873)" fill="#ffaf82"/>
          </g>
          <g id="Grupo_948696" data-name="Grupo 948696" transform="translate(2.349)">
            <g id="Grupo_948695" data-name="Grupo 948695">
              <g id="Grupo_948694" data-name="Grupo 948694">
                <path id="Trazado_683893" data-name="Trazado 683893" d="M929.02,188.864c-13.086,41.981-30.251,70.478-36.285,79.774-.4,5.909-2.374,33.912-5.914,60.4a446.068,446.068,0,0,0-3.5,45.37,25.457,25.457,0,0,1-21.022,0c-3.052-44.869-.7-81.461,5.579-108.647-.382-35.447,36.648-122.1,36.648-122.1C922.212,156.654,929.02,188.864,929.02,188.864Z" transform="translate(-860.97 -143.654)" fill="#e63067"/>
              </g>
            </g>
          </g>
        </g>
        <g id="Grupo_948698" data-name="Grupo 948698" transform="translate(928.157 212.903)">
          <path id="Trazado_683894" data-name="Trazado 683894" d="M1004.107,373.156c-57.3,29.184-114.562,4.883-114.562,4.883,7.868-49.858,17.4-115.686,17.4-115.686-15.767-30.169-25.806-112.331-25.806-112.331,9.255-5.734,13.577-4.339,24.153-7.13,2.985-.788,5.728-1.451,8.074-1.989,4.795-1.1,7.9-1.659,7.9-1.659,14.458-1.965,29.493-.914,40.441.5.073.011.149.017.222.028,9.6,1.259,16.013,2.8,16.013,2.8s4.4,33.238,13.9,50.052,2.235,26.983,0,34.311a25.779,25.779,0,0,0-.836,5.5c-.629,9.181-1.41,52.4-1.41,52.4Z" transform="translate(-881.136 -138.165)" fill="#e63067"/>
          <path id="Trazado_683895" data-name="Trazado 683895" d="M933.3,171.448c-15.728.486-29.815-17.166-37.24-30.545,4.795-1.1,7.9-1.659,7.9-1.659,14.458-1.965,29.493-.914,40.441.5.073.011.149.017.222.028C946.537,153.23,949.852,170.934,933.3,171.448Z" transform="translate(-863.83 -138.165)" fill="#ffaf82"/>
          <path id="Trazado_683896" data-name="Trazado 683896" d="M963.21,179.267a25.588,25.588,0,0,0-.834,5.5c-27.778,14.283-56.56,6.136-56.56,6.136C943.2,190.265,963.21,179.267,963.21,179.267Z" transform="translate(-852.51 -90.493)" fill="#c11c57"/>
        </g>
        <path id="Trazado_683897" data-name="Trazado 683897" d="M970.424,214.469s39.19-8.138-25.253-94.344l-14.05,11.259a179.624,179.624,0,0,1,14.3,30.318,239.869,239.869,0,0,0,12.732,29.618S962,199.618,970.424,214.469Z" transform="translate(104.997 53.815)" fill="#c11c57"/>
        <g id="Grupo_948707" data-name="Grupo 948707" transform="translate(1005.659 135.263)">
          <g id="Grupo_948706" data-name="Grupo 948706">
            <g id="Grupo_948705" data-name="Grupo 948705">
              <g id="Grupo_948701" data-name="Grupo 948701" transform="translate(6.748 27.301)">
                <path id="Trazado_683898" data-name="Trazado 683898" d="M947.018,126.4l-5.631-9.6-9.991,5.5,6.475,10.29Z" transform="translate(-907.09 -112.608)" fill="#fb9988"/>
                <g id="Grupo_948700" data-name="Grupo 948700">
                  <g id="Grupo_948699" data-name="Grupo 948699">
                    <path id="Trazado_683899" data-name="Trazado 683899" d="M949.659,135.694l1.266-.855,1.3-4.8s-.7-6.635-5.817-9.579a6.412,6.412,0,0,0-2.905-.715,18.655,18.655,0,0,0-4.248.346,49.672,49.672,0,0,0-8.441,2.462,65.277,65.277,0,0,0-7.223-6.6c-1.438-1.071-2.272-1.216-2.762-1.017-.711.285-.691,1.283-.691,1.283l7.965,15.475s11.2,5.454,17.369,6.832Z" transform="translate(-920.143 -114.858)" fill="#fdbd8e"/>
                  </g>
                </g>
              </g>
              <g id="Grupo_948702" data-name="Grupo 948702">
                <path id="Rectángulo_337565" data-name="Rectángulo 337565" d="M.7,0H26.14a.7.7,0,0,1,.7.7V43.742a.7.7,0,0,1-.7.7H.7a.7.7,0,0,1-.7-.7V.7A.7.7,0,0,1,.7,0Z" transform="matrix(0.828, -0.56, 0.56, 0.828, 0, 15.038)" fill="#171228"/>
                <rect id="Rectángulo_337566" data-name="Rectángulo 337566" width="21.265" height="34.653" transform="translate(4.186 16.256) rotate(-34.082)" fill="#28b69a"/>
                <path id="Trazado_683900" data-name="Trazado 683900" d="M935.533,121.389a1.993,1.993,0,1,1-2.769-.533A2,2,0,0,1,935.533,121.389Z" transform="translate(-899.773 -80.999)" fill="#909aa3"/>
              </g>
              <g id="Grupo_948704" data-name="Grupo 948704" transform="translate(28.508 3.137)">
                <g id="Grupo_948703" data-name="Grupo 948703">
                  <path id="Trazado_683901" data-name="Trazado 683901" d="M938.713,105.259a5.181,5.181,0,0,1-.475,3.5c-.624,1.259-1.227,2.562-1.961,3.762-.076.119-.149.238-.223.356a12.757,12.757,0,0,1-1.166,1.562c-.156.175-.318.343-.482.505a7.113,7.113,0,0,1-1.879,1.348,1.614,1.614,0,0,1-2.309-1.613,11.6,11.6,0,0,1,1.3-4.953,20.361,20.361,0,0,1,4.119-5.272C936.944,103.4,938.186,103.175,938.713,105.259Z" transform="translate(-930.218 -103.67)" fill="#fdbd8e"/>
                  <path id="Trazado_683902" data-name="Trazado 683902" d="M939.593,108.422a5.2,5.2,0,0,1-.467,3.5c-.408.81-.8,1.646-1.238,2.462-.164.324-.341.644-.527.948a13.8,13.8,0,0,1-1.594,2.274c-.121.136-.246.266-.371.4a7.333,7.333,0,0,1-1.987,1.456,1.61,1.61,0,0,1-2.3-1.616,11.314,11.314,0,0,1,1.3-4.95,17.135,17.135,0,0,1,.972-1.613,24.337,24.337,0,0,1,1.544-2.045c.108-.13.214-.257.326-.378C936.958,106.94,938.91,105.672,939.593,108.422Z" transform="translate(-929.187 -100.001)" fill="#fdbd8e"/>
                  <path id="Trazado_683903" data-name="Trazado 683903" d="M940.97,110.811a5.211,5.211,0,0,1-.469,3.5c-.505,1.019-1.011,2.078-1.572,3.082-.175.309-.354.622-.551.914a11.958,11.958,0,0,1-1.233,1.689,8.544,8.544,0,0,1-.881.866,6.815,6.815,0,0,1-1.477.987,1.613,1.613,0,0,1-2.3-1.618,11.352,11.352,0,0,1,1.3-4.953c.011-.015.013-.026.024-.041a22.3,22.3,0,0,1,2.127-3.177c.119-.145.24-.3.365-.441C938.074,109.506,940.24,107.878,940.97,110.811Z" transform="translate(-927.592 -97.235)" fill="#fdbd8e"/>
                  <path id="Trazado_683904" data-name="Trazado 683904" d="M941.849,113.862a5.19,5.19,0,0,1-.467,3.5c-.084.171-.164.33-.246.5a22.775,22.775,0,0,1-3.112,5.186,7.671,7.671,0,0,1-2.361,1.853,1.613,1.613,0,0,1-2.3-1.62,11.441,11.441,0,0,1,1.3-4.95,10.622,10.622,0,0,1,.588-1.013,23.594,23.594,0,0,1,2.307-3.08c.121-.138.24-.264.359-.389C939.512,112.205,941.216,111.331,941.849,113.862Z" transform="translate(-926.573 -93.692)" fill="#fdbd8e"/>
                </g>
                <path id="Trazado_683905" data-name="Trazado 683905" d="M935.811,105.259a5.181,5.181,0,0,1-.475,3.5c-.624,1.259-1.227,2.562-1.961,3.762,1.713-1.916,3.665-3.184,4.348-.434a5.2,5.2,0,0,1-.467,3.5c-.408.81-.8,1.646-1.238,2.462,1.78-2.112,3.946-3.741,4.676-.808a5.211,5.211,0,0,1-.469,3.5c-.505,1.019-1.011,2.078-1.572,3.082,1.6-1.644,3.307-2.518,3.94.013a5.19,5.19,0,0,1-.467,3.5c-.084.171-.164.33-.246.5-.028-.117-.054-.225-.089-.337a4.75,4.75,0,0,0-1.27-2.3,2.239,2.239,0,0,0-2.419-.464l-.047.03c.082-.188.16-.367.24-.555a5.547,5.547,0,0,0,.51-3.674c-.436-1.4-2.419-2.3-3.417-1.222l.1-.318c.056-.164.11-.335.162-.508a6.376,6.376,0,0,0,.326-3.447,2.784,2.784,0,0,0-2.827-2.166c-.035.011-.071.011-.1.022a2.067,2.067,0,0,0-.328.1c.771-2.177,1.436-4.324.778-6.624a17.494,17.494,0,0,0-.767-1.924C934.042,103.4,935.284,103.175,935.811,105.259Z" transform="translate(-927.316 -103.67)" fill="#fb9988"/>
              </g>
            </g>
          </g>
        </g>
        <g id="Grupo_948730" data-name="Grupo 948730" transform="translate(929.016 79.266)">
          <g id="Grupo_948729" data-name="Grupo 948729">
            <g id="Grupo_948709" data-name="Grupo 948709" transform="translate(86.995 55.007)">
              <g id="Grupo_948708" data-name="Grupo 948708">
                <path id="Trazado_683906" data-name="Trazado 683906" d="M921.812,106.806s9.1-10.385,16.514-1.363c6.525,7.933,2.464,28.931-13.438,28.348Z" transform="translate(-921.812 -101.759)" fill="#f88968"/>
              </g>
            </g>
            <path id="Trazado_683907" data-name="Trazado 683907" d="M932.494,118.035a3.816,3.816,0,1,1-3.817-3.816A3.816,3.816,0,0,1,932.494,118.035Z" transform="translate(-831.28 -32.301)" fill="#fff"/>
            <g id="Grupo_948712" data-name="Grupo 948712" transform="translate(36.919 102.139)">
              <g id="Grupo_948710" data-name="Grupo 948710">
                <path id="Trazado_683908" data-name="Trazado 683908" d="M932.329,160.823c-.8,9.512-20.48,15.112-31.661-1.039l-1.177-20.873-.864-15.331,35.927,6.97-1.778,24.171Z" transform="translate(-898.627 -123.581)" fill="#ffaf82"/>
              </g>
              <g id="Grupo_948711" data-name="Grupo 948711">
                <path id="Trazado_683909" data-name="Trazado 683909" d="M932.562,157.637c-12.266.168-25.961-8.287-32.812-14.119l-1.123-19.937,35.927,6.97Z" transform="translate(-898.627 -123.581)" fill="#f88968"/>
              </g>
            </g>
            <g id="Grupo_948713" data-name="Grupo 948713" transform="translate(12.126 15.732)">
              <path id="Trazado_683910" data-name="Trazado 683910" d="M931.967,188.159c-37.92-8.674-44.81-58.378-44.81-58.378a55.027,55.027,0,0,1,.51-8.173,63.068,63.068,0,0,1,1.851-9.067c2.719-9.551,8.555-20.439,21.02-25.188q.586-.227,1.184-.436c20.676-7.331,50.91-3.9,60.1,23.475a45.425,45.425,0,0,1,1.4,5.3c.22,1.078.415,2.2.581,3.35C977.929,147.306,966.049,195.958,931.967,188.159Z" transform="translate(-887.148 -83.575)" fill="#ffaf82"/>
            </g>
            <g id="Grupo_948716" data-name="Grupo 948716" transform="translate(40.366 59.857)">
              <g id="Grupo_948715" data-name="Grupo 948715">
                <g id="Grupo_948714" data-name="Grupo 948714">
                  <path id="Trazado_683911" data-name="Trazado 683911" d="M909.253,113.692a4.87,4.87,0,0,1-5.505-4.134,4.78,4.78,0,0,1,.378-2.667c-3.985-.467-3.9-2.886-3.9-2.886.622,1.035,5.274.432,7.2.136h.011c.238-.041.432-.071.574-.093l.024-.006a1.362,1.362,0,0,1,.229-.019,4.864,4.864,0,0,1,.989,9.67Z" transform="translate(-900.223 -104.005)" fill="#32324c"/>
                </g>
              </g>
            </g>
            <g id="Grupo_948717" data-name="Grupo 948717" transform="translate(0 60.724)">
              <path id="Trazado_683912" data-name="Trazado 683912" d="M900.2,106.632s-13.607-7.458-17.964,4.929c-3.834,10.892,8.551,31.5,25.119,24.756Z" transform="translate(-881.533 -104.406)" fill="#ffaf82"/>
            </g>
            <g id="Grupo_948720" data-name="Grupo 948720" transform="translate(51.956 90.402)">
              <g id="Grupo_948718" data-name="Grupo 948718">
                <path id="Trazado_683913" data-name="Trazado 683913" d="M933.378,126.955a13.079,13.079,0,0,1-2.4,3.646c-2.119,2.24-5.35,3.877-10.276,3.866-4.138-.011-7.382-2.3-9.789-5.052a28.1,28.1,0,0,1-3.752-5.648,29.041,29.041,0,0,1-1.57-3.6s19.849-.618,29.35-2.019l0,.006a19.792,19.792,0,0,1-.194,3.9A18.3,18.3,0,0,1,933.378,126.955Z" transform="translate(-905.589 -118.147)" fill="#920e08"/>
              </g>
              <g id="Grupo_948719" data-name="Grupo 948719">
                <path id="Trazado_683914" data-name="Trazado 683914" d="M934.747,122.052c-9.054,1.758-23.706,1.624-27.588,1.715a29.041,29.041,0,0,1-1.57-3.6s19.849-.618,29.35-2.019l0,.006A19.792,19.792,0,0,1,934.747,122.052Z" transform="translate(-905.589 -118.147)" fill="#fff"/>
              </g>
            </g>
            <g id="Grupo_948721" data-name="Grupo 948721" transform="translate(6.647 69.385)">
              <path id="Trazado_683915" data-name="Trazado 683915" d="M897.475,122.667c-1.179-3.583-4.542-10.961-12.864-14.251,0,0,8.892,8.382,9.568,14.868a1.615,1.615,0,0,0,1.641,1.482l.194-.006A1.592,1.592,0,0,0,897.475,122.667Z" transform="translate(-884.611 -108.416)" fill="#f88968"/>
            </g>
            <g id="Grupo_948723" data-name="Grupo 948723" transform="translate(57.278 100.262)">
              <g id="Grupo_948722" data-name="Grupo 948722">
                <path id="Trazado_683916" data-name="Trazado 683916" d="M928.118,125.306c-2.119,2.24-5.35,3.877-10.276,3.866-4.138-.011-7.382-2.3-9.789-5.052,1.318-.752,4.976-2.32,10.182-.59a8.507,8.507,0,0,1,5.084-.741A6.427,6.427,0,0,1,928.118,125.306Z" transform="translate(-908.053 -122.712)" fill="#f85c66"/>
              </g>
            </g>
            <g id="Grupo_948724" data-name="Grupo 948724" transform="translate(58.229 107.954)">
              <path id="Trazado_683917" data-name="Trazado 683917" d="M915.313,130.817a18.208,18.208,0,0,1-6.339-2.523,1.107,1.107,0,0,1,1.253-1.825c.3.2,7.117,4.739,14.324.907a1.107,1.107,0,1,1,1.041,1.955A15.279,15.279,0,0,1,915.313,130.817Z" transform="translate(-908.493 -126.274)" fill="#f88968"/>
            </g>
            <g id="Grupo_948725" data-name="Grupo 948725" transform="translate(63.041 65.306)">
              <path id="Trazado_683918" data-name="Trazado 683918" d="M917.661,127.109H911.9a1.183,1.183,0,1,1,0-2.365h5.756a.266.266,0,0,0,.255-.339l-4.78-16.363a1.182,1.182,0,0,1,2.27-.663l4.78,16.361a2.631,2.631,0,0,1-2.525,3.369Z" transform="translate(-910.721 -106.528)" fill="#f88968"/>
            </g>
            <path id="Trazado_683919" data-name="Trazado 683919" d="M917.825,100.231h0a2.261,2.261,0,0,1-2,2.678c-4.423.436-13.62,1.933-17.769,6.991,0,0,.905-8.309,17.1-11.469A2.273,2.273,0,0,1,917.825,100.231Z" transform="translate(-862.365 -50.661)" fill="#32324c"/>
            <path id="Trazado_683920" data-name="Trazado 683920" d="M915.663,100.378h0a2.263,2.263,0,0,0,2.43,2.292c4.434-.343,13.75-.475,18.717,3.78,0,0-2.339-8.022-18.834-8.307A2.271,2.271,0,0,0,915.663,100.378Z" transform="translate(-841.948 -50.948)" fill="#32324c"/>
            <g id="Grupo_948728" data-name="Grupo 948728" transform="translate(77.344 59.24)">
              <g id="Grupo_948727" data-name="Grupo 948727">
                <g id="Grupo_948726" data-name="Grupo 948726">
                  <path id="Trazado_683921" data-name="Trazado 683921" d="M921.526,113.4a4.87,4.87,0,0,0,5.505-4.134,4.793,4.793,0,0,0-.38-2.665c3.987-.469,3.9-2.886,3.9-2.886-.62,1.035-5.274.43-7.2.136h-.013c-.235-.043-.432-.071-.572-.1l-.024-.006a1.689,1.689,0,0,0-.231-.017,4.862,4.862,0,0,0-.987,9.667Z" transform="translate(-917.343 -103.719)" fill="#32324c"/>
                </g>
              </g>
            </g>
            <path id="Trazado_683922" data-name="Trazado 683922" d="M917.771,98.019s-1.9,33.279-17.421,46.715c0,0-1.335-8.827-13.415-7.5,0,0-1.14-2.065-2.914-12.076s4.6-51.335,50.424-48.674c0,0,14.575-2.957,34.974,14.486s8.313,36.521,8.313,36.521S943.7,122.788,917.771,98.019Z" transform="translate(-878.947 -76.291)" fill="#32324c"/>
            <circle id="Elipse_5271" data-name="Elipse 5271" cx="3.816" cy="3.816" r="3.816" transform="translate(12.127 90.403)" fill="#fff"/>
          </g>
        </g>
      </g>
    </g>
    <g id="Grupo_948613" data-name="Grupo 948613" transform="translate(-1277.303 -6283.869)">
      <rect id="Rectángulo_335418" data-name="Rectángulo 335418" width="269.067" height="101.22" rx="13.129" transform="translate(448.236 186.387)" fill="#fff"/>
      <path id="Trazado_639247" data-name="Trazado 639247" d="M450.105,258.388s-6.546,17.249-15.789,24.359c0,0,21.243-.262,27.838-7.364A109.273,109.273,0,0,1,450.105,258.388Z" transform="translate(0 4.86)" fill="#fff"/>
    </g>
    <path id="Trazado_702395" data-name="Trazado 702395" d="M2.753,19.964h-1.4V5.156h1.4ZM6.313,7.422a.835.835,0,0,1-.642-.293,1.064,1.064,0,0,1-.265-.742,1.082,1.082,0,0,1,.265-.747.829.829,0,0,1,.642-.3.851.851,0,0,1,.655.3,1.15,1.15,0,0,1,0,1.48A.845.845,0,0,1,6.313,7.422ZM7,19.964h-1.4v-10H7ZM9.309,19.6V17.884a3.829,3.829,0,0,0,2.525.967q1.849,0,1.849-1.407a1.354,1.354,0,0,0-.158-.679,1.712,1.712,0,0,0-.428-.493,3.185,3.185,0,0,0-.633-.386q-.364-.171-.783-.357A9.542,9.542,0,0,1,10.657,15a3.142,3.142,0,0,1-.736-.606,2.3,2.3,0,0,1-.445-.767,3.058,3.058,0,0,1-.15-1.006,2.656,2.656,0,0,1,.282-1.245,2.739,2.739,0,0,1,.753-.908,3.321,3.321,0,0,1,1.074-.552,4.212,4.212,0,0,1,1.245-.186,4.493,4.493,0,0,1,2.037.449V11.8a3.618,3.618,0,0,0-2.225-.723,2.3,2.3,0,0,0-.71.1,1.652,1.652,0,0,0-.543.288,1.288,1.288,0,0,0-.351.444,1.3,1.3,0,0,0-.124.571,1.533,1.533,0,0,0,.124.654,1.4,1.4,0,0,0,.364.469,2.707,2.707,0,0,0,.582.371q.342.166.779.361a10.206,10.206,0,0,1,1.044.523,3.6,3.6,0,0,1,.787.606,2.375,2.375,0,0,1,.5.777,2.814,2.814,0,0,1,.175,1.045,2.741,2.741,0,0,1-.287,1.289,2.679,2.679,0,0,1-.766.908,3.3,3.3,0,0,1-1.1.537,4.812,4.812,0,0,1-1.31.176A4.471,4.471,0,0,1,9.309,19.6Zm12.034.264a2.43,2.43,0,0,1-1.31.313q-2.3,0-2.3-2.93V11.33H16.225V9.962h1.506V7.52L19.135,7v2.96h2.208V11.33H19.135v5.636a2.6,2.6,0,0,0,.3,1.436,1.124,1.124,0,0,0,.993.43,1.356,1.356,0,0,0,.916-.332Zm5.538.332a3.821,3.821,0,0,1-3.1-1.4,5.645,5.645,0,0,1-1.16-3.717,5.883,5.883,0,0,1,1.207-3.936,4.063,4.063,0,0,1,3.261-1.416,3.7,3.7,0,0,1,3.06,1.377,5.968,5.968,0,0,1,1.1,3.819,5.846,5.846,0,0,1-1.185,3.834A3.906,3.906,0,0,1,26.881,20.2Zm.1-9.123a2.533,2.533,0,0,0-2.14,1.05,4.732,4.732,0,0,0-.787,2.9,4.463,4.463,0,0,0,.8,2.8,2.56,2.56,0,0,0,2.131,1.026,2.432,2.432,0,0,0,2.093-1.006,4.807,4.807,0,0,0,.732-2.862,4.892,4.892,0,0,0-.732-2.891A2.424,2.424,0,0,0,26.983,11.076Zm7.789,6.662L33.4,22.543h-1l1-4.806ZM49.066,9.962l-4.031,11.6Q43.956,24.673,42,24.673a2.838,2.838,0,0,1-.916-.127V23.11a2.317,2.317,0,0,0,.83.176q1.061,0,1.592-1.446l.7-1.895L40.789,9.962h1.558l2.371,7.7q.043.147.18.762h.051q.043-.234.171-.742l2.491-7.717ZM54.235,20.2a3.821,3.821,0,0,1-3.1-1.4,5.645,5.645,0,0,1-1.16-3.717,5.883,5.883,0,0,1,1.207-3.936,4.063,4.063,0,0,1,3.261-1.416A3.7,3.7,0,0,1,57.5,11.1a5.968,5.968,0,0,1,1.1,3.819,5.846,5.846,0,0,1-1.185,3.834A3.906,3.906,0,0,1,54.235,20.2Zm.1-9.123a2.533,2.533,0,0,0-2.14,1.05,4.732,4.732,0,0,0-.787,2.9,4.463,4.463,0,0,0,.8,2.8,2.56,2.56,0,0,0,2.131,1.026,2.432,2.432,0,0,0,2.093-1.006,4.807,4.807,0,0,0,.732-2.862,4.892,4.892,0,0,0-.732-2.891A2.424,2.424,0,0,0,54.338,11.076ZM72.92,19.964h-1.4V14.2q0-3.126-2.037-3.126a2.117,2.117,0,0,0-1.729.9,3.671,3.671,0,0,0-.7,2.32v5.665h-1.4V5.156h1.4v6.466h.034a3.14,3.14,0,0,1,2.876-1.895q2.961,0,2.961,4.073Zm8.919,0h-1.4V18.4H80.4a2.9,2.9,0,0,1-2.7,1.8,2.67,2.67,0,0,1-2.05-.791,2.95,2.95,0,0,1-.74-2.1,3.02,3.02,0,0,1,2.893-3.262l2.628-.42q0-2.549-1.806-2.549a4.02,4.02,0,0,0-2.859,1.231V10.665a4.94,4.94,0,0,1,2.979-.938q3.09,0,3.09,3.731Zm-1.4-5.06-2.114.332a3.158,3.158,0,0,0-1.472.552,1.7,1.7,0,0,0-.5,1.4,1.582,1.582,0,0,0,1.678,1.661,2.131,2.131,0,0,0,1.725-.835,3.239,3.239,0,0,0,.68-2.115Zm5.486,3.614h-.034v1.446h-1.4V5.156h1.4V11.72h.034a3.27,3.27,0,0,1,3.03-1.993,3.061,3.061,0,0,1,2.64,1.343,6.1,6.1,0,0,1,.954,3.6,6.816,6.816,0,0,1-1.07,4.02A3.4,3.4,0,0,1,88.548,20.2,2.83,2.83,0,0,1,85.921,18.519Zm-.034-4.034v1.4a3.22,3.22,0,0,0,.706,2.1,2.216,2.216,0,0,0,1.793.864,2.263,2.263,0,0,0,2-1.114,5.656,5.656,0,0,0,.723-3.1,4.439,4.439,0,0,0-.676-2.618,2.135,2.135,0,0,0-1.832-.947,2.359,2.359,0,0,0-1.969.972A3.89,3.89,0,0,0,85.887,14.485Zm10.305,5.48h-1.4V5.156h1.4Zm6.5.234a3.821,3.821,0,0,1-3.1-1.4,5.645,5.645,0,0,1-1.16-3.717,5.883,5.883,0,0,1,1.207-3.936A4.063,4.063,0,0,1,102.9,9.728a3.7,3.7,0,0,1,3.06,1.377,5.968,5.968,0,0,1,1.1,3.819,5.846,5.846,0,0,1-1.185,3.834A3.906,3.906,0,0,1,102.7,20.2Zm.1-9.123a2.533,2.533,0,0,0-2.14,1.05,4.732,4.732,0,0,0-.787,2.9,4.463,4.463,0,0,0,.8,2.8,2.56,2.56,0,0,0,2.131,1.026,2.432,2.432,0,0,0,2.093-1.006,4.807,4.807,0,0,0,.732-2.862,4.892,4.892,0,0,0-.732-2.891A2.423,2.423,0,0,0,102.8,11.076Zm17.281,8.43a4.129,4.129,0,0,1-2.4.694,3.735,3.735,0,0,1-3.026-1.392,5.477,5.477,0,0,1-1.151-3.609,6.028,6.028,0,0,1,1.241-3.971,4.082,4.082,0,0,1,3.312-1.5,4.134,4.134,0,0,1,2.037.488v1.641a3.282,3.282,0,0,0-2.088-.781,2.678,2.678,0,0,0-2.2,1.1,4.55,4.55,0,0,0-.86,2.886,4.336,4.336,0,0,0,.809,2.774,2.63,2.63,0,0,0,2.17,1.016,3.255,3.255,0,0,0,2.157-.869Zm5.786.694a3.821,3.821,0,0,1-3.1-1.4,5.645,5.645,0,0,1-1.16-3.717,5.883,5.883,0,0,1,1.207-3.936,4.063,4.063,0,0,1,3.261-1.416,3.7,3.7,0,0,1,3.06,1.377,5.968,5.968,0,0,1,1.1,3.819,5.846,5.846,0,0,1-1.185,3.834A3.906,3.906,0,0,1,125.866,20.2Zm.1-9.123a2.533,2.533,0,0,0-2.14,1.05,4.732,4.732,0,0,0-.787,2.9,4.463,4.463,0,0,0,.8,2.8,2.56,2.56,0,0,0,2.131,1.026,2.432,2.432,0,0,0,2.093-1.006,4.807,4.807,0,0,0,.732-2.862,4.892,4.892,0,0,0-.732-2.891A2.424,2.424,0,0,0,125.969,11.076Zm13.78,8.889h-1.4v-5.7q0-3.184-2.037-3.184a2.106,2.106,0,0,0-1.742.9,3.653,3.653,0,0,0-.689,2.281v5.7h-1.4v-10h1.4v1.661h.034a3.117,3.117,0,0,1,2.876-1.895,2.542,2.542,0,0,1,2.2,1.06,5.205,5.205,0,0,1,.762,3.062Zm8.85,0h-1.4V5.156h1.4Zm6.5.234a3.821,3.821,0,0,1-3.1-1.4,5.645,5.645,0,0,1-1.16-3.717,5.883,5.883,0,0,1,1.207-3.936,4.063,4.063,0,0,1,3.261-1.416,3.7,3.7,0,0,1,3.06,1.377,5.968,5.968,0,0,1,1.1,3.819,5.846,5.846,0,0,1-1.185,3.834A3.906,3.906,0,0,1,155.1,20.2Zm.1-9.123a2.533,2.533,0,0,0-2.14,1.05,4.732,4.732,0,0,0-.787,2.9,4.463,4.463,0,0,0,.8,2.8,2.56,2.56,0,0,0,2.131,1.026,2.432,2.432,0,0,0,2.093-1.006,4.807,4.807,0,0,0,.732-2.862,4.892,4.892,0,0,0-.732-2.891A2.423,2.423,0,0,0,155.206,11.076ZM161.18,19.6V17.884a3.829,3.829,0,0,0,2.525.967q1.849,0,1.849-1.407a1.354,1.354,0,0,0-.158-.679,1.712,1.712,0,0,0-.428-.493,3.184,3.184,0,0,0-.633-.386q-.364-.171-.783-.357A9.542,9.542,0,0,1,162.528,15a3.141,3.141,0,0,1-.736-.606,2.3,2.3,0,0,1-.445-.767,3.058,3.058,0,0,1-.15-1.006,2.657,2.657,0,0,1,.282-1.245,2.74,2.74,0,0,1,.753-.908,3.321,3.321,0,0,1,1.074-.552,4.212,4.212,0,0,1,1.245-.186,4.493,4.493,0,0,1,2.037.449V11.8a3.618,3.618,0,0,0-2.225-.723,2.3,2.3,0,0,0-.71.1,1.652,1.652,0,0,0-.544.288,1.288,1.288,0,0,0-.351.444,1.3,1.3,0,0,0-.124.571,1.533,1.533,0,0,0,.124.654,1.4,1.4,0,0,0,.364.469,2.708,2.708,0,0,0,.582.371q.342.166.779.361a10.2,10.2,0,0,1,1.044.523,3.6,3.6,0,0,1,.787.606,2.375,2.375,0,0,1,.5.777,2.814,2.814,0,0,1,.175,1.045,2.741,2.741,0,0,1-.287,1.289,2.679,2.679,0,0,1-.766.908,3.3,3.3,0,0,1-1.1.537,4.812,4.812,0,0,1-1.31.176A4.471,4.471,0,0,1,161.18,19.6ZM7.323,49.512a4.129,4.129,0,0,1-2.4.694A3.735,3.735,0,0,1,1.9,48.814,5.477,5.477,0,0,1,.75,45.2a6.028,6.028,0,0,1,1.241-3.971,4.082,4.082,0,0,1,3.312-1.5,4.134,4.134,0,0,1,2.037.488v1.641a3.282,3.282,0,0,0-2.088-.781,2.678,2.678,0,0,0-2.2,1.1,4.55,4.55,0,0,0-.86,2.886A4.336,4.336,0,0,0,3,47.842a2.63,2.63,0,0,0,2.17,1.016,3.255,3.255,0,0,0,2.157-.869Zm5.786.694a3.821,3.821,0,0,1-3.1-1.4,5.645,5.645,0,0,1-1.16-3.717,5.883,5.883,0,0,1,1.207-3.936,4.063,4.063,0,0,1,3.261-1.416,3.7,3.7,0,0,1,3.06,1.377,5.968,5.968,0,0,1,1.1,3.819,5.846,5.846,0,0,1-1.185,3.834A3.906,3.906,0,0,1,13.109,50.206Zm.1-9.123a2.533,2.533,0,0,0-2.14,1.05,4.732,4.732,0,0,0-.787,2.9,4.463,4.463,0,0,0,.8,2.8,2.56,2.56,0,0,0,2.131,1.026A2.432,2.432,0,0,0,15.3,47.852a4.807,4.807,0,0,0,.732-2.862A4.892,4.892,0,0,0,15.3,42.1,2.424,2.424,0,0,0,13.212,41.083Zm18.95,8.889h-1.4V44.228a4.838,4.838,0,0,0-.449-2.4,1.625,1.625,0,0,0-1.511-.742,1.819,1.819,0,0,0-1.528.938,3.938,3.938,0,0,0-.629,2.247v5.7h-1.4V44.033q0-2.95-1.994-2.95a1.785,1.785,0,0,0-1.524.884,4.024,4.024,0,0,0-.6,2.3v5.7h-1.4v-10h1.4v1.582h.034a2.939,2.939,0,0,1,2.722-1.817,2.333,2.333,0,0,1,1.566.571,2.9,2.9,0,0,1,.916,1.5,3.116,3.116,0,0,1,2.91-2.071q2.893,0,2.893,4.073Zm4.091-1.446h-.034v6.046h-1.4v-14.6h1.4v1.758h.034a3.27,3.27,0,0,1,3.03-1.993,3.058,3.058,0,0,1,2.645,1.343,6.118,6.118,0,0,1,.95,3.6,6.816,6.816,0,0,1-1.07,4.02,3.4,3.4,0,0,1-2.927,1.509A2.876,2.876,0,0,1,36.253,48.526Zm-.034-4.034v1.4a3.22,3.22,0,0,0,.706,2.1,2.216,2.216,0,0,0,1.793.864,2.263,2.263,0,0,0,2-1.114,5.656,5.656,0,0,0,.723-3.1,4.439,4.439,0,0,0-.676-2.618,2.135,2.135,0,0,0-1.832-.947,2.359,2.359,0,0,0-1.969.972A3.89,3.89,0,0,0,36.219,44.492Zm15.175,5.48h-1.4V48.409h-.034a2.9,2.9,0,0,1-2.7,1.8,2.67,2.67,0,0,1-2.05-.791,2.95,2.95,0,0,1-.74-2.1,3.02,3.02,0,0,1,2.893-3.262l2.628-.42q0-2.549-1.806-2.549a4.02,4.02,0,0,0-2.859,1.231V40.672a4.94,4.94,0,0,1,2.979-.938q3.09,0,3.09,3.731Zm-1.4-5.06-2.114.332A3.158,3.158,0,0,0,46.4,45.8a1.7,1.7,0,0,0-.5,1.4,1.582,1.582,0,0,0,1.678,1.661,2.131,2.131,0,0,0,1.725-.835,3.239,3.239,0,0,0,.68-2.115Zm11.324,5.06h-1.4v-5.7q0-3.184-2.037-3.184a2.106,2.106,0,0,0-1.742.9,3.653,3.653,0,0,0-.689,2.281v5.7h-1.4v-10h1.4V41.63h.034a3.117,3.117,0,0,1,2.876-1.895,2.542,2.542,0,0,1,2.2,1.06,5.2,5.2,0,0,1,.762,3.062ZM60.389,35.73a3.088,3.088,0,0,1-.411,1.675,1.26,1.26,0,0,1-1.113.65,2.628,2.628,0,0,1-1.387-.508,2.164,2.164,0,0,0-1.019-.42q-.753,0-.753,1.1h-.8a3.028,3.028,0,0,1,.411-1.675,1.3,1.3,0,0,1,1.147-.63,2.307,2.307,0,0,1,1.275.508,2.058,2.058,0,0,0,1.1.43q.719,0,.719-1.133ZM71,45.371H64.814A4.073,4.073,0,0,0,65.6,47.95a2.546,2.546,0,0,0,2.071.908,3.992,3.992,0,0,0,2.722-1.114v1.5a4.636,4.636,0,0,1-3.056.957,3.5,3.5,0,0,1-2.919-1.363,6.11,6.11,0,0,1-1.061-3.834,5.96,5.96,0,0,1,1.16-3.8,3.536,3.536,0,0,1,2.88-1.47A3.119,3.119,0,0,1,70.061,41,5.815,5.815,0,0,1,71,44.531Zm-1.438-1.358a3.577,3.577,0,0,0-.586-2.159,1.892,1.892,0,0,0-1.6-.772,2.141,2.141,0,0,0-1.686.811,3.923,3.923,0,0,0-.856,2.12ZM77.7,41.591a1.563,1.563,0,0,0-1.061-.322,1.753,1.753,0,0,0-1.5.967,4.956,4.956,0,0,0-.6,2.637v5.1h-1.4v-10h1.4V42.03h.034a3.579,3.579,0,0,1,.916-1.646,1.945,1.945,0,0,1,1.378-.591,2.033,2.033,0,0,1,.839.137Zm5.187,8.615a3.821,3.821,0,0,1-3.1-1.4,5.645,5.645,0,0,1-1.16-3.717,5.883,5.883,0,0,1,1.207-3.936,4.063,4.063,0,0,1,3.261-1.416,3.7,3.7,0,0,1,3.06,1.377,5.968,5.968,0,0,1,1.1,3.819,5.846,5.846,0,0,1-1.185,3.834A3.906,3.906,0,0,1,82.882,50.206Zm.1-9.123a2.533,2.533,0,0,0-2.14,1.05,4.732,4.732,0,0,0-.787,2.9,4.463,4.463,0,0,0,.8,2.8,2.56,2.56,0,0,0,2.131,1.026,2.432,2.432,0,0,0,2.093-1.006,4.807,4.807,0,0,0,.732-2.862,4.892,4.892,0,0,0-.732-2.891A2.424,2.424,0,0,0,82.985,41.083Zm5.974,8.527V47.891a3.829,3.829,0,0,0,2.525.967q1.849,0,1.849-1.407a1.354,1.354,0,0,0-.158-.679,1.712,1.712,0,0,0-.428-.493,3.185,3.185,0,0,0-.633-.386q-.364-.171-.783-.357A9.542,9.542,0,0,1,90.307,45a3.142,3.142,0,0,1-.736-.606,2.3,2.3,0,0,1-.445-.767,3.058,3.058,0,0,1-.15-1.006,2.656,2.656,0,0,1,.282-1.245,2.739,2.739,0,0,1,.753-.908,3.321,3.321,0,0,1,1.074-.552,4.212,4.212,0,0,1,1.245-.186,4.493,4.493,0,0,1,2.037.449v1.621a3.618,3.618,0,0,0-2.225-.723,2.3,2.3,0,0,0-.71.1,1.652,1.652,0,0,0-.544.288,1.288,1.288,0,0,0-.351.444,1.3,1.3,0,0,0-.124.571,1.533,1.533,0,0,0,.124.654,1.4,1.4,0,0,0,.364.469,2.707,2.707,0,0,0,.582.371q.342.166.779.361a10.2,10.2,0,0,1,1.044.523,3.6,3.6,0,0,1,.787.606,2.375,2.375,0,0,1,.5.777,2.814,2.814,0,0,1,.175,1.045,2.741,2.741,0,0,1-.287,1.289,2.679,2.679,0,0,1-.766.908,3.3,3.3,0,0,1-1.1.537,4.812,4.812,0,0,1-1.31.176A4.471,4.471,0,0,1,88.959,49.61Zm17.264.537a.843.843,0,0,1-.663-.313,1.126,1.126,0,0,1-.27-.762,1.183,1.183,0,0,1,.27-.777.828.828,0,0,1,.663-.327.844.844,0,0,1,.663.327,1.16,1.16,0,0,1,.278.777,1.105,1.105,0,0,1-.278.762A.859.859,0,0,1,106.223,50.147Zm-4.3,0a.868.868,0,0,1-.672-.313,1.105,1.105,0,0,1-.278-.762,1.16,1.16,0,0,1,.278-.777.845.845,0,0,1,1.335,0,1.16,1.16,0,0,1,.278.777,1.105,1.105,0,0,1-.278.762A.859.859,0,0,1,101.926,50.147Zm-4.3,0a.83.83,0,0,1-.659-.313,1.137,1.137,0,0,1-.265-.762,1.2,1.2,0,0,1,.265-.777.817.817,0,0,1,.659-.327.844.844,0,0,1,.663.327,1.16,1.16,0,0,1,.278.777,1.116,1.116,0,0,1-.274.762A.855.855,0,0,1,97.63,50.147Z" transform="translate(-814.992 -6068.572)" fill="#12263f"/>
  </g>
</svg>
