<svg xmlns="http://www.w3.org/2000/svg" xmlns:xlink="http://www.w3.org/1999/xlink" width="534" height="473.482" viewBox="0 0 534 473.482">
  <defs>
    <clipPath id="clip-path">
      <rect id="Rectángulo_337583" data-name="Rectángulo 337583" width="389" height="470" transform="translate(234 6033)" fill="#fff" stroke="#707070" stroke-width="1"/>
    </clipPath>
  </defs>
  <g id="Grupo_963435" data-name="Grupo 963435" transform="translate(1116 4524.482)">
    <g id="Enmascarar_grupo_927202" data-name="Enmascarar grupo 927202" transform="translate(-1350 -10554)" clip-path="url(#clip-path)">
      <g id="Grupo_949088" data-name="Grupo 949088" transform="translate(-575.595 5966.792)">
        <g id="Grupo_948972" data-name="Grupo 948972" transform="translate(893.132 73.727)">
          <path id="Trazado_684159" data-name="Trazado 684159" d="M1012.6,151c1.59,4.676,3.233,9.512,4.8,14.637,4.985,16.337-10.741,18.4-10.741,18.4s5.05,11.128-2.892,20.033-17.987,4.127-17.987,4.127-3.641,4.847-13.209,5.449c-13.879.877-18.933-4.7-18.933-4.7l-14.505-2.6c-1.909,1.067-3.393,8.16-18.732,9.953-13.944,1.629-21.121-6.737-21.121-6.737-3.689,7.225-21.046,5.955-23.013-5.488-1.849-10.747,3.151-15.147,3.762-15.646-9.009,6.38-24.039-10.875-8.115-27.238,6.477-6.659,10.058-9.752,12.48-13.086-7.214,1.715-14.754-6.689-11.531-14.022,4.162-9.46,11.773-5.691,19.21-19.268,9.883-18.033,17.445-24.188,17.886-24.538l.013-.011c12.758-12.1,31.6-17.639,52.24-16.361,17.544,1.084,27.769,8.259,33.689,15.633a37.04,37.04,0,0,1,7.858,22.486q.055,2.563.285,5.056c2.456,5.963,7.484,16.54,13.423,19.752C1025.539,141.21,1021.021,152.8,1012.6,151Z" transform="translate(-864.919 -73.727)" fill="#32324c"/>
        </g>
        <g id="Grupo_948973" data-name="Grupo 948973" transform="translate(840.595 128.559)">
          <path id="Trazado_684160" data-name="Trazado 684160" d="M1187.166,593.894C1176.032,758.042,968.921,824.567,866.68,695.666c-20.881-26.324-25.875-89.806-20.467-123.29,21.806-134.96,91.016-148.748,39.344-234.116S829.084,97.911,971.739,99.121s50.694,229.22,148.962,292.994C1165.648,421.283,1192.966,508.4,1187.166,593.894Z" transform="translate(-836.423 -99.114)" fill="#32324c" opacity="0.1"/>
          <path id="Trazado_684161" data-name="Trazado 684161" d="M1001.839,263.061a21.763,21.763,0,0,1-23.994-6.9c-9.283-11.246-24.093-33.957-19.685-60.387,6.3-37.756,54.145-7.616,57.91,34.823C1017.952,251.817,1010.131,260.092,1001.839,263.061Z" transform="translate(-705.165 -6.962)" fill="#32324c" opacity="0.1"/>
          <path id="Trazado_684162" data-name="Trazado 684162" d="M958.507,196.045a11.351,11.351,0,0,1-7.691-10.508c-.238-7.6.907-21.7,11.167-31.192,14.657-13.56,24.765,14.151,12.762,32.858C968.743,196.554,962.875,197.468,958.507,196.045Z" transform="translate(-712.786 -39.237)" fill="#32324c" opacity="0.1"/>
          <path id="Trazado_684163" data-name="Trazado 684163" d="M851.295,282.2a11.351,11.351,0,0,1-9.469-8.942c-1.611-7.434-3.039-21.506,5.333-32.7,11.957-15.991,26.916,9.432,18.5,30C861.453,280.847,855.848,282.811,851.295,282.2Z" transform="translate(-840.595 59.106)" fill="#32324c" opacity="0.1"/>
        </g>
        <path id="Trazado_684164" data-name="Trazado 684164" d="M898.06,149.534s10.944.717,99.893,42.3c0,0,5.678,2.359,14,.564,15.7-3.391-1.728-30.082-1.728-30.082S947.356,120.693,898.06,149.534Z" transform="translate(66.651 76.122)" fill="#c11c57"/>
        <ellipse id="Elipse_5279" data-name="Elipse 5279" cx="131.681" cy="19.978" rx="131.681" ry="19.978" transform="translate(877.761 837.462)" fill="#32324c" opacity="0.1"/>
        <g id="Grupo_949049" data-name="Grupo 949049" transform="translate(933.985 445.424)">
          <g id="Grupo_949007" data-name="Grupo 949007" transform="translate(60.449 7.806)">
            <g id="Grupo_948974" data-name="Grupo 948974">
              <path id="Trazado_684165" data-name="Trazado 684165" d="M977.286,443.177,962.7,619.358H937c-5.948-68.661-18.767-159.537,1.3-183.967-35.529-82.908-25.03-166.8-25.03-166.8,19.616-8.981,50.294-19.158,50.294-19.158C974,308.695,977.286,443.177,977.286,443.177Z" transform="translate(-911.822 -249.435)" fill="#211931"/>
            </g>
            <g id="Grupo_949006" data-name="Grupo 949006" transform="translate(18.719 341.937)">
              <g id="Grupo_948976" data-name="Grupo 948976">
                <g id="Grupo_948975" data-name="Grupo 948975">
                  <path id="Trazado_684166" data-name="Trazado 684166" d="M1012.329,477.264H928.277a7.785,7.785,0,0,1-7.765-8.38l3.415-44.147a49.145,49.145,0,0,1,8.4-2.771,8.516,8.516,0,0,0,6.233-5.654c.061-.209.115-.425.171-.641,1.929-8.495,14.179-11.2,16.443-2.9.294,1.073.549,2.117.765,3.121.054.246.108.5.153.741.363,1.784.626,3.43.812,4.866.006.03.006.063.015.093a47.4,47.4,0,0,1,.417,6q1.669,2.122,3.229,4.173c.533.678,1.043,1.359,1.553,2.022,1.1,1.436,2.177,2.836,3.235,4.179.486.633.972,1.244,1.46,1.847,1.166,1.458,2.315,2.842,3.467,4.132.518.587,1.035,1.158,1.568,1.706,4.333,4.557,8.7,7.67,13.873,8.389,9.112,1.25,24,2.255,31.195,15.631a4.839,4.839,0,0,1,.363.851A5.184,5.184,0,0,1,1012.329,477.264Z" transform="translate(-920.489 -407.75)" fill="#3555af"/>
                </g>
              </g>
              <g id="Grupo_948978" data-name="Grupo 948978" transform="translate(0.071 62.771)">
                <g id="Grupo_948977" data-name="Grupo 948977">
                  <path id="Trazado_684167" data-name="Trazado 684167" d="M1012.292,443.554H928.239a7.784,7.784,0,0,1-7.717-6.741h96.714A5.184,5.184,0,0,1,1012.292,443.554Z" transform="translate(-920.522 -436.813)" fill="#3986d7"/>
                </g>
              </g>
              <g id="Grupo_948986" data-name="Grupo 948986" transform="translate(29.468 24.017)">
                <g id="Grupo_948981" data-name="Grupo 948981" transform="translate(2.246)">
                  <g id="Grupo_948980" data-name="Grupo 948980">
                    <g id="Grupo_948979" data-name="Grupo 948979">
                      <path id="Trazado_684168" data-name="Trazado 684168" d="M945.082,420.892c-.974,1.43-2.959,3.16-6.959,4.758q-1.02.418-2.225.812l-.726-2.194q1.192-.392,2.162-.788c4.6-1.853,5.855-3.676,6.194-4.609C944.063,419.548,944.573,420.228,945.082,420.892Z" transform="translate(-935.173 -418.87)" fill="#fff"/>
                    </g>
                  </g>
                </g>
                <g id="Grupo_948985" data-name="Grupo 948985" transform="translate(0 3.888)">
                  <g id="Grupo_948984" data-name="Grupo 948984">
                    <g id="Grupo_948983" data-name="Grupo 948983">
                      <g id="Grupo_948982" data-name="Grupo 948982">
                        <path id="Trazado_684169" data-name="Trazado 684169" d="M939.347,423.277a2.607,2.607,0,1,1-2.607-2.607A2.609,2.609,0,0,1,939.347,423.277Z" transform="translate(-934.133 -420.67)" fill="#fff"/>
                      </g>
                    </g>
                  </g>
                </g>
              </g>
              <g id="Grupo_948994" data-name="Grupo 948994" transform="translate(35.356 30.217)">
                <g id="Grupo_948989" data-name="Grupo 948989" transform="translate(1.819)">
                  <g id="Grupo_948988" data-name="Grupo 948988">
                    <g id="Grupo_948987" data-name="Grupo 948987">
                      <path id="Trazado_684170" data-name="Trazado 684170" d="M946.846,423.588a16.507,16.507,0,0,1-5.754,3.622c-.8.348-1.685.672-2.665,1L937.7,426q1.367-.454,2.456-.9a13.267,13.267,0,0,0,5.229-3.361C945.872,422.374,946.358,422.985,946.846,423.588Z" transform="translate(-937.701 -421.741)" fill="#fff"/>
                    </g>
                  </g>
                </g>
                <g id="Grupo_948993" data-name="Grupo 948993" transform="translate(0 2.76)">
                  <g id="Grupo_948992" data-name="Grupo 948992">
                    <g id="Grupo_948991" data-name="Grupo 948991">
                      <g id="Grupo_948990" data-name="Grupo 948990">
                        <path id="Trazado_684171" data-name="Trazado 684171" d="M942.073,425.626a2.607,2.607,0,1,1-2.607-2.607A2.607,2.607,0,0,1,942.073,425.626Z" transform="translate(-936.859 -423.019)" fill="#fff"/>
                      </g>
                    </g>
                  </g>
                </g>
              </g>
              <g id="Grupo_949002" data-name="Grupo 949002" transform="translate(40.57 36.196)">
                <g id="Grupo_948997" data-name="Grupo 948997" transform="translate(1.786)">
                  <g id="Grupo_948996" data-name="Grupo 948996">
                    <g id="Grupo_948995" data-name="Grupo 948995">
                      <path id="Trazado_684172" data-name="Trazado 684172" d="M949.1,426.215a16.751,16.751,0,0,1-5.574,3.469c-.812.346-1.708.687-2.7,1.011l-.719-2.2c.92-.3,1.739-.611,2.473-.92a14.342,14.342,0,0,0,4.957-3.065C948.048,425.1,948.564,425.667,949.1,426.215Z" transform="translate(-940.1 -424.509)" fill="#fff"/>
                    </g>
                  </g>
                </g>
                <g id="Grupo_949001" data-name="Grupo 949001" transform="translate(0 2.477)">
                  <g id="Grupo_949000" data-name="Grupo 949000">
                    <g id="Grupo_948999" data-name="Grupo 948999">
                      <g id="Grupo_948998" data-name="Grupo 948998">
                        <path id="Trazado_684173" data-name="Trazado 684173" d="M944.487,428.263a2.607,2.607,0,1,1-2.607-2.607A2.609,2.609,0,0,1,944.487,428.263Z" transform="translate(-939.273 -425.656)" fill="#fff"/>
                      </g>
                    </g>
                  </g>
                </g>
              </g>
              <g id="Grupo_949005" data-name="Grupo 949005" transform="translate(28.918 8.885)">
                <g id="Grupo_949004" data-name="Grupo 949004">
                  <g id="Grupo_949003" data-name="Grupo 949003">
                    <path id="Trazado_684174" data-name="Trazado 684174" d="M941.37,416.73a58.943,58.943,0,0,0-7.492.425l.048-4.21a18.98,18.98,0,0,1,6.633-1.082C940.921,413.648,941.185,415.294,941.37,416.73Z" transform="translate(-933.878 -411.864)" fill="#fff"/>
                  </g>
                </g>
              </g>
            </g>
          </g>
          <g id="Grupo_949048" data-name="Grupo 949048">
            <g id="Grupo_949046" data-name="Grupo 949046" transform="translate(0 19.542)">
              <g id="Grupo_949008" data-name="Grupo 949008">
                <path id="Trazado_684175" data-name="Trazado 684175" d="M953.3,262.29s-6.073,94.02-18.391,174.965c-2.633,17.3-5.868,128.174-13.862,175.8H895.309l-4.953-173.027s-13.905-110.45-1.108-185.159Z" transform="translate(-883.834 -254.869)" fill="#32324c"/>
              </g>
              <g id="Grupo_949045" data-name="Grupo 949045" transform="translate(0.982 335.241)">
                <g id="Grupo_949011" data-name="Grupo 949011">
                  <g id="Grupo_949010" data-name="Grupo 949010">
                    <g id="Grupo_949009" data-name="Grupo 949009">
                      <path id="Trazado_684176" data-name="Trazado 684176" d="M943.063,468.684c-.741,14.81-47.046,9.708-54.452,5.266-2.858-1.719-4.058-5.028-4.281-9.035-.363-6.391,1.741-14.566,3.564-20.972,2.961-10.434,2.555-10.242,4.613-17.374,0,0-.533-11.6,14.639-16.024s20.734,24.445,23.326,30c2.372,5.089,11.59,12.05,12.544,24.57A28.274,28.274,0,0,1,943.063,468.684Z" transform="translate(-884.289 -410.084)" fill="#3555af"/>
                    </g>
                  </g>
                </g>
                <g id="Grupo_949014" data-name="Grupo 949014" transform="translate(13.404 18.534)">
                  <g id="Grupo_949013" data-name="Grupo 949013">
                    <g id="Grupo_949012" data-name="Grupo 949012">
                      <path id="Trazado_684177" data-name="Trazado 684177" d="M891.709,425.991l-1.214-1.862c.566-.367,13.955-8.955,25.607-3.845l-.892,2.037C904.646,417.688,891.838,425.906,891.709,425.991Z" transform="translate(-890.495 -418.665)" fill="#fff"/>
                    </g>
                  </g>
                </g>
                <g id="Grupo_949017" data-name="Grupo 949017" transform="translate(14.726 31.422)">
                  <g id="Grupo_949016" data-name="Grupo 949016">
                    <g id="Grupo_949015" data-name="Grupo 949015">
                      <path id="Trazado_684178" data-name="Trazado 684178" d="M892.319,431.957l-1.212-1.862c.564-.367,13.955-8.953,25.6-3.845l-.892,2.037C905.254,423.653,892.448,431.873,892.319,431.957Z" transform="translate(-891.107 -424.633)" fill="#fff"/>
                    </g>
                  </g>
                </g>
                <g id="Grupo_949020" data-name="Grupo 949020" transform="translate(14.065 24.978)">
                  <g id="Grupo_949019" data-name="Grupo 949019">
                    <g id="Grupo_949018" data-name="Grupo 949018">
                      <path id="Trazado_684179" data-name="Trazado 684179" d="M892.015,428.973l-1.214-1.862c.564-.367,13.955-8.953,25.6-3.842l-.892,2.035C904.95,420.668,892.142,428.888,892.015,428.973Z" transform="translate(-890.801 -421.649)" fill="#fff"/>
                    </g>
                  </g>
                </g>
                <g id="Grupo_949023" data-name="Grupo 949023" transform="translate(11.38 22.777)">
                  <g id="Grupo_949022" data-name="Grupo 949022">
                    <g id="Grupo_949021" data-name="Grupo 949021">
                      <path id="Trazado_684180" data-name="Trazado 684180" d="M894.556,423.129a2.5,2.5,0,1,1-2.5-2.5A2.5,2.5,0,0,1,894.556,423.129Z" transform="translate(-889.558 -420.63)" fill="#fff"/>
                    </g>
                  </g>
                </g>
                <g id="Grupo_949026" data-name="Grupo 949026" transform="translate(11.512 28.883)">
                  <g id="Grupo_949025" data-name="Grupo 949025">
                    <g id="Grupo_949024" data-name="Grupo 949024">
                      <path id="Trazado_684181" data-name="Trazado 684181" d="M894.617,425.958a2.5,2.5,0,1,1-2.5-2.5A2.5,2.5,0,0,1,894.617,425.958Z" transform="translate(-889.619 -423.457)" fill="#fff"/>
                    </g>
                  </g>
                </g>
                <g id="Grupo_949029" data-name="Grupo 949029" transform="translate(12.834 34.991)">
                  <g id="Grupo_949028" data-name="Grupo 949028">
                    <g id="Grupo_949027" data-name="Grupo 949027">
                      <path id="Trazado_684182" data-name="Trazado 684182" d="M895.229,428.784a2.5,2.5,0,1,1-2.5-2.5A2.5,2.5,0,0,1,895.229,428.784Z" transform="translate(-890.231 -426.285)" fill="#fff"/>
                    </g>
                  </g>
                </g>
                <g id="Grupo_949032" data-name="Grupo 949032" transform="translate(37.385 31.384)">
                  <g id="Grupo_949031" data-name="Grupo 949031">
                    <g id="Grupo_949030" data-name="Grupo 949030">
                      <path id="Trazado_684183" data-name="Trazado 684183" d="M906.6,427.112a2.5,2.5,0,1,1-2.5-2.5A2.5,2.5,0,0,1,906.6,427.112Z" transform="translate(-901.598 -424.615)" fill="#fff"/>
                    </g>
                  </g>
                </g>
                <g id="Grupo_949035" data-name="Grupo 949035" transform="translate(36.726 24.719)">
                  <g id="Grupo_949034" data-name="Grupo 949034">
                    <g id="Grupo_949033" data-name="Grupo 949033">
                      <path id="Trazado_684184" data-name="Trazado 684184" d="M906.291,424.028a2.5,2.5,0,1,1-2.5-2.5A2.5,2.5,0,0,1,906.291,424.028Z" transform="translate(-901.293 -421.529)" fill="#fff"/>
                    </g>
                  </g>
                </g>
                <g id="Grupo_949038" data-name="Grupo 949038" transform="translate(36.065 18.053)">
                  <g id="Grupo_949037" data-name="Grupo 949037">
                    <g id="Grupo_949036" data-name="Grupo 949036">
                      <path id="Trazado_684185" data-name="Trazado 684185" d="M905.985,420.942a2.5,2.5,0,1,1-2.5-2.5A2.5,2.5,0,0,1,905.985,420.942Z" transform="translate(-900.987 -418.443)" fill="#fff"/>
                    </g>
                  </g>
                </g>
                <g id="Grupo_949041" data-name="Grupo 949041" transform="translate(0.041 54.831)">
                  <g id="Grupo_949040" data-name="Grupo 949040">
                    <g id="Grupo_949039" data-name="Grupo 949039">
                      <path id="Trazado_684186" data-name="Trazado 684186" d="M943.041,439.24c-.741,14.81-47.046,9.708-54.452,5.266-2.858-1.719-4.058-5.028-4.281-9.035,4.866,2.775,13.441,6.235,26.244,6.464,15.708.281,27.037-2.9,32.443-6.266A28.274,28.274,0,0,1,943.041,439.24Z" transform="translate(-884.308 -435.471)" fill="#3986d7"/>
                    </g>
                  </g>
                </g>
                <g id="Grupo_949044" data-name="Grupo 949044" transform="translate(16.378 4.964)">
                  <g id="Grupo_949043" data-name="Grupo 949043">
                    <g id="Grupo_949042" data-name="Grupo 949042">
                      <path id="Trazado_684187" data-name="Trazado 684187" d="M904.9,412.453s-7.041-.741-13.026,2.592l.678,4.691s8.393-2.469,13.948-2.1A11.021,11.021,0,0,0,904.9,412.453Z" transform="translate(-891.872 -412.383)" fill="#fff"/>
                    </g>
                  </g>
                </g>
              </g>
            </g>
            <g id="Grupo_949047" data-name="Grupo 949047" transform="translate(5.252)">
              <path id="Trazado_684188" data-name="Trazado 684188" d="M888.75,245.821c-2.54,13.423-4.756,35.847,2.02,58.394,0,0,47.27,11.741,80.515-14.659,21.752-17.277,22.776-37.495,22.516-43.735Z" transform="translate(-886.266 -245.821)" fill="#32324c"/>
            </g>
          </g>
        </g>
        <g id="Grupo_949054" data-name="Grupo 949054" transform="translate(882.254 224.759)">
          <g id="Grupo_949050" data-name="Grupo 949050" transform="translate(0 227.256)">
            <path id="Trazado_684189" data-name="Trazado 684189" d="M882.708,250.286s6.156,5.581,9.354,11.637,6.3,12.527,8.2,16.3c2.289,4.538-2.529,4.834-5.864,1.6-5.054-4.9-5.778-8.508-5.778-8.508s7.3,26.268,6.365,33.534c-.853,6.635-5.6-7.648-10.186-19.244,0,0,2.644,26.594-.937,29.389-4.7,3.672-7.81-28.555-7.81-28.555s-1.242,24.1-4.1,23.555c-3.19-.613-4.933-25.445-4.933-25.445s-2.32,16.484-4.084,15.443c-3.492-2.06-5.773-37.415,3.482-50.709C866.415,249.283,879.585,247.871,882.708,250.286Z" transform="translate(-859.883 -248.873)" fill="#ffaf82"/>
          </g>
          <g id="Grupo_949053" data-name="Grupo 949053" transform="translate(2.349)">
            <g id="Grupo_949052" data-name="Grupo 949052">
              <g id="Grupo_949051" data-name="Grupo 949051">
                <path id="Trazado_684190" data-name="Trazado 684190" d="M929.02,188.864c-13.086,41.981-30.251,70.478-36.285,79.774-.4,5.909-2.374,33.912-5.914,60.4a446.068,446.068,0,0,0-3.5,45.37,25.457,25.457,0,0,1-21.022,0c-3.052-44.869-.7-81.461,5.579-108.647-.382-35.447,36.648-122.1,36.648-122.1C922.212,156.654,929.02,188.864,929.02,188.864Z" transform="translate(-860.97 -143.654)" fill="#e63067"/>
              </g>
            </g>
          </g>
        </g>
        <g id="Grupo_949055" data-name="Grupo 949055" transform="translate(928.157 212.903)">
          <path id="Trazado_684191" data-name="Trazado 684191" d="M1004.107,373.156c-57.3,29.184-114.562,4.883-114.562,4.883,7.868-49.858,17.4-115.686,17.4-115.686-15.767-30.169-25.806-112.331-25.806-112.331,9.255-5.734,13.577-4.339,24.153-7.13,2.985-.788,5.728-1.451,8.074-1.989,4.795-1.1,7.9-1.659,7.9-1.659,14.458-1.965,29.493-.914,40.441.5.073.011.149.017.222.028,9.6,1.259,16.013,2.8,16.013,2.8s4.4,33.238,13.9,50.052,2.235,26.983,0,34.311a25.779,25.779,0,0,0-.836,5.5c-.629,9.181-1.41,52.4-1.41,52.4Z" transform="translate(-881.136 -138.165)" fill="#e63067"/>
          <path id="Trazado_684192" data-name="Trazado 684192" d="M933.3,171.448c-15.728.486-29.815-17.166-37.24-30.545,4.795-1.1,7.9-1.659,7.9-1.659,14.458-1.965,29.493-.914,40.441.5.073.011.149.017.222.028C946.537,153.23,949.852,170.934,933.3,171.448Z" transform="translate(-863.83 -138.165)" fill="#ffaf82"/>
          <path id="Trazado_684193" data-name="Trazado 684193" d="M963.21,179.267a25.588,25.588,0,0,0-.834,5.5c-27.778,14.283-56.56,6.136-56.56,6.136C943.2,190.265,963.21,179.267,963.21,179.267Z" transform="translate(-852.51 -90.493)" fill="#c11c57"/>
        </g>
        <path id="Trazado_684194" data-name="Trazado 684194" d="M970.424,214.469s39.19-8.138-25.253-94.344l-14.05,11.259a179.624,179.624,0,0,1,14.3,30.318,239.869,239.869,0,0,0,12.732,29.618S962,199.618,970.424,214.469Z" transform="translate(104.997 53.815)" fill="#c11c57"/>
        <g id="Grupo_949064" data-name="Grupo 949064" transform="translate(1005.659 135.263)">
          <g id="Grupo_949063" data-name="Grupo 949063">
            <g id="Grupo_949062" data-name="Grupo 949062">
              <g id="Grupo_949058" data-name="Grupo 949058" transform="translate(6.748 27.301)">
                <path id="Trazado_684195" data-name="Trazado 684195" d="M947.018,126.4l-5.631-9.6-9.991,5.5,6.475,10.29Z" transform="translate(-907.09 -112.608)" fill="#fb9988"/>
                <g id="Grupo_949057" data-name="Grupo 949057">
                  <g id="Grupo_949056" data-name="Grupo 949056">
                    <path id="Trazado_684196" data-name="Trazado 684196" d="M949.659,135.694l1.266-.855,1.3-4.8s-.7-6.635-5.817-9.579a6.412,6.412,0,0,0-2.905-.715,18.655,18.655,0,0,0-4.248.346,49.672,49.672,0,0,0-8.441,2.462,65.277,65.277,0,0,0-7.223-6.6c-1.438-1.071-2.272-1.216-2.762-1.017-.711.285-.691,1.283-.691,1.283l7.965,15.475s11.2,5.454,17.369,6.832Z" transform="translate(-920.143 -114.858)" fill="#fdbd8e"/>
                  </g>
                </g>
              </g>
              <g id="Grupo_949059" data-name="Grupo 949059">
                <path id="Rectángulo_337581" data-name="Rectángulo 337581" d="M.7,0H26.14a.7.7,0,0,1,.7.7V43.742a.7.7,0,0,1-.7.7H.7a.7.7,0,0,1-.7-.7V.7A.7.7,0,0,1,.7,0Z" transform="matrix(0.828, -0.56, 0.56, 0.828, 0, 15.038)" fill="#171228"/>
                <rect id="Rectángulo_337582" data-name="Rectángulo 337582" width="21.265" height="34.653" transform="translate(4.186 16.256) rotate(-34.082)" fill="#28b69a"/>
                <path id="Trazado_684197" data-name="Trazado 684197" d="M935.533,121.389a1.993,1.993,0,1,1-2.769-.533A2,2,0,0,1,935.533,121.389Z" transform="translate(-899.773 -80.999)" fill="#909aa3"/>
              </g>
              <g id="Grupo_949061" data-name="Grupo 949061" transform="translate(28.508 3.137)">
                <g id="Grupo_949060" data-name="Grupo 949060">
                  <path id="Trazado_684198" data-name="Trazado 684198" d="M938.713,105.259a5.181,5.181,0,0,1-.475,3.5c-.624,1.259-1.227,2.562-1.961,3.762-.076.119-.149.238-.223.356a12.757,12.757,0,0,1-1.166,1.562c-.156.175-.318.343-.482.505a7.113,7.113,0,0,1-1.879,1.348,1.614,1.614,0,0,1-2.309-1.613,11.6,11.6,0,0,1,1.3-4.953,20.361,20.361,0,0,1,4.119-5.272C936.944,103.4,938.186,103.175,938.713,105.259Z" transform="translate(-930.218 -103.67)" fill="#fdbd8e"/>
                  <path id="Trazado_684199" data-name="Trazado 684199" d="M939.593,108.422a5.2,5.2,0,0,1-.467,3.5c-.408.81-.8,1.646-1.238,2.462-.164.324-.341.644-.527.948a13.8,13.8,0,0,1-1.594,2.274c-.121.136-.246.266-.371.4a7.333,7.333,0,0,1-1.987,1.456,1.61,1.61,0,0,1-2.3-1.616,11.314,11.314,0,0,1,1.3-4.95,17.135,17.135,0,0,1,.972-1.613,24.337,24.337,0,0,1,1.544-2.045c.108-.13.214-.257.326-.378C936.958,106.94,938.91,105.672,939.593,108.422Z" transform="translate(-929.187 -100.001)" fill="#fdbd8e"/>
                  <path id="Trazado_684200" data-name="Trazado 684200" d="M940.97,110.811a5.211,5.211,0,0,1-.469,3.5c-.505,1.019-1.011,2.078-1.572,3.082-.175.309-.354.622-.551.914a11.958,11.958,0,0,1-1.233,1.689,8.544,8.544,0,0,1-.881.866,6.815,6.815,0,0,1-1.477.987,1.613,1.613,0,0,1-2.3-1.618,11.352,11.352,0,0,1,1.3-4.953c.011-.015.013-.026.024-.041a22.3,22.3,0,0,1,2.127-3.177c.119-.145.24-.3.365-.441C938.074,109.506,940.24,107.878,940.97,110.811Z" transform="translate(-927.592 -97.235)" fill="#fdbd8e"/>
                  <path id="Trazado_684201" data-name="Trazado 684201" d="M941.849,113.862a5.19,5.19,0,0,1-.467,3.5c-.084.171-.164.33-.246.5a22.775,22.775,0,0,1-3.112,5.186,7.671,7.671,0,0,1-2.361,1.853,1.613,1.613,0,0,1-2.3-1.62,11.441,11.441,0,0,1,1.3-4.95,10.622,10.622,0,0,1,.588-1.013,23.594,23.594,0,0,1,2.307-3.08c.121-.138.24-.264.359-.389C939.512,112.205,941.216,111.331,941.849,113.862Z" transform="translate(-926.573 -93.692)" fill="#fdbd8e"/>
                </g>
                <path id="Trazado_684202" data-name="Trazado 684202" d="M935.811,105.259a5.181,5.181,0,0,1-.475,3.5c-.624,1.259-1.227,2.562-1.961,3.762,1.713-1.916,3.665-3.184,4.348-.434a5.2,5.2,0,0,1-.467,3.5c-.408.81-.8,1.646-1.238,2.462,1.78-2.112,3.946-3.741,4.676-.808a5.211,5.211,0,0,1-.469,3.5c-.505,1.019-1.011,2.078-1.572,3.082,1.6-1.644,3.307-2.518,3.94.013a5.19,5.19,0,0,1-.467,3.5c-.084.171-.164.33-.246.5-.028-.117-.054-.225-.089-.337a4.75,4.75,0,0,0-1.27-2.3,2.239,2.239,0,0,0-2.419-.464l-.047.03c.082-.188.16-.367.24-.555a5.547,5.547,0,0,0,.51-3.674c-.436-1.4-2.419-2.3-3.417-1.222l.1-.318c.056-.164.11-.335.162-.508a6.376,6.376,0,0,0,.326-3.447,2.784,2.784,0,0,0-2.827-2.166c-.035.011-.071.011-.1.022a2.067,2.067,0,0,0-.328.1c.771-2.177,1.436-4.324.778-6.624a17.494,17.494,0,0,0-.767-1.924C934.042,103.4,935.284,103.175,935.811,105.259Z" transform="translate(-927.316 -103.67)" fill="#fb9988"/>
              </g>
            </g>
          </g>
        </g>
        <g id="Grupo_949087" data-name="Grupo 949087" transform="translate(929.016 79.266)">
          <g id="Grupo_949086" data-name="Grupo 949086">
            <g id="Grupo_949066" data-name="Grupo 949066" transform="translate(86.995 55.007)">
              <g id="Grupo_949065" data-name="Grupo 949065">
                <path id="Trazado_684203" data-name="Trazado 684203" d="M921.812,106.806s9.1-10.385,16.514-1.363c6.525,7.933,2.464,28.931-13.438,28.348Z" transform="translate(-921.812 -101.759)" fill="#f88968"/>
              </g>
            </g>
            <path id="Trazado_684204" data-name="Trazado 684204" d="M932.494,118.035a3.816,3.816,0,1,1-3.817-3.816A3.816,3.816,0,0,1,932.494,118.035Z" transform="translate(-831.28 -32.301)" fill="#fff"/>
            <g id="Grupo_949069" data-name="Grupo 949069" transform="translate(36.919 102.139)">
              <g id="Grupo_949067" data-name="Grupo 949067">
                <path id="Trazado_684205" data-name="Trazado 684205" d="M932.329,160.823c-.8,9.512-20.48,15.112-31.661-1.039l-1.177-20.873-.864-15.331,35.927,6.97-1.778,24.171Z" transform="translate(-898.627 -123.581)" fill="#ffaf82"/>
              </g>
              <g id="Grupo_949068" data-name="Grupo 949068">
                <path id="Trazado_684206" data-name="Trazado 684206" d="M932.562,157.637c-12.266.168-25.961-8.287-32.812-14.119l-1.123-19.937,35.927,6.97Z" transform="translate(-898.627 -123.581)" fill="#f88968"/>
              </g>
            </g>
            <g id="Grupo_949070" data-name="Grupo 949070" transform="translate(12.126 15.732)">
              <path id="Trazado_684207" data-name="Trazado 684207" d="M931.967,188.159c-37.92-8.674-44.81-58.378-44.81-58.378a55.027,55.027,0,0,1,.51-8.173,63.068,63.068,0,0,1,1.851-9.067c2.719-9.551,8.555-20.439,21.02-25.188q.586-.227,1.184-.436c20.676-7.331,50.91-3.9,60.1,23.475a45.425,45.425,0,0,1,1.4,5.3c.22,1.078.415,2.2.581,3.35C977.929,147.306,966.049,195.958,931.967,188.159Z" transform="translate(-887.148 -83.575)" fill="#ffaf82"/>
            </g>
            <g id="Grupo_949073" data-name="Grupo 949073" transform="translate(40.366 59.857)">
              <g id="Grupo_949072" data-name="Grupo 949072">
                <g id="Grupo_949071" data-name="Grupo 949071">
                  <path id="Trazado_684208" data-name="Trazado 684208" d="M909.253,113.692a4.87,4.87,0,0,1-5.505-4.134,4.78,4.78,0,0,1,.378-2.667c-3.985-.467-3.9-2.886-3.9-2.886.622,1.035,5.274.432,7.2.136h.011c.238-.041.432-.071.574-.093l.024-.006a1.362,1.362,0,0,1,.229-.019,4.864,4.864,0,0,1,.989,9.67Z" transform="translate(-900.223 -104.005)" fill="#32324c"/>
                </g>
              </g>
            </g>
            <g id="Grupo_949074" data-name="Grupo 949074" transform="translate(0 60.724)">
              <path id="Trazado_684209" data-name="Trazado 684209" d="M900.2,106.632s-13.607-7.458-17.964,4.929c-3.834,10.892,8.551,31.5,25.119,24.756Z" transform="translate(-881.533 -104.406)" fill="#ffaf82"/>
            </g>
            <g id="Grupo_949077" data-name="Grupo 949077" transform="translate(51.956 90.402)">
              <g id="Grupo_949075" data-name="Grupo 949075">
                <path id="Trazado_684210" data-name="Trazado 684210" d="M933.378,126.955a13.079,13.079,0,0,1-2.4,3.646c-2.119,2.24-5.35,3.877-10.276,3.866-4.138-.011-7.382-2.3-9.789-5.052a28.1,28.1,0,0,1-3.752-5.648,29.041,29.041,0,0,1-1.57-3.6s19.849-.618,29.35-2.019l0,.006a19.792,19.792,0,0,1-.194,3.9A18.3,18.3,0,0,1,933.378,126.955Z" transform="translate(-905.589 -118.147)" fill="#920e08"/>
              </g>
              <g id="Grupo_949076" data-name="Grupo 949076">
                <path id="Trazado_684211" data-name="Trazado 684211" d="M934.747,122.052c-9.054,1.758-23.706,1.624-27.588,1.715a29.041,29.041,0,0,1-1.57-3.6s19.849-.618,29.35-2.019l0,.006A19.792,19.792,0,0,1,934.747,122.052Z" transform="translate(-905.589 -118.147)" fill="#fff"/>
              </g>
            </g>
            <g id="Grupo_949078" data-name="Grupo 949078" transform="translate(6.647 69.385)">
              <path id="Trazado_684212" data-name="Trazado 684212" d="M897.475,122.667c-1.179-3.583-4.542-10.961-12.864-14.251,0,0,8.892,8.382,9.568,14.868a1.615,1.615,0,0,0,1.641,1.482l.194-.006A1.592,1.592,0,0,0,897.475,122.667Z" transform="translate(-884.611 -108.416)" fill="#f88968"/>
            </g>
            <g id="Grupo_949080" data-name="Grupo 949080" transform="translate(57.278 100.262)">
              <g id="Grupo_949079" data-name="Grupo 949079">
                <path id="Trazado_684213" data-name="Trazado 684213" d="M928.118,125.306c-2.119,2.24-5.35,3.877-10.276,3.866-4.138-.011-7.382-2.3-9.789-5.052,1.318-.752,4.976-2.32,10.182-.59a8.507,8.507,0,0,1,5.084-.741A6.427,6.427,0,0,1,928.118,125.306Z" transform="translate(-908.053 -122.712)" fill="#f85c66"/>
              </g>
            </g>
            <g id="Grupo_949081" data-name="Grupo 949081" transform="translate(58.229 107.954)">
              <path id="Trazado_684214" data-name="Trazado 684214" d="M915.313,130.817a18.208,18.208,0,0,1-6.339-2.523,1.107,1.107,0,0,1,1.253-1.825c.3.2,7.117,4.739,14.324.907a1.107,1.107,0,1,1,1.041,1.955A15.279,15.279,0,0,1,915.313,130.817Z" transform="translate(-908.493 -126.274)" fill="#f88968"/>
            </g>
            <g id="Grupo_949082" data-name="Grupo 949082" transform="translate(63.041 65.306)">
              <path id="Trazado_684215" data-name="Trazado 684215" d="M917.661,127.109H911.9a1.183,1.183,0,1,1,0-2.365h5.756a.266.266,0,0,0,.255-.339l-4.78-16.363a1.182,1.182,0,0,1,2.27-.663l4.78,16.361a2.631,2.631,0,0,1-2.525,3.369Z" transform="translate(-910.721 -106.528)" fill="#f88968"/>
            </g>
            <path id="Trazado_684216" data-name="Trazado 684216" d="M917.825,100.231h0a2.261,2.261,0,0,1-2,2.678c-4.423.436-13.62,1.933-17.769,6.991,0,0,.905-8.309,17.1-11.469A2.273,2.273,0,0,1,917.825,100.231Z" transform="translate(-862.365 -50.661)" fill="#32324c"/>
            <path id="Trazado_684217" data-name="Trazado 684217" d="M915.663,100.378h0a2.263,2.263,0,0,0,2.43,2.292c4.434-.343,13.75-.475,18.717,3.78,0,0-2.339-8.022-18.834-8.307A2.271,2.271,0,0,0,915.663,100.378Z" transform="translate(-841.948 -50.948)" fill="#32324c"/>
            <g id="Grupo_949085" data-name="Grupo 949085" transform="translate(77.344 59.24)">
              <g id="Grupo_949084" data-name="Grupo 949084">
                <g id="Grupo_949083" data-name="Grupo 949083">
                  <path id="Trazado_684218" data-name="Trazado 684218" d="M921.526,113.4a4.87,4.87,0,0,0,5.505-4.134,4.793,4.793,0,0,0-.38-2.665c3.987-.469,3.9-2.886,3.9-2.886-.62,1.035-5.274.43-7.2.136h-.013c-.235-.043-.432-.071-.572-.1l-.024-.006a1.689,1.689,0,0,0-.231-.017,4.862,4.862,0,0,0-.987,9.667Z" transform="translate(-917.343 -103.719)" fill="#32324c"/>
                </g>
              </g>
            </g>
            <path id="Trazado_684219" data-name="Trazado 684219" d="M917.771,98.019s-1.9,33.279-17.421,46.715c0,0-1.335-8.827-13.415-7.5,0,0-1.14-2.065-2.914-12.076s4.6-51.335,50.424-48.674c0,0,14.575-2.957,34.974,14.486s8.313,36.521,8.313,36.521S943.7,122.788,917.771,98.019Z" transform="translate(-878.947 -76.291)" fill="#32324c"/>
            <circle id="Elipse_5280" data-name="Elipse 5280" cx="3.816" cy="3.816" r="3.816" transform="translate(12.127 90.403)" fill="#fff"/>
          </g>
        </g>
      </g>
    </g>
    <g id="Grupo_948970" data-name="Grupo 948970" transform="translate(-1299.303 -4710.869)">
      <rect id="Rectángulo_335418" data-name="Rectángulo 335418" width="269.067" height="101.22" rx="13.129" transform="translate(448.236 186.387)" fill="#fff"/>
      <path id="Trazado_639247" data-name="Trazado 639247" d="M450.105,258.388s-6.546,17.249-15.789,24.359c0,0,21.243-.262,27.838-7.364A109.273,109.273,0,0,1,450.105,258.388Z" transform="translate(0 4.86)" fill="#fff"/>
    </g>
    <path id="Trazado_702399" data-name="Trazado 702399" d="M7.727,13.32H2.078A2.992,2.992,0,0,0,2.8,15.383a2.478,2.478,0,0,0,1.891.727,3.931,3.931,0,0,0,2.484-.891v1.2a4.643,4.643,0,0,1-2.789.766A3.381,3.381,0,0,1,1.719,16.1,4.461,4.461,0,0,1,.75,13.031,4.375,4.375,0,0,1,1.809,9.988,3.394,3.394,0,0,1,4.438,8.813a3.008,3.008,0,0,1,2.43,1.016,4.234,4.234,0,0,1,.859,2.82ZM6.414,12.234a2.607,2.607,0,0,0-.535-1.727,1.823,1.823,0,0,0-1.465-.617,2.07,2.07,0,0,0-1.539.648,2.943,2.943,0,0,0-.781,1.7ZM16.3,17H15.023V12.438q0-2.547-1.859-2.547a2.017,2.017,0,0,0-1.59.723,2.679,2.679,0,0,0-.629,1.824V17H9.664V9h1.281v1.328h.031A2.887,2.887,0,0,1,13.6,8.813a2.448,2.448,0,0,1,2.008.848,3.776,3.776,0,0,1,.7,2.449Zm6.125-.078a2.47,2.47,0,0,1-1.2.25q-2.1,0-2.1-2.344V10.094H17.758V9h1.375V7.047l1.281-.414V9H22.43v1.094H20.414V14.6a1.869,1.869,0,0,0,.273,1.148,1.091,1.091,0,0,0,.906.344,1.347,1.347,0,0,0,.836-.266Zm5.055.266a3.711,3.711,0,0,1-2.832-1.121,4.153,4.153,0,0,1-1.059-2.973,4.326,4.326,0,0,1,1.1-3.148,3.96,3.96,0,0,1,2.977-1.133,3.588,3.588,0,0,1,2.793,1.1,4.368,4.368,0,0,1,1,3.055,4.3,4.3,0,0,1-1.082,3.066A3.791,3.791,0,0,1,27.484,17.188Zm.094-7.3a2.437,2.437,0,0,0-1.953.84,3.449,3.449,0,0,0-.719,2.316,3.262,3.262,0,0,0,.727,2.242,2.469,2.469,0,0,0,1.945.82,2.342,2.342,0,0,0,1.91-.8,3.492,3.492,0,0,0,.668-2.289,3.552,3.552,0,0,0-.668-2.312A2.332,2.332,0,0,0,27.578,9.891ZM40.156,17H38.875V12.438q0-2.547-1.859-2.547a2.017,2.017,0,0,0-1.59.723,2.679,2.679,0,0,0-.629,1.824V17H33.516V9H34.8v1.328h.031a2.887,2.887,0,0,1,2.625-1.516,2.448,2.448,0,0,1,2.008.848,3.776,3.776,0,0,1,.7,2.449Zm7.867-.367a4.163,4.163,0,0,1-2.187.555,3.622,3.622,0,0,1-2.762-1.113,4.035,4.035,0,0,1-1.051-2.887,4.435,4.435,0,0,1,1.133-3.176,3.963,3.963,0,0,1,3.023-1.2,4.209,4.209,0,0,1,1.859.391v1.313a3.258,3.258,0,0,0-1.906-.625,2.576,2.576,0,0,0-2.012.879,3.335,3.335,0,0,0-.785,2.309,3.176,3.176,0,0,0,.738,2.219,2.545,2.545,0,0,0,1.98.813,3.211,3.211,0,0,0,1.969-.7Zm8.367-3.312H50.742a2.992,2.992,0,0,0,.719,2.063,2.478,2.478,0,0,0,1.891.727,3.931,3.931,0,0,0,2.484-.891v1.2a4.643,4.643,0,0,1-2.789.766,3.381,3.381,0,0,1-2.664-1.09,4.461,4.461,0,0,1-.969-3.066,4.375,4.375,0,0,1,1.059-3.043A3.394,3.394,0,0,1,53.1,8.813a3.008,3.008,0,0,1,2.43,1.016,4.234,4.234,0,0,1,.859,2.82Zm-1.312-1.086a2.607,2.607,0,0,0-.535-1.727,1.823,1.823,0,0,0-1.465-.617,2.07,2.07,0,0,0-1.539.648,2.943,2.943,0,0,0-.781,1.7Zm2.766,4.477V15.336a3.792,3.792,0,0,0,2.3.773q1.688,0,1.688-1.125a.976.976,0,0,0-.145-.543,1.44,1.44,0,0,0-.391-.395,3.007,3.007,0,0,0-.578-.309q-.332-.137-.715-.285a9.207,9.207,0,0,1-.934-.426,2.82,2.82,0,0,1-.672-.484A1.8,1.8,0,0,1,58,11.93a2.17,2.17,0,0,1-.137-.8,1.912,1.912,0,0,1,.258-1A2.286,2.286,0,0,1,58.8,9.4a3.206,3.206,0,0,1,.98-.441,4.349,4.349,0,0,1,1.137-.148,4.59,4.59,0,0,1,1.859.359v1.3a3.624,3.624,0,0,0-2.031-.578,2.374,2.374,0,0,0-.648.082,1.587,1.587,0,0,0-.5.23,1.065,1.065,0,0,0-.32.355.936.936,0,0,0-.113.457,1.1,1.1,0,0,0,.113.523,1.152,1.152,0,0,0,.332.375,2.538,2.538,0,0,0,.531.3q.312.133.711.289a9.894,9.894,0,0,1,.953.418,3.269,3.269,0,0,1,.719.484,1.893,1.893,0,0,1,.457.621,2,2,0,0,1,.16.836,1.971,1.971,0,0,1-.262,1.031,2.243,2.243,0,0,1-.7.727,3.2,3.2,0,0,1-1.008.43,4.976,4.976,0,0,1-1.2.141A4.539,4.539,0,0,1,57.844,16.711Zm8.445-1.492-1.25,3.844h-.914l.914-3.844ZM79.8,20.68H78.516V15.625h-.031a2.867,2.867,0,0,1-2.734,1.563,3.011,3.011,0,0,1-2.418-1.074,4.381,4.381,0,0,1-.91-2.926,4.791,4.791,0,0,1,1-3.184,3.328,3.328,0,0,1,2.688-1.191,2.523,2.523,0,0,1,2.375,1.3h.031V9H79.8ZM78.516,13.4V12.234a2.328,2.328,0,0,0-.645-1.664,2.158,2.158,0,0,0-1.637-.68,2.2,2.2,0,0,0-1.828.855,3.819,3.819,0,0,0-.672,2.41,3.308,3.308,0,0,0,.648,2.168,2.069,2.069,0,0,0,1.672.785,2.254,2.254,0,0,0,1.793-.77A2.855,2.855,0,0,0,78.516,13.4ZM88.859,17H87.578V15.734h-.031a2.631,2.631,0,0,1-2.469,1.453q-2.859,0-2.859-3.406V9h1.273v4.578q0,2.531,1.938,2.531a1.96,1.96,0,0,0,1.543-.691,2.645,2.645,0,0,0,.605-1.809V9h1.281Zm9.016-3.68H92.227a2.992,2.992,0,0,0,.719,2.063,2.478,2.478,0,0,0,1.891.727,3.931,3.931,0,0,0,2.484-.891v1.2a4.643,4.643,0,0,1-2.789.766,3.381,3.381,0,0,1-2.664-1.09,4.461,4.461,0,0,1-.969-3.066,4.375,4.375,0,0,1,1.059-3.043,3.394,3.394,0,0,1,2.629-1.176,3.008,3.008,0,0,1,2.43,1.016,4.234,4.234,0,0,1,.859,2.82Zm-1.312-1.086a2.607,2.607,0,0,0-.535-1.727,1.823,1.823,0,0,0-1.465-.617,2.07,2.07,0,0,0-1.539.648,2.943,2.943,0,0,0-.781,1.7Zm-.2-7.312L94.313,7.484H93.32l1.742-2.562Zm13.289,11.711a4.163,4.163,0,0,1-2.187.555,3.622,3.622,0,0,1-2.762-1.113,4.035,4.035,0,0,1-1.051-2.887,4.435,4.435,0,0,1,1.133-3.176,3.963,3.963,0,0,1,3.023-1.2,4.209,4.209,0,0,1,1.859.391v1.313a3.258,3.258,0,0,0-1.906-.625,2.576,2.576,0,0,0-2.012.879,3.335,3.335,0,0,0-.785,2.309A3.176,3.176,0,0,0,105.7,15.3a2.545,2.545,0,0,0,1.98.813,3.211,3.211,0,0,0,1.969-.7Zm5.281.555a3.711,3.711,0,0,1-2.832-1.121,4.153,4.153,0,0,1-1.059-2.973,4.326,4.326,0,0,1,1.1-3.148,3.96,3.96,0,0,1,2.977-1.133,3.588,3.588,0,0,1,2.793,1.1,4.368,4.368,0,0,1,1,3.055,4.3,4.3,0,0,1-1.082,3.066A3.791,3.791,0,0,1,114.93,17.188Zm.094-7.3a2.437,2.437,0,0,0-1.953.84,3.449,3.449,0,0,0-.719,2.316,3.262,3.262,0,0,0,.727,2.242,2.469,2.469,0,0,0,1.945.82,2.342,2.342,0,0,0,1.91-.8,3.492,3.492,0,0,0,.668-2.289,3.552,3.552,0,0,0-.668-2.312A2.332,2.332,0,0,0,115.023,9.891Zm5.453,6.82V15.336a3.792,3.792,0,0,0,2.3.773q1.688,0,1.688-1.125a.976.976,0,0,0-.145-.543,1.44,1.44,0,0,0-.391-.395,3.007,3.007,0,0,0-.578-.309q-.332-.137-.715-.285a9.207,9.207,0,0,1-.934-.426,2.82,2.82,0,0,1-.672-.484,1.8,1.8,0,0,1-.406-.613,2.17,2.17,0,0,1-.137-.8,1.912,1.912,0,0,1,.258-1,2.286,2.286,0,0,1,.688-.727,3.206,3.206,0,0,1,.98-.441,4.349,4.349,0,0,1,1.137-.148,4.59,4.59,0,0,1,1.859.359v1.3a3.624,3.624,0,0,0-2.031-.578,2.374,2.374,0,0,0-.648.082,1.587,1.587,0,0,0-.5.23,1.065,1.065,0,0,0-.32.355.936.936,0,0,0-.113.457,1.1,1.1,0,0,0,.113.523,1.152,1.152,0,0,0,.332.375,2.538,2.538,0,0,0,.531.3q.313.133.711.289a9.9,9.9,0,0,1,.953.418,3.269,3.269,0,0,1,.719.484,1.893,1.893,0,0,1,.457.621,2,2,0,0,1,.16.836,1.971,1.971,0,0,1-.262,1.031,2.243,2.243,0,0,1-.7.727,3.2,3.2,0,0,1-1.008.43,4.976,4.976,0,0,1-1.2.141A4.539,4.539,0,0,1,120.477,16.711Zm13,.289H132.2V15.75h-.031a2.682,2.682,0,0,1-2.461,1.438,2.63,2.63,0,0,1-1.871-.633,2.192,2.192,0,0,1-.676-1.68q0-2.242,2.641-2.609l2.4-.336q0-2.039-1.648-2.039a3.938,3.938,0,0,0-2.609.984V9.563a4.958,4.958,0,0,1,2.719-.75q2.82,0,2.82,2.984ZM132.2,12.953l-1.93.266a3.133,3.133,0,0,0-1.344.441,1.273,1.273,0,0,0-.453,1.121,1.221,1.221,0,0,0,.418.957,1.615,1.615,0,0,0,1.113.371,2.056,2.056,0,0,0,1.574-.668,2.387,2.387,0,0,0,.621-1.691Zm3.211,3.758V15.336a3.792,3.792,0,0,0,2.3.773q1.688,0,1.688-1.125a.976.976,0,0,0-.145-.543,1.44,1.44,0,0,0-.391-.395,3.007,3.007,0,0,0-.578-.309q-.332-.137-.715-.285a9.207,9.207,0,0,1-.934-.426,2.82,2.82,0,0,1-.672-.484,1.8,1.8,0,0,1-.406-.613,2.17,2.17,0,0,1-.137-.8,1.912,1.912,0,0,1,.258-1,2.286,2.286,0,0,1,.688-.727,3.206,3.206,0,0,1,.98-.441,4.349,4.349,0,0,1,1.137-.148,4.59,4.59,0,0,1,1.859.359v1.3a3.624,3.624,0,0,0-2.031-.578,2.374,2.374,0,0,0-.648.082,1.587,1.587,0,0,0-.5.23,1.065,1.065,0,0,0-.32.355.936.936,0,0,0-.113.457,1.1,1.1,0,0,0,.113.523,1.152,1.152,0,0,0,.332.375,2.538,2.538,0,0,0,.531.3q.312.133.711.289a9.894,9.894,0,0,1,.953.418,3.269,3.269,0,0,1,.719.484,1.893,1.893,0,0,1,.457.621,2,2,0,0,1,.16.836,1.971,1.971,0,0,1-.262,1.031,2.243,2.243,0,0,1-.7.727,3.2,3.2,0,0,1-1.008.43,4.976,4.976,0,0,1-1.2.141A4.539,4.539,0,0,1,135.406,16.711ZM153.891,17h-1.281V15.641h-.031a2.958,2.958,0,0,1-2.75,1.547,2.988,2.988,0,0,1-2.41-1.074,4.407,4.407,0,0,1-.9-2.926,4.794,4.794,0,0,1,1-3.18,3.3,3.3,0,0,1,2.664-1.2,2.564,2.564,0,0,1,2.4,1.3h.031V5.156h1.281Zm-1.281-3.617V12.2a2.289,2.289,0,0,0-.641-1.641,2.149,2.149,0,0,0-1.625-.672,2.212,2.212,0,0,0-1.844.859,3.766,3.766,0,0,0-.672,2.375,3.387,3.387,0,0,0,.645,2.184,2.107,2.107,0,0,0,1.73.8,2.188,2.188,0,0,0,1.738-.773A2.882,2.882,0,0,0,152.609,13.383Zm10.3-.062h-5.648a2.992,2.992,0,0,0,.719,2.063,2.478,2.478,0,0,0,1.891.727,3.931,3.931,0,0,0,2.484-.891v1.2a4.643,4.643,0,0,1-2.789.766,3.381,3.381,0,0,1-2.664-1.09,4.461,4.461,0,0,1-.969-3.066A4.374,4.374,0,0,1,157,9.988a3.394,3.394,0,0,1,2.629-1.176,3.008,3.008,0,0,1,2.43,1.016,4.234,4.234,0,0,1,.859,2.82ZM161.6,12.234a2.607,2.607,0,0,0-.535-1.727,1.823,1.823,0,0,0-1.465-.617,2.07,2.07,0,0,0-1.539.648,2.943,2.943,0,0,0-.781,1.7Zm4.563,3.609h-.031V17h-1.281V5.156h1.281v5.25h.031a3.03,3.03,0,0,1,2.766-1.594,2.932,2.932,0,0,1,2.41,1.074,4.436,4.436,0,0,1,.871,2.879,4.958,4.958,0,0,1-.977,3.215,3.251,3.251,0,0,1-2.672,1.207A2.631,2.631,0,0,1,166.164,15.844Zm-.031-3.227v1.117a2.379,2.379,0,0,0,.645,1.684,2.3,2.3,0,0,0,3.461-.2,4.086,4.086,0,0,0,.66-2.477,3.225,3.225,0,0,0-.617-2.094,2.043,2.043,0,0,0-1.672-.758,2.27,2.27,0,0,0-1.8.777A2.854,2.854,0,0,0,166.133,12.617Zm14.555.7h-5.648a2.992,2.992,0,0,0,.719,2.063,2.478,2.478,0,0,0,1.891.727,3.931,3.931,0,0,0,2.484-.891v1.2a4.643,4.643,0,0,1-2.789.766,3.381,3.381,0,0,1-2.664-1.09,4.461,4.461,0,0,1-.969-3.066,4.374,4.374,0,0,1,1.059-3.043A3.394,3.394,0,0,1,177.4,8.813a3.008,3.008,0,0,1,2.43,1.016,4.234,4.234,0,0,1,.859,2.82Zm-1.312-1.086a2.607,2.607,0,0,0-.535-1.727,1.823,1.823,0,0,0-1.465-.617,2.07,2.07,0,0,0-1.539.648,2.943,2.943,0,0,0-.781,1.7ZM193.984,17H192.7V12.406a3.466,3.466,0,0,0-.41-1.922,1.555,1.555,0,0,0-1.379-.594,1.708,1.708,0,0,0-1.395.75,2.869,2.869,0,0,0-.574,1.8V17h-1.281V12.25q0-2.359-1.82-2.359a1.686,1.686,0,0,0-1.391.707,2.923,2.923,0,0,0-.547,1.84V17h-1.281V9h1.281v1.266h.031a2.718,2.718,0,0,1,2.484-1.453,2.311,2.311,0,0,1,2.266,1.656,2.855,2.855,0,0,1,2.656-1.656q2.641,0,2.641,3.258Zm5.766.188a3.711,3.711,0,0,1-2.832-1.121,4.153,4.153,0,0,1-1.059-2.973,4.326,4.326,0,0,1,1.1-3.148,3.96,3.96,0,0,1,2.977-1.133,3.588,3.588,0,0,1,2.793,1.1,4.368,4.368,0,0,1,1,3.055,4.3,4.3,0,0,1-1.082,3.066A3.791,3.791,0,0,1,199.75,17.188Zm.094-7.3a2.437,2.437,0,0,0-1.953.84,3.449,3.449,0,0,0-.719,2.316,3.262,3.262,0,0,0,.727,2.242,2.469,2.469,0,0,0,1.945.82,2.342,2.342,0,0,0,1.91-.8,3.492,3.492,0,0,0,.668-2.289,3.552,3.552,0,0,0-.668-2.312A2.332,2.332,0,0,0,199.844,9.891Zm5.453,6.82V15.336a3.792,3.792,0,0,0,2.3.773q1.688,0,1.688-1.125a.976.976,0,0,0-.145-.543,1.44,1.44,0,0,0-.391-.395,3.007,3.007,0,0,0-.578-.309q-.332-.137-.715-.285a9.207,9.207,0,0,1-.934-.426,2.82,2.82,0,0,1-.672-.484,1.8,1.8,0,0,1-.406-.613,2.17,2.17,0,0,1-.137-.8,1.912,1.912,0,0,1,.258-1,2.286,2.286,0,0,1,.688-.727,3.206,3.206,0,0,1,.98-.441,4.349,4.349,0,0,1,1.137-.148,4.59,4.59,0,0,1,1.859.359v1.3a3.624,3.624,0,0,0-2.031-.578,2.374,2.374,0,0,0-.648.082,1.587,1.587,0,0,0-.5.23,1.065,1.065,0,0,0-.32.355.936.936,0,0,0-.113.457,1.1,1.1,0,0,0,.113.523,1.152,1.152,0,0,0,.332.375,2.538,2.538,0,0,0,.531.3q.312.133.711.289a9.894,9.894,0,0,1,.953.418,3.269,3.269,0,0,1,.719.484,1.893,1.893,0,0,1,.457.621,2,2,0,0,1,.16.836,1.971,1.971,0,0,1-.262,1.031,2.243,2.243,0,0,1-.7.727,3.2,3.2,0,0,1-1.008.43,4.976,4.976,0,0,1-1.2.141A4.539,4.539,0,0,1,205.3,16.711ZM5.008,40.922a2.47,2.47,0,0,1-1.2.25q-2.1,0-2.1-2.344V34.094H.336V33H1.711V31.047l1.281-.414V33H5.008v1.094H2.992V38.6a1.869,1.869,0,0,0,.273,1.148,1.091,1.091,0,0,0,.906.344,1.347,1.347,0,0,0,.836-.266Zm8.141-3.6H7.5a2.992,2.992,0,0,0,.719,2.063,2.478,2.478,0,0,0,1.891.727,3.931,3.931,0,0,0,2.484-.891v1.2a4.643,4.643,0,0,1-2.789.766A3.381,3.381,0,0,1,7.141,40.1a4.461,4.461,0,0,1-.969-3.066A4.375,4.375,0,0,1,7.23,33.988a3.394,3.394,0,0,1,2.629-1.176,3.008,3.008,0,0,1,2.43,1.016,4.234,4.234,0,0,1,.859,2.82Zm-1.312-1.086a2.607,2.607,0,0,0-.535-1.727,1.823,1.823,0,0,0-1.465-.617,2.07,2.07,0,0,0-1.539.648,2.943,2.943,0,0,0-.781,1.7ZM21.727,41H20.445V36.438q0-2.547-1.859-2.547a2.017,2.017,0,0,0-1.59.723,2.679,2.679,0,0,0-.629,1.824V41H15.086V33h1.281v1.328H16.4a2.887,2.887,0,0,1,2.625-1.516,2.448,2.448,0,0,1,2.008.848,3.776,3.776,0,0,1,.7,2.449Zm8.844-3.68H24.922a2.992,2.992,0,0,0,.719,2.063,2.478,2.478,0,0,0,1.891.727,3.931,3.931,0,0,0,2.484-.891v1.2a4.643,4.643,0,0,1-2.789.766,3.381,3.381,0,0,1-2.664-1.09,4.461,4.461,0,0,1-.969-3.066,4.375,4.375,0,0,1,1.059-3.043,3.394,3.394,0,0,1,2.629-1.176,3.008,3.008,0,0,1,2.43,1.016,4.234,4.234,0,0,1,.859,2.82Zm-1.312-1.086a2.607,2.607,0,0,0-.535-1.727,1.823,1.823,0,0,0-1.465-.617,2.07,2.07,0,0,0-1.539.648,2.943,2.943,0,0,0-.781,1.7ZM36.68,34.3a1.567,1.567,0,0,0-.969-.258,1.635,1.635,0,0,0-1.371.773,3.576,3.576,0,0,0-.551,2.109V41H32.508V33h1.281v1.648h.031a2.794,2.794,0,0,1,.836-1.316,1.906,1.906,0,0,1,1.258-.473,2.092,2.092,0,0,1,.766.109Zm12.2,3.023H43.234a2.992,2.992,0,0,0,.719,2.063,2.478,2.478,0,0,0,1.891.727,3.931,3.931,0,0,0,2.484-.891v1.2a4.643,4.643,0,0,1-2.789.766,3.381,3.381,0,0,1-2.664-1.09,4.461,4.461,0,0,1-.969-3.066,4.375,4.375,0,0,1,1.059-3.043,3.394,3.394,0,0,1,2.629-1.176,3.008,3.008,0,0,1,2.43,1.016,4.234,4.234,0,0,1,.859,2.82ZM47.57,36.234a2.607,2.607,0,0,0-.535-1.727,1.823,1.823,0,0,0-1.465-.617,2.07,2.07,0,0,0-1.539.648,2.943,2.943,0,0,0-.781,1.7ZM57.461,41H56.18V36.438q0-2.547-1.859-2.547a2.017,2.017,0,0,0-1.59.723,2.679,2.679,0,0,0-.629,1.824V41H50.82V33H52.1v1.328h.031a2.887,2.887,0,0,1,2.625-1.516,2.448,2.448,0,0,1,2.008.848,3.776,3.776,0,0,1,.7,2.449Zm12.25-.367a4.163,4.163,0,0,1-2.187.555,3.622,3.622,0,0,1-2.762-1.113,4.035,4.035,0,0,1-1.051-2.887,4.435,4.435,0,0,1,1.133-3.176,3.963,3.963,0,0,1,3.023-1.2,4.209,4.209,0,0,1,1.859.391v1.313a3.258,3.258,0,0,0-1.906-.625,2.576,2.576,0,0,0-2.012.879,3.335,3.335,0,0,0-.785,2.309,3.176,3.176,0,0,0,.738,2.219,2.545,2.545,0,0,0,1.98.813,3.211,3.211,0,0,0,1.969-.7ZM78.117,41H76.836V39.734H76.8a2.631,2.631,0,0,1-2.469,1.453q-2.859,0-2.859-3.406V33H72.75v4.578q0,2.531,1.938,2.531a1.96,1.96,0,0,0,1.543-.691,2.645,2.645,0,0,0,.605-1.809V33h1.281Zm9.016-3.68H81.484a2.992,2.992,0,0,0,.719,2.063,2.478,2.478,0,0,0,1.891.727,3.931,3.931,0,0,0,2.484-.891v1.2a4.643,4.643,0,0,1-2.789.766,3.381,3.381,0,0,1-2.664-1.09,4.461,4.461,0,0,1-.969-3.066,4.375,4.375,0,0,1,1.059-3.043,3.394,3.394,0,0,1,2.629-1.176,3.008,3.008,0,0,1,2.43,1.016,4.234,4.234,0,0,1,.859,2.82ZM85.82,36.234a2.607,2.607,0,0,0-.535-1.727,1.823,1.823,0,0,0-1.465-.617,2.07,2.07,0,0,0-1.539.648,2.943,2.943,0,0,0-.781,1.7ZM95.711,41H94.43V36.438q0-2.547-1.859-2.547a2.017,2.017,0,0,0-1.59.723,2.679,2.679,0,0,0-.629,1.824V41H89.07V33h1.281v1.328h.031a2.887,2.887,0,0,1,2.625-1.516,2.448,2.448,0,0,1,2.008.848,3.776,3.776,0,0,1,.7,2.449Zm6.125-.078a2.47,2.47,0,0,1-1.2.25q-2.1,0-2.1-2.344V34.094H97.164V33h1.375V31.047l1.281-.414V33h2.016v1.094H99.82V38.6a1.869,1.869,0,0,0,.273,1.148,1.091,1.091,0,0,0,.906.344,1.347,1.347,0,0,0,.836-.266Zm7.438.078h-1.281V39.75h-.031a2.682,2.682,0,0,1-2.461,1.438,2.63,2.63,0,0,1-1.871-.633,2.192,2.192,0,0,1-.676-1.68q0-2.242,2.641-2.609l2.4-.336q0-2.039-1.648-2.039a3.938,3.938,0,0,0-2.609.984V33.563a4.958,4.958,0,0,1,2.719-.75q2.82,0,2.82,2.984Zm-1.281-4.047-1.93.266a3.133,3.133,0,0,0-1.344.441,1.273,1.273,0,0,0-.453,1.121,1.221,1.221,0,0,0,.418.957,1.615,1.615,0,0,0,1.113.371,2.056,2.056,0,0,0,1.574-.668,2.387,2.387,0,0,0,.621-1.691Zm16.563,4.188a.816.816,0,0,1-.605-.25.836.836,0,0,1-.246-.609.876.876,0,0,1,.246-.621.8.8,0,0,1,.605-.262.815.815,0,0,1,.605.262.862.862,0,0,1,.254.621.823.823,0,0,1-.254.609A.833.833,0,0,1,124.555,41.141Zm-3.922,0a.842.842,0,0,1-.613-.25.823.823,0,0,1-.254-.609.862.862,0,0,1,.254-.621.823.823,0,0,1,.613-.262.815.815,0,0,1,.605.262.862.862,0,0,1,.254.621.823.823,0,0,1-.254.609A.833.833,0,0,1,120.633,41.141Zm-3.922,0a.8.8,0,0,1-.6-.25.843.843,0,0,1-.242-.609.884.884,0,0,1,.242-.621.786.786,0,0,1,.6-.262.815.815,0,0,1,.605.262.862.862,0,0,1,.254.621.854.854,0,0,1-.859.859Zm16.781-1.3h-.031V44.68H132.18V33h1.281v1.406h.031a3.03,3.03,0,0,1,2.766-1.594,2.93,2.93,0,0,1,2.414,1.074,4.449,4.449,0,0,1,.867,2.879,4.958,4.958,0,0,1-.977,3.215,3.251,3.251,0,0,1-2.672,1.207A2.676,2.676,0,0,1,133.492,39.844Zm-.031-3.227v1.117a2.379,2.379,0,0,0,.645,1.684,2.3,2.3,0,0,0,3.461-.2,4.086,4.086,0,0,0,.66-2.477,3.225,3.225,0,0,0-.617-2.094,2.043,2.043,0,0,0-1.672-.758,2.27,2.27,0,0,0-1.8.777A2.854,2.854,0,0,0,133.461,36.617Zm11.469,4.57a3.711,3.711,0,0,1-2.832-1.121,4.153,4.153,0,0,1-1.059-2.973,4.326,4.326,0,0,1,1.1-3.148,3.96,3.96,0,0,1,2.977-1.133,3.588,3.588,0,0,1,2.793,1.1,4.368,4.368,0,0,1,1,3.055,4.3,4.3,0,0,1-1.082,3.066A3.791,3.791,0,0,1,144.93,41.188Zm.094-7.3a2.437,2.437,0,0,0-1.953.84,3.449,3.449,0,0,0-.719,2.316,3.262,3.262,0,0,0,.727,2.242,2.469,2.469,0,0,0,1.945.82,2.342,2.342,0,0,0,1.91-.8,3.492,3.492,0,0,0,.668-2.289,3.552,3.552,0,0,0-.668-2.312A2.332,2.332,0,0,0,145.023,33.891Zm10.109.406a1.567,1.567,0,0,0-.969-.258,1.635,1.635,0,0,0-1.371.773,3.576,3.576,0,0,0-.551,2.109V41h-1.281V33h1.281v1.648h.031a2.794,2.794,0,0,1,.836-1.316,1.906,1.906,0,0,1,1.258-.473,2.092,2.092,0,0,1,.766.109Zm8.219,10.383H162.07V39.625h-.031a2.867,2.867,0,0,1-2.734,1.563,3.011,3.011,0,0,1-2.418-1.074,4.381,4.381,0,0,1-.91-2.926,4.791,4.791,0,0,1,1-3.184,3.328,3.328,0,0,1,2.688-1.191,2.523,2.523,0,0,1,2.375,1.3h.031V33h1.281ZM162.07,37.4V36.234a2.328,2.328,0,0,0-.645-1.664,2.158,2.158,0,0,0-1.637-.68,2.2,2.2,0,0,0-1.828.855,3.819,3.819,0,0,0-.672,2.41,3.307,3.307,0,0,0,.648,2.168,2.069,2.069,0,0,0,1.672.785,2.254,2.254,0,0,0,1.793-.77A2.855,2.855,0,0,0,162.07,37.4ZM172.414,41h-1.281V39.734H171.1a2.631,2.631,0,0,1-2.469,1.453q-2.859,0-2.859-3.406V33h1.273v4.578q0,2.531,1.938,2.531a1.96,1.96,0,0,0,1.543-.691,2.645,2.645,0,0,0,.605-1.809V33h1.281Zm9.016-3.68h-5.648a2.992,2.992,0,0,0,.719,2.063,2.478,2.478,0,0,0,1.891.727,3.931,3.931,0,0,0,2.484-.891v1.2a4.643,4.643,0,0,1-2.789.766,3.381,3.381,0,0,1-2.664-1.09,4.461,4.461,0,0,1-.969-3.066,4.374,4.374,0,0,1,1.059-3.043,3.394,3.394,0,0,1,2.629-1.176,3.008,3.008,0,0,1,2.43,1.016,4.234,4.234,0,0,1,.859,2.82Zm-1.312-1.086a2.607,2.607,0,0,0-.535-1.727,1.823,1.823,0,0,0-1.465-.617,2.07,2.07,0,0,0-1.539.648,2.943,2.943,0,0,0-.781,1.7ZM194.18,37.32h-5.648a2.992,2.992,0,0,0,.719,2.063,2.478,2.478,0,0,0,1.891.727,3.931,3.931,0,0,0,2.484-.891v1.2a4.643,4.643,0,0,1-2.789.766,3.381,3.381,0,0,1-2.664-1.09,4.461,4.461,0,0,1-.969-3.066,4.374,4.374,0,0,1,1.059-3.043,3.394,3.394,0,0,1,2.629-1.176,3.008,3.008,0,0,1,2.43,1.016,4.234,4.234,0,0,1,.859,2.82Zm-1.312-1.086a2.607,2.607,0,0,0-.535-1.727,1.823,1.823,0,0,0-1.465-.617,2.07,2.07,0,0,0-1.539.648,2.943,2.943,0,0,0-.781,1.7Zm2.766,4.477V39.336a3.792,3.792,0,0,0,2.3.773q1.688,0,1.688-1.125a.976.976,0,0,0-.145-.543,1.44,1.44,0,0,0-.391-.395,3.007,3.007,0,0,0-.578-.309q-.332-.137-.715-.285a9.206,9.206,0,0,1-.934-.426,2.82,2.82,0,0,1-.672-.484,1.8,1.8,0,0,1-.406-.613,2.17,2.17,0,0,1-.137-.8,1.912,1.912,0,0,1,.258-1,2.286,2.286,0,0,1,.688-.727,3.206,3.206,0,0,1,.98-.441,4.349,4.349,0,0,1,1.137-.148,4.59,4.59,0,0,1,1.859.359v1.3a3.624,3.624,0,0,0-2.031-.578,2.374,2.374,0,0,0-.648.082,1.587,1.587,0,0,0-.5.23,1.065,1.065,0,0,0-.32.355.936.936,0,0,0-.113.457,1.1,1.1,0,0,0,.113.523,1.152,1.152,0,0,0,.332.375,2.538,2.538,0,0,0,.531.3q.312.133.711.289a9.894,9.894,0,0,1,.953.418,3.269,3.269,0,0,1,.719.484,1.893,1.893,0,0,1,.457.621,2,2,0,0,1,.16.836,1.971,1.971,0,0,1-.262,1.031,2.243,2.243,0,0,1-.7.727,3.2,3.2,0,0,1-1.008.43,4.976,4.976,0,0,1-1.2.141A4.539,4.539,0,0,1,195.633,40.711ZM213.016,41h-1.281V39.75H211.7a2.682,2.682,0,0,1-2.461,1.438,2.63,2.63,0,0,1-1.871-.633,2.192,2.192,0,0,1-.676-1.68q0-2.242,2.641-2.609l2.4-.336q0-2.039-1.648-2.039a3.938,3.938,0,0,0-2.609.984V33.563a4.958,4.958,0,0,1,2.719-.75q2.82,0,2.82,2.984Zm-1.281-4.047-1.93.266a3.133,3.133,0,0,0-1.344.441,1.273,1.273,0,0,0-.453,1.121,1.221,1.221,0,0,0,.418.957,1.615,1.615,0,0,0,1.113.371,2.056,2.056,0,0,0,1.574-.668,2.387,2.387,0,0,0,.621-1.691ZM216.711,41H215.43V29.156h1.281Zm9.422-.641q0,4.406-4.219,4.406a5.664,5.664,0,0,1-2.594-.562V42.922a5.327,5.327,0,0,0,2.578.75q2.953,0,2.953-3.141v-.875h-.031a3.237,3.237,0,0,1-5.152.465,4.263,4.263,0,0,1-.91-2.863,4.981,4.981,0,0,1,.98-3.242,3.275,3.275,0,0,1,2.684-1.2,2.608,2.608,0,0,1,2.4,1.3h.031V33h1.281Zm-1.281-2.977V36.2a2.289,2.289,0,0,0-.645-1.633,2.122,2.122,0,0,0-1.605-.68,2.225,2.225,0,0,0-1.859.863,3.853,3.853,0,0,0-.672,2.418,3.308,3.308,0,0,0,.645,2.137,2.082,2.082,0,0,0,1.707.8,2.23,2.23,0,0,0,1.754-.766A2.854,2.854,0,0,0,224.852,37.383Zm7.219,3.8a3.711,3.711,0,0,1-2.832-1.121,4.153,4.153,0,0,1-1.059-2.973,4.326,4.326,0,0,1,1.1-3.148,3.96,3.96,0,0,1,2.977-1.133,3.588,3.588,0,0,1,2.793,1.1,4.368,4.368,0,0,1,1,3.055,4.3,4.3,0,0,1-1.082,3.066A3.791,3.791,0,0,1,232.07,41.188Zm.094-7.3a2.437,2.437,0,0,0-1.953.84,3.449,3.449,0,0,0-.719,2.316,3.262,3.262,0,0,0,.727,2.242,2.469,2.469,0,0,0,1.945.82,2.342,2.342,0,0,0,1.91-.8,3.492,3.492,0,0,0,.668-2.289,3.552,3.552,0,0,0-.668-2.312A2.332,2.332,0,0,0,232.164,33.891ZM8.125,68.68H6.844V63.625H6.813a2.867,2.867,0,0,1-2.734,1.563A3.011,3.011,0,0,1,1.66,64.113a4.381,4.381,0,0,1-.91-2.926A4.791,4.791,0,0,1,1.75,58a3.328,3.328,0,0,1,2.688-1.191,2.523,2.523,0,0,1,2.375,1.3h.031V57H8.125ZM6.844,61.4V60.234A2.328,2.328,0,0,0,6.2,58.57a2.158,2.158,0,0,0-1.637-.68,2.2,2.2,0,0,0-1.828.855,3.819,3.819,0,0,0-.672,2.41,3.307,3.307,0,0,0,.648,2.168,2.069,2.069,0,0,0,1.672.785,2.254,2.254,0,0,0,1.793-.77A2.855,2.855,0,0,0,6.844,61.4ZM17.188,65H15.906V63.734h-.031a2.631,2.631,0,0,1-2.469,1.453q-2.859,0-2.859-3.406V57H11.82v4.578q0,2.531,1.938,2.531a1.96,1.96,0,0,0,1.543-.691,2.645,2.645,0,0,0,.605-1.809V57h1.281ZM26.2,61.32H20.555a2.992,2.992,0,0,0,.719,2.063,2.478,2.478,0,0,0,1.891.727,3.931,3.931,0,0,0,2.484-.891v1.2a4.643,4.643,0,0,1-2.789.766A3.381,3.381,0,0,1,20.2,64.1a4.461,4.461,0,0,1-.969-3.066,4.375,4.375,0,0,1,1.059-3.043,3.394,3.394,0,0,1,2.629-1.176,3.008,3.008,0,0,1,2.43,1.016,4.234,4.234,0,0,1,.859,2.82Zm-1.312-1.086a2.607,2.607,0,0,0-.535-1.727,1.823,1.823,0,0,0-1.465-.617,2.07,2.07,0,0,0-1.539.648,2.943,2.943,0,0,0-.781,1.7ZM39.352,65H38.07V63.641h-.031a2.958,2.958,0,0,1-2.75,1.547,2.988,2.988,0,0,1-2.41-1.074,4.407,4.407,0,0,1-.9-2.926,4.794,4.794,0,0,1,1-3.18,3.3,3.3,0,0,1,2.664-1.2,2.564,2.564,0,0,1,2.4,1.3h.031V53.156h1.281ZM38.07,61.383V60.2a2.289,2.289,0,0,0-.641-1.641,2.149,2.149,0,0,0-1.625-.672,2.212,2.212,0,0,0-1.844.859,3.766,3.766,0,0,0-.672,2.375,3.387,3.387,0,0,0,.645,2.184,2.107,2.107,0,0,0,1.73.8,2.188,2.188,0,0,0,1.738-.773A2.882,2.882,0,0,0,38.07,61.383Zm10.3-.062H42.727a2.992,2.992,0,0,0,.719,2.063,2.478,2.478,0,0,0,1.891.727,3.931,3.931,0,0,0,2.484-.891v1.2a4.643,4.643,0,0,1-2.789.766,3.381,3.381,0,0,1-2.664-1.09,4.461,4.461,0,0,1-.969-3.066,4.375,4.375,0,0,1,1.059-3.043,3.394,3.394,0,0,1,2.629-1.176,3.008,3.008,0,0,1,2.43,1.016,4.234,4.234,0,0,1,.859,2.82Zm-1.312-1.086a2.607,2.607,0,0,0-.535-1.727,1.823,1.823,0,0,0-1.465-.617,2.07,2.07,0,0,0-1.539.648,2.943,2.943,0,0,0-.781,1.7Zm4.563,3.609h-.031V65H50.313V53.156h1.281v5.25h.031a3.03,3.03,0,0,1,2.766-1.594,2.932,2.932,0,0,1,2.41,1.074,4.436,4.436,0,0,1,.871,2.879A4.959,4.959,0,0,1,56.7,63.98a3.251,3.251,0,0,1-2.672,1.207A2.631,2.631,0,0,1,51.625,63.844Zm-.031-3.227v1.117a2.379,2.379,0,0,0,.645,1.684,2.3,2.3,0,0,0,3.461-.2,4.086,4.086,0,0,0,.66-2.477,3.225,3.225,0,0,0-.617-2.094,2.043,2.043,0,0,0-1.672-.758,2.27,2.27,0,0,0-1.8.777A2.854,2.854,0,0,0,51.594,60.617Zm14.555.7H60.5a2.992,2.992,0,0,0,.719,2.063,2.478,2.478,0,0,0,1.891.727,3.931,3.931,0,0,0,2.484-.891v1.2a4.643,4.643,0,0,1-2.789.766,3.381,3.381,0,0,1-2.664-1.09,4.461,4.461,0,0,1-.969-3.066,4.375,4.375,0,0,1,1.059-3.043,3.394,3.394,0,0,1,2.629-1.176,3.008,3.008,0,0,1,2.43,1.016,4.234,4.234,0,0,1,.859,2.82Zm-1.312-1.086a2.607,2.607,0,0,0-.535-1.727,1.823,1.823,0,0,0-1.465-.617,2.07,2.07,0,0,0-1.539.648,2.943,2.943,0,0,0-.781,1.7ZM79.445,65H78.164V60.406a3.466,3.466,0,0,0-.41-1.922,1.555,1.555,0,0,0-1.379-.594,1.708,1.708,0,0,0-1.395.75,2.869,2.869,0,0,0-.574,1.8V65H73.125V60.25q0-2.359-1.82-2.359a1.686,1.686,0,0,0-1.391.707,2.923,2.923,0,0,0-.547,1.84V65H68.086V57h1.281v1.266H69.4a2.718,2.718,0,0,1,2.484-1.453,2.311,2.311,0,0,1,2.266,1.656A2.855,2.855,0,0,1,76.8,56.813q2.641,0,2.641,3.258Zm5.766.188a3.711,3.711,0,0,1-2.832-1.121,4.153,4.153,0,0,1-1.059-2.973,4.326,4.326,0,0,1,1.1-3.148A3.96,3.96,0,0,1,85.4,56.813a3.588,3.588,0,0,1,2.793,1.1,4.368,4.368,0,0,1,1,3.055,4.3,4.3,0,0,1-1.082,3.066A3.791,3.791,0,0,1,85.211,65.188Zm.094-7.3a2.437,2.437,0,0,0-1.953.84,3.449,3.449,0,0,0-.719,2.316,3.262,3.262,0,0,0,.727,2.242,2.469,2.469,0,0,0,1.945.82,2.342,2.342,0,0,0,1.91-.8,3.492,3.492,0,0,0,.668-2.289,3.552,3.552,0,0,0-.668-2.312A2.332,2.332,0,0,0,85.3,57.891Zm5.453,6.82V63.336a3.792,3.792,0,0,0,2.3.773q1.688,0,1.688-1.125a.976.976,0,0,0-.145-.543,1.44,1.44,0,0,0-.391-.395,3.007,3.007,0,0,0-.578-.309q-.332-.137-.715-.285a9.206,9.206,0,0,1-.934-.426,2.82,2.82,0,0,1-.672-.484,1.8,1.8,0,0,1-.406-.613,2.17,2.17,0,0,1-.137-.8,1.912,1.912,0,0,1,.258-1,2.286,2.286,0,0,1,.688-.727,3.206,3.206,0,0,1,.98-.441,4.349,4.349,0,0,1,1.137-.148,4.59,4.59,0,0,1,1.859.359v1.3a3.624,3.624,0,0,0-2.031-.578,2.374,2.374,0,0,0-.648.082,1.587,1.587,0,0,0-.5.23,1.065,1.065,0,0,0-.32.355.936.936,0,0,0-.113.457,1.1,1.1,0,0,0,.113.523,1.152,1.152,0,0,0,.332.375,2.538,2.538,0,0,0,.531.3q.313.133.711.289a9.9,9.9,0,0,1,.953.418,3.269,3.269,0,0,1,.719.484,1.893,1.893,0,0,1,.457.621,2,2,0,0,1,.16.836,1.971,1.971,0,0,1-.262,1.031,2.243,2.243,0,0,1-.7.727,3.2,3.2,0,0,1-1.008.43,4.976,4.976,0,0,1-1.2.141A4.539,4.539,0,0,1,90.758,64.711Zm12.313-9.742a.812.812,0,0,1-.586-.234.791.791,0,0,1-.242-.594.821.821,0,0,1,.828-.836.827.827,0,0,1,.6.238.835.835,0,0,1,0,1.184A.82.82,0,0,1,103.07,54.969ZM103.7,65h-1.281V57H103.7Zm9.234,0h-1.281V60.438q0-2.547-1.859-2.547a2.017,2.017,0,0,0-1.59.723,2.679,2.679,0,0,0-.629,1.824V65h-1.281V57h1.281v1.328h.031a2.887,2.887,0,0,1,2.625-1.516,2.448,2.448,0,0,1,2.008.848,3.776,3.776,0,0,1,.7,2.449ZM119.3,54.281a1.707,1.707,0,0,0-.852-.211q-1.344,0-1.344,1.7V57h1.875v1.094H117.1V65h-1.273V58.094h-1.367V57h1.367V55.7a2.7,2.7,0,0,1,.727-1.988,2.453,2.453,0,0,1,1.813-.73,2.511,2.511,0,0,1,.93.141Zm4.4,10.906a3.711,3.711,0,0,1-2.832-1.121,4.153,4.153,0,0,1-1.059-2.973,4.326,4.326,0,0,1,1.1-3.148,3.96,3.96,0,0,1,2.977-1.133,3.588,3.588,0,0,1,2.793,1.1,4.368,4.368,0,0,1,1,3.055,4.3,4.3,0,0,1-1.082,3.066A3.791,3.791,0,0,1,123.7,65.188Zm.094-7.3a2.437,2.437,0,0,0-1.953.84,3.449,3.449,0,0,0-.719,2.316,3.262,3.262,0,0,0,.727,2.242,2.469,2.469,0,0,0,1.945.82,2.342,2.342,0,0,0,1.91-.8,3.492,3.492,0,0,0,.668-2.289A3.552,3.552,0,0,0,125.7,58.7,2.332,2.332,0,0,0,123.789,57.891ZM133.9,58.3a1.567,1.567,0,0,0-.969-.258,1.635,1.635,0,0,0-1.371.773,3.576,3.576,0,0,0-.551,2.109V65h-1.281V57h1.281v1.648h.031a2.794,2.794,0,0,1,.836-1.316,1.906,1.906,0,0,1,1.258-.473,2.092,2.092,0,0,1,.766.109Zm12.75,6.7h-1.281V60.406a3.466,3.466,0,0,0-.41-1.922,1.555,1.555,0,0,0-1.379-.594,1.708,1.708,0,0,0-1.395.75,2.869,2.869,0,0,0-.574,1.8V65h-1.281V60.25q0-2.359-1.82-2.359a1.686,1.686,0,0,0-1.391.707,2.923,2.923,0,0,0-.547,1.84V65h-1.281V57h1.281v1.266h.031a2.718,2.718,0,0,1,2.484-1.453,2.311,2.311,0,0,1,2.266,1.656,2.855,2.855,0,0,1,2.656-1.656q2.641,0,2.641,3.258Zm8.148,0h-1.281V63.75h-.031a2.682,2.682,0,0,1-2.461,1.438,2.63,2.63,0,0,1-1.871-.633,2.192,2.192,0,0,1-.676-1.68q0-2.242,2.641-2.609l2.4-.336q0-2.039-1.648-2.039a3.938,3.938,0,0,0-2.609.984V57.563a4.958,4.958,0,0,1,2.719-.75q2.82,0,2.82,2.984Zm-1.281-4.047-1.93.266a3.133,3.133,0,0,0-1.344.441,1.273,1.273,0,0,0-.453,1.121,1.221,1.221,0,0,0,.418.957,1.615,1.615,0,0,0,1.113.371,2.056,2.056,0,0,0,1.574-.668,2.387,2.387,0,0,0,.621-1.691Zm7.867-2.656a1.567,1.567,0,0,0-.969-.258,1.635,1.635,0,0,0-1.371.773,3.576,3.576,0,0,0-.551,2.109V65h-1.281V57h1.281v1.648h.031a2.794,2.794,0,0,1,.836-1.316,1.906,1.906,0,0,1,1.258-.473,2.092,2.092,0,0,1,.766.109Zm11.5,6.7H171.6V63.75h-.031a2.682,2.682,0,0,1-2.461,1.438,2.63,2.63,0,0,1-1.871-.633,2.192,2.192,0,0,1-.676-1.68q0-2.242,2.641-2.609l2.4-.336q0-2.039-1.648-2.039a3.938,3.938,0,0,0-2.609.984V57.563a4.958,4.958,0,0,1,2.719-.75q2.82,0,2.82,2.984ZM171.6,60.953l-1.93.266a3.133,3.133,0,0,0-1.344.441,1.273,1.273,0,0,0-.453,1.121,1.221,1.221,0,0,0,.418.957,1.615,1.615,0,0,0,1.113.371,2.056,2.056,0,0,0,1.574-.668,2.387,2.387,0,0,0,.621-1.691Zm11.789,3.969a2.47,2.47,0,0,1-1.2.25q-2.1,0-2.1-2.344V58.094h-1.375V57h1.375V55.047l1.281-.414V57h2.016v1.094h-2.016V62.6a1.869,1.869,0,0,0,.273,1.148,1.091,1.091,0,0,0,.906.344,1.347,1.347,0,0,0,.836-.266Zm5.055.266a3.711,3.711,0,0,1-2.832-1.121,4.153,4.153,0,0,1-1.059-2.973,4.326,4.326,0,0,1,1.1-3.148,3.96,3.96,0,0,1,2.977-1.133,3.588,3.588,0,0,1,2.793,1.1,4.368,4.368,0,0,1,1,3.055,4.3,4.3,0,0,1-1.082,3.066A3.791,3.791,0,0,1,188.445,65.188Zm.094-7.3a2.437,2.437,0,0,0-1.953.84,3.449,3.449,0,0,0-.719,2.316,3.262,3.262,0,0,0,.727,2.242,2.469,2.469,0,0,0,1.945.82,2.342,2.342,0,0,0,1.91-.8,3.492,3.492,0,0,0,.668-2.289,3.552,3.552,0,0,0-.668-2.312A2.332,2.332,0,0,0,188.539,57.891ZM201.3,65h-1.281V63.641h-.031a2.958,2.958,0,0,1-2.75,1.547,2.988,2.988,0,0,1-2.41-1.074,4.407,4.407,0,0,1-.9-2.926,4.794,4.794,0,0,1,1-3.18,3.3,3.3,0,0,1,2.664-1.2,2.564,2.564,0,0,1,2.4,1.3h.031V53.156H201.3Zm-1.281-3.617V60.2a2.289,2.289,0,0,0-.641-1.641,2.149,2.149,0,0,0-1.625-.672,2.212,2.212,0,0,0-1.844.859,3.766,3.766,0,0,0-.672,2.375,3.387,3.387,0,0,0,.645,2.184,2.107,2.107,0,0,0,1.73.8,2.188,2.188,0,0,0,1.738-.773A2.882,2.882,0,0,0,200.023,61.383Zm7.219,3.8a3.711,3.711,0,0,1-2.832-1.121,4.153,4.153,0,0,1-1.059-2.973,4.326,4.326,0,0,1,1.1-3.148,3.96,3.96,0,0,1,2.977-1.133,3.588,3.588,0,0,1,2.793,1.1,4.368,4.368,0,0,1,1,3.055,4.3,4.3,0,0,1-1.082,3.066A3.791,3.791,0,0,1,207.242,65.188Zm.094-7.3a2.437,2.437,0,0,0-1.953.84,3.449,3.449,0,0,0-.719,2.316,3.262,3.262,0,0,0,.727,2.242,2.469,2.469,0,0,0,1.945.82,2.342,2.342,0,0,0,1.91-.8,3.492,3.492,0,0,0,.668-2.289,3.552,3.552,0,0,0-.668-2.312A2.332,2.332,0,0,0,207.336,57.891Zm5.453,6.82V63.336a3.792,3.792,0,0,0,2.3.773q1.688,0,1.688-1.125a.976.976,0,0,0-.145-.543,1.44,1.44,0,0,0-.391-.395,3.007,3.007,0,0,0-.578-.309q-.332-.137-.715-.285a9.206,9.206,0,0,1-.934-.426,2.82,2.82,0,0,1-.672-.484,1.8,1.8,0,0,1-.406-.613,2.17,2.17,0,0,1-.137-.8,1.912,1.912,0,0,1,.258-1,2.286,2.286,0,0,1,.688-.727,3.206,3.206,0,0,1,.98-.441,4.349,4.349,0,0,1,1.137-.148,4.59,4.59,0,0,1,1.859.359v1.3a3.624,3.624,0,0,0-2.031-.578,2.374,2.374,0,0,0-.648.082,1.587,1.587,0,0,0-.5.23,1.065,1.065,0,0,0-.32.355.936.936,0,0,0-.113.457,1.1,1.1,0,0,0,.113.523,1.152,1.152,0,0,0,.332.375,2.538,2.538,0,0,0,.531.3q.312.133.711.289a9.894,9.894,0,0,1,.953.418,3.269,3.269,0,0,1,.719.484,1.893,1.893,0,0,1,.457.621,2,2,0,0,1,.16.836,1.971,1.971,0,0,1-.262,1.031,2.243,2.243,0,0,1-.7.727,3.2,3.2,0,0,1-1.008.43,4.976,4.976,0,0,1-1.2.141A4.539,4.539,0,0,1,212.789,64.711ZM230.172,65h-1.281V63.75h-.031a2.682,2.682,0,0,1-2.461,1.438,2.63,2.63,0,0,1-1.871-.633,2.192,2.192,0,0,1-.676-1.68q0-2.242,2.641-2.609l2.4-.336q0-2.039-1.648-2.039a3.938,3.938,0,0,0-2.609.984V57.563a4.958,4.958,0,0,1,2.719-.75q2.82,0,2.82,2.984Zm-1.281-4.047-1.93.266a3.133,3.133,0,0,0-1.344.441,1.273,1.273,0,0,0-.453,1.121,1.221,1.221,0,0,0,.418.957,1.615,1.615,0,0,0,1.113.371,2.056,2.056,0,0,0,1.574-.668,2.387,2.387,0,0,0,.621-1.691ZM233.867,65h-1.281V53.156h1.281Z" transform="translate(-836.992 -4519.765)" fill="#12263f"/>
  </g>
</svg>
