<svg xmlns="http://www.w3.org/2000/svg" xmlns:xlink="http://www.w3.org/1999/xlink" width="608.193" height="554.092" viewBox="0 0 608.193 554.092">
  <defs>
    <clipPath id="clip-path">
      <rect id="Rectángulo_337580" data-name="Rectángulo 337580" width="450" height="470" transform="translate(1020 6033)" fill="#fff" stroke="#707070" stroke-width="1"/>
    </clipPath>
  </defs>
  <g id="Grupo_963436" data-name="Grupo 963436" transform="translate(564.193 4605.092)">
    <g id="Enmascarar_grupo_927201" data-name="Enmascarar grupo 927201" transform="translate(-1426 -10554)" clip-path="url(#clip-path)">
      <g id="Grupo_948931" data-name="Grupo 948931" transform="translate(-23.684 5962.835)">
        <g id="Grupo_948930" data-name="Grupo 948930" transform="translate(1055.618 127.91)">
          <path id="Trazado_684101" data-name="Trazado 684101" d="M1056.365,577.776c10.771,158.8,211.136,223.159,310.046,98.456,20.2-25.466,25.034-86.881,19.8-119.274-21.1-130.563-88.051-143.9-38.062-226.49S1402.783,97.95,1264.775,99.12s-49.042,221.753-144.11,283.449C1077.183,410.788,1050.755,495.072,1056.365,577.776Z" transform="translate(-1055.618 -99.114)" fill="#32324c" opacity="0.1"/>
          <path id="Trazado_684102" data-name="Trazado 684102" d="M1088.331,260.309a21.054,21.054,0,0,0,23.212-6.674c8.981-10.88,23.308-32.851,19.044-58.42-6.093-36.526-52.382-7.368-56.024,33.689C1072.744,249.431,1080.31,257.436,1088.331,260.309Z" transform="translate(-1035.276 -12.552)" fill="#32324c" opacity="0.1"/>
          <path id="Trazado_684103" data-name="Trazado 684103" d="M1115.47,194.569a10.981,10.981,0,0,0,7.441-10.165c.23-7.355-.878-20.993-10.8-30.176-14.179-13.118-23.956,13.69-12.347,31.787C1105.568,195.062,1111.245,195.946,1115.47,194.569Z" transform="translate(-1013.122 -42.87)" fill="#32324c" opacity="0.1"/>
          <path id="Trazado_684104" data-name="Trazado 684104" d="M1221.9,280.683a10.981,10.981,0,0,0,9.16-8.651c1.559-7.192,2.94-20.8-5.157-31.635-11.568-15.471-26.041,9.125-17.9,29.025C1212.073,279.371,1217.5,281.271,1221.9,280.683Z" transform="translate(-892.186 49.508)" fill="#32324c" opacity="0.1"/>
        </g>
        <ellipse id="Elipse_5277" data-name="Elipse 5277" cx="127.392" cy="19.327" rx="127.392" ry="19.327" transform="translate(1115.772 813.72)" fill="#32324c" opacity="0.1"/>
      </g>
      <g id="Grupo_948969" data-name="Grupo 948969" transform="translate(-193.742 5975.858)">
        <g id="Grupo_948965" data-name="Grupo 948965" transform="translate(1249.742 73.142)">
          <g id="Grupo_948964" data-name="Grupo 948964">
            <g id="Grupo_948932" data-name="Grupo 948932" transform="translate(9.347 757.705)">
              <path id="Trazado_684105" data-name="Trazado 684105" d="M1258.193,456.947h30.444c6.575,0,20.16-11.631,20.16-11.631s3.945,7.888,7.452,11.4,4.49-37.27,4.49-37.27l-19.5,2.923-37.929,22.51-7.251,4.306a4.174,4.174,0,0,0,2.131,7.765Z" transform="translate(-1254.014 -419.442)" fill="#6c3509"/>
              <path id="Trazado_684106" data-name="Trazado 684106" d="M1258.264,444.875c41.559,13.616,57.426-25.433,57.426-25.433h-19.283Z" transform="translate(-1248.966 -419.442)" fill="#fdbd8e"/>
            </g>
            <g id="Grupo_948934" data-name="Grupo 948934" transform="translate(85.456 307.633)">
              <g id="Grupo_948933" data-name="Grupo 948933" transform="translate(121.437 420.179)">
                <path id="Trazado_684107" data-name="Trazado 684107" d="M1350.214,465.873l27.694-12.642c5.982-2.731,13.513-18.955,13.513-18.955s6.864,5.542,11.509,7.275-11.386-35.772-11.386-35.772l-16.526,10.756-25.158,36.227-4.811,6.927a4.177,4.177,0,0,0,5.166,6.183Z" transform="translate(-1344.3 -405.78)" fill="#6c3509"/>
                <path id="Trazado_684108" data-name="Trazado 684108" d="M1346.841,452.763c43.458-4.868,41.684-46.983,41.684-46.983l-17.543,8.008Z" transform="translate(-1341.282 -405.78)" fill="#fdbd8e"/>
              </g>
              <path id="Trazado_684109" data-name="Trazado 684109" d="M1292.051,213.742,1288.8,407.691,1433.752,645l28.823-9.415s-64.29-166.815-69.515-172.139-30.818-43.922-30.818-43.922l-.519-183.532Z" transform="translate(-1288.799 -213.742)" fill="#1f2123"/>
            </g>
            <path id="Trazado_684110" data-name="Trazado 684110" d="M1336.457,213.742s-50.867,177.744-51.921,190.017-13.668,260.055-13.668,260.055l34.113,2.923s38.555-213.89,37.456-248.951c-.289-9.216,58.588-71.108,61.708-119.9,3.177-49.742-10.268-80.634-10.268-80.634Z" transform="translate(-1224.646 93.891)" fill="#2e3032"/>
            <g id="Grupo_948963" data-name="Grupo 948963">
              <g id="Grupo_948946" data-name="Grupo 948946" transform="translate(0 64.114)">
                <g id="Grupo_948945" data-name="Grupo 948945">
                  <g id="Grupo_948942" data-name="Grupo 948942" transform="translate(45.677)">
                    <g id="Grupo_948941" data-name="Grupo 948941">
                      <g id="Grupo_948937" data-name="Grupo 948937" transform="translate(0.543 32.794)">
                        <path id="Trazado_684111" data-name="Trazado 684111" d="M1270.867,131.267l6.763-11.534,12,6.607-7.778,12.36Z" transform="translate(-1270.867 -114.699)" fill="#fb9988"/>
                        <g id="Grupo_948936" data-name="Grupo 948936" transform="translate(9.42)">
                          <g id="Grupo_948935" data-name="Grupo 948935">
                            <path id="Trazado_684112" data-name="Trazado 684112" d="M1278.257,142.462l-1.519-1.028-1.566-5.77s.842-7.969,6.986-11.507a7.7,7.7,0,0,1,3.488-.86,22.465,22.465,0,0,1,5.107.416,59.527,59.527,0,0,1,10.137,2.96,78.166,78.166,0,0,1,8.677-7.927c1.727-1.287,2.729-1.462,3.317-1.223.854.344.829,1.543.829,1.543l-9.568,18.589s-13.452,6.551-20.865,8.2Z" transform="translate(-1275.172 -117.433)" fill="#fdbd8e"/>
                          </g>
                        </g>
                      </g>
                      <g id="Grupo_948938" data-name="Grupo 948938">
                        <path id="Rectángulo_337578" data-name="Rectángulo 337578" d="M.7,0H31.539a.7.7,0,0,1,.7.7V52.683a.7.7,0,0,1-.7.7H.7a.7.7,0,0,1-.7-.7V.7A.7.7,0,0,1,.7,0Z" transform="matrix(-0.828, -0.56, 0.56, -0.828, 26.698, 62.274)" fill="#171228"/>
                        <rect id="Rectángulo_337579" data-name="Rectángulo 337579" width="25.544" height="41.625" transform="translate(28.256 54.002) rotate(-145.918)" fill="#28b69a"/>
                        <path id="Trazado_684113" data-name="Trazado 684113" d="M1277.082,125.19a2.395,2.395,0,1,0,3.326-.641A2.4,2.4,0,0,0,1277.082,125.19Z" transform="translate(-1263.427 -76.674)" fill="#909aa3"/>
                      </g>
                      <g id="Grupo_948940" data-name="Grupo 948940" transform="translate(3.863 3.768)">
                        <g id="Grupo_948939" data-name="Grupo 948939">
                          <path id="Trazado_684114" data-name="Trazado 684114" d="M1276.261,106.076a6.2,6.2,0,0,0,.571,4.208c.748,1.512,1.47,3.079,2.354,4.52.09.142.179.284.267.429a15.551,15.551,0,0,0,1.4,1.875c.188.21.381.411.578.606a8.513,8.513,0,0,0,2.258,1.619,1.938,1.938,0,0,0,2.772-1.939,13.928,13.928,0,0,0-1.553-5.947,24.5,24.5,0,0,0-4.949-6.332C1278.383,103.842,1276.891,103.57,1276.261,106.076Z" transform="translate(-1267.959 -104.166)" fill="#fdbd8e"/>
                          <path id="Trazado_684115" data-name="Trazado 684115" d="M1275.212,109.826a6.226,6.226,0,0,0,.56,4.2c.49.976.963,1.978,1.486,2.96.2.389.411.772.635,1.14a16.871,16.871,0,0,0,1.912,2.731c.146.164.3.319.447.475a8.864,8.864,0,0,0,2.387,1.748,1.933,1.933,0,0,0,2.766-1.941,13.593,13.593,0,0,0-1.553-5.947,21.894,21.894,0,0,0-1.171-1.939,28.643,28.643,0,0,0-1.855-2.455c-.129-.155-.256-.309-.389-.455C1278.377,108.047,1276.032,106.522,1275.212,109.826Z" transform="translate(-1269.208 -99.71)" fill="#fdbd8e"/>
                          <path id="Trazado_684116" data-name="Trazado 684116" d="M1273.578,112.659a6.255,6.255,0,0,0,.565,4.2c.606,1.225,1.212,2.5,1.888,3.7.21.37.425.746.661,1.1a14.489,14.489,0,0,0,1.481,2.028,10.4,10.4,0,0,0,1.059,1.041,8.139,8.139,0,0,0,1.777,1.184,1.936,1.936,0,0,0,2.766-1.943,13.609,13.609,0,0,0-1.558-5.949.273.273,0,0,0-.028-.048,26.7,26.7,0,0,0-2.553-3.818c-.142-.173-.287-.359-.44-.527C1277.057,111.092,1274.455,109.134,1273.578,112.659Z" transform="translate(-1271.145 -96.35)" fill="#fdbd8e"/>
                          <path id="Trazado_684117" data-name="Trazado 684117" d="M1272.537,116.276a6.207,6.207,0,0,0,.563,4.2c.1.206.195.4.293.6a27.319,27.319,0,0,0,3.739,6.229,9.134,9.134,0,0,0,2.833,2.225,1.937,1.937,0,0,0,2.768-1.943,13.711,13.711,0,0,0-1.558-5.947,12.165,12.165,0,0,0-.7-1.217,28.365,28.365,0,0,0-2.77-3.7c-.146-.164-.291-.315-.431-.464C1275.345,114.287,1273.3,113.235,1272.537,116.276Z" transform="translate(-1272.384 -92.047)" fill="#fdbd8e"/>
                        </g>
                        <path id="Trazado_684118" data-name="Trazado 684118" d="M1280.685,106.076a6.2,6.2,0,0,0,.571,4.208c.748,1.512,1.47,3.079,2.354,4.52-2.057-2.3-4.4-3.825-5.223-.521a6.226,6.226,0,0,0,.56,4.2c.49.976.963,1.978,1.486,2.96-2.137-2.538-4.739-4.5-5.617-.971a6.255,6.255,0,0,0,.565,4.2c.606,1.225,1.212,2.5,1.888,3.7-1.925-1.976-3.971-3.028-4.733.013a6.207,6.207,0,0,0,.563,4.2c.1.206.195.4.293.6.035-.138.066-.269.107-.4a5.693,5.693,0,0,1,1.525-2.763,2.688,2.688,0,0,1,2.906-.556l.057.035c-.1-.225-.192-.44-.287-.667a6.669,6.669,0,0,1-.615-4.413c.525-1.678,2.908-2.761,4.1-1.468-.04-.127-.081-.254-.123-.379-.07-.2-.131-.4-.195-.613a7.679,7.679,0,0,1-.394-4.14,3.345,3.345,0,0,1,3.4-2.6c.042.011.085.013.123.026a2.442,2.442,0,0,1,.4.123c-.927-2.615-1.729-5.192-.936-7.956a20.493,20.493,0,0,1,.921-2.311C1282.808,103.842,1281.315,103.57,1280.685,106.076Z" transform="translate(-1272.384 -104.166)" fill="#fb9988"/>
                      </g>
                    </g>
                  </g>
                  <g id="Grupo_948944" data-name="Grupo 948944" transform="translate(0 47.461)">
                    <g id="Grupo_948943" data-name="Grupo 948943">
                      <path id="Trazado_684119" data-name="Trazado 684119" d="M1352.273,225.34s-7.776,4.383-18.883,9.739l-.007.009c-22.819,10.99-59.7,26.105-72.143,15.8-37.984-31.409,30.039-120.837,33.091-126.755l1.63.965,25.764,15.226c-13,25.4-36.38,57.47-32.435,60.975,12.272-4.689,57.564-25.306,57.564-25.306Z" transform="translate(-1249.742 -124.136)" fill="#ff9300"/>
                    </g>
                  </g>
                </g>
                <path id="Trazado_684120" data-name="Trazado 684120" d="M1333.391,235.079l-.007.009c-22.819,10.99-59.7,26.105-72.143,15.8-37.984-31.409,30.039-120.837,33.091-126.755l1.63.965v.939s-58.68,98.5-33.557,117.673,70.462-17.145,70.462-17.145Z" transform="translate(-1249.742 -76.675)" fill="#cf691f"/>
              </g>
              <g id="Grupo_948962" data-name="Grupo 948962" transform="translate(79.62)">
                <g id="Grupo_948961" data-name="Grupo 948961">
                  <path id="Trazado_684121" data-name="Trazado 684121" d="M1404.367,167.862c-.9,4.129-2.754,11.045-5.234,23.924-1.921,9.947-4.453,21.2-7.179,32.645v.007c-8.277,34.82-18.3,71.626-18.068,80.173,0,0-44.5,26.72-80.523-3.507,0,0-.236-46-1.989-54.328s-11.52-71.46,10.4-89.872c10.284-8.632,18.268-12.841,23.836-14.857a36.453,36.453,0,0,1,3.514-1.085v-.011a20.858,20.858,0,0,1,5.321-.744.079.079,0,0,1,.044.009c.177,0,.315.009.42.017a.391.391,0,0,0,.1.009.658.658,0,0,1,.123.009h29.234a125.075,125.075,0,0,1,12.493,3.689c6.345,2.256,22.431,11.572,26.779,16.421a.119.119,0,0,0,.044.044,5.809,5.809,0,0,1,.849,1.19C1405.216,162.979,1405.1,164.488,1404.367,167.862Z" transform="translate(-1284.276 6.528)" fill="#ff9300"/>
                  <g id="Grupo_948947" data-name="Grupo 948947" transform="translate(14.918 232.698)">
                    <path id="Trazado_684122" data-name="Trazado 684122" d="M1292.95,185.649l3-.153c1.914-.118,4.682-.293,8.1-.505,6.785-.335,16.082-.853,25.484,1.663,2.4.632,4.8,1.378,7.218,2.03a59.138,59.138,0,0,0,7.183,1.51,55.734,55.734,0,0,0,12.386.4,20.992,20.992,0,0,0,4.807-.9,10.907,10.907,0,0,0,3.313-1.689,7.378,7.378,0,0,0,1.575-1.68c.273-.446.394-.68.394-.68s-.2.173-.582.508a7.634,7.634,0,0,1-1.854,1.046,15.424,15.424,0,0,1-7.59.409,89.98,89.98,0,0,1-11.432-2.348c-2.114-.575-4.254-1.252-6.536-2.041s-4.715-1.639-7.36-2.339a43.974,43.974,0,0,0-15.406-1.16,67.832,67.832,0,0,0-12.093,2.33c-3.343.947-5.98,1.875-7.8,2.538S1292.95,185.649,1292.95,185.649Z" transform="translate(-1292.95 -179.494)" fill="#cf691f"/>
                  </g>
                  <g id="Grupo_948960" data-name="Grupo 948960">
                    <path id="Trazado_684123" data-name="Trazado 684123" d="M1287.2,128.021c.136-.691.341-1.68.678-2.893a26.061,26.061,0,0,1,1.529-4.175,17.863,17.863,0,0,1,3.1-4.652,16.907,16.907,0,0,1,4.5-3.367,22.768,22.768,0,0,1,4.162-1.645c.527-.153,1-.273,1.44-.374.531-.5.851-.775.851-.775s-.1.236-.278.648c.33-.068.637-.129.89-.173.694-.123,1.079-.171,1.079-.171s-.958.63-2.531,1.659c-.328.777-.746,1.757-1.234,2.906a51.477,51.477,0,0,0-3.617,11.45,67.888,67.888,0,0,0-.567,12.084c.016,1.628.027,2.954.033,3.871-.013.923-.022,1.438-.022,1.438s-.208-.468-.582-1.317c-.356-.853-.851-2.09-1.372-3.661a34.889,34.889,0,0,1-1.378-5.7,23.61,23.61,0,0,1,0-7.369,22.211,22.211,0,0,1,2.47-6.982,29.5,29.5,0,0,1,3.173-4.621,32.211,32.211,0,0,0-4.84,4.144,51.793,51.793,0,0,0-5.451,7.391l-1.61,2.459c-.4.575-.619.9-.619.9S1287.082,128.711,1287.2,128.021Z" transform="translate(-1285.084 -29.187)" fill="#85441d"/>
                    <g id="Grupo_948948" data-name="Grupo 948948" transform="translate(92.293 9.92)">
                      <path id="Trazado_684124" data-name="Trazado 684124" d="M1332.6,187.037a57.206,57.206,0,0,0,8.071,13.349c7.179,9.074,17.235,16.8,28.779,17.55a39.772,39.772,0,0,1-15.218-10.2c.7.457,1.411.9,2.14,1.308a38.621,38.621,0,0,0,26.621,4.243,33.232,33.232,0,0,1-7.415-14.036,48.979,48.979,0,0,1-1.63-11.255c-.3-9.144,1.411-18.206,2.663-27.271,2.043-14.681,3.464-29.873,2.954-44.714-.4-11.9-4.269-24.825-13.305-33.056A20.278,20.278,0,0,0,1336,86.291a19.184,19.184,0,0,0-1.781,3.033c-.753,1.621-1.164,2.875-.166,4.354a31.858,31.858,0,0,0,3.612,3.947,26.57,26.57,0,0,1,6.479,13,17.454,17.454,0,0,0-1.595,1.429c-3.219,3.219-5.347,7.354-7.074,11.564a100.58,100.58,0,0,0-7.12,35.728C1328.107,168.75,1328.967,178.357,1332.6,187.037Z" transform="translate(-1328.313 -77.676)" fill="#85441d"/>
                      <path id="Trazado_684125" data-name="Trazado 684125" d="M1331.825,86.291a17.639,17.639,0,0,0,2.446,5.4c5.461-.228,10.43,3.752,12.885,8.636s2.857,10.526,2.91,16a146.585,146.585,0,0,1-1.816,24.51c-1.348,8.555-3.47,17.075-3.337,25.737s2.855,17.775,9.535,23.3a34.46,34.46,0,0,1,2.544-15.007,32.961,32.961,0,0,0,14.41,24.385,48.979,48.979,0,0,1-1.63-11.255,112.429,112.429,0,0,1,1.595-19.915c.359-2.455.727-4.9,1.068-7.356,2.043-14.681,3.464-29.873,2.954-44.714-.4-11.9-4.269-24.825-13.305-33.056a20.636,20.636,0,0,0-17.629-4.9,19.509,19.509,0,0,0-4.971,1.718A20.778,20.778,0,0,0,1331.825,86.291Z" transform="translate(-1324.141 -77.676)" fill="#965326"/>
                      <path id="Trazado_684126" data-name="Trazado 684126" d="M1335.326,79.768c5.461,3.77,10.986,7.522,13.728,13.421a35.683,35.683,0,0,1,2.332,8.422,80.455,80.455,0,0,1,1.65,11.8c.28,6.951-1.265,13.843-1.711,20.795a66.3,66.3,0,0,0,2.989,24.315,43.152,43.152,0,0,1,4.461-10.66c.352,7.459,3.956,14.1,8.435,20.215.359-2.455.727-4.9,1.068-7.356,2.043-14.681,3.464-29.873,2.954-44.714-.4-11.9-4.269-24.825-13.305-33.056a20.636,20.636,0,0,0-17.629-4.9A19.509,19.509,0,0,0,1335.326,79.768Z" transform="translate(-1319.982 -77.676)" fill="#b5693c"/>
                    </g>
                    <circle id="Elipse_5278" data-name="Elipse 5278" cx="11.832" cy="11.832" r="11.832" transform="translate(87.454 15.734)" fill="#fff0e7"/>
                    <g id="Grupo_948955" data-name="Grupo 948955" transform="translate(1.315)">
                      <path id="Trazado_684127" data-name="Trazado 684127" d="M1307.608,141.579l-3.155,35.474,15.614-7.94,8.144-10.08s.1-12.922.07-19.25h-11.15a1,1,0,0,1-.122-.011.538.538,0,0,1-.1-.007c-.1,0-.245-.009-.42-.02a.075.075,0,0,0-.042-.009,20.934,20.934,0,0,0-5.323.748v.009A36.259,36.259,0,0,0,1307.608,141.579Z" transform="translate(-1265.681 5.971)" fill="#fff0e7"/>
                      <g id="Grupo_948954" data-name="Grupo 948954">
                        <g id="Grupo_948949" data-name="Grupo 948949" transform="translate(45.183 105.751)">
                          <path id="Trazado_684128" data-name="Trazado 684128" d="M1316.588,190.805l26.3-29.324c-.042-4.361-.411-6-.805-16.78-.42-11.99-.86-23.228-.86-23.228l-33.835,13.373c3.776,8.461,5.479,18.1,6.047,27.289C1314.623,181.5,1316.588,190.805,1316.588,190.805Z" transform="translate(-1307.383 -121.474)" fill="#fdbd8e"/>
                          <path id="Trazado_684129" data-name="Trazado 684129" d="M1307.383,134.847c3.776,8.461,5.479,18.1,6.047,27.289,1.072.449,2.114.86,3.1,1.2,3.925,1.365,16.55-9.837,25.552-18.637-.42-11.99-.86-23.228-.86-23.228Z" transform="translate(-1307.383 -121.474)" fill="#fb9988"/>
                        </g>
                        <g id="Grupo_948953" data-name="Grupo 948953">
                          <g id="Grupo_948950" data-name="Grupo 948950">
                            <path id="Trazado_684130" data-name="Trazado 684130" d="M1292.292,140.242q1.024,4.69,2.647,9.85s-1.518,16.946.262,20.742,13.183,27.47,25.158,26.007c9.993-1.219,34.433-15.856,42.927-24.58,1.7-1.735,2.761-3.234,2.956-4.348,1.164-6.724,5.17-36.38,5.547-38.859,1.017-6.724,3.84-57.643-57.724-43.48a29.65,29.65,0,0,0-22.344,22.25C1289.905,115.834,1289.312,126.591,1292.292,140.242Z" transform="translate(-1282.603 -61.313)" fill="#fdbd8e"/>
                            <path id="Trazado_684131" data-name="Trazado 684131" d="M1286.733,120.421a26.046,26.046,0,0,0,1.621,7.923c1.729,5.181,4.129,10.389,8.408,13.763a86.649,86.649,0,0,1,.919-20.591c14.684,16,45.4,21.477,46.644,21.687-5.82-1.788-7.566-13.43-7.566-13.43,7.015,16.366,37.756,19.731,37.756,19.731,7.356-5.975,12.474,5.339,12.474,5.339,2.49-4.6,4.558-8.765,6.172-12.629.429-1.011.825-1.993,1.184-2.956a42.021,42.021,0,0,0,2.111-7.923c4.092-24.571-14.279-48.65-37.949-55.525a.259.259,0,0,0-.068-.018c-22.372-6.47-48.819-.545-61.275,11.815a25.759,25.759,0,0,0-5.3,7.347c-.186.385-.352.79-.5,1.192-.055.123-.1.245-.14.368a19.019,19.019,0,0,0-1.21,7.249,25.236,25.236,0,0,0,.525,4.453C1288.354,111.846,1286.7,116.255,1286.733,120.421Z" transform="translate(-1286.733 -73.142)" fill="#85441d"/>
                            <path id="Trazado_684132" data-name="Trazado 684132" d="M1288.849,96.146a18.678,18.678,0,0,0,4.208,1.7c2.962.781,6.074.842,9.036,1.63a18.876,18.876,0,0,1,9.31,5.794c4.33,4.934,6.258,12.255,12.106,15.235,4.041,2.061,8.925,1.422,13.308.238s8.756-2.875,13.3-2.744c7.135.21,13.439,4.916,17.891,10.491a21.03,21.03,0,0,0,4.3,4.619c2.435,1.665,5.555,1.974,8.5,1.825a32.384,32.384,0,0,0,13.141-3.6,44.044,44.044,0,0,0-2.567-23.291,55.206,55.206,0,0,0-35.382-32.234.259.259,0,0,0-.068-.018,73.779,73.779,0,0,0-43.953,1.508c-6.962,2.49-12.99,6.006-17.322,10.308a25.759,25.759,0,0,0-5.3,7.347C1289.164,95.339,1289,95.743,1288.849,96.146Z" transform="translate(-1284.219 -73.141)" fill="#965326"/>
                            <path id="Trazado_684133" data-name="Trazado 684133" d="M1299.418,77.3c7.223,5.91,10.914,16.244,19.653,19.5,5.074,1.895,10.695.893,16.069.28s11.316-.648,15.574,2.691c2.227,1.755,3.735,4.251,5.84,6.155,4.435,4,11.025,4.8,16.9,3.671a31.078,31.078,0,0,0,5.367-1.549,55.206,55.206,0,0,0-35.382-32.234.259.259,0,0,0-.068-.018A73.779,73.779,0,0,0,1299.418,77.3Z" transform="translate(-1271.663 -73.141)" fill="#b5693c"/>
                            <path id="Trazado_684134" data-name="Trazado 684134" d="M1293.808,119.065s-1.518,16.946.262,20.742,13.183,27.47,25.158,26.007c9.993-1.219,34.433-15.856,42.927-24.58-10.406,7.225-38.15,25.659-46.285,22.827-10.08-3.505-21.475-25.814-21.256-28.024s.875-16.673.875-16.673-2.033-4.569-4.328-10.15Q1292.185,113.9,1293.808,119.065Z" transform="translate(-1281.472 -30.287)" fill="#ffdaba"/>
                          </g>
                          <g id="Grupo_948952" data-name="Grupo 948952" transform="translate(80.884 72.414)">
                            <path id="Trazado_684135" data-name="Trazado 684135" d="M1323.7,139.573a23.537,23.537,0,0,0,16.366-9.034,19.1,19.1,0,0,0,1.63-2.426c2.208-4.006,2.842-17.885-2.842-21.112-3.982-2.26-6.881,1.017-8.26,3.184v.009a13.245,13.245,0,0,0-.9,1.641Z" transform="translate(-1323.7 -106.238)" fill="#ffdaba"/>
                            <path id="Trazado_684136" data-name="Trazado 684136" d="M1323.7,138.86a23.537,23.537,0,0,0,16.366-9.034c.26-.392.488-.761.682-1.118,2.206-4,2.84-17.887-2.84-21.108-3.227-1.831-5.741-.031-7.314,1.871v.009a13.245,13.245,0,0,0-.9,1.641Z" transform="translate(-1323.7 -105.525)" fill="#fdbd8e"/>
                            <path id="Trazado_684137" data-name="Trazado 684137" d="M1337.374,112.981a5.944,5.944,0,0,1-.26,3.363c-1.552,4.658-6.205,8.214-10.66,11.513a11.692,11.692,0,0,0,1.562-7.295c-.094-.864-.282-1.722-.291-2.591C1327.69,114.477,1335.69,106.417,1337.374,112.981Z" transform="translate(-1320.428 -101.193)" fill="#fb9988"/>
                            <g id="Grupo_948951" data-name="Grupo 948951" transform="translate(3.79 9.219)">
                              <path id="Trazado_684138" data-name="Trazado 684138" d="M1325.432,129.224l.254-.144c.16-.1.42-.228.716-.429a10.07,10.07,0,0,0,2.2-1.985,8.984,8.984,0,0,0,1.807-3.7,7.73,7.73,0,0,0-.561-4.895,4.34,4.34,0,0,0-.324-.61l-.09-.151c-.024-.037-.009-.011-.011-.015l0,0,0,0h0s0,.007.013-.026l.072-.131.151-.265c.1-.177.2-.35.311-.519a19.87,19.87,0,0,1,1.344-1.919c.466-.6.949-1.144,1.429-1.648a13.081,13.081,0,0,1,1.409-1.311,3.135,3.135,0,0,1,1.444-.637,2.28,2.28,0,0,1,1.225.206,1.172,1.172,0,0,1,.547.494.867.867,0,0,1,.077.234.558.558,0,0,0-.013-.249,1.1,1.1,0,0,0-.459-.635,2.51,2.51,0,0,0-1.407-.442,3.956,3.956,0,0,0-1.908.545,12.286,12.286,0,0,0-1.735,1.245,19,19,0,0,0-1.713,1.606,16.91,16.91,0,0,0-1.582,1.965c-.125.175-.24.359-.359.543l-.171.278-.228.392-.157.278c.042.094.1.186.155.278l.225.394a3.806,3.806,0,0,1,.28.534,8.2,8.2,0,0,1,.718,4.326,9.241,9.241,0,0,1-1.179,3.534,10.089,10.089,0,0,1-1.68,2.146c-.236.241-.453.4-.584.527S1325.432,129.224,1325.432,129.224Z" transform="translate(-1325.432 -110.451)" fill="#fd7d6f"/>
                            </g>
                          </g>
                        </g>
                      </g>
                      <path id="Trazado_684139" data-name="Trazado 684139" d="M1311.589,169.087l19.974,15.611,18.813-41.25a124.317,124.317,0,0,0-12.491-3.691Z" transform="translate(-1257.204 5.997)" fill="#fff0e7"/>
                    </g>
                    <path id="Trazado_684140" data-name="Trazado 684140" d="M1320.355,123.84c.133-.691.344-1.683.678-2.893a26.185,26.185,0,0,1,1.529-4.175,17.835,17.835,0,0,1,3.107-4.649,16.76,16.76,0,0,1,4.5-3.37,22.645,22.645,0,0,1,4.161-1.645c.525-.153,1-.271,1.44-.374.53-.5.847-.775.847-.775s-.1.236-.273.648c.328-.068.634-.129.888-.173.694-.123,1.081-.166,1.081-.166s-.958.624-2.532,1.654c-.33.777-.748,1.757-1.238,2.9a51.817,51.817,0,0,0-3.617,11.452,68.231,68.231,0,0,0-.564,12.084c.013,1.628.026,2.954.035,3.871-.018.923-.024,1.438-.024,1.438s-.21-.47-.58-1.317-.855-2.09-1.372-3.661a34.443,34.443,0,0,1-1.378-5.7,23.545,23.545,0,0,1,0-7.369,22.252,22.252,0,0,1,2.468-6.984,29.752,29.752,0,0,1,3.17-4.621,32.312,32.312,0,0,0-4.838,4.146,51.846,51.846,0,0,0-5.45,7.389c-.676,1.035-1.228,1.875-1.611,2.459-.4.575-.619.9-.619.9S1320.233,124.53,1320.355,123.84Z" transform="translate(-1245.698 -34.154)" fill="#85441d"/>
                    <g id="Grupo_948959" data-name="Grupo 948959" transform="translate(5.416 56.309)">
                      <path id="Trazado_684141" data-name="Trazado 684141" d="M1288.61,107.625s7.857-10.52,12.24-6.356,2.414,4.6,2.414,4.6Z" transform="translate(-1288.604 -97.195)" fill="#965326"/>
                      <path id="Trazado_684142" data-name="Trazado 684142" d="M1329.15,110.917s-14.5-16.7-20.436-10.765c-3.468,3.461-1.057,5.82-1.057,5.82Z" transform="translate(-1266.945 -98.877)" fill="#965326"/>
                      <path id="Trazado_684143" data-name="Trazado 684143" d="M1308.168,105.165c.694,1.792,3.028,3.194,4.665,3.987a3.979,3.979,0,0,1,2.965-1.532c2.827,0,5.113,3.678,5.113,8.214s-2.286,8.209-5.113,8.209-5.114-3.674-5.114-8.209a12.281,12.281,0,0,1,.608-3.882C1309.137,110.055,1308.168,105.165,1308.168,105.165Z" transform="translate(-1265.369 -91.407)" fill="#161818"/>
                      <path id="Trazado_684144" data-name="Trazado 684144" d="M1322.353,108.074a10.532,10.532,0,0,1-11.286,4.569,10.519,10.519,0,0,1,11.286-4.569Z" transform="translate(-1261.925 -88.231)" fill="#fff0e7"/>
                      <path id="Trazado_684145" data-name="Trazado 684145" d="M1292.358,107.161c.477,1.227,2.061,2.2,3.2,2.753a2.866,2.866,0,0,1,2-.9c2.129,0,3.855,2.772,3.855,6.19s-1.727,6.19-3.855,6.19-3.855-2.772-3.855-6.19a8.965,8.965,0,0,1,.67-3.481C1292.984,110.3,1292.358,107.161,1292.358,107.161Z" transform="translate(-1284.151 -89.036)" fill="#161818"/>
                      <path id="Trazado_684146" data-name="Trazado 684146" d="M1291.458,109.5a8.5,8.5,0,0,0,8.028,3.251,8.5,8.5,0,0,0-8.028-3.251Z" transform="translate(-1285.221 -86.343)" fill="#fff0e7"/>
                      <g id="Grupo_948956" data-name="Grupo 948956" transform="translate(19.413 19.974)">
                        <path id="Trazado_684147" data-name="Trazado 684147" d="M1308.006,119.248c1.256-.457,2.512-1.142,3.844-1.009a12.821,12.821,0,0,1-6.975,6.726,1.463,1.463,0,0,1-1.61-.151,15.03,15.03,0,0,1-4.407-3.921,2.892,2.892,0,0,1-.569-1.05c-.3-1.293.584-1.011,1.352-.707a11.991,11.991,0,0,0,8.365.112Z" transform="translate(-1296.591 -95.869)" fill="#fb9988"/>
                        <path id="Trazado_684148" data-name="Trazado 684148" d="M1305.488,136.362c-.788-.7-1.674-1.3-2.481-1.989a20.362,20.362,0,0,1-2.741-2.8c4.2-2.893,4.157-7.279,3.956-12.253a14.525,14.525,0,0,0-5.19-10.507,5.2,5.2,0,0,0-1.455-.807c.258.3.435.641.669.943a28.356,28.356,0,0,1,1.777,2.4,17.873,17.873,0,0,1,2.608,8.59,14.535,14.535,0,0,1-.948,5.818,11.465,11.465,0,0,1-4.2,5.424c-.015.011,2.871,3.345,3.153,3.617a14.834,14.834,0,0,0,2.381,1.88,5.273,5.273,0,0,0,2.829,1.122,1.693,1.693,0,0,0,.915-.273,2.963,2.963,0,0,1-.492-.4c-.066-.063-.131-.131-.193-.2C1305.886,136.728,1305.692,136.544,1305.488,136.362Z" transform="translate(-1297.48 -108.006)" fill="#fd7d6f"/>
                      </g>
                      <path id="Trazado_684149" data-name="Trazado 684149" d="M1303.612,123.341c-.674,1.8-4.553,2-8.671.464s-6.905-4.249-6.234-6.045,4.555-2,8.669-.464S1304.284,121.54,1303.612,123.341Z" transform="translate(-1288.607 -78.222)" fill="#fb9988"/>
                      <path id="Trazado_684150" data-name="Trazado 684150" d="M1331.373,117.181c.7,2.711-3.759,6.212-9.967,7.82s-11.809.715-12.511-2,3.759-6.21,9.967-7.818S1330.671,114.472,1331.373,117.181Z" transform="translate(-1264.591 -80.453)" fill="#fb9988"/>
                      <g id="Grupo_948958" data-name="Grupo 948958" transform="translate(22.717 49.765)">
                        <g id="Grupo_948957" data-name="Grupo 948957" transform="translate(10.647 14.569)">
                          <path id="Trazado_684151" data-name="Trazado 684151" d="M1303.856,129.44a15.125,15.125,0,0,0,12.546-1.16,6.5,6.5,0,0,1-5.338,3.783A10.738,10.738,0,0,1,1303.856,129.44Z" transform="translate(-1303.856 -128.28)" fill="#fd7d6f"/>
                        </g>
                        <path id="Trazado_684152" data-name="Trazado 684152" d="M1329.7,121.984a20.283,20.283,0,0,1-5.266,9.457,15.445,15.445,0,0,1-8.111,4.225,13.627,13.627,0,0,1-9.061-1.385A22.358,22.358,0,0,1,1298.99,126c18.224-6.043,30.212-4.1,30.691-4.026Z" transform="translate(-1298.99 -121.622)" fill="#fc5b68"/>
                        <path id="Trazado_684153" data-name="Trazado 684153" d="M1329.7,121.984s-.28,1.048-2.9,2.481-21.219,3.768-23.405,3.505A10.69,10.69,0,0,1,1298.99,126c18.224-6.043,30.212-4.1,30.691-4.026Z" transform="translate(-1298.99 -121.622)" fill="#fff0e7"/>
                        <path id="Trazado_684154" data-name="Trazado 684154" d="M1319.943,126.982a15.445,15.445,0,0,1-8.111,4.225,13.627,13.627,0,0,1-9.061-1.385C1306,127.432,1313.475,122.975,1319.943,126.982Z" transform="translate(-1294.498 -117.163)" fill="#cf4a57"/>
                      </g>
                    </g>
                    <path id="Trazado_684155" data-name="Trazado 684155" d="M1286.132,119.59a15.658,15.658,0,0,0,31.3.663c2.483-1.849,5.916-.606,7.295.028a17.133,17.133,0,1,0,33.857-4.435l22.245-3.632-.422-2.6-22.591,3.691a17.125,17.125,0,0,0-33.006,4.155,10.128,10.128,0,0,0-7.529-.162,15.659,15.659,0,0,0-31.151,2.289Zm41.182-.14a14.515,14.515,0,1,1,14.518,14.513A14.532,14.532,0,0,1,1327.314,119.45Zm-38.552.14a13.037,13.037,0,1,1,13.038,13.036A13.054,13.054,0,0,1,1288.762,119.59Z" transform="translate(-1286.132 -38.496)" fill="#fff0e7"/>
                  </g>
                </g>
              </g>
            </g>
          </g>
        </g>
        <g id="Grupo_948968" data-name="Grupo 948968" transform="translate(1425.724 227.367)">
          <g id="Grupo_948967" data-name="Grupo 948967" transform="translate(154.945)">
            <g id="Grupo_948966" data-name="Grupo 948966">
              <path id="Trazado_684156" data-name="Trazado 684156" d="M1400.989,172.411c.131-.359.256-.713.378-1.068.16-.256.311-.508.47-.764.418-.68.851-1.352,1.3-2,0-.013.009-.013.017-.02a58.832,58.832,0,0,1,9.8-10.89c5.205-4.553,10.172-7.341,12.424-7.645,4.28-.571,21.322-7.756,21.237-6.168a7.465,7.465,0,0,1-4.385,5.936c-2.932,1.118-13.872,5.614-14.434,8.8s23.865.19,27.433-2.118c3.181-2.059,18.968-7.061,19.992-5.658.131.179.02.455-.359.838-3.47,3.536-31.067,19.486-31.067,19.486s-12.756,2.818-23.459,5.741l-.009,0c-1.1.3-2.188.6-3.232.9-.461.129-.91.26-1.352.392l-1.558.473c-2.092.639-3.926,1.254-5.325,1.818l-5.717-5.853Z" transform="translate(-1400.989 -143.628)" fill="#fdbd8e"/>
            </g>
          </g>
          <path id="Trazado_684157" data-name="Trazado 684157" d="M1499.931,169.271l-9.789-11.688-3.724-4.4s-74.011,43.67-82.474,54.039c0,0-13.612-16.594-26.923-30.124,0,0-15.651-20.392-24.906-28.184l-21.941,25.6,5.608,32c23.766,20.016,50.026,40.231,62.4,43.241,25.512,6.21,107.387-73.836,107.387-73.836Z" transform="translate(-1330.173 -137.345)" fill="#ff9300"/>
          <path id="Trazado_684158" data-name="Trazado 684158" d="M1332.354,190.688c27.726,21.534,58.8,44.211,65.867,43.53,11.073-1.068,75.8-57.991,99.119-76l5.641,6.652s-81.875,80.044-107.387,73.834c-12.377-3.011-38.638-23.226-62.4-43.244Z" transform="translate(-1327.582 -126.294)" fill="#cf691f"/>
        </g>
      </g>
    </g>
    <g id="Grupo_948971" data-name="Grupo 948971" transform="translate(-564.193 -4575.092)">
      <rect id="Rectángulo_335418" data-name="Rectángulo 335418" width="285.766" height="169.139" rx="13.129" transform="translate(0 -30)" fill="#fff"/>
      <path id="Trazado_639247" data-name="Trazado 639247" d="M446.365,258.388s6.546,17.249,15.789,24.359c0,0-21.243-.262-27.838-7.364A109.274,109.274,0,0,0,446.365,258.388Z" transform="translate(-162.468 -181.528)" fill="#fff"/>
    </g>
    <path id="Trazado_702400" data-name="Trazado 702400" d="M.813,16.711V15.336a3.792,3.792,0,0,0,2.3.773q1.688,0,1.688-1.125a.976.976,0,0,0-.145-.543,1.44,1.44,0,0,0-.391-.395,3.007,3.007,0,0,0-.578-.309q-.332-.137-.715-.285a9.207,9.207,0,0,1-.934-.426,2.82,2.82,0,0,1-.672-.484,1.8,1.8,0,0,1-.406-.613,2.17,2.17,0,0,1-.137-.8,1.912,1.912,0,0,1,.258-1A2.286,2.286,0,0,1,1.773,9.4a3.206,3.206,0,0,1,.98-.441,4.349,4.349,0,0,1,1.137-.148,4.59,4.59,0,0,1,1.859.359v1.3a3.624,3.624,0,0,0-2.031-.578,2.374,2.374,0,0,0-.648.082,1.587,1.587,0,0,0-.5.23,1.065,1.065,0,0,0-.32.355.936.936,0,0,0-.113.457,1.1,1.1,0,0,0,.113.523,1.152,1.152,0,0,0,.332.375,2.538,2.538,0,0,0,.531.3q.312.133.711.289a9.894,9.894,0,0,1,.953.418A3.269,3.269,0,0,1,5.5,13.4a1.893,1.893,0,0,1,.457.621,2,2,0,0,1,.16.836,1.971,1.971,0,0,1-.262,1.031,2.243,2.243,0,0,1-.7.727,3.2,3.2,0,0,1-1.008.43,4.976,4.976,0,0,1-1.2.141A4.539,4.539,0,0,1,.813,16.711ZM9.367,17H8.086V9H9.367ZM10.516,4.922,8.469,7.484H7.477L9.219,4.922Zm2.617,10.3-1.25,3.844h-.914l.914-3.844Zm12.133,1.414a4.163,4.163,0,0,1-2.187.555,3.622,3.622,0,0,1-2.762-1.113,4.035,4.035,0,0,1-1.051-2.887A4.435,4.435,0,0,1,20.4,10.012a3.963,3.963,0,0,1,3.023-1.2,4.209,4.209,0,0,1,1.859.391v1.313a3.258,3.258,0,0,0-1.906-.625,2.576,2.576,0,0,0-2.012.879,3.335,3.335,0,0,0-.785,2.309,3.176,3.176,0,0,0,.738,2.219,2.545,2.545,0,0,0,1.98.813,3.211,3.211,0,0,0,1.969-.7ZM31.375,10.3a1.567,1.567,0,0,0-.969-.258,1.635,1.635,0,0,0-1.371.773,3.576,3.576,0,0,0-.551,2.109V17H27.2V9h1.281v1.648h.031a2.793,2.793,0,0,1,.836-1.316,1.906,1.906,0,0,1,1.258-.473,2.092,2.092,0,0,1,.766.109ZM39.2,13.32H33.547a2.992,2.992,0,0,0,.719,2.063,2.478,2.478,0,0,0,1.891.727,3.931,3.931,0,0,0,2.484-.891v1.2a4.643,4.643,0,0,1-2.789.766,3.381,3.381,0,0,1-2.664-1.09,4.461,4.461,0,0,1-.969-3.066,4.375,4.375,0,0,1,1.059-3.043,3.394,3.394,0,0,1,2.629-1.176,3.008,3.008,0,0,1,2.43,1.016,4.234,4.234,0,0,1,.859,2.82Zm-1.312-1.086a2.607,2.607,0,0,0-.535-1.727,1.823,1.823,0,0,0-1.465-.617,2.07,2.07,0,0,0-1.539.648,2.943,2.943,0,0,0-.781,1.7Zm6.594,4.953a3.711,3.711,0,0,1-2.832-1.121,4.153,4.153,0,0,1-1.059-2.973,4.326,4.326,0,0,1,1.1-3.148,3.96,3.96,0,0,1,2.977-1.133,3.588,3.588,0,0,1,2.793,1.1,4.368,4.368,0,0,1,1,3.055,4.3,4.3,0,0,1-1.082,3.066A3.791,3.791,0,0,1,44.477,17.188Zm.094-7.3a2.437,2.437,0,0,0-1.953.84,3.449,3.449,0,0,0-.719,2.316,3.262,3.262,0,0,0,.727,2.242,2.469,2.469,0,0,0,1.945.82,2.342,2.342,0,0,0,1.91-.8,3.492,3.492,0,0,0,.668-2.289A3.552,3.552,0,0,0,46.48,10.7,2.332,2.332,0,0,0,44.57,9.891ZM61.719,20.68H60.438V15.625h-.031a2.867,2.867,0,0,1-2.734,1.563,3.011,3.011,0,0,1-2.418-1.074,4.381,4.381,0,0,1-.91-2.926,4.791,4.791,0,0,1,1-3.184,3.328,3.328,0,0,1,2.688-1.191,2.523,2.523,0,0,1,2.375,1.3h.031V9h1.281ZM60.438,13.4V12.234a2.328,2.328,0,0,0-.645-1.664,2.158,2.158,0,0,0-1.637-.68,2.2,2.2,0,0,0-1.828.855,3.819,3.819,0,0,0-.672,2.41,3.307,3.307,0,0,0,.648,2.168,2.069,2.069,0,0,0,1.672.785,2.254,2.254,0,0,0,1.793-.77A2.855,2.855,0,0,0,60.438,13.4ZM70.781,17H69.5V15.734h-.031A2.631,2.631,0,0,1,67,17.188q-2.859,0-2.859-3.406V9h1.273v4.578q0,2.531,1.938,2.531a1.96,1.96,0,0,0,1.543-.691,2.645,2.645,0,0,0,.605-1.809V9h1.281ZM79.8,13.32H74.148a2.992,2.992,0,0,0,.719,2.063,2.478,2.478,0,0,0,1.891.727,3.931,3.931,0,0,0,2.484-.891v1.2a4.643,4.643,0,0,1-2.789.766,3.381,3.381,0,0,1-2.664-1.09,4.461,4.461,0,0,1-.969-3.066,4.375,4.375,0,0,1,1.059-3.043,3.394,3.394,0,0,1,2.629-1.176,3.008,3.008,0,0,1,2.43,1.016,4.234,4.234,0,0,1,.859,2.82Zm-1.312-1.086a2.607,2.607,0,0,0-.535-1.727,1.823,1.823,0,0,0-1.465-.617,2.07,2.07,0,0,0-1.539.648,2.943,2.943,0,0,0-.781,1.7ZM92.547,13.32H86.9a2.992,2.992,0,0,0,.719,2.063,2.478,2.478,0,0,0,1.891.727,3.931,3.931,0,0,0,2.484-.891v1.2a4.643,4.643,0,0,1-2.789.766,3.381,3.381,0,0,1-2.664-1.09,4.461,4.461,0,0,1-.969-3.066,4.375,4.375,0,0,1,1.059-3.043,3.394,3.394,0,0,1,2.629-1.176,3.008,3.008,0,0,1,2.43,1.016,4.234,4.234,0,0,1,.859,2.82Zm-1.312-1.086a2.607,2.607,0,0,0-.535-1.727,1.823,1.823,0,0,0-1.465-.617,2.07,2.07,0,0,0-1.539.648,2.943,2.943,0,0,0-.781,1.7ZM94,16.711V15.336a3.792,3.792,0,0,0,2.3.773q1.688,0,1.688-1.125a.976.976,0,0,0-.145-.543,1.44,1.44,0,0,0-.391-.395,3.007,3.007,0,0,0-.578-.309q-.332-.137-.715-.285a9.207,9.207,0,0,1-.934-.426,2.82,2.82,0,0,1-.672-.484,1.8,1.8,0,0,1-.406-.613,2.17,2.17,0,0,1-.137-.8,1.912,1.912,0,0,1,.258-1,2.286,2.286,0,0,1,.688-.727,3.206,3.206,0,0,1,.98-.441,4.349,4.349,0,0,1,1.137-.148,4.59,4.59,0,0,1,1.859.359v1.3a3.624,3.624,0,0,0-2.031-.578,2.374,2.374,0,0,0-.648.082,1.587,1.587,0,0,0-.5.23,1.065,1.065,0,0,0-.32.355.936.936,0,0,0-.113.457,1.1,1.1,0,0,0,.113.523,1.152,1.152,0,0,0,.332.375,2.538,2.538,0,0,0,.531.3q.313.133.711.289a9.9,9.9,0,0,1,.953.418,3.269,3.269,0,0,1,.719.484,1.893,1.893,0,0,1,.457.621,2,2,0,0,1,.16.836,1.971,1.971,0,0,1-.262,1.031,2.243,2.243,0,0,1-.7.727,3.2,3.2,0,0,1-1.008.43,4.976,4.976,0,0,1-1.2.141A4.539,4.539,0,0,1,94,16.711Zm12.313-9.742a.812.812,0,0,1-.586-.234.791.791,0,0,1-.242-.594.821.821,0,0,1,.828-.836.827.827,0,0,1,.6.238.835.835,0,0,1,0,1.184A.82.82,0,0,1,106.313,6.969ZM106.938,17h-1.281V9h1.281Zm13.953,0h-1.281V12.406a3.466,3.466,0,0,0-.41-1.922,1.555,1.555,0,0,0-1.379-.594,1.708,1.708,0,0,0-1.395.75,2.869,2.869,0,0,0-.574,1.8V17H114.57V12.25q0-2.359-1.82-2.359a1.686,1.686,0,0,0-1.391.707,2.923,2.923,0,0,0-.547,1.84V17h-1.281V9h1.281v1.266h.031a2.718,2.718,0,0,1,2.484-1.453,2.311,2.311,0,0,1,2.266,1.656,2.855,2.855,0,0,1,2.656-1.656q2.641,0,2.641,3.258Zm3.734-1.156h-.031V20.68h-1.281V9h1.281v1.406h.031a3.03,3.03,0,0,1,2.766-1.594A2.93,2.93,0,0,1,129.8,9.887a4.449,4.449,0,0,1,.867,2.879,4.958,4.958,0,0,1-.977,3.215,3.251,3.251,0,0,1-2.672,1.207A2.676,2.676,0,0,1,124.625,15.844Zm-.031-3.227v1.117a2.379,2.379,0,0,0,.645,1.684,2.3,2.3,0,0,0,3.461-.2,4.086,4.086,0,0,0,.66-2.477,3.225,3.225,0,0,0-.617-2.094,2.043,2.043,0,0,0-1.672-.758,2.27,2.27,0,0,0-1.8.777A2.854,2.854,0,0,0,124.594,12.617Zm11.469,4.57a3.711,3.711,0,0,1-2.832-1.121,4.153,4.153,0,0,1-1.059-2.973,4.326,4.326,0,0,1,1.1-3.148,3.96,3.96,0,0,1,2.977-1.133,3.588,3.588,0,0,1,2.793,1.1,4.368,4.368,0,0,1,1,3.055,4.3,4.3,0,0,1-1.082,3.066A3.791,3.791,0,0,1,136.063,17.188Zm.094-7.3a2.437,2.437,0,0,0-1.953.84,3.449,3.449,0,0,0-.719,2.316,3.262,3.262,0,0,0,.727,2.242,2.469,2.469,0,0,0,1.945.82,2.342,2.342,0,0,0,1.91-.8,3.492,3.492,0,0,0,.668-2.289,3.552,3.552,0,0,0-.668-2.312A2.332,2.332,0,0,0,136.156,9.891Zm10.109.406a1.567,1.567,0,0,0-.969-.258,1.635,1.635,0,0,0-1.371.773,3.576,3.576,0,0,0-.551,2.109V17h-1.281V9h1.281v1.648h.031a2.794,2.794,0,0,1,.836-1.316,1.906,1.906,0,0,1,1.258-.473,2.092,2.092,0,0,1,.766.109Zm5.1,6.625a2.47,2.47,0,0,1-1.2.25q-2.1,0-2.1-2.344V10.094H146.7V9h1.375V7.047l1.281-.414V9h2.016v1.094h-2.016V14.6a1.869,1.869,0,0,0,.273,1.148,1.091,1.091,0,0,0,.906.344,1.347,1.347,0,0,0,.836-.266ZM158.8,17h-1.281V15.75h-.031a2.682,2.682,0,0,1-2.461,1.438,2.63,2.63,0,0,1-1.871-.633,2.192,2.192,0,0,1-.676-1.68q0-2.242,2.641-2.609l2.4-.336q0-2.039-1.648-2.039a3.938,3.938,0,0,0-2.609.984V9.563a4.958,4.958,0,0,1,2.719-.75q2.82,0,2.82,2.984Zm-1.281-4.047-1.93.266a3.133,3.133,0,0,0-1.344.441,1.273,1.273,0,0,0-.453,1.121,1.221,1.221,0,0,0,.418.957,1.615,1.615,0,0,0,1.113.371,2.056,2.056,0,0,0,1.574-.668,2.387,2.387,0,0,0,.621-1.691ZM167.859,17h-1.281V12.438q0-2.547-1.859-2.547a2.017,2.017,0,0,0-1.59.723,2.679,2.679,0,0,0-.629,1.824V17h-1.281V9H162.5v1.328h.031a2.887,2.887,0,0,1,2.625-1.516,2.448,2.448,0,0,1,2.008.848,3.776,3.776,0,0,1,.7,2.449Zm6.125-.078a2.47,2.47,0,0,1-1.2.25q-2.1,0-2.1-2.344V10.094h-1.375V9h1.375V7.047l1.281-.414V9h2.016v1.094h-2.016V14.6a1.869,1.869,0,0,0,.273,1.148,1.091,1.091,0,0,0,.906.344,1.347,1.347,0,0,0,.836-.266Zm8.141-3.6h-5.648a2.992,2.992,0,0,0,.719,2.063,2.478,2.478,0,0,0,1.891.727,3.931,3.931,0,0,0,2.484-.891v1.2a4.643,4.643,0,0,1-2.789.766,3.381,3.381,0,0,1-2.664-1.09,4.461,4.461,0,0,1-.969-3.066,4.374,4.374,0,0,1,1.059-3.043,3.394,3.394,0,0,1,2.629-1.176,3.008,3.008,0,0,1,2.43,1.016,4.234,4.234,0,0,1,.859,2.82Zm-1.312-1.086a2.607,2.607,0,0,0-.535-1.727,1.823,1.823,0,0,0-1.465-.617,2.07,2.07,0,0,0-1.539.648,2.943,2.943,0,0,0-.781,1.7Zm14.461,8.445h-1.281V15.625h-.031a2.867,2.867,0,0,1-2.734,1.563,3.011,3.011,0,0,1-2.418-1.074,4.381,4.381,0,0,1-.91-2.926,4.791,4.791,0,0,1,1-3.184,3.328,3.328,0,0,1,2.688-1.191,2.523,2.523,0,0,1,2.375,1.3h.031V9h1.281ZM193.992,13.4V12.234a2.328,2.328,0,0,0-.645-1.664,2.158,2.158,0,0,0-1.637-.68,2.2,2.2,0,0,0-1.828.855,3.819,3.819,0,0,0-.672,2.41,3.307,3.307,0,0,0,.648,2.168,2.069,2.069,0,0,0,1.672.785,2.254,2.254,0,0,0,1.793-.77A2.855,2.855,0,0,0,193.992,13.4ZM204.336,17h-1.281V15.734h-.031a2.631,2.631,0,0,1-2.469,1.453q-2.859,0-2.859-3.406V9h1.273v4.578q0,2.531,1.938,2.531a1.96,1.96,0,0,0,1.543-.691,2.645,2.645,0,0,0,.605-1.809V9h1.281Zm9.016-3.68H207.7a2.992,2.992,0,0,0,.719,2.063,2.478,2.478,0,0,0,1.891.727,3.931,3.931,0,0,0,2.484-.891v1.2a4.643,4.643,0,0,1-2.789.766,3.381,3.381,0,0,1-2.664-1.09,4.461,4.461,0,0,1-.969-3.066,4.374,4.374,0,0,1,1.059-3.043,3.394,3.394,0,0,1,2.629-1.176,3.008,3.008,0,0,1,2.43,1.016,4.234,4.234,0,0,1,.859,2.82Zm-1.312-1.086a2.607,2.607,0,0,0-.535-1.727,1.823,1.823,0,0,0-1.465-.617,2.07,2.07,0,0,0-1.539.648,2.943,2.943,0,0,0-.781,1.7ZM6.75,40.633a4.163,4.163,0,0,1-2.187.555A3.622,3.622,0,0,1,1.8,40.074,4.035,4.035,0,0,1,.75,37.188a4.435,4.435,0,0,1,1.133-3.176,3.963,3.963,0,0,1,3.023-1.2,4.209,4.209,0,0,1,1.859.391v1.313a3.258,3.258,0,0,0-1.906-.625,2.576,2.576,0,0,0-2.012.879,3.335,3.335,0,0,0-.785,2.309A3.176,3.176,0,0,0,2.8,39.3a2.545,2.545,0,0,0,1.98.813,3.211,3.211,0,0,0,1.969-.7Zm5.281.555A3.711,3.711,0,0,1,9.2,40.066a4.153,4.153,0,0,1-1.059-2.973,4.326,4.326,0,0,1,1.1-3.148,3.96,3.96,0,0,1,2.977-1.133,3.588,3.588,0,0,1,2.793,1.1,4.368,4.368,0,0,1,1,3.055,4.3,4.3,0,0,1-1.082,3.066A3.791,3.791,0,0,1,12.031,41.188Zm.094-7.3a2.437,2.437,0,0,0-1.953.84,3.449,3.449,0,0,0-.719,2.316,3.262,3.262,0,0,0,.727,2.242,2.469,2.469,0,0,0,1.945.82,2.342,2.342,0,0,0,1.91-.8,3.492,3.492,0,0,0,.668-2.289,3.552,3.552,0,0,0-.668-2.312A2.332,2.332,0,0,0,12.125,33.891ZM24.7,41H23.422V36.438q0-2.547-1.859-2.547a2.017,2.017,0,0,0-1.59.723,2.679,2.679,0,0,0-.629,1.824V41H18.063V33h1.281v1.328h.031A2.887,2.887,0,0,1,22,32.813a2.448,2.448,0,0,1,2.008.848,3.776,3.776,0,0,1,.7,2.449Zm5.758.188a3.711,3.711,0,0,1-2.832-1.121,4.153,4.153,0,0,1-1.059-2.973,4.326,4.326,0,0,1,1.1-3.148,3.96,3.96,0,0,1,2.977-1.133,3.588,3.588,0,0,1,2.793,1.1,4.368,4.368,0,0,1,1,3.055,4.3,4.3,0,0,1-1.082,3.066A3.791,3.791,0,0,1,30.461,41.188Zm.094-7.3a2.437,2.437,0,0,0-1.953.84,3.449,3.449,0,0,0-.719,2.316,3.262,3.262,0,0,0,.727,2.242,2.469,2.469,0,0,0,1.945.82,2.342,2.342,0,0,0,1.91-.8,3.492,3.492,0,0,0,.668-2.289,3.552,3.552,0,0,0-.668-2.312A2.332,2.332,0,0,0,30.555,33.891Zm11.516-.523-4.734,6.539h4.688V41h-6.57v-.4l4.734-6.508H35.9V33H42.07Zm7.109,7.266a4.163,4.163,0,0,1-2.187.555,3.622,3.622,0,0,1-2.762-1.113,4.035,4.035,0,0,1-1.051-2.887,4.435,4.435,0,0,1,1.133-3.176,3.963,3.963,0,0,1,3.023-1.2A4.209,4.209,0,0,1,49.2,33.2v1.313a3.258,3.258,0,0,0-1.906-.625,2.576,2.576,0,0,0-2.012.879,3.335,3.335,0,0,0-.785,2.309A3.176,3.176,0,0,0,45.23,39.3a2.545,2.545,0,0,0,1.98.813,3.211,3.211,0,0,0,1.969-.7ZM56.844,41H55.563V39.75h-.031a2.682,2.682,0,0,1-2.461,1.438,2.63,2.63,0,0,1-1.871-.633,2.192,2.192,0,0,1-.676-1.68q0-2.242,2.641-2.609l2.4-.336q0-2.039-1.648-2.039a3.938,3.938,0,0,0-2.609.984V33.563a4.958,4.958,0,0,1,2.719-.75q2.82,0,2.82,2.984Zm-1.281-4.047-1.93.266a3.133,3.133,0,0,0-1.344.441,1.273,1.273,0,0,0-.453,1.121,1.221,1.221,0,0,0,.418.957,1.615,1.615,0,0,0,1.113.371,2.056,2.056,0,0,0,1.574-.668,2.387,2.387,0,0,0,.621-1.691ZM70.617,41H69.336V36.406a3.466,3.466,0,0,0-.41-1.922,1.555,1.555,0,0,0-1.379-.594,1.708,1.708,0,0,0-1.395.75,2.869,2.869,0,0,0-.574,1.8V41H64.3V36.25q0-2.359-1.82-2.359a1.686,1.686,0,0,0-1.391.707,2.923,2.923,0,0,0-.547,1.84V41H59.258V33h1.281v1.266h.031a2.718,2.718,0,0,1,2.484-1.453,2.311,2.311,0,0,1,2.266,1.656,2.855,2.855,0,0,1,2.656-1.656q2.641,0,2.641,3.258Zm5.766.188a3.711,3.711,0,0,1-2.832-1.121,4.153,4.153,0,0,1-1.059-2.973,4.326,4.326,0,0,1,1.1-3.148,3.96,3.96,0,0,1,2.977-1.133,3.588,3.588,0,0,1,2.793,1.1,4.368,4.368,0,0,1,1,3.055,4.3,4.3,0,0,1-1.082,3.066A3.791,3.791,0,0,1,76.383,41.188Zm.094-7.3a2.437,2.437,0,0,0-1.953.84,3.449,3.449,0,0,0-.719,2.316,3.262,3.262,0,0,0,.727,2.242,2.469,2.469,0,0,0,1.945.82,2.342,2.342,0,0,0,1.91-.8,3.492,3.492,0,0,0,.668-2.289,3.552,3.552,0,0,0-.668-2.312A2.332,2.332,0,0,0,76.477,33.891Zm5.453,6.82V39.336a3.792,3.792,0,0,0,2.3.773q1.688,0,1.688-1.125a.976.976,0,0,0-.145-.543,1.44,1.44,0,0,0-.391-.395,3.007,3.007,0,0,0-.578-.309q-.332-.137-.715-.285a9.206,9.206,0,0,1-.934-.426,2.82,2.82,0,0,1-.672-.484,1.8,1.8,0,0,1-.406-.613,2.17,2.17,0,0,1-.137-.8,1.912,1.912,0,0,1,.258-1,2.286,2.286,0,0,1,.688-.727,3.206,3.206,0,0,1,.98-.441,4.349,4.349,0,0,1,1.137-.148,4.59,4.59,0,0,1,1.859.359v1.3a3.624,3.624,0,0,0-2.031-.578,2.374,2.374,0,0,0-.648.082,1.587,1.587,0,0,0-.5.23,1.065,1.065,0,0,0-.32.355.936.936,0,0,0-.113.457,1.1,1.1,0,0,0,.113.523,1.152,1.152,0,0,0,.332.375,2.538,2.538,0,0,0,.531.3q.313.133.711.289a9.9,9.9,0,0,1,.953.418,3.269,3.269,0,0,1,.719.484,1.893,1.893,0,0,1,.457.621,2,2,0,0,1,.16.836,1.971,1.971,0,0,1-.262,1.031,2.243,2.243,0,0,1-.7.727,3.2,3.2,0,0,1-1.008.43,4.976,4.976,0,0,1-1.2.141A4.539,4.539,0,0,1,81.93,40.711ZM94.867,41H93.586V29.156h1.281Zm8.32,0h-1.281V39.75h-.031a2.682,2.682,0,0,1-2.461,1.438,2.63,2.63,0,0,1-1.871-.633,2.192,2.192,0,0,1-.676-1.68q0-2.242,2.641-2.609l2.4-.336q0-2.039-1.648-2.039a3.938,3.938,0,0,0-2.609.984V33.563a4.958,4.958,0,0,1,2.719-.75q2.82,0,2.82,2.984Zm-1.281-4.047-1.93.266a3.133,3.133,0,0,0-1.344.441,1.273,1.273,0,0,0-.453,1.121,1.221,1.221,0,0,0,.418.957,1.615,1.615,0,0,0,1.113.371,2.056,2.056,0,0,0,1.574-.668,2.387,2.387,0,0,0,.621-1.691Zm3.211,3.758V39.336a3.792,3.792,0,0,0,2.3.773q1.688,0,1.688-1.125a.976.976,0,0,0-.145-.543,1.44,1.44,0,0,0-.391-.395,3.007,3.007,0,0,0-.578-.309q-.332-.137-.715-.285a9.206,9.206,0,0,1-.934-.426,2.82,2.82,0,0,1-.672-.484,1.8,1.8,0,0,1-.406-.613,2.17,2.17,0,0,1-.137-.8,1.912,1.912,0,0,1,.258-1,2.286,2.286,0,0,1,.688-.727,3.206,3.206,0,0,1,.98-.441,4.349,4.349,0,0,1,1.137-.148,4.59,4.59,0,0,1,1.859.359v1.3a3.624,3.624,0,0,0-2.031-.578,2.374,2.374,0,0,0-.648.082,1.587,1.587,0,0,0-.5.23,1.065,1.065,0,0,0-.32.355.936.936,0,0,0-.113.457,1.1,1.1,0,0,0,.113.523,1.152,1.152,0,0,0,.332.375,2.538,2.538,0,0,0,.531.3q.313.133.711.289a9.9,9.9,0,0,1,.953.418,3.269,3.269,0,0,1,.719.484,1.893,1.893,0,0,1,.457.621,2,2,0,0,1,.16.836,1.971,1.971,0,0,1-.262,1.031,2.243,2.243,0,0,1-.7.727,3.2,3.2,0,0,1-1.008.43,4.976,4.976,0,0,1-1.2.141A4.539,4.539,0,0,1,105.117,40.711ZM120.945,34.3a1.567,1.567,0,0,0-.969-.258,1.635,1.635,0,0,0-1.371.773,3.576,3.576,0,0,0-.551,2.109V41h-1.281V33h1.281v1.648h.031a2.793,2.793,0,0,1,.836-1.316,1.906,1.906,0,0,1,1.258-.473,2.092,2.092,0,0,1,.766.109Zm7.82,3.023h-5.648a2.992,2.992,0,0,0,.719,2.063,2.478,2.478,0,0,0,1.891.727,3.931,3.931,0,0,0,2.484-.891v1.2a4.643,4.643,0,0,1-2.789.766,3.381,3.381,0,0,1-2.664-1.09,4.461,4.461,0,0,1-.969-3.066,4.375,4.375,0,0,1,1.059-3.043,3.394,3.394,0,0,1,2.629-1.176,3.008,3.008,0,0,1,2.43,1.016,4.234,4.234,0,0,1,.859,2.82Zm-1.312-1.086a2.607,2.607,0,0,0-.535-1.727,1.823,1.823,0,0,0-1.465-.617,2.07,2.07,0,0,0-1.539.648,2.943,2.943,0,0,0-.781,1.7Zm8.7,4.4a4.163,4.163,0,0,1-2.187.555,3.622,3.622,0,0,1-2.762-1.113,4.035,4.035,0,0,1-1.051-2.887,4.435,4.435,0,0,1,1.133-3.176,3.963,3.963,0,0,1,3.023-1.2,4.208,4.208,0,0,1,1.859.391v1.313a3.258,3.258,0,0,0-1.906-.625,2.576,2.576,0,0,0-2.012.879,3.335,3.335,0,0,0-.785,2.309,3.176,3.176,0,0,0,.738,2.219,2.545,2.545,0,0,0,1.98.813,3.211,3.211,0,0,0,1.969-.7Zm5.281.555a3.711,3.711,0,0,1-2.832-1.121,4.153,4.153,0,0,1-1.059-2.973,4.326,4.326,0,0,1,1.1-3.148,3.96,3.96,0,0,1,2.977-1.133,3.588,3.588,0,0,1,2.793,1.1,4.368,4.368,0,0,1,1,3.055,4.3,4.3,0,0,1-1.082,3.066A3.791,3.791,0,0,1,141.438,41.188Zm.094-7.3a2.437,2.437,0,0,0-1.953.84,3.449,3.449,0,0,0-.719,2.316,3.262,3.262,0,0,0,.727,2.242,2.469,2.469,0,0,0,1.945.82,2.342,2.342,0,0,0,1.91-.8,3.492,3.492,0,0,0,.668-2.289,3.552,3.552,0,0,0-.668-2.312A2.332,2.332,0,0,0,141.531,33.891ZM158.828,41h-1.281V36.406a3.466,3.466,0,0,0-.41-1.922,1.555,1.555,0,0,0-1.379-.594,1.708,1.708,0,0,0-1.395.75,2.869,2.869,0,0,0-.574,1.8V41h-1.281V36.25q0-2.359-1.82-2.359a1.686,1.686,0,0,0-1.391.707,2.923,2.923,0,0,0-.547,1.84V41h-1.281V33h1.281v1.266h.031a2.718,2.718,0,0,1,2.484-1.453,2.311,2.311,0,0,1,2.266,1.656,2.855,2.855,0,0,1,2.656-1.656q2.641,0,2.641,3.258Zm8.852-3.68h-5.648a2.992,2.992,0,0,0,.719,2.063,2.478,2.478,0,0,0,1.891.727,3.931,3.931,0,0,0,2.484-.891v1.2a4.643,4.643,0,0,1-2.789.766,3.381,3.381,0,0,1-2.664-1.09,4.461,4.461,0,0,1-.969-3.066,4.374,4.374,0,0,1,1.059-3.043,3.394,3.394,0,0,1,2.629-1.176,3.008,3.008,0,0,1,2.43,1.016,4.234,4.234,0,0,1,.859,2.82Zm-1.312-1.086a2.607,2.607,0,0,0-.535-1.727,1.823,1.823,0,0,0-1.465-.617,2.07,2.07,0,0,0-1.539.648,2.943,2.943,0,0,0-.781,1.7ZM176.258,41h-1.281V36.438q0-2.547-1.859-2.547a2.017,2.017,0,0,0-1.59.723,2.679,2.679,0,0,0-.629,1.824V41h-1.281V33H170.9v1.328h.031a2.887,2.887,0,0,1,2.625-1.516,2.448,2.448,0,0,1,2.008.848,3.776,3.776,0,0,1,.7,2.449Zm9.242,0h-1.281V39.641h-.031a2.958,2.958,0,0,1-2.75,1.547,2.988,2.988,0,0,1-2.41-1.074,4.407,4.407,0,0,1-.9-2.926,4.794,4.794,0,0,1,1-3.18,3.3,3.3,0,0,1,2.664-1.2,2.564,2.564,0,0,1,2.4,1.3h.031V29.156H185.5Zm-1.281-3.617V36.2a2.289,2.289,0,0,0-.641-1.641,2.149,2.149,0,0,0-1.625-.672,2.212,2.212,0,0,0-1.844.859,3.766,3.766,0,0,0-.672,2.375,3.387,3.387,0,0,0,.645,2.184,2.107,2.107,0,0,0,1.73.8,2.188,2.188,0,0,0,1.738-.773A2.882,2.882,0,0,0,184.219,37.383ZM193.82,41h-1.281V39.75h-.031a2.682,2.682,0,0,1-2.461,1.438,2.63,2.63,0,0,1-1.871-.633,2.192,2.192,0,0,1-.676-1.68q0-2.242,2.641-2.609l2.4-.336q0-2.039-1.648-2.039a3.938,3.938,0,0,0-2.609.984V33.563a4.958,4.958,0,0,1,2.719-.75q2.82,0,2.82,2.984Zm-1.281-4.047-1.93.266a3.133,3.133,0,0,0-1.344.441,1.273,1.273,0,0,0-.453,1.121,1.221,1.221,0,0,0,.418.957,1.615,1.615,0,0,0,1.113.371,2.056,2.056,0,0,0,1.574-.668,2.387,2.387,0,0,0,.621-1.691Zm9.148,3.68a4.163,4.163,0,0,1-2.187.555,3.622,3.622,0,0,1-2.762-1.113,4.035,4.035,0,0,1-1.051-2.887,4.435,4.435,0,0,1,1.133-3.176,3.963,3.963,0,0,1,3.023-1.2,4.208,4.208,0,0,1,1.859.391v1.313a3.258,3.258,0,0,0-1.906-.625,2.576,2.576,0,0,0-2.012.879A3.335,3.335,0,0,0,197,37.078a3.176,3.176,0,0,0,.738,2.219,2.545,2.545,0,0,0,1.98.813,3.211,3.211,0,0,0,1.969-.7Zm2.594-9.664a.812.812,0,0,1-.586-.234.791.791,0,0,1-.242-.594.821.821,0,0,1,.828-.836.827.827,0,0,1,.6.238.835.835,0,0,1,0,1.184A.82.82,0,0,1,204.281,30.969ZM204.906,41h-1.281V33h1.281Zm5.938.188a3.711,3.711,0,0,1-2.832-1.121,4.153,4.153,0,0,1-1.059-2.973,4.326,4.326,0,0,1,1.1-3.148,3.96,3.96,0,0,1,2.977-1.133,3.588,3.588,0,0,1,2.793,1.1,4.368,4.368,0,0,1,1,3.055,4.3,4.3,0,0,1-1.082,3.066A3.791,3.791,0,0,1,210.844,41.188Zm.094-7.3a2.437,2.437,0,0,0-1.953.84,3.449,3.449,0,0,0-.719,2.316,3.262,3.262,0,0,0,.727,2.242,2.469,2.469,0,0,0,1.945.82,2.342,2.342,0,0,0,1.91-.8,3.492,3.492,0,0,0,.668-2.289,3.552,3.552,0,0,0-.668-2.312A2.332,2.332,0,0,0,210.938,33.891ZM223.516,41h-1.281V36.438q0-2.547-1.859-2.547a2.017,2.017,0,0,0-1.59.723,2.679,2.679,0,0,0-.629,1.824V41h-1.281V33h1.281v1.328h.031a2.887,2.887,0,0,1,2.625-1.516,2.448,2.448,0,0,1,2.008.848,3.776,3.776,0,0,1,.7,2.449Zm8.844-3.68h-5.648a2.992,2.992,0,0,0,.719,2.063,2.478,2.478,0,0,0,1.891.727,3.931,3.931,0,0,0,2.484-.891v1.2a4.643,4.643,0,0,1-2.789.766,3.381,3.381,0,0,1-2.664-1.09,4.461,4.461,0,0,1-.969-3.066,4.374,4.374,0,0,1,1.059-3.043,3.394,3.394,0,0,1,2.629-1.176,3.008,3.008,0,0,1,2.43,1.016,4.234,4.234,0,0,1,.859,2.82Zm-1.312-1.086a2.607,2.607,0,0,0-.535-1.727,1.823,1.823,0,0,0-1.465-.617,2.07,2.07,0,0,0-1.539.648,2.943,2.943,0,0,0-.781,1.7Zm2.766,4.477V39.336a3.792,3.792,0,0,0,2.3.773q1.688,0,1.688-1.125a.976.976,0,0,0-.145-.543,1.44,1.44,0,0,0-.391-.395,3.007,3.007,0,0,0-.578-.309q-.332-.137-.715-.285a9.206,9.206,0,0,1-.934-.426,2.82,2.82,0,0,1-.672-.484,1.8,1.8,0,0,1-.406-.613,2.17,2.17,0,0,1-.137-.8,1.912,1.912,0,0,1,.258-1,2.286,2.286,0,0,1,.688-.727,3.206,3.206,0,0,1,.98-.441,4.349,4.349,0,0,1,1.137-.148,4.59,4.59,0,0,1,1.859.359v1.3a3.624,3.624,0,0,0-2.031-.578,2.374,2.374,0,0,0-.648.082,1.587,1.587,0,0,0-.5.23,1.065,1.065,0,0,0-.32.355.936.936,0,0,0-.113.457,1.1,1.1,0,0,0,.113.523,1.152,1.152,0,0,0,.332.375,2.538,2.538,0,0,0,.531.3q.312.133.711.289a9.894,9.894,0,0,1,.953.418,3.269,3.269,0,0,1,.719.484,1.893,1.893,0,0,1,.457.621,2,2,0,0,1,.16.836,1.971,1.971,0,0,1-.262,1.031,2.243,2.243,0,0,1-.7.727,3.2,3.2,0,0,1-1.008.43,4.976,4.976,0,0,1-1.2.141A4.539,4.539,0,0,1,233.813,40.711ZM12.656,65H11.375V60.406a3.466,3.466,0,0,0-.41-1.922,1.555,1.555,0,0,0-1.379-.594,1.708,1.708,0,0,0-1.395.75,2.869,2.869,0,0,0-.574,1.8V65H6.336V60.25q0-2.359-1.82-2.359a1.686,1.686,0,0,0-1.391.707,2.923,2.923,0,0,0-.547,1.84V65H1.3V57H2.578v1.266h.031a2.718,2.718,0,0,1,2.484-1.453,2.311,2.311,0,0,1,2.266,1.656,2.855,2.855,0,0,1,2.656-1.656q2.641,0,2.641,3.258Zm3.7,0H15.078V57h1.281Zm1.148-12.078-2.047,2.563h-.992l1.742-2.562ZM25.594,65H24.313V60.438q0-2.547-1.859-2.547a2.017,2.017,0,0,0-1.59.723,2.679,2.679,0,0,0-.629,1.824V65H18.953V57h1.281v1.328h.031a2.887,2.887,0,0,1,2.625-1.516,2.448,2.448,0,0,1,2.008.848,3.776,3.776,0,0,1,.7,2.449Zm3.07-10.031a.812.812,0,0,1-.586-.234.791.791,0,0,1-.242-.594.821.821,0,0,1,.828-.836.827.827,0,0,1,.6.238.835.835,0,0,1,0,1.184A.82.82,0,0,1,28.664,54.969ZM29.289,65H28.008V57h1.281Zm13.953,0H41.961V60.406a3.466,3.466,0,0,0-.41-1.922,1.555,1.555,0,0,0-1.379-.594,1.708,1.708,0,0,0-1.395.75,2.869,2.869,0,0,0-.574,1.8V65H36.922V60.25q0-2.359-1.82-2.359a1.686,1.686,0,0,0-1.391.707,2.923,2.923,0,0,0-.547,1.84V65H31.883V57h1.281v1.266H33.2a2.718,2.718,0,0,1,2.484-1.453,2.311,2.311,0,0,1,2.266,1.656A2.855,2.855,0,0,1,40.6,56.813q2.641,0,2.641,3.258Zm8.148,0H50.109V63.75h-.031a2.682,2.682,0,0,1-2.461,1.438,2.63,2.63,0,0,1-1.871-.633,2.192,2.192,0,0,1-.676-1.68q0-2.242,2.641-2.609l2.4-.336q0-2.039-1.648-2.039a3.938,3.938,0,0,0-2.609.984V57.563a4.958,4.958,0,0,1,2.719-.75q2.82,0,2.82,2.984Zm-1.281-4.047-1.93.266a3.133,3.133,0,0,0-1.344.441,1.273,1.273,0,0,0-.453,1.121,1.221,1.221,0,0,0,.418.957,1.615,1.615,0,0,0,1.113.371,2.056,2.056,0,0,0,1.574-.668,2.387,2.387,0,0,0,.621-1.691Zm3.211,3.758V63.336a3.792,3.792,0,0,0,2.3.773q1.688,0,1.688-1.125a.976.976,0,0,0-.145-.543,1.44,1.44,0,0,0-.391-.395,3.007,3.007,0,0,0-.578-.309q-.332-.137-.715-.285a9.206,9.206,0,0,1-.934-.426,2.82,2.82,0,0,1-.672-.484,1.8,1.8,0,0,1-.406-.613,2.17,2.17,0,0,1-.137-.8,1.912,1.912,0,0,1,.258-1,2.286,2.286,0,0,1,.688-.727,3.206,3.206,0,0,1,.98-.441,4.349,4.349,0,0,1,1.137-.148,4.59,4.59,0,0,1,1.859.359v1.3a3.624,3.624,0,0,0-2.031-.578,2.374,2.374,0,0,0-.648.082,1.587,1.587,0,0,0-.5.23,1.065,1.065,0,0,0-.32.355.936.936,0,0,0-.113.457,1.1,1.1,0,0,0,.113.523,1.152,1.152,0,0,0,.332.375,2.538,2.538,0,0,0,.531.3q.312.133.711.289a9.894,9.894,0,0,1,.953.418,3.269,3.269,0,0,1,.719.484,1.893,1.893,0,0,1,.457.621,2,2,0,0,1,.16.836,1.971,1.971,0,0,1-.262,1.031,2.243,2.243,0,0,1-.7.727,3.2,3.2,0,0,1-1.008.43,4.976,4.976,0,0,1-1.2.141A4.539,4.539,0,0,1,53.32,64.711Zm12.969-.867h-.031V68.68H64.977V57h1.281v1.406h.031a3.03,3.03,0,0,1,2.766-1.594,2.93,2.93,0,0,1,2.414,1.074,4.449,4.449,0,0,1,.867,2.879,4.959,4.959,0,0,1-.977,3.215,3.251,3.251,0,0,1-2.672,1.207A2.676,2.676,0,0,1,66.289,63.844Zm-.031-3.227v1.117a2.379,2.379,0,0,0,.645,1.684,2.3,2.3,0,0,0,3.461-.2,4.086,4.086,0,0,0,.66-2.477,3.225,3.225,0,0,0-.617-2.094,2.043,2.043,0,0,0-1.672-.758,2.27,2.27,0,0,0-1.8.777A2.854,2.854,0,0,0,66.258,60.617ZM80.109,65H78.828V63.75H78.8a2.682,2.682,0,0,1-2.461,1.438,2.63,2.63,0,0,1-1.871-.633,2.192,2.192,0,0,1-.676-1.68q0-2.242,2.641-2.609l2.4-.336q0-2.039-1.648-2.039a3.938,3.938,0,0,0-2.609.984V57.563a4.958,4.958,0,0,1,2.719-.75q2.82,0,2.82,2.984Zm-1.281-4.047-1.93.266a3.133,3.133,0,0,0-1.344.441,1.273,1.273,0,0,0-.453,1.121,1.221,1.221,0,0,0,.418.957,1.615,1.615,0,0,0,1.113.371,2.056,2.056,0,0,0,1.574-.668,2.387,2.387,0,0,0,.621-1.691ZM86.7,58.3a1.567,1.567,0,0,0-.969-.258,1.635,1.635,0,0,0-1.371.773,3.576,3.576,0,0,0-.551,2.109V65H82.523V57H83.8v1.648h.031a2.793,2.793,0,0,1,.836-1.316,1.906,1.906,0,0,1,1.258-.473,2.092,2.092,0,0,1,.766.109ZM93.813,65H92.531V63.75H92.5a2.682,2.682,0,0,1-2.461,1.438,2.63,2.63,0,0,1-1.871-.633,2.192,2.192,0,0,1-.676-1.68q0-2.242,2.641-2.609l2.4-.336q0-2.039-1.648-2.039a3.938,3.938,0,0,0-2.609.984V57.563a4.958,4.958,0,0,1,2.719-.75q2.82,0,2.82,2.984Zm-1.281-4.047-1.93.266a3.133,3.133,0,0,0-1.344.441,1.273,1.273,0,0,0-.453,1.121,1.221,1.221,0,0,0,.418.957,1.615,1.615,0,0,0,1.113.371,2.056,2.056,0,0,0,1.574-.668,2.387,2.387,0,0,0,.621-1.691ZM107.25,65h-1.281V60.391q0-2.5-1.859-2.5a2.027,2.027,0,0,0-1.578.723,2.693,2.693,0,0,0-.641,1.855V65h-1.281V53.156h1.281v5.172h.031a2.91,2.91,0,0,1,2.625-1.516q2.7,0,2.7,3.258Zm8.141,0h-1.281V63.75h-.031a2.682,2.682,0,0,1-2.461,1.438,2.63,2.63,0,0,1-1.871-.633,2.192,2.192,0,0,1-.676-1.68q0-2.242,2.641-2.609l2.4-.336q0-2.039-1.648-2.039a3.938,3.938,0,0,0-2.609.984V57.563a4.958,4.958,0,0,1,2.719-.75q2.82,0,2.82,2.984Zm-1.281-4.047-1.93.266a3.133,3.133,0,0,0-1.344.441,1.273,1.273,0,0,0-.453,1.121,1.221,1.221,0,0,0,.418.957,1.615,1.615,0,0,0,1.113.371,2.056,2.056,0,0,0,1.574-.668,2.387,2.387,0,0,0,.621-1.691Zm9.148,3.68a4.163,4.163,0,0,1-2.187.555,3.622,3.622,0,0,1-2.762-1.113,4.035,4.035,0,0,1-1.051-2.887,4.435,4.435,0,0,1,1.133-3.176,3.963,3.963,0,0,1,3.023-1.2,4.209,4.209,0,0,1,1.859.391v1.313a3.258,3.258,0,0,0-1.906-.625,2.576,2.576,0,0,0-2.012.879,3.335,3.335,0,0,0-.785,2.309,3.176,3.176,0,0,0,.738,2.219,2.545,2.545,0,0,0,1.98.813,3.211,3.211,0,0,0,1.969-.7Zm8.367-3.312h-5.648a2.992,2.992,0,0,0,.719,2.063,2.478,2.478,0,0,0,1.891.727,3.931,3.931,0,0,0,2.484-.891v1.2a4.643,4.643,0,0,1-2.789.766,3.381,3.381,0,0,1-2.664-1.09,4.461,4.461,0,0,1-.969-3.066,4.375,4.375,0,0,1,1.059-3.043,3.394,3.394,0,0,1,2.629-1.176,3.008,3.008,0,0,1,2.43,1.016,4.234,4.234,0,0,1,.859,2.82Zm-1.312-1.086a2.607,2.607,0,0,0-.535-1.727,1.823,1.823,0,0,0-1.465-.617,2.07,2.07,0,0,0-1.539.648,2.943,2.943,0,0,0-.781,1.7Zm7.422-1.937a1.567,1.567,0,0,0-.969-.258,1.635,1.635,0,0,0-1.371.773,3.576,3.576,0,0,0-.551,2.109V65h-1.281V57h1.281v1.648h.031a2.794,2.794,0,0,1,.836-1.316,1.906,1.906,0,0,1,1.258-.473,2.092,2.092,0,0,1,.766.109ZM149.977,65H148.7V63.734h-.031a2.631,2.631,0,0,1-2.469,1.453q-2.859,0-2.859-3.406V57h1.273v4.578q0,2.531,1.938,2.531a1.96,1.96,0,0,0,1.543-.691,2.645,2.645,0,0,0,.605-1.809V57h1.281Zm9.227,0h-1.281V60.438q0-2.547-1.859-2.547a2.017,2.017,0,0,0-1.59.723,2.679,2.679,0,0,0-.629,1.824V65h-1.281V57h1.281v1.328h.031a2.887,2.887,0,0,1,2.625-1.516,2.448,2.448,0,0,1,2.008.848,3.776,3.776,0,0,1,.7,2.449Zm8.141,0h-1.281V63.75h-.031a2.682,2.682,0,0,1-2.461,1.438,2.63,2.63,0,0,1-1.871-.633,2.192,2.192,0,0,1-.676-1.68q0-2.242,2.641-2.609l2.4-.336q0-2.039-1.648-2.039a3.938,3.938,0,0,0-2.609.984V57.563a4.958,4.958,0,0,1,2.719-.75q2.82,0,2.82,2.984Zm-1.281-4.047-1.93.266a3.133,3.133,0,0,0-1.344.441,1.273,1.273,0,0,0-.453,1.121,1.221,1.221,0,0,0,.418.957,1.615,1.615,0,0,0,1.113.371,2.056,2.056,0,0,0,1.574-.668,2.387,2.387,0,0,0,.621-1.691Zm7.594,3.758V63.336a3.792,3.792,0,0,0,2.3.773q1.688,0,1.688-1.125a.976.976,0,0,0-.145-.543,1.44,1.44,0,0,0-.391-.395,3.007,3.007,0,0,0-.578-.309q-.332-.137-.715-.285a9.206,9.206,0,0,1-.934-.426,2.82,2.82,0,0,1-.672-.484,1.8,1.8,0,0,1-.406-.613,2.17,2.17,0,0,1-.137-.8,1.912,1.912,0,0,1,.258-1,2.286,2.286,0,0,1,.688-.727,3.206,3.206,0,0,1,.98-.441,4.349,4.349,0,0,1,1.137-.148,4.59,4.59,0,0,1,1.859.359v1.3a3.624,3.624,0,0,0-2.031-.578,2.374,2.374,0,0,0-.648.082,1.587,1.587,0,0,0-.5.23,1.065,1.065,0,0,0-.32.355.936.936,0,0,0-.113.457,1.1,1.1,0,0,0,.113.523,1.152,1.152,0,0,0,.332.375,2.538,2.538,0,0,0,.531.3q.312.133.711.289a9.894,9.894,0,0,1,.953.418,3.269,3.269,0,0,1,.719.484,1.893,1.893,0,0,1,.457.621,2,2,0,0,1,.16.836,1.971,1.971,0,0,1-.262,1.031,2.243,2.243,0,0,1-.7.727,3.2,3.2,0,0,1-1.008.43,4.976,4.976,0,0,1-1.2.141A4.539,4.539,0,0,1,173.656,64.711Zm13,.289h-1.281V63.75h-.031a2.682,2.682,0,0,1-2.461,1.438,2.63,2.63,0,0,1-1.871-.633,2.192,2.192,0,0,1-.676-1.68q0-2.242,2.641-2.609l2.4-.336q0-2.039-1.648-2.039a3.938,3.938,0,0,0-2.609.984V57.563a4.958,4.958,0,0,1,2.719-.75q2.82,0,2.82,2.984Zm-1.281-4.047-1.93.266a3.133,3.133,0,0,0-1.344.441,1.273,1.273,0,0,0-.453,1.121,1.221,1.221,0,0,0,.418.957,1.615,1.615,0,0,0,1.113.371,2.056,2.056,0,0,0,1.574-.668,2.387,2.387,0,0,0,.621-1.691ZM190.352,65H189.07V53.156h1.281Zm3.25-10.031a.812.812,0,0,1-.586-.234.791.791,0,0,1-.242-.594.821.821,0,0,1,.828-.836.827.827,0,0,1,.6.238.835.835,0,0,1,0,1.184A.82.82,0,0,1,193.6,54.969ZM194.227,65h-1.281V57h1.281Zm9.422,0h-1.281V63.641h-.031a2.958,2.958,0,0,1-2.75,1.547,2.988,2.988,0,0,1-2.41-1.074,4.407,4.407,0,0,1-.9-2.926,4.794,4.794,0,0,1,1-3.18,3.3,3.3,0,0,1,2.664-1.2,2.564,2.564,0,0,1,2.4,1.3h.031V53.156h1.281Zm-1.281-3.617V60.2a2.289,2.289,0,0,0-.641-1.641,2.149,2.149,0,0,0-1.625-.672,2.212,2.212,0,0,0-1.844.859,3.766,3.766,0,0,0-.672,2.375,3.387,3.387,0,0,0,.645,2.184,2.107,2.107,0,0,0,1.73.8,2.188,2.188,0,0,0,1.738-.773A2.882,2.882,0,0,0,202.367,61.383Zm9.6,3.617h-1.281V63.75h-.031a2.682,2.682,0,0,1-2.461,1.438,2.63,2.63,0,0,1-1.871-.633,2.192,2.192,0,0,1-.676-1.68q0-2.242,2.641-2.609l2.4-.336q0-2.039-1.648-2.039a3.938,3.938,0,0,0-2.609.984V57.563a4.958,4.958,0,0,1,2.719-.75q2.82,0,2.82,2.984Zm-1.281-4.047-1.93.266a3.133,3.133,0,0,0-1.344.441,1.273,1.273,0,0,0-.453,1.121,1.221,1.221,0,0,0,.418.957,1.615,1.615,0,0,0,1.113.371,2.056,2.056,0,0,0,1.574-.668,2.387,2.387,0,0,0,.621-1.691ZM225.594,65h-1.281V63.641h-.031a2.958,2.958,0,0,1-2.75,1.547,2.988,2.988,0,0,1-2.41-1.074,4.407,4.407,0,0,1-.9-2.926,4.794,4.794,0,0,1,1-3.18,3.3,3.3,0,0,1,2.664-1.2,2.564,2.564,0,0,1,2.4,1.3h.031V53.156h1.281Zm-1.281-3.617V60.2a2.289,2.289,0,0,0-.641-1.641,2.149,2.149,0,0,0-1.625-.672,2.212,2.212,0,0,0-1.844.859,3.766,3.766,0,0,0-.672,2.375,3.387,3.387,0,0,0,.645,2.184,2.107,2.107,0,0,0,1.73.8,2.188,2.188,0,0,0,1.738-.773A2.882,2.882,0,0,0,224.313,61.383Zm10.3-.062h-5.648a2.992,2.992,0,0,0,.719,2.063,2.478,2.478,0,0,0,1.891.727,3.931,3.931,0,0,0,2.484-.891v1.2a4.643,4.643,0,0,1-2.789.766,3.381,3.381,0,0,1-2.664-1.09,4.461,4.461,0,0,1-.969-3.066,4.374,4.374,0,0,1,1.059-3.043,3.394,3.394,0,0,1,2.629-1.176,3.008,3.008,0,0,1,2.43,1.016,4.234,4.234,0,0,1,.859,2.82ZM233.3,60.234a2.607,2.607,0,0,0-.535-1.727,1.823,1.823,0,0,0-1.465-.617,2.07,2.07,0,0,0-1.539.648,2.943,2.943,0,0,0-.781,1.7ZM7.727,85.32H2.078A2.992,2.992,0,0,0,2.8,87.383a2.478,2.478,0,0,0,1.891.727,3.931,3.931,0,0,0,2.484-.891v1.2a4.643,4.643,0,0,1-2.789.766A3.381,3.381,0,0,1,1.719,88.1,4.461,4.461,0,0,1,.75,85.031a4.375,4.375,0,0,1,1.059-3.043,3.394,3.394,0,0,1,2.629-1.176,3.008,3.008,0,0,1,2.43,1.016,4.234,4.234,0,0,1,.859,2.82ZM6.414,84.234a2.607,2.607,0,0,0-.535-1.727,1.823,1.823,0,0,0-1.465-.617,2.07,2.07,0,0,0-1.539.648,2.943,2.943,0,0,0-.781,1.7ZM9.18,88.711V87.336a3.792,3.792,0,0,0,2.3.773q1.688,0,1.688-1.125a.976.976,0,0,0-.145-.543,1.44,1.44,0,0,0-.391-.395,3.007,3.007,0,0,0-.578-.309q-.332-.137-.715-.285a9.207,9.207,0,0,1-.934-.426,2.82,2.82,0,0,1-.672-.484,1.8,1.8,0,0,1-.406-.613,2.17,2.17,0,0,1-.137-.8,1.912,1.912,0,0,1,.258-1,2.286,2.286,0,0,1,.688-.727,3.206,3.206,0,0,1,.98-.441,4.349,4.349,0,0,1,1.137-.148,4.59,4.59,0,0,1,1.859.359v1.3a3.624,3.624,0,0,0-2.031-.578,2.374,2.374,0,0,0-.648.082,1.587,1.587,0,0,0-.5.23,1.065,1.065,0,0,0-.32.355.936.936,0,0,0-.113.457,1.1,1.1,0,0,0,.113.523,1.152,1.152,0,0,0,.332.375,2.538,2.538,0,0,0,.531.3q.312.133.711.289a9.894,9.894,0,0,1,.953.418,3.269,3.269,0,0,1,.719.484,1.893,1.893,0,0,1,.457.621,2,2,0,0,1,.16.836,1.971,1.971,0,0,1-.262,1.031,2.243,2.243,0,0,1-.7.727,3.2,3.2,0,0,1-1.008.43,4.976,4.976,0,0,1-1.2.141A4.539,4.539,0,0,1,9.18,88.711Zm10.984.211a2.47,2.47,0,0,1-1.2.25q-2.1,0-2.1-2.344V82.094H15.492V81h1.375V79.047l1.281-.414V81h2.016v1.094H18.148V86.6a1.869,1.869,0,0,0,.273,1.148,1.091,1.091,0,0,0,.906.344,1.347,1.347,0,0,0,.836-.266Zm8.141-3.6H22.656a2.992,2.992,0,0,0,.719,2.063,2.478,2.478,0,0,0,1.891.727,3.931,3.931,0,0,0,2.484-.891v1.2a4.643,4.643,0,0,1-2.789.766A3.381,3.381,0,0,1,22.3,88.1a4.461,4.461,0,0,1-.969-3.066,4.375,4.375,0,0,1,1.059-3.043,3.394,3.394,0,0,1,2.629-1.176,3.008,3.008,0,0,1,2.43,1.016,4.234,4.234,0,0,1,.859,2.82Zm-1.312-1.086a2.607,2.607,0,0,0-.535-1.727,1.823,1.823,0,0,0-1.465-.617,2.07,2.07,0,0,0-1.539.648,2.943,2.943,0,0,0-.781,1.7Zm11.344,4.688a2.47,2.47,0,0,1-1.2.25q-2.1,0-2.1-2.344V82.094H33.664V81h1.375V79.047l1.281-.414V81h2.016v1.094H36.32V86.6a1.869,1.869,0,0,0,.273,1.148,1.091,1.091,0,0,0,.906.344,1.347,1.347,0,0,0,.836-.266ZM40.7,78.969a.812.812,0,0,1-.586-.234.791.791,0,0,1-.242-.594A.821.821,0,0,1,40.7,77.3a.827.827,0,0,1,.6.238.835.835,0,0,1,0,1.184A.82.82,0,0,1,40.7,78.969ZM41.328,89H40.047V81h1.281Zm3.906-1.156H45.2V92.68H43.922V81H45.2v1.406h.031A3.03,3.03,0,0,1,48,80.813a2.93,2.93,0,0,1,2.414,1.074,4.449,4.449,0,0,1,.867,2.879A4.959,4.959,0,0,1,50.3,87.98a3.251,3.251,0,0,1-2.672,1.207A2.676,2.676,0,0,1,45.234,87.844ZM45.2,84.617v1.117a2.379,2.379,0,0,0,.645,1.684,2.3,2.3,0,0,0,3.461-.2,4.086,4.086,0,0,0,.66-2.477,3.225,3.225,0,0,0-.617-2.094,2.043,2.043,0,0,0-1.672-.758,2.27,2.27,0,0,0-1.8.777A2.854,2.854,0,0,0,45.2,84.617Zm11.469,4.57a3.711,3.711,0,0,1-2.832-1.121,4.153,4.153,0,0,1-1.059-2.973,4.326,4.326,0,0,1,1.1-3.148,3.96,3.96,0,0,1,2.977-1.133,3.588,3.588,0,0,1,2.793,1.1,4.368,4.368,0,0,1,1,3.055,4.3,4.3,0,0,1-1.082,3.066A3.791,3.791,0,0,1,56.672,89.188Zm.094-7.3a2.437,2.437,0,0,0-1.953.84,3.449,3.449,0,0,0-.719,2.316,3.262,3.262,0,0,0,.727,2.242,2.469,2.469,0,0,0,1.945.82,2.342,2.342,0,0,0,1.91-.8,3.492,3.492,0,0,0,.668-2.289,3.552,3.552,0,0,0-.668-2.312A2.332,2.332,0,0,0,56.766,81.891Zm14.422,7.25a.816.816,0,0,1-.605-.25.836.836,0,0,1-.246-.609.876.876,0,0,1,.246-.621.8.8,0,0,1,.605-.262.815.815,0,0,1,.605.262.862.862,0,0,1,.254.621.823.823,0,0,1-.254.609A.833.833,0,0,1,71.188,89.141Zm-3.922,0a.842.842,0,0,1-.613-.25.823.823,0,0,1-.254-.609.862.862,0,0,1,.254-.621.823.823,0,0,1,.613-.262.815.815,0,0,1,.605.262.862.862,0,0,1,.254.621.823.823,0,0,1-.254.609A.833.833,0,0,1,67.266,89.141Zm-3.922,0a.8.8,0,0,1-.6-.25.843.843,0,0,1-.242-.609.884.884,0,0,1,.242-.621.786.786,0,0,1,.6-.262.815.815,0,0,1,.605.262.862.862,0,0,1,.254.621.854.854,0,0,1-.859.859Zm16.781-1.3h-.031V92.68H78.813V81h1.281v1.406h.031a3.03,3.03,0,0,1,2.766-1.594A2.93,2.93,0,0,1,85.3,81.887a4.449,4.449,0,0,1,.867,2.879A4.959,4.959,0,0,1,85.2,87.98a3.251,3.251,0,0,1-2.672,1.207A2.676,2.676,0,0,1,80.125,87.844Zm-.031-3.227v1.117a2.379,2.379,0,0,0,.645,1.684,2.3,2.3,0,0,0,3.461-.2,4.086,4.086,0,0,0,.66-2.477,3.225,3.225,0,0,0-.617-2.094,2.043,2.043,0,0,0-1.672-.758,2.27,2.27,0,0,0-1.8.777A2.854,2.854,0,0,0,80.094,84.617Zm11.469,4.57a3.711,3.711,0,0,1-2.832-1.121,4.153,4.153,0,0,1-1.059-2.973,4.326,4.326,0,0,1,1.1-3.148,3.96,3.96,0,0,1,2.977-1.133,3.588,3.588,0,0,1,2.793,1.1,4.368,4.368,0,0,1,1,3.055,4.3,4.3,0,0,1-1.082,3.066A3.791,3.791,0,0,1,91.563,89.188Zm.094-7.3a2.437,2.437,0,0,0-1.953.84,3.449,3.449,0,0,0-.719,2.316,3.262,3.262,0,0,0,.727,2.242,2.469,2.469,0,0,0,1.945.82,2.342,2.342,0,0,0,1.91-.8,3.492,3.492,0,0,0,.668-2.289,3.552,3.552,0,0,0-.668-2.312A2.332,2.332,0,0,0,91.656,81.891Zm10.109.406a1.567,1.567,0,0,0-.969-.258,1.635,1.635,0,0,0-1.371.773,3.576,3.576,0,0,0-.551,2.109V89H97.594V81h1.281v1.648h.031a2.793,2.793,0,0,1,.836-1.316A1.906,1.906,0,0,1,101,80.859a2.092,2.092,0,0,1,.766.109Zm8.219,10.383H108.7V87.625h-.031a2.867,2.867,0,0,1-2.734,1.563,3.011,3.011,0,0,1-2.418-1.074,4.381,4.381,0,0,1-.91-2.926,4.791,4.791,0,0,1,1-3.184,3.328,3.328,0,0,1,2.688-1.191,2.523,2.523,0,0,1,2.375,1.3h.031V81h1.281ZM108.7,85.4V84.234a2.328,2.328,0,0,0-.645-1.664,2.158,2.158,0,0,0-1.637-.68,2.2,2.2,0,0,0-1.828.855,3.819,3.819,0,0,0-.672,2.41,3.308,3.308,0,0,0,.648,2.168,2.069,2.069,0,0,0,1.672.785,2.254,2.254,0,0,0,1.793-.77A2.855,2.855,0,0,0,108.7,85.4ZM119.047,89h-1.281V87.734h-.031a2.631,2.631,0,0,1-2.469,1.453q-2.859,0-2.859-3.406V81h1.273v4.578q0,2.531,1.938,2.531a1.96,1.96,0,0,0,1.543-.691,2.645,2.645,0,0,0,.605-1.809V81h1.281Zm9.016-3.68h-5.648a2.992,2.992,0,0,0,.719,2.063,2.478,2.478,0,0,0,1.891.727,3.931,3.931,0,0,0,2.484-.891v1.2a4.643,4.643,0,0,1-2.789.766,3.381,3.381,0,0,1-2.664-1.09,4.461,4.461,0,0,1-.969-3.066,4.375,4.375,0,0,1,1.059-3.043,3.394,3.394,0,0,1,2.629-1.176,3.008,3.008,0,0,1,2.43,1.016,4.234,4.234,0,0,1,.859,2.82Zm-1.312-1.086a2.607,2.607,0,0,0-.535-1.727,1.823,1.823,0,0,0-1.465-.617,2.07,2.07,0,0,0-1.539.648,2.943,2.943,0,0,0-.781,1.7ZM141.211,89H139.93V87.641H139.9a2.958,2.958,0,0,1-2.75,1.547,2.988,2.988,0,0,1-2.41-1.074,4.407,4.407,0,0,1-.9-2.926,4.794,4.794,0,0,1,1-3.18,3.3,3.3,0,0,1,2.664-1.2,2.564,2.564,0,0,1,2.4,1.3h.031V77.156h1.281Zm-1.281-3.617V84.2a2.289,2.289,0,0,0-.641-1.641,2.149,2.149,0,0,0-1.625-.672,2.212,2.212,0,0,0-1.844.859,3.766,3.766,0,0,0-.672,2.375,3.387,3.387,0,0,0,.645,2.184,2.107,2.107,0,0,0,1.73.8,2.188,2.188,0,0,0,1.738-.773A2.882,2.882,0,0,0,139.93,85.383Zm10.3-.062h-5.648a2.992,2.992,0,0,0,.719,2.063,2.478,2.478,0,0,0,1.891.727,3.931,3.931,0,0,0,2.484-.891v1.2a4.643,4.643,0,0,1-2.789.766,3.381,3.381,0,0,1-2.664-1.09,4.461,4.461,0,0,1-.969-3.066,4.374,4.374,0,0,1,1.059-3.043,3.394,3.394,0,0,1,2.629-1.176,3.008,3.008,0,0,1,2.43,1.016,4.234,4.234,0,0,1,.859,2.82Zm-1.312-1.086a2.607,2.607,0,0,0-.535-1.727,1.823,1.823,0,0,0-1.465-.617,2.07,2.07,0,0,0-1.539.648,2.943,2.943,0,0,0-.781,1.7Zm14.063,1.086h-5.648a2.992,2.992,0,0,0,.719,2.063,2.478,2.478,0,0,0,1.891.727,3.931,3.931,0,0,0,2.484-.891v1.2a4.643,4.643,0,0,1-2.789.766,3.381,3.381,0,0,1-2.664-1.09,4.461,4.461,0,0,1-.969-3.066,4.374,4.374,0,0,1,1.059-3.043,3.394,3.394,0,0,1,2.629-1.176,3.008,3.008,0,0,1,2.43,1.016,4.234,4.234,0,0,1,.859,2.82Zm-1.312-1.086a2.607,2.607,0,0,0-.535-1.727,1.823,1.823,0,0,0-1.465-.617,2.07,2.07,0,0,0-1.539.648,2.943,2.943,0,0,0-.781,1.7Zm2.766,4.477V87.336a3.792,3.792,0,0,0,2.3.773q1.688,0,1.688-1.125a.976.976,0,0,0-.145-.543,1.441,1.441,0,0,0-.391-.395,3.007,3.007,0,0,0-.578-.309q-.332-.137-.715-.285a9.207,9.207,0,0,1-.934-.426,2.82,2.82,0,0,1-.672-.484,1.8,1.8,0,0,1-.406-.613,2.17,2.17,0,0,1-.137-.8,1.912,1.912,0,0,1,.258-1,2.286,2.286,0,0,1,.688-.727,3.206,3.206,0,0,1,.98-.441,4.349,4.349,0,0,1,1.137-.148,4.59,4.59,0,0,1,1.859.359v1.3a3.624,3.624,0,0,0-2.031-.578,2.374,2.374,0,0,0-.648.082,1.587,1.587,0,0,0-.5.23,1.065,1.065,0,0,0-.32.355.936.936,0,0,0-.113.457,1.1,1.1,0,0,0,.113.523,1.152,1.152,0,0,0,.332.375,2.538,2.538,0,0,0,.531.3q.312.133.711.289a9.894,9.894,0,0,1,.953.418,3.269,3.269,0,0,1,.719.484,1.893,1.893,0,0,1,.457.621,2,2,0,0,1,.16.836,1.971,1.971,0,0,1-.262,1.031,2.243,2.243,0,0,1-.7.727,3.2,3.2,0,0,1-1.008.43,4.976,4.976,0,0,1-1.2.141A4.539,4.539,0,0,1,164.438,88.711Zm10.617.477a3.711,3.711,0,0,1-2.832-1.121,4.153,4.153,0,0,1-1.059-2.973,4.326,4.326,0,0,1,1.1-3.148,3.96,3.96,0,0,1,2.977-1.133,3.588,3.588,0,0,1,2.793,1.1,4.368,4.368,0,0,1,1,3.055,4.3,4.3,0,0,1-1.082,3.066A3.791,3.791,0,0,1,175.055,89.188Zm.094-7.3a2.437,2.437,0,0,0-1.953.84,3.449,3.449,0,0,0-.719,2.316,3.262,3.262,0,0,0,.727,2.242,2.469,2.469,0,0,0,1.945.82,2.342,2.342,0,0,0,1.91-.8,3.492,3.492,0,0,0,.668-2.289,3.552,3.552,0,0,0-.668-2.312A2.332,2.332,0,0,0,175.148,81.891ZM192.3,89h-1.281V87.641h-.031a2.958,2.958,0,0,1-2.75,1.547,2.988,2.988,0,0,1-2.41-1.074,4.407,4.407,0,0,1-.9-2.926,4.794,4.794,0,0,1,1-3.18,3.3,3.3,0,0,1,2.664-1.2,2.564,2.564,0,0,1,2.4,1.3h.031V77.156H192.3Zm-1.281-3.617V84.2a2.289,2.289,0,0,0-.641-1.641,2.149,2.149,0,0,0-1.625-.672,2.212,2.212,0,0,0-1.844.859,3.766,3.766,0,0,0-.672,2.375,3.387,3.387,0,0,0,.645,2.184,2.107,2.107,0,0,0,1.73.8,2.188,2.188,0,0,0,1.738-.773A2.882,2.882,0,0,0,191.016,85.383Zm10.3-.062h-5.648a2.992,2.992,0,0,0,.719,2.063,2.478,2.478,0,0,0,1.891.727,3.931,3.931,0,0,0,2.484-.891v1.2a4.643,4.643,0,0,1-2.789.766,3.381,3.381,0,0,1-2.664-1.09,4.461,4.461,0,0,1-.969-3.066,4.374,4.374,0,0,1,1.059-3.043,3.394,3.394,0,0,1,2.629-1.176,3.008,3.008,0,0,1,2.43,1.016,4.234,4.234,0,0,1,.859,2.82Zm-1.312-1.086a2.607,2.607,0,0,0-.535-1.727,1.823,1.823,0,0,0-1.465-.617,2.07,2.07,0,0,0-1.539.648,2.943,2.943,0,0,0-.781,1.7Zm4.563,3.609h-.031V92.68h-1.281V81h1.281v1.406h.031a3.03,3.03,0,0,1,2.766-1.594,2.93,2.93,0,0,1,2.414,1.074,4.449,4.449,0,0,1,.867,2.879,4.959,4.959,0,0,1-.977,3.215,3.251,3.251,0,0,1-2.672,1.207A2.676,2.676,0,0,1,204.57,87.844Zm-.031-3.227v1.117a2.379,2.379,0,0,0,.645,1.684,2.3,2.3,0,0,0,3.461-.2,4.086,4.086,0,0,0,.66-2.477,3.225,3.225,0,0,0-.617-2.094,2.043,2.043,0,0,0-1.672-.758,2.27,2.27,0,0,0-1.8.777A2.854,2.854,0,0,0,204.539,84.617Zm14.555.7h-5.648a2.992,2.992,0,0,0,.719,2.063,2.478,2.478,0,0,0,1.891.727,3.931,3.931,0,0,0,2.484-.891v1.2a4.643,4.643,0,0,1-2.789.766,3.381,3.381,0,0,1-2.664-1.09,4.461,4.461,0,0,1-.969-3.066,4.374,4.374,0,0,1,1.059-3.043,3.394,3.394,0,0,1,2.629-1.176,3.008,3.008,0,0,1,2.43,1.016,4.234,4.234,0,0,1,.859,2.82Zm-1.312-1.086a2.607,2.607,0,0,0-.535-1.727,1.823,1.823,0,0,0-1.465-.617,2.07,2.07,0,0,0-1.539.648,2.943,2.943,0,0,0-.781,1.7ZM227.672,89h-1.281V84.438q0-2.547-1.859-2.547a2.017,2.017,0,0,0-1.59.723,2.679,2.679,0,0,0-.629,1.824V89h-1.281V81h1.281v1.328h.031a2.887,2.887,0,0,1,2.625-1.516,2.448,2.448,0,0,1,2.008.848,3.776,3.776,0,0,1,.7,2.449Zm9.242,0h-1.281V87.641H235.6a2.958,2.958,0,0,1-2.75,1.547,2.988,2.988,0,0,1-2.41-1.074,4.407,4.407,0,0,1-.9-2.926,4.794,4.794,0,0,1,1-3.18,3.3,3.3,0,0,1,2.664-1.2,2.564,2.564,0,0,1,2.4,1.3h.031V77.156h1.281Zm-1.281-3.617V84.2a2.289,2.289,0,0,0-.641-1.641,2.149,2.149,0,0,0-1.625-.672,2.212,2.212,0,0,0-1.844.859,3.766,3.766,0,0,0-.672,2.375,3.387,3.387,0,0,0,.645,2.184,2.107,2.107,0,0,0,1.73.8,2.188,2.188,0,0,0,1.738-.773A2.882,2.882,0,0,0,235.633,85.383Zm10.3-.062h-5.648a2.992,2.992,0,0,0,.719,2.063,2.478,2.478,0,0,0,1.891.727,3.931,3.931,0,0,0,2.484-.891v1.2a4.643,4.643,0,0,1-2.789.766,3.381,3.381,0,0,1-2.664-1.09,4.461,4.461,0,0,1-.969-3.066,4.374,4.374,0,0,1,1.059-3.043,3.394,3.394,0,0,1,2.629-1.176,3.008,3.008,0,0,1,2.43,1.016,4.234,4.234,0,0,1,.859,2.82Zm-1.312-1.086a2.607,2.607,0,0,0-.535-1.727,1.823,1.823,0,0,0-1.465-.617,2.07,2.07,0,0,0-1.539.648,2.943,2.943,0,0,0-.781,1.7ZM7.766,113H6.484v-1.266H6.453a2.631,2.631,0,0,1-2.469,1.453q-2.859,0-2.859-3.406V105H2.4v4.578q0,2.531,1.938,2.531a1.96,1.96,0,0,0,1.543-.691,2.645,2.645,0,0,0,.605-1.809V105H7.766Zm9.227,0H15.711v-4.562q0-2.547-1.859-2.547a2.017,2.017,0,0,0-1.59.723,2.679,2.679,0,0,0-.629,1.824V113H10.352v-8h1.281v1.328h.031a2.887,2.887,0,0,1,2.625-1.516,2.448,2.448,0,0,1,2.008.848,3.776,3.776,0,0,1,.7,2.449Zm8.109-1.156H25.07V113H23.789V101.156H25.07v5.25H25.1a3.03,3.03,0,0,1,2.766-1.594,2.932,2.932,0,0,1,2.41,1.074,4.436,4.436,0,0,1,.871,2.879,4.959,4.959,0,0,1-.977,3.215,3.251,3.251,0,0,1-2.672,1.207A2.631,2.631,0,0,1,25.1,111.844Zm-.031-3.227v1.117a2.379,2.379,0,0,0,.645,1.684,2.3,2.3,0,0,0,3.461-.2,4.086,4.086,0,0,0,.66-2.477,3.225,3.225,0,0,0-.617-2.094,2.043,2.043,0,0,0-1.672-.758,2.27,2.27,0,0,0-1.8.777A2.854,2.854,0,0,0,25.07,108.617ZM39.664,113H38.383v-1.266h-.031a2.631,2.631,0,0,1-2.469,1.453q-2.859,0-2.859-3.406V105H34.3v4.578q0,2.531,1.938,2.531a1.96,1.96,0,0,0,1.543-.691,2.645,2.645,0,0,0,.605-1.809V105h1.281Zm9.016-3.68H43.031a2.992,2.992,0,0,0,.719,2.063,2.478,2.478,0,0,0,1.891.727,3.931,3.931,0,0,0,2.484-.891v1.2a4.643,4.643,0,0,1-2.789.766,3.381,3.381,0,0,1-2.664-1.09,4.461,4.461,0,0,1-.969-3.066,4.375,4.375,0,0,1,1.059-3.043,3.394,3.394,0,0,1,2.629-1.176,3.008,3.008,0,0,1,2.43,1.016,4.234,4.234,0,0,1,.859,2.82Zm-1.312-1.086a2.607,2.607,0,0,0-.535-1.727,1.823,1.823,0,0,0-1.465-.617,2.07,2.07,0,0,0-1.539.648,2.943,2.943,0,0,0-.781,1.7ZM57.258,113H55.977v-4.562q0-2.547-1.859-2.547a2.017,2.017,0,0,0-1.59.723,2.679,2.679,0,0,0-.629,1.824V113H50.617v-8H51.9v1.328h.031a2.887,2.887,0,0,1,2.625-1.516,2.448,2.448,0,0,1,2.008.848,3.776,3.776,0,0,1,.7,2.449Zm10.508-.078a2.47,2.47,0,0,1-1.2.25q-2.1,0-2.1-2.344v-4.734H63.094V105h1.375v-1.953l1.281-.414V105h2.016v1.094H65.75V110.6a1.869,1.869,0,0,0,.273,1.148,1.091,1.091,0,0,0,.906.344,1.347,1.347,0,0,0,.836-.266Zm5.883-6.625a1.567,1.567,0,0,0-.969-.258,1.635,1.635,0,0,0-1.371.773,3.576,3.576,0,0,0-.551,2.109V113H69.477v-8h1.281v1.648h.031a2.793,2.793,0,0,1,.836-1.316,1.906,1.906,0,0,1,1.258-.473,2.092,2.092,0,0,1,.766.109Zm7.117,6.7H79.484v-1.25h-.031a2.682,2.682,0,0,1-2.461,1.438,2.63,2.63,0,0,1-1.871-.633,2.192,2.192,0,0,1-.676-1.68q0-2.242,2.641-2.609l2.4-.336q0-2.039-1.648-2.039a3.938,3.938,0,0,0-2.609.984v-1.312a4.958,4.958,0,0,1,2.719-.75q2.82,0,2.82,2.984Zm-1.281-4.047-1.93.266a3.133,3.133,0,0,0-1.344.441,1.273,1.273,0,0,0-.453,1.121,1.221,1.221,0,0,0,.418.957,1.615,1.615,0,0,0,1.113.371,2.056,2.056,0,0,0,1.574-.668,2.387,2.387,0,0,0,.621-1.691Zm5.008,2.891h-.031V113H83.18V101.156h1.281v5.25h.031a3.03,3.03,0,0,1,2.766-1.594,2.932,2.932,0,0,1,2.41,1.074,4.436,4.436,0,0,1,.871,2.879,4.959,4.959,0,0,1-.977,3.215,3.251,3.251,0,0,1-2.672,1.207A2.631,2.631,0,0,1,84.492,111.844Zm-.031-3.227v1.117a2.379,2.379,0,0,0,.645,1.684,2.3,2.3,0,0,0,3.461-.2,4.086,4.086,0,0,0,.66-2.477,3.225,3.225,0,0,0-.617-2.094,2.043,2.043,0,0,0-1.672-.758,2.27,2.27,0,0,0-1.8.777A2.854,2.854,0,0,0,84.461,108.617ZM98.313,113H97.031v-1.25H97a2.682,2.682,0,0,1-2.461,1.438,2.63,2.63,0,0,1-1.871-.633,2.192,2.192,0,0,1-.676-1.68q0-2.242,2.641-2.609l2.4-.336q0-2.039-1.648-2.039a3.938,3.938,0,0,0-2.609.984v-1.312a4.958,4.958,0,0,1,2.719-.75q2.82,0,2.82,2.984Zm-1.281-4.047-1.93.266a3.133,3.133,0,0,0-1.344.441,1.273,1.273,0,0,0-.453,1.121,1.221,1.221,0,0,0,.418.957,1.615,1.615,0,0,0,1.113.371,2.056,2.056,0,0,0,1.574-.668,2.387,2.387,0,0,0,.621-1.691Zm4.977,3.711a5.014,5.014,0,0,1-.793,3.035,2.658,2.658,0,0,1-2.27,1.066,2.409,2.409,0,0,1-1.062-.25v-1.2a2.12,2.12,0,0,0,1.094.352q1.75,0,1.75-2.8V105h1.281Zm-.625-9.7a.812.812,0,0,1-.586-.234.791.791,0,0,1-.242-.594.821.821,0,0,1,.828-.836.827.827,0,0,1,.6.238.835.835,0,0,1,0,1.184A.82.82,0,0,1,101.383,102.969Zm6.563,10.219a3.711,3.711,0,0,1-2.832-1.121,4.153,4.153,0,0,1-1.059-2.973,4.326,4.326,0,0,1,1.1-3.148,3.96,3.96,0,0,1,2.977-1.133,3.588,3.588,0,0,1,2.793,1.1,4.368,4.368,0,0,1,1,3.055,4.3,4.3,0,0,1-1.082,3.066A3.791,3.791,0,0,1,107.945,113.188Zm.094-7.3a2.437,2.437,0,0,0-1.953.84,3.449,3.449,0,0,0-.719,2.316,3.262,3.262,0,0,0,.727,2.242,2.469,2.469,0,0,0,1.945.82,2.342,2.342,0,0,0,1.91-.8,3.492,3.492,0,0,0,.668-2.289,3.552,3.552,0,0,0-.668-2.312A2.332,2.332,0,0,0,108.039,105.891Zm15.773,6.742a4.163,4.163,0,0,1-2.187.555,3.622,3.622,0,0,1-2.762-1.113,4.035,4.035,0,0,1-1.051-2.887,4.435,4.435,0,0,1,1.133-3.176,3.963,3.963,0,0,1,3.023-1.2,4.209,4.209,0,0,1,1.859.391v1.313a3.258,3.258,0,0,0-1.906-.625,2.576,2.576,0,0,0-2.012.879,3.335,3.335,0,0,0-.785,2.309,3.176,3.176,0,0,0,.738,2.219,2.545,2.545,0,0,0,1.98.813,3.211,3.211,0,0,0,1.969-.7Zm5.281.555a3.711,3.711,0,0,1-2.832-1.121,4.153,4.153,0,0,1-1.059-2.973,4.326,4.326,0,0,1,1.1-3.148,3.96,3.96,0,0,1,2.977-1.133,3.588,3.588,0,0,1,2.793,1.1,4.368,4.368,0,0,1,1,3.055A4.3,4.3,0,0,1,132,112.035,3.791,3.791,0,0,1,129.094,113.188Zm.094-7.3a2.437,2.437,0,0,0-1.953.84,3.449,3.449,0,0,0-.719,2.316,3.262,3.262,0,0,0,.727,2.242,2.469,2.469,0,0,0,1.945.82,2.342,2.342,0,0,0,1.91-.8,3.492,3.492,0,0,0,.668-2.289,3.552,3.552,0,0,0-.668-2.312A2.332,2.332,0,0,0,129.188,105.891ZM136.406,113h-1.281V101.156h1.281Zm9.023-3.68h-5.648a2.992,2.992,0,0,0,.719,2.063,2.478,2.478,0,0,0,1.891.727,3.931,3.931,0,0,0,2.484-.891v1.2a4.643,4.643,0,0,1-2.789.766,3.381,3.381,0,0,1-2.664-1.09,4.461,4.461,0,0,1-.969-3.066,4.374,4.374,0,0,1,1.059-3.043,3.394,3.394,0,0,1,2.629-1.176,3.008,3.008,0,0,1,2.43,1.016,4.234,4.234,0,0,1,.859,2.82Zm-1.312-1.086a2.607,2.607,0,0,0-.535-1.727,1.823,1.823,0,0,0-1.465-.617,2.07,2.07,0,0,0-1.539.648,2.943,2.943,0,0,0-.781,1.7Zm8.7,4.4a4.163,4.163,0,0,1-2.187.555,3.622,3.622,0,0,1-2.762-1.113,4.035,4.035,0,0,1-1.051-2.887,4.435,4.435,0,0,1,1.133-3.176,3.963,3.963,0,0,1,3.023-1.2,4.209,4.209,0,0,1,1.859.391v1.313a3.258,3.258,0,0,0-1.906-.625,2.576,2.576,0,0,0-2.012.879,3.335,3.335,0,0,0-.785,2.309,3.176,3.176,0,0,0,.738,2.219,2.545,2.545,0,0,0,1.98.813,3.211,3.211,0,0,0,1.969-.7Zm5.648.289a2.47,2.47,0,0,1-1.2.25q-2.1,0-2.1-2.344v-4.734H153.8V105h1.375v-1.953l1.281-.414V105h2.016v1.094h-2.016V110.6a1.869,1.869,0,0,0,.273,1.148,1.091,1.091,0,0,0,.906.344,1.347,1.347,0,0,0,.836-.266Zm2.367-9.953a.812.812,0,0,1-.586-.234.791.791,0,0,1-.242-.594.821.821,0,0,1,.828-.836.827.827,0,0,1,.6.238.835.835,0,0,1,0,1.184A.82.82,0,0,1,160.836,102.969ZM161.461,113H160.18v-8h1.281Zm8.883-8-3.187,8H165.9l-3.031-8h1.406l2.031,5.813a5.216,5.216,0,0,1,.281,1.117h.031a5.283,5.283,0,0,1,.25-1.086L168.992,105Zm4.719,8.188a3.711,3.711,0,0,1-2.832-1.121,4.153,4.153,0,0,1-1.059-2.973,4.326,4.326,0,0,1,1.1-3.148,3.96,3.96,0,0,1,2.977-1.133,3.588,3.588,0,0,1,2.793,1.1,4.368,4.368,0,0,1,1,3.055,4.3,4.3,0,0,1-1.082,3.066A3.791,3.791,0,0,1,175.063,113.188Zm.094-7.3a2.437,2.437,0,0,0-1.953.84,3.449,3.449,0,0,0-.719,2.316,3.262,3.262,0,0,0,.727,2.242,2.469,2.469,0,0,0,1.945.82,2.342,2.342,0,0,0,1.91-.8,3.492,3.492,0,0,0,.668-2.289,3.552,3.552,0,0,0-.668-2.312A2.332,2.332,0,0,0,175.156,105.891Zm15.773,6.742a4.163,4.163,0,0,1-2.187.555,3.622,3.622,0,0,1-2.762-1.113,4.035,4.035,0,0,1-1.051-2.887,4.435,4.435,0,0,1,1.133-3.176,3.963,3.963,0,0,1,3.023-1.2,4.209,4.209,0,0,1,1.859.391v1.313a3.258,3.258,0,0,0-1.906-.625,2.576,2.576,0,0,0-2.012.879,3.335,3.335,0,0,0-.785,2.309,3.176,3.176,0,0,0,.738,2.219,2.545,2.545,0,0,0,1.98.813,3.211,3.211,0,0,0,1.969-.7Zm8.406.367h-1.281v-1.266h-.031a2.631,2.631,0,0,1-2.469,1.453q-2.859,0-2.859-3.406V105h1.273v4.578q0,2.531,1.938,2.531a1.96,1.96,0,0,0,1.543-.691,2.645,2.645,0,0,0,.605-1.809V105h1.281Zm8.313,0h-1.281v-1.25h-.031a2.682,2.682,0,0,1-2.461,1.438,2.63,2.63,0,0,1-1.871-.633,2.192,2.192,0,0,1-.676-1.68q0-2.242,2.641-2.609l2.4-.336q0-2.039-1.648-2.039a3.938,3.938,0,0,0-2.609.984v-1.312a4.958,4.958,0,0,1,2.719-.75q2.82,0,2.82,2.984Zm-1.281-4.047-1.93.266a3.133,3.133,0,0,0-1.344.441,1.273,1.273,0,0,0-.453,1.121,1.221,1.221,0,0,0,.418.957,1.615,1.615,0,0,0,1.113.371,2.056,2.056,0,0,0,1.574-.668,2.387,2.387,0,0,0,.621-1.691ZM216.7,113h-1.281v-4.562q0-2.547-1.859-2.547a2.017,2.017,0,0,0-1.59.723,2.679,2.679,0,0,0-.629,1.824V113h-1.281v-8h1.281v1.328h.031A2.887,2.887,0,0,1,214,104.813a2.448,2.448,0,0,1,2.008.848,3.776,3.776,0,0,1,.7,2.449Zm9.242,0h-1.281v-1.359h-.031a2.958,2.958,0,0,1-2.75,1.547,2.988,2.988,0,0,1-2.41-1.074,4.407,4.407,0,0,1-.9-2.926,4.794,4.794,0,0,1,1-3.18,3.3,3.3,0,0,1,2.664-1.2,2.564,2.564,0,0,1,2.4,1.3h.031v-4.953h1.281Zm-1.281-3.617V108.2a2.289,2.289,0,0,0-.641-1.641,2.149,2.149,0,0,0-1.625-.672,2.212,2.212,0,0,0-1.844.859,3.766,3.766,0,0,0-.672,2.375,3.387,3.387,0,0,0,.645,2.184,2.107,2.107,0,0,0,1.73.8,2.188,2.188,0,0,0,1.738-.773A2.882,2.882,0,0,0,224.664,109.383Zm7.219,3.8a3.711,3.711,0,0,1-2.832-1.121,4.153,4.153,0,0,1-1.059-2.973,4.326,4.326,0,0,1,1.1-3.148,3.96,3.96,0,0,1,2.977-1.133,3.588,3.588,0,0,1,2.793,1.1,4.368,4.368,0,0,1,1,3.055,4.3,4.3,0,0,1-1.082,3.066A3.791,3.791,0,0,1,231.883,113.188Zm.094-7.3a2.437,2.437,0,0,0-1.953.84,3.449,3.449,0,0,0-.719,2.316,3.262,3.262,0,0,0,.727,2.242,2.469,2.469,0,0,0,1.945.82,2.342,2.342,0,0,0,1.91-.8,3.492,3.492,0,0,0,.668-2.289,3.552,3.552,0,0,0-.668-2.312A2.332,2.332,0,0,0,231.977,105.891ZM7.727,133.32H2.078a2.992,2.992,0,0,0,.719,2.063,2.478,2.478,0,0,0,1.891.727,3.931,3.931,0,0,0,2.484-.891v1.2a4.643,4.643,0,0,1-2.789.766,3.381,3.381,0,0,1-2.664-1.09,4.461,4.461,0,0,1-.969-3.066,4.375,4.375,0,0,1,1.059-3.043,3.394,3.394,0,0,1,2.629-1.176,3.008,3.008,0,0,1,2.43,1.016,4.234,4.234,0,0,1,.859,2.82Zm-1.312-1.086a2.607,2.607,0,0,0-.535-1.727,1.823,1.823,0,0,0-1.465-.617,2.07,2.07,0,0,0-1.539.648,2.943,2.943,0,0,0-.781,1.7Zm2.766,4.477v-1.375a3.792,3.792,0,0,0,2.3.773q1.688,0,1.688-1.125a.976.976,0,0,0-.145-.543,1.44,1.44,0,0,0-.391-.395,3.007,3.007,0,0,0-.578-.309q-.332-.137-.715-.285a9.206,9.206,0,0,1-.934-.426,2.82,2.82,0,0,1-.672-.484,1.8,1.8,0,0,1-.406-.613,2.17,2.17,0,0,1-.137-.8,1.912,1.912,0,0,1,.258-1,2.286,2.286,0,0,1,.688-.727,3.206,3.206,0,0,1,.98-.441,4.349,4.349,0,0,1,1.137-.148,4.59,4.59,0,0,1,1.859.359v1.3a3.624,3.624,0,0,0-2.031-.578,2.374,2.374,0,0,0-.648.082,1.588,1.588,0,0,0-.5.23,1.065,1.065,0,0,0-.32.355.936.936,0,0,0-.113.457,1.1,1.1,0,0,0,.113.523,1.152,1.152,0,0,0,.332.375,2.538,2.538,0,0,0,.531.3q.312.133.711.289a9.894,9.894,0,0,1,.953.418,3.269,3.269,0,0,1,.719.484,1.893,1.893,0,0,1,.457.621,2,2,0,0,1,.16.836,1.971,1.971,0,0,1-.262,1.031,2.243,2.243,0,0,1-.7.727,3.2,3.2,0,0,1-1.008.43,4.976,4.976,0,0,1-1.2.141A4.539,4.539,0,0,1,9.18,136.711Zm10.984.211a2.47,2.47,0,0,1-1.2.25q-2.1,0-2.1-2.344v-4.734H15.492V129h1.375v-1.953l1.281-.414V129h2.016v1.094H18.148V134.6a1.869,1.869,0,0,0,.273,1.148,1.091,1.091,0,0,0,.906.344,1.347,1.347,0,0,0,.836-.266Zm8.141-3.6H22.656a2.992,2.992,0,0,0,.719,2.063,2.478,2.478,0,0,0,1.891.727,3.931,3.931,0,0,0,2.484-.891v1.2a4.643,4.643,0,0,1-2.789.766A3.381,3.381,0,0,1,22.3,136.1a4.461,4.461,0,0,1-.969-3.066,4.375,4.375,0,0,1,1.059-3.043,3.394,3.394,0,0,1,2.629-1.176,3.008,3.008,0,0,1,2.43,1.016,4.234,4.234,0,0,1,.859,2.82Zm-1.312-1.086a2.607,2.607,0,0,0-.535-1.727,1.823,1.823,0,0,0-1.465-.617,2.07,2.07,0,0,0-1.539.648,2.943,2.943,0,0,0-.781,1.7ZM41.6,137H40.32v-4.594a3.466,3.466,0,0,0-.41-1.922,1.555,1.555,0,0,0-1.379-.594,1.708,1.708,0,0,0-1.395.75,2.869,2.869,0,0,0-.574,1.8V137H35.281v-4.75q0-2.359-1.82-2.359a1.686,1.686,0,0,0-1.391.707,2.923,2.923,0,0,0-.547,1.84V137H30.242v-8h1.281v1.266h.031a2.718,2.718,0,0,1,2.484-1.453,2.311,2.311,0,0,1,2.266,1.656,2.855,2.855,0,0,1,2.656-1.656q2.641,0,2.641,3.258Zm5.766.188a3.711,3.711,0,0,1-2.832-1.121,4.153,4.153,0,0,1-1.059-2.973,4.326,4.326,0,0,1,1.1-3.148,3.96,3.96,0,0,1,2.977-1.133,3.588,3.588,0,0,1,2.793,1.1,4.368,4.368,0,0,1,1,3.055,4.3,4.3,0,0,1-1.082,3.066A3.791,3.791,0,0,1,47.367,137.188Zm.094-7.3a2.437,2.437,0,0,0-1.953.84,3.449,3.449,0,0,0-.719,2.316,3.262,3.262,0,0,0,.727,2.242,2.469,2.469,0,0,0,1.945.82,2.342,2.342,0,0,0,1.91-.8,3.492,3.492,0,0,0,.668-2.289,3.552,3.552,0,0,0-.668-2.312A2.332,2.332,0,0,0,47.461,129.891Zm5.453,6.82v-1.375a3.792,3.792,0,0,0,2.3.773q1.688,0,1.688-1.125a.976.976,0,0,0-.145-.543,1.44,1.44,0,0,0-.391-.395,3.007,3.007,0,0,0-.578-.309q-.332-.137-.715-.285a9.206,9.206,0,0,1-.934-.426,2.82,2.82,0,0,1-.672-.484,1.8,1.8,0,0,1-.406-.613,2.17,2.17,0,0,1-.137-.8,1.912,1.912,0,0,1,.258-1,2.286,2.286,0,0,1,.688-.727,3.206,3.206,0,0,1,.98-.441,4.349,4.349,0,0,1,1.137-.148,4.59,4.59,0,0,1,1.859.359v1.3a3.624,3.624,0,0,0-2.031-.578,2.374,2.374,0,0,0-.648.082,1.588,1.588,0,0,0-.5.23,1.065,1.065,0,0,0-.32.355.936.936,0,0,0-.113.457,1.1,1.1,0,0,0,.113.523,1.152,1.152,0,0,0,.332.375,2.538,2.538,0,0,0,.531.3q.312.133.711.289a9.894,9.894,0,0,1,.953.418,3.269,3.269,0,0,1,.719.484,1.893,1.893,0,0,1,.457.621,2,2,0,0,1,.16.836,1.971,1.971,0,0,1-.262,1.031,2.243,2.243,0,0,1-.7.727,3.2,3.2,0,0,1-1.008.43,4.976,4.976,0,0,1-1.2.141A4.539,4.539,0,0,1,52.914,136.711ZM70.3,137H69.016v-1.25h-.031a2.682,2.682,0,0,1-2.461,1.438,2.63,2.63,0,0,1-1.871-.633,2.192,2.192,0,0,1-.676-1.68q0-2.242,2.641-2.609l2.4-.336q0-2.039-1.648-2.039a3.938,3.938,0,0,0-2.609.984v-1.312a4.958,4.958,0,0,1,2.719-.75q2.82,0,2.82,2.984Zm-1.281-4.047-1.93.266a3.133,3.133,0,0,0-1.344.441,1.273,1.273,0,0,0-.453,1.121,1.221,1.221,0,0,0,.418.957,1.615,1.615,0,0,0,1.113.371,2.056,2.056,0,0,0,1.574-.668,2.387,2.387,0,0,0,.621-1.691ZM73.992,137H72.711V125.156h1.281Zm3.875,0H76.586V125.156h1.281Zm3.875,0H80.461v-8h1.281Zm1.148-12.078-2.047,2.563h-.992l1.742-2.562Zm9.93,12.219a.816.816,0,0,1-.605-.25.836.836,0,0,1-.246-.609.876.876,0,0,1,.246-.621.8.8,0,0,1,.605-.262.815.815,0,0,1,.605.262.862.862,0,0,1,.254.621.823.823,0,0,1-.254.609A.833.833,0,0,1,92.82,137.141Zm-3.922,0a.842.842,0,0,1-.613-.25.823.823,0,0,1-.254-.609.862.862,0,0,1,.254-.621.823.823,0,0,1,.613-.262.815.815,0,0,1,.605.262.862.862,0,0,1,.254.621.823.823,0,0,1-.254.609A.833.833,0,0,1,88.9,137.141Zm-3.922,0a.8.8,0,0,1-.6-.25.843.843,0,0,1-.242-.609.884.884,0,0,1,.242-.621.786.786,0,0,1,.6-.262.815.815,0,0,1,.605.262.862.862,0,0,1,.254.621.854.854,0,0,1-.859.859Zm19.18-.219a2.47,2.47,0,0,1-1.2.25q-2.1,0-2.1-2.344v-4.734H99.484V129h1.375v-1.953l1.281-.414V129h2.016v1.094h-2.016V134.6a1.869,1.869,0,0,0,.273,1.148,1.091,1.091,0,0,0,.906.344,1.347,1.347,0,0,0,.836-.266Zm8.141-3.6h-5.648a2.992,2.992,0,0,0,.719,2.063,2.478,2.478,0,0,0,1.891.727,3.931,3.931,0,0,0,2.484-.891v1.2a4.643,4.643,0,0,1-2.789.766,3.381,3.381,0,0,1-2.664-1.09,4.461,4.461,0,0,1-.969-3.066,4.375,4.375,0,0,1,1.059-3.043,3.394,3.394,0,0,1,2.629-1.176,3.008,3.008,0,0,1,2.43,1.016,4.234,4.234,0,0,1,.859,2.82Zm-1.312-1.086a2.607,2.607,0,0,0-.535-1.727,1.823,1.823,0,0,0-1.465-.617,2.07,2.07,0,0,0-1.539.648,2.943,2.943,0,0,0-.781,1.7ZM124.906,129l-3.187,8h-1.258l-3.031-8h1.406l2.031,5.813a5.217,5.217,0,0,1,.281,1.117h.031a5.283,5.283,0,0,1,.25-1.086L123.555,129Zm4.719,8.188a3.711,3.711,0,0,1-2.832-1.121,4.153,4.153,0,0,1-1.059-2.973,4.326,4.326,0,0,1,1.1-3.148,3.96,3.96,0,0,1,2.977-1.133,3.588,3.588,0,0,1,2.793,1.1,4.368,4.368,0,0,1,1,3.055,4.3,4.3,0,0,1-1.082,3.066A3.791,3.791,0,0,1,129.625,137.188Zm.094-7.3a2.437,2.437,0,0,0-1.953.84,3.449,3.449,0,0,0-.719,2.316,3.262,3.262,0,0,0,.727,2.242,2.469,2.469,0,0,0,1.945.82,2.342,2.342,0,0,0,1.91-.8,3.492,3.492,0,0,0,.668-2.289,3.552,3.552,0,0,0-.668-2.312A2.332,2.332,0,0,0,129.719,129.891Zm12.3-.891-3.68,9.281q-.984,2.484-2.766,2.484a2.932,2.932,0,0,1-.836-.1v-1.148a2.375,2.375,0,0,0,.758.141,1.57,1.57,0,0,0,1.453-1.156l.641-1.516L134.469,129h1.422l2.164,6.156q.039.117.164.609h.047q.039-.187.156-.594L140.7,129Zm11.484,8h-1.281v-1.25H152.2a2.682,2.682,0,0,1-2.461,1.438,2.63,2.63,0,0,1-1.871-.633,2.192,2.192,0,0,1-.676-1.68q0-2.242,2.641-2.609l2.4-.336q0-2.039-1.648-2.039a3.938,3.938,0,0,0-2.609.984v-1.312a4.958,4.958,0,0,1,2.719-.75q2.82,0,2.82,2.984Zm-1.281-4.047-1.93.266a3.133,3.133,0,0,0-1.344.441,1.273,1.273,0,0,0-.453,1.121,1.221,1.221,0,0,0,.418.957,1.615,1.615,0,0,0,1.113.371,2.056,2.056,0,0,0,1.574-.668,2.387,2.387,0,0,0,.621-1.691Zm13.531,3.68a4.163,4.163,0,0,1-2.187.555,3.622,3.622,0,0,1-2.762-1.113,4.035,4.035,0,0,1-1.051-2.887,4.435,4.435,0,0,1,1.133-3.176,3.963,3.963,0,0,1,3.023-1.2,4.208,4.208,0,0,1,1.859.391v1.313a3.258,3.258,0,0,0-1.906-.625,2.576,2.576,0,0,0-2.012.879,3.335,3.335,0,0,0-.785,2.309,3.176,3.176,0,0,0,.738,2.219,2.545,2.545,0,0,0,1.98.813,3.211,3.211,0,0,0,1.969-.7Zm5.281.555a3.711,3.711,0,0,1-2.832-1.121,4.153,4.153,0,0,1-1.059-2.973,4.326,4.326,0,0,1,1.1-3.148,3.96,3.96,0,0,1,2.977-1.133,3.588,3.588,0,0,1,2.793,1.1,4.368,4.368,0,0,1,1,3.055,4.3,4.3,0,0,1-1.082,3.066A3.791,3.791,0,0,1,171.039,137.188Zm.094-7.3a2.437,2.437,0,0,0-1.953.84,3.449,3.449,0,0,0-.719,2.316,3.262,3.262,0,0,0,.727,2.242,2.469,2.469,0,0,0,1.945.82,2.342,2.342,0,0,0,1.91-.8,3.492,3.492,0,0,0,.668-2.289,3.552,3.552,0,0,0-.668-2.312A2.332,2.332,0,0,0,171.133,129.891ZM188.43,137h-1.281v-4.594a3.466,3.466,0,0,0-.41-1.922,1.555,1.555,0,0,0-1.379-.594,1.708,1.708,0,0,0-1.395.75,2.869,2.869,0,0,0-.574,1.8V137h-1.281v-4.75q0-2.359-1.82-2.359a1.686,1.686,0,0,0-1.391.707,2.923,2.923,0,0,0-.547,1.84V137H177.07v-8h1.281v1.266h.031a2.718,2.718,0,0,1,2.484-1.453,2.311,2.311,0,0,1,2.266,1.656,2.855,2.855,0,0,1,2.656-1.656q2.641,0,2.641,3.258Zm8.852-3.68h-5.648a2.992,2.992,0,0,0,.719,2.063,2.478,2.478,0,0,0,1.891.727,3.931,3.931,0,0,0,2.484-.891v1.2a4.643,4.643,0,0,1-2.789.766,3.381,3.381,0,0,1-2.664-1.09,4.461,4.461,0,0,1-.969-3.066,4.374,4.374,0,0,1,1.059-3.043,3.394,3.394,0,0,1,2.629-1.176,3.008,3.008,0,0,1,2.43,1.016,4.234,4.234,0,0,1,.859,2.82Zm-1.312-1.086a2.607,2.607,0,0,0-.535-1.727,1.823,1.823,0,0,0-1.465-.617,2.07,2.07,0,0,0-1.539.648,2.943,2.943,0,0,0-.781,1.7ZM205.859,137h-1.281v-4.562q0-2.547-1.859-2.547a2.017,2.017,0,0,0-1.59.723,2.679,2.679,0,0,0-.629,1.824V137h-1.281v-8H200.5v1.328h.031a2.887,2.887,0,0,1,2.625-1.516,2.448,2.448,0,0,1,2.008.848,3.776,3.776,0,0,1,.7,2.449Zm6.125-.078a2.47,2.47,0,0,1-1.2.25q-2.1,0-2.1-2.344v-4.734h-1.375V129h1.375v-1.953l1.281-.414V129h2.016v1.094h-2.016V134.6a1.869,1.869,0,0,0,.273,1.148,1.091,1.091,0,0,0,.906.344,1.347,1.347,0,0,0,.836-.266Zm7.438.078h-1.281v-1.25h-.031a2.682,2.682,0,0,1-2.461,1.438,2.63,2.63,0,0,1-1.871-.633,2.192,2.192,0,0,1-.676-1.68q0-2.242,2.641-2.609l2.4-.336q0-2.039-1.648-2.039a3.938,3.938,0,0,0-2.609.984v-1.312a4.958,4.958,0,0,1,2.719-.75q2.82,0,2.82,2.984Zm-1.281-4.047-1.93.266a3.133,3.133,0,0,0-1.344.441,1.273,1.273,0,0,0-.453,1.121,1.221,1.221,0,0,0,.418.957,1.615,1.615,0,0,0,1.113.371,2.056,2.056,0,0,0,1.574-.668,2.387,2.387,0,0,0,.621-1.691Zm7.867-2.656a1.567,1.567,0,0,0-.969-.258,1.635,1.635,0,0,0-1.371.773,3.576,3.576,0,0,0-.551,2.109V137h-1.281v-8h1.281v1.648h.031a2.794,2.794,0,0,1,.836-1.316,1.906,1.906,0,0,1,1.258-.473,2.092,2.092,0,0,1,.766.109Zm1.836.266a.829.829,0,0,1-.613-.258.849.849,0,0,1-.254-.617.823.823,0,0,1,.254-.609.842.842,0,0,1,.613-.25.865.865,0,0,1,.625.25.817.817,0,0,1,.258.609.842.842,0,0,1-.258.617A.851.851,0,0,1,227.844,130.563Zm0,6.609a.829.829,0,0,1-.613-.258.849.849,0,0,1-.254-.617.862.862,0,0,1,.254-.621.823.823,0,0,1,.613-.262.845.845,0,0,1,.625.262.855.855,0,0,1,.258.621.842.842,0,0,1-.258.617A.851.851,0,0,1,227.844,137.172Z" transform="translate(-545.501 -4594.551)" fill="#12263f"/>
  </g>
</svg>
