<svg xmlns="http://www.w3.org/2000/svg" xmlns:xlink="http://www.w3.org/1999/xlink" width="601.683" height="571.521" viewBox="0 0 601.683 571.521">
  <defs>
    <clipPath id="clip-path">
      <rect id="Rectángulo_337595" data-name="Rectángulo 337595" width="316" height="382" fill="#fff" stroke="#707070" stroke-width="1"/>
    </clipPath>
    <clipPath id="clip-path-2">
      <circle id="Elipse_5283" data-name="Elipse 5283" cx="159.592" cy="159.592" r="159.592" fill="none"/>
    </clipPath>
    <linearGradient id="linear-gradient" x1="0.5" y1="0.998" x2="0.5" y2="-0.136" gradientUnits="objectBoundingBox">
      <stop offset="0" stop-color="#fff"/>
      <stop offset="1" stop-color="#52d3b7"/>
    </linearGradient>
    <linearGradient id="linear-gradient-2" x1="0.5" y1="1.483" x2="0.5" y2="-0.069" gradientUnits="objectBoundingBox">
      <stop offset="0" stop-color="#639327"/>
      <stop offset="1" stop-color="#aec13e"/>
    </linearGradient>
    <clipPath id="clip-path-3">
      <rect id="Rectángulo_337588" data-name="Rectángulo 337588" width="164.664" height="94.748" fill="none"/>
    </clipPath>
    <clipPath id="clip-path-4">
      <rect id="Rectángulo_337590" data-name="Rectángulo 337590" width="164.663" height="94.748" transform="translate(164.663 94.748) rotate(180)" fill="none"/>
    </clipPath>
    <clipPath id="clip-path-5">
      <rect id="Rectángulo_337591" data-name="Rectángulo 337591" width="108.536" height="80.975" fill="none"/>
    </clipPath>
    <clipPath id="clip-path-6">
      <rect id="Rectángulo_337592" data-name="Rectángulo 337592" width="108.536" height="80.975" transform="translate(108.536 80.975) rotate(180)" fill="none"/>
    </clipPath>
  </defs>
  <g id="Grupo_963438" data-name="Grupo 963438" transform="translate(564.193 3868.522)">
    <g id="Enmascarar_grupo_927204" data-name="Enmascarar grupo 927204" transform="translate(-278.509 -3679)" clip-path="url(#clip-path)">
      <g id="Grupo_949346" data-name="Grupo 949346" transform="translate(5.132 6.011)">
        <g id="Grupo_949230" data-name="Grupo 949230" transform="translate(115.567 0)">
          <path id="Trazado_684401" data-name="Trazado 684401" d="M872.313,136.526c-1.292,3.8-2.628,7.73-3.9,11.9-4.051,13.277,8.729,14.952,8.729,14.952s-4.1,9.043,2.35,16.28a12.681,12.681,0,0,0,14.618,3.354s2.959,3.939,10.735,4.429c11.28.713,15.387-3.816,15.387-3.816l11.789-2.113c1.552.867,2.758,6.631,15.224,8.088,11.332,1.324,17.165-5.475,17.165-5.475,3,5.871,17.1,4.839,18.7-4.46,1.5-8.734-2.561-12.31-3.058-12.715,7.321,5.185,19.536-8.838,6.595-22.136-5.264-5.412-8.174-7.925-10.142-10.635,5.863,1.394,11.99-5.436,9.372-11.4-3.382-7.688-9.568-4.625-15.612-15.659-8.032-14.655-14.177-19.658-14.536-19.942l-.01-.009c-10.368-9.837-25.685-14.335-42.455-13.3-14.258.881-22.568,6.712-27.379,12.7a30.1,30.1,0,0,0-6.386,18.274q-.045,2.083-.232,4.109c-2,4.846-6.082,13.442-10.909,16.052C861.8,128.57,865.467,137.987,872.313,136.526Z" transform="translate(-864.919 -73.727)" fill="#32324c"/>
        </g>
        <g id="Grupo_949231" data-name="Grupo 949231" transform="translate(0 44.562)">
          <path id="Trazado_684402" data-name="Trazado 684402" d="M844.82,501.218c9.048,133.4,177.367,187.467,260.457,82.709,16.97-21.393,21.028-72.985,16.633-100.2-17.721-109.681-73.968-120.887-31.974-190.265s45.9-195.329-70.04-194.346S978.7,285.4,898.835,337.233C862.308,360.939,840.107,431.742,844.82,501.218Z" transform="translate(-844.192 -99.114)" fill="#32324c" opacity="0.1"/>
          <path id="Trazado_684403" data-name="Trazado 684403" d="M969.156,247.235a17.687,17.687,0,0,0,19.5-5.606c7.544-9.14,19.58-27.6,16-49.076-5.118-30.684-44-6.189-47.063,28.3C956.061,238.1,962.417,244.821,969.156,247.235Z" transform="translate(-924.586 -39.104)" fill="#32324c" opacity="0.1"/>
          <path id="Trazado_684404" data-name="Trazado 684404" d="M968.3,187.559a9.224,9.224,0,0,0,6.251-8.539c.193-6.179-.737-17.635-9.075-25.35-11.911-11.02-20.126,11.5-10.372,26.7C959.983,187.973,964.752,188.715,968.3,187.559Z" transform="translate(-882.323 -60.122)" fill="#32324c" opacity="0.1"/>
          <path id="Trazado_684405" data-name="Trazado 684405" d="M854.265,273.461a9.225,9.225,0,0,0,7.7-7.267c1.309-6.042,2.47-17.477-4.334-26.575-9.717-13-21.874,7.665-15.036,24.383C846.01,272.359,850.565,273.954,854.265,273.461Z" transform="translate(-577.286 3.919)" fill="#32324c" opacity="0.1"/>
        </g>
        <path id="Trazado_684406" data-name="Trazado 684406" d="M995.945,147.628s-8.894.583-81.182,34.379a20.593,20.593,0,0,1-11.374.458c-12.761-2.756,1.4-24.448,1.4-24.448S955.883,124.189,995.945,147.628Z" transform="translate(-811.139 -24.156)" fill="#c11c57"/>
        <ellipse id="Elipse_5284" data-name="Elipse 5284" cx="107.016" cy="16.236" rx="107.016" ry="16.236" transform="translate(41.437 620.682)" fill="#32324c" opacity="0.1"/>
        <g id="Grupo_949307" data-name="Grupo 949307" transform="translate(66.578 302.076)">
          <g id="Grupo_949265" data-name="Grupo 949265" transform="translate(0 6.344)">
            <g id="Grupo_949232" data-name="Grupo 949232" transform="translate(40.87)">
              <path id="Trazado_684407" data-name="Trazado 684407" d="M911.822,406.888l11.855,143.181h20.888c4.834-55.8,15.252-129.655-1.06-149.509C972.38,333.182,963.847,265,963.847,265c-15.942-7.3-40.874-15.569-40.874-15.569C914.494,297.595,911.822,406.888,911.822,406.888Z" transform="translate(-911.822 -249.435)" fill="#211931"/>
            </g>
            <g id="Grupo_949264" data-name="Grupo 949264" transform="translate(0 277.89)">
              <g id="Grupo_949234" data-name="Grupo 949234">
                <g id="Grupo_949233" data-name="Grupo 949233">
                  <path id="Trazado_684408" data-name="Trazado 684408" d="M924.71,464.244h68.309a6.326,6.326,0,0,0,6.31-6.811l-2.775-35.878a39.943,39.943,0,0,0-6.823-2.252,6.921,6.921,0,0,1-5.066-4.6c-.049-.17-.093-.346-.139-.521-1.567-6.9-11.523-9.1-13.363-2.354-.239.872-.446,1.72-.621,2.536-.044.2-.088.407-.125.6-.295,1.45-.509,2.787-.66,3.955-.005.025-.005.051-.012.075a38.515,38.515,0,0,0-.339,4.876q-1.356,1.725-2.624,3.391c-.433.551-.848,1.1-1.262,1.643-.9,1.167-1.769,2.3-2.629,3.4-.395.514-.79,1.011-1.187,1.5-.948,1.185-1.882,2.31-2.817,3.358-.421.477-.841.941-1.274,1.387-3.521,3.7-7.074,6.233-11.274,6.818-7.405,1.016-19.508,1.832-25.352,12.7a3.934,3.934,0,0,0-.295.692A4.213,4.213,0,0,0,924.71,464.244Z" transform="translate(-920.489 -407.75)" fill="#3555af"/>
                </g>
              </g>
              <g id="Grupo_949236" data-name="Grupo 949236" transform="translate(0 51.013)">
                <g id="Grupo_949235" data-name="Grupo 949235">
                  <path id="Trazado_684409" data-name="Trazado 684409" d="M924.743,442.291h68.309a6.326,6.326,0,0,0,6.272-5.478h-78.6A4.213,4.213,0,0,0,924.743,442.291Z" transform="translate(-920.522 -436.813)" fill="#3986d7"/>
                </g>
              </g>
              <g id="Grupo_949244" data-name="Grupo 949244" transform="translate(45.032 19.518)">
                <g id="Grupo_949239" data-name="Grupo 949239" transform="translate(0)">
                  <g id="Grupo_949238" data-name="Grupo 949238">
                    <g id="Grupo_949237" data-name="Grupo 949237">
                      <path id="Trazado_684410" data-name="Trazado 684410" d="M935.173,420.513c.792,1.162,2.4,2.568,5.656,3.867q.829.34,1.808.66l.59-1.783q-.969-.319-1.757-.641c-3.735-1.506-4.759-2.988-5.034-3.746C936,419.421,935.587,419.974,935.173,420.513Z" transform="translate(-935.173 -418.87)" fill="#fff"/>
                    </g>
                  </g>
                </g>
                <g id="Grupo_949243" data-name="Grupo 949243" transform="translate(5.641 3.16)">
                  <g id="Grupo_949242" data-name="Grupo 949242">
                    <g id="Grupo_949241" data-name="Grupo 949241">
                      <g id="Grupo_949240" data-name="Grupo 949240">
                        <path id="Trazado_684411" data-name="Trazado 684411" d="M934.133,422.789a2.119,2.119,0,1,0,2.119-2.119A2.12,2.12,0,0,0,934.133,422.789Z" transform="translate(-934.133 -420.67)" fill="#fff"/>
                      </g>
                    </g>
                  </g>
                </g>
              </g>
              <g id="Grupo_949252" data-name="Grupo 949252" transform="translate(41.216 24.558)">
                <g id="Grupo_949247" data-name="Grupo 949247" transform="translate(0)">
                  <g id="Grupo_949246" data-name="Grupo 949246">
                    <g id="Grupo_949245" data-name="Grupo 949245">
                      <path id="Trazado_684412" data-name="Trazado 684412" d="M937.7,423.242a13.413,13.413,0,0,0,4.676,2.944c.653.283,1.369.546,2.166.809l.59-1.789q-1.111-.369-2-.734a10.783,10.783,0,0,1-4.25-2.731C938.493,422.255,938.1,422.752,937.7,423.242Z" transform="translate(-937.701 -421.741)" fill="#fff"/>
                    </g>
                  </g>
                </g>
                <g id="Grupo_949251" data-name="Grupo 949251" transform="translate(4.673 2.243)">
                  <g id="Grupo_949250" data-name="Grupo 949250">
                    <g id="Grupo_949249" data-name="Grupo 949249">
                      <g id="Grupo_949248" data-name="Grupo 949248">
                        <path id="Trazado_684413" data-name="Trazado 684413" d="M936.859,425.138a2.119,2.119,0,1,0,2.119-2.119A2.119,2.119,0,0,0,936.859,425.138Z" transform="translate(-936.859 -423.019)" fill="#fff"/>
                      </g>
                    </g>
                  </g>
                </g>
              </g>
              <g id="Grupo_949260" data-name="Grupo 949260" transform="translate(37.124 29.416)">
                <g id="Grupo_949255" data-name="Grupo 949255" transform="translate(0)">
                  <g id="Grupo_949254" data-name="Grupo 949254">
                    <g id="Grupo_949253" data-name="Grupo 949253">
                      <path id="Trazado_684414" data-name="Trazado 684414" d="M940.1,425.9a13.615,13.615,0,0,0,4.53,2.819c.66.281,1.388.558,2.2.821l.585-1.789c-.748-.244-1.413-.5-2.01-.748a11.657,11.657,0,0,1-4.028-2.491C940.953,424.986,940.534,425.45,940.1,425.9Z" transform="translate(-940.1 -424.509)" fill="#fff"/>
                    </g>
                  </g>
                </g>
                <g id="Grupo_949259" data-name="Grupo 949259" transform="translate(4.527 2.013)">
                  <g id="Grupo_949258" data-name="Grupo 949258">
                    <g id="Grupo_949257" data-name="Grupo 949257">
                      <g id="Grupo_949256" data-name="Grupo 949256">
                        <path id="Trazado_684415" data-name="Trazado 684415" d="M939.273,427.775a2.119,2.119,0,1,0,2.119-2.119A2.12,2.12,0,0,0,939.273,427.775Z" transform="translate(-939.273 -425.656)" fill="#fff"/>
                      </g>
                    </g>
                  </g>
                </g>
              </g>
              <g id="Grupo_949263" data-name="Grupo 949263" transform="translate(49.269 7.22)">
                <g id="Grupo_949262" data-name="Grupo 949262">
                  <g id="Grupo_949261" data-name="Grupo 949261">
                    <path id="Trazado_684416" data-name="Trazado 684416" d="M933.878,415.819a47.906,47.906,0,0,1,6.089.346l-.039-3.421a15.425,15.425,0,0,0-5.39-.879C934.243,413.314,934.029,414.651,933.878,415.819Z" transform="translate(-933.878 -411.864)" fill="#fff"/>
                  </g>
                </g>
              </g>
            </g>
          </g>
          <g id="Grupo_949306" data-name="Grupo 949306" transform="translate(51.515)">
            <g id="Grupo_949304" data-name="Grupo 949304" transform="translate(35.231 15.882)">
              <g id="Grupo_949266" data-name="Grupo 949266">
                <path id="Trazado_684417" data-name="Trazado 684417" d="M883.834,260.9s4.936,76.41,14.946,142.193c2.14,14.058,4.769,104.166,11.265,142.872h20.916l4.025-140.618s11.3-89.762.9-150.478Z" transform="translate(-883.834 -254.869)" fill="#32324c"/>
              </g>
              <g id="Grupo_949303" data-name="Grupo 949303" transform="translate(7.861 272.448)">
                <g id="Grupo_949269" data-name="Grupo 949269">
                  <g id="Grupo_949268" data-name="Grupo 949268">
                    <g id="Grupo_949267" data-name="Grupo 949267">
                      <path id="Trazado_684418" data-name="Trazado 684418" d="M884.318,457.708c.6,12.036,38.234,7.89,44.253,4.279,2.322-1.4,3.3-4.086,3.479-7.342.295-5.194-1.415-11.838-2.9-17.044-2.407-8.48-2.077-8.324-3.749-14.12,0,0,.433-9.424-11.9-13.022s-16.851,19.866-18.957,24.379c-1.927,4.135-9.419,9.793-10.195,19.968A22.969,22.969,0,0,0,884.318,457.708Z" transform="translate(-884.289 -410.084)" fill="#3555af"/>
                    </g>
                  </g>
                </g>
                <g id="Grupo_949272" data-name="Grupo 949272" transform="translate(16.09 15.062)">
                  <g id="Grupo_949271" data-name="Grupo 949271">
                    <g id="Grupo_949270" data-name="Grupo 949270">
                      <path id="Trazado_684419" data-name="Trazado 684419" d="M910.319,424.619l.986-1.513c-.46-.3-11.341-7.277-20.811-3.124l.725,1.655C899.8,417.871,910.214,424.55,910.319,424.619Z" transform="translate(-890.495 -418.665)" fill="#fff"/>
                    </g>
                  </g>
                </g>
                <g id="Grupo_949275" data-name="Grupo 949275" transform="translate(15.017 25.537)">
                  <g id="Grupo_949274" data-name="Grupo 949274">
                    <g id="Grupo_949273" data-name="Grupo 949273">
                      <path id="Trazado_684420" data-name="Trazado 684420" d="M910.931,430.585l.985-1.513c-.458-.3-11.341-7.276-20.809-3.124l.725,1.655C900.419,423.836,910.826,430.517,910.931,430.585Z" transform="translate(-891.107 -424.633)" fill="#fff"/>
                    </g>
                  </g>
                </g>
                <g id="Grupo_949278" data-name="Grupo 949278" transform="translate(15.554 20.3)">
                  <g id="Grupo_949277" data-name="Grupo 949277">
                    <g id="Grupo_949276" data-name="Grupo 949276">
                      <path id="Trazado_684421" data-name="Trazado 684421" d="M910.623,427.6l.986-1.513c-.458-.3-11.341-7.276-20.809-3.123l.725,1.654C900.111,420.852,910.52,427.532,910.623,427.6Z" transform="translate(-890.801 -421.649)" fill="#fff"/>
                    </g>
                  </g>
                </g>
                <g id="Grupo_949281" data-name="Grupo 949281" transform="translate(34.483 18.511)">
                  <g id="Grupo_949280" data-name="Grupo 949280">
                    <g id="Grupo_949279" data-name="Grupo 949279">
                      <path id="Trazado_684422" data-name="Trazado 684422" d="M889.558,422.661a2.031,2.031,0,1,0,2.031-2.031A2.031,2.031,0,0,0,889.558,422.661Z" transform="translate(-889.558 -420.63)" fill="#fff"/>
                    </g>
                  </g>
                </g>
                <g id="Grupo_949284" data-name="Grupo 949284" transform="translate(34.376 23.473)">
                  <g id="Grupo_949283" data-name="Grupo 949283">
                    <g id="Grupo_949282" data-name="Grupo 949282">
                      <path id="Trazado_684423" data-name="Trazado 684423" d="M889.619,425.49a2.031,2.031,0,1,0,2.031-2.033A2.031,2.031,0,0,0,889.619,425.49Z" transform="translate(-889.619 -423.457)" fill="#fff"/>
                    </g>
                  </g>
                </g>
                <g id="Grupo_949287" data-name="Grupo 949287" transform="translate(33.302 28.437)">
                  <g id="Grupo_949286" data-name="Grupo 949286">
                    <g id="Grupo_949285" data-name="Grupo 949285">
                      <path id="Trazado_684424" data-name="Trazado 684424" d="M890.231,428.316a2.031,2.031,0,1,0,2.031-2.031A2.031,2.031,0,0,0,890.231,428.316Z" transform="translate(-890.231 -426.285)" fill="#fff"/>
                    </g>
                  </g>
                </g>
                <g id="Grupo_949290" data-name="Grupo 949290" transform="translate(13.348 25.505)">
                  <g id="Grupo_949289" data-name="Grupo 949289">
                    <g id="Grupo_949288" data-name="Grupo 949288">
                      <path id="Trazado_684425" data-name="Trazado 684425" d="M901.6,426.644a2.032,2.032,0,1,0,2.033-2.029A2.032,2.032,0,0,0,901.6,426.644Z" transform="translate(-901.598 -424.615)" fill="#fff"/>
                    </g>
                  </g>
                </g>
                <g id="Grupo_949293" data-name="Grupo 949293" transform="translate(13.885 20.089)">
                  <g id="Grupo_949292" data-name="Grupo 949292">
                    <g id="Grupo_949291" data-name="Grupo 949291">
                      <path id="Trazado_684426" data-name="Trazado 684426" d="M901.293,423.56a2.031,2.031,0,1,0,2.031-2.031A2.031,2.031,0,0,0,901.293,423.56Z" transform="translate(-901.293 -421.529)" fill="#fff"/>
                    </g>
                  </g>
                </g>
                <g id="Grupo_949296" data-name="Grupo 949296" transform="translate(14.422 14.672)">
                  <g id="Grupo_949295" data-name="Grupo 949295">
                    <g id="Grupo_949294" data-name="Grupo 949294">
                      <path id="Trazado_684427" data-name="Trazado 684427" d="M900.987,420.474a2.031,2.031,0,1,0,2.031-2.031A2.031,2.031,0,0,0,900.987,420.474Z" transform="translate(-900.987 -418.443)" fill="#fff"/>
                    </g>
                  </g>
                </g>
                <g id="Grupo_949299" data-name="Grupo 949299" transform="translate(0 44.561)">
                  <g id="Grupo_949298" data-name="Grupo 949298">
                    <g id="Grupo_949297" data-name="Grupo 949297">
                      <path id="Trazado_684428" data-name="Trazado 684428" d="M884.337,438.534c.6,12.036,38.234,7.89,44.253,4.279,2.322-1.4,3.3-4.086,3.479-7.342-3.955,2.256-10.923,5.068-21.329,5.254-12.766.228-21.973-2.354-26.366-5.092A23,23,0,0,0,884.337,438.534Z" transform="translate(-884.308 -435.471)" fill="#3986d7"/>
                    </g>
                  </g>
                </g>
                <g id="Grupo_949302" data-name="Grupo 949302" transform="translate(22.597 4.034)">
                  <g id="Grupo_949301" data-name="Grupo 949301">
                    <g id="Grupo_949300" data-name="Grupo 949300">
                      <path id="Trazado_684429" data-name="Trazado 684429" d="M893.173,412.44a20.082,20.082,0,0,1,10.586,2.106l-.551,3.812s-6.821-2.006-11.336-1.7A8.956,8.956,0,0,1,893.173,412.44Z" transform="translate(-891.872 -412.383)" fill="#fff"/>
                    </g>
                  </g>
                </g>
              </g>
            </g>
            <g id="Grupo_949305" data-name="Grupo 949305" transform="translate(0)">
              <path id="Trazado_684430" data-name="Trazado 684430" d="M971.663,245.821c2.064,10.909,3.865,29.133-1.641,47.456,0,0-38.416,9.542-65.434-11.913-17.678-14.041-18.51-30.472-18.3-35.543Z" transform="translate(-886.266 -245.821)" fill="#32324c"/>
            </g>
          </g>
        </g>
        <g id="Grupo_949312" data-name="Grupo 949312" transform="translate(194.607 122.743)">
          <g id="Grupo_949308" data-name="Grupo 949308" transform="translate(23.913 184.69)">
            <path id="Trazado_684431" data-name="Trazado 684431" d="M874.632,250.021a41.366,41.366,0,0,0-7.6,9.458c-2.6,4.924-5.117,10.181-6.663,13.245-1.861,3.688,2.055,3.928,4.766,1.3,4.107-3.981,4.7-6.914,4.7-6.914s-5.933,21.348-5.173,27.253c.693,5.392,4.551-6.215,8.278-15.64,0,0-2.149,21.613.762,23.884,3.821,2.984,6.347-23.207,6.347-23.207s1.009,19.589,3.333,19.143c2.593-.5,4.009-20.679,4.009-20.679s1.885,13.4,3.319,12.55c2.838-1.674,4.692-30.407-2.829-41.211C887.874,249.207,877.17,248.059,874.632,250.021Z" transform="translate(-859.883 -248.873)" fill="#ffaf82"/>
          </g>
          <g id="Grupo_949311" data-name="Grupo 949311" transform="translate(0)">
            <g id="Grupo_949310" data-name="Grupo 949310">
              <g id="Grupo_949309" data-name="Grupo 949309">
                <path id="Trazado_684432" data-name="Trazado 684432" d="M860.97,180.4c10.635,34.118,24.585,57.277,29.489,64.832.323,4.8,1.929,27.56,4.806,49.085a362.527,362.527,0,0,1,2.845,36.872,20.689,20.689,0,0,0,17.084,0c2.48-36.464.569-66.2-4.534-88.3.311-28.808-29.784-99.234-29.784-99.234C866.5,154.219,860.97,180.4,860.97,180.4Z" transform="translate(-860.97 -143.654)" fill="#e63067"/>
              </g>
            </g>
          </g>
        </g>
        <g id="Grupo_949313" data-name="Grupo 949313" transform="translate(114.576 113.108)">
          <path id="Trazado_684433" data-name="Trazado 684433" d="M881.136,329.141c46.568,23.718,93.1,3.969,93.1,3.969-6.394-40.519-14.139-94.017-14.139-94.017,12.814-24.518,20.972-91.291,20.972-91.291-7.521-4.66-11.034-3.526-19.629-5.794-2.426-.641-4.655-1.18-6.561-1.617-3.9-.892-6.421-1.348-6.421-1.348-11.75-1.6-23.968-.742-32.866.409-.06.009-.121.014-.181.023-7.806,1.023-13.014,2.273-13.014,2.273s-3.577,27.012-11.3,40.677-1.817,21.929,0,27.885a20.946,20.946,0,0,1,.679,4.471c.511,7.462,1.146,42.583,1.146,42.583Z" transform="translate(-881.136 -138.165)" fill="#e63067"/>
          <path id="Trazado_684434" data-name="Trazado 684434" d="M906.58,165.214c12.782.395,24.23-13.951,30.265-24.823-3.9-.892-6.421-1.348-6.421-1.348-11.75-1.6-23.969-.742-32.866.409-.06.009-.121.014-.181.023C895.82,150.408,893.125,164.8,906.58,165.214Z" transform="translate(-863.098 -138.165)" fill="#ffaf82"/>
          <path id="Trazado_684435" data-name="Trazado 684435" d="M905.817,179.267a20.8,20.8,0,0,1,.677,4.467c22.575,11.608,45.966,4.987,45.966,4.987C922.076,188.2,905.817,179.267,905.817,179.267Z" transform="translate(-895.845 -107.121)" fill="#c11c57"/>
        </g>
        <path id="Trazado_684436" data-name="Trazado 684436" d="M940.714,196.8s-31.85-6.614,20.523-76.673l11.418,9.15a145.981,145.981,0,0,0-11.622,24.639,194.929,194.929,0,0,1-10.347,24.07S947.563,184.728,940.714,196.8Z" transform="translate(-845.882 -38.682)" fill="#c11c57"/>
        <g id="Grupo_949322" data-name="Grupo 949322" transform="translate(113.228 50.01)">
          <g id="Grupo_949321" data-name="Grupo 949321" transform="translate(0 0)">
            <g id="Grupo_949320" data-name="Grupo 949320">
              <g id="Grupo_949316" data-name="Grupo 949316" transform="translate(0.367 22.187)">
                <path id="Trazado_684437" data-name="Trazado 684437" d="M931.4,124.6l4.576-7.8,8.119,4.47-5.263,8.363Z" transform="translate(-931.397 -113.393)" fill="#fb9988"/>
                <g id="Grupo_949315" data-name="Grupo 949315" transform="translate(6.373)">
                  <g id="Grupo_949314" data-name="Grupo 949314">
                    <path id="Trazado_684438" data-name="Trazado 684438" d="M922.232,131.791l-1.029-.7-1.06-3.9s.571-5.392,4.727-7.785a5.211,5.211,0,0,1,2.361-.581,15.161,15.161,0,0,1,3.453.281,40.37,40.37,0,0,1,6.86,2,53.048,53.048,0,0,1,5.87-5.362c1.169-.871,1.847-.988,2.245-.827.578.232.562,1.043.562,1.043l-6.474,12.577s-9.1,4.432-14.116,5.552Z" transform="translate(-920.143 -114.858)" fill="#fdbd8e"/>
                  </g>
                </g>
              </g>
              <g id="Grupo_949317" data-name="Grupo 949317">
                <path id="Rectángulo_337593" data-name="Rectángulo 337593" d="M.7,0H21.113a.7.7,0,0,1,.7.7V35.418a.7.7,0,0,1-.7.7H.7a.7.7,0,0,1-.7-.7V.7A.7.7,0,0,1,.7,0Z" transform="matrix(-0.828, -0.56, 0.56, -0.828, 18.063, 42.132)" fill="#171228"/>
                <rect id="Rectángulo_337594" data-name="Rectángulo 337594" width="17.282" height="28.162" transform="matrix(-0.828, -0.56, 0.56, -0.828, 19.117, 36.536)" fill="#28b69a"/>
                <path id="Trazado_684439" data-name="Trazado 684439" d="M932.166,121.224a1.62,1.62,0,1,0,2.25-.434A1.623,1.623,0,0,0,932.166,121.224Z" transform="translate(-922.928 -88.4)" fill="#909aa3"/>
              </g>
              <g id="Grupo_949319" data-name="Grupo 949319" transform="translate(2.614 2.549)">
                <g id="Grupo_949318" data-name="Grupo 949318" transform="translate(0)">
                  <path id="Trazado_684440" data-name="Trazado 684440" d="M930.321,104.962a4.211,4.211,0,0,0,.386,2.847c.507,1.023,1,2.082,1.594,3.058.062.1.121.193.181.29a10.359,10.359,0,0,0,.948,1.269c.126.142.258.279.391.411a5.781,5.781,0,0,0,1.527,1.1,1.312,1.312,0,0,0,1.876-1.311,9.428,9.428,0,0,0-1.053-4.025,16.548,16.548,0,0,0-3.347-4.285C931.758,103.45,930.749,103.268,930.321,104.962Z" transform="translate(-924.706 -103.67)" fill="#fdbd8e"/>
                  <path id="Trazado_684441" data-name="Trazado 684441" d="M931.21,108.124a4.228,4.228,0,0,0,.379,2.845c.332.658.653,1.338,1.006,2,.133.263.277.523.428.771a11.22,11.22,0,0,0,1.3,1.848c.1.111.2.216.3.321a5.959,5.959,0,0,0,1.615,1.183,1.308,1.308,0,0,0,1.871-1.313,9.2,9.2,0,0,0-1.053-4.023,13.926,13.926,0,0,0-.79-1.311,19.791,19.791,0,0,0-1.255-1.662c-.088-.105-.174-.209-.265-.307C933.352,106.92,931.765,105.89,931.21,108.124Z" transform="translate(-927.149 -101.281)" fill="#fdbd8e"/>
                  <path id="Trazado_684442" data-name="Trazado 684442" d="M932.585,110.513a4.235,4.235,0,0,0,.381,2.844c.411.828.822,1.689,1.278,2.5.142.251.288.506.448.743a9.713,9.713,0,0,0,1,1.373,6.94,6.94,0,0,0,.716.7,5.541,5.541,0,0,0,1.2.8,1.311,1.311,0,0,0,1.873-1.315,9.226,9.226,0,0,0-1.053-4.025c-.009-.012-.011-.021-.019-.033a18.12,18.12,0,0,0-1.729-2.582c-.1-.118-.195-.244-.3-.358C934.938,109.453,933.178,108.129,932.585,110.513Z" transform="translate(-930.938 -99.479)" fill="#fdbd8e"/>
                  <path id="Trazado_684443" data-name="Trazado 684443" d="M933.464,113.564a4.218,4.218,0,0,0,.379,2.844c.068.139.133.269.2.407a18.507,18.507,0,0,0,2.529,4.214,6.234,6.234,0,0,0,1.919,1.506,1.311,1.311,0,0,0,1.871-1.316,9.3,9.3,0,0,0-1.053-4.023,8.624,8.624,0,0,0-.477-.823,19.173,19.173,0,0,0-1.875-2.5c-.1-.112-.195-.214-.291-.316C935.364,112.218,933.979,111.507,933.464,113.564Z" transform="translate(-933.361 -97.172)" fill="#fdbd8e"/>
                </g>
                <path id="Trazado_684444" data-name="Trazado 684444" d="M938.335,104.962a4.211,4.211,0,0,0,.386,2.847c.507,1.023,1,2.082,1.594,3.058-1.392-1.557-2.979-2.587-3.533-.353a4.228,4.228,0,0,0,.379,2.845c.332.658.653,1.338,1.006,2-1.446-1.717-3.207-3.04-3.8-.656a4.235,4.235,0,0,0,.381,2.844c.411.828.822,1.689,1.278,2.5-1.3-1.336-2.687-2.047-3.2.011a4.218,4.218,0,0,0,.379,2.844c.068.139.133.269.2.407.023-.095.044-.183.072-.274a3.86,3.86,0,0,1,1.032-1.868,1.819,1.819,0,0,1,1.966-.377l.039.025c-.067-.153-.13-.3-.195-.451a4.508,4.508,0,0,1-.414-2.986c.354-1.137,1.966-1.869,2.777-.993l-.084-.258c-.046-.133-.09-.272-.132-.412a5.183,5.183,0,0,1-.265-2.8,2.263,2.263,0,0,1,2.3-1.761c.028.009.058.009.084.018a1.683,1.683,0,0,1,.267.084c-.627-1.769-1.167-3.514-.632-5.383a14.223,14.223,0,0,1,.623-1.564C939.772,103.45,938.763,103.268,938.335,104.962Z" transform="translate(-932.72 -103.67)" fill="#fb9988"/>
              </g>
            </g>
          </g>
        </g>
        <g id="Grupo_949345" data-name="Grupo 949345" transform="translate(127.272 4.502)">
          <g id="Grupo_949344" data-name="Grupo 949344">
            <g id="Grupo_949324" data-name="Grupo 949324" transform="translate(0 44.704)">
              <g id="Grupo_949323" data-name="Grupo 949323">
                <path id="Trazado_684445" data-name="Trazado 684445" d="M937.655,105.861s-7.392-8.439-13.421-1.108c-5.3,6.447-2,23.512,10.921,23.038Z" transform="translate(-921.812 -101.759)" fill="#f88968"/>
              </g>
            </g>
            <path id="Trazado_684446" data-name="Trazado 684446" d="M924.861,117.321a3.1,3.1,0,1,0,3.1-3.1A3.1,3.1,0,0,0,924.861,117.321Z" transform="translate(-920.573 -47.645)" fill="#fff"/>
            <g id="Grupo_949327" data-name="Grupo 949327" transform="translate(27.342 83.007)">
              <g id="Grupo_949325" data-name="Grupo 949325">
                <path id="Trazado_684447" data-name="Trazado 684447" d="M900.435,153.847c.653,7.73,16.644,12.282,25.731-.844l.957-16.963.7-12.459-29.2,5.664,1.445,19.643Z" transform="translate(-898.627 -123.581)" fill="#ffaf82"/>
              </g>
              <g id="Grupo_949326" data-name="Grupo 949326">
                <path id="Trazado_684448" data-name="Trazado 684448" d="M900.245,151.258c9.968.137,21.1-6.735,26.666-11.474l.913-16.2-29.2,5.664Z" transform="translate(-898.627 -123.581)" fill="#f88968"/>
              </g>
            </g>
            <g id="Grupo_949328" data-name="Grupo 949328" transform="translate(5.625 12.785)">
              <path id="Trazado_684449" data-name="Trazado 684449" d="M921.788,168.57c30.818-7.049,36.417-47.444,36.417-47.444a44.722,44.722,0,0,0-.414-6.642,51.246,51.246,0,0,0-1.5-7.369c-2.21-7.762-6.953-16.61-17.082-20.47q-.477-.184-.962-.355c-16.8-5.957-41.374-3.172-48.846,19.078a36.906,36.906,0,0,0-1.139,4.306c-.179.876-.337,1.789-.472,2.722C884.435,135.368,894.089,174.908,921.788,168.57Z" transform="translate(-887.148 -83.575)" fill="#ffaf82"/>
            </g>
            <g id="Grupo_949331" data-name="Grupo 949331" transform="translate(43.001 48.646)">
              <g id="Grupo_949330" data-name="Grupo 949330">
                <g id="Grupo_949329" data-name="Grupo 949329">
                  <path id="Trazado_684450" data-name="Trazado 684450" d="M903.621,111.877a3.958,3.958,0,0,0,4.474-3.36,3.884,3.884,0,0,0-.307-2.168c3.239-.379,3.172-2.345,3.172-2.345-.505.841-4.286.351-5.854.111H905.1c-.193-.033-.351-.058-.467-.075l-.019-.005a1.106,1.106,0,0,0-.186-.016,3.953,3.953,0,0,0-.8,7.858Z" transform="translate(-900.223 -104.005)" fill="#32324c"/>
                </g>
              </g>
            </g>
            <g id="Grupo_949332" data-name="Grupo 949332" transform="translate(65.56 49.35)">
              <path id="Trazado_684451" data-name="Trazado 684451" d="M887.349,106.215s11.058-6.061,14.6,4.006c3.116,8.852-6.949,25.6-20.414,20.119Z" transform="translate(-881.533 -104.406)" fill="#ffaf82"/>
            </g>
            <g id="Grupo_949335" data-name="Grupo 949335" transform="translate(20.445 73.469)">
              <g id="Grupo_949333" data-name="Grupo 949333">
                <path id="Trazado_684452" data-name="Trazado 684452" d="M906.88,125.305a10.63,10.63,0,0,0,1.952,2.963c1.722,1.82,4.348,3.151,8.352,3.142,3.363-.009,6-1.873,7.955-4.106a22.833,22.833,0,0,0,3.049-4.59,23.6,23.6,0,0,0,1.276-2.926s-16.131-.5-23.853-1.641l0,.005a16.083,16.083,0,0,0,.158,3.168A14.872,14.872,0,0,0,906.88,125.305Z" transform="translate(-905.589 -118.147)" fill="#920e08"/>
              </g>
              <g id="Grupo_949334" data-name="Grupo 949334">
                <path id="Trazado_684453" data-name="Trazado 684453" d="M905.767,121.321c7.358,1.429,19.266,1.32,22.42,1.394a23.6,23.6,0,0,0,1.276-2.926s-16.131-.5-23.853-1.641l0,.005A16.083,16.083,0,0,0,905.767,121.321Z" transform="translate(-905.589 -118.147)" fill="#fff"/>
              </g>
            </g>
            <g id="Grupo_949336" data-name="Grupo 949336" transform="translate(70.621 56.388)">
              <path id="Trazado_684454" data-name="Trazado 684454" d="M884.678,120c.958-2.912,3.691-8.908,10.454-11.581,0,0-7.227,6.812-7.776,12.083a1.312,1.312,0,0,1-1.334,1.2l-.158-.005A1.294,1.294,0,0,1,884.678,120Z" transform="translate(-884.611 -108.416)" fill="#f88968"/>
            </g>
            <g id="Grupo_949338" data-name="Grupo 949338" transform="translate(23.688 81.482)">
              <g id="Grupo_949337" data-name="Grupo 949337">
                <path id="Trazado_684455" data-name="Trazado 684455" d="M908.053,124.82c1.722,1.82,4.348,3.151,8.352,3.142,3.363-.009,6-1.873,7.955-4.106a10.115,10.115,0,0,0-8.275-.479,6.913,6.913,0,0,0-4.132-.6A5.223,5.223,0,0,0,908.053,124.82Z" transform="translate(-908.053 -122.712)" fill="#f85c66"/>
              </g>
            </g>
            <g id="Grupo_949339" data-name="Grupo 949339" transform="translate(24.849 87.734)">
              <path id="Trazado_684456" data-name="Trazado 684456" d="M917.324,129.966a14.8,14.8,0,0,0,5.152-2.05.9.9,0,0,0-1.018-1.483c-.242.163-5.784,3.851-11.641.737a.9.9,0,1,0-.846,1.589A12.417,12.417,0,0,0,917.324,129.966Z" transform="translate(-908.493 -126.274)" fill="#f88968"/>
            </g>
            <g id="Grupo_949340" data-name="Grupo 949340" transform="translate(27.533 53.074)">
              <path id="Trazado_684457" data-name="Trazado 684457" d="M912.86,123.254h4.678a.961.961,0,1,0,0-1.922H912.86a.216.216,0,0,1-.207-.276l3.884-13.3a.961.961,0,0,0-1.845-.539l-3.885,13.3a2.138,2.138,0,0,0,2.052,2.738Z" transform="translate(-910.721 -106.528)" fill="#f88968"/>
            </g>
            <path id="Trazado_684458" data-name="Trazado 684458" d="M898.093,99.886h0a1.838,1.838,0,0,0,1.622,2.177c3.595.355,11.069,1.571,14.441,5.682,0,0-.736-6.753-13.893-9.321A1.847,1.847,0,0,0,898.093,99.886Z" transform="translate(-856.621 -59.601)" fill="#32324c"/>
            <path id="Trazado_684459" data-name="Trazado 684459" d="M932.849,99.959h0a1.839,1.839,0,0,1-1.975,1.862c-3.6-.279-11.174-.386-15.211,3.072,0,0,1.9-6.519,15.306-6.751A1.845,1.845,0,0,1,932.849,99.959Z" transform="translate(-906.212 -59.788)" fill="#32324c"/>
            <g id="Grupo_949343" data-name="Grupo 949343" transform="translate(12.951 48.144)">
              <g id="Grupo_949342" data-name="Grupo 949342">
                <g id="Grupo_949341" data-name="Grupo 949341">
                  <path id="Trazado_684460" data-name="Trazado 684460" d="M924.68,111.59a3.958,3.958,0,0,1-4.474-3.36,3.9,3.9,0,0,1,.309-2.166c-3.24-.381-3.172-2.345-3.172-2.345.5.841,4.286.349,5.852.111h.01c.191-.035.351-.058.465-.077l.019-.005a1.372,1.372,0,0,1,.188-.014,3.952,3.952,0,0,1,.8,7.857Z" transform="translate(-917.343 -103.719)" fill="#32324c"/>
                </g>
              </g>
            </g>
            <path id="Trazado_684461" data-name="Trazado 684461" d="M935.383,93.949s1.548,27.046,14.158,37.965c0,0,1.085-7.174,10.9-6.1,0,0,.927-1.678,2.368-9.814s-3.735-41.72-40.979-39.557c0,0-11.845-2.4-28.423,11.773s-6.756,29.68-6.756,29.68S914.307,114.079,935.383,93.949Z" transform="translate(-880.391 -76.291)" fill="#32324c"/>
            <circle id="Elipse_5285" data-name="Elipse 5285" cx="3.102" cy="3.102" r="3.102" transform="translate(70.486 73.47)" fill="#fff"/>
          </g>
        </g>
      </g>
    </g>
    <g id="Grupo_949347" data-name="Grupo 949347" transform="translate(-461.501 -3587.482)">
      <rect id="Rectángulo_335418" data-name="Rectángulo 335418" width="105.067" height="44.22" rx="13.129" transform="translate(164)" fill="#fff"/>
      <path id="Trazado_639247" data-name="Trazado 639247" d="M446.365,282.747s6.546-17.249,15.789-24.359c0,0-21.243.262-27.838,7.364A109.273,109.273,0,0,1,446.365,282.747Z" transform="translate(-179.167 -258.388)" fill="#fff"/>
    </g>
    <path id="Trazado_702403" data-name="Trazado 702403" d="M29.2,17H27.918V5.156H29.2Zm3.25-10.031a.812.812,0,0,1-.586-.234.791.791,0,0,1-.242-.594.821.821,0,0,1,.828-.836.827.827,0,0,1,.6.238.835.835,0,0,1,0,1.184A.82.82,0,0,1,32.449,6.969ZM33.074,17H31.793V9h1.281Zm2.109-.289V15.336a3.792,3.792,0,0,0,2.3.773q1.688,0,1.688-1.125a.976.976,0,0,0-.145-.543,1.44,1.44,0,0,0-.391-.395,3.007,3.007,0,0,0-.578-.309q-.332-.137-.715-.285a9.207,9.207,0,0,1-.934-.426,2.82,2.82,0,0,1-.672-.484,1.8,1.8,0,0,1-.406-.613,2.17,2.17,0,0,1-.137-.8,1.912,1.912,0,0,1,.258-1,2.286,2.286,0,0,1,.688-.727,3.206,3.206,0,0,1,.98-.441,4.349,4.349,0,0,1,1.137-.148,4.59,4.59,0,0,1,1.859.359v1.3a3.624,3.624,0,0,0-2.031-.578,2.374,2.374,0,0,0-.648.082,1.587,1.587,0,0,0-.5.23,1.065,1.065,0,0,0-.32.355.936.936,0,0,0-.113.457,1.1,1.1,0,0,0,.113.523,1.152,1.152,0,0,0,.332.375,2.538,2.538,0,0,0,.531.3q.312.133.711.289a9.894,9.894,0,0,1,.953.418,3.269,3.269,0,0,1,.719.484,1.893,1.893,0,0,1,.457.621,2,2,0,0,1,.16.836,1.971,1.971,0,0,1-.262,1.031,2.243,2.243,0,0,1-.7.727,3.2,3.2,0,0,1-1.008.43,4.976,4.976,0,0,1-1.2.141A4.539,4.539,0,0,1,35.183,16.711Zm10.984.211a2.47,2.47,0,0,1-1.2.25q-2.1,0-2.1-2.344V10.094H41.5V9h1.375V7.047l1.281-.414V9h2.016v1.094H44.152V14.6a1.869,1.869,0,0,0,.273,1.148,1.091,1.091,0,0,0,.906.344,1.347,1.347,0,0,0,.836-.266Zm5.055.266a3.711,3.711,0,0,1-2.832-1.121,4.153,4.153,0,0,1-1.059-2.973,4.326,4.326,0,0,1,1.1-3.148A3.96,3.96,0,0,1,51.41,8.813a3.588,3.588,0,0,1,2.793,1.1,4.368,4.368,0,0,1,1,3.055,4.3,4.3,0,0,1-1.082,3.066A3.791,3.791,0,0,1,51.222,17.188Zm.094-7.3a2.437,2.437,0,0,0-1.953.84,3.449,3.449,0,0,0-.719,2.316,3.262,3.262,0,0,0,.727,2.242,2.469,2.469,0,0,0,1.945.82,2.342,2.342,0,0,0,1.91-.8,3.492,3.492,0,0,0,.668-2.289,3.552,3.552,0,0,0-.668-2.312A2.332,2.332,0,0,0,51.316,9.891ZM57.7,17.172a.829.829,0,0,1-.613-.258.849.849,0,0,1-.254-.617.862.862,0,0,1,.254-.621.823.823,0,0,1,.613-.262.845.845,0,0,1,.625.262.855.855,0,0,1,.258.621.842.842,0,0,1-.258.617A.851.851,0,0,1,57.7,17.172Zm3.469,0a.829.829,0,0,1-.613-.258A.849.849,0,0,1,60.3,16.3a.862.862,0,0,1,.254-.621.823.823,0,0,1,.613-.262.845.845,0,0,1,.625.262.855.855,0,0,1,.258.621.842.842,0,0,1-.258.617A.851.851,0,0,1,61.168,17.172Zm3.469,0a.829.829,0,0,1-.613-.258.849.849,0,0,1-.254-.617.862.862,0,0,1,.254-.621.823.823,0,0,1,.613-.262.845.845,0,0,1,.625.262.855.855,0,0,1,.258.621.842.842,0,0,1-.258.617A.851.851,0,0,1,64.636,17.172Z" transform="translate(-291.5 -3577.265)" fill="#12263f"/>
    <g id="Grupo_949228" data-name="Grupo 949228" transform="translate(-1227.846 -4667.821)">
      <g id="Grupo_949227" data-name="Grupo 949227" transform="translate(663.653 799.299)" clip-path="url(#clip-path-2)">
        <g id="Grupo_949226" data-name="Grupo 949226" transform="translate(-21.224 -42.448)">
          <rect id="Rectángulo_337586" data-name="Rectángulo 337586" width="361.633" height="361.633" transform="translate(0)" fill="url(#linear-gradient)"/>
          <g id="Grupo_949225" data-name="Grupo 949225" transform="translate(0 131.875)">
            <g id="Grupo_949169" data-name="Grupo 949169" transform="translate(0 1.149)">
              <path id="Trazado_684288" data-name="Trazado 684288" d="M1058.58,924.531a23.309,23.309,0,0,0-15.516,14.5,10.245,10.245,0,0,0-14.556,13.54,43.947,43.947,0,0,0-22.281,32.7A23.262,23.262,0,0,0,981.561,1022a38.4,38.4,0,0,0-20.96,11.824,16.027,16.027,0,0,0-23.926,17.831,23.269,23.269,0,0,0-22.347,17.811,38.456,38.456,0,0,0-53.667,17.862h95.948a23.183,23.183,0,0,0,2.043-4.024,38.731,38.731,0,0,0,3.626,4.024h53.494c.728-.707,1.439-1.433,2.11-2.194a39.982,39.982,0,0,0,5.2,2.194h25.96a39.8,39.8,0,0,0,9.543-4.81Z" transform="translate(-696.948 -924.531)" fill="#fff"/>
              <path id="Trazado_684289" data-name="Trazado 684289" d="M634.308,924.531a23.31,23.31,0,0,1,15.517,14.5,10.245,10.245,0,0,1,14.556,13.54,43.951,43.951,0,0,1,22.281,32.7A23.262,23.262,0,0,1,711.328,1022a38.4,38.4,0,0,1,20.96,11.824,16.027,16.027,0,0,1,23.926,17.831,23.27,23.27,0,0,1,22.347,17.811,38.456,38.456,0,0,1,53.667,17.862H736.281a23.136,23.136,0,0,1-2.043-4.024,38.744,38.744,0,0,1-3.626,4.024H677.117c-.729-.707-1.439-1.433-2.11-2.194a39.946,39.946,0,0,1-5.2,2.194H643.852a39.817,39.817,0,0,1-9.544-4.81Z" transform="translate(-634.308 -924.531)" fill="#fff"/>
            </g>
            <g id="Grupo_949174" data-name="Grupo 949174" transform="translate(0 158.215)">
              <path id="Trazado_684290" data-name="Trazado 684290" d="M995.941,1148.232c-51-4.134-111.978-6.538-177.5-6.538-68.386,0-131.827,2.619-184.136,7.09v64.452H995.941Z" transform="translate(-634.308 -1141.694)" fill="url(#linear-gradient-2)"/>
              <g id="Grupo_949173" data-name="Grupo 949173" transform="translate(10.001 10.736)">
                <g id="Grupo_949170" data-name="Grupo 949170">
                  <path id="Trazado_684291" data-name="Trazado 684291" d="M701.047,1167.563a2.6,2.6,0,1,0-3.553-3.311A6.663,6.663,0,0,0,701.047,1167.563Z" transform="translate(-661.795 -1158.552)" fill="#bbc145"/>
                  <path id="Trazado_684292" data-name="Trazado 684292" d="M827.423,1216.554a2.574,2.574,0,1,0-4.607,1.3A6.495,6.495,0,0,0,827.423,1216.554Z" transform="translate(-696.476 -1172.003)" fill="#bbc145"/>
                  <path id="Trazado_684293" data-name="Trazado 684293" d="M763.047,1225.563a2.6,2.6,0,1,0-3.553-3.311A6.664,6.664,0,0,0,763.047,1225.563Z" transform="translate(-678.953 -1174.603)" fill="#bbc145"/>
                  <path id="Trazado_684294" data-name="Trazado 684294" d="M800.365,1191.434a6.661,6.661,0,0,0-.291,4.848,6.711,6.711,0,0,0,3.775-8.231A6.664,6.664,0,0,0,800.365,1191.434Z" transform="translate(-690.093 -1165.259)" fill="#bbc145"/>
                  <path id="Trazado_684295" data-name="Trazado 684295" d="M676.539,1181.352a1.778,1.778,0,1,0-3.3.281A4.551,4.551,0,0,0,676.539,1181.352Z" transform="translate(-655.082 -1162.679)" fill="#bbc145"/>
                  <path id="Trazado_684296" data-name="Trazado 684296" d="M651.184,1158.939a1.778,1.778,0,1,0-3.048-1.307A4.55,4.55,0,0,0,651.184,1158.939Z" transform="translate(-648.136 -1156.538)" fill="#bbc145"/>
                  <path id="Trazado_684297" data-name="Trazado 684297" d="M717.631,1197.857a1.778,1.778,0,1,0-3.152-1.028A4.548,4.548,0,0,0,717.631,1197.857Z" transform="translate(-666.496 -1167.308)" fill="#bbc145"/>
                  <path id="Trazado_684298" data-name="Trazado 684298" d="M762.631,1181.357a1.778,1.778,0,1,0-3.152-1.029A4.549,4.549,0,0,0,762.631,1181.357Z" transform="translate(-678.948 -1162.741)" fill="#bbc145"/>
                  <path id="Trazado_684299" data-name="Trazado 684299" d="M814.3,1160.475a1.778,1.778,0,1,0-3.311.172A4.55,4.55,0,0,0,814.3,1160.475Z" transform="translate(-693.202 -1156.91)" fill="#bbc145"/>
                </g>
                <g id="Grupo_949171" data-name="Grupo 949171" transform="translate(213.992 1.254)">
                  <path id="Trazado_684300" data-name="Trazado 684300" d="M991.958,1168.264a2.361,2.361,0,1,0-3.221-3A6.044,6.044,0,0,0,991.958,1168.264Z" transform="translate(-956.384 -1160.097)" fill="#bbc145"/>
                  <path id="Trazado_684301" data-name="Trazado 684301" d="M1106.489,1212.662a2.332,2.332,0,1,0-4.176,1.181A5.888,5.888,0,0,0,1106.489,1212.662Z" transform="translate(-987.814 -1172.287)" fill="#bbc145"/>
                  <ellipse id="Elipse_5282" data-name="Elipse 5282" cx="1.593" cy="4.104" rx="1.593" ry="4.104" transform="translate(72.402 44.662) rotate(-68.235)" fill="#bbc145"/>
                  <path id="Trazado_684302" data-name="Trazado 684302" d="M1081.966,1189.9a2.361,2.361,0,1,0,3.159-3.066A6.041,6.041,0,0,0,1081.966,1189.9Z" transform="translate(-982.029 -1166.175)" fill="#bbc145"/>
                  <path id="Trazado_684303" data-name="Trazado 684303" d="M969.746,1180.759a1.611,1.611,0,1,0-2.994.255A4.12,4.12,0,0,0,969.746,1180.759Z" transform="translate(-950.3 -1163.837)" fill="#bbc145"/>
                  <path id="Trazado_684304" data-name="Trazado 684304" d="M946.767,1160.447a1.612,1.612,0,1,0-2.762-1.184A4.117,4.117,0,0,0,946.767,1160.447Z" transform="translate(-944.005 -1158.271)" fill="#bbc145"/>
                  <path id="Trazado_684305" data-name="Trazado 684305" d="M1006.987,1195.718a1.612,1.612,0,1,0-2.857-.932A4.125,4.125,0,0,0,1006.987,1195.718Z" transform="translate(-960.644 -1168.032)" fill="#bbc145"/>
                  <path id="Trazado_684306" data-name="Trazado 684306" d="M1047.769,1180.764a1.612,1.612,0,1,0-2.857-.932A4.122,4.122,0,0,0,1047.769,1180.764Z" transform="translate(-971.93 -1163.894)" fill="#bbc145"/>
                  <path id="Trazado_684307" data-name="Trazado 684307" d="M1094.592,1161.839a1.612,1.612,0,1,0-3,.156A4.12,4.12,0,0,0,1094.592,1161.839Z" transform="translate(-984.847 -1158.609)" fill="#bbc145"/>
                </g>
                <g id="Grupo_949172" data-name="Grupo 949172" transform="translate(145.36 4.693)">
                  <path id="Trazado_684308" data-name="Trazado 684308" d="M966.806,1233.047a2.245,2.245,0,1,0,3.062,2.853A5.741,5.741,0,0,0,966.806,1233.047Z" transform="translate(-880.524 -1182.289)" fill="#bbc145"/>
                  <path id="Trazado_684309" data-name="Trazado 684309" d="M858.333,1190.419a2.218,2.218,0,1,0,3.971-1.123A5.6,5.6,0,0,0,858.333,1190.419Z" transform="translate(-851.074 -1170.288)" fill="#bbc145"/>
                  <path id="Trazado_684310" data-name="Trazado 684310" d="M913.375,1183.063a2.245,2.245,0,1,0,3.063,2.853A5.739,5.739,0,0,0,913.375,1183.063Z" transform="translate(-865.738 -1168.456)" fill="#bbc145"/>
                  <path id="Trazado_684311" data-name="Trazado 684311" d="M882.53,1211.156a2.245,2.245,0,1,0-3,2.916A5.741,5.741,0,0,0,882.53,1211.156Z" transform="translate(-857.452 -1175.19)" fill="#bbc145"/>
                  <path id="Trazado_684312" data-name="Trazado 684312" d="M988.87,1221.539a1.532,1.532,0,1,0,2.847-.241A3.925,3.925,0,0,0,988.87,1221.539Z" transform="translate(-887.252 -1179.107)" fill="#bbc145"/>
                  <path id="Trazado_684313" data-name="Trazado 684313" d="M953.253,1207.541a1.532,1.532,0,1,0,2.716.886A3.924,3.924,0,0,0,953.253,1207.541Z" transform="translate(-877.212 -1175.344)" fill="#bbc145"/>
                  <path id="Trazado_684314" data-name="Trazado 684314" d="M914.472,1221.76a1.533,1.533,0,1,0,2.717.887A3.919,3.919,0,0,0,914.472,1221.76Z" transform="translate(-866.48 -1179.278)" fill="#bbc145"/>
                  <path id="Trazado_684315" data-name="Trazado 684315" d="M851.716,1163.033a1.532,1.532,0,1,0,2.717.886A3.921,3.921,0,0,0,851.716,1163.033Z" transform="translate(-849.113 -1163.027)" fill="#bbc145"/>
                </g>
              </g>
            </g>
            <g id="Grupo_949207" data-name="Grupo 949207" transform="translate(0)">
              <g id="Grupo_949177" data-name="Grupo 949177" transform="translate(115.822)">
                <g id="Grupo_949175" data-name="Grupo 949175" transform="translate(57.667)">
                  <path id="Trazado_684316" data-name="Trazado 684316" d="M925.891,975.26l51.714,93.313H874.177l51.713-93.313" transform="translate(-874.177 -937.421)" fill="#54aa52"/>
                  <path id="Trazado_684317" data-name="Trazado 684317" d="M901.337,1046.835l59.1-9.1-2.915-5.26-43.967-7.687Z" transform="translate(-881.693 -951.128)" fill="#408338"/>
                  <path id="Trazado_684318" data-name="Trazado 684318" d="M932.486,953.758l34.476,62.209H898.011l34.476-62.209" transform="translate(-880.773 -931.471)" fill="#54aa52"/>
                  <path id="Trazado_684319" data-name="Trazado 684319" d="M919.445,994.159l34.963-5.382-5.142-9.278-19.78-3.458Z" transform="translate(-886.704 -937.637)" fill="#408338"/>
                  <path id="Trazado_684320" data-name="Trazado 684320" d="M937.716,935.556,958.522,973.1H916.91l20.806-37.543" transform="translate(-886.003 -926.433)" fill="#54aa52"/>
                  <path id="Trazado_684321" data-name="Trazado 684321" d="M928.535,960.309l22.847-3.517-6.26-11.3-7.639-1.336Z" transform="translate(-889.22 -928.815)" fill="#408338"/>
                  <path id="Trazado_684322" data-name="Trazado 684322" d="M940.387,922.943l13.826,24.948H926.561l13.826-24.948" transform="translate(-888.674 -922.943)" fill="#54aa52"/>
                </g>
                <g id="Grupo_949176" data-name="Grupo 949176" transform="translate(0 54.907)">
                  <path id="Trazado_684323" data-name="Trazado 684323" d="M823.622,1028.375l29.177,52.647H794.446l29.176-52.647" transform="translate(-794.446 -1007.027)" fill="#54aa52"/>
                  <path id="Trazado_684324" data-name="Trazado 684324" d="M809.769,1068.757l33.343-5.133-1.645-2.967-24.806-4.337Z" transform="translate(-798.687 -1014.76)" fill="#408338"/>
                  <path id="Trazado_684325" data-name="Trazado 684325" d="M827.344,1016.243l19.451,35.1h-38.9l19.451-35.1" transform="translate(-798.167 -1003.669)" fill="#54aa52"/>
                  <path id="Trazado_684326" data-name="Trazado 684326" d="M819.986,1039.038,839.712,1036l-2.9-5.235-11.16-1.951Z" transform="translate(-801.514 -1007.148)" fill="#408338"/>
                  <path id="Trazado_684327" data-name="Trazado 684327" d="M830.294,1005.974l11.739,21.182H818.556l11.739-21.182" transform="translate(-801.118 -1000.827)" fill="#54aa52"/>
                  <path id="Trazado_684328" data-name="Trazado 684328" d="M825.114,1019.94l12.89-1.984-3.532-6.373-4.31-.753Z" transform="translate(-802.933 -1002.171)" fill="#408338"/>
                  <path id="Trazado_684329" data-name="Trazado 684329" d="M831.8,998.858l7.8,14.076H824l7.8-14.076" transform="translate(-802.625 -998.858)" fill="#54aa52"/>
                </g>
              </g>
              <g id="Grupo_949206" data-name="Grupo 949206" transform="translate(0 69.916)">
                <g id="Grupo_949191" data-name="Grupo 949191" transform="translate(196.969)">
                  <g id="Grupo_949190" data-name="Grupo 949190" clip-path="url(#clip-path-3)">
                    <g id="Grupo_949189" data-name="Grupo 949189" transform="translate(3.21 13.443)">
                      <g id="Grupo_949184" data-name="Grupo 949184">
                        <g id="Grupo_949178" data-name="Grupo 949178" transform="translate(36.505 1.754)">
                          <path id="Trazado_684330" data-name="Trazado 684330" d="M998.907,1120.661c0-.053,0-.105,0-.158,0-44.117-8.362-79.881-18.678-79.881s-18.678,35.764-18.678,79.881c0,.053,0,.106,0,.158Z" transform="translate(-961.552 -1040.621)" fill="#408338"/>
                          <path id="Trazado_684331" data-name="Trazado 684331" d="M968.837,1108.619l11.177,13.149-.1,3.9h3.707l-.477-16.286,11.451-13.471-11.573,9.291-.863-29.434,5.3-6.237-5.358,4.3-.443-15.1-.734,28.183-6.342-5.092,6.282,7.391-.742,28.462Z" transform="translate(-963.568 -1045.633)" fill="#d1c91a"/>
                        </g>
                        <g id="Grupo_949179" data-name="Grupo 949179" transform="translate(75.949 1.754)">
                          <path id="Trazado_684332" data-name="Trazado 684332" d="M1053.444,1120.661c0-.053,0-.105,0-.158,0-44.117-8.362-79.881-18.678-79.881s-18.678,35.764-18.678,79.881c0,.053,0,.106,0,.158Z" transform="translate(-1016.088 -1040.621)" fill="#b3c738"/>
                          <path id="Trazado_684333" data-name="Trazado 684333" d="M1023.374,1108.619l11.177,13.149-.1,3.9h3.707l-.477-16.286,11.45-13.471-11.573,9.291-.863-29.434,5.3-6.237-5.358,4.3-.443-15.1-.734,28.183-6.342-5.092,6.282,7.391-.741,28.462Z" transform="translate(-1018.104 -1045.633)" fill="#d1c91a"/>
                        </g>
                        <g id="Grupo_949180" data-name="Grupo 949180" transform="translate(0 44.9)">
                          <path id="Trazado_684334" data-name="Trazado 684334" d="M928.575,1137.271c-.053-20.47-3.948-36.995-8.747-36.995s-8.694,16.525-8.748,36.995Z" transform="translate(-911.08 -1100.276)" fill="#b3c738"/>
                          <path id="Trazado_684335" data-name="Trazado 684335" d="M914.489,1132.132l5.236,6.16-.035,1.328H921.4l-.209-7.128,5.364-6.311-5.422,4.353-.4-13.789,2.483-2.922-2.51,2.015-.207-7.076-.344,13.2-2.971-2.385,2.943,3.463-.347,13.333Z" transform="translate(-912.024 -1102.624)" fill="#dde197"/>
                        </g>
                        <g id="Grupo_949181" data-name="Grupo 949181" transform="translate(16.215 21.699)">
                          <path id="Trazado_684336" data-name="Trazado 684336" d="M961.781,1128.292c-.048-33.225-6.36-60.095-14.141-60.095s-14.092,26.87-14.141,60.095Z" transform="translate(-933.499 -1068.197)" fill="#72c352"/>
                          <path id="Trazado_684337" data-name="Trazado 684337" d="M939.013,1119.682l8.463,9.956-.064,2.449h2.779l-.347-11.824,8.67-10.2-8.762,7.035-.653-22.286,4.014-4.722-4.057,3.257-.335-11.436-.556,21.339-4.8-3.855,4.757,5.6-.562,21.55Z" transform="translate(-935.025 -1071.992)" fill="#9fd163"/>
                        </g>
                        <g id="Grupo_949182" data-name="Grupo 949182" transform="translate(136.568)">
                          <path id="Trazado_684338" data-name="Trazado 684338" d="M1138.529,1119.989c-.1-45.247-8.709-81.793-19.313-81.793s-19.211,36.546-19.313,81.793Z" transform="translate(-1099.902 -1038.196)" fill="#408338"/>
                          <path id="Trazado_684339" data-name="Trazado 684339" d="M1107.433,1108.516l11.558,13.6-.08,3.059h3.779l-.465-15.863,11.842-13.931-11.968,9.608-.892-30.439,5.482-6.45-5.541,4.448-.458-15.619-.759,29.145-6.559-5.266,6.5,7.644-.767,29.433Z" transform="translate(-1101.986 -1043.38)" fill="#9fd163"/>
                        </g>
                        <g id="Grupo_949183" data-name="Grupo 949183" transform="translate(114.594 21.699)">
                          <path id="Trazado_684340" data-name="Trazado 684340" d="M1097.8,1128.292c-.049-33.225-6.361-60.095-14.141-60.095s-14.092,26.87-14.141,60.095Z" transform="translate(-1069.52 -1068.197)" fill="#54aa52"/>
                          <path id="Trazado_684341" data-name="Trazado 684341" d="M1075.034,1119.682l8.462,9.956-.064,2.449h2.778l-.346-11.824,8.67-10.2-8.762,7.035-.653-22.286,4.014-4.722-4.057,3.257-.335-11.436-.556,21.339-4.8-3.855,4.757,5.6-.562,21.55Z" transform="translate(-1071.046 -1071.992)" fill="#9fd163"/>
                        </g>
                      </g>
                      <g id="Grupo_949188" data-name="Grupo 949188" transform="translate(63.001 21.145)">
                        <g id="Grupo_949187" data-name="Grupo 949187">
                          <path id="Trazado_684342" data-name="Trazado 684342" d="M1038.242,1114.552a10.854,10.854,0,0,0-17.766.6,7.5,7.5,0,1,0,1.8,13.961,10.848,10.848,0,0,0,14.352.221,7.5,7.5,0,1,0,1.618-14.783Z" transform="translate(-1001.82 -1079.274)" fill="#488818"/>
                          <path id="Trazado_684343" data-name="Trazado 684343" d="M1030.029,1135.588a.89.89,0,0,1-.888-.706c-.021-.085-.942-3.572-8.1-6.387a.889.889,0,1,1,.651-1.656c8.232,3.235,9.161,7.507,9.2,7.687a.889.889,0,0,1-.7,1.044A.937.937,0,0,1,1030.029,1135.588Z" transform="translate(-1004.354 -1083.855)" fill="#662b14"/>
                          <path id="Trazado_684344" data-name="Trazado 684344" d="M1036.39,1137.147a.89.89,0,0,0,.857-.742c.017-.087.79-3.61,7.826-6.726a.889.889,0,0,0-.721-1.626c-8.087,3.582-8.834,7.888-8.862,8.07a.89.89,0,0,0,.9,1.024Z" transform="translate(-1008.507 -1084.187)" fill="#662b14"/>
                          <rect id="Rectángulo_337587" data-name="Rectángulo 337587" width="7.139" height="23.421" transform="translate(24.1 38.016) rotate(-1.218)" fill="#b64c23"/>
                          <path id="Trazado_684345" data-name="Trazado 684345" d="M1038.875,1130.576l-7.058,3.906-.363-17.127,7.138-.152Z" transform="translate(-1007.393 -1081.205)" fill="#662b14"/>
                          <path id="Trazado_684346" data-name="Trazado 684346" d="M1052.688,1094.24a7.787,7.787,0,0,0-4.013-6.65,22.957,22.957,0,0,0-45.619.421,7.79,7.79,0,0,0-3.752,11.219,12.929,12.929,0,0,0,21.7,13.592,22.883,22.883,0,0,0,9.646.025,12.929,12.929,0,0,0,20.986-14.526A7.755,7.755,0,0,0,1052.688,1094.24Z" transform="translate(-998.187 -1067.432)" fill="#72c352"/>
                          <g id="Grupo_949185" data-name="Grupo 949185" transform="translate(25.792 50.843)">
                            <path id="Trazado_684347" data-name="Trazado 684347" d="M1040.846,1141.644a2.12,2.12,0,0,0-2.6,2.118l.113,5.326c0,.068.007.135.015.2l2.637-.056Z" transform="translate(-1035.064 -1138.797)" fill="#e16c23"/>
                            <path id="Trazado_684348" data-name="Trazado 684348" d="M1034.878,1147.583h0a.994.994,0,0,1-1.015-.973l-.015-.7a.994.994,0,0,1,.973-1.016h0a.994.994,0,0,1,1.015.974l.015.7A.994.994,0,0,1,1034.878,1147.583Z" transform="translate(-1033.848 -1139.711)" fill="#e16c23"/>
                            <path id="Trazado_684349" data-name="Trazado 684349" d="M1039.7,1139.656h0a.711.711,0,0,1-.727-.7l-.011-.5a.712.712,0,0,1,.7-.727h0a.712.712,0,0,1,.727.7l.011.5A.712.712,0,0,1,1039.7,1139.656Z" transform="translate(-1035.264 -1137.729)" fill="#e16c23"/>
                            <path id="Trazado_684350" data-name="Trazado 684350" d="M1035.1,1150.808h0a.583.583,0,0,1-.6-.571l-.009-.413a.583.583,0,0,1,.571-.595h0a.583.583,0,0,1,.6.57l.008.413A.583.583,0,0,1,1035.1,1150.808Z" transform="translate(-1034.027 -1140.911)" fill="#e16c23"/>
                          </g>
                          <g id="Grupo_949186" data-name="Grupo 949186" transform="translate(31.389 4.932)">
                            <path id="Trazado_684351" data-name="Trazado 684351" d="M1048.443,1087.907a1.507,1.507,0,1,1-1.539-1.474A1.507,1.507,0,0,1,1048.443,1087.907Z" transform="translate(-1042.65 -1077.622)" fill="#9fd163"/>
                            <path id="Trazado_684352" data-name="Trazado 684352" d="M1053.655,1082.329a1.065,1.065,0,1,1-1.087-1.042A1.066,1.066,0,0,1,1053.655,1082.329Z" transform="translate(-1044.336 -1076.198)" fill="#9fd163"/>
                            <path id="Trazado_684353" data-name="Trazado 684353" d="M1046.819,1076.813a2.617,2.617,0,1,1-2.672-2.562A2.617,2.617,0,0,1,1046.819,1076.813Z" transform="translate(-1041.585 -1074.25)" fill="#9fd163"/>
                          </g>
                        </g>
                        <path id="Trazado_684354" data-name="Trazado 684354" d="M1040.087,1148.889a1.881,1.881,0,0,0,.185-.857,1.909,1.909,0,0,0-1.949-1.868,1.888,1.888,0,0,0-.657.134,3.178,3.178,0,0,0-5.886-.089,2.254,2.254,0,0,0-2.98,3.091c-1.44.247-2.319.557-2.312.877.014.671,3.911,1.133,8.7,1.031s8.665-.728,8.651-1.4C1043.831,1149.4,1042.346,1149.061,1040.087,1148.889Z" transform="translate(-1006.018 -1088.697)" fill="#409e38"/>
                      </g>
                    </g>
                  </g>
                </g>
                <g id="Grupo_949205" data-name="Grupo 949205" transform="translate(0 0.723)">
                  <g id="Grupo_949204" data-name="Grupo 949204" clip-path="url(#clip-path-4)">
                    <g id="Grupo_949203" data-name="Grupo 949203" transform="translate(-13.742 13.443)">
                      <g id="Grupo_949198" data-name="Grupo 949198">
                        <g id="Grupo_949192" data-name="Grupo 949192" transform="translate(101.335 1.754)">
                          <path id="Trazado_684355" data-name="Trazado 684355" d="M755.416,1121.661c0-.053,0-.106,0-.158,0-44.117,8.362-79.881,18.678-79.881s18.678,35.764,18.678,79.881c0,.053,0,.106,0,.158Z" transform="translate(-755.415 -1041.621)" fill="#408338"/>
                          <path id="Trazado_684356" data-name="Trazado 684356" d="M789.925,1109.619l-11.177,13.149.1,3.9h-3.707l.477-16.286-11.451-13.471,11.573,9.291.863-29.434-5.3-6.237,5.358,4.3.443-15.1.734,28.183,6.342-5.092-6.283,7.391.742,28.462Z" transform="translate(-757.838 -1046.633)" fill="#d1c91a"/>
                        </g>
                        <g id="Grupo_949193" data-name="Grupo 949193" transform="translate(61.891 1.754)">
                          <path id="Trazado_684357" data-name="Trazado 684357" d="M700.88,1121.661c0-.053,0-.106,0-.158,0-44.117,8.362-79.881,18.678-79.881s18.678,35.764,18.678,79.881c0,.053,0,.106,0,.158Z" transform="translate(-700.879 -1041.621)" fill="#b3c738"/>
                          <path id="Trazado_684358" data-name="Trazado 684358" d="M735.389,1109.619l-11.177,13.149.1,3.9h-3.707l.477-16.286-11.451-13.471,11.573,9.291.863-29.434-5.3-6.237,5.358,4.3.443-15.1.734,28.183,6.342-5.092-6.282,7.391.742,28.462Z" transform="translate(-703.302 -1046.633)" fill="#d1c91a"/>
                        </g>
                        <g id="Grupo_949194" data-name="Grupo 949194" transform="translate(157.7 44.9)">
                          <path id="Trazado_684359" data-name="Trazado 684359" d="M833.347,1138.271c.054-20.47,3.949-37,8.748-37s8.694,16.525,8.748,37Z" transform="translate(-833.347 -1101.276)" fill="#b3c738"/>
                          <path id="Trazado_684360" data-name="Trazado 684360" d="M849.511,1133.132l-5.236,6.16.035,1.328H842.6l.209-7.128-5.364-6.311,5.422,4.353.4-13.789-2.483-2.922,2.51,2.015.207-7.076.344,13.2,2.971-2.385-2.943,3.463.347,13.333Z" transform="translate(-834.481 -1103.624)" fill="#dde197"/>
                        </g>
                        <g id="Grupo_949195" data-name="Grupo 949195" transform="translate(130.698 21.699)">
                          <path id="Trazado_684361" data-name="Trazado 684361" d="M796.014,1129.292c.049-33.225,6.361-60.095,14.141-60.095s14.092,26.87,14.141,60.095Z" transform="translate(-796.014 -1069.197)" fill="#72c352"/>
                          <path id="Trazado_684362" data-name="Trazado 684362" d="M822.142,1120.682l-8.463,9.956.064,2.449h-2.779l.347-11.823-8.67-10.2,8.763,7.035.653-22.286-4.014-4.722,4.057,3.257.335-11.436.556,21.339,4.8-3.855-4.757,5.6.562,21.55Z" transform="translate(-797.848 -1072.992)" fill="#9fd163"/>
                        </g>
                        <g id="Grupo_949196" data-name="Grupo 949196">
                          <path id="Trazado_684363" data-name="Trazado 684363" d="M615.308,1120.99c.1-45.248,8.71-81.793,19.313-81.793s19.211,36.546,19.313,81.793Z" transform="translate(-615.308 -1039.196)" fill="#408338"/>
                          <path id="Trazado_684364" data-name="Trazado 684364" d="M650.993,1109.516l-11.558,13.6.08,3.059h-3.779l.465-15.863-11.841-13.931,11.968,9.608.892-30.439-5.482-6.45,5.541,4.448.458-15.619.759,29.145,6.559-5.266-6.5,7.644.767,29.433Z" transform="translate(-617.813 -1044.38)" fill="#9fd163"/>
                        </g>
                        <g id="Grupo_949197" data-name="Grupo 949197" transform="translate(32.32 21.699)">
                          <path id="Trazado_684365" data-name="Trazado 684365" d="M659.994,1129.292c.048-33.225,6.36-60.095,14.141-60.095s14.092,26.87,14.141,60.095Z" transform="translate(-659.994 -1069.197)" fill="#54aa52"/>
                          <path id="Trazado_684366" data-name="Trazado 684366" d="M686.122,1120.682l-8.463,9.956.064,2.449h-2.779l.347-11.823-8.67-10.2,8.763,7.035.653-22.286-4.014-4.722,4.057,3.257.335-11.436.556,21.339,4.8-3.855-4.757,5.6.562,21.55Z" transform="translate(-661.828 -1072.992)" fill="#9fd163"/>
                        </g>
                      </g>
                      <g id="Grupo_949202" data-name="Grupo 949202" transform="translate(57.492 21.145)">
                        <g id="Grupo_949201" data-name="Grupo 949201">
                          <path id="Trazado_684367" data-name="Trazado 684367" d="M717.147,1115.552a10.854,10.854,0,0,1,17.766.6,7.5,7.5,0,1,1-1.794,13.961,10.849,10.849,0,0,1-14.352.221,7.5,7.5,0,1,1-1.619-14.783Z" transform="translate(-698.867 -1080.274)" fill="#488818"/>
                          <path id="Trazado_684368" data-name="Trazado 684368" d="M734.6,1136.588a.891.891,0,0,0,.888-.706c.02-.085.942-3.572,8.1-6.387a.889.889,0,0,0-.65-1.656c-8.232,3.235-9.161,7.507-9.2,7.687a.889.889,0,0,0,.7,1.045A.952.952,0,0,0,734.6,1136.588Z" transform="translate(-705.57 -1084.854)" fill="#662b14"/>
                          <path id="Trazado_684369" data-name="Trazado 684369" d="M728.354,1138.147a.889.889,0,0,1-.857-.742c-.017-.087-.79-3.61-7.826-6.726a.889.889,0,1,1,.72-1.626c8.088,3.582,8.835,7.888,8.862,8.069a.889.889,0,0,1-.744,1.014A.865.865,0,0,1,728.354,1138.147Z" transform="translate(-701.534 -1085.187)" fill="#662b14"/>
                          <rect id="Rectángulo_337589" data-name="Rectángulo 337589" width="7.139" height="23.421" transform="translate(30.105 61.432) rotate(-178.782)" fill="#b64c23"/>
                          <path id="Trazado_684370" data-name="Trazado 684370" d="M726.9,1131.576l7.058,3.906.363-17.127-7.138-.152Z" transform="translate(-703.682 -1082.205)" fill="#662b14"/>
                          <path id="Trazado_684371" data-name="Trazado 684371" d="M695,1095.24a7.787,7.787,0,0,1,4.013-6.65,22.957,22.957,0,0,1,45.619.421,7.791,7.791,0,0,1,3.752,11.219,12.929,12.929,0,0,1-21.7,13.592,22.883,22.883,0,0,1-9.646.025,12.929,12.929,0,0,1-20.985-14.526A7.749,7.749,0,0,1,695,1095.24Z" transform="translate(-694.797 -1068.432)" fill="#72c352"/>
                          <g id="Grupo_949199" data-name="Grupo 949199" transform="translate(22.967 50.843)">
                            <path id="Trazado_684372" data-name="Trazado 684372" d="M726.713,1142.644a2.12,2.12,0,0,1,2.6,2.118l-.113,5.326a1.873,1.873,0,0,1-.015.2l-2.637-.056Z" transform="translate(-726.552 -1139.797)" fill="#e16c23"/>
                            <path id="Trazado_684373" data-name="Trazado 684373" d="M732.972,1148.583h0a.994.994,0,0,0,1.016-.973l.014-.7a.994.994,0,0,0-.973-1.016h0a1,1,0,0,0-1.016.974l-.014.7A.993.993,0,0,0,732.972,1148.583Z" transform="translate(-728.059 -1140.711)" fill="#e16c23"/>
                            <path id="Trazado_684374" data-name="Trazado 684374" d="M728.366,1140.656h0a.711.711,0,0,0,.727-.7l.011-.5a.712.712,0,0,0-.7-.727h0a.712.712,0,0,0-.728.7l-.01.5A.711.711,0,0,0,728.366,1140.656Z" transform="translate(-726.861 -1138.729)" fill="#e16c23"/>
                            <path id="Trazado_684375" data-name="Trazado 684375" d="M733.067,1151.808h0a.584.584,0,0,0,.6-.57l.009-.413a.583.583,0,0,0-.571-.594h0a.583.583,0,0,0-.6.57l-.009.413A.584.584,0,0,0,733.067,1151.808Z" transform="translate(-728.197 -1141.912)" fill="#e16c23"/>
                          </g>
                          <g id="Grupo_949200" data-name="Grupo 949200" transform="translate(13.994 4.932)">
                            <path id="Trazado_684376" data-name="Trazado 684376" d="M719.021,1088.907a1.507,1.507,0,1,0,1.538-1.474A1.507,1.507,0,0,0,719.021,1088.907Z" transform="translate(-715.495 -1078.621)" fill="#9fd163"/>
                            <path id="Trazado_684377" data-name="Trazado 684377" d="M714.146,1083.329a1.065,1.065,0,1,0,1.088-1.042A1.066,1.066,0,0,0,714.146,1083.329Z" transform="translate(-714.146 -1077.197)" fill="#9fd163"/>
                            <path id="Trazado_684378" data-name="Trazado 684378" d="M719.794,1077.813a2.617,2.617,0,1,0,2.672-2.562A2.617,2.617,0,0,0,719.794,1077.813Z" transform="translate(-715.708 -1075.25)" fill="#9fd163"/>
                          </g>
                        </g>
                        <path id="Trazado_684379" data-name="Trazado 684379" d="M721.89,1149.889a1.889,1.889,0,0,1-.185-.857,1.906,1.906,0,0,1,2.607-1.735,3.178,3.178,0,0,1,5.886-.089,2.254,2.254,0,0,1,2.981,3.091c1.439.247,2.319.557,2.312.877-.014.671-3.91,1.133-8.7,1.031s-8.665-.729-8.651-1.4C718.146,1150.4,719.631,1150.061,721.89,1149.889Z" transform="translate(-701.256 -1089.696)" fill="#409e38"/>
                      </g>
                    </g>
                  </g>
                </g>
              </g>
            </g>
            <g id="Grupo_949220" data-name="Grupo 949220" transform="translate(0 148.782)">
              <g id="Grupo_949213" data-name="Grupo 949213" transform="translate(253.097)">
                <g id="Grupo_949212" data-name="Grupo 949212" clip-path="url(#clip-path-5)">
                  <g id="Grupo_949211" data-name="Grupo 949211" transform="translate(12.618 7.954)">
                    <g id="Grupo_949208" data-name="Grupo 949208" transform="translate(33.355)">
                      <path id="Trazado_684380" data-name="Trazado 684380" d="M1186.623,1139.755c.062-.063.1-.105.1-.105S1186.682,1139.689,1186.623,1139.755Z" transform="translate(-1086.223 -1139.649)" fill="#408338"/>
                      <path id="Trazado_684381" data-name="Trazado 684381" d="M1150.662,1169.261c.166-6.52-14.632,3.207-14.43-2.446s12.2-9.62,10.592-16.936c-1.435-6.547.88-9.557,1.384-10.119-.527.54-3.38,3.055-10.023,2.163-7.422-1-10.391,11.283-16.008,11.948s2.861-14.881-3.624-14.18-6.839,23.729-13.7,25.749,2.885-24.869-8.8-19.427-12.756,33.775-16.188,34.784-.986-13.42-8.186-13.377-4.105,31.252-10.281,28.9c-3.825-8.527-17.5-13.609-6.65,7.221,9.111,17.5,5.165,29.45,3.67,32.823q-5.236,5.425-10.444,10.88c-.525.551.328,1.326.865.8q5.736-5.661,11.393-11.4c4.224-2,15.348-5.558,32.04,1.454,21.651,9.1,15.463-4.109,6.651-7.221-2.851-5.962,28.507-5.442,27.959-12.62s-14.729-3.556-14.005-7.059,28.874-6.9,33.338-18.991-21.533-.167-20.085-7.173S1150.5,1175.781,1150.662,1169.261Z" transform="translate(-1047.808 -1139.654)" fill="#406d3c"/>
                    </g>
                    <g id="Grupo_949209" data-name="Grupo 949209" transform="translate(11.416 34.81)">
                      <path id="Trazado_684382" data-name="Trazado 684382" d="M1020.02,1187.858c-.047-.048-.075-.08-.075-.08S1019.976,1187.808,1020.02,1187.858Z" transform="translate(-1018.158 -1187.778)" fill="#54aa52"/>
                      <path id="Trazado_684383" data-name="Trazado 684383" d="M1017.476,1211.237c-.126-4.945,11.1,2.432,10.945-1.855s-9.251-7.3-8.034-12.845c1.089-4.965-.667-7.249-1.049-7.674.4.409,2.564,2.317,7.6,1.64,5.629-.756,7.881,8.558,12.141,9.062s-2.171-11.286,2.748-10.754,5.187,18,10.393,19.528-2.188-18.861,6.674-14.734,9.674,25.617,12.277,26.382.749-10.178,6.209-10.147,3.113,23.7,7.8,21.92c2.9-6.467,13.269-10.322,5.044,5.477-6.91,13.274-3.917,22.336-2.784,24.895q3.972,4.115,7.921,8.252c.4.418-.249,1.006-.656.6q-4.35-4.293-8.641-8.643c-3.2-1.516-11.64-4.216-24.3,1.1-16.421,6.9-11.727-3.117-5.043-5.478,2.162-4.521-21.622-4.127-21.205-9.572s11.172-2.7,10.622-5.354-21.9-5.233-25.285-14.4,16.332-.126,15.233-5.441S1017.6,1216.182,1017.476,1211.237Z" transform="translate(-1017.475 -1188.059)" fill="#439140"/>
                    </g>
                    <g id="Grupo_949210" data-name="Grupo 949210" transform="translate(0 45.591)">
                      <path id="Trazado_684384" data-name="Trazado 684384" d="M1017.4,1202.754c-.013-.042-.02-.07-.02-.07S1017.386,1202.712,1017.4,1202.754Z" transform="translate(-1006.031 -1202.684)" fill="#408338"/>
                      <path id="Trazado_684385" data-name="Trazado 684385" d="M1005.088,1215.387c1.444-2.951,5.788,4.841,7.015,2.269s-3.207-7.138-.787-10.032c2.166-2.59,1.834-4.473,1.739-4.842.11.365.8,2.152,3.973,3.3,3.548,1.283,2.014,7.46,4.368,9.065s2.188-7.313,4.921-5.49-2.472,12.192.124,14.693,4.5-11.78,8.456-6.629-2.17,18.058-.872,19.308,3.566-5.765,6.773-4.069-5.446,14.916-2.139,15.3c3.695-2.917,10.984-2,1.288,4.775-8.146,5.7-9.166,11.951-9.284,13.806q1.075,3.644,2.131,7.293a.3.3,0,0,1-.571.155q-1.243-3.865-2.435-7.744c-1.421-1.877-5.561-6.058-14.65-6.814-11.79-.98-5.949-5.437-1.289-4.774,2.662-2-11.466-9.07-9.549-12.149s7.407,1.843,7.9.109-11.29-9.807-10.467-16.248,9.657,4.941,10.642,1.474S1003.644,1218.338,1005.088,1215.387Z" transform="translate(-1001.69 -1202.711)" fill="#408338"/>
                    </g>
                  </g>
                </g>
              </g>
              <g id="Grupo_949219" data-name="Grupo 949219" transform="translate(0 0)">
                <g id="Grupo_949218" data-name="Grupo 949218" clip-path="url(#clip-path-6)">
                  <g id="Grupo_949217" data-name="Grupo 949217" transform="translate(-40.293 7.954)">
                    <g id="Grupo_949214" data-name="Grupo 949214">
                      <path id="Trazado_684386" data-name="Trazado 684386" d="M581.956,1139.755c-.062-.063-.1-.105-.1-.105S581.9,1139.689,581.956,1139.755Z" transform="translate(-579.5 -1139.649)" fill="#408338"/>
                      <path id="Trazado_684387" data-name="Trazado 684387" d="M578.6,1169.261c-.166-6.52,14.632,3.207,14.43-2.446s-12.2-9.62-10.593-16.936c1.435-6.547-.88-9.557-1.383-10.119.527.54,3.38,3.055,10.022,2.163,7.423-1,10.391,11.283,16.009,11.948s-2.861-14.881,3.623-14.18,6.839,23.729,13.7,25.749-2.884-24.869,8.8-19.427,12.755,33.775,16.188,34.784.986-13.42,8.186-13.377,4.1,31.252,10.28,28.9c3.825-8.527,17.494-13.609,6.65,7.221-9.111,17.5-5.165,29.45-3.671,32.823q5.237,5.425,10.444,10.88c.526.551-.328,1.326-.865.8q-5.736-5.661-11.393-11.4c-4.224-2-15.348-5.558-32.039,1.454-21.651,9.1-15.463-4.109-6.651-7.221,2.85-5.962-28.508-5.442-27.958-12.62s14.729-3.556,14-7.059-28.874-6.9-33.337-18.991,21.534-.167,20.085-7.173S578.766,1175.781,578.6,1169.261Z" transform="translate(-578.599 -1139.654)" fill="#406d3c"/>
                    </g>
                    <g id="Grupo_949215" data-name="Grupo 949215" transform="translate(46.784 34.81)">
                      <path id="Trazado_684388" data-name="Trazado 684388" d="M748.567,1187.858c.047-.048.075-.08.075-.08S748.612,1187.808,748.567,1187.858Z" transform="translate(-672.419 -1187.778)" fill="#54aa52"/>
                      <path id="Trazado_684389" data-name="Trazado 684389" d="M721.292,1211.237c.126-4.945-11.1,2.432-10.944-1.855s9.25-7.3,8.033-12.845c-1.089-4.965.668-7.249,1.05-7.674-.4.409-2.563,2.317-7.6,1.64-5.63-.756-7.881,8.558-12.141,9.062s2.17-11.286-2.748-10.754-5.187,18-10.393,19.528,2.188-18.861-6.674-14.734-9.674,25.617-12.277,26.382-.748-10.178-6.208-10.147-3.114,23.7-7.8,21.92c-2.9-6.467-13.268-10.322-5.044,5.477,6.911,13.274,3.917,22.336,2.784,24.895q-3.971,4.115-7.921,8.252c-.4.418.249,1.006.656.6q4.35-4.293,8.641-8.643c3.2-1.516,11.641-4.216,24.3,1.1,16.421,6.9,11.728-3.117,5.044-5.478-2.162-4.521,21.621-4.127,21.2-9.572s-11.171-2.7-10.622-5.354,21.9-5.233,25.285-14.4-16.332-.126-15.234-5.441S721.167,1216.182,721.292,1211.237Z" transform="translate(-643.283 -1188.059)" fill="#439140"/>
                    </g>
                    <g id="Grupo_949216" data-name="Grupo 949216" transform="translate(93.126 45.591)">
                      <path id="Trazado_684390" data-name="Trazado 684390" d="M751.213,1202.754c.013-.042.02-.07.02-.07S751.224,1202.712,751.213,1202.754Z" transform="translate(-719.493 -1202.684)" fill="#408338"/>
                      <path id="Trazado_684391" data-name="Trazado 684391" d="M747.044,1215.387c-1.445-2.951-5.788,4.841-7.016,2.269s3.207-7.138.787-10.032c-2.166-2.59-1.833-4.473-1.739-4.842-.11.365-.8,2.152-3.974,3.3-3.548,1.283-2.013,7.46-4.367,9.065s-2.188-7.313-4.921-5.49,2.472,12.192-.124,14.693-4.5-11.78-8.456-6.629,2.17,18.058.872,19.308-3.566-5.765-6.772-4.069,5.445,14.916,2.139,15.3c-3.694-2.917-10.984-2-1.289,4.775,8.146,5.7,9.167,11.951,9.285,13.806q-1.075,3.644-2.131,7.293a.3.3,0,0,0,.572.155q1.243-3.865,2.434-7.744c1.421-1.877,5.56-6.058,14.65-6.814,11.789-.98,5.95-5.437,1.288-4.774-2.662-2,11.467-9.07,9.549-12.149s-7.408,1.843-7.9.109,11.291-9.807,10.468-16.248-9.657,4.941-10.642,1.474S748.488,1218.338,747.044,1215.387Z" transform="translate(-707.357 -1202.711)" fill="#408338"/>
                    </g>
                  </g>
                </g>
              </g>
            </g>
            <g id="Grupo_949224" data-name="Grupo 949224" transform="translate(14.224 59.75)">
              <g id="Grupo_949223" data-name="Grupo 949223">
                <g id="Grupo_949222" data-name="Grupo 949222" transform="translate(12.898)">
                  <g id="Grupo_949221" data-name="Grupo 949221" transform="translate(72.967)">
                    <path id="Trazado_684392" data-name="Trazado 684392" d="M934.223,1105.769s-63.761-62.924-80.765-99.087c-17,36.163-80.764,99.087-80.764,99.087Z" transform="translate(-772.694 -1005.867)" fill="#ffd623"/>
                    <path id="Trazado_684393" data-name="Trazado 684393" d="M921.125,1105.769s-47.012-62.924-59.549-99.087c-12.537,36.163-59.549,99.087-59.549,99.087Z" transform="translate(-780.812 -1005.867)" fill="#ffb023"/>
                    <path id="Trazado_684394" data-name="Trazado 684394" d="M890.836,1118.96s-8.28-41.031-10.487-64.611c-2.208,23.581-10.487,64.611-10.487,64.611Z" transform="translate(-799.583 -1019.058)" fill="#956323"/>
                    <path id="Trazado_684395" data-name="Trazado 684395" d="M883.973,1006.681s-.723,53.993,30.377,95.581l-19.89,3.506S878.91,1035.5,883.973,1006.681Z" transform="translate(-803.208 -1005.867)" fill="#f09a23"/>
                    <path id="Trazado_684396" data-name="Trazado 684396" d="M873.086,1006.681s.723,53.993-30.377,95.581l19.89,3.506S878.149,1035.5,873.086,1006.681Z" transform="translate(-792.07 -1005.867)" fill="#f09a23"/>
                    <path id="Trazado_684397" data-name="Trazado 684397" d="M892.064,1023.547s-9.85-11.426-12.476-17.992c-2.627,6.566-12.476,17.992-12.476,17.992Z" transform="translate(-798.822 -1005.555)" fill="#ff7"/>
                  </g>
                  <path id="Trazado_684398" data-name="Trazado 684398" d="M884.361,1005.555s71.178,87.149,156.549,104.371" transform="translate(-730.629 -1005.555)" fill="none" stroke="#ffea77" stroke-linecap="round" stroke-linejoin="round" stroke-width="1"/>
                  <path id="Trazado_684399" data-name="Trazado 684399" d="M826.232,1005.555s-69.052,86.968-154.424,104.19" transform="translate(-671.808 -1005.555)" fill="none" stroke="#ffea77" stroke-linecap="round" stroke-linejoin="round" stroke-width="1"/>
                </g>
                <path id="Trazado_684400" data-name="Trazado 684400" d="M823.759,1141.819c-61.815,0-119.781,1.935-169.784,5.316,34.713,1.972,100.433,3.3,175.8,3.3,70.691,0,132.888-1.171,168.98-2.943C947.588,1143.891,887.733,1141.819,823.759,1141.819Z" transform="translate(-653.975 -1043.264)" fill="#88a727"/>
              </g>
            </g>
          </g>
        </g>
      </g>
    </g>
  </g>
</svg>
