<svg xmlns="http://www.w3.org/2000/svg" xmlns:xlink="http://www.w3.org/1999/xlink" width="319" height="490.953" viewBox="0 0 319 490.953">
  <defs>
    <clipPath id="clip-path">
      <rect id="Rectángulo_337608" data-name="Rectángulo 337608" width="319" height="385" transform="translate(234 6032.953)" fill="#fff" stroke="#707070" stroke-width="1"/>
    </clipPath>
  </defs>
  <g id="Grupo_963441" data-name="Grupo 963441" transform="translate(1142 2245.953)">
    <g id="Enmascarar_grupo_927209" data-name="Enmascarar grupo 927209" transform="translate(-1376 -8172.953)" clip-path="url(#clip-path)">
      <g id="Grupo_949760" data-name="Grupo 949760" transform="translate(259.391 6039.158)">
        <g id="Grupo_949644" data-name="Grupo 949644" transform="translate(43.031 0)">
          <path id="Trazado_684920" data-name="Trazado 684920" d="M985.875,137.017c1.3,3.83,2.648,7.791,3.931,11.989,4.083,13.381-8.8,15.069-8.8,15.069s4.136,9.114-2.369,16.408a12.78,12.78,0,0,1-14.732,3.381s-2.982,3.97-10.819,4.463c-11.368.718-15.507-3.846-15.507-3.846L925.7,182.35c-1.564.874-2.779,6.683-15.343,8.152-11.421,1.334-17.3-5.518-17.3-5.518-3.022,5.917-17.237,4.877-18.849-4.5-1.514-8.8,2.581-12.406,3.082-12.815-7.379,5.226-19.689-8.907-6.646-22.309,5.305-5.454,8.238-7.987,10.221-10.718-5.909,1.4-12.084-5.479-9.445-11.484,3.409-7.748,9.643-4.661,15.734-15.781,8.1-14.77,14.288-19.811,14.649-20.1l.011-.009c10.45-9.914,25.886-14.448,42.787-13.4,14.37.888,22.744,6.765,27.593,12.8a30.337,30.337,0,0,1,6.436,18.417q.045,2.1.234,4.141c2.011,4.884,6.13,13.547,10.994,16.178C996.475,129,992.774,138.489,985.875,137.017Z" transform="translate(-864.919 -73.727)" fill="#32324c"/>
        </g>
        <g id="Grupo_949645" data-name="Grupo 949645" transform="translate(0 44.91)">
          <path id="Trazado_684921" data-name="Trazado 684921" d="M1125.1,504.363c-9.119,134.445-178.754,188.933-262.494,83.356-17.1-21.561-21.193-73.556-16.763-100.981,17.86-110.539,74.546-121.832,32.224-191.753S831.818,98.129,948.659,99.119,990.18,286.862,1070.667,339.1C1107.48,362.986,1129.855,434.343,1125.1,504.363Z" transform="translate(-837.829 -99.114)" fill="#32324c" opacity="0.1"/>
          <path id="Trazado_684922" data-name="Trazado 684922" d="M993.791,247.772a17.825,17.825,0,0,1-19.652-5.65c-7.6-9.211-19.733-27.813-16.123-49.46,5.158-30.924,44.347-6.238,47.431,28.522C1006.988,238.562,1000.582,245.339,993.791,247.772Z" transform="translate(-750.8 -38.014)" fill="#32324c" opacity="0.1"/>
          <path id="Trazado_684923" data-name="Trazado 684923" d="M957.111,187.846a9.3,9.3,0,0,1-6.3-8.606c-.195-6.227.743-17.773,9.146-25.548,12-11.106,20.284,11.591,10.453,26.912C965.494,188.264,960.688,189.012,957.111,187.846Z" transform="translate(-755.853 -59.414)" fill="#32324c" opacity="0.1"/>
          <path id="Trazado_684924" data-name="Trazado 684924" d="M849.359,273.758a9.3,9.3,0,0,1-7.755-7.324c-1.32-6.089-2.489-17.614,4.368-26.783,9.793-13.1,22.046,7.725,15.154,24.573C857.678,272.647,853.088,274.255,849.359,273.758Z" transform="translate(-840.595 5.792)" fill="#32324c" opacity="0.1"/>
        </g>
        <path id="Trazado_684925" data-name="Trazado 684925" d="M898.06,147.692s8.964.587,81.817,34.648a20.754,20.754,0,0,0,11.463.462c12.861-2.777-1.415-24.639-1.415-24.639S938.436,124.071,898.06,147.692Z" transform="translate(-796.403 -23.255)" fill="#c11c57"/>
        <ellipse id="Elipse_5293" data-name="Elipse 5293" cx="107.853" cy="16.363" rx="107.853" ry="16.363" transform="translate(30.441 625.537)" fill="#32324c" opacity="0.1"/>
        <g id="Grupo_949721" data-name="Grupo 949721" transform="translate(76.491 304.438)">
          <g id="Grupo_949679" data-name="Grupo 949679" transform="translate(49.511 6.393)">
            <g id="Grupo_949646" data-name="Grupo 949646">
              <path id="Trazado_684926" data-name="Trazado 684926" d="M965.441,408.12l-11.948,144.3H932.441c-4.872-56.237-15.371-130.669,1.068-150.678-29.1-67.906-20.5-136.616-20.5-136.616,16.066-7.356,41.193-15.691,41.193-15.691C962.748,297.972,965.441,408.12,965.441,408.12Z" transform="translate(-911.822 -249.435)" fill="#211931"/>
            </g>
            <g id="Grupo_949678" data-name="Grupo 949678" transform="translate(15.332 280.063)">
              <g id="Grupo_949648" data-name="Grupo 949648">
                <g id="Grupo_949647" data-name="Grupo 949647">
                  <path id="Trazado_684927" data-name="Trazado 684927" d="M995.711,464.685H926.868a6.376,6.376,0,0,1-6.359-6.864l2.8-36.159a40.253,40.253,0,0,1,6.876-2.27,6.975,6.975,0,0,0,5.105-4.631c.05-.172.094-.349.14-.525,1.58-6.958,11.614-9.172,13.468-2.372.241.879.449,1.734.626,2.556.044.2.088.41.126.607.3,1.461.513,2.809.665,3.986.005.025.005.051.012.076a38.828,38.828,0,0,1,.341,4.914q1.367,1.738,2.645,3.418c.437.555.854,1.113,1.272,1.656.9,1.176,1.783,2.323,2.65,3.423.4.518.8,1.019,1.2,1.513.955,1.194,1.9,2.328,2.839,3.384.425.481.847.948,1.284,1.4,3.549,3.733,7.129,6.282,11.363,6.871,7.463,1.024,19.661,1.847,25.55,12.8a3.961,3.961,0,0,1,.3.7A4.246,4.246,0,0,1,995.711,464.685Z" transform="translate(-920.489 -407.75)" fill="#3555af"/>
                </g>
              </g>
              <g id="Grupo_949650" data-name="Grupo 949650" transform="translate(0.058 51.412)">
                <g id="Grupo_949649" data-name="Grupo 949649">
                  <path id="Trazado_684928" data-name="Trazado 684928" d="M995.686,442.334H926.843a6.375,6.375,0,0,1-6.321-5.521h79.213A4.246,4.246,0,0,1,995.686,442.334Z" transform="translate(-920.522 -436.813)" fill="#3986d7"/>
                </g>
              </g>
              <g id="Grupo_949658" data-name="Grupo 949658" transform="translate(24.136 19.671)">
                <g id="Grupo_949653" data-name="Grupo 949653" transform="translate(1.84)">
                  <g id="Grupo_949652" data-name="Grupo 949652">
                    <g id="Grupo_949651" data-name="Grupo 949651">
                      <path id="Trazado_684929" data-name="Trazado 684929" d="M943.289,420.526c-.8,1.171-2.424,2.588-5.7,3.9q-.836.342-1.822.665l-.594-1.8q.977-.321,1.771-.646c3.764-1.518,4.8-3.011,5.074-3.775C942.454,419.425,942.872,419.983,943.289,420.526Z" transform="translate(-935.173 -418.87)" fill="#fff"/>
                    </g>
                  </g>
                </g>
                <g id="Grupo_949657" data-name="Grupo 949657" transform="translate(0 3.184)">
                  <g id="Grupo_949656" data-name="Grupo 949656">
                    <g id="Grupo_949655" data-name="Grupo 949655">
                      <g id="Grupo_949654" data-name="Grupo 949654">
                        <path id="Trazado_684930" data-name="Trazado 684930" d="M938.4,422.805a2.135,2.135,0,1,1-2.135-2.135A2.137,2.137,0,0,1,938.4,422.805Z" transform="translate(-934.133 -420.67)" fill="#fff"/>
                      </g>
                    </g>
                  </g>
                </g>
              </g>
              <g id="Grupo_949666" data-name="Grupo 949666" transform="translate(28.958 24.75)">
                <g id="Grupo_949661" data-name="Grupo 949661" transform="translate(1.489)">
                  <g id="Grupo_949660" data-name="Grupo 949660">
                    <g id="Grupo_949659" data-name="Grupo 949659">
                      <path id="Trazado_684931" data-name="Trazado 684931" d="M945.191,423.253a13.52,13.52,0,0,1-4.713,2.967c-.658.285-1.38.55-2.183.816l-.594-1.8q1.12-.371,2.011-.739A10.866,10.866,0,0,0,944,421.741C944.393,422.259,944.791,422.76,945.191,423.253Z" transform="translate(-937.701 -421.741)" fill="#fff"/>
                    </g>
                  </g>
                </g>
                <g id="Grupo_949665" data-name="Grupo 949665" transform="translate(0 2.261)">
                  <g id="Grupo_949664" data-name="Grupo 949664">
                    <g id="Grupo_949663" data-name="Grupo 949663">
                      <g id="Grupo_949662" data-name="Grupo 949662">
                        <path id="Trazado_684932" data-name="Trazado 684932" d="M941.129,425.154a2.135,2.135,0,1,1-2.135-2.135A2.136,2.136,0,0,1,941.129,425.154Z" transform="translate(-936.859 -423.019)" fill="#fff"/>
                      </g>
                    </g>
                  </g>
                </g>
              </g>
              <g id="Grupo_949674" data-name="Grupo 949674" transform="translate(33.229 29.646)">
                <g id="Grupo_949669" data-name="Grupo 949669" transform="translate(1.463)">
                  <g id="Grupo_949668" data-name="Grupo 949668">
                    <g id="Grupo_949667" data-name="Grupo 949667">
                      <path id="Trazado_684933" data-name="Trazado 684933" d="M947.47,425.907a13.72,13.72,0,0,1-4.566,2.841c-.665.283-1.4.563-2.215.828l-.589-1.8c.754-.246,1.424-.5,2.026-.754a11.746,11.746,0,0,0,4.06-2.51C946.61,424.99,947.033,425.457,947.47,425.907Z" transform="translate(-940.1 -424.509)" fill="#fff"/>
                    </g>
                  </g>
                </g>
                <g id="Grupo_949673" data-name="Grupo 949673" transform="translate(0 2.029)">
                  <g id="Grupo_949672" data-name="Grupo 949672">
                    <g id="Grupo_949671" data-name="Grupo 949671">
                      <g id="Grupo_949670" data-name="Grupo 949670">
                        <path id="Trazado_684934" data-name="Trazado 684934" d="M943.543,427.791a2.135,2.135,0,1,1-2.135-2.135A2.137,2.137,0,0,1,943.543,427.791Z" transform="translate(-939.273 -425.656)" fill="#fff"/>
                      </g>
                    </g>
                  </g>
                </g>
              </g>
              <g id="Grupo_949677" data-name="Grupo 949677" transform="translate(23.685 7.277)">
                <g id="Grupo_949676" data-name="Grupo 949676">
                  <g id="Grupo_949675" data-name="Grupo 949675">
                    <path id="Trazado_684935" data-name="Trazado 684935" d="M940.015,415.85a48.278,48.278,0,0,0-6.137.348l.039-3.448a15.546,15.546,0,0,1,5.433-.886C939.647,413.325,939.862,414.673,940.015,415.85Z" transform="translate(-933.878 -411.864)" fill="#fff"/>
                  </g>
                </g>
              </g>
            </g>
          </g>
          <g id="Grupo_949720" data-name="Grupo 949720">
            <g id="Grupo_949718" data-name="Grupo 949718" transform="translate(0 16.006)">
              <g id="Grupo_949680" data-name="Grupo 949680">
                <path id="Trazado_684936" data-name="Trazado 684936" d="M940.729,260.947s-4.974,77.007-15.063,143.3c-2.156,14.168-4.807,104.981-11.354,143.989h-21.08l-4.056-141.718s-11.389-90.464-.907-151.654Z" transform="translate(-883.834 -254.869)" fill="#32324c"/>
              </g>
              <g id="Grupo_949717" data-name="Grupo 949717" transform="translate(0.804 274.579)">
                <g id="Grupo_949683" data-name="Grupo 949683">
                  <g id="Grupo_949682" data-name="Grupo 949682">
                    <g id="Grupo_949681" data-name="Grupo 949681">
                      <path id="Trazado_684937" data-name="Trazado 684937" d="M932.427,458.081c-.607,12.13-38.533,7.952-44.6,4.313-2.34-1.408-3.324-4.118-3.506-7.4-.3-5.234,1.426-11.93,2.919-17.177,2.425-8.546,2.093-8.389,3.779-14.23,0,0-.437-9.5,11.99-13.124s16.983,20.022,19.105,24.57c1.942,4.168,9.493,9.869,10.274,20.124A23.155,23.155,0,0,1,932.427,458.081Z" transform="translate(-884.289 -410.084)" fill="#3555af"/>
                    </g>
                  </g>
                </g>
                <g id="Grupo_949686" data-name="Grupo 949686" transform="translate(10.979 15.18)">
                  <g id="Grupo_949685" data-name="Grupo 949685">
                    <g id="Grupo_949684" data-name="Grupo 949684">
                      <path id="Trazado_684938" data-name="Trazado 684938" d="M891.489,424.665l-.994-1.525c.464-.3,11.43-7.334,20.974-3.149l-.731,1.668C902.085,417.865,891.6,424.6,891.489,424.665Z" transform="translate(-890.495 -418.665)" fill="#fff"/>
                    </g>
                  </g>
                </g>
                <g id="Grupo_949689" data-name="Grupo 949689" transform="translate(12.061 25.736)">
                  <g id="Grupo_949688" data-name="Grupo 949688">
                    <g id="Grupo_949687" data-name="Grupo 949687">
                      <path id="Trazado_684939" data-name="Trazado 684939" d="M892.1,430.632l-.993-1.525c.462-.3,11.43-7.333,20.972-3.149l-.73,1.668C902.694,423.83,892.205,430.563,892.1,430.632Z" transform="translate(-891.107 -424.633)" fill="#fff"/>
                    </g>
                  </g>
                </g>
                <g id="Grupo_949692" data-name="Grupo 949692" transform="translate(11.52 20.458)">
                  <g id="Grupo_949691" data-name="Grupo 949691">
                    <g id="Grupo_949690" data-name="Grupo 949690">
                      <path id="Trazado_684940" data-name="Trazado 684940" d="M891.8,427.647l-.994-1.525c.462-.3,11.43-7.333,20.972-3.147l-.731,1.666C902.39,420.846,891.9,427.578,891.8,427.647Z" transform="translate(-890.801 -421.649)" fill="#fff"/>
                    </g>
                  </g>
                </g>
                <g id="Grupo_949695" data-name="Grupo 949695" transform="translate(9.321 18.655)">
                  <g id="Grupo_949694" data-name="Grupo 949694">
                    <g id="Grupo_949693" data-name="Grupo 949693">
                      <path id="Trazado_684941" data-name="Trazado 684941" d="M893.651,422.677a2.047,2.047,0,1,1-2.047-2.047A2.047,2.047,0,0,1,893.651,422.677Z" transform="translate(-889.558 -420.63)" fill="#fff"/>
                    </g>
                  </g>
                </g>
                <g id="Grupo_949698" data-name="Grupo 949698" transform="translate(9.429 23.656)">
                  <g id="Grupo_949697" data-name="Grupo 949697">
                    <g id="Grupo_949696" data-name="Grupo 949696">
                      <path id="Trazado_684942" data-name="Trazado 684942" d="M893.712,425.505a2.047,2.047,0,1,1-2.047-2.049A2.046,2.046,0,0,1,893.712,425.505Z" transform="translate(-889.619 -423.457)" fill="#fff"/>
                    </g>
                  </g>
                </g>
                <g id="Grupo_949701" data-name="Grupo 949701" transform="translate(10.512 28.659)">
                  <g id="Grupo_949700" data-name="Grupo 949700">
                    <g id="Grupo_949699" data-name="Grupo 949699">
                      <path id="Trazado_684943" data-name="Trazado 684943" d="M894.324,428.332a2.047,2.047,0,1,1-2.047-2.047A2.047,2.047,0,0,1,894.324,428.332Z" transform="translate(-890.231 -426.285)" fill="#fff"/>
                    </g>
                  </g>
                </g>
                <g id="Grupo_949704" data-name="Grupo 949704" transform="translate(30.62 25.705)">
                  <g id="Grupo_949703" data-name="Grupo 949703">
                    <g id="Grupo_949702" data-name="Grupo 949702">
                      <path id="Trazado_684944" data-name="Trazado 684944" d="M905.693,426.66a2.048,2.048,0,1,1-2.049-2.045A2.047,2.047,0,0,1,905.693,426.66Z" transform="translate(-901.598 -424.615)" fill="#fff"/>
                    </g>
                  </g>
                </g>
                <g id="Grupo_949707" data-name="Grupo 949707" transform="translate(30.081 20.246)">
                  <g id="Grupo_949706" data-name="Grupo 949706">
                    <g id="Grupo_949705" data-name="Grupo 949705">
                      <path id="Trazado_684945" data-name="Trazado 684945" d="M905.386,423.576a2.047,2.047,0,1,1-2.047-2.047A2.047,2.047,0,0,1,905.386,423.576Z" transform="translate(-901.293 -421.529)" fill="#fff"/>
                    </g>
                  </g>
                </g>
                <g id="Grupo_949710" data-name="Grupo 949710" transform="translate(29.539 14.786)">
                  <g id="Grupo_949709" data-name="Grupo 949709">
                    <g id="Grupo_949708" data-name="Grupo 949708">
                      <path id="Trazado_684946" data-name="Trazado 684946" d="M905.08,420.49a2.047,2.047,0,1,1-2.047-2.047A2.047,2.047,0,0,1,905.08,420.49Z" transform="translate(-900.987 -418.443)" fill="#fff"/>
                    </g>
                  </g>
                </g>
                <g id="Grupo_949713" data-name="Grupo 949713" transform="translate(0.034 44.909)">
                  <g id="Grupo_949712" data-name="Grupo 949712">
                    <g id="Grupo_949711" data-name="Grupo 949711">
                      <path id="Trazado_684947" data-name="Trazado 684947" d="M932.413,438.558c-.607,12.13-38.533,7.952-44.6,4.313-2.341-1.408-3.324-4.118-3.506-7.4,3.986,2.273,11.009,5.107,21.5,5.295,12.866.23,22.145-2.372,26.572-5.132A23.155,23.155,0,0,1,932.413,438.558Z" transform="translate(-884.308 -435.471)" fill="#3986d7"/>
                    </g>
                  </g>
                </g>
                <g id="Grupo_949716" data-name="Grupo 949716" transform="translate(13.415 4.065)">
                  <g id="Grupo_949715" data-name="Grupo 949715">
                    <g id="Grupo_949714" data-name="Grupo 949714">
                      <path id="Trazado_684948" data-name="Trazado 684948" d="M902.541,412.44a20.239,20.239,0,0,0-10.669,2.123l.555,3.842s6.875-2.022,11.424-1.718A9.027,9.027,0,0,0,902.541,412.44Z" transform="translate(-891.872 -412.383)" fill="#fff"/>
                    </g>
                  </g>
                </g>
              </g>
            </g>
            <g id="Grupo_949719" data-name="Grupo 949719" transform="translate(4.301)">
              <path id="Trazado_684949" data-name="Trazado 684949" d="M888.3,245.821c-2.08,10.994-3.9,29.36,1.654,47.827,0,0,38.717,9.616,65.945-12.006,17.816-14.15,18.654-30.71,18.442-35.821Z" transform="translate(-886.266 -245.821)" fill="#32324c"/>
            </g>
          </g>
        </g>
        <g id="Grupo_949726" data-name="Grupo 949726" transform="translate(34.12 123.703)">
          <g id="Grupo_949722" data-name="Grupo 949722" transform="translate(0 186.134)">
            <path id="Trazado_684950" data-name="Trazado 684950" d="M878.578,250.03a41.692,41.692,0,0,1,7.662,9.531c2.62,4.962,5.157,10.26,6.715,13.349,1.875,3.717-2.071,3.959-4.8,1.313-4.139-4.012-4.732-6.968-4.732-6.968s5.979,21.515,5.213,27.466c-.7,5.434-4.587-6.264-8.343-15.762,0,0,2.165,21.782-.768,24.071-3.851,3.007-6.4-23.388-6.4-23.388s-1.017,19.742-3.359,19.293c-2.613-.5-4.041-20.841-4.041-20.841s-1.9,13.5-3.345,12.648c-2.86-1.688-4.729-30.645,2.852-41.533C865.233,249.209,876.02,248.052,878.578,250.03Z" transform="translate(-859.883 -248.873)" fill="#ffaf82"/>
          </g>
          <g id="Grupo_949725" data-name="Grupo 949725" transform="translate(1.924)">
            <g id="Grupo_949724" data-name="Grupo 949724">
              <g id="Grupo_949723" data-name="Grupo 949723">
                <path id="Trazado_684951" data-name="Trazado 684951" d="M916.706,180.683c-10.718,34.384-24.777,57.725-29.719,65.339-.326,4.84-1.944,27.775-4.844,49.469a365.351,365.351,0,0,0-2.868,37.16,20.851,20.851,0,0,1-17.218,0c-2.5-36.75-.573-66.72,4.569-88.987-.313-29.033,30.017-100.01,30.017-100.01C911.13,154.3,916.706,180.683,916.706,180.683Z" transform="translate(-860.97 -143.654)" fill="#e63067"/>
              </g>
            </g>
          </g>
        </g>
        <g id="Grupo_949727" data-name="Grupo 949727" transform="translate(71.718 113.993)">
          <path id="Trazado_684952" data-name="Trazado 684952" d="M981.855,330.634c-46.932,23.9-93.832,4-93.832,4,6.445-40.836,14.249-94.752,14.249-94.752-12.914-24.71-21.136-92-21.136-92,7.58-4.7,11.12-3.554,19.783-5.84,2.445-.646,4.692-1.189,6.613-1.629,3.927-.9,6.471-1.359,6.471-1.359,11.842-1.61,24.156-.748,33.123.412.06.009.122.014.182.023,7.867,1.031,13.115,2.291,13.115,2.291s3.605,27.223,11.384,41,1.831,22.1,0,28.1a21.113,21.113,0,0,0-.685,4.506c-.515,7.52-1.155,42.916-1.155,42.916Z" transform="translate(-881.136 -138.165)" fill="#e63067"/>
          <path id="Trazado_684953" data-name="Trazado 684953" d="M926.558,165.426c-12.882.4-24.42-14.06-30.5-25.017,3.927-.9,6.471-1.359,6.471-1.359,11.842-1.61,24.156-.748,33.123.412.06.009.122.014.182.023C937.4,150.5,940.118,165,926.558,165.426Z" transform="translate(-869.661 -138.165)" fill="#ffaf82"/>
          <path id="Trazado_684954" data-name="Trazado 684954" d="M952.825,179.267a20.95,20.95,0,0,0-.683,4.5c-22.751,11.7-46.325,5.026-46.325,5.026C936.439,188.275,952.825,179.267,952.825,179.267Z" transform="translate(-862.156 -106.557)" fill="#c11c57"/>
        </g>
        <path id="Trazado_684955" data-name="Trazado 684955" d="M963.313,197.4s32.1-6.666-20.683-77.273l-11.508,9.222a147.122,147.122,0,0,1,11.713,24.832,196.469,196.469,0,0,0,10.428,24.259S956.41,185.234,963.313,197.4Z" transform="translate(-770.978 -38.045)" fill="#c11c57"/>
        <g id="Grupo_949736" data-name="Grupo 949736" transform="translate(135.195 50.401)">
          <g id="Grupo_949735" data-name="Grupo 949735" transform="translate(0 0)">
            <g id="Grupo_949734" data-name="Grupo 949734">
              <g id="Grupo_949730" data-name="Grupo 949730" transform="translate(5.527 22.361)">
                <path id="Trazado_684956" data-name="Trazado 684956" d="M944.191,124.662,939.58,116.8l-8.183,4.5,5.3,8.428Z" transform="translate(-911.488 -113.366)" fill="#fb9988"/>
                <g id="Grupo_949729" data-name="Grupo 949729">
                  <g id="Grupo_949728" data-name="Grupo 949728">
                    <path id="Trazado_684957" data-name="Trazado 684957" d="M944.318,131.924l1.037-.7,1.069-3.934s-.575-5.434-4.764-7.846a5.252,5.252,0,0,0-2.379-.586,15.279,15.279,0,0,0-3.48.283,40.682,40.682,0,0,0-6.913,2.017,53.463,53.463,0,0,0-5.916-5.4c-1.178-.877-1.861-1-2.262-.833-.582.234-.566,1.051-.566,1.051l6.524,12.675s9.172,4.467,14.226,5.6Z" transform="translate(-920.143 -114.858)" fill="#fdbd8e"/>
                  </g>
                </g>
              </g>
              <g id="Grupo_949731" data-name="Grupo 949731">
                <path id="Rectángulo_337606" data-name="Rectángulo 337606" d="M.7,0H21.284a.7.7,0,0,1,.7.7V35.7a.7.7,0,0,1-.7.7H.7a.7.7,0,0,1-.7-.7V.7A.7.7,0,0,1,.7,0Z" transform="matrix(0.828, -0.56, 0.56, 0.828, 0, 12.317)" fill="#171228"/>
                <rect id="Rectángulo_337607" data-name="Rectángulo 337607" width="17.417" height="28.382" transform="translate(3.429 13.314) rotate(-34.082)" fill="#28b69a"/>
                <path id="Trazado_684958" data-name="Trazado 684958" d="M934.874,121.23a1.633,1.633,0,1,1-2.268-.437A1.636,1.636,0,0,1,934.874,121.23Z" transform="translate(-905.584 -88.149)" fill="#909aa3"/>
              </g>
              <g id="Grupo_949733" data-name="Grupo 949733" transform="translate(23.35 2.569)">
                <g id="Grupo_949732" data-name="Grupo 949732">
                  <path id="Trazado_684959" data-name="Trazado 684959" d="M937.175,104.972a4.244,4.244,0,0,1-.389,2.869c-.511,1.031-1,2.1-1.606,3.082-.062.1-.122.195-.182.292a10.447,10.447,0,0,1-.955,1.279c-.127.143-.26.281-.394.414a5.826,5.826,0,0,1-1.539,1.1,1.322,1.322,0,0,1-1.891-1.321,9.5,9.5,0,0,1,1.061-4.056,16.678,16.678,0,0,1,3.373-4.318C935.727,103.449,936.744,103.265,937.175,104.972Z" transform="translate(-930.218 -103.67)" fill="#fdbd8e"/>
                  <path id="Trazado_684960" data-name="Trazado 684960" d="M938.057,108.135a4.26,4.26,0,0,1-.382,2.868c-.334.663-.658,1.348-1.014,2.017-.134.265-.28.527-.432.777a11.309,11.309,0,0,1-1.306,1.863c-.1.111-.2.218-.3.324a6.007,6.007,0,0,1-1.628,1.192,1.319,1.319,0,0,1-1.886-1.323,9.266,9.266,0,0,1,1.061-4.055,14.033,14.033,0,0,1,.8-1.321,19.921,19.921,0,0,1,1.265-1.675c.088-.106.175-.211.267-.31C935.9,106.921,937.5,105.883,938.057,108.135Z" transform="translate(-929.534 -101.237)" fill="#fdbd8e"/>
                  <path id="Trazado_684961" data-name="Trazado 684961" d="M939.434,110.523a4.268,4.268,0,0,1-.384,2.866c-.414.835-.828,1.7-1.288,2.524-.143.253-.29.509-.451.748a9.793,9.793,0,0,1-1.01,1.383,6.994,6.994,0,0,1-.722.709,5.583,5.583,0,0,1-1.21.808,1.321,1.321,0,0,1-1.888-1.325,9.3,9.3,0,0,1,1.061-4.056c.009-.012.011-.021.02-.034a18.26,18.26,0,0,1,1.742-2.6c.1-.119.2-.246.3-.361C937.062,109.454,938.836,108.121,939.434,110.523Z" transform="translate(-928.477 -99.403)" fill="#fdbd8e"/>
                  <path id="Trazado_684962" data-name="Trazado 684962" d="M940.313,113.575a4.251,4.251,0,0,1-.382,2.866c-.069.14-.134.271-.2.41a18.653,18.653,0,0,1-2.549,4.247,6.282,6.282,0,0,1-1.934,1.518,1.321,1.321,0,0,1-1.886-1.327,9.371,9.371,0,0,1,1.061-4.055,8.7,8.7,0,0,1,.481-.83,19.318,19.318,0,0,1,1.889-2.523c.1-.113.2-.216.294-.318C938.4,112.218,939.795,111.5,940.313,113.575Z" transform="translate(-927.801 -97.054)" fill="#fdbd8e"/>
                </g>
                <path id="Trazado_684963" data-name="Trazado 684963" d="M935.251,104.972a4.244,4.244,0,0,1-.389,2.869c-.511,1.031-1,2.1-1.606,3.082,1.4-1.569,3-2.608,3.561-.356a4.261,4.261,0,0,1-.382,2.868c-.334.663-.658,1.348-1.014,2.017,1.458-1.73,3.232-3.064,3.83-.662a4.268,4.268,0,0,1-.384,2.866c-.414.835-.828,1.7-1.288,2.524,1.313-1.346,2.708-2.063,3.227.011a4.251,4.251,0,0,1-.382,2.866c-.069.14-.134.271-.2.41-.023-.1-.044-.184-.073-.276a3.89,3.89,0,0,0-1.04-1.882,1.833,1.833,0,0,0-1.981-.38l-.039.025c.067-.154.131-.3.2-.455a4.543,4.543,0,0,0,.417-3.009c-.357-1.146-1.981-1.884-2.8-1l.085-.26c.046-.134.09-.274.133-.416a5.221,5.221,0,0,0,.267-2.823,2.281,2.281,0,0,0-2.316-1.774c-.028.009-.058.009-.085.018a1.693,1.693,0,0,0-.269.085c.632-1.783,1.177-3.542.637-5.426a14.325,14.325,0,0,0-.628-1.576C933.8,103.449,934.82,103.265,935.251,104.972Z" transform="translate(-928.294 -103.67)" fill="#fb9988"/>
              </g>
            </g>
          </g>
        </g>
        <g id="Grupo_949759" data-name="Grupo 949759" transform="translate(72.421 4.537)">
          <g id="Grupo_949758" data-name="Grupo 949758">
            <g id="Grupo_949738" data-name="Grupo 949738" transform="translate(71.254 45.053)">
              <g id="Grupo_949737" data-name="Grupo 949737">
                <path id="Trazado_684964" data-name="Trazado 684964" d="M921.812,105.893s7.449-8.505,13.526-1.116c5.344,6.5,2.018,23.7-11.007,23.218Z" transform="translate(-921.812 -101.759)" fill="#f88968"/>
              </g>
            </g>
            <path id="Trazado_684965" data-name="Trazado 684965" d="M931.113,117.345a3.126,3.126,0,1,1-3.126-3.126A3.126,3.126,0,0,1,931.113,117.345Z" transform="translate(-848.214 -47.124)" fill="#fff"/>
            <g id="Grupo_949741" data-name="Grupo 949741" transform="translate(30.239 83.657)">
              <g id="Grupo_949739" data-name="Grupo 949739">
                <path id="Trazado_684966" data-name="Trazado 684966" d="M926.231,154.084c-.658,7.791-16.774,12.378-25.932-.851l-.964-17.1-.708-12.556,29.426,5.709-1.456,19.8Z" transform="translate(-898.627 -123.581)" fill="#ffaf82"/>
              </g>
              <g id="Grupo_949740" data-name="Grupo 949740">
                <path id="Trazado_684967" data-name="Trazado 684967" d="M926.422,151.475c-10.046.138-21.264-6.788-26.875-11.564l-.92-16.33,29.426,5.709Z" transform="translate(-898.627 -123.581)" fill="#f88968"/>
              </g>
            </g>
            <g id="Grupo_949742" data-name="Grupo 949742" transform="translate(9.932 12.885)">
              <path id="Trazado_684968" data-name="Trazado 684968" d="M923.857,169.235c-31.059-7.1-36.7-47.815-36.7-47.815a45.065,45.065,0,0,1,.418-6.694,51.656,51.656,0,0,1,1.516-7.426c2.227-7.823,7.007-16.74,17.216-20.63q.48-.186.969-.357c16.935-6,41.7-3.2,49.228,19.227a37.209,37.209,0,0,1,1.148,4.339c.18.883.34,1.8.476,2.744C961.5,135.774,951.772,175.622,923.857,169.235Z" transform="translate(-887.148 -83.575)" fill="#ffaf82"/>
            </g>
            <g id="Grupo_949745" data-name="Grupo 949745" transform="translate(33.062 49.026)">
              <g id="Grupo_949744" data-name="Grupo 949744">
                <g id="Grupo_949743" data-name="Grupo 949743">
                  <path id="Trazado_684969" data-name="Trazado 684969" d="M907.619,111.939a3.989,3.989,0,0,1-4.509-3.386,3.915,3.915,0,0,1,.31-2.185c-3.264-.382-3.2-2.363-3.2-2.363.509.847,4.32.354,5.9.111h.009c.195-.034.354-.058.471-.076l.02-.005a1.116,1.116,0,0,1,.187-.016,3.984,3.984,0,0,1,.81,7.92Z" transform="translate(-900.223 -104.005)" fill="#32324c"/>
                </g>
              </g>
            </g>
            <g id="Grupo_949746" data-name="Grupo 949746" transform="translate(0 49.736)">
              <path id="Trazado_684970" data-name="Trazado 684970" d="M896.82,106.23s-11.145-6.108-14.713,4.037c-3.14,8.921,7,25.8,20.574,20.277Z" transform="translate(-881.533 -104.406)" fill="#ffaf82"/>
            </g>
            <g id="Grupo_949749" data-name="Grupo 949749" transform="translate(42.555 74.044)">
              <g id="Grupo_949747" data-name="Grupo 949747">
                <path id="Trazado_684971" data-name="Trazado 684971" d="M928.349,125.361a10.713,10.713,0,0,1-1.967,2.986c-1.735,1.834-4.382,3.175-8.417,3.167-3.389-.009-6.047-1.888-8.017-4.138a23.012,23.012,0,0,1-3.073-4.626,23.785,23.785,0,0,1-1.286-2.949s16.257-.506,24.039-1.654l0,.005a16.21,16.21,0,0,1-.159,3.193A14.992,14.992,0,0,1,928.349,125.361Z" transform="translate(-905.589 -118.147)" fill="#920e08"/>
              </g>
              <g id="Grupo_949748" data-name="Grupo 949748">
                <path id="Trazado_684972" data-name="Trazado 684972" d="M929.471,121.345c-7.416,1.44-19.417,1.33-22.6,1.4a23.785,23.785,0,0,1-1.286-2.949s16.257-.506,24.039-1.654l0,.005A16.21,16.21,0,0,1,929.471,121.345Z" transform="translate(-905.589 -118.147)" fill="#fff"/>
              </g>
            </g>
            <g id="Grupo_949750" data-name="Grupo 949750" transform="translate(5.444 56.829)">
              <path id="Trazado_684973" data-name="Trazado 684973" d="M895.147,120.088c-.966-2.935-3.72-8.978-10.536-11.672,0,0,7.283,6.866,7.837,12.178a1.322,1.322,0,0,0,1.344,1.214l.159-.005A1.3,1.3,0,0,0,895.147,120.088Z" transform="translate(-884.611 -108.416)" fill="#f88968"/>
            </g>
            <g id="Grupo_949752" data-name="Grupo 949752" transform="translate(46.914 82.12)">
              <g id="Grupo_949751" data-name="Grupo 949751">
                <path id="Trazado_684974" data-name="Trazado 684974" d="M924.487,124.836c-1.735,1.834-4.382,3.175-8.417,3.167-3.389-.009-6.047-1.888-8.017-4.138a10.2,10.2,0,0,1,8.339-.483,6.968,6.968,0,0,1,4.164-.607A5.264,5.264,0,0,1,924.487,124.836Z" transform="translate(-908.053 -122.712)" fill="#f85c66"/>
              </g>
            </g>
            <g id="Grupo_949753" data-name="Grupo 949753" transform="translate(47.692 88.42)">
              <path id="Trazado_684975" data-name="Trazado 684975" d="M914.079,129.995a14.912,14.912,0,0,1-5.192-2.066.907.907,0,0,1,1.026-1.495c.244.165,5.829,3.881,11.732.743a.907.907,0,1,1,.853,1.6A12.514,12.514,0,0,1,914.079,129.995Z" transform="translate(-908.493 -126.274)" fill="#f88968"/>
            </g>
            <g id="Grupo_949754" data-name="Grupo 949754" transform="translate(51.633 53.489)">
              <path id="Trazado_684976" data-name="Trazado 684976" d="M916.4,123.385H911.69a.969.969,0,1,1,0-1.937H916.4a.218.218,0,0,0,.209-.278l-3.915-13.4a.969.969,0,0,1,1.859-.543l3.915,13.4a2.155,2.155,0,0,1-2.068,2.76Z" transform="translate(-910.721 -106.528)" fill="#f88968"/>
            </g>
            <path id="Trazado_684977" data-name="Trazado 684977" d="M914.248,99.9h0a1.852,1.852,0,0,1-1.635,2.194c-3.623.357-11.155,1.583-14.554,5.726,0,0,.741-6.805,14-9.393A1.862,1.862,0,0,1,914.248,99.9Z" transform="translate(-868.824 -59.298)" fill="#32324c"/>
            <path id="Trazado_684978" data-name="Trazado 684978" d="M915.663,99.973h0a1.854,1.854,0,0,0,1.99,1.877c3.632-.281,11.261-.389,15.33,3.1,0,0-1.916-6.57-15.426-6.8A1.86,1.86,0,0,0,915.663,99.973Z" transform="translate(-855.287 -59.488)" fill="#32324c"/>
            <g id="Grupo_949757" data-name="Grupo 949757" transform="translate(63.348 48.52)">
              <g id="Grupo_949756" data-name="Grupo 949756">
                <g id="Grupo_949755" data-name="Grupo 949755">
                  <path id="Trazado_684979" data-name="Trazado 684979" d="M920.769,111.651a3.989,3.989,0,0,0,4.509-3.386,3.925,3.925,0,0,0-.311-2.183c3.266-.384,3.2-2.363,3.2-2.363-.508.847-4.32.352-5.9.111h-.011c-.193-.035-.354-.058-.469-.078l-.019-.005a1.384,1.384,0,0,0-.189-.014,3.983,3.983,0,0,0-.808,7.918Z" transform="translate(-917.343 -103.719)" fill="#32324c"/>
                </g>
              </g>
            </g>
            <path id="Trazado_684980" data-name="Trazado 684980" d="M911.617,94.087s-1.56,27.257-14.269,38.262c0,0-1.093-7.23-10.987-6.146,0,0-.934-1.691-2.386-9.891s3.764-42.046,41.3-39.867c0,0,11.937-2.422,28.646,11.865s6.809,29.912,6.809,29.912S932.858,114.374,911.617,94.087Z" transform="translate(-879.818 -76.291)" fill="#32324c"/>
            <circle id="Elipse_5294" data-name="Elipse 5294" cx="3.126" cy="3.126" r="3.126" transform="translate(9.932 74.044)" fill="#fff"/>
          </g>
        </g>
      </g>
    </g>
    <g id="Grupo_949763" data-name="Grupo 949763" transform="translate(-1500.303 -2451.341)">
      <rect id="Rectángulo_335418" data-name="Rectángulo 335418" width="226.067" height="82.22" rx="13.129" transform="translate(448.236 205.387)" fill="#fff"/>
      <path id="Trazado_639247" data-name="Trazado 639247" d="M450.105,258.388s-6.546,17.249-15.789,24.359c0,0,21.243-.262,27.838-7.364A109.273,109.273,0,0,1,450.105,258.388Z" transform="translate(0.881 468.498) rotate(-51)" fill="#fff"/>
    </g>
    <path id="Trazado_702408" data-name="Trazado 702408" d="M7.664,9l-3.68,9.281Q3,20.766,1.219,20.766a2.931,2.931,0,0,1-.836-.1V19.516a2.375,2.375,0,0,0,.758.141A1.57,1.57,0,0,0,2.594,18.5l.641-1.516L.109,9H1.531L3.7,15.156q.039.117.164.609h.047q.039-.187.156-.594L6.336,9Zm12.188,4.32H14.2a2.992,2.992,0,0,0,.719,2.063,2.478,2.478,0,0,0,1.891.727,3.931,3.931,0,0,0,2.484-.891v1.2a4.643,4.643,0,0,1-2.789.766,3.381,3.381,0,0,1-2.664-1.09,4.461,4.461,0,0,1-.969-3.066,4.375,4.375,0,0,1,1.059-3.043,3.394,3.394,0,0,1,2.629-1.176,3.008,3.008,0,0,1,2.43,1.016,4.234,4.234,0,0,1,.859,2.82Zm-1.312-1.086A2.607,2.607,0,0,0,18,10.508a1.823,1.823,0,0,0-1.465-.617A2.07,2.07,0,0,0,15,10.539a2.943,2.943,0,0,0-.781,1.7ZM28.43,17H27.148V12.438q0-2.547-1.859-2.547a2.017,2.017,0,0,0-1.59.723,2.679,2.679,0,0,0-.629,1.824V17H21.789V9H23.07v1.328H23.1a2.887,2.887,0,0,1,2.625-1.516,2.448,2.448,0,0,1,2.008.848,3.776,3.776,0,0,1,.7,2.449Zm13.227-3.68H36.008a2.992,2.992,0,0,0,.719,2.063,2.478,2.478,0,0,0,1.891.727,3.931,3.931,0,0,0,2.484-.891v1.2a4.643,4.643,0,0,1-2.789.766,3.381,3.381,0,0,1-2.664-1.09,4.461,4.461,0,0,1-.969-3.066,4.375,4.375,0,0,1,1.059-3.043,3.394,3.394,0,0,1,2.629-1.176A3.008,3.008,0,0,1,40.8,9.828a4.234,4.234,0,0,1,.859,2.82Zm-1.312-1.086a2.607,2.607,0,0,0-.535-1.727,1.823,1.823,0,0,0-1.465-.617,2.07,2.07,0,0,0-1.539.648,2.943,2.943,0,0,0-.781,1.7ZM44.875,17H43.594V5.156h1.281Zm12.43-.367a4.163,4.163,0,0,1-2.187.555,3.622,3.622,0,0,1-2.762-1.113A4.035,4.035,0,0,1,51.3,13.188a4.435,4.435,0,0,1,1.133-3.176,3.963,3.963,0,0,1,3.023-1.2A4.209,4.209,0,0,1,57.32,9.2v1.313a3.258,3.258,0,0,0-1.906-.625,2.576,2.576,0,0,0-2.012.879,3.335,3.335,0,0,0-.785,2.309,3.176,3.176,0,0,0,.738,2.219,2.545,2.545,0,0,0,1.98.813,3.211,3.211,0,0,0,1.969-.7ZM64.969,17H63.688V15.75h-.031A2.682,2.682,0,0,1,61.2,17.188a2.63,2.63,0,0,1-1.871-.633,2.192,2.192,0,0,1-.676-1.68q0-2.242,2.641-2.609l2.4-.336q0-2.039-1.648-2.039a3.938,3.938,0,0,0-2.609.984V9.563a4.958,4.958,0,0,1,2.719-.75q2.82,0,2.82,2.984Zm-1.281-4.047-1.93.266a3.133,3.133,0,0,0-1.344.441,1.273,1.273,0,0,0-.453,1.121,1.221,1.221,0,0,0,.418.957,1.615,1.615,0,0,0,1.113.371,2.056,2.056,0,0,0,1.574-.668,2.387,2.387,0,0,0,.621-1.691ZM66.9,16.711V15.336a3.792,3.792,0,0,0,2.3.773q1.688,0,1.688-1.125a.976.976,0,0,0-.145-.543,1.44,1.44,0,0,0-.391-.395,3.007,3.007,0,0,0-.578-.309q-.332-.137-.715-.285a9.207,9.207,0,0,1-.934-.426,2.82,2.82,0,0,1-.672-.484,1.8,1.8,0,0,1-.406-.613,2.17,2.17,0,0,1-.137-.8,1.912,1.912,0,0,1,.258-1,2.286,2.286,0,0,1,.688-.727,3.206,3.206,0,0,1,.98-.441,4.349,4.349,0,0,1,1.137-.148,4.59,4.59,0,0,1,1.859.359v1.3A3.624,3.624,0,0,0,69.8,9.891a2.374,2.374,0,0,0-.648.082,1.587,1.587,0,0,0-.5.23,1.065,1.065,0,0,0-.32.355.936.936,0,0,0-.113.457,1.1,1.1,0,0,0,.113.523,1.152,1.152,0,0,0,.332.375,2.538,2.538,0,0,0,.531.3q.313.133.711.289a9.9,9.9,0,0,1,.953.418,3.269,3.269,0,0,1,.719.484,1.893,1.893,0,0,1,.457.621,2,2,0,0,1,.16.836,1.971,1.971,0,0,1-.262,1.031,2.243,2.243,0,0,1-.7.727,3.2,3.2,0,0,1-1.008.43,4.976,4.976,0,0,1-1.2.141A4.539,4.539,0,0,1,66.9,16.711Zm10.617.477a3.711,3.711,0,0,1-2.832-1.121,4.153,4.153,0,0,1-1.059-2.973,4.326,4.326,0,0,1,1.1-3.148A3.96,3.96,0,0,1,77.7,8.813a3.588,3.588,0,0,1,2.793,1.1,4.368,4.368,0,0,1,1,3.055,4.3,4.3,0,0,1-1.082,3.066A3.791,3.791,0,0,1,77.516,17.188Zm.094-7.3a2.437,2.437,0,0,0-1.953.84,3.449,3.449,0,0,0-.719,2.316,3.262,3.262,0,0,0,.727,2.242,2.469,2.469,0,0,0,1.945.82,2.342,2.342,0,0,0,1.91-.8,3.492,3.492,0,0,0,.668-2.289A3.552,3.552,0,0,0,79.52,10.7,2.332,2.332,0,0,0,77.609,9.891ZM94.758,17H93.477V15.641h-.031a2.958,2.958,0,0,1-2.75,1.547,2.988,2.988,0,0,1-2.41-1.074,4.407,4.407,0,0,1-.9-2.926,4.794,4.794,0,0,1,1-3.18,3.3,3.3,0,0,1,2.664-1.2,2.564,2.564,0,0,1,2.4,1.3h.031V5.156h1.281Zm-1.281-3.617V12.2a2.289,2.289,0,0,0-.641-1.641,2.149,2.149,0,0,0-1.625-.672,2.212,2.212,0,0,0-1.844.859,3.766,3.766,0,0,0-.672,2.375,3.387,3.387,0,0,0,.645,2.184,2.107,2.107,0,0,0,1.73.8,2.188,2.188,0,0,0,1.738-.773A2.882,2.882,0,0,0,93.477,13.383Zm10.3-.062H98.133a2.992,2.992,0,0,0,.719,2.063,2.478,2.478,0,0,0,1.891.727,3.931,3.931,0,0,0,2.484-.891v1.2a4.643,4.643,0,0,1-2.789.766,3.381,3.381,0,0,1-2.664-1.09,4.461,4.461,0,0,1-.969-3.066,4.375,4.375,0,0,1,1.059-3.043,3.394,3.394,0,0,1,2.629-1.176,3.008,3.008,0,0,1,2.43,1.016,4.234,4.234,0,0,1,.859,2.82Zm-1.312-1.086a2.607,2.607,0,0,0-.535-1.727,1.823,1.823,0,0,0-1.465-.617,2.07,2.07,0,0,0-1.539.648,2.943,2.943,0,0,0-.781,1.7ZM111.383,17H110.1V5.156h1.281Zm8.32,0h-1.281V15.75h-.031a2.682,2.682,0,0,1-2.461,1.438,2.63,2.63,0,0,1-1.871-.633,2.192,2.192,0,0,1-.676-1.68q0-2.242,2.641-2.609l2.4-.336q0-2.039-1.648-2.039a3.938,3.938,0,0,0-2.609.984V9.563a4.958,4.958,0,0,1,2.719-.75q2.82,0,2.82,2.984Zm-1.281-4.047-1.93.266a3.133,3.133,0,0,0-1.344.441,1.273,1.273,0,0,0-.453,1.121,1.221,1.221,0,0,0,.418.957,1.615,1.615,0,0,0,1.113.371,2.056,2.056,0,0,0,1.574-.668,2.387,2.387,0,0,0,.621-1.691Zm3.211,3.758V15.336a3.792,3.792,0,0,0,2.3.773q1.688,0,1.688-1.125a.976.976,0,0,0-.145-.543,1.44,1.44,0,0,0-.391-.395,3.007,3.007,0,0,0-.578-.309q-.332-.137-.715-.285a9.207,9.207,0,0,1-.934-.426,2.82,2.82,0,0,1-.672-.484,1.8,1.8,0,0,1-.406-.613,2.17,2.17,0,0,1-.137-.8,1.912,1.912,0,0,1,.258-1,2.286,2.286,0,0,1,.688-.727,3.206,3.206,0,0,1,.98-.441,4.349,4.349,0,0,1,1.137-.148,4.59,4.59,0,0,1,1.859.359v1.3a3.624,3.624,0,0,0-2.031-.578,2.374,2.374,0,0,0-.648.082,1.587,1.587,0,0,0-.5.23,1.065,1.065,0,0,0-.32.355.936.936,0,0,0-.113.457,1.1,1.1,0,0,0,.113.523,1.152,1.152,0,0,0,.332.375,2.538,2.538,0,0,0,.531.3q.313.133.711.289a9.9,9.9,0,0,1,.953.418,3.269,3.269,0,0,1,.719.484,1.893,1.893,0,0,1,.457.621,2,2,0,0,1,.16.836,1.971,1.971,0,0,1-.262,1.031,2.243,2.243,0,0,1-.7.727,3.2,3.2,0,0,1-1.008.43,4.976,4.976,0,0,1-1.2.141A4.539,4.539,0,0,1,121.633,16.711ZM6.75,40.633a4.163,4.163,0,0,1-2.187.555A3.622,3.622,0,0,1,1.8,40.074,4.035,4.035,0,0,1,.75,37.188a4.435,4.435,0,0,1,1.133-3.176,3.963,3.963,0,0,1,3.023-1.2,4.209,4.209,0,0,1,1.859.391v1.313a3.258,3.258,0,0,0-1.906-.625,2.576,2.576,0,0,0-2.012.879,3.335,3.335,0,0,0-.785,2.309A3.176,3.176,0,0,0,2.8,39.3a2.545,2.545,0,0,0,1.98.813,3.211,3.211,0,0,0,1.969-.7Zm2.594-9.664a.812.812,0,0,1-.586-.234.791.791,0,0,1-.242-.594.821.821,0,0,1,.828-.836.827.827,0,0,1,.6.238.835.835,0,0,1,0,1.184A.82.82,0,0,1,9.344,30.969ZM9.969,41H8.688V33H9.969Zm9.063,0H17.75V39.734h-.031a2.631,2.631,0,0,1-2.469,1.453q-2.859,0-2.859-3.406V33h1.273v4.578q0,2.531,1.938,2.531a1.96,1.96,0,0,0,1.543-.691,2.645,2.645,0,0,0,.605-1.809V33h1.281Zm9.414,0H27.164V39.641h-.031a2.958,2.958,0,0,1-2.75,1.547,2.988,2.988,0,0,1-2.41-1.074,4.407,4.407,0,0,1-.9-2.926,4.794,4.794,0,0,1,1-3.18,3.3,3.3,0,0,1,2.664-1.2,2.564,2.564,0,0,1,2.4,1.3h.031V29.156h1.281Zm-1.281-3.617V36.2a2.289,2.289,0,0,0-.641-1.641,2.149,2.149,0,0,0-1.625-.672,2.212,2.212,0,0,0-1.844.859,3.766,3.766,0,0,0-.672,2.375,3.387,3.387,0,0,0,.645,2.184,2.107,2.107,0,0,0,1.73.8,2.188,2.188,0,0,0,1.738-.773A2.882,2.882,0,0,0,27.164,37.383ZM36.766,41H35.484V39.75h-.031a2.682,2.682,0,0,1-2.461,1.438,2.63,2.63,0,0,1-1.871-.633,2.192,2.192,0,0,1-.676-1.68q0-2.242,2.641-2.609l2.4-.336q0-2.039-1.648-2.039a3.938,3.938,0,0,0-2.609.984V33.563a4.958,4.958,0,0,1,2.719-.75q2.82,0,2.82,2.984Zm-1.281-4.047-1.93.266a3.133,3.133,0,0,0-1.344.441,1.273,1.273,0,0,0-.453,1.121,1.221,1.221,0,0,0,.418.957,1.615,1.615,0,0,0,1.113.371,2.056,2.056,0,0,0,1.574-.668,2.387,2.387,0,0,0,.621-1.691ZM46.008,41H44.727V39.641H44.7a2.958,2.958,0,0,1-2.75,1.547,2.988,2.988,0,0,1-2.41-1.074,4.407,4.407,0,0,1-.9-2.926,4.794,4.794,0,0,1,1-3.18,3.3,3.3,0,0,1,2.664-1.2,2.564,2.564,0,0,1,2.4,1.3h.031V29.156h1.281Zm-1.281-3.617V36.2a2.289,2.289,0,0,0-.641-1.641,2.149,2.149,0,0,0-1.625-.672,2.212,2.212,0,0,0-1.844.859,3.766,3.766,0,0,0-.672,2.375,3.387,3.387,0,0,0,.645,2.184,2.107,2.107,0,0,0,1.73.8,2.188,2.188,0,0,0,1.738-.773A2.882,2.882,0,0,0,44.727,37.383Zm10.3-.062H49.383a2.992,2.992,0,0,0,.719,2.063,2.478,2.478,0,0,0,1.891.727,3.931,3.931,0,0,0,2.484-.891v1.2a4.643,4.643,0,0,1-2.789.766,3.381,3.381,0,0,1-2.664-1.09,4.461,4.461,0,0,1-.969-3.066,4.375,4.375,0,0,1,1.059-3.043,3.394,3.394,0,0,1,2.629-1.176,3.008,3.008,0,0,1,2.43,1.016,4.234,4.234,0,0,1,.859,2.82Zm-1.312-1.086a2.607,2.607,0,0,0-.535-1.727,1.823,1.823,0,0,0-1.465-.617,2.07,2.07,0,0,0-1.539.648,2.943,2.943,0,0,0-.781,1.7Zm2.766,4.477V39.336a3.792,3.792,0,0,0,2.3.773q1.688,0,1.688-1.125a.976.976,0,0,0-.145-.543,1.44,1.44,0,0,0-.391-.395,3.007,3.007,0,0,0-.578-.309q-.332-.137-.715-.285a9.206,9.206,0,0,1-.934-.426,2.82,2.82,0,0,1-.672-.484,1.8,1.8,0,0,1-.406-.613,2.17,2.17,0,0,1-.137-.8,1.912,1.912,0,0,1,.258-1,2.286,2.286,0,0,1,.688-.727,3.206,3.206,0,0,1,.98-.441,4.349,4.349,0,0,1,1.137-.148,4.59,4.59,0,0,1,1.859.359v1.3a3.624,3.624,0,0,0-2.031-.578,2.374,2.374,0,0,0-.648.082,1.587,1.587,0,0,0-.5.23,1.065,1.065,0,0,0-.32.355.936.936,0,0,0-.113.457,1.1,1.1,0,0,0,.113.523,1.152,1.152,0,0,0,.332.375,2.538,2.538,0,0,0,.531.3q.312.133.711.289a9.894,9.894,0,0,1,.953.418,3.269,3.269,0,0,1,.719.484,1.893,1.893,0,0,1,.457.621,2,2,0,0,1,.16.836,1.971,1.971,0,0,1-.262,1.031,2.243,2.243,0,0,1-.7.727,3.2,3.2,0,0,1-1.008.43,4.976,4.976,0,0,1-1.2.141A4.539,4.539,0,0,1,56.484,40.711Zm15.758.43a.816.816,0,0,1-.605-.25.836.836,0,0,1-.246-.609.876.876,0,0,1,.246-.621.8.8,0,0,1,.605-.262.815.815,0,0,1,.605.262.862.862,0,0,1,.254.621.823.823,0,0,1-.254.609A.833.833,0,0,1,72.242,41.141Zm-3.922,0a.842.842,0,0,1-.613-.25.823.823,0,0,1-.254-.609.862.862,0,0,1,.254-.621.823.823,0,0,1,.613-.262.815.815,0,0,1,.605.262.862.862,0,0,1,.254.621.823.823,0,0,1-.254.609A.833.833,0,0,1,68.32,41.141Zm-3.922,0a.8.8,0,0,1-.6-.25.843.843,0,0,1-.242-.609.884.884,0,0,1,.242-.621.786.786,0,0,1,.6-.262A.815.815,0,0,1,65,39.66a.862.862,0,0,1,.254.621.854.854,0,0,1-.859.859Z" transform="translate(-1036.992 -2228.211)" fill="#12263f"/>
  </g>
</svg>
