<svg xmlns="http://www.w3.org/2000/svg" xmlns:xlink="http://www.w3.org/1999/xlink" width="553" height="466.482" viewBox="0 0 553 466.482">
  <defs>
    <clipPath id="clip-path">
      <rect id="Rect치ngulo_337626" data-name="Rect치ngulo 337626" width="422" height="426" transform="translate(-1145 -3372.341)" fill="#fff" stroke="#707070" stroke-width="1"/>
    </clipPath>
  </defs>
  <g id="Grupo_963443" data-name="Grupo 963443" transform="translate(1145 1445.482)">
    <g id="Enmascarar_grupo_927211" data-name="Enmascarar grupo 927211" transform="translate(0 1967.341)" clip-path="url(#clip-path)">
      <g id="Grupo_951660" data-name="Grupo 951660" transform="translate(-1131.037 -3372.02)">
        <g id="Grupo_951624" data-name="Grupo 951624" transform="translate(67.38 0)">
          <path id="Trazado_686635" data-name="Trazado 686635" d="M524.883,1165.38c-10.6,156.216-207.7,219.526-305,96.854-19.871-25.052-24.625-85.465-19.477-117.331,20.752-128.437,86.618-141.56,37.442-222.8s-53.744-228.731,82.017-227.58S368.112,912.664,461.63,973.355C504.4,1001.115,530.4,1084.025,524.883,1165.38Z" transform="translate(-191.091 -694.515)" fill="#32324c" opacity="0.1"/>
          <path id="Trazado_686636" data-name="Trazado 686636" d="M458.69,927.893a20.715,20.715,0,0,1-22.833-6.566c-8.835-10.7-22.93-32.317-18.734-57.47,5.994-35.931,51.528-7.247,55.11,33.14C474.024,917.191,466.581,925.066,458.69,927.893Z" transform="translate(-176.355 -684.169)" fill="#32324c" opacity="0.1"/>
          <path id="Trazado_686637" data-name="Trazado 686637" d="M411.055,837.022a10.8,10.8,0,0,1-7.32-10c-.225-7.235.864-20.652,10.628-29.686,13.948-12.9,23.566,13.469,12.144,31.27C420.8,837.506,415.213,838.377,411.055,837.022Z" transform="translate(-177.211 -687.793)" fill="#32324c" opacity="0.1"/>
          <path id="Trazado_686638" data-name="Trazado 686638" d="M201.741,1001.566a10.8,10.8,0,0,1-9.011-8.509c-1.532-7.075-2.891-20.466,5.074-31.119,11.379-15.218,25.616,8.976,17.608,28.552C211.408,1000.276,206.075,1002.144,201.741,1001.566Z" transform="translate(-191.559 -676.752)" fill="#32324c" opacity="0.1"/>
        </g>
        <g id="Grupo_951659" data-name="Grupo 951659" transform="translate(0 27.639)">
          <g id="Grupo_951631" data-name="Grupo 951631" transform="translate(0 124.884)">
            <g id="Grupo_951629" data-name="Grupo 951629">
              <g id="Grupo_951628" data-name="Grupo 951628">
                <path id="Trazado_686639" data-name="Trazado 686639" d="M128.45,864.841c-.254,1.851,25.238,13.356,28.21,13.21l4.064-.746,12.475,5.911a20.388,20.388,0,0,0,2.941-4.541,17.031,17.031,0,0,0,1.61-5.254,13.276,13.276,0,0,0,.017-3.44c-.08-.614-6.566-4.193-6.566-4.193s2.061-9.454-1.693-13.274c-2.216-2.253-4.461-4.546-5.677-7.466a43.692,43.692,0,0,0-1.88-4.581,5.778,5.778,0,0,0-3.711-3.057,1.076,1.076,0,0,0-.573.007,1.184,1.184,0,0,0-.617.982,1.12,1.12,0,0,0-.02.129,20.615,20.615,0,0,0,2.6,13.4s-15.044-3.859-18.685-6.276c0,0-8.98-3.038-9.895-1.473a4.029,4.029,0,0,0-.534,1.647,3.848,3.848,0,0,0,.1,1.433s18.04,8.991,18.4,9.865-17.384-3.256-18.828-2.39a2.086,2.086,0,0,0-.733,1.56,10.56,10.56,0,0,0-.033,2.156,19.85,19.85,0,0,0,.258,2.226s-.093.219-.235.58c-.177.489-.441,1.23-.66,2.028A12.159,12.159,0,0,0,128.45,864.841Z" transform="translate(-128.448 -837.375)" fill="#fdbd8e"/>
                <path id="Trazado_686640" data-name="Trazado 686640" d="M128.45,864.305c-.254,1.851,25.238,13.356,28.21,13.21l4.064-.746,12.475,5.91a20.387,20.387,0,0,0,2.941-4.541,33.151,33.151,0,0,1-14.167-9.37c-3.641-4.1-6.245-9.1-10.261-12.83a36.552,36.552,0,0,0-8.6-5.668,83.91,83.91,0,0,0-10.051-4.245,21.7,21.7,0,0,0-2.54-.735,3.849,3.849,0,0,0,.1,1.433s18.04,8.991,18.4,9.865-17.384-3.256-18.828-2.39a2.085,2.085,0,0,0-.733,1.56,10.56,10.56,0,0,0-.033,2.156,19.853,19.853,0,0,0,.258,2.226s-.093.219-.235.58c-.177.489-.441,1.23-.66,2.028A12.155,12.155,0,0,0,128.45,864.305Z" transform="translate(-128.448 -836.84)" fill="#fb9988"/>
                <g id="Grupo_951627" data-name="Grupo 951627" transform="translate(0.344 18.918)">
                  <g id="Grupo_951625" data-name="Grupo 951625" transform="translate(0.597)">
                    <path id="Trazado_686641" data-name="Trazado 686641" d="M129.368,857.251c.493.17,1,.34,1.519.49a44.732,44.732,0,0,0,7.939,1.6c1.94.206,3.2.223,3.353.221-.136-.06-1.294-.566-3.1-1.26-1.934-.743-4.6-1.712-7.574-2.6q-1.079-.322-2.1-.6A10.561,10.561,0,0,0,129.368,857.251Z" transform="translate(-129.33 -855.095)" fill="#fd7d6f"/>
                  </g>
                  <g id="Grupo_951626" data-name="Grupo 951626" transform="translate(0 4.961)">
                    <path id="Trazado_686642" data-name="Trazado 686642" d="M128.77,861.771a47.485,47.485,0,0,0,9.15,1.966,47.483,47.483,0,0,0-8.49-3.994C129.253,860.231,128.989,860.972,128.77,861.771Z" transform="translate(-128.77 -859.742)" fill="#fd7d6f"/>
                  </g>
                </g>
                <path id="Trazado_686643" data-name="Trazado 686643" d="M155.239,838.4c.275.211.543.43.793.652,2.062,1.863,2.845,4.713,4.2,7.129,1.877,3.328,4.954,5.983,6.181,9.6,1.03,3.059.6,6.377.441,9.6a4.9,4.9,0,0,0,.489,2.9,5.061,5.061,0,0,0,1.916,1.511c2.19,1.213,4.506,2.336,6.676,3.624a13.276,13.276,0,0,0,.017-3.44c-.08-.614-6.566-4.193-6.566-4.193s2.061-9.454-1.693-13.274c-2.216-2.253-4.461-4.546-5.677-7.466a43.692,43.692,0,0,0-1.88-4.581,5.778,5.778,0,0,0-3.711-3.057,1.076,1.076,0,0,0-.573.007A1.183,1.183,0,0,0,155.239,838.4Z" transform="translate(-126.636 -837.375)" fill="#ffdaba"/>
                <path id="Trazado_686644" data-name="Trazado 686644" d="M155.533,854.793a10.2,10.2,0,0,0-1.466,8.408,17.54,17.54,0,0,0,4.137,7.726c-.278-2.346-1.983-4.58-2.544-6.946C155.168,861.92,154.121,856.656,155.533,854.793Z" transform="translate(-126.737 -836.197)" fill="#fd7d6f"/>
              </g>
            </g>
            <g id="Grupo_951630" data-name="Grupo 951630" transform="translate(35.974 3.375)">
              <path id="Trazado_686645" data-name="Trazado 686645" d="M300.987,885.5c-8.383,10.011-17.313,20.153-25.212,28.069q-1.393,1.4-2.746,2.7c-2.025,1.949-3.968,3.724-5.8,5.274-.2.169-.4.343-.6.511-1,.838-1.969,1.608-2.891,2.29-.37.273-.733.539-1.09.79s-.706.489-1.048.713c-.684.445-1.341.845-1.97,1.186-.307.169-.614.322-.907.462-.146.069-.295.139-.441.2-19.021,8.319-96.138-38.751-96.138-38.751L165.63,883l8.8-15.033,1.542-2.641s63.677,25.365,71.682,32.28c0,0,12.784-22.975,17.2-29.38,0,0,19.331-26.3,22.907-27.686.447-.174,9.578,32.03,12.407,42.041C300.65,884.324,300.959,885.4,300.987,885.5Z" transform="translate(-162.143 -840.536)" fill="#ff9300"/>
              <path id="Trazado_686646" data-name="Trazado 686646" d="M300.987,882.835c-8.383,10.011-17.313,20.153-25.212,28.069-.929.935-1.851,1.837-2.746,2.7-2.025,1.943-3.968,3.716-5.8,5.274-.2.169-.4.343-.6.511-1,.831-1.969,1.6-2.891,2.29-.37.273-.733.539-1.09.79s-.706.489-1.048.713c-.684.445-1.341.845-1.97,1.186-.307.169-.614.322-.907.462-.146.069-.295.139-.441.2-19.021,8.319-96.138-38.751-96.138-38.751l3.487-5.951c20.621,10.842,81.223,42.242,90,41.565,5.512-.427,26.085-21.7,44.534-41.985C300.65,881.66,300.959,882.737,300.987,882.835Z" transform="translate(-162.143 -837.873)" fill="#cf691f"/>
            </g>
          </g>
          <g id="Grupo_951638" data-name="Grupo 951638" transform="translate(226.748 92.471)">
            <g id="Grupo_951636" data-name="Grupo 951636" transform="translate(128.346)">
              <g id="Grupo_951635" data-name="Grupo 951635">
                <path id="Trazado_686647" data-name="Trazado 686647" d="M507.8,826.853c.679,1.738-21.416,18.884-24.341,19.436l-4.125.226-10.747,8.663a20.463,20.463,0,0,1-3.922-3.725,17.041,17.041,0,0,1-2.794-4.734,13.29,13.29,0,0,1-.82-3.341c-.065-.614,5.4-5.61,5.4-5.61s-4.214-8.711-1.458-13.3c1.628-2.708,3.275-5.461,3.774-8.585a43.553,43.553,0,0,1,.757-4.894,5.772,5.772,0,0,1,2.894-3.839,1.067,1.067,0,0,1,.557-.127c.4.042.661.427.831.81a.954.954,0,0,1,.051.12,20.629,20.629,0,0,1,.6,13.639s13.728-7.272,16.7-10.473c0,0,8.021-5.055,9.277-3.746a4.028,4.028,0,0,1,.9,1.477,3.868,3.868,0,0,1,.238,1.415s-15.436,12.961-15.585,13.9,16.14-7.232,17.745-6.728a2.087,2.087,0,0,1,1.078,1.345,10.548,10.548,0,0,1,.539,2.087,20.5,20.5,0,0,1,.269,2.227s.139.191.361.507c.288.435.718,1.092,1.118,1.819A11.8,11.8,0,0,1,507.8,826.853Z" transform="translate(-461.047 -807.016)" fill="#fdbd8e"/>
                <path id="Trazado_686648" data-name="Trazado 686648" d="M507.569,826.737c.679,1.738-21.416,18.884-24.341,19.436l-4.125.226-10.747,8.663a20.466,20.466,0,0,1-3.922-3.725,33.132,33.132,0,0,0,11.583-12.424c2.581-4.839,3.946-10.307,6.978-14.874a36.585,36.585,0,0,1,7.038-7.521,84.282,84.282,0,0,1,8.779-6.476,22.061,22.061,0,0,1,2.3-1.31,3.868,3.868,0,0,1,.238,1.415s-15.436,12.961-15.585,13.9,16.141-7.232,17.745-6.728a2.088,2.088,0,0,1,1.078,1.345,10.544,10.544,0,0,1,.539,2.087,20.509,20.509,0,0,1,.269,2.227s.139.191.361.507c.288.434.717,1.092,1.118,1.819A11.8,11.8,0,0,1,507.569,826.737Z" transform="translate(-460.818 -806.9)" fill="#fb9988"/>
                <g id="Grupo_951634" data-name="Grupo 951634" transform="translate(32.387 11.76)">
                  <g id="Grupo_951632" data-name="Grupo 951632">
                    <path id="Trazado_686649" data-name="Trazado 686649" d="M503.3,820.118c-.442.282-.9.565-1.366.835a45.061,45.061,0,0,1-7.343,3.406c-1.839.653-3.064.964-3.21,1,.117-.089,1.125-.851,2.719-1.95,1.707-1.173,4.068-2.739,6.757-4.3.647-.378,1.285-.734,1.9-1.076A10.548,10.548,0,0,1,503.3,820.118Z" transform="translate(-491.383 -818.031)" fill="#fd7d6f"/>
                  </g>
                  <g id="Grupo_951633" data-name="Grupo 951633" transform="translate(5.229 4.821)">
                    <path id="Trazado_686650" data-name="Trazado 686650" d="M504.718,824.366a47.5,47.5,0,0,1-8.437,4.051,47.514,47.514,0,0,1,7.32-5.87C503.889,822.981,504.318,823.639,504.718,824.366Z" transform="translate(-496.281 -822.547)" fill="#fd7d6f"/>
                  </g>
                </g>
                <path id="Trazado_686651" data-name="Trazado 686651" d="M473.806,807.831c-.217.27-.428.544-.619.818-1.566,2.294-1.663,5.248-2.42,7.916-1.047,3.674-3.417,6.975-3.763,10.779-.288,3.216.905,6.343,1.816,9.44a4.9,4.9,0,0,1,.2,2.937,5.057,5.057,0,0,1-1.511,1.916c-1.846,1.69-3.835,3.324-5.645,5.083a13.29,13.29,0,0,1-.82-3.341c-.065-.614,5.4-5.61,5.4-5.61s-4.214-8.711-1.458-13.3c1.628-2.708,3.275-5.461,3.774-8.585a43.553,43.553,0,0,1,.757-4.894,5.772,5.772,0,0,1,2.894-3.839,1.067,1.067,0,0,1,.557-.127C473.378,807.062,473.636,807.447,473.806,807.831Z" transform="translate(-461.047 -807.016)" fill="#ffdaba"/>
                <path id="Trazado_686652" data-name="Trazado 686652" d="M476.671,823.822a10.191,10.191,0,0,1,3.39,7.832,17.534,17.534,0,0,1-2.214,8.48c-.279-2.347.855-4.919.85-7.348C478.691,830.667,478.478,825.3,476.671,823.822Z" transform="translate(-459.991 -805.879)" fill="#fd7d6f"/>
              </g>
            </g>
            <g id="Grupo_951637" data-name="Grupo 951637" transform="translate(0 29.456)">
              <path id="Trazado_686653" data-name="Trazado 686653" d="M486.641,857.04s-63.975,63.8-84.417,60.155c-7.6-1.347-22.166-10.291-37.444-20.978-4.638-3.249-9.34-6.657-13.937-10.06l-10.011-41.621c3.656-1.306,4.883-7.041,5.512-9.15.147-.511.266-.805.371-.777.854.246,4.52,2.927,9.424,6.742a490.119,490.119,0,0,1,48.6,43.305c.5.5.79.8.79.8,6.167-8.6,62.146-48.146,62.146-48.146l2.634,2.739,11.553,12.029Z" transform="translate(-340.832 -834.606)" fill="#ff9300"/>
              <path id="Trazado_686654" data-name="Trazado 686654" d="M349.368,881.32c22.945,15.625,48.586,31.987,54.131,31.1,8.686-1.39,60.269-46.094,77.786-61.458l4.781,4.971s-63.977,63.8-84.417,60.158c-9.918-1.765-31.642-16.42-51.384-31.045Z" transform="translate(-340.255 -833.5)" fill="#cf691f"/>
            </g>
          </g>
          <g id="Grupo_951658" data-name="Grupo 951658" transform="translate(140.08)">
            <g id="Grupo_951656" data-name="Grupo 951656">
              <g id="Grupo_951639" data-name="Grupo 951639" transform="translate(106.717 601.329)">
                <path id="Trazado_686655" data-name="Trazado 686655" d="M408.045,1311.2H383.783c-5.239,0-16.066-9.268-16.066-9.268s-3.144,6.287-5.939,9.081-2.088-26.8-2.088-26.8l14.048-.572,30.227,17.94,5.778,3.43a3.325,3.325,0,0,1-1.7,6.188Z" transform="translate(-359.611 -1283.638)" fill="#6c3509"/>
                <path id="Trazado_686656" data-name="Trazado 686656" d="M403.96,1301.577c-33.118,10.848-44.275-17.367-44.275-17.367l14.048-.572Z" transform="translate(-359.605 -1283.638)" fill="#fdbd8e"/>
              </g>
              <g id="Grupo_951640" data-name="Grupo 951640" transform="translate(106.717 601.329)">
                <path id="Trazado_686657" data-name="Trazado 686657" d="M408.045,1311.2H383.783c-5.239,0-16.066-9.268-16.066-9.268s-3.144,6.287-5.939,9.081-2.088-26.8-2.088-26.8l14.048-.572,30.227,17.94,5.778,3.43a3.325,3.325,0,0,1-1.7,6.188Z" transform="translate(-359.611 -1283.638)" fill="#6c3509"/>
                <path id="Trazado_686658" data-name="Trazado 686658" d="M403.96,1301.577c-33.118,10.848-44.275-17.367-44.275-17.367l14.048-.572Z" transform="translate(-359.605 -1283.638)" fill="#fdbd8e"/>
              </g>
              <g id="Grupo_951641" data-name="Grupo 951641" transform="translate(41.868 588.991)">
                <path id="Trazado_686659" data-name="Trazado 686659" d="M327.333,1300.835c-1.071,4.181-9.525,10.3-13.418,12.933a3.124,3.124,0,0,1-3.755-.184c-3.412-2.838-10.528-9.125-11.232-12.75-.391-1.991,1.222-7.3,3.241-12.819,2.828-7.754,6.461-15.935,6.461-15.935l14.048.572s3.263,12.253,4.444,20.924C327.55,1296.714,327.7,1299.382,327.333,1300.835Z" transform="translate(-298.87 -1272.082)" fill="#fdbd8e"/>
                <path id="Trazado_686660" data-name="Trazado 686660" d="M327.333,1299.826c-1.071,4.181-9.525,10.3-13.418,12.933a3.124,3.124,0,0,1-3.755-.184c-3.412-2.838-10.528-9.125-11.232-12.75-.391-1.991,1.222-7.3,3.241-12.819,1.516,5.652,4.59,12.471,10.61,12.819,5.653.321,10.815-3.612,14.343-7.258C327.55,1295.7,327.7,1298.373,327.333,1299.826Z" transform="translate(-298.87 -1271.073)" fill="#6c3509"/>
              </g>
              <path id="Trazado_686661" data-name="Trazado 686661" d="M369.134,896.692a158.443,158.443,0,0,1-2.145,15.816c-1.4,6.636-1.585,43.3-1.585,43.3-28.711,24.087-64.171,2.8-64.171,2.8.237-9.054-13.943-57.885-20.121-89.916-3.6-18.658-5.517-21.613-4.3-24.058,1.705-3.408,16.521-12.106,22.054-14.069a99.089,99.089,0,0,1,9.955-2.943h23.3a.684.684,0,0,1,.1-.005.289.289,0,0,0,.076-.007c.085-.008.2-.015.335-.015a.086.086,0,0,1,.036-.005,16.511,16.511,0,0,1,4.241.594v.008a28.846,28.846,0,0,1,2.8.866,46.018,46.018,0,0,1,7.322,3.493.023.023,0,0,1,.013,0c1.258.729,2.607,1.573,4.024,2.537a93,93,0,0,1,7.636,5.806,22.852,22.852,0,0,1,5.574,7.322C370.8,861.037,370.476,882.036,369.134,896.692Z" transform="translate(-258.518 -713.154)" fill="#ff9300"/>
              <g id="Grupo_951642" data-name="Grupo 951642" transform="translate(43.697 182.935)">
                <path id="Trazado_686662" data-name="Trazado 686662" d="M359.124,896.654l-2.39-.122c-1.525-.1-3.73-.232-6.455-.4-5.405-.266-12.814-.681-20.31,1.325-1.909.5-3.821,1.1-5.751,1.617a47.142,47.142,0,0,1-5.726,1.2,44.331,44.331,0,0,1-9.87.316,16.784,16.784,0,0,1-3.83-.716,8.607,8.607,0,0,1-2.639-1.348,5.756,5.756,0,0,1-1.258-1.338c-.216-.356-.313-.54-.313-.54s.161.138.464.4a5.97,5.97,0,0,0,1.479.833,12.265,12.265,0,0,0,6.045.329,72.189,72.189,0,0,0,9.112-1.872c1.684-.458,3.391-1,5.209-1.628s3.759-1.307,5.867-1.864a35.038,35.038,0,0,1,12.278-.922,54.112,54.112,0,0,1,9.638,1.857c2.664.754,4.765,1.493,6.211,2.021S359.124,896.654,359.124,896.654Z" transform="translate(-300.583 -891.749)" fill="#cf691f"/>
              </g>
              <g id="Grupo_951655" data-name="Grupo 951655">
                <path id="Trazado_686663" data-name="Trazado 686663" d="M367.1,793.99c-.106-.542-.268-1.318-.532-2.27a20.583,20.583,0,0,0-1.2-3.28,14,14,0,0,0-2.438-3.651,13.227,13.227,0,0,0-3.534-2.646,17.887,17.887,0,0,0-3.268-1.293c-.413-.12-.788-.214-1.131-.294-.417-.392-.668-.607-.668-.607l.218.509c-.259-.054-.5-.1-.7-.137-.543-.1-.848-.133-.848-.133s.753.494,1.988,1.3c.258.61.586,1.379.97,2.281a40.46,40.46,0,0,1,2.84,8.992,53.366,53.366,0,0,1,.445,9.49c-.012,1.278-.021,2.319-.027,3.04.012.725.018,1.128.018,1.128l.456-1.034c.281-.669.669-1.641,1.077-2.875a27.242,27.242,0,0,0,1.083-4.472,18.463,18.463,0,0,0,0-5.788,17.438,17.438,0,0,0-1.938-5.483,23.313,23.313,0,0,0-2.492-3.63,25.314,25.314,0,0,1,3.8,3.255,40.567,40.567,0,0,1,4.279,5.8c.534.812.964,1.471,1.265,1.93s.487.7.487.7S367.19,794.533,367.1,793.99Z" transform="translate(-253.341 -716.375)" fill="#85441d"/>
                <g id="Grupo_951643" data-name="Grupo 951643" transform="translate(0 7.79)">
                  <path id="Trazado_686664" data-name="Trazado 686664" d="M299.229,813.581a45,45,0,0,1-6.339,10.485c-5.639,7.124-13.534,13.188-22.6,13.781a31.235,31.235,0,0,0,11.951-8.014c-.552.36-1.108.71-1.68,1.027a30.322,30.322,0,0,1-20.906,3.331,26.075,26.075,0,0,0,5.823-11.022,38.348,38.348,0,0,0,1.28-8.838c.235-7.18-1.108-14.3-2.092-21.417a205.868,205.868,0,0,1-2.32-35.114c.317-9.349,3.353-19.495,10.45-25.96a15.922,15.922,0,0,1,23.762,2.623,15.016,15.016,0,0,1,1.4,2.382c.593,1.273.915,2.258.131,3.42a24.983,24.983,0,0,1-2.837,3.1,20.873,20.873,0,0,0-5.087,10.209,13.9,13.9,0,0,1,1.252,1.123,27.124,27.124,0,0,1,5.555,9.08,79,79,0,0,1,5.591,28.058C302.754,799.222,302.078,806.767,299.229,813.581Z" transform="translate(-259.654 -727.699)" fill="#85441d"/>
                  <path id="Trazado_686665" data-name="Trazado 686665" d="M296.392,734.465a13.826,13.826,0,0,1-1.92,4.24c-4.29-.179-8.192,2.948-10.12,6.782s-2.244,8.267-2.285,12.562a115.349,115.349,0,0,0,1.425,19.248c1.059,6.719,2.727,13.409,2.621,20.212s-2.242,13.959-7.488,18.3a27.04,27.04,0,0,0-2-11.785,25.883,25.883,0,0,1-11.317,19.149,38.348,38.348,0,0,0,1.28-8.838,88.19,88.19,0,0,0-1.252-15.64c-.282-1.928-.571-3.85-.839-5.777a205.872,205.872,0,0,1-2.32-35.114c.317-9.349,3.353-19.495,10.45-25.96a16.206,16.206,0,0,1,13.844-3.848,15.3,15.3,0,0,1,3.9,1.348A16.31,16.31,0,0,1,296.392,734.465Z" transform="translate(-259.489 -727.699)" fill="#965326"/>
                  <path id="Trazado_686666" data-name="Trazado 686666" d="M290.377,729.342c-4.289,2.961-8.626,5.907-10.781,10.541a28.038,28.038,0,0,0-1.831,6.614,63.214,63.214,0,0,0-1.3,9.266c-.22,5.459.992,10.871,1.342,16.329a52.043,52.043,0,0,1-2.346,19.1,33.894,33.894,0,0,0-3.5-8.371c-.277,5.857-3.106,11.075-6.624,15.875-.282-1.928-.571-3.85-.839-5.777a205.872,205.872,0,0,1-2.32-35.114c.317-9.349,3.353-19.495,10.45-25.96a16.206,16.206,0,0,1,13.844-3.848A15.3,15.3,0,0,1,290.377,729.342Z" transform="translate(-259.489 -727.699)" fill="#b5693c"/>
                </g>
                <circle id="Elipse_5298" data-name="Elipse 5298" cx="9.292" cy="9.292" r="9.292" transform="translate(28.155 12.356)" fill="#fff0e7"/>
                <g id="Grupo_951650" data-name="Grupo 951650" transform="translate(27.767)">
                  <path id="Trazado_686667" data-name="Trazado 686667" d="M336.982,829.027l2.478,27.86L327.2,850.65l-6.4-7.917s-.082-10.148-.054-15.118H329.5a.866.866,0,0,0,.1-.008.349.349,0,0,0,.078-.006c.08,0,.191-.006.33-.014a.053.053,0,0,1,.032-.007,16.406,16.406,0,0,1,4.18.586v.007A28.758,28.758,0,0,1,336.982,829.027Z" transform="translate(-283.29 -713.154)" fill="#fff0e7"/>
                  <g id="Grupo_951649" data-name="Grupo 951649">
                    <g id="Grupo_951644" data-name="Grupo 951644" transform="translate(23.256 83.047)">
                      <path id="Trazado_686668" data-name="Trazado 686668" d="M328.1,852.636l-20.651-23.029c.033-3.423.322-4.708.632-13.176.331-9.417.676-18.243.676-18.243l26.571,10.5c-2.966,6.643-4.3,14.217-4.749,21.43C329.638,845.33,328.1,852.636,328.1,852.636Z" transform="translate(-307.445 -798.189)" fill="#fdbd8e"/>
                      <path id="Trazado_686669" data-name="Trazado 686669" d="M335.284,808.692c-2.966,6.643-4.3,14.217-4.749,21.43-.841.352-1.66.675-2.431.945-3.084,1.073-13-7.724-20.067-14.635.331-9.417.676-18.243.676-18.243Z" transform="translate(-307.405 -798.189)" fill="#fb9988"/>
                    </g>
                    <g id="Grupo_951648" data-name="Grupo 951648">
                      <g id="Grupo_951645" data-name="Grupo 951645">
                        <path id="Trazado_686670" data-name="Trazado 686670" d="M363.639,781.3q-.805,3.685-2.079,7.736s1.191,13.308-.206,16.289S351,826.9,341.6,825.75c-7.847-.957-27.04-12.453-33.711-19.3a7.91,7.91,0,0,1-2.32-3.414c-.915-5.281-4.061-28.569-4.357-30.517-.8-5.279-3.016-45.268,45.331-34.144a23.282,23.282,0,0,1,17.548,17.472C365.512,762.134,365.979,770.582,363.639,781.3Z" transform="translate(-284.63 -719.319)" fill="#fdbd8e"/>
                        <path id="Trazado_686671" data-name="Trazado 686671" d="M372.279,757.531a20.443,20.443,0,0,1-1.273,6.222c-1.357,4.069-3.242,8.158-6.6,10.808a68.01,68.01,0,0,0-.724-16.17c-11.53,12.563-35.651,16.866-36.628,17.032,4.571-1.4,5.94-10.547,5.94-10.547-5.507,12.853-29.649,15.5-29.649,15.5-5.777-4.693-9.8,4.193-9.8,4.193-1.956-3.613-3.581-6.883-4.847-9.919-.338-.793-.648-1.564-.93-2.32a32.821,32.821,0,0,1-1.658-6.223c-3.215-19.3,11.213-38.205,29.8-43.6a.194.194,0,0,1,.053-.013c17.57-5.081,38.338-.428,48.12,9.279a20.236,20.236,0,0,1,4.164,5.769c.146.3.277.62.393.936.043.1.076.192.111.288a14.975,14.975,0,0,1,.95,5.694,19.818,19.818,0,0,1-.414,3.5A19.106,19.106,0,0,1,372.279,757.531Z" transform="translate(-285.662 -720.403)" fill="#85441d"/>
                        <path id="Trazado_686672" data-name="Trazado 686672" d="M368.644,738.468a14.668,14.668,0,0,1-3.3,1.337c-2.327.612-4.771.66-7.1,1.279a14.824,14.824,0,0,0-7.311,4.55c-3.4,3.876-4.915,9.625-9.508,11.964-3.174,1.617-7.008,1.117-10.45.187s-6.878-2.257-10.443-2.154c-5.6.164-10.554,3.861-14.05,8.239a16.574,16.574,0,0,1-3.374,3.628,10.8,10.8,0,0,1-6.676,1.433,25.4,25.4,0,0,1-10.32-2.829,34.581,34.581,0,0,1,2.016-18.29A43.355,43.355,0,0,1,315.913,722.5a.193.193,0,0,1,.053-.013,57.944,57.944,0,0,1,34.518,1.184,36.971,36.971,0,0,1,13.6,8.095,20.234,20.234,0,0,1,4.164,5.769C368.4,737.834,368.527,738.152,368.644,738.468Z" transform="translate(-285.662 -720.402)" fill="#965326"/>
                        <path id="Trazado_686673" data-name="Trazado 686673" d="M350.328,723.668c-5.673,4.641-8.571,12.756-15.434,15.31-3.985,1.487-8.4.7-12.619.22s-8.888-.509-12.232,2.114c-1.748,1.377-2.932,3.339-4.584,4.832-3.484,3.139-8.66,3.773-13.272,2.885a24.476,24.476,0,0,1-4.215-1.217A43.355,43.355,0,0,1,315.757,722.5a.194.194,0,0,1,.053-.013A57.944,57.944,0,0,1,350.328,723.668Z" transform="translate(-285.506 -720.402)" fill="#b5693c"/>
                        <path id="Trazado_686674" data-name="Trazado 686674" d="M361.119,786.2s1.192,13.308-.206,16.289-10.353,21.573-19.758,20.424c-7.847-.957-27.04-12.453-33.71-19.3,8.172,5.673,29.96,20.149,36.349,17.927,7.915-2.753,16.864-20.273,16.693-22.008s-.689-13.094-.689-13.094,1.6-3.587,3.4-7.971Q362.392,782.144,361.119,786.2Z" transform="translate(-284.189 -716.476)" fill="#ffdaba"/>
                      </g>
                      <g id="Grupo_951647" data-name="Grupo 951647" transform="translate(7.711 56.867)">
                        <path id="Trazado_686675" data-name="Trazado 686675" d="M308.273,799.845a18.48,18.48,0,0,1-12.853-7.093,14.781,14.781,0,0,1-1.28-1.907c-1.734-3.145-2.231-14.046,2.231-16.579,3.128-1.774,5.4.8,6.487,2.5v.006a10.352,10.352,0,0,1,.706,1.289Z" transform="translate(-292.885 -773.667)" fill="#ffdaba"/>
                        <path id="Trazado_686676" data-name="Trazado 686676" d="M308.226,799.78a18.481,18.481,0,0,1-12.853-7.093c-.2-.308-.384-.6-.537-.879-1.732-3.144-2.229-14.046,2.231-16.576,2.535-1.439,4.508-.025,5.744,1.469v.006a10.346,10.346,0,0,1,.706,1.289Z" transform="translate(-292.837 -773.602)" fill="#fdbd8e"/>
                        <path id="Trazado_686677" data-name="Trazado 686677" d="M294.839,782.463a4.672,4.672,0,0,0,.2,2.64c1.219,3.658,4.873,6.451,8.371,9.042a9.182,9.182,0,0,1-1.227-5.729c.074-.678.222-1.354.227-2.034C302.444,783.638,296.162,777.308,294.839,782.463Z" transform="translate(-292.76 -773.205)" fill="#fb9988"/>
                        <g id="Grupo_951646" data-name="Grupo 951646" transform="translate(2.976 7.24)">
                          <path id="Trazado_686678" data-name="Trazado 686678" d="M305.107,795.191l-.2-.112c-.125-.078-.33-.179-.563-.338a7.84,7.84,0,0,1-1.725-1.558,7.042,7.042,0,0,1-1.421-2.9,6.08,6.08,0,0,1,.441-3.844,3.561,3.561,0,0,1,.254-.48l.07-.117c.018-.03.007-.01.01-.013l0,0,0,0h0l-.011-.02-.058-.1-.118-.208c-.08-.139-.158-.275-.242-.408a16.444,16.444,0,0,0-1.055-1.508c-.367-.468-.747-.9-1.124-1.293a10.014,10.014,0,0,0-1.106-1.028,2.465,2.465,0,0,0-1.133-.5,1.786,1.786,0,0,0-.963.16.914.914,0,0,0-.429.39.676.676,0,0,0-.061.183.447.447,0,0,1,.011-.2.866.866,0,0,1,.36-.5,1.969,1.969,0,0,1,1.105-.347,3.078,3.078,0,0,1,1.5.428,9.648,9.648,0,0,1,1.363.977,14.79,14.79,0,0,1,1.345,1.262,13.359,13.359,0,0,1,1.243,1.542c.1.139.188.282.28.426l.135.22.179.308.124.218c-.033.074-.081.145-.122.218l-.177.31a2.942,2.942,0,0,0-.22.419,6.437,6.437,0,0,0-.564,3.4,7.269,7.269,0,0,0,.926,2.776,7.948,7.948,0,0,0,1.321,1.686c.186.189.355.316.459.413S305.107,795.191,305.107,795.191Z" transform="translate(-295.672 -780.449)" fill="#fd7d6f"/>
                        </g>
                      </g>
                    </g>
                  </g>
                  <path id="Trazado_686679" data-name="Trazado 686679" d="M328.719,850.648l-15.686,12.26-14.775-32.4a97.687,97.687,0,0,1,9.809-2.9Z" transform="translate(-284.811 -713.151)" fill="#fff0e7"/>
                </g>
                <path id="Trazado_686680" data-name="Trazado 686680" d="M313.738,787.262c-.1-.542-.269-1.321-.533-2.271a20.5,20.5,0,0,0-1.2-3.28,14.034,14.034,0,0,0-2.44-3.651,13.2,13.2,0,0,0-3.534-2.645,17.779,17.779,0,0,0-3.269-1.293c-.412-.121-.787-.215-1.131-.294-.416-.393-.665-.609-.665-.609l.216.509c-.258-.054-.5-.1-.7-.137-.543-.1-.848-.131-.848-.131l1.988,1.3.972,2.279a40.586,40.586,0,0,1,2.841,8.994,53.557,53.557,0,0,1,.444,9.49c-.011,1.279-.022,2.319-.028,3.04.013.725.019,1.13.019,1.13s.163-.37.455-1.035.672-1.642,1.077-2.875a27.064,27.064,0,0,0,1.083-4.473,18.462,18.462,0,0,0,0-5.788,17.412,17.412,0,0,0-1.938-5.483,23.4,23.4,0,0,0-2.49-3.629,25.358,25.358,0,0,1,3.8,3.255,40.61,40.61,0,0,1,4.281,5.8c.531.811.963,1.471,1.263,1.931s.487.7.487.7S313.835,787.8,313.738,787.262Z" transform="translate(-256.95 -716.83)" fill="#85441d"/>
                <g id="Grupo_951654" data-name="Grupo 951654" transform="translate(58.663 44.22)">
                  <path id="Trazado_686681" data-name="Trazado 686681" d="M364.523,769.858s-6.171-8.261-9.613-4.991-1.894,3.613-1.894,3.613Z" transform="translate(-312.026 -761.667)" fill="#965326"/>
                  <path id="Trazado_686682" data-name="Trazado 686682" d="M318.021,771.277s11.386-13.114,16.049-8.455c2.722,2.718.831,4.57.831,4.57Z" transform="translate(-314.369 -761.821)" fill="#965326"/>
                  <path id="Trazado_686683" data-name="Trazado 686683" d="M332.929,771.941c-.545,1.407-2.379,2.508-3.663,3.131a3.122,3.122,0,0,0-2.33-1.2c-2.219,0-4.015,2.888-4.015,6.45s1.8,6.447,4.015,6.447,4.015-2.886,4.015-6.447a9.635,9.635,0,0,0-.477-3.048C332.168,775.782,332.929,771.941,332.929,771.941Z" transform="translate(-314.038 -761.137)" fill="#161818"/>
                  <path id="Trazado_686684" data-name="Trazado 686684" d="M319.328,776.429a8.267,8.267,0,0,0,8.862,3.587,8.259,8.259,0,0,0-8.862-3.587Z" transform="translate(-314.281 -760.846)" fill="#fff0e7"/>
                  <path id="Trazado_686685" data-name="Trazado 686685" d="M358.19,775.154a5.112,5.112,0,0,1-2.51,2.162,2.253,2.253,0,0,0-1.569-.711c-1.672,0-3.027,2.177-3.027,4.862s1.355,4.86,3.027,4.86,3.028-2.176,3.028-4.86a7.081,7.081,0,0,0-.525-2.735A8.751,8.751,0,0,0,358.19,775.154Z" transform="translate(-312.133 -760.919)" fill="#161818"/>
                  <path id="Trazado_686686" data-name="Trazado 686686" d="M359.587,778.862a6.68,6.68,0,0,1-6.3,2.553,6.677,6.677,0,0,1,6.3-2.553Z" transform="translate(-311.984 -760.673)" fill="#fff0e7"/>
                  <g id="Grupo_951651" data-name="Grupo 951651" transform="translate(25.274 15.685)">
                    <path id="Trazado_686687" data-name="Trazado 686687" d="M341.291,793.762a7.065,7.065,0,0,0-3.018-.793,10.071,10.071,0,0,0,5.477,5.283,1.151,1.151,0,0,0,1.265-.119,11.808,11.808,0,0,0,3.46-3.08,2.265,2.265,0,0,0,.446-.824c.24-1.016-.459-.793-1.062-.555a9.408,9.408,0,0,1-6.568.089Z" transform="translate(-338.273 -775.401)" fill="#fb9988"/>
                    <path id="Trazado_686688" data-name="Trazado 686688" d="M343.668,798.783c.62-.554,1.315-1.022,1.949-1.563a15.748,15.748,0,0,0,2.152-2.2c-3.3-2.272-3.265-5.717-3.106-9.622a11.359,11.359,0,0,1,4.076-8.252,4.078,4.078,0,0,1,1.141-.635c-.2.235-.341.5-.525.742a22.7,22.7,0,0,0-1.4,1.881,14.066,14.066,0,0,0-2.047,6.745,11.4,11.4,0,0,0,.743,4.569,9,9,0,0,0,3.3,4.259c.013.01-2.254,2.628-2.475,2.841a11.76,11.76,0,0,1-1.871,1.475,4.126,4.126,0,0,1-2.223.881,1.32,1.32,0,0,1-.716-.214,2.521,2.521,0,0,0,.386-.312c.052-.05.1-.1.152-.155C343.356,799.07,343.51,798.925,343.668,798.783Z" transform="translate(-337.975 -776.513)" fill="#fd7d6f"/>
                  </g>
                  <path id="Trazado_686689" data-name="Trazado 686689" d="M352.744,795.36c.528,1.411,3.576,1.574,6.809.365s5.424-3.336,4.9-4.747-3.578-1.575-6.808-.365S352.215,793.948,352.744,795.36Z" transform="translate(-312.026 -759.929)" fill="#fb9988"/>
                  <path id="Trazado_686690" data-name="Trazado 686690" d="M314.658,788.977c-.552,2.128,2.952,4.878,7.827,6.14s9.273.562,9.825-1.568-2.953-4.877-7.828-6.14S315.208,786.848,314.658,788.977Z" transform="translate(-314.6 -760.133)" fill="#fb9988"/>
                  <g id="Grupo_951653" data-name="Grupo 951653" transform="translate(10.544 39.081)">
                    <g id="Grupo_951652" data-name="Grupo 951652" transform="translate(5.904 11.441)">
                      <path id="Trazado_686691" data-name="Trazado 686691" d="M339.859,810.055a11.881,11.881,0,0,1-9.853-.912,5.107,5.107,0,0,0,4.193,2.971A8.444,8.444,0,0,0,339.859,810.055Z" transform="translate(-330.006 -809.143)" fill="#fd7d6f"/>
                    </g>
                    <path id="Trazado_686692" data-name="Trazado 686692" d="M324.476,798.711a15.926,15.926,0,0,0,4.136,7.425,12.119,12.119,0,0,0,6.369,3.318,10.7,10.7,0,0,0,7.116-1.086,17.573,17.573,0,0,0,6.5-6.5c-14.311-4.746-23.726-3.22-24.1-3.161Z" transform="translate(-324.476 -798.426)" fill="#fc5b68"/>
                    <path id="Trazado_686693" data-name="Trazado 686693" d="M324.476,798.711s.22.823,2.275,1.948,16.664,2.959,18.38,2.753a8.394,8.394,0,0,0,3.462-1.546c-14.311-4.746-23.726-3.22-24.1-3.161Z" transform="translate(-324.476 -798.426)" fill="#fff0e7"/>
                    <path id="Trazado_686694" data-name="Trazado 686694" d="M328.35,805.728a12.118,12.118,0,0,0,6.37,3.318,10.7,10.7,0,0,0,7.116-1.086C339.3,806.082,333.429,802.584,328.35,805.728Z" transform="translate(-324.214 -798.018)" fill="#cf4a57"/>
                  </g>
                </g>
                <path id="Trazado_686695" data-name="Trazado 686695" d="M372.471,780.913a12.3,12.3,0,0,1-24.582.52c-1.949-1.451-4.646-.475-5.728.023a13.455,13.455,0,1,1-26.589-3.482L298.1,775.12l.332-2.038,17.741,2.9a13.45,13.45,0,0,1,25.921,3.263,7.958,7.958,0,0,1,5.913-.127,12.3,12.3,0,0,1,24.463,1.8Zm-32.341-.11a11.4,11.4,0,1,0-11.4,11.4A11.413,11.413,0,0,0,340.13,780.8Zm30.275.11a10.238,10.238,0,1,0-10.239,10.238A10.251,10.251,0,0,0,370.405,780.913Z" transform="translate(-257.054 -717.228)" fill="#fff0e7"/>
              </g>
            </g>
            <g id="Grupo_951657" data-name="Grupo 951657" transform="translate(26.212 242.652)">
              <path id="Trazado_686696" data-name="Trazado 686696" d="M384.537,1306.126l-25.105,1.02-2.355-131.486-.041-2.44,2.326-36.324-15.9-84.153h-6.023l-3.632,83.7-2.047,31.924-.468,18.234-2.761,108.2-24.107-.984s-10.78-91.207-10.78-116.51a29.609,29.609,0,0,1,.336-5.428l.32-2.411,5.709-42.788s-16.6-80.783-15.774-100.957c.343-8.3,3.193-22.488,6.427-36.335,4.625-19.818,10.045-38.9,10.045-38.9l64.171-2.8c2.732,7.433,5.5,15.915,8.1,24.443,7.67,25.114,13.952,50.591,13.952,50.591,1.159,3.991,6.035,87.652,8.3,127.316.707,12.421,1.161,20.525,1.161,20.525C398.964,1182.344,384.537,1306.126,384.537,1306.126Z" transform="translate(-284.206 -947.683)" fill="#2e3032"/>
              <path id="Trazado_686697" data-name="Trazado 686697" d="M330.695,1172.55l-2.761,108.195-24.107-.984s-10.78-91.207-10.78-116.51a29.607,29.607,0,0,1,.336-5.428l.32-2.411a36.716,36.716,0,0,0,4.319,6.33c6.132,6.309,13.545,11.311,22.585,11.868A33.01,33.01,0,0,0,330.695,1172.55Z" transform="translate(-283.608 -933.634)" fill="#1f2123"/>
              <path id="Trazado_686698" data-name="Trazado 686698" d="M379.921,1293.307l-25.105,1.02L352.46,1162.84a211.742,211.742,0,0,0,38.15-25.625c.707,12.421,1.16,20.525,1.16,20.525C394.348,1169.526,379.921,1293.307,379.921,1293.307Z" transform="translate(-279.589 -934.864)" fill="#1f2123"/>
              <path id="Trazado_686699" data-name="Trazado 686699" d="M372.567,972.126c-6.021-.37-12.05-1.1-18.073-1.418-19.643-1.069-40.663,2.347-57.381,13.188a67.9,67.9,0,0,0-6.86,5.484c4.625-19.818,10.045-38.9,10.045-38.9l64.171-2.8C367.2,955.116,369.97,963.6,372.567,972.126Z" transform="translate(-283.797 -947.683)" fill="#1f2123"/>
            </g>
          </g>
          <path id="Trazado_686700" data-name="Trazado 686700" d="M250.657,898.91s6.755,8.152,5.707,8.851-7.453-3.562-7.453-3.562-1.864,7.056-3.96,7.754.7-11.3.7-11.3c-4.261-3.094-55.02-25.3-72-32.692l1.542-2.641s63.677,25.365,71.682,32.28c0,0,12.784-22.975,17.2-29.38,0,0,19.331-26.3,22.907-27.686C285.957,841.32,250.657,898.91,250.657,898.91Z" transform="translate(-125.391 -712.277)" fill="#ffb800"/>
          <path id="Trazado_686701" data-name="Trazado 686701" d="M335.7,828.956" transform="translate(-114.431 -713.061)" fill="#ffb800"/>
          <path id="Trazado_686702" data-name="Trazado 686702" d="M413.619,893.129c-2,1.746-5.853-2.1-5.853-2.1s-2.446,6.636-4.542,6.812,1.224-7.16,1.224-7.16c-1.467-3.046-26.839-26.533-44.641-42.789-5.608-5.128-10.464-9.529-13.58-12.35-2.194-1.985-3.527-3.193-3.653-3.314,1.258.729,2.607,1.573,4.024,2.537.854.246,4.52,2.927,9.424,6.742a490.118,490.118,0,0,1,48.6,43.305c.5.5.79.8.79.8,6.167-8.6,62.146-48.146,62.146-48.146l2.634,2.739-61.379,46.637S415.625,891.382,413.619,893.129Z" transform="translate(-113.966 -712.839)" fill="#ffb800"/>
        </g>
      </g>
    </g>
    <g id="Grupo_951661" data-name="Grupo 951661" transform="translate(-1309.303 -1551.869)">
      <rect id="Rect치ngulo_335418" data-name="Rect치ngulo 335418" width="269.067" height="137.503" rx="13.129" transform="translate(448.236 106.387)" fill="#fff"/>
      <path id="Trazado_639247" data-name="Trazado 639247" d="M450.105,258.388s-6.546,17.249-15.789,24.359c0,0,21.243-.262,27.838-7.364A109.273,109.273,0,0,1,450.105,258.388Z" transform="translate(0 -38.857)" fill="#fff"/>
    </g>
    <path id="Trazado_702411" data-name="Trazado 702411" d="M7.57,13.578a3.771,3.771,0,0,1-.281,1.484,3.245,3.245,0,0,1-.8,1.141,3.586,3.586,0,0,1-1.254.734A4.9,4.9,0,0,1,3.6,17.2a4.511,4.511,0,0,1-2.32-.469V15.367a4.266,4.266,0,0,0,2.336.734,3.161,3.161,0,0,0,1.1-.18,2.439,2.439,0,0,0,.832-.5,2.141,2.141,0,0,0,.527-.773,2.618,2.618,0,0,0,.184-.992,2.125,2.125,0,0,0-.734-1.715,3.221,3.221,0,0,0-2.133-.621q-.227,0-.477.008t-.5.02q-.25.012-.488.027t-.434.039L1.875,5.8h5.18V6.953H2.984l-.227,3.289q.25-.016.531-.027t.5-.012a5.028,5.028,0,0,1,1.594.234,3.377,3.377,0,0,1,1.191.668,2.8,2.8,0,0,1,.742,1.063A3.737,3.737,0,0,1,7.57,13.578Zm9.023-2.227a11.005,11.005,0,0,1-.254,2.492,5.807,5.807,0,0,1-.734,1.832,3.305,3.305,0,0,1-1.18,1.133,3.23,3.23,0,0,1-1.59.387,3.016,3.016,0,0,1-1.5-.371,3.152,3.152,0,0,1-1.113-1.082A5.484,5.484,0,0,1,9.531,14,10.8,10.8,0,0,1,9.3,11.625a12.222,12.222,0,0,1,.246-2.594,5.933,5.933,0,0,1,.723-1.887A3.216,3.216,0,0,1,11.449,6a3.323,3.323,0,0,1,1.621-.387Q16.594,5.609,16.594,11.352Zm-1.312.125q0-4.781-2.273-4.781-2.4,0-2.4,4.867,0,4.539,2.352,4.539Q15.281,16.1,15.281,11.477ZM34.289,17H33.008V12.406a3.466,3.466,0,0,0-.41-1.922,1.555,1.555,0,0,0-1.379-.594,1.708,1.708,0,0,0-1.395.75,2.869,2.869,0,0,0-.574,1.8V17H27.969V12.25q0-2.359-1.82-2.359a1.686,1.686,0,0,0-1.391.707,2.923,2.923,0,0,0-.547,1.84V17H22.93V9h1.281v1.266h.031a2.718,2.718,0,0,1,2.484-1.453,2.311,2.311,0,0,1,2.266,1.656,2.855,2.855,0,0,1,2.656-1.656q2.641,0,2.641,3.258Zm8.852-3.68H37.492a2.992,2.992,0,0,0,.719,2.063,2.478,2.478,0,0,0,1.891.727,3.931,3.931,0,0,0,2.484-.891v1.2a4.643,4.643,0,0,1-2.789.766,3.381,3.381,0,0,1-2.664-1.09,4.461,4.461,0,0,1-.969-3.066,4.375,4.375,0,0,1,1.059-3.043,3.394,3.394,0,0,1,2.629-1.176,3.008,3.008,0,0,1,2.43,1.016,4.234,4.234,0,0,1,.859,2.82Zm-1.312-1.086a2.607,2.607,0,0,0-.535-1.727,1.823,1.823,0,0,0-1.465-.617,2.07,2.07,0,0,0-1.539.648,2.943,2.943,0,0,0-.781,1.7Zm6.961,4.688a2.47,2.47,0,0,1-1.2.25q-2.1,0-2.1-2.344V10.094H44.117V9h1.375V7.047l1.281-.414V9h2.016v1.094H46.773V14.6a1.869,1.869,0,0,0,.273,1.148,1.091,1.091,0,0,0,.906.344,1.347,1.347,0,0,0,.836-.266ZM54.672,10.3a1.567,1.567,0,0,0-.969-.258,1.635,1.635,0,0,0-1.371.773,3.576,3.576,0,0,0-.551,2.109V17H50.5V9h1.281v1.648h.031a2.794,2.794,0,0,1,.836-1.316,1.906,1.906,0,0,1,1.258-.473,2.092,2.092,0,0,1,.766.109Zm4.734,6.891a3.711,3.711,0,0,1-2.832-1.121,4.153,4.153,0,0,1-1.059-2.973,4.326,4.326,0,0,1,1.1-3.148,3.96,3.96,0,0,1,2.977-1.133,3.588,3.588,0,0,1,2.793,1.1,4.368,4.368,0,0,1,1,3.055,4.3,4.3,0,0,1-1.082,3.066A3.791,3.791,0,0,1,59.406,17.188Zm.094-7.3a2.437,2.437,0,0,0-1.953.84,3.449,3.449,0,0,0-.719,2.316,3.262,3.262,0,0,0,.727,2.242,2.469,2.469,0,0,0,1.945.82,2.342,2.342,0,0,0,1.91-.8,3.492,3.492,0,0,0,.668-2.289A3.552,3.552,0,0,0,61.41,10.7,2.332,2.332,0,0,0,59.5,9.891Zm5.453,6.82V15.336a3.792,3.792,0,0,0,2.3.773q1.688,0,1.688-1.125a.976.976,0,0,0-.145-.543,1.44,1.44,0,0,0-.391-.395,3.007,3.007,0,0,0-.578-.309q-.332-.137-.715-.285a9.207,9.207,0,0,1-.934-.426,2.82,2.82,0,0,1-.672-.484,1.8,1.8,0,0,1-.406-.613,2.17,2.17,0,0,1-.137-.8,1.912,1.912,0,0,1,.258-1,2.286,2.286,0,0,1,.688-.727,3.206,3.206,0,0,1,.98-.441,4.349,4.349,0,0,1,1.137-.148,4.59,4.59,0,0,1,1.859.359v1.3a3.624,3.624,0,0,0-2.031-.578,2.374,2.374,0,0,0-.648.082,1.587,1.587,0,0,0-.5.23,1.065,1.065,0,0,0-.32.355.936.936,0,0,0-.113.457,1.1,1.1,0,0,0,.113.523,1.152,1.152,0,0,0,.332.375,2.538,2.538,0,0,0,.531.3q.313.133.711.289a9.9,9.9,0,0,1,.953.418,3.269,3.269,0,0,1,.719.484,1.893,1.893,0,0,1,.457.621,2,2,0,0,1,.16.836A1.971,1.971,0,0,1,70,15.891a2.243,2.243,0,0,1-.7.727,3.2,3.2,0,0,1-1.008.43,4.976,4.976,0,0,1-1.2.141A4.539,4.539,0,0,1,64.953,16.711ZM83.438,17H82.156V15.641h-.031a2.958,2.958,0,0,1-2.75,1.547,2.988,2.988,0,0,1-2.41-1.074,4.407,4.407,0,0,1-.9-2.926,4.794,4.794,0,0,1,1-3.18,3.3,3.3,0,0,1,2.664-1.2,2.564,2.564,0,0,1,2.4,1.3h.031V5.156h1.281Zm-1.281-3.617V12.2a2.289,2.289,0,0,0-.641-1.641,2.149,2.149,0,0,0-1.625-.672,2.212,2.212,0,0,0-1.844.859,3.766,3.766,0,0,0-.672,2.375,3.387,3.387,0,0,0,.645,2.184,2.107,2.107,0,0,0,1.73.8,2.188,2.188,0,0,0,1.738-.773A2.882,2.882,0,0,0,82.156,13.383Zm10.3-.062H86.813a2.992,2.992,0,0,0,.719,2.063,2.478,2.478,0,0,0,1.891.727,3.931,3.931,0,0,0,2.484-.891v1.2a4.643,4.643,0,0,1-2.789.766,3.381,3.381,0,0,1-2.664-1.09,4.461,4.461,0,0,1-.969-3.066,4.375,4.375,0,0,1,1.059-3.043,3.394,3.394,0,0,1,2.629-1.176A3.008,3.008,0,0,1,91.6,9.828a4.234,4.234,0,0,1,.859,2.82Zm-1.312-1.086a2.607,2.607,0,0,0-.535-1.727,1.823,1.823,0,0,0-1.465-.617,2.07,2.07,0,0,0-1.539.648,2.943,2.943,0,0,0-.781,1.7ZM100.063,17H98.781V5.156h1.281Zm8.32,0H107.1V15.75h-.031a2.682,2.682,0,0,1-2.461,1.438,2.63,2.63,0,0,1-1.871-.633,2.192,2.192,0,0,1-.676-1.68q0-2.242,2.641-2.609l2.4-.336q0-2.039-1.648-2.039a3.938,3.938,0,0,0-2.609.984V9.563a4.958,4.958,0,0,1,2.719-.75q2.82,0,2.82,2.984ZM107.1,12.953l-1.93.266a3.133,3.133,0,0,0-1.344.441,1.273,1.273,0,0,0-.453,1.121,1.221,1.221,0,0,0,.418.957,1.615,1.615,0,0,0,1.113.371,2.056,2.056,0,0,0,1.574-.668,2.387,2.387,0,0,0,.621-1.691Zm3.211,3.758V15.336a3.792,3.792,0,0,0,2.3.773q1.688,0,1.688-1.125a.976.976,0,0,0-.145-.543,1.44,1.44,0,0,0-.391-.395,3.007,3.007,0,0,0-.578-.309q-.332-.137-.715-.285a9.207,9.207,0,0,1-.934-.426,2.82,2.82,0,0,1-.672-.484,1.8,1.8,0,0,1-.406-.613,2.17,2.17,0,0,1-.137-.8,1.912,1.912,0,0,1,.258-1,2.286,2.286,0,0,1,.688-.727,3.206,3.206,0,0,1,.98-.441,4.349,4.349,0,0,1,1.137-.148,4.59,4.59,0,0,1,1.859.359v1.3a3.624,3.624,0,0,0-2.031-.578,2.374,2.374,0,0,0-.648.082,1.587,1.587,0,0,0-.5.23,1.065,1.065,0,0,0-.32.355.936.936,0,0,0-.113.457,1.1,1.1,0,0,0,.113.523,1.152,1.152,0,0,0,.332.375,2.538,2.538,0,0,0,.531.3q.313.133.711.289a9.9,9.9,0,0,1,.953.418A3.269,3.269,0,0,1,115,13.4a1.893,1.893,0,0,1,.457.621,2,2,0,0,1,.16.836,1.971,1.971,0,0,1-.262,1.031,2.243,2.243,0,0,1-.7.727,3.2,3.2,0,0,1-1.008.43,4.976,4.976,0,0,1-1.2.141A4.539,4.539,0,0,1,110.313,16.711Zm17.109-.078a4.163,4.163,0,0,1-2.187.555,3.622,3.622,0,0,1-2.762-1.113,4.035,4.035,0,0,1-1.051-2.887,4.435,4.435,0,0,1,1.133-3.176,3.963,3.963,0,0,1,3.023-1.2,4.209,4.209,0,0,1,1.859.391v1.313a3.258,3.258,0,0,0-1.906-.625,2.576,2.576,0,0,0-2.012.879,3.335,3.335,0,0,0-.785,2.309,3.176,3.176,0,0,0,.738,2.219,2.545,2.545,0,0,0,1.98.813,3.211,3.211,0,0,0,1.969-.7Zm7.664.367H133.8V15.75h-.031a2.682,2.682,0,0,1-2.461,1.438,2.63,2.63,0,0,1-1.871-.633,2.192,2.192,0,0,1-.676-1.68q0-2.242,2.641-2.609l2.4-.336q0-2.039-1.648-2.039a3.938,3.938,0,0,0-2.609.984V9.563a4.958,4.958,0,0,1,2.719-.75q2.82,0,2.82,2.984ZM133.8,12.953l-1.93.266a3.133,3.133,0,0,0-1.344.441,1.273,1.273,0,0,0-.453,1.121,1.221,1.221,0,0,0,.418.957,1.615,1.615,0,0,0,1.113.371,2.056,2.056,0,0,0,1.574-.668,2.387,2.387,0,0,0,.621-1.691Zm7.867-2.656a1.567,1.567,0,0,0-.969-.258,1.635,1.635,0,0,0-1.371.773,3.576,3.576,0,0,0-.551,2.109V17H137.5V9h1.281v1.648h.031a2.794,2.794,0,0,1,.836-1.316,1.906,1.906,0,0,1,1.258-.473,2.092,2.092,0,0,1,.766.109Zm5.563,0a1.567,1.567,0,0,0-.969-.258,1.635,1.635,0,0,0-1.371.773,3.576,3.576,0,0,0-.551,2.109V17h-1.281V9h1.281v1.648h.031a2.794,2.794,0,0,1,.836-1.316,1.906,1.906,0,0,1,1.258-.473,2.092,2.092,0,0,1,.766.109Zm7.82,3.023h-5.648a2.992,2.992,0,0,0,.719,2.063,2.478,2.478,0,0,0,1.891.727,3.931,3.931,0,0,0,2.484-.891v1.2a4.643,4.643,0,0,1-2.789.766,3.381,3.381,0,0,1-2.664-1.09,4.461,4.461,0,0,1-.969-3.066,4.374,4.374,0,0,1,1.059-3.043,3.394,3.394,0,0,1,2.629-1.176,3.008,3.008,0,0,1,2.43,1.016,4.234,4.234,0,0,1,.859,2.82Zm-1.312-1.086a2.607,2.607,0,0,0-.535-1.727,1.823,1.823,0,0,0-1.465-.617,2.07,2.07,0,0,0-1.539.648,2.943,2.943,0,0,0-.781,1.7Zm6.961,4.688a2.47,2.47,0,0,1-1.2.25q-2.1,0-2.1-2.344V10.094h-1.375V9h1.375V7.047l1.281-.414V9H160.7v1.094h-2.016V14.6a1.869,1.869,0,0,0,.273,1.148,1.091,1.091,0,0,0,.906.344,1.347,1.347,0,0,0,.836-.266Zm8.141-3.6H163.2a2.992,2.992,0,0,0,.719,2.063,2.478,2.478,0,0,0,1.891.727,3.931,3.931,0,0,0,2.484-.891v1.2a4.643,4.643,0,0,1-2.789.766,3.381,3.381,0,0,1-2.664-1.09,4.461,4.461,0,0,1-.969-3.066,4.374,4.374,0,0,1,1.059-3.043,3.394,3.394,0,0,1,2.629-1.176,3.008,3.008,0,0,1,2.43,1.016,4.234,4.234,0,0,1,.859,2.82Zm-1.312-1.086A2.607,2.607,0,0,0,167,10.508a1.823,1.823,0,0,0-1.465-.617,2.07,2.07,0,0,0-1.539.648,2.943,2.943,0,0,0-.781,1.7Zm7.422-1.937a1.567,1.567,0,0,0-.969-.258,1.635,1.635,0,0,0-1.371.773,3.576,3.576,0,0,0-.551,2.109V17h-1.281V9h1.281v1.648h.031a2.794,2.794,0,0,1,.836-1.316,1.906,1.906,0,0,1,1.258-.473,2.092,2.092,0,0,1,.766.109ZM182.07,17h-1.281V15.75h-.031a2.682,2.682,0,0,1-2.461,1.438,2.63,2.63,0,0,1-1.871-.633,2.192,2.192,0,0,1-.676-1.68q0-2.242,2.641-2.609l2.4-.336q0-2.039-1.648-2.039a3.938,3.938,0,0,0-2.609.984V9.563a4.958,4.958,0,0,1,2.719-.75q2.82,0,2.82,2.984Zm-1.281-4.047-1.93.266a3.133,3.133,0,0,0-1.344.441,1.273,1.273,0,0,0-.453,1.121,1.221,1.221,0,0,0,.418.957,1.615,1.615,0,0,0,1.113.371,2.056,2.056,0,0,0,1.574-.668,2.387,2.387,0,0,0,.621-1.691ZM184,16.711V15.336a3.792,3.792,0,0,0,2.3.773q1.688,0,1.688-1.125a.976.976,0,0,0-.145-.543,1.44,1.44,0,0,0-.391-.395,3.007,3.007,0,0,0-.578-.309q-.332-.137-.715-.285a9.207,9.207,0,0,1-.934-.426,2.82,2.82,0,0,1-.672-.484,1.8,1.8,0,0,1-.406-.613,2.17,2.17,0,0,1-.137-.8,1.912,1.912,0,0,1,.258-1,2.286,2.286,0,0,1,.688-.727,3.206,3.206,0,0,1,.98-.441,4.349,4.349,0,0,1,1.137-.148,4.59,4.59,0,0,1,1.859.359v1.3a3.624,3.624,0,0,0-2.031-.578,2.374,2.374,0,0,0-.648.082,1.587,1.587,0,0,0-.5.23,1.065,1.065,0,0,0-.32.355.936.936,0,0,0-.113.457,1.1,1.1,0,0,0,.113.523,1.152,1.152,0,0,0,.332.375,2.538,2.538,0,0,0,.531.3q.312.133.711.289a9.894,9.894,0,0,1,.953.418,3.269,3.269,0,0,1,.719.484,1.893,1.893,0,0,1,.457.621,2,2,0,0,1,.16.836,1.971,1.971,0,0,1-.262,1.031,2.243,2.243,0,0,1-.7.727,3.2,3.2,0,0,1-1.008.43,4.976,4.976,0,0,1-1.2.141A4.539,4.539,0,0,1,184,16.711Zm15,.477a3.711,3.711,0,0,1-2.832-1.121,4.153,4.153,0,0,1-1.059-2.973,4.326,4.326,0,0,1,1.1-3.148,3.96,3.96,0,0,1,2.977-1.133,3.588,3.588,0,0,1,2.793,1.1,4.368,4.368,0,0,1,1,3.055,4.3,4.3,0,0,1-1.082,3.066A3.791,3.791,0,0,1,199,17.188Zm.094-7.3a2.437,2.437,0,0,0-1.953.84,3.449,3.449,0,0,0-.719,2.316,3.262,3.262,0,0,0,.727,2.242,2.469,2.469,0,0,0,1.945.82,2.342,2.342,0,0,0,1.91-.8,3.492,3.492,0,0,0,.668-2.289A3.552,3.552,0,0,0,201,10.7,2.332,2.332,0,0,0,199.094,9.891ZM215.7,9l-3.187,8h-1.258l-3.031-8h1.406l2.031,5.813a5.216,5.216,0,0,1,.281,1.117h.031a5.283,5.283,0,0,1,.25-1.086L214.352,9Zm2.656,8h-1.281V9h1.281Zm1.148-12.078-2.047,2.563h-.992l1.742-2.562ZM226.68,17H225.4V15.75h-.031a2.682,2.682,0,0,1-2.461,1.438,2.63,2.63,0,0,1-1.871-.633,2.192,2.192,0,0,1-.676-1.68q0-2.242,2.641-2.609l2.4-.336q0-2.039-1.648-2.039a3.938,3.938,0,0,0-2.609.984V9.563a4.958,4.958,0,0,1,2.719-.75q2.82,0,2.82,2.984ZM225.4,12.953l-1.93.266a3.133,3.133,0,0,0-1.344.441,1.273,1.273,0,0,0-.453,1.121,1.221,1.221,0,0,0,.418.957,1.615,1.615,0,0,0,1.113.371,2.056,2.056,0,0,0,1.574-.668,2.387,2.387,0,0,0,.621-1.691Zm3.211,3.758V15.336a3.792,3.792,0,0,0,2.3.773q1.688,0,1.688-1.125a.976.976,0,0,0-.145-.543,1.44,1.44,0,0,0-.391-.395,3.007,3.007,0,0,0-.578-.309q-.332-.137-.715-.285a9.207,9.207,0,0,1-.934-.426,2.82,2.82,0,0,1-.672-.484,1.8,1.8,0,0,1-.406-.613,2.17,2.17,0,0,1-.137-.8,1.912,1.912,0,0,1,.258-1,2.286,2.286,0,0,1,.688-.727,3.206,3.206,0,0,1,.98-.441,4.349,4.349,0,0,1,1.137-.148,4.59,4.59,0,0,1,1.859.359v1.3a3.624,3.624,0,0,0-2.031-.578,2.374,2.374,0,0,0-.648.082,1.587,1.587,0,0,0-.5.23,1.065,1.065,0,0,0-.32.355.936.936,0,0,0-.113.457,1.1,1.1,0,0,0,.113.523,1.152,1.152,0,0,0,.332.375,2.538,2.538,0,0,0,.531.3q.312.133.711.289a9.894,9.894,0,0,1,.953.418,3.269,3.269,0,0,1,.719.484,1.893,1.893,0,0,1,.457.621,2,2,0,0,1,.16.836,1.971,1.971,0,0,1-.262,1.031,2.243,2.243,0,0,1-.7.727,3.2,3.2,0,0,1-1.008.43,4.976,4.976,0,0,1-1.2.141A4.539,4.539,0,0,1,228.609,16.711ZM8.125,38H6.844V36.641H6.813a2.958,2.958,0,0,1-2.75,1.547,2.988,2.988,0,0,1-2.41-1.074,4.407,4.407,0,0,1-.9-2.926,4.794,4.794,0,0,1,1-3.18,3.3,3.3,0,0,1,2.664-1.2,2.564,2.564,0,0,1,2.4,1.3h.031V26.156H8.125ZM6.844,34.383V33.2A2.289,2.289,0,0,0,6.2,31.563a2.149,2.149,0,0,0-1.625-.672,2.212,2.212,0,0,0-1.844.859,3.766,3.766,0,0,0-.672,2.375,3.387,3.387,0,0,0,.645,2.184,2.107,2.107,0,0,0,1.73.8,2.188,2.188,0,0,0,1.738-.773A2.882,2.882,0,0,0,6.844,34.383Zm10.3-.062H11.5a2.992,2.992,0,0,0,.719,2.063,2.478,2.478,0,0,0,1.891.727,3.931,3.931,0,0,0,2.484-.891v1.2a4.643,4.643,0,0,1-2.789.766,3.381,3.381,0,0,1-2.664-1.09,4.461,4.461,0,0,1-.969-3.066,4.375,4.375,0,0,1,1.059-3.043,3.394,3.394,0,0,1,2.629-1.176,3.008,3.008,0,0,1,2.43,1.016,4.234,4.234,0,0,1,.859,2.82Zm-1.312-1.086a2.607,2.607,0,0,0-.535-1.727,1.823,1.823,0,0,0-1.465-.617,2.07,2.07,0,0,0-1.539.648,2.943,2.943,0,0,0-.781,1.7Zm11.586-5.953a1.707,1.707,0,0,0-.852-.211q-1.344,0-1.344,1.7V30H27.1v1.094H25.227V38H23.953V31.094H22.586V30h1.367V28.7a2.7,2.7,0,0,1,.727-1.988,2.453,2.453,0,0,1,1.813-.73,2.511,2.511,0,0,1,.93.141Zm7.484,7.039H29.258a2.992,2.992,0,0,0,.719,2.063,2.478,2.478,0,0,0,1.891.727,3.931,3.931,0,0,0,2.484-.891v1.2a4.643,4.643,0,0,1-2.789.766A3.381,3.381,0,0,1,28.9,37.1a4.461,4.461,0,0,1-.969-3.066,4.375,4.375,0,0,1,1.059-3.043,3.394,3.394,0,0,1,2.629-1.176,3.008,3.008,0,0,1,2.43,1.016,4.234,4.234,0,0,1,.859,2.82Zm-1.312-1.086a2.607,2.607,0,0,0-.535-1.727,1.823,1.823,0,0,0-1.465-.617,2.07,2.07,0,0,0-1.539.648,2.943,2.943,0,0,0-.781,1.7ZM41.016,31.3a1.567,1.567,0,0,0-.969-.258,1.635,1.635,0,0,0-1.371.773,3.576,3.576,0,0,0-.551,2.109V38H36.844V30h1.281v1.648h.031a2.793,2.793,0,0,1,.836-1.316,1.906,1.906,0,0,1,1.258-.473,2.092,2.092,0,0,1,.766.109Zm5.563,0a1.567,1.567,0,0,0-.969-.258,1.635,1.635,0,0,0-1.371.773,3.576,3.576,0,0,0-.551,2.109V38H42.406V30h1.281v1.648h.031a2.793,2.793,0,0,1,.836-1.316,1.906,1.906,0,0,1,1.258-.473,2.092,2.092,0,0,1,.766.109Zm4.734,6.891a3.711,3.711,0,0,1-2.832-1.121,4.153,4.153,0,0,1-1.059-2.973,4.326,4.326,0,0,1,1.1-3.148A3.96,3.96,0,0,1,51.5,29.813a3.588,3.588,0,0,1,2.793,1.1,4.368,4.368,0,0,1,1,3.055,4.3,4.3,0,0,1-1.082,3.066A3.791,3.791,0,0,1,51.313,38.188Zm.094-7.3a2.437,2.437,0,0,0-1.953.84,3.449,3.449,0,0,0-.719,2.316,3.262,3.262,0,0,0,.727,2.242,2.469,2.469,0,0,0,1.945.82,2.342,2.342,0,0,0,1.91-.8,3.492,3.492,0,0,0,.668-2.289,3.552,3.552,0,0,0-.668-2.312A2.332,2.332,0,0,0,51.406,30.891ZM62.8,37.633a4.163,4.163,0,0,1-2.187.555,3.622,3.622,0,0,1-2.762-1.113A4.035,4.035,0,0,1,56.8,34.188a4.435,4.435,0,0,1,1.133-3.176,3.963,3.963,0,0,1,3.023-1.2,4.209,4.209,0,0,1,1.859.391v1.313a3.258,3.258,0,0,0-1.906-.625,2.576,2.576,0,0,0-2.012.879,3.335,3.335,0,0,0-.785,2.309,3.176,3.176,0,0,0,.738,2.219,2.545,2.545,0,0,0,1.98.813,3.211,3.211,0,0,0,1.969-.7ZM70.461,38H69.18V36.75h-.031a2.682,2.682,0,0,1-2.461,1.438,2.63,2.63,0,0,1-1.871-.633,2.192,2.192,0,0,1-.676-1.68q0-2.242,2.641-2.609l2.4-.336q0-2.039-1.648-2.039a3.938,3.938,0,0,0-2.609.984V30.563a4.958,4.958,0,0,1,2.719-.75q2.82,0,2.82,2.984ZM69.18,33.953l-1.93.266a3.133,3.133,0,0,0-1.344.441,1.273,1.273,0,0,0-.453,1.121,1.221,1.221,0,0,0,.418.957,1.615,1.615,0,0,0,1.113.371,2.056,2.056,0,0,0,1.574-.668,2.387,2.387,0,0,0,.621-1.691ZM77.047,31.3a1.567,1.567,0,0,0-.969-.258,1.635,1.635,0,0,0-1.371.773,3.576,3.576,0,0,0-.551,2.109V38H72.875V30h1.281v1.648h.031a2.793,2.793,0,0,1,.836-1.316,1.906,1.906,0,0,1,1.258-.473,2.092,2.092,0,0,1,.766.109Zm5.563,0a1.567,1.567,0,0,0-.969-.258,1.635,1.635,0,0,0-1.371.773,3.576,3.576,0,0,0-.551,2.109V38H78.438V30h1.281v1.648h.031a2.793,2.793,0,0,1,.836-1.316,1.906,1.906,0,0,1,1.258-.473,2.092,2.092,0,0,1,.766.109Zm2.047-3.328a.812.812,0,0,1-.586-.234.791.791,0,0,1-.242-.594.821.821,0,0,1,.828-.836.827.827,0,0,1,.6.238.835.835,0,0,1,0,1.184A.82.82,0,0,1,84.656,27.969ZM85.281,38H84V30h1.281Zm3.875,0H87.875V26.156h1.281ZM102.5,30l-3.68,9.281q-.984,2.484-2.766,2.484a2.932,2.932,0,0,1-.836-.1V40.516a2.375,2.375,0,0,0,.758.141A1.57,1.57,0,0,0,97.43,39.5l.641-1.516L94.945,30h1.422l2.164,6.156q.039.117.164.609h.047q.039-.187.156-.594L101.172,30Zm12.031,4.578a3.771,3.771,0,0,1-.281,1.484,3.245,3.245,0,0,1-.8,1.141,3.586,3.586,0,0,1-1.254.734,4.9,4.9,0,0,1-1.633.258,4.511,4.511,0,0,1-2.32-.469V36.367a4.266,4.266,0,0,0,2.336.734,3.161,3.161,0,0,0,1.1-.18,2.439,2.439,0,0,0,.832-.5,2.141,2.141,0,0,0,.527-.773,2.618,2.618,0,0,0,.184-.992,2.125,2.125,0,0,0-.734-1.715,3.221,3.221,0,0,0-2.133-.621q-.227,0-.477.008t-.5.02q-.25.012-.488.027t-.434.039l.383-5.617h5.18v1.156h-4.07l-.227,3.289q.25-.016.531-.027t.5-.012a5.028,5.028,0,0,1,1.594.234,3.377,3.377,0,0,1,1.191.668,2.8,2.8,0,0,1,.742,1.063A3.737,3.737,0,0,1,114.531,34.578Zm9.023-2.227a11.005,11.005,0,0,1-.254,2.492,5.807,5.807,0,0,1-.734,1.832,3.305,3.305,0,0,1-1.18,1.133,3.23,3.23,0,0,1-1.59.387,3.016,3.016,0,0,1-1.5-.371,3.152,3.152,0,0,1-1.113-1.082A5.484,5.484,0,0,1,116.492,35a10.8,10.8,0,0,1-.234-2.371,12.222,12.222,0,0,1,.246-2.594,5.933,5.933,0,0,1,.723-1.887A3.217,3.217,0,0,1,118.41,27a3.323,3.323,0,0,1,1.621-.387Q123.555,26.609,123.555,32.352Zm-1.312.125q0-4.781-2.273-4.781-2.4,0-2.4,4.867,0,4.539,2.352,4.539Q122.242,37.1,122.242,32.477Zm9.938-.125a11.006,11.006,0,0,1-.254,2.492,5.807,5.807,0,0,1-.734,1.832,3.305,3.305,0,0,1-1.18,1.133,3.23,3.23,0,0,1-1.59.387,3.016,3.016,0,0,1-1.5-.371,3.152,3.152,0,0,1-1.113-1.082A5.484,5.484,0,0,1,125.117,35a10.8,10.8,0,0,1-.234-2.371,12.222,12.222,0,0,1,.246-2.594,5.933,5.933,0,0,1,.723-1.887A3.217,3.217,0,0,1,127.035,27a3.323,3.323,0,0,1,1.621-.387Q132.18,26.609,132.18,32.352Zm-1.312.125q0-4.781-2.273-4.781-2.4,0-2.4,4.867,0,4.539,2.352,4.539Q130.867,37.1,130.867,32.477ZM149.875,38h-1.281V33.406a3.466,3.466,0,0,0-.41-1.922,1.555,1.555,0,0,0-1.379-.594,1.708,1.708,0,0,0-1.395.75,2.869,2.869,0,0,0-.574,1.8V38h-1.281V33.25q0-2.359-1.82-2.359a1.686,1.686,0,0,0-1.391.707,2.923,2.923,0,0,0-.547,1.84V38h-1.281V30H139.8v1.266h.031a2.718,2.718,0,0,1,2.484-1.453,2.311,2.311,0,0,1,2.266,1.656,2.855,2.855,0,0,1,2.656-1.656q2.641,0,2.641,3.258Zm8.852-3.68h-5.648a2.992,2.992,0,0,0,.719,2.063,2.478,2.478,0,0,0,1.891.727,3.931,3.931,0,0,0,2.484-.891v1.2a4.643,4.643,0,0,1-2.789.766,3.381,3.381,0,0,1-2.664-1.09,4.461,4.461,0,0,1-.969-3.066,4.374,4.374,0,0,1,1.059-3.043,3.394,3.394,0,0,1,2.629-1.176,3.008,3.008,0,0,1,2.43,1.016,4.234,4.234,0,0,1,.859,2.82Zm-1.312-1.086a2.607,2.607,0,0,0-.535-1.727,1.823,1.823,0,0,0-1.465-.617,2.07,2.07,0,0,0-1.539.648,2.943,2.943,0,0,0-.781,1.7Zm6.961,4.688a2.47,2.47,0,0,1-1.2.25q-2.1,0-2.1-2.344V31.094H159.7V30h1.375V28.047l1.281-.414V30h2.016v1.094h-2.016V35.6a1.869,1.869,0,0,0,.273,1.148,1.091,1.091,0,0,0,.906.344,1.347,1.347,0,0,0,.836-.266Zm5.883-6.625a1.567,1.567,0,0,0-.969-.258,1.635,1.635,0,0,0-1.371.773,3.576,3.576,0,0,0-.551,2.109V38h-1.281V30h1.281v1.648h.031a2.794,2.794,0,0,1,.836-1.316,1.906,1.906,0,0,1,1.258-.473,2.092,2.092,0,0,1,.766.109Zm4.734,6.891a3.711,3.711,0,0,1-2.832-1.121,4.153,4.153,0,0,1-1.059-2.973,4.326,4.326,0,0,1,1.1-3.148,3.96,3.96,0,0,1,2.977-1.133,3.588,3.588,0,0,1,2.793,1.1,4.368,4.368,0,0,1,1,3.055,4.3,4.3,0,0,1-1.082,3.066A3.791,3.791,0,0,1,174.992,38.188Zm.094-7.3a2.437,2.437,0,0,0-1.953.84,3.449,3.449,0,0,0-.719,2.316,3.262,3.262,0,0,0,.727,2.242,2.469,2.469,0,0,0,1.945.82,2.342,2.342,0,0,0,1.91-.8,3.492,3.492,0,0,0,.668-2.289A3.552,3.552,0,0,0,177,31.7,2.332,2.332,0,0,0,175.086,30.891Zm5.453,6.82V36.336a3.792,3.792,0,0,0,2.3.773q1.688,0,1.688-1.125a.976.976,0,0,0-.145-.543,1.44,1.44,0,0,0-.391-.395,3.007,3.007,0,0,0-.578-.309q-.332-.137-.715-.285a9.206,9.206,0,0,1-.934-.426,2.82,2.82,0,0,1-.672-.484,1.8,1.8,0,0,1-.406-.613,2.17,2.17,0,0,1-.137-.8,1.912,1.912,0,0,1,.258-1,2.286,2.286,0,0,1,.688-.727,3.206,3.206,0,0,1,.98-.441,4.349,4.349,0,0,1,1.137-.148,4.59,4.59,0,0,1,1.859.359v1.3a3.624,3.624,0,0,0-2.031-.578,2.374,2.374,0,0,0-.648.082,1.587,1.587,0,0,0-.5.23,1.065,1.065,0,0,0-.32.355.936.936,0,0,0-.113.457,1.1,1.1,0,0,0,.113.523,1.152,1.152,0,0,0,.332.375,2.538,2.538,0,0,0,.531.3q.312.133.711.289a9.894,9.894,0,0,1,.953.418,3.269,3.269,0,0,1,.719.484,1.893,1.893,0,0,1,.457.621,2,2,0,0,1,.16.836,1.971,1.971,0,0,1-.262,1.031,2.243,2.243,0,0,1-.7.727,3.2,3.2,0,0,1-1.008.43,4.976,4.976,0,0,1-1.2.141A4.539,4.539,0,0,1,180.539,37.711ZM199.023,38h-1.281V36.641h-.031a2.958,2.958,0,0,1-2.75,1.547,2.988,2.988,0,0,1-2.41-1.074,4.407,4.407,0,0,1-.9-2.926,4.794,4.794,0,0,1,1-3.18,3.3,3.3,0,0,1,2.664-1.2,2.564,2.564,0,0,1,2.4,1.3h.031V26.156h1.281Zm-1.281-3.617V33.2a2.289,2.289,0,0,0-.641-1.641,2.149,2.149,0,0,0-1.625-.672,2.212,2.212,0,0,0-1.844.859,3.766,3.766,0,0,0-.672,2.375,3.387,3.387,0,0,0,.645,2.184,2.107,2.107,0,0,0,1.73.8,2.188,2.188,0,0,0,1.738-.773A2.882,2.882,0,0,0,197.742,34.383Zm10.3-.062H202.4a2.992,2.992,0,0,0,.719,2.063,2.478,2.478,0,0,0,1.891.727,3.931,3.931,0,0,0,2.484-.891v1.2a4.643,4.643,0,0,1-2.789.766,3.381,3.381,0,0,1-2.664-1.09,4.461,4.461,0,0,1-.969-3.066,4.374,4.374,0,0,1,1.059-3.043,3.394,3.394,0,0,1,2.629-1.176,3.008,3.008,0,0,1,2.43,1.016,4.234,4.234,0,0,1,.859,2.82Zm-1.312-1.086a2.607,2.607,0,0,0-.535-1.727,1.823,1.823,0,0,0-1.465-.617,2.07,2.07,0,0,0-1.539.648,2.943,2.943,0,0,0-.781,1.7ZM8.125,59H6.844V57.641H6.813a2.958,2.958,0,0,1-2.75,1.547,2.988,2.988,0,0,1-2.41-1.074,4.407,4.407,0,0,1-.9-2.926,4.794,4.794,0,0,1,1-3.18,3.3,3.3,0,0,1,2.664-1.2,2.564,2.564,0,0,1,2.4,1.3h.031V47.156H8.125ZM6.844,55.383V54.2A2.289,2.289,0,0,0,6.2,52.563a2.149,2.149,0,0,0-1.625-.672,2.212,2.212,0,0,0-1.844.859,3.766,3.766,0,0,0-.672,2.375,3.387,3.387,0,0,0,.645,2.184,2.107,2.107,0,0,0,1.73.8,2.188,2.188,0,0,0,1.738-.773A2.882,2.882,0,0,0,6.844,55.383Zm4.531-6.414a.812.812,0,0,1-.586-.234.791.791,0,0,1-.242-.594.821.821,0,0,1,.828-.836.827.827,0,0,1,.6.238.835.835,0,0,1,0,1.184A.82.82,0,0,1,11.375,48.969ZM12,59H10.719V51H12Zm2.109-.289V57.336a3.792,3.792,0,0,0,2.3.773q1.688,0,1.688-1.125a.976.976,0,0,0-.145-.543,1.44,1.44,0,0,0-.391-.395,3.007,3.007,0,0,0-.578-.309q-.332-.137-.715-.285a9.206,9.206,0,0,1-.934-.426,2.82,2.82,0,0,1-.672-.484,1.8,1.8,0,0,1-.406-.613,2.17,2.17,0,0,1-.137-.8,1.912,1.912,0,0,1,.258-1,2.286,2.286,0,0,1,.688-.727,3.206,3.206,0,0,1,.98-.441,4.349,4.349,0,0,1,1.137-.148,4.59,4.59,0,0,1,1.859.359v1.3a3.624,3.624,0,0,0-2.031-.578,2.374,2.374,0,0,0-.648.082,1.587,1.587,0,0,0-.5.23,1.065,1.065,0,0,0-.32.355.936.936,0,0,0-.113.457,1.1,1.1,0,0,0,.113.523,1.152,1.152,0,0,0,.332.375,2.538,2.538,0,0,0,.531.3q.313.133.711.289a9.9,9.9,0,0,1,.953.418,3.269,3.269,0,0,1,.719.484,1.893,1.893,0,0,1,.457.621,2,2,0,0,1,.16.836,1.971,1.971,0,0,1-.262,1.031,2.243,2.243,0,0,1-.7.727,3.2,3.2,0,0,1-1.008.43,4.976,4.976,0,0,1-1.2.141A4.539,4.539,0,0,1,14.109,58.711Zm10.984.211a2.47,2.47,0,0,1-1.2.25q-2.1,0-2.1-2.344V52.094H20.422V51H21.8V49.047l1.281-.414V51h2.016v1.094H23.078V56.6a1.869,1.869,0,0,0,.273,1.148,1.091,1.091,0,0,0,.906.344,1.347,1.347,0,0,0,.836-.266ZM32.531,59H31.25V57.75h-.031a2.682,2.682,0,0,1-2.461,1.438,2.63,2.63,0,0,1-1.871-.633,2.192,2.192,0,0,1-.676-1.68q0-2.242,2.641-2.609l2.4-.336q0-2.039-1.648-2.039a3.938,3.938,0,0,0-2.609.984V51.563a4.958,4.958,0,0,1,2.719-.75q2.82,0,2.82,2.984ZM31.25,54.953l-1.93.266a3.133,3.133,0,0,0-1.344.441,1.273,1.273,0,0,0-.453,1.121,1.221,1.221,0,0,0,.418.957,1.615,1.615,0,0,0,1.113.371,2.056,2.056,0,0,0,1.574-.668,2.387,2.387,0,0,0,.621-1.691ZM41.586,59H40.3V54.438q0-2.547-1.859-2.547a2.017,2.017,0,0,0-1.59.723,2.679,2.679,0,0,0-.629,1.824V59H34.945V51h1.281v1.328h.031a2.887,2.887,0,0,1,2.625-1.516,2.448,2.448,0,0,1,2.008.848,3.776,3.776,0,0,1,.7,2.449Zm7.867-.367a4.163,4.163,0,0,1-2.187.555A3.622,3.622,0,0,1,44.5,58.074a4.035,4.035,0,0,1-1.051-2.887,4.435,4.435,0,0,1,1.133-3.176,3.963,3.963,0,0,1,3.023-1.2,4.209,4.209,0,0,1,1.859.391v1.313a3.258,3.258,0,0,0-1.906-.625,2.576,2.576,0,0,0-2.012.879,3.335,3.335,0,0,0-.785,2.309A3.176,3.176,0,0,0,45.5,57.3a2.545,2.545,0,0,0,1.98.813,3.211,3.211,0,0,0,1.969-.7Zm2.594-9.664a.812.812,0,0,1-.586-.234.791.791,0,0,1-.242-.594.821.821,0,0,1,.828-.836.827.827,0,0,1,.6.238.835.835,0,0,1,0,1.184A.82.82,0,0,1,52.047,48.969ZM52.672,59H51.391V51h1.281Zm8.32,0H59.711V57.75H59.68a2.682,2.682,0,0,1-2.461,1.438,2.63,2.63,0,0,1-1.871-.633,2.192,2.192,0,0,1-.676-1.68q0-2.242,2.641-2.609l2.4-.336q0-2.039-1.648-2.039a3.938,3.938,0,0,0-2.609.984V51.563a4.958,4.958,0,0,1,2.719-.75q2.82,0,2.82,2.984Zm-1.281-4.047-1.93.266a3.133,3.133,0,0,0-1.344.441,1.273,1.273,0,0,0-.453,1.121,1.221,1.221,0,0,0,.418.957,1.615,1.615,0,0,0,1.113.371,2.056,2.056,0,0,0,1.574-.668,2.387,2.387,0,0,0,.621-1.691ZM74.617,59H73.336V57.641H73.3a2.958,2.958,0,0,1-2.75,1.547,2.988,2.988,0,0,1-2.41-1.074,4.407,4.407,0,0,1-.9-2.926,4.794,4.794,0,0,1,1-3.18,3.3,3.3,0,0,1,2.664-1.2,2.564,2.564,0,0,1,2.4,1.3h.031V47.156h1.281Zm-1.281-3.617V54.2a2.289,2.289,0,0,0-.641-1.641,2.149,2.149,0,0,0-1.625-.672,2.212,2.212,0,0,0-1.844.859,3.766,3.766,0,0,0-.672,2.375,3.387,3.387,0,0,0,.645,2.184,2.107,2.107,0,0,0,1.73.8,2.188,2.188,0,0,0,1.738-.773A2.882,2.882,0,0,0,73.336,55.383Zm10.3-.062H77.992a2.992,2.992,0,0,0,.719,2.063,2.478,2.478,0,0,0,1.891.727,3.931,3.931,0,0,0,2.484-.891v1.2a4.643,4.643,0,0,1-2.789.766,3.381,3.381,0,0,1-2.664-1.09,4.461,4.461,0,0,1-.969-3.066,4.375,4.375,0,0,1,1.059-3.043,3.394,3.394,0,0,1,2.629-1.176,3.008,3.008,0,0,1,2.43,1.016,4.234,4.234,0,0,1,.859,2.82Zm-1.312-1.086a2.607,2.607,0,0,0-.535-1.727,1.823,1.823,0,0,0-1.465-.617,2.07,2.07,0,0,0-1.539.648,2.943,2.943,0,0,0-.781,1.7ZM101.32,59h-1.281V54.406a3.466,3.466,0,0,0-.41-1.922,1.555,1.555,0,0,0-1.379-.594,1.708,1.708,0,0,0-1.395.75,2.869,2.869,0,0,0-.574,1.8V59H95V54.25q0-2.359-1.82-2.359a1.686,1.686,0,0,0-1.391.707,2.923,2.923,0,0,0-.547,1.84V59H89.961V51h1.281v1.266h.031a2.718,2.718,0,0,1,2.484-1.453,2.311,2.311,0,0,1,2.266,1.656,2.855,2.855,0,0,1,2.656-1.656q2.641,0,2.641,3.258Zm5.766.188a3.711,3.711,0,0,1-2.832-1.121,4.153,4.153,0,0,1-1.059-2.973,4.326,4.326,0,0,1,1.1-3.148,3.96,3.96,0,0,1,2.977-1.133,3.588,3.588,0,0,1,2.793,1.1,4.368,4.368,0,0,1,1,3.055,4.3,4.3,0,0,1-1.082,3.066A3.791,3.791,0,0,1,107.086,59.188Zm.094-7.3a2.437,2.437,0,0,0-1.953.84,3.449,3.449,0,0,0-.719,2.316,3.262,3.262,0,0,0,.727,2.242,2.469,2.469,0,0,0,1.945.82,2.342,2.342,0,0,0,1.91-.8,3.492,3.492,0,0,0,.668-2.289,3.552,3.552,0,0,0-.668-2.312A2.332,2.332,0,0,0,107.18,51.891ZM119.758,59h-1.281V54.438q0-2.547-1.859-2.547a2.017,2.017,0,0,0-1.59.723,2.679,2.679,0,0,0-.629,1.824V59h-1.281V51H114.4v1.328h.031a2.887,2.887,0,0,1,2.625-1.516,2.448,2.448,0,0,1,2.008.848,3.776,3.776,0,0,1,.7,2.449Zm8.883,0h-1.281V57.734h-.031a2.631,2.631,0,0,1-2.469,1.453q-2.859,0-2.859-3.406V51h1.273v4.578q0,2.531,1.938,2.531a1.96,1.96,0,0,0,1.543-.691,2.645,2.645,0,0,0,.605-1.809V51h1.281Zm13.945,0H141.3V54.406a3.466,3.466,0,0,0-.41-1.922,1.555,1.555,0,0,0-1.379-.594,1.708,1.708,0,0,0-1.395.75,2.869,2.869,0,0,0-.574,1.8V59h-1.281V54.25q0-2.359-1.82-2.359a1.686,1.686,0,0,0-1.391.707,2.923,2.923,0,0,0-.547,1.84V59h-1.281V51h1.281v1.266h.031a2.718,2.718,0,0,1,2.484-1.453,2.311,2.311,0,0,1,2.266,1.656,2.855,2.855,0,0,1,2.656-1.656q2.641,0,2.641,3.258Zm8.852-3.68h-5.648a2.992,2.992,0,0,0,.719,2.063,2.478,2.478,0,0,0,1.891.727,3.931,3.931,0,0,0,2.484-.891v1.2a4.643,4.643,0,0,1-2.789.766,3.381,3.381,0,0,1-2.664-1.09,4.461,4.461,0,0,1-.969-3.066,4.374,4.374,0,0,1,1.059-3.043,3.394,3.394,0,0,1,2.629-1.176,3.008,3.008,0,0,1,2.43,1.016,4.234,4.234,0,0,1,.859,2.82Zm-1.312-1.086a2.607,2.607,0,0,0-.535-1.727,1.823,1.823,0,0,0-1.465-.617,2.07,2.07,0,0,0-1.539.648,2.943,2.943,0,0,0-.781,1.7ZM160.016,59h-1.281V54.438q0-2.547-1.859-2.547a2.017,2.017,0,0,0-1.59.723,2.679,2.679,0,0,0-.629,1.824V59h-1.281V51h1.281v1.328h.031a2.887,2.887,0,0,1,2.625-1.516,2.448,2.448,0,0,1,2.008.848,3.776,3.776,0,0,1,.7,2.449Zm6.125-.078a2.47,2.47,0,0,1-1.2.25q-2.1,0-2.1-2.344V52.094h-1.375V51h1.375V49.047l1.281-.414V51h2.016v1.094h-2.016V56.6a1.869,1.869,0,0,0,.273,1.148,1.091,1.091,0,0,0,.906.344,1.347,1.347,0,0,0,.836-.266Zm5.055.266a3.711,3.711,0,0,1-2.832-1.121,4.153,4.153,0,0,1-1.059-2.973,4.326,4.326,0,0,1,1.1-3.148,3.96,3.96,0,0,1,2.977-1.133,3.588,3.588,0,0,1,2.793,1.1,4.368,4.368,0,0,1,1,3.055,4.3,4.3,0,0,1-1.082,3.066A3.791,3.791,0,0,1,171.2,59.188Zm.094-7.3a2.437,2.437,0,0,0-1.953.84,3.449,3.449,0,0,0-.719,2.316,3.262,3.262,0,0,0,.727,2.242,2.469,2.469,0,0,0,1.945.82,2.342,2.342,0,0,0,1.91-.8,3.492,3.492,0,0,0,.668-2.289A3.552,3.552,0,0,0,173.2,52.7,2.332,2.332,0,0,0,171.289,51.891Zm5.453,6.82V57.336a3.792,3.792,0,0,0,2.3.773q1.688,0,1.688-1.125a.976.976,0,0,0-.145-.543,1.44,1.44,0,0,0-.391-.395,3.007,3.007,0,0,0-.578-.309q-.332-.137-.715-.285a9.206,9.206,0,0,1-.934-.426,2.82,2.82,0,0,1-.672-.484,1.8,1.8,0,0,1-.406-.613,2.17,2.17,0,0,1-.137-.8,1.912,1.912,0,0,1,.258-1,2.286,2.286,0,0,1,.688-.727,3.206,3.206,0,0,1,.98-.441,4.349,4.349,0,0,1,1.137-.148,4.59,4.59,0,0,1,1.859.359v1.3a3.624,3.624,0,0,0-2.031-.578,2.374,2.374,0,0,0-.648.082,1.587,1.587,0,0,0-.5.23,1.065,1.065,0,0,0-.32.355.936.936,0,0,0-.113.457,1.1,1.1,0,0,0,.113.523,1.152,1.152,0,0,0,.332.375,2.538,2.538,0,0,0,.531.3q.312.133.711.289a9.894,9.894,0,0,1,.953.418,3.269,3.269,0,0,1,.719.484,1.893,1.893,0,0,1,.457.621,2,2,0,0,1,.16.836,1.971,1.971,0,0,1-.262,1.031,2.243,2.243,0,0,1-.7.727,3.2,3.2,0,0,1-1.008.43,4.976,4.976,0,0,1-1.2.141A4.539,4.539,0,0,1,176.742,58.711Zm15,.477a3.711,3.711,0,0,1-2.832-1.121,4.153,4.153,0,0,1-1.059-2.973,4.326,4.326,0,0,1,1.1-3.148,3.96,3.96,0,0,1,2.977-1.133,3.588,3.588,0,0,1,2.793,1.1,4.368,4.368,0,0,1,1,3.055,4.3,4.3,0,0,1-1.082,3.066A3.791,3.791,0,0,1,191.742,59.188Zm.094-7.3a2.437,2.437,0,0,0-1.953.84,3.449,3.449,0,0,0-.719,2.316,3.262,3.262,0,0,0,.727,2.242,2.469,2.469,0,0,0,1.945.82,2.342,2.342,0,0,0,1.91-.8,3.492,3.492,0,0,0,.668-2.289,3.552,3.552,0,0,0-.668-2.312A2.332,2.332,0,0,0,191.836,51.891ZM6.75,79.633a4.163,4.163,0,0,1-2.187.555A3.622,3.622,0,0,1,1.8,79.074,4.035,4.035,0,0,1,.75,76.188a4.435,4.435,0,0,1,1.133-3.176,3.963,3.963,0,0,1,3.023-1.2,4.209,4.209,0,0,1,1.859.391v1.313a3.258,3.258,0,0,0-1.906-.625,2.576,2.576,0,0,0-2.012.879,3.335,3.335,0,0,0-.785,2.309A3.176,3.176,0,0,0,2.8,78.3a2.545,2.545,0,0,0,1.98.813,3.211,3.211,0,0,0,1.969-.7Zm5.281.555A3.711,3.711,0,0,1,9.2,79.066a4.153,4.153,0,0,1-1.059-2.973,4.326,4.326,0,0,1,1.1-3.148,3.96,3.96,0,0,1,2.977-1.133,3.588,3.588,0,0,1,2.793,1.1,4.368,4.368,0,0,1,1,3.055,4.3,4.3,0,0,1-1.082,3.066A3.791,3.791,0,0,1,12.031,80.188Zm.094-7.3a2.437,2.437,0,0,0-1.953.84,3.449,3.449,0,0,0-.719,2.316,3.262,3.262,0,0,0,.727,2.242,2.469,2.469,0,0,0,1.945.82,2.342,2.342,0,0,0,1.91-.8,3.492,3.492,0,0,0,.668-2.289,3.552,3.552,0,0,0-.668-2.312A2.332,2.332,0,0,0,12.125,72.891ZM24.7,80H23.422V75.438q0-2.547-1.859-2.547a2.017,2.017,0,0,0-1.59.723,2.679,2.679,0,0,0-.629,1.824V80H18.063V72h1.281v1.328h.031A2.887,2.887,0,0,1,22,71.813a2.448,2.448,0,0,1,2.008.848,3.776,3.776,0,0,1,.7,2.449Zm3.7-.336a5.014,5.014,0,0,1-.793,3.035,2.658,2.658,0,0,1-2.27,1.066,2.409,2.409,0,0,1-1.062-.25v-1.2a2.12,2.12,0,0,0,1.094.352q1.75,0,1.75-2.8V72H28.4Zm-.625-9.7a.812.812,0,0,1-.586-.234.791.791,0,0,1-.242-.594.821.821,0,0,1,.828-.836.827.827,0,0,1,.6.238.835.835,0,0,1,0,1.184A.82.82,0,0,1,27.773,69.969ZM37.461,80H36.18V78.734h-.031a2.631,2.631,0,0,1-2.469,1.453q-2.859,0-2.859-3.406V72h1.273v4.578q0,2.531,1.938,2.531a1.96,1.96,0,0,0,1.543-.691,2.645,2.645,0,0,0,.605-1.809V72h1.281Zm9.227,0H45.406V75.438q0-2.547-1.859-2.547a2.017,2.017,0,0,0-1.59.723,2.679,2.679,0,0,0-.629,1.824V80H40.047V72h1.281v1.328h.031a2.887,2.887,0,0,1,2.625-1.516,2.448,2.448,0,0,1,2.008.848,3.776,3.776,0,0,1,.7,2.449Zm6.125-.078a2.47,2.47,0,0,1-1.2.25q-2.1,0-2.1-2.344V73.094H48.141V72h1.375V70.047l1.281-.414V72h2.016v1.094H50.8V77.6a1.869,1.869,0,0,0,.273,1.148,1.091,1.091,0,0,0,.906.344,1.347,1.347,0,0,0,.836-.266Zm5.055.266a3.711,3.711,0,0,1-2.832-1.121,4.153,4.153,0,0,1-1.059-2.973,4.326,4.326,0,0,1,1.1-3.148,3.96,3.96,0,0,1,2.977-1.133,3.588,3.588,0,0,1,2.793,1.1,4.368,4.368,0,0,1,1,3.055,4.3,4.3,0,0,1-1.082,3.066A3.791,3.791,0,0,1,57.867,80.188Zm.094-7.3a2.437,2.437,0,0,0-1.953.84,3.449,3.449,0,0,0-.719,2.316,3.262,3.262,0,0,0,.727,2.242,2.469,2.469,0,0,0,1.945.82,2.342,2.342,0,0,0,1.91-.8,3.492,3.492,0,0,0,.668-2.289,3.552,3.552,0,0,0-.668-2.312A2.332,2.332,0,0,0,57.961,72.891Zm5.453,6.82V78.336a3.792,3.792,0,0,0,2.3.773q1.688,0,1.688-1.125a.976.976,0,0,0-.145-.543,1.44,1.44,0,0,0-.391-.395,3.007,3.007,0,0,0-.578-.309q-.332-.137-.715-.285a9.207,9.207,0,0,1-.934-.426,2.82,2.82,0,0,1-.672-.484,1.8,1.8,0,0,1-.406-.613,2.17,2.17,0,0,1-.137-.8,1.912,1.912,0,0,1,.258-1,2.286,2.286,0,0,1,.688-.727,3.206,3.206,0,0,1,.98-.441,4.349,4.349,0,0,1,1.137-.148,4.59,4.59,0,0,1,1.859.359v1.3a3.624,3.624,0,0,0-2.031-.578,2.374,2.374,0,0,0-.648.082,1.587,1.587,0,0,0-.5.23,1.065,1.065,0,0,0-.32.355.936.936,0,0,0-.113.457,1.1,1.1,0,0,0,.113.523,1.152,1.152,0,0,0,.332.375,2.538,2.538,0,0,0,.531.3q.313.133.711.289a9.9,9.9,0,0,1,.953.418,3.269,3.269,0,0,1,.719.484,1.893,1.893,0,0,1,.457.621,2,2,0,0,1,.16.836,1.971,1.971,0,0,1-.262,1.031,2.243,2.243,0,0,1-.7.727,3.2,3.2,0,0,1-1.008.43,4.976,4.976,0,0,1-1.2.141A4.539,4.539,0,0,1,63.414,79.711Zm18.3.289H80.43V75.391q0-2.5-1.859-2.5a2.027,2.027,0,0,0-1.578.723,2.693,2.693,0,0,0-.641,1.855V80H75.07V68.156h1.281v5.172h.031a2.91,2.91,0,0,1,2.625-1.516q2.7,0,2.7,3.258Zm3.07-10.031a.812.812,0,0,1-.586-.234.791.791,0,0,1-.242-.594.821.821,0,0,1,.828-.836.827.827,0,0,1,.6.238.835.835,0,0,1,0,1.184A.82.82,0,0,1,84.781,69.969ZM85.406,80H84.125V72h1.281Zm2.109-.289V78.336a3.792,3.792,0,0,0,2.3.773q1.688,0,1.688-1.125a.976.976,0,0,0-.145-.543,1.44,1.44,0,0,0-.391-.395,3.007,3.007,0,0,0-.578-.309q-.332-.137-.715-.285a9.207,9.207,0,0,1-.934-.426,2.82,2.82,0,0,1-.672-.484,1.8,1.8,0,0,1-.406-.613,2.17,2.17,0,0,1-.137-.8,1.912,1.912,0,0,1,.258-1,2.286,2.286,0,0,1,.688-.727,3.206,3.206,0,0,1,.98-.441,4.349,4.349,0,0,1,1.137-.148,4.59,4.59,0,0,1,1.859.359v1.3a3.624,3.624,0,0,0-2.031-.578,2.374,2.374,0,0,0-.648.082,1.587,1.587,0,0,0-.5.23,1.065,1.065,0,0,0-.32.355.936.936,0,0,0-.113.457,1.1,1.1,0,0,0,.113.523,1.152,1.152,0,0,0,.332.375,2.538,2.538,0,0,0,.531.3q.313.133.711.289a9.9,9.9,0,0,1,.953.418,3.269,3.269,0,0,1,.719.484,1.893,1.893,0,0,1,.457.621,2,2,0,0,1,.16.836,1.971,1.971,0,0,1-.262,1.031,2.243,2.243,0,0,1-.7.727,3.2,3.2,0,0,1-1.008.43,4.976,4.976,0,0,1-1.2.141A4.539,4.539,0,0,1,87.516,79.711Zm10.984.211a2.47,2.47,0,0,1-1.2.25q-2.1,0-2.1-2.344V73.094H93.828V72H95.2V70.047l1.281-.414V72H98.5v1.094H96.484V77.6a1.869,1.869,0,0,0,.273,1.148,1.091,1.091,0,0,0,.906.344,1.347,1.347,0,0,0,.836-.266Zm5.055.266a3.711,3.711,0,0,1-2.832-1.121,4.153,4.153,0,0,1-1.059-2.973,4.326,4.326,0,0,1,1.1-3.148,3.96,3.96,0,0,1,2.977-1.133,3.588,3.588,0,0,1,2.793,1.1,4.368,4.368,0,0,1,1,3.055,4.3,4.3,0,0,1-1.082,3.066A3.791,3.791,0,0,1,103.555,80.188Zm.094-7.3a2.437,2.437,0,0,0-1.953.84,3.449,3.449,0,0,0-.719,2.316,3.262,3.262,0,0,0,.727,2.242,2.469,2.469,0,0,0,1.945.82,2.342,2.342,0,0,0,1.91-.8,3.492,3.492,0,0,0,.668-2.289,3.552,3.552,0,0,0-.668-2.312A2.332,2.332,0,0,0,103.648,72.891Zm1.875-4.969-2.047,2.563h-.992l1.742-2.562Zm8.234,5.375a1.567,1.567,0,0,0-.969-.258,1.635,1.635,0,0,0-1.371.773,3.576,3.576,0,0,0-.551,2.109V80h-1.281V72h1.281v1.648h.031a2.793,2.793,0,0,1,.836-1.316,1.906,1.906,0,0,1,1.258-.473,2.092,2.092,0,0,1,.766.109Zm2.047-3.328a.812.812,0,0,1-.586-.234.791.791,0,0,1-.242-.594.821.821,0,0,1,.828-.836.827.827,0,0,1,.6.238.835.835,0,0,1,0,1.184A.82.82,0,0,1,115.8,69.969ZM116.43,80h-1.281V72h1.281Zm8.047-.367a4.163,4.163,0,0,1-2.187.555,3.622,3.622,0,0,1-2.762-1.113,4.035,4.035,0,0,1-1.051-2.887,4.435,4.435,0,0,1,1.133-3.176,3.963,3.963,0,0,1,3.023-1.2,4.209,4.209,0,0,1,1.859.391v1.313a3.258,3.258,0,0,0-1.906-.625,2.576,2.576,0,0,0-2.012.879,3.335,3.335,0,0,0-.785,2.309,3.176,3.176,0,0,0,.738,2.219,2.545,2.545,0,0,0,1.98.813,3.211,3.211,0,0,0,1.969-.7Zm5.281.555a3.711,3.711,0,0,1-2.832-1.121,4.153,4.153,0,0,1-1.059-2.973,4.326,4.326,0,0,1,1.1-3.148,3.96,3.96,0,0,1,2.977-1.133,3.588,3.588,0,0,1,2.793,1.1,4.368,4.368,0,0,1,1,3.055,4.3,4.3,0,0,1-1.082,3.066A3.791,3.791,0,0,1,129.758,80.188Zm.094-7.3a2.437,2.437,0,0,0-1.953.84,3.449,3.449,0,0,0-.719,2.316,3.262,3.262,0,0,0,.727,2.242,2.469,2.469,0,0,0,1.945.82,2.342,2.342,0,0,0,1.91-.8,3.492,3.492,0,0,0,.668-2.289,3.552,3.552,0,0,0-.668-2.312A2.332,2.332,0,0,0,129.852,72.891Zm10.031,3.156h-4.266V75.039h4.266ZM147.914,80h-1.281V78.75H146.6a2.682,2.682,0,0,1-2.461,1.438,2.63,2.63,0,0,1-1.871-.633,2.192,2.192,0,0,1-.676-1.68q0-2.242,2.641-2.609l2.4-.336q0-2.039-1.648-2.039a3.938,3.938,0,0,0-2.609.984V72.563a4.958,4.958,0,0,1,2.719-.75q2.82,0,2.82,2.984Zm-1.281-4.047-1.93.266a3.133,3.133,0,0,0-1.344.441,1.273,1.273,0,0,0-.453,1.121,1.221,1.221,0,0,0,.418.957,1.615,1.615,0,0,0,1.113.371,2.056,2.056,0,0,0,1.574-.668,2.387,2.387,0,0,0,.621-1.691ZM154.5,73.3a1.567,1.567,0,0,0-.969-.258,1.635,1.635,0,0,0-1.371.773,3.576,3.576,0,0,0-.551,2.109V80h-1.281V72h1.281v1.648h.031a2.794,2.794,0,0,1,.836-1.316,1.906,1.906,0,0,1,1.258-.473,2.092,2.092,0,0,1,.766.109Zm5.1,6.625a2.47,2.47,0,0,1-1.2.25q-2.1,0-2.1-2.344V73.094H154.93V72H156.3V70.047l1.281-.414V72H159.6v1.094h-2.016V77.6a1.869,1.869,0,0,0,.273,1.148,1.091,1.091,0,0,0,.906.344,1.347,1.347,0,0,0,.836-.266Zm2.992.078h-1.281V72h1.281Zm1.148-12.078L161.7,70.484H160.7l1.742-2.562Zm.961,11.789V78.336a3.792,3.792,0,0,0,2.3.773q1.688,0,1.688-1.125a.976.976,0,0,0-.145-.543,1.441,1.441,0,0,0-.391-.395,3.007,3.007,0,0,0-.578-.309q-.332-.137-.715-.285a9.207,9.207,0,0,1-.934-.426,2.82,2.82,0,0,1-.672-.484,1.8,1.8,0,0,1-.406-.613,2.17,2.17,0,0,1-.137-.8,1.912,1.912,0,0,1,.258-1,2.286,2.286,0,0,1,.688-.727,3.206,3.206,0,0,1,.98-.441,4.349,4.349,0,0,1,1.137-.148,4.59,4.59,0,0,1,1.859.359v1.3a3.624,3.624,0,0,0-2.031-.578,2.374,2.374,0,0,0-.648.082,1.587,1.587,0,0,0-.5.23,1.065,1.065,0,0,0-.32.355.936.936,0,0,0-.113.457,1.1,1.1,0,0,0,.113.523,1.152,1.152,0,0,0,.332.375,2.538,2.538,0,0,0,.531.3q.312.133.711.289a9.894,9.894,0,0,1,.953.418,3.269,3.269,0,0,1,.719.484,1.893,1.893,0,0,1,.457.621,2,2,0,0,1,.16.836,1.971,1.971,0,0,1-.262,1.031,2.243,2.243,0,0,1-.7.727,3.2,3.2,0,0,1-1.008.43,4.976,4.976,0,0,1-1.2.141A4.539,4.539,0,0,1,164.7,79.711Zm10.984.211a2.47,2.47,0,0,1-1.2.25q-2.1,0-2.1-2.344V73.094h-1.375V72h1.375V70.047l1.281-.414V72h2.016v1.094h-2.016V77.6a1.869,1.869,0,0,0,.273,1.148,1.091,1.091,0,0,0,.906.344,1.347,1.347,0,0,0,.836-.266Zm2.367-9.953a.812.812,0,0,1-.586-.234.791.791,0,0,1-.242-.594.821.821,0,0,1,.828-.836.827.827,0,0,1,.6.238.835.835,0,0,1,0,1.184A.82.82,0,0,1,178.055,69.969ZM178.68,80H177.4V72h1.281Zm8.047-.367a4.163,4.163,0,0,1-2.187.555,3.622,3.622,0,0,1-2.762-1.113,4.035,4.035,0,0,1-1.051-2.887,4.435,4.435,0,0,1,1.133-3.176,3.963,3.963,0,0,1,3.023-1.2,4.209,4.209,0,0,1,1.859.391v1.313a3.258,3.258,0,0,0-1.906-.625,2.576,2.576,0,0,0-2.012.879,3.335,3.335,0,0,0-.785,2.309,3.176,3.176,0,0,0,.738,2.219,2.545,2.545,0,0,0,1.98.813,3.211,3.211,0,0,0,1.969-.7Zm5.281.555a3.711,3.711,0,0,1-2.832-1.121,4.153,4.153,0,0,1-1.059-2.973,4.326,4.326,0,0,1,1.1-3.148,3.96,3.96,0,0,1,2.977-1.133,3.588,3.588,0,0,1,2.793,1.1,4.368,4.368,0,0,1,1,3.055,4.3,4.3,0,0,1-1.082,3.066A3.791,3.791,0,0,1,192.008,80.188Zm.094-7.3a2.437,2.437,0,0,0-1.953.84,3.449,3.449,0,0,0-.719,2.316,3.262,3.262,0,0,0,.727,2.242,2.469,2.469,0,0,0,1.945.82,2.342,2.342,0,0,0,1.91-.8,3.492,3.492,0,0,0,.668-2.289,3.552,3.552,0,0,0-.668-2.312A2.332,2.332,0,0,0,192.1,72.891Zm5.453,6.82V78.336a3.792,3.792,0,0,0,2.3.773q1.688,0,1.688-1.125a.976.976,0,0,0-.145-.543,1.441,1.441,0,0,0-.391-.395,3.007,3.007,0,0,0-.578-.309q-.332-.137-.715-.285a9.207,9.207,0,0,1-.934-.426,2.82,2.82,0,0,1-.672-.484,1.8,1.8,0,0,1-.406-.613,2.17,2.17,0,0,1-.137-.8,1.912,1.912,0,0,1,.258-1,2.286,2.286,0,0,1,.688-.727,3.206,3.206,0,0,1,.98-.441,4.349,4.349,0,0,1,1.137-.148,4.59,4.59,0,0,1,1.859.359v1.3a3.624,3.624,0,0,0-2.031-.578,2.374,2.374,0,0,0-.648.082,1.587,1.587,0,0,0-.5.23,1.065,1.065,0,0,0-.32.355.936.936,0,0,0-.113.457,1.1,1.1,0,0,0,.113.523,1.152,1.152,0,0,0,.332.375,2.538,2.538,0,0,0,.531.3q.312.133.711.289a9.894,9.894,0,0,1,.953.418,3.269,3.269,0,0,1,.719.484,1.893,1.893,0,0,1,.457.621,2,2,0,0,1,.16.836,1.971,1.971,0,0,1-.262,1.031,2.243,2.243,0,0,1-.7.727,3.2,3.2,0,0,1-1.008.43,4.976,4.976,0,0,1-1.2.141A4.539,4.539,0,0,1,197.555,79.711ZM2.578,101H1.3V89.156H2.578ZM11.6,97.32H5.953a2.992,2.992,0,0,0,.719,2.063,2.478,2.478,0,0,0,1.891.727,3.931,3.931,0,0,0,2.484-.891v1.2a4.643,4.643,0,0,1-2.789.766,3.381,3.381,0,0,1-2.664-1.09,4.461,4.461,0,0,1-.969-3.066,4.375,4.375,0,0,1,1.059-3.043,3.394,3.394,0,0,1,2.629-1.176,3.008,3.008,0,0,1,2.43,1.016,4.234,4.234,0,0,1,.859,2.82Zm-1.312-1.086a2.607,2.607,0,0,0-.535-1.727,1.823,1.823,0,0,0-1.465-.617,2.07,2.07,0,0,0-1.539.648,2.943,2.943,0,0,0-.781,1.7Zm10.078,4.125q0,4.406-4.219,4.406a5.664,5.664,0,0,1-2.594-.562v-1.281a5.327,5.327,0,0,0,2.578.75q2.953,0,2.953-3.141v-.875h-.031a3,3,0,0,1-2.75,1.531,3,3,0,0,1-2.4-1.066,4.263,4.263,0,0,1-.91-2.863,4.981,4.981,0,0,1,.98-3.242,3.275,3.275,0,0,1,2.684-1.2,2.608,2.608,0,0,1,2.4,1.3h.031V93h1.281Zm-1.281-2.977V96.2a2.289,2.289,0,0,0-.645-1.633,2.122,2.122,0,0,0-1.605-.68,2.225,2.225,0,0,0-1.859.863,3.853,3.853,0,0,0-.672,2.418,3.308,3.308,0,0,0,.645,2.137,2.082,2.082,0,0,0,1.707.8,2.23,2.23,0,0,0,1.754-.766A2.854,2.854,0,0,0,19.086,97.383Zm9.6,3.617H27.406V99.75h-.031a2.682,2.682,0,0,1-2.461,1.438,2.63,2.63,0,0,1-1.871-.633,2.192,2.192,0,0,1-.676-1.68q0-2.242,2.641-2.609l2.4-.336q0-2.039-1.648-2.039a3.938,3.938,0,0,0-2.609.984V93.563a4.958,4.958,0,0,1,2.719-.75q2.82,0,2.82,2.984Zm-1.281-4.047-1.93.266a3.133,3.133,0,0,0-1.344.441,1.273,1.273,0,0,0-.453,1.121,1.221,1.221,0,0,0,.418.957,1.615,1.615,0,0,0,1.113.371,2.056,2.056,0,0,0,1.574-.668,2.387,2.387,0,0,0,.621-1.691ZM32.383,101H31.1V89.156h1.281Zm13.953,0H45.055V96.406a3.466,3.466,0,0,0-.41-1.922,1.555,1.555,0,0,0-1.379-.594,1.708,1.708,0,0,0-1.395.75,2.869,2.869,0,0,0-.574,1.8V101H40.016V96.25q0-2.359-1.82-2.359A1.686,1.686,0,0,0,36.8,94.6a2.923,2.923,0,0,0-.547,1.84V101H34.977V93h1.281v1.266h.031a2.718,2.718,0,0,1,2.484-1.453,2.311,2.311,0,0,1,2.266,1.656A2.855,2.855,0,0,1,43.7,92.813q2.641,0,2.641,3.258Zm8.852-3.68H49.539a2.992,2.992,0,0,0,.719,2.063,2.478,2.478,0,0,0,1.891.727,3.931,3.931,0,0,0,2.484-.891v1.2a4.643,4.643,0,0,1-2.789.766,3.381,3.381,0,0,1-2.664-1.09,4.461,4.461,0,0,1-.969-3.066,4.375,4.375,0,0,1,1.059-3.043A3.394,3.394,0,0,1,51.9,92.813a3.008,3.008,0,0,1,2.43,1.016,4.234,4.234,0,0,1,.859,2.82Zm-1.312-1.086a2.607,2.607,0,0,0-.535-1.727,1.823,1.823,0,0,0-1.465-.617,2.07,2.07,0,0,0-1.539.648,2.943,2.943,0,0,0-.781,1.7ZM63.766,101H62.484V96.438q0-2.547-1.859-2.547a2.017,2.017,0,0,0-1.59.723,2.679,2.679,0,0,0-.629,1.824V101H57.125V93h1.281v1.328h.031a2.887,2.887,0,0,1,2.625-1.516,2.448,2.448,0,0,1,2.008.848,3.776,3.776,0,0,1,.7,2.449Zm6.125-.078a2.47,2.47,0,0,1-1.2.25q-2.1,0-2.1-2.344V94.094H65.219V93h1.375V91.047l1.281-.414V93h2.016v1.094H67.875V98.6a1.869,1.869,0,0,0,.273,1.148,1.091,1.091,0,0,0,.906.344,1.347,1.347,0,0,0,.836-.266Zm8.141-3.6H72.383a2.992,2.992,0,0,0,.719,2.063,2.478,2.478,0,0,0,1.891.727,3.931,3.931,0,0,0,2.484-.891v1.2a4.643,4.643,0,0,1-2.789.766,3.381,3.381,0,0,1-2.664-1.09,4.461,4.461,0,0,1-.969-3.066,4.375,4.375,0,0,1,1.059-3.043,3.394,3.394,0,0,1,2.629-1.176,3.008,3.008,0,0,1,2.43,1.016,4.234,4.234,0,0,1,.859,2.82Zm-1.312-1.086a2.607,2.607,0,0,0-.535-1.727,1.823,1.823,0,0,0-1.465-.617,2.07,2.07,0,0,0-1.539.648,2.943,2.943,0,0,0-.781,1.7ZM91.18,101H89.9V99.641h-.031a2.958,2.958,0,0,1-2.75,1.547,2.988,2.988,0,0,1-2.41-1.074,4.407,4.407,0,0,1-.9-2.926,4.794,4.794,0,0,1,1-3.18,3.3,3.3,0,0,1,2.664-1.2,2.564,2.564,0,0,1,2.4,1.3H89.9V89.156H91.18ZM89.9,97.383V96.2a2.289,2.289,0,0,0-.641-1.641,2.149,2.149,0,0,0-1.625-.672,2.212,2.212,0,0,0-1.844.859,3.766,3.766,0,0,0-.672,2.375,3.387,3.387,0,0,0,.645,2.184,2.107,2.107,0,0,0,1.73.8,2.188,2.188,0,0,0,1.738-.773A2.882,2.882,0,0,0,89.9,97.383Zm10.3-.062H94.555a2.992,2.992,0,0,0,.719,2.063,2.478,2.478,0,0,0,1.891.727,3.931,3.931,0,0,0,2.484-.891v1.2a4.643,4.643,0,0,1-2.789.766A3.381,3.381,0,0,1,94.2,100.1a4.461,4.461,0,0,1-.969-3.066,4.375,4.375,0,0,1,1.059-3.043,3.394,3.394,0,0,1,2.629-1.176,3.008,3.008,0,0,1,2.43,1.016,4.234,4.234,0,0,1,.859,2.82Zm-1.312-1.086a2.607,2.607,0,0,0-.535-1.727,1.823,1.823,0,0,0-1.465-.617,2.07,2.07,0,0,0-1.539.648,2.943,2.943,0,0,0-.781,1.7Zm8.7,4.4a4.163,4.163,0,0,1-2.187.555,3.622,3.622,0,0,1-2.762-1.113,4.035,4.035,0,0,1-1.051-2.887,4.435,4.435,0,0,1,1.133-3.176,3.963,3.963,0,0,1,3.023-1.2,4.209,4.209,0,0,1,1.859.391v1.313a3.258,3.258,0,0,0-1.906-.625,2.576,2.576,0,0,0-2.012.879,3.335,3.335,0,0,0-.785,2.309,3.176,3.176,0,0,0,.738,2.219,2.545,2.545,0,0,0,1.98.813,3.211,3.211,0,0,0,1.969-.7Zm3.219.367h-1.281V89.156h1.281Zm8.32,0h-1.281V99.75h-.031a2.682,2.682,0,0,1-2.461,1.438,2.63,2.63,0,0,1-1.871-.633,2.192,2.192,0,0,1-.676-1.68q0-2.242,2.641-2.609l2.4-.336q0-2.039-1.648-2.039a3.938,3.938,0,0,0-2.609.984V93.563a4.958,4.958,0,0,1,2.719-.75q2.82,0,2.82,2.984Zm-1.281-4.047-1.93.266a3.133,3.133,0,0,0-1.344.441,1.273,1.273,0,0,0-.453,1.121,1.221,1.221,0,0,0,.418.957,1.615,1.615,0,0,0,1.113.371,2.056,2.056,0,0,0,1.574-.668,2.387,2.387,0,0,0,.621-1.691Zm7.867-2.656a1.567,1.567,0,0,0-.969-.258,1.635,1.635,0,0,0-1.371.773,3.576,3.576,0,0,0-.551,2.109V101h-1.281V93h1.281v1.648h.031a2.793,2.793,0,0,1,.836-1.316,1.906,1.906,0,0,1,1.258-.473,2.092,2.092,0,0,1,.766.109Zm7.117,6.7h-1.281V99.75h-.031a2.682,2.682,0,0,1-2.461,1.438,2.63,2.63,0,0,1-1.871-.633,2.192,2.192,0,0,1-.676-1.68q0-2.242,2.641-2.609l2.4-.336q0-2.039-1.648-2.039a3.938,3.938,0,0,0-2.609.984V93.563a4.958,4.958,0,0,1,2.719-.75q2.82,0,2.82,2.984Zm-1.281-4.047-1.93.266a3.133,3.133,0,0,0-1.344.441,1.273,1.273,0,0,0-.453,1.121,1.221,1.221,0,0,0,.418.957,1.615,1.615,0,0,0,1.113.371,2.056,2.056,0,0,0,1.574-.668,2.387,2.387,0,0,0,.621-1.691ZM142.078,101H140.8V99.641h-.031a2.958,2.958,0,0,1-2.75,1.547,2.988,2.988,0,0,1-2.41-1.074,4.407,4.407,0,0,1-.9-2.926,4.794,4.794,0,0,1,1-3.18,3.3,3.3,0,0,1,2.664-1.2,2.564,2.564,0,0,1,2.4,1.3h.031V89.156h1.281ZM140.8,97.383V96.2a2.289,2.289,0,0,0-.641-1.641,2.149,2.149,0,0,0-1.625-.672,2.212,2.212,0,0,0-1.844.859,3.766,3.766,0,0,0-.672,2.375,3.387,3.387,0,0,0,.645,2.184,2.107,2.107,0,0,0,1.73.8,2.188,2.188,0,0,0,1.738-.773A2.882,2.882,0,0,0,140.8,97.383Zm7.219,3.8a3.711,3.711,0,0,1-2.832-1.121,4.153,4.153,0,0,1-1.059-2.973,4.326,4.326,0,0,1,1.1-3.148,3.96,3.96,0,0,1,2.977-1.133,3.588,3.588,0,0,1,2.793,1.1,4.368,4.368,0,0,1,1,3.055,4.3,4.3,0,0,1-1.082,3.066A3.791,3.791,0,0,1,148.016,101.188Zm.094-7.3a2.437,2.437,0,0,0-1.953.84,3.449,3.449,0,0,0-.719,2.316,3.262,3.262,0,0,0,.727,2.242,2.469,2.469,0,0,0,1.945.82,2.342,2.342,0,0,0,1.91-.8,3.492,3.492,0,0,0,.668-2.289,3.552,3.552,0,0,0-.668-2.312A2.332,2.332,0,0,0,148.109,93.891Zm5.453,6.82V99.336a3.792,3.792,0,0,0,2.3.773q1.688,0,1.688-1.125a.976.976,0,0,0-.145-.543,1.441,1.441,0,0,0-.391-.395,3.007,3.007,0,0,0-.578-.309q-.332-.137-.715-.285a9.207,9.207,0,0,1-.934-.426,2.82,2.82,0,0,1-.672-.484,1.8,1.8,0,0,1-.406-.613,2.17,2.17,0,0,1-.137-.8,1.912,1.912,0,0,1,.258-1,2.286,2.286,0,0,1,.688-.727,3.206,3.206,0,0,1,.98-.441,4.349,4.349,0,0,1,1.137-.148,4.59,4.59,0,0,1,1.859.359v1.3a3.624,3.624,0,0,0-2.031-.578,2.374,2.374,0,0,0-.648.082,1.587,1.587,0,0,0-.5.23,1.065,1.065,0,0,0-.32.355.936.936,0,0,0-.113.457,1.1,1.1,0,0,0,.113.523,1.152,1.152,0,0,0,.332.375,2.538,2.538,0,0,0,.531.3q.312.133.711.289a9.894,9.894,0,0,1,.953.418,3.269,3.269,0,0,1,.719.484,1.893,1.893,0,0,1,.457.621,2,2,0,0,1,.16.836,1.971,1.971,0,0,1-.262,1.031,2.243,2.243,0,0,1-.7.727,3.2,3.2,0,0,1-1.008.43,4.976,4.976,0,0,1-1.2.141A4.539,4.539,0,0,1,153.563,100.711Zm8.445-1.492-1.25,3.844h-.914l.914-3.844Zm10.391,1.7a2.47,2.47,0,0,1-1.2.25q-2.1,0-2.1-2.344V94.094h-1.375V93H169.1V91.047l1.281-.414V93H172.4v1.094h-2.016V98.6a1.869,1.869,0,0,0,.273,1.148,1.091,1.091,0,0,0,.906.344,1.347,1.347,0,0,0,.836-.266Zm5.055.266a3.711,3.711,0,0,1-2.832-1.121,4.153,4.153,0,0,1-1.059-2.973,4.326,4.326,0,0,1,1.1-3.148,3.96,3.96,0,0,1,2.977-1.133,3.588,3.588,0,0,1,2.793,1.1,4.368,4.368,0,0,1,1,3.055,4.3,4.3,0,0,1-1.082,3.066A3.791,3.791,0,0,1,177.453,101.188Zm.094-7.3a2.437,2.437,0,0,0-1.953.84,3.449,3.449,0,0,0-.719,2.316,3.262,3.262,0,0,0,.727,2.242,2.469,2.469,0,0,0,1.945.82,2.342,2.342,0,0,0,1.91-.8,3.492,3.492,0,0,0,.668-2.289,3.552,3.552,0,0,0-.668-2.312A2.332,2.332,0,0,0,177.547,93.891ZM190.313,101h-1.281V99.641H189a2.958,2.958,0,0,1-2.75,1.547,2.988,2.988,0,0,1-2.41-1.074,4.407,4.407,0,0,1-.9-2.926,4.794,4.794,0,0,1,1-3.18,3.3,3.3,0,0,1,2.664-1.2,2.564,2.564,0,0,1,2.4,1.3h.031V89.156h1.281Zm-1.281-3.617V96.2a2.289,2.289,0,0,0-.641-1.641,2.149,2.149,0,0,0-1.625-.672,2.212,2.212,0,0,0-1.844.859,3.766,3.766,0,0,0-.672,2.375,3.387,3.387,0,0,0,.645,2.184,2.107,2.107,0,0,0,1.73.8,2.188,2.188,0,0,0,1.738-.773A2.882,2.882,0,0,0,189.031,97.383Zm7.219,3.8a3.711,3.711,0,0,1-2.832-1.121,4.153,4.153,0,0,1-1.059-2.973,4.326,4.326,0,0,1,1.1-3.148,3.96,3.96,0,0,1,2.977-1.133,3.588,3.588,0,0,1,2.793,1.1,4.368,4.368,0,0,1,1,3.055,4.3,4.3,0,0,1-1.082,3.066A3.791,3.791,0,0,1,196.25,101.188Zm.094-7.3a2.437,2.437,0,0,0-1.953.84,3.449,3.449,0,0,0-.719,2.316,3.262,3.262,0,0,0,.727,2.242,2.469,2.469,0,0,0,1.945.82,2.342,2.342,0,0,0,1.91-.8,3.492,3.492,0,0,0,.668-2.289,3.552,3.552,0,0,0-.668-2.312A2.332,2.332,0,0,0,196.344,93.891Zm11.6,7.109h-1.281V89.156h1.281Zm5.938.188a3.711,3.711,0,0,1-2.832-1.121,4.153,4.153,0,0,1-1.059-2.973,4.326,4.326,0,0,1,1.1-3.148,3.96,3.96,0,0,1,2.977-1.133,3.588,3.588,0,0,1,2.793,1.1,4.368,4.368,0,0,1,1,3.055,4.3,4.3,0,0,1-1.082,3.066A3.791,3.791,0,0,1,213.883,101.188Zm.094-7.3a2.437,2.437,0,0,0-1.953.84,3.449,3.449,0,0,0-.719,2.316,3.262,3.262,0,0,0,.727,2.242,2.469,2.469,0,0,0,1.945.82,2.342,2.342,0,0,0,1.91-.8,3.492,3.492,0,0,0,.668-2.289,3.552,3.552,0,0,0-.668-2.312A2.332,2.332,0,0,0,213.977,93.891Z" transform="translate(-845.992 -1438.765)" fill="#12263f"/>
  </g>
</svg>
