<svg xmlns="http://www.w3.org/2000/svg" xmlns:xlink="http://www.w3.org/1999/xlink" width="435.073" height="382" viewBox="0 0 435.073 382">
  <defs>
    <clipPath id="clip-path">
      <rect id="Rectángulo_337710" data-name="Rectángulo 337710" width="316" height="382" fill="#fff" stroke="#707070" stroke-width="1"/>
    </clipPath>
  </defs>
  <g id="Grupo_963446" data-name="Grupo 963446" transform="translate(397.583 600)">
    <g id="Enmascarar_grupo_927214" data-name="Enmascarar grupo 927214" transform="translate(-278.509 -600)" clip-path="url(#clip-path)">
      <g id="Grupo_961948" data-name="Grupo 961948" transform="translate(5.132 6.011)">
        <g id="Grupo_961832" data-name="Grupo 961832" transform="translate(115.567 0)">
          <path id="Trazado_699857" data-name="Trazado 699857" d="M872.313,136.526c-1.292,3.8-2.628,7.73-3.9,11.9-4.051,13.277,8.729,14.952,8.729,14.952s-4.1,9.043,2.35,16.28a12.681,12.681,0,0,0,14.618,3.354s2.959,3.939,10.735,4.429c11.28.713,15.387-3.816,15.387-3.816l11.789-2.113c1.552.867,2.758,6.631,15.224,8.088,11.332,1.324,17.165-5.475,17.165-5.475,3,5.871,17.1,4.839,18.7-4.46,1.5-8.734-2.561-12.31-3.058-12.715,7.321,5.185,19.536-8.838,6.595-22.136-5.264-5.412-8.174-7.925-10.142-10.635,5.863,1.394,11.99-5.436,9.372-11.4-3.382-7.688-9.568-4.625-15.612-15.659-8.032-14.655-14.177-19.658-14.536-19.942l-.01-.009c-10.368-9.837-25.685-14.335-42.455-13.3-14.258.881-22.568,6.712-27.379,12.7a30.1,30.1,0,0,0-6.386,18.274q-.045,2.083-.232,4.109c-2,4.846-6.082,13.442-10.909,16.052C861.8,128.57,865.467,137.987,872.313,136.526Z" transform="translate(-864.919 -73.727)" fill="#32324c"/>
        </g>
        <g id="Grupo_961833" data-name="Grupo 961833" transform="translate(0 44.562)">
          <path id="Trazado_699858" data-name="Trazado 699858" d="M844.82,501.218c9.048,133.4,177.367,187.467,260.457,82.709,16.97-21.393,21.028-72.985,16.633-100.2-17.721-109.681-73.968-120.887-31.974-190.265s45.9-195.329-70.04-194.346S978.7,285.4,898.835,337.233C862.308,360.939,840.107,431.742,844.82,501.218Z" transform="translate(-844.192 -99.114)" fill="#32324c" opacity="0.1"/>
          <path id="Trazado_699859" data-name="Trazado 699859" d="M969.156,247.235a17.687,17.687,0,0,0,19.5-5.606c7.544-9.14,19.58-27.6,16-49.076-5.118-30.684-44-6.189-47.063,28.3C956.061,238.1,962.417,244.821,969.156,247.235Z" transform="translate(-924.586 -39.104)" fill="#32324c" opacity="0.1"/>
          <path id="Trazado_699860" data-name="Trazado 699860" d="M968.3,187.559a9.224,9.224,0,0,0,6.251-8.539c.193-6.179-.737-17.635-9.075-25.35-11.911-11.02-20.126,11.5-10.372,26.7C959.983,187.973,964.752,188.715,968.3,187.559Z" transform="translate(-882.323 -60.122)" fill="#32324c" opacity="0.1"/>
          <path id="Trazado_699861" data-name="Trazado 699861" d="M854.265,273.461a9.225,9.225,0,0,0,7.7-7.267c1.309-6.042,2.47-17.477-4.334-26.575-9.717-13-21.874,7.665-15.036,24.383C846.01,272.359,850.565,273.954,854.265,273.461Z" transform="translate(-577.286 3.919)" fill="#32324c" opacity="0.1"/>
        </g>
        <path id="Trazado_699862" data-name="Trazado 699862" d="M995.945,147.628s-8.894.583-81.182,34.379a20.593,20.593,0,0,1-11.374.458c-12.761-2.756,1.4-24.448,1.4-24.448S955.883,124.189,995.945,147.628Z" transform="translate(-811.139 -24.156)" fill="#c11c57"/>
        <ellipse id="Elipse_5304" data-name="Elipse 5304" cx="107.016" cy="16.236" rx="107.016" ry="16.236" transform="translate(41.437 620.682)" fill="#32324c" opacity="0.1"/>
        <g id="Grupo_961909" data-name="Grupo 961909" transform="translate(66.578 302.076)">
          <g id="Grupo_961867" data-name="Grupo 961867" transform="translate(0 6.344)">
            <g id="Grupo_961834" data-name="Grupo 961834" transform="translate(40.87)">
              <path id="Trazado_699863" data-name="Trazado 699863" d="M911.822,406.888l11.855,143.181h20.888c4.834-55.8,15.252-129.655-1.06-149.509C972.38,333.182,963.847,265,963.847,265c-15.942-7.3-40.874-15.569-40.874-15.569C914.494,297.595,911.822,406.888,911.822,406.888Z" transform="translate(-911.822 -249.435)" fill="#211931"/>
            </g>
            <g id="Grupo_961866" data-name="Grupo 961866" transform="translate(0 277.89)">
              <g id="Grupo_961836" data-name="Grupo 961836">
                <g id="Grupo_961835" data-name="Grupo 961835">
                  <path id="Trazado_699864" data-name="Trazado 699864" d="M924.71,464.244h68.309a6.326,6.326,0,0,0,6.31-6.811l-2.775-35.878a39.943,39.943,0,0,0-6.823-2.252,6.921,6.921,0,0,1-5.066-4.6c-.049-.17-.093-.346-.139-.521-1.567-6.9-11.523-9.1-13.363-2.354-.239.872-.446,1.72-.621,2.536-.044.2-.088.407-.125.6-.295,1.45-.509,2.787-.66,3.955-.005.025-.005.051-.012.075a38.515,38.515,0,0,0-.339,4.876q-1.356,1.725-2.624,3.391c-.433.551-.848,1.1-1.262,1.643-.9,1.167-1.769,2.3-2.629,3.4-.395.514-.79,1.011-1.187,1.5-.948,1.185-1.882,2.31-2.817,3.358-.421.477-.841.941-1.274,1.387-3.521,3.7-7.074,6.233-11.274,6.818-7.405,1.016-19.508,1.832-25.352,12.7a3.934,3.934,0,0,0-.295.692A4.213,4.213,0,0,0,924.71,464.244Z" transform="translate(-920.489 -407.75)" fill="#3555af"/>
                </g>
              </g>
              <g id="Grupo_961838" data-name="Grupo 961838" transform="translate(0 51.013)">
                <g id="Grupo_961837" data-name="Grupo 961837">
                  <path id="Trazado_699865" data-name="Trazado 699865" d="M924.743,442.291h68.309a6.326,6.326,0,0,0,6.272-5.478h-78.6A4.213,4.213,0,0,0,924.743,442.291Z" transform="translate(-920.522 -436.813)" fill="#3986d7"/>
                </g>
              </g>
              <g id="Grupo_961846" data-name="Grupo 961846" transform="translate(45.032 19.518)">
                <g id="Grupo_961841" data-name="Grupo 961841" transform="translate(0)">
                  <g id="Grupo_961840" data-name="Grupo 961840">
                    <g id="Grupo_961839" data-name="Grupo 961839">
                      <path id="Trazado_699866" data-name="Trazado 699866" d="M935.173,420.513c.792,1.162,2.4,2.568,5.656,3.867q.829.34,1.808.66l.59-1.783q-.969-.319-1.757-.641c-3.735-1.506-4.759-2.988-5.034-3.746C936,419.421,935.587,419.974,935.173,420.513Z" transform="translate(-935.173 -418.87)" fill="#fff"/>
                    </g>
                  </g>
                </g>
                <g id="Grupo_961845" data-name="Grupo 961845" transform="translate(5.641 3.16)">
                  <g id="Grupo_961844" data-name="Grupo 961844">
                    <g id="Grupo_961843" data-name="Grupo 961843">
                      <g id="Grupo_961842" data-name="Grupo 961842">
                        <path id="Trazado_699867" data-name="Trazado 699867" d="M934.133,422.789a2.119,2.119,0,1,0,2.119-2.119A2.12,2.12,0,0,0,934.133,422.789Z" transform="translate(-934.133 -420.67)" fill="#fff"/>
                      </g>
                    </g>
                  </g>
                </g>
              </g>
              <g id="Grupo_961854" data-name="Grupo 961854" transform="translate(41.216 24.558)">
                <g id="Grupo_961849" data-name="Grupo 961849" transform="translate(0)">
                  <g id="Grupo_961848" data-name="Grupo 961848">
                    <g id="Grupo_961847" data-name="Grupo 961847">
                      <path id="Trazado_699868" data-name="Trazado 699868" d="M937.7,423.242a13.413,13.413,0,0,0,4.676,2.944c.653.283,1.369.546,2.166.809l.59-1.789q-1.111-.369-2-.734a10.783,10.783,0,0,1-4.25-2.731C938.493,422.255,938.1,422.752,937.7,423.242Z" transform="translate(-937.701 -421.741)" fill="#fff"/>
                    </g>
                  </g>
                </g>
                <g id="Grupo_961853" data-name="Grupo 961853" transform="translate(4.673 2.243)">
                  <g id="Grupo_961852" data-name="Grupo 961852">
                    <g id="Grupo_961851" data-name="Grupo 961851">
                      <g id="Grupo_961850" data-name="Grupo 961850">
                        <path id="Trazado_699869" data-name="Trazado 699869" d="M936.859,425.138a2.119,2.119,0,1,0,2.119-2.119A2.119,2.119,0,0,0,936.859,425.138Z" transform="translate(-936.859 -423.019)" fill="#fff"/>
                      </g>
                    </g>
                  </g>
                </g>
              </g>
              <g id="Grupo_961862" data-name="Grupo 961862" transform="translate(37.124 29.416)">
                <g id="Grupo_961857" data-name="Grupo 961857" transform="translate(0)">
                  <g id="Grupo_961856" data-name="Grupo 961856">
                    <g id="Grupo_961855" data-name="Grupo 961855">
                      <path id="Trazado_699870" data-name="Trazado 699870" d="M940.1,425.9a13.615,13.615,0,0,0,4.53,2.819c.66.281,1.388.558,2.2.821l.585-1.789c-.748-.244-1.413-.5-2.01-.748a11.657,11.657,0,0,1-4.028-2.491C940.953,424.986,940.534,425.45,940.1,425.9Z" transform="translate(-940.1 -424.509)" fill="#fff"/>
                    </g>
                  </g>
                </g>
                <g id="Grupo_961861" data-name="Grupo 961861" transform="translate(4.527 2.013)">
                  <g id="Grupo_961860" data-name="Grupo 961860">
                    <g id="Grupo_961859" data-name="Grupo 961859">
                      <g id="Grupo_961858" data-name="Grupo 961858">
                        <path id="Trazado_699871" data-name="Trazado 699871" d="M939.273,427.775a2.119,2.119,0,1,0,2.119-2.119A2.12,2.12,0,0,0,939.273,427.775Z" transform="translate(-939.273 -425.656)" fill="#fff"/>
                      </g>
                    </g>
                  </g>
                </g>
              </g>
              <g id="Grupo_961865" data-name="Grupo 961865" transform="translate(49.269 7.22)">
                <g id="Grupo_961864" data-name="Grupo 961864">
                  <g id="Grupo_961863" data-name="Grupo 961863">
                    <path id="Trazado_699872" data-name="Trazado 699872" d="M933.878,415.819a47.906,47.906,0,0,1,6.089.346l-.039-3.421a15.425,15.425,0,0,0-5.39-.879C934.243,413.314,934.029,414.651,933.878,415.819Z" transform="translate(-933.878 -411.864)" fill="#fff"/>
                  </g>
                </g>
              </g>
            </g>
          </g>
          <g id="Grupo_961908" data-name="Grupo 961908" transform="translate(51.515)">
            <g id="Grupo_961906" data-name="Grupo 961906" transform="translate(35.231 15.882)">
              <g id="Grupo_961868" data-name="Grupo 961868">
                <path id="Trazado_699873" data-name="Trazado 699873" d="M883.834,260.9s4.936,76.41,14.946,142.193c2.14,14.058,4.769,104.166,11.265,142.872h20.916l4.025-140.618s11.3-89.762.9-150.478Z" transform="translate(-883.834 -254.869)" fill="#32324c"/>
              </g>
              <g id="Grupo_961905" data-name="Grupo 961905" transform="translate(7.861 272.448)">
                <g id="Grupo_961871" data-name="Grupo 961871">
                  <g id="Grupo_961870" data-name="Grupo 961870">
                    <g id="Grupo_961869" data-name="Grupo 961869">
                      <path id="Trazado_699874" data-name="Trazado 699874" d="M884.318,457.708c.6,12.036,38.234,7.89,44.253,4.279,2.322-1.4,3.3-4.086,3.479-7.342.295-5.194-1.415-11.838-2.9-17.044-2.407-8.48-2.077-8.324-3.749-14.12,0,0,.433-9.424-11.9-13.022s-16.851,19.866-18.957,24.379c-1.927,4.135-9.419,9.793-10.195,19.968A22.969,22.969,0,0,0,884.318,457.708Z" transform="translate(-884.289 -410.084)" fill="#3555af"/>
                    </g>
                  </g>
                </g>
                <g id="Grupo_961874" data-name="Grupo 961874" transform="translate(16.09 15.062)">
                  <g id="Grupo_961873" data-name="Grupo 961873">
                    <g id="Grupo_961872" data-name="Grupo 961872">
                      <path id="Trazado_699875" data-name="Trazado 699875" d="M910.319,424.619l.986-1.513c-.46-.3-11.341-7.277-20.811-3.124l.725,1.655C899.8,417.871,910.214,424.55,910.319,424.619Z" transform="translate(-890.495 -418.665)" fill="#fff"/>
                    </g>
                  </g>
                </g>
                <g id="Grupo_961877" data-name="Grupo 961877" transform="translate(15.017 25.537)">
                  <g id="Grupo_961876" data-name="Grupo 961876">
                    <g id="Grupo_961875" data-name="Grupo 961875">
                      <path id="Trazado_699876" data-name="Trazado 699876" d="M910.931,430.585l.985-1.513c-.458-.3-11.341-7.276-20.809-3.124l.725,1.655C900.419,423.836,910.826,430.517,910.931,430.585Z" transform="translate(-891.107 -424.633)" fill="#fff"/>
                    </g>
                  </g>
                </g>
                <g id="Grupo_961880" data-name="Grupo 961880" transform="translate(15.554 20.3)">
                  <g id="Grupo_961879" data-name="Grupo 961879">
                    <g id="Grupo_961878" data-name="Grupo 961878">
                      <path id="Trazado_699877" data-name="Trazado 699877" d="M910.623,427.6l.986-1.513c-.458-.3-11.341-7.276-20.809-3.123l.725,1.654C900.111,420.852,910.52,427.532,910.623,427.6Z" transform="translate(-890.801 -421.649)" fill="#fff"/>
                    </g>
                  </g>
                </g>
                <g id="Grupo_961883" data-name="Grupo 961883" transform="translate(34.483 18.511)">
                  <g id="Grupo_961882" data-name="Grupo 961882">
                    <g id="Grupo_961881" data-name="Grupo 961881">
                      <path id="Trazado_699878" data-name="Trazado 699878" d="M889.558,422.661a2.031,2.031,0,1,0,2.031-2.031A2.031,2.031,0,0,0,889.558,422.661Z" transform="translate(-889.558 -420.63)" fill="#fff"/>
                    </g>
                  </g>
                </g>
                <g id="Grupo_961886" data-name="Grupo 961886" transform="translate(34.376 23.473)">
                  <g id="Grupo_961885" data-name="Grupo 961885">
                    <g id="Grupo_961884" data-name="Grupo 961884">
                      <path id="Trazado_699879" data-name="Trazado 699879" d="M889.619,425.49a2.031,2.031,0,1,0,2.031-2.033A2.031,2.031,0,0,0,889.619,425.49Z" transform="translate(-889.619 -423.457)" fill="#fff"/>
                    </g>
                  </g>
                </g>
                <g id="Grupo_961889" data-name="Grupo 961889" transform="translate(33.302 28.437)">
                  <g id="Grupo_961888" data-name="Grupo 961888">
                    <g id="Grupo_961887" data-name="Grupo 961887">
                      <path id="Trazado_699880" data-name="Trazado 699880" d="M890.231,428.316a2.031,2.031,0,1,0,2.031-2.031A2.031,2.031,0,0,0,890.231,428.316Z" transform="translate(-890.231 -426.285)" fill="#fff"/>
                    </g>
                  </g>
                </g>
                <g id="Grupo_961892" data-name="Grupo 961892" transform="translate(13.348 25.505)">
                  <g id="Grupo_961891" data-name="Grupo 961891">
                    <g id="Grupo_961890" data-name="Grupo 961890">
                      <path id="Trazado_699881" data-name="Trazado 699881" d="M901.6,426.644a2.032,2.032,0,1,0,2.033-2.029A2.032,2.032,0,0,0,901.6,426.644Z" transform="translate(-901.598 -424.615)" fill="#fff"/>
                    </g>
                  </g>
                </g>
                <g id="Grupo_961895" data-name="Grupo 961895" transform="translate(13.885 20.089)">
                  <g id="Grupo_961894" data-name="Grupo 961894">
                    <g id="Grupo_961893" data-name="Grupo 961893">
                      <path id="Trazado_699882" data-name="Trazado 699882" d="M901.293,423.56a2.031,2.031,0,1,0,2.031-2.031A2.031,2.031,0,0,0,901.293,423.56Z" transform="translate(-901.293 -421.529)" fill="#fff"/>
                    </g>
                  </g>
                </g>
                <g id="Grupo_961898" data-name="Grupo 961898" transform="translate(14.422 14.672)">
                  <g id="Grupo_961897" data-name="Grupo 961897">
                    <g id="Grupo_961896" data-name="Grupo 961896">
                      <path id="Trazado_699883" data-name="Trazado 699883" d="M900.987,420.474a2.031,2.031,0,1,0,2.031-2.031A2.031,2.031,0,0,0,900.987,420.474Z" transform="translate(-900.987 -418.443)" fill="#fff"/>
                    </g>
                  </g>
                </g>
                <g id="Grupo_961901" data-name="Grupo 961901" transform="translate(0 44.561)">
                  <g id="Grupo_961900" data-name="Grupo 961900">
                    <g id="Grupo_961899" data-name="Grupo 961899">
                      <path id="Trazado_699884" data-name="Trazado 699884" d="M884.337,438.534c.6,12.036,38.234,7.89,44.253,4.279,2.322-1.4,3.3-4.086,3.479-7.342-3.955,2.256-10.923,5.068-21.329,5.254-12.766.228-21.973-2.354-26.366-5.092A23,23,0,0,0,884.337,438.534Z" transform="translate(-884.308 -435.471)" fill="#3986d7"/>
                    </g>
                  </g>
                </g>
                <g id="Grupo_961904" data-name="Grupo 961904" transform="translate(22.597 4.034)">
                  <g id="Grupo_961903" data-name="Grupo 961903">
                    <g id="Grupo_961902" data-name="Grupo 961902">
                      <path id="Trazado_699885" data-name="Trazado 699885" d="M893.173,412.44a20.082,20.082,0,0,1,10.586,2.106l-.551,3.812s-6.821-2.006-11.336-1.7A8.956,8.956,0,0,1,893.173,412.44Z" transform="translate(-891.872 -412.383)" fill="#fff"/>
                    </g>
                  </g>
                </g>
              </g>
            </g>
            <g id="Grupo_961907" data-name="Grupo 961907" transform="translate(0)">
              <path id="Trazado_699886" data-name="Trazado 699886" d="M971.663,245.821c2.064,10.909,3.865,29.133-1.641,47.456,0,0-38.416,9.542-65.434-11.913-17.678-14.041-18.51-30.472-18.3-35.543Z" transform="translate(-886.266 -245.821)" fill="#32324c"/>
            </g>
          </g>
        </g>
        <g id="Grupo_961914" data-name="Grupo 961914" transform="translate(194.607 122.743)">
          <g id="Grupo_961910" data-name="Grupo 961910" transform="translate(23.913 184.69)">
            <path id="Trazado_699887" data-name="Trazado 699887" d="M874.632,250.021a41.366,41.366,0,0,0-7.6,9.458c-2.6,4.924-5.117,10.181-6.663,13.245-1.861,3.688,2.055,3.928,4.766,1.3,4.107-3.981,4.7-6.914,4.7-6.914s-5.933,21.348-5.173,27.253c.693,5.392,4.551-6.215,8.278-15.64,0,0-2.149,21.613.762,23.884,3.821,2.984,6.347-23.207,6.347-23.207s1.009,19.589,3.333,19.143c2.593-.5,4.009-20.679,4.009-20.679s1.885,13.4,3.319,12.55c2.838-1.674,4.692-30.407-2.829-41.211C887.874,249.207,877.17,248.059,874.632,250.021Z" transform="translate(-859.883 -248.873)" fill="#ffaf82"/>
          </g>
          <g id="Grupo_961913" data-name="Grupo 961913" transform="translate(0)">
            <g id="Grupo_961912" data-name="Grupo 961912">
              <g id="Grupo_961911" data-name="Grupo 961911">
                <path id="Trazado_699888" data-name="Trazado 699888" d="M860.97,180.4c10.635,34.118,24.585,57.277,29.489,64.832.323,4.8,1.929,27.56,4.806,49.085a362.527,362.527,0,0,1,2.845,36.872,20.689,20.689,0,0,0,17.084,0c2.48-36.464.569-66.2-4.534-88.3.311-28.808-29.784-99.234-29.784-99.234C866.5,154.219,860.97,180.4,860.97,180.4Z" transform="translate(-860.97 -143.654)" fill="#e63067"/>
              </g>
            </g>
          </g>
        </g>
        <g id="Grupo_961915" data-name="Grupo 961915" transform="translate(114.576 113.108)">
          <path id="Trazado_699889" data-name="Trazado 699889" d="M881.136,329.141c46.568,23.718,93.1,3.969,93.1,3.969-6.394-40.519-14.139-94.017-14.139-94.017,12.814-24.518,20.972-91.291,20.972-91.291-7.521-4.66-11.034-3.526-19.629-5.794-2.426-.641-4.655-1.18-6.561-1.617-3.9-.892-6.421-1.348-6.421-1.348-11.75-1.6-23.968-.742-32.866.409-.06.009-.121.014-.181.023-7.806,1.023-13.014,2.273-13.014,2.273s-3.577,27.012-11.3,40.677-1.817,21.929,0,27.885a20.946,20.946,0,0,1,.679,4.471c.511,7.462,1.146,42.583,1.146,42.583Z" transform="translate(-881.136 -138.165)" fill="#e63067"/>
          <path id="Trazado_699890" data-name="Trazado 699890" d="M906.58,165.214c12.782.395,24.23-13.951,30.265-24.823-3.9-.892-6.421-1.348-6.421-1.348-11.75-1.6-23.969-.742-32.866.409-.06.009-.121.014-.181.023C895.82,150.408,893.125,164.8,906.58,165.214Z" transform="translate(-863.098 -138.165)" fill="#ffaf82"/>
          <path id="Trazado_699891" data-name="Trazado 699891" d="M905.817,179.267a20.8,20.8,0,0,1,.677,4.467c22.575,11.608,45.966,4.987,45.966,4.987C922.076,188.2,905.817,179.267,905.817,179.267Z" transform="translate(-895.845 -107.121)" fill="#c11c57"/>
        </g>
        <path id="Trazado_699892" data-name="Trazado 699892" d="M940.714,196.8s-31.85-6.614,20.523-76.673l11.418,9.15a145.981,145.981,0,0,0-11.622,24.639,194.929,194.929,0,0,1-10.347,24.07S947.563,184.728,940.714,196.8Z" transform="translate(-845.882 -38.682)" fill="#c11c57"/>
        <g id="Grupo_961924" data-name="Grupo 961924" transform="translate(113.228 50.01)">
          <g id="Grupo_961923" data-name="Grupo 961923" transform="translate(0 0)">
            <g id="Grupo_961922" data-name="Grupo 961922">
              <g id="Grupo_961918" data-name="Grupo 961918" transform="translate(0.367 22.187)">
                <path id="Trazado_699893" data-name="Trazado 699893" d="M931.4,124.6l4.576-7.8,8.119,4.47-5.263,8.363Z" transform="translate(-931.397 -113.393)" fill="#fb9988"/>
                <g id="Grupo_961917" data-name="Grupo 961917" transform="translate(6.373)">
                  <g id="Grupo_961916" data-name="Grupo 961916">
                    <path id="Trazado_699894" data-name="Trazado 699894" d="M922.232,131.791l-1.029-.7-1.06-3.9s.571-5.392,4.727-7.785a5.211,5.211,0,0,1,2.361-.581,15.161,15.161,0,0,1,3.453.281,40.37,40.37,0,0,1,6.86,2,53.048,53.048,0,0,1,5.87-5.362c1.169-.871,1.847-.988,2.245-.827.578.232.562,1.043.562,1.043l-6.474,12.577s-9.1,4.432-14.116,5.552Z" transform="translate(-920.143 -114.858)" fill="#fdbd8e"/>
                  </g>
                </g>
              </g>
              <g id="Grupo_961919" data-name="Grupo 961919">
                <path id="Rectángulo_337708" data-name="Rectángulo 337708" d="M.7,0H21.113a.7.7,0,0,1,.7.7V35.418a.7.7,0,0,1-.7.7H.7a.7.7,0,0,1-.7-.7V.7A.7.7,0,0,1,.7,0Z" transform="matrix(-0.828, -0.56, 0.56, -0.828, 18.063, 42.132)" fill="#171228"/>
                <rect id="Rectángulo_337709" data-name="Rectángulo 337709" width="17.282" height="28.162" transform="matrix(-0.828, -0.56, 0.56, -0.828, 19.117, 36.536)" fill="#28b69a"/>
                <path id="Trazado_699895" data-name="Trazado 699895" d="M932.166,121.224a1.62,1.62,0,1,0,2.25-.434A1.623,1.623,0,0,0,932.166,121.224Z" transform="translate(-922.928 -88.4)" fill="#909aa3"/>
              </g>
              <g id="Grupo_961921" data-name="Grupo 961921" transform="translate(2.614 2.549)">
                <g id="Grupo_961920" data-name="Grupo 961920" transform="translate(0)">
                  <path id="Trazado_699896" data-name="Trazado 699896" d="M930.321,104.962a4.211,4.211,0,0,0,.386,2.847c.507,1.023,1,2.082,1.594,3.058.062.1.121.193.181.29a10.359,10.359,0,0,0,.948,1.269c.126.142.258.279.391.411a5.781,5.781,0,0,0,1.527,1.1,1.312,1.312,0,0,0,1.876-1.311,9.428,9.428,0,0,0-1.053-4.025,16.548,16.548,0,0,0-3.347-4.285C931.758,103.45,930.749,103.268,930.321,104.962Z" transform="translate(-924.706 -103.67)" fill="#fdbd8e"/>
                  <path id="Trazado_699897" data-name="Trazado 699897" d="M931.21,108.124a4.228,4.228,0,0,0,.379,2.845c.332.658.653,1.338,1.006,2,.133.263.277.523.428.771a11.22,11.22,0,0,0,1.3,1.848c.1.111.2.216.3.321a5.959,5.959,0,0,0,1.615,1.183,1.308,1.308,0,0,0,1.871-1.313,9.2,9.2,0,0,0-1.053-4.023,13.926,13.926,0,0,0-.79-1.311,19.791,19.791,0,0,0-1.255-1.662c-.088-.105-.174-.209-.265-.307C933.352,106.92,931.765,105.89,931.21,108.124Z" transform="translate(-927.149 -101.281)" fill="#fdbd8e"/>
                  <path id="Trazado_699898" data-name="Trazado 699898" d="M932.585,110.513a4.235,4.235,0,0,0,.381,2.844c.411.828.822,1.689,1.278,2.5.142.251.288.506.448.743a9.713,9.713,0,0,0,1,1.373,6.94,6.94,0,0,0,.716.7,5.541,5.541,0,0,0,1.2.8,1.311,1.311,0,0,0,1.873-1.315,9.226,9.226,0,0,0-1.053-4.025c-.009-.012-.011-.021-.019-.033a18.12,18.12,0,0,0-1.729-2.582c-.1-.118-.195-.244-.3-.358C934.938,109.453,933.178,108.129,932.585,110.513Z" transform="translate(-930.938 -99.479)" fill="#fdbd8e"/>
                  <path id="Trazado_699899" data-name="Trazado 699899" d="M933.464,113.564a4.218,4.218,0,0,0,.379,2.844c.068.139.133.269.2.407a18.507,18.507,0,0,0,2.529,4.214,6.234,6.234,0,0,0,1.919,1.506,1.311,1.311,0,0,0,1.871-1.316,9.3,9.3,0,0,0-1.053-4.023,8.624,8.624,0,0,0-.477-.823,19.173,19.173,0,0,0-1.875-2.5c-.1-.112-.195-.214-.291-.316C935.364,112.218,933.979,111.507,933.464,113.564Z" transform="translate(-933.361 -97.172)" fill="#fdbd8e"/>
                </g>
                <path id="Trazado_699900" data-name="Trazado 699900" d="M938.335,104.962a4.211,4.211,0,0,0,.386,2.847c.507,1.023,1,2.082,1.594,3.058-1.392-1.557-2.979-2.587-3.533-.353a4.228,4.228,0,0,0,.379,2.845c.332.658.653,1.338,1.006,2-1.446-1.717-3.207-3.04-3.8-.656a4.235,4.235,0,0,0,.381,2.844c.411.828.822,1.689,1.278,2.5-1.3-1.336-2.687-2.047-3.2.011a4.218,4.218,0,0,0,.379,2.844c.068.139.133.269.2.407.023-.095.044-.183.072-.274a3.86,3.86,0,0,1,1.032-1.868,1.819,1.819,0,0,1,1.966-.377l.039.025c-.067-.153-.13-.3-.195-.451a4.508,4.508,0,0,1-.414-2.986c.354-1.137,1.966-1.869,2.777-.993l-.084-.258c-.046-.133-.09-.272-.132-.412a5.183,5.183,0,0,1-.265-2.8,2.263,2.263,0,0,1,2.3-1.761c.028.009.058.009.084.018a1.683,1.683,0,0,1,.267.084c-.627-1.769-1.167-3.514-.632-5.383a14.223,14.223,0,0,1,.623-1.564C939.772,103.45,938.763,103.268,938.335,104.962Z" transform="translate(-932.72 -103.67)" fill="#fb9988"/>
              </g>
            </g>
          </g>
        </g>
        <g id="Grupo_961947" data-name="Grupo 961947" transform="translate(127.272 4.502)">
          <g id="Grupo_961946" data-name="Grupo 961946">
            <g id="Grupo_961926" data-name="Grupo 961926" transform="translate(0 44.704)">
              <g id="Grupo_961925" data-name="Grupo 961925">
                <path id="Trazado_699901" data-name="Trazado 699901" d="M937.655,105.861s-7.392-8.439-13.421-1.108c-5.3,6.447-2,23.512,10.921,23.038Z" transform="translate(-921.812 -101.759)" fill="#f88968"/>
              </g>
            </g>
            <path id="Trazado_699902" data-name="Trazado 699902" d="M924.861,117.321a3.1,3.1,0,1,0,3.1-3.1A3.1,3.1,0,0,0,924.861,117.321Z" transform="translate(-920.573 -47.645)" fill="#fff"/>
            <g id="Grupo_961929" data-name="Grupo 961929" transform="translate(27.342 83.007)">
              <g id="Grupo_961927" data-name="Grupo 961927">
                <path id="Trazado_699903" data-name="Trazado 699903" d="M900.435,153.847c.653,7.73,16.644,12.282,25.731-.844l.957-16.963.7-12.459-29.2,5.664,1.445,19.643Z" transform="translate(-898.627 -123.581)" fill="#ffaf82"/>
              </g>
              <g id="Grupo_961928" data-name="Grupo 961928">
                <path id="Trazado_699904" data-name="Trazado 699904" d="M900.245,151.258c9.968.137,21.1-6.735,26.666-11.474l.913-16.2-29.2,5.664Z" transform="translate(-898.627 -123.581)" fill="#f88968"/>
              </g>
            </g>
            <g id="Grupo_961930" data-name="Grupo 961930" transform="translate(5.625 12.785)">
              <path id="Trazado_699905" data-name="Trazado 699905" d="M921.788,168.57c30.818-7.049,36.417-47.444,36.417-47.444a44.722,44.722,0,0,0-.414-6.642,51.246,51.246,0,0,0-1.5-7.369c-2.21-7.762-6.953-16.61-17.082-20.47q-.477-.184-.962-.355c-16.8-5.957-41.374-3.172-48.846,19.078a36.906,36.906,0,0,0-1.139,4.306c-.179.876-.337,1.789-.472,2.722C884.435,135.368,894.089,174.908,921.788,168.57Z" transform="translate(-887.148 -83.575)" fill="#ffaf82"/>
            </g>
            <g id="Grupo_961933" data-name="Grupo 961933" transform="translate(43.001 48.646)">
              <g id="Grupo_961932" data-name="Grupo 961932">
                <g id="Grupo_961931" data-name="Grupo 961931">
                  <path id="Trazado_699906" data-name="Trazado 699906" d="M903.621,111.877a3.958,3.958,0,0,0,4.474-3.36,3.884,3.884,0,0,0-.307-2.168c3.239-.379,3.172-2.345,3.172-2.345-.505.841-4.286.351-5.854.111H905.1c-.193-.033-.351-.058-.467-.075l-.019-.005a1.106,1.106,0,0,0-.186-.016,3.953,3.953,0,0,0-.8,7.858Z" transform="translate(-900.223 -104.005)" fill="#32324c"/>
                </g>
              </g>
            </g>
            <g id="Grupo_961934" data-name="Grupo 961934" transform="translate(65.56 49.35)">
              <path id="Trazado_699907" data-name="Trazado 699907" d="M887.349,106.215s11.058-6.061,14.6,4.006c3.116,8.852-6.949,25.6-20.414,20.119Z" transform="translate(-881.533 -104.406)" fill="#ffaf82"/>
            </g>
            <g id="Grupo_961937" data-name="Grupo 961937" transform="translate(20.445 73.469)">
              <g id="Grupo_961935" data-name="Grupo 961935">
                <path id="Trazado_699908" data-name="Trazado 699908" d="M906.88,125.305a10.63,10.63,0,0,0,1.952,2.963c1.722,1.82,4.348,3.151,8.352,3.142,3.363-.009,6-1.873,7.955-4.106a22.833,22.833,0,0,0,3.049-4.59,23.6,23.6,0,0,0,1.276-2.926s-16.131-.5-23.853-1.641l0,.005a16.083,16.083,0,0,0,.158,3.168A14.872,14.872,0,0,0,906.88,125.305Z" transform="translate(-905.589 -118.147)" fill="#920e08"/>
              </g>
              <g id="Grupo_961936" data-name="Grupo 961936">
                <path id="Trazado_699909" data-name="Trazado 699909" d="M905.767,121.321c7.358,1.429,19.266,1.32,22.42,1.394a23.6,23.6,0,0,0,1.276-2.926s-16.131-.5-23.853-1.641l0,.005A16.083,16.083,0,0,0,905.767,121.321Z" transform="translate(-905.589 -118.147)" fill="#fff"/>
              </g>
            </g>
            <g id="Grupo_961938" data-name="Grupo 961938" transform="translate(70.621 56.388)">
              <path id="Trazado_699910" data-name="Trazado 699910" d="M884.678,120c.958-2.912,3.691-8.908,10.454-11.581,0,0-7.227,6.812-7.776,12.083a1.312,1.312,0,0,1-1.334,1.2l-.158-.005A1.294,1.294,0,0,1,884.678,120Z" transform="translate(-884.611 -108.416)" fill="#f88968"/>
            </g>
            <g id="Grupo_961940" data-name="Grupo 961940" transform="translate(23.688 81.482)">
              <g id="Grupo_961939" data-name="Grupo 961939">
                <path id="Trazado_699911" data-name="Trazado 699911" d="M908.053,124.82c1.722,1.82,4.348,3.151,8.352,3.142,3.363-.009,6-1.873,7.955-4.106a10.115,10.115,0,0,0-8.275-.479,6.913,6.913,0,0,0-4.132-.6A5.223,5.223,0,0,0,908.053,124.82Z" transform="translate(-908.053 -122.712)" fill="#f85c66"/>
              </g>
            </g>
            <g id="Grupo_961941" data-name="Grupo 961941" transform="translate(24.849 87.734)">
              <path id="Trazado_699912" data-name="Trazado 699912" d="M917.324,129.966a14.8,14.8,0,0,0,5.152-2.05.9.9,0,0,0-1.018-1.483c-.242.163-5.784,3.851-11.641.737a.9.9,0,1,0-.846,1.589A12.417,12.417,0,0,0,917.324,129.966Z" transform="translate(-908.493 -126.274)" fill="#f88968"/>
            </g>
            <g id="Grupo_961942" data-name="Grupo 961942" transform="translate(27.533 53.074)">
              <path id="Trazado_699913" data-name="Trazado 699913" d="M912.86,123.254h4.678a.961.961,0,1,0,0-1.922H912.86a.216.216,0,0,1-.207-.276l3.884-13.3a.961.961,0,0,0-1.845-.539l-3.885,13.3a2.138,2.138,0,0,0,2.052,2.738Z" transform="translate(-910.721 -106.528)" fill="#f88968"/>
            </g>
            <path id="Trazado_699914" data-name="Trazado 699914" d="M898.093,99.886h0a1.838,1.838,0,0,0,1.622,2.177c3.595.355,11.069,1.571,14.441,5.682,0,0-.736-6.753-13.893-9.321A1.847,1.847,0,0,0,898.093,99.886Z" transform="translate(-856.621 -59.601)" fill="#32324c"/>
            <path id="Trazado_699915" data-name="Trazado 699915" d="M932.849,99.959h0a1.839,1.839,0,0,1-1.975,1.862c-3.6-.279-11.174-.386-15.211,3.072,0,0,1.9-6.519,15.306-6.751A1.845,1.845,0,0,1,932.849,99.959Z" transform="translate(-906.212 -59.788)" fill="#32324c"/>
            <g id="Grupo_961945" data-name="Grupo 961945" transform="translate(12.951 48.144)">
              <g id="Grupo_961944" data-name="Grupo 961944">
                <g id="Grupo_961943" data-name="Grupo 961943">
                  <path id="Trazado_699916" data-name="Trazado 699916" d="M924.68,111.59a3.958,3.958,0,0,1-4.474-3.36,3.9,3.9,0,0,1,.309-2.166c-3.24-.381-3.172-2.345-3.172-2.345.5.841,4.286.349,5.852.111h.01c.191-.035.351-.058.465-.077l.019-.005a1.372,1.372,0,0,1,.188-.014,3.952,3.952,0,0,1,.8,7.857Z" transform="translate(-917.343 -103.719)" fill="#32324c"/>
                </g>
              </g>
            </g>
            <path id="Trazado_699917" data-name="Trazado 699917" d="M935.383,93.949s1.548,27.046,14.158,37.965c0,0,1.085-7.174,10.9-6.1,0,0,.927-1.678,2.368-9.814s-3.735-41.72-40.979-39.557c0,0-11.845-2.4-28.423,11.773s-6.756,29.68-6.756,29.68S914.307,114.079,935.383,93.949Z" transform="translate(-880.391 -76.291)" fill="#32324c"/>
            <circle id="Elipse_5305" data-name="Elipse 5305" cx="3.102" cy="3.102" r="3.102" transform="translate(70.486 73.47)" fill="#fff"/>
          </g>
        </g>
      </g>
    </g>
    <g id="Grupo_961949" data-name="Grupo 961949" transform="translate(-397.583 -448.22)">
      <rect id="Rectángulo_335418" data-name="Rectángulo 335418" width="238.163" height="67.553" rx="13.129" transform="translate(0)" fill="#fff"/>
      <path id="Trazado_639247" data-name="Trazado 639247" d="M446.365,282.747s6.546-17.249,15.789-24.359c0,0-21.243.262-27.838,7.364A109.273,109.273,0,0,1,446.365,282.747Z" transform="translate(-210.071 -258.388)" fill="#fff"/>
    </g>
    <path id="Trazado_702414" data-name="Trazado 702414" d="M.813,16.711V15.336a3.792,3.792,0,0,0,2.3.773q1.688,0,1.688-1.125a.976.976,0,0,0-.145-.543,1.44,1.44,0,0,0-.391-.395,3.007,3.007,0,0,0-.578-.309q-.332-.137-.715-.285a9.207,9.207,0,0,1-.934-.426,2.82,2.82,0,0,1-.672-.484,1.8,1.8,0,0,1-.406-.613,2.17,2.17,0,0,1-.137-.8,1.912,1.912,0,0,1,.258-1A2.286,2.286,0,0,1,1.773,9.4a3.206,3.206,0,0,1,.98-.441,4.349,4.349,0,0,1,1.137-.148,4.59,4.59,0,0,1,1.859.359v1.3a3.624,3.624,0,0,0-2.031-.578,2.374,2.374,0,0,0-.648.082,1.587,1.587,0,0,0-.5.23,1.065,1.065,0,0,0-.32.355.936.936,0,0,0-.113.457,1.1,1.1,0,0,0,.113.523,1.152,1.152,0,0,0,.332.375,2.538,2.538,0,0,0,.531.3q.312.133.711.289a9.894,9.894,0,0,1,.953.418A3.269,3.269,0,0,1,5.5,13.4a1.893,1.893,0,0,1,.457.621,2,2,0,0,1,.16.836,1.971,1.971,0,0,1-.262,1.031,2.243,2.243,0,0,1-.7.727,3.2,3.2,0,0,1-1.008.43,4.976,4.976,0,0,1-1.2.141A4.539,4.539,0,0,1,.813,16.711ZM9.367,17H8.086V9H9.367ZM10.516,4.922,8.469,7.484H7.477L9.219,4.922ZM22.984,17H21.7V12.391q0-2.5-1.859-2.5a2.027,2.027,0,0,0-1.578.723,2.693,2.693,0,0,0-.641,1.855V17H16.344V5.156h1.281v5.172h.031a2.91,2.91,0,0,1,2.625-1.516q2.7,0,2.7,3.258Zm8.141,0H29.844V15.75h-.031a2.682,2.682,0,0,1-2.461,1.438,2.63,2.63,0,0,1-1.871-.633,2.192,2.192,0,0,1-.676-1.68q0-2.242,2.641-2.609l2.4-.336q0-2.039-1.648-2.039a3.938,3.938,0,0,0-2.609.984V9.563a4.958,4.958,0,0,1,2.719-.75q2.82,0,2.82,2.984Zm-1.281-4.047-1.93.266a3.133,3.133,0,0,0-1.344.441,1.273,1.273,0,0,0-.453,1.121,1.221,1.221,0,0,0,.418.957,1.615,1.615,0,0,0,1.113.371,2.056,2.056,0,0,0,1.574-.668,2.387,2.387,0,0,0,.621-1.691ZM39.906,9l-3.68,9.281q-.984,2.484-2.766,2.484a2.931,2.931,0,0,1-.836-.1V19.516a2.375,2.375,0,0,0,.758.141A1.57,1.57,0,0,0,34.836,18.5l.641-1.516L32.352,9h1.422l2.164,6.156q.039.117.164.609h.047q.039-.187.156-.594L38.578,9Zm9.1,8.188a3.711,3.711,0,0,1-2.832-1.121,4.153,4.153,0,0,1-1.059-2.973,4.326,4.326,0,0,1,1.1-3.148A3.96,3.96,0,0,1,49.2,8.813a3.588,3.588,0,0,1,2.793,1.1,4.368,4.368,0,0,1,1,3.055,4.3,4.3,0,0,1-1.082,3.066A3.791,3.791,0,0,1,49.008,17.188Zm.094-7.3a2.437,2.437,0,0,0-1.953.84,3.449,3.449,0,0,0-.719,2.316,3.262,3.262,0,0,0,.727,2.242,2.469,2.469,0,0,0,1.945.82,2.342,2.342,0,0,0,1.91-.8,3.492,3.492,0,0,0,.668-2.289,3.552,3.552,0,0,0-.668-2.312A2.332,2.332,0,0,0,49.1,9.891Zm9.648,7.031a2.47,2.47,0,0,1-1.2.25q-2.1,0-2.1-2.344V10.094H54.078V9h1.375V7.047l1.281-.414V9H58.75v1.094H56.734V14.6a1.869,1.869,0,0,0,.273,1.148,1.091,1.091,0,0,0,.906.344,1.347,1.347,0,0,0,.836-.266ZM64.633,10.3a1.567,1.567,0,0,0-.969-.258,1.635,1.635,0,0,0-1.371.773,3.576,3.576,0,0,0-.551,2.109V17H60.461V9h1.281v1.648h.031a2.794,2.794,0,0,1,.836-1.316,1.906,1.906,0,0,1,1.258-.473,2.092,2.092,0,0,1,.766.109Zm4.734,6.891a3.711,3.711,0,0,1-2.832-1.121,4.153,4.153,0,0,1-1.059-2.973,4.326,4.326,0,0,1,1.1-3.148,3.96,3.96,0,0,1,2.977-1.133,3.588,3.588,0,0,1,2.793,1.1,4.368,4.368,0,0,1,1,3.055,4.3,4.3,0,0,1-1.082,3.066A3.791,3.791,0,0,1,69.367,17.188Zm.094-7.3a2.437,2.437,0,0,0-1.953.84,3.449,3.449,0,0,0-.719,2.316,3.262,3.262,0,0,0,.727,2.242,2.469,2.469,0,0,0,1.945.82,2.342,2.342,0,0,0,1.91-.8,3.492,3.492,0,0,0,.668-2.289,3.552,3.552,0,0,0-.668-2.312A2.332,2.332,0,0,0,69.461,9.891Zm5.453,6.82V15.336a3.792,3.792,0,0,0,2.3.773q1.688,0,1.688-1.125a.976.976,0,0,0-.145-.543,1.44,1.44,0,0,0-.391-.395,3.007,3.007,0,0,0-.578-.309q-.332-.137-.715-.285a9.207,9.207,0,0,1-.934-.426,2.82,2.82,0,0,1-.672-.484,1.8,1.8,0,0,1-.406-.613,2.17,2.17,0,0,1-.137-.8,1.912,1.912,0,0,1,.258-1,2.286,2.286,0,0,1,.688-.727,3.206,3.206,0,0,1,.98-.441,4.349,4.349,0,0,1,1.137-.148,4.59,4.59,0,0,1,1.859.359v1.3a3.624,3.624,0,0,0-2.031-.578,2.374,2.374,0,0,0-.648.082,1.587,1.587,0,0,0-.5.23,1.065,1.065,0,0,0-.32.355.936.936,0,0,0-.113.457,1.1,1.1,0,0,0,.113.523,1.152,1.152,0,0,0,.332.375,2.538,2.538,0,0,0,.531.3q.313.133.711.289a9.9,9.9,0,0,1,.953.418,3.269,3.269,0,0,1,.719.484,1.893,1.893,0,0,1,.457.621,2,2,0,0,1,.16.836,1.971,1.971,0,0,1-.262,1.031,2.243,2.243,0,0,1-.7.727,3.2,3.2,0,0,1-1.008.43,4.976,4.976,0,0,1-1.2.141A4.539,4.539,0,0,1,74.914,16.711ZM90.523,6.281a1.707,1.707,0,0,0-.852-.211q-1.344,0-1.344,1.7V9H90.2v1.094H88.328V17H87.055V10.094H85.688V9h1.367V7.7a2.7,2.7,0,0,1,.727-1.988,2.453,2.453,0,0,1,1.813-.73,2.511,2.511,0,0,1,.93.141ZM97.3,17H96.023V15.75h-.031a2.682,2.682,0,0,1-2.461,1.438,2.63,2.63,0,0,1-1.871-.633,2.192,2.192,0,0,1-.676-1.68q0-2.242,2.641-2.609l2.4-.336q0-2.039-1.648-2.039a3.938,3.938,0,0,0-2.609.984V9.563a4.958,4.958,0,0,1,2.719-.75q2.82,0,2.82,2.984Zm-1.281-4.047-1.93.266a3.133,3.133,0,0,0-1.344.441,1.273,1.273,0,0,0-.453,1.121,1.221,1.221,0,0,0,.418.957,1.615,1.615,0,0,0,1.113.371,2.056,2.056,0,0,0,1.574-.668,2.387,2.387,0,0,0,.621-1.691Zm9.148,3.68a4.163,4.163,0,0,1-2.187.555,3.622,3.622,0,0,1-2.762-1.113,4.035,4.035,0,0,1-1.051-2.887,4.435,4.435,0,0,1,1.133-3.176,3.963,3.963,0,0,1,3.023-1.2,4.209,4.209,0,0,1,1.859.391v1.313a3.258,3.258,0,0,0-1.906-.625,2.576,2.576,0,0,0-2.012.879,3.335,3.335,0,0,0-.785,2.309,3.176,3.176,0,0,0,.738,2.219,2.545,2.545,0,0,0,1.98.813,3.211,3.211,0,0,0,1.969-.7Zm5.648.289a2.47,2.47,0,0,1-1.2.25q-2.1,0-2.1-2.344V10.094h-1.375V9h1.375V7.047l1.281-.414V9h2.016v1.094H108.8V14.6a1.869,1.869,0,0,0,.273,1.148,1.091,1.091,0,0,0,.906.344,1.347,1.347,0,0,0,.836-.266Zm5.055.266a3.711,3.711,0,0,1-2.832-1.121,4.153,4.153,0,0,1-1.059-2.973,4.326,4.326,0,0,1,1.1-3.148,3.96,3.96,0,0,1,2.977-1.133,3.588,3.588,0,0,1,2.793,1.1,4.368,4.368,0,0,1,1,3.055,4.3,4.3,0,0,1-1.082,3.066A3.791,3.791,0,0,1,115.875,17.188Zm.094-7.3a2.437,2.437,0,0,0-1.953.84,3.449,3.449,0,0,0-.719,2.316,3.262,3.262,0,0,0,.727,2.242,2.469,2.469,0,0,0,1.945.82,2.342,2.342,0,0,0,1.91-.8,3.492,3.492,0,0,0,.668-2.289,3.552,3.552,0,0,0-.668-2.312A2.332,2.332,0,0,0,115.969,9.891Zm10.109.406a1.567,1.567,0,0,0-.969-.258,1.635,1.635,0,0,0-1.371.773,3.576,3.576,0,0,0-.551,2.109V17h-1.281V9h1.281v1.648h.031a2.793,2.793,0,0,1,.836-1.316,1.906,1.906,0,0,1,1.258-.473,2.092,2.092,0,0,1,.766.109Zm7.82,3.023H128.25a2.992,2.992,0,0,0,.719,2.063,2.478,2.478,0,0,0,1.891.727,3.931,3.931,0,0,0,2.484-.891v1.2a4.643,4.643,0,0,1-2.789.766,3.381,3.381,0,0,1-2.664-1.09,4.461,4.461,0,0,1-.969-3.066,4.375,4.375,0,0,1,1.059-3.043,3.394,3.394,0,0,1,2.629-1.176,3.008,3.008,0,0,1,2.43,1.016,4.234,4.234,0,0,1,.859,2.82Zm-1.312-1.086a2.607,2.607,0,0,0-.535-1.727,1.823,1.823,0,0,0-1.465-.617,2.07,2.07,0,0,0-1.539.648,2.943,2.943,0,0,0-.781,1.7Zm2.766,4.477V15.336a3.792,3.792,0,0,0,2.3.773q1.688,0,1.688-1.125a.976.976,0,0,0-.145-.543,1.44,1.44,0,0,0-.391-.395,3.007,3.007,0,0,0-.578-.309q-.332-.137-.715-.285a9.207,9.207,0,0,1-.934-.426,2.82,2.82,0,0,1-.672-.484,1.8,1.8,0,0,1-.406-.613,2.17,2.17,0,0,1-.137-.8,1.912,1.912,0,0,1,.258-1,2.286,2.286,0,0,1,.688-.727,3.206,3.206,0,0,1,.98-.441,4.349,4.349,0,0,1,1.137-.148,4.59,4.59,0,0,1,1.859.359v1.3a3.624,3.624,0,0,0-2.031-.578,2.374,2.374,0,0,0-.648.082,1.587,1.587,0,0,0-.5.23,1.065,1.065,0,0,0-.32.355.936.936,0,0,0-.113.457,1.1,1.1,0,0,0,.113.523,1.152,1.152,0,0,0,.332.375,2.538,2.538,0,0,0,.531.3q.312.133.711.289a9.894,9.894,0,0,1,.953.418,3.269,3.269,0,0,1,.719.484,1.893,1.893,0,0,1,.457.621,2,2,0,0,1,.16.836,1.971,1.971,0,0,1-.262,1.031,2.243,2.243,0,0,1-.7.727,3.2,3.2,0,0,1-1.008.43,4.976,4.976,0,0,1-1.2.141A4.539,4.539,0,0,1,135.352,16.711Zm18.484,3.969h-1.281V15.625h-.031a2.867,2.867,0,0,1-2.734,1.563,3.011,3.011,0,0,1-2.418-1.074,4.381,4.381,0,0,1-.91-2.926,4.791,4.791,0,0,1,1-3.184,3.328,3.328,0,0,1,2.688-1.191,2.523,2.523,0,0,1,2.375,1.3h.031V9h1.281ZM152.555,13.4V12.234a2.328,2.328,0,0,0-.645-1.664,2.158,2.158,0,0,0-1.637-.68,2.2,2.2,0,0,0-1.828.855,3.819,3.819,0,0,0-.672,2.41,3.307,3.307,0,0,0,.648,2.168,2.069,2.069,0,0,0,1.672.785,2.254,2.254,0,0,0,1.793-.77A2.855,2.855,0,0,0,152.555,13.4ZM162.9,17h-1.281V15.734h-.031a2.631,2.631,0,0,1-2.469,1.453q-2.859,0-2.859-3.406V9h1.273v4.578q0,2.531,1.938,2.531a1.96,1.96,0,0,0,1.543-.691,2.645,2.645,0,0,0,.605-1.809V9H162.9Zm9.016-3.68h-5.648a2.992,2.992,0,0,0,.719,2.063,2.478,2.478,0,0,0,1.891.727,3.931,3.931,0,0,0,2.484-.891v1.2a4.643,4.643,0,0,1-2.789.766,3.381,3.381,0,0,1-2.664-1.09,4.461,4.461,0,0,1-.969-3.066A4.374,4.374,0,0,1,166,9.988a3.394,3.394,0,0,1,2.629-1.176,3.008,3.008,0,0,1,2.43,1.016,4.234,4.234,0,0,1,.859,2.82ZM170.6,12.234a2.607,2.607,0,0,0-.535-1.727,1.823,1.823,0,0,0-1.465-.617,2.07,2.07,0,0,0-1.539.648,2.943,2.943,0,0,0-.781,1.7Zm7.148,4.477V15.336a3.792,3.792,0,0,0,2.3.773q1.688,0,1.688-1.125a.976.976,0,0,0-.145-.543,1.44,1.44,0,0,0-.391-.395,3.007,3.007,0,0,0-.578-.309q-.332-.137-.715-.285a9.207,9.207,0,0,1-.934-.426,2.82,2.82,0,0,1-.672-.484,1.8,1.8,0,0,1-.406-.613,2.17,2.17,0,0,1-.137-.8,1.912,1.912,0,0,1,.258-1,2.286,2.286,0,0,1,.688-.727,3.206,3.206,0,0,1,.98-.441,4.349,4.349,0,0,1,1.137-.148,4.59,4.59,0,0,1,1.859.359v1.3a3.624,3.624,0,0,0-2.031-.578,2.374,2.374,0,0,0-.648.082,1.587,1.587,0,0,0-.5.23,1.065,1.065,0,0,0-.32.355.936.936,0,0,0-.113.457,1.1,1.1,0,0,0,.113.523,1.152,1.152,0,0,0,.332.375,2.538,2.538,0,0,0,.531.3q.312.133.711.289a9.894,9.894,0,0,1,.953.418,3.269,3.269,0,0,1,.719.484,1.893,1.893,0,0,1,.457.621,2,2,0,0,1,.16.836,1.971,1.971,0,0,1-.262,1.031,2.243,2.243,0,0,1-.7.727,3.2,3.2,0,0,1-1.008.43,4.976,4.976,0,0,1-1.2.141A4.539,4.539,0,0,1,177.75,16.711Zm13.7-3.391H185.8a2.992,2.992,0,0,0,.719,2.063,2.478,2.478,0,0,0,1.891.727,3.931,3.931,0,0,0,2.484-.891v1.2a4.643,4.643,0,0,1-2.789.766,3.381,3.381,0,0,1-2.664-1.09,4.461,4.461,0,0,1-.969-3.066,4.374,4.374,0,0,1,1.059-3.043,3.394,3.394,0,0,1,2.629-1.176,3.008,3.008,0,0,1,2.43,1.016,4.234,4.234,0,0,1,.859,2.82Zm-1.312-1.086a2.607,2.607,0,0,0-.535-1.727,1.823,1.823,0,0,0-1.465-.617,2.07,2.07,0,0,0-1.539.648,2.943,2.943,0,0,0-.781,1.7ZM8.125,38H6.844V36.641H6.813a2.958,2.958,0,0,1-2.75,1.547,2.988,2.988,0,0,1-2.41-1.074,4.407,4.407,0,0,1-.9-2.926,4.794,4.794,0,0,1,1-3.18,3.3,3.3,0,0,1,2.664-1.2,2.564,2.564,0,0,1,2.4,1.3h.031V26.156H8.125ZM6.844,34.383V33.2A2.289,2.289,0,0,0,6.2,31.563a2.149,2.149,0,0,0-1.625-.672,2.212,2.212,0,0,0-1.844.859,3.766,3.766,0,0,0-.672,2.375,3.387,3.387,0,0,0,.645,2.184,2.107,2.107,0,0,0,1.73.8,2.188,2.188,0,0,0,1.738-.773A2.882,2.882,0,0,0,6.844,34.383Zm10.3-.062H11.5a2.992,2.992,0,0,0,.719,2.063,2.478,2.478,0,0,0,1.891.727,3.931,3.931,0,0,0,2.484-.891v1.2a4.643,4.643,0,0,1-2.789.766,3.381,3.381,0,0,1-2.664-1.09,4.461,4.461,0,0,1-.969-3.066,4.375,4.375,0,0,1,1.059-3.043,3.394,3.394,0,0,1,2.629-1.176,3.008,3.008,0,0,1,2.43,1.016,4.234,4.234,0,0,1,.859,2.82Zm-1.312-1.086a2.607,2.607,0,0,0-.535-1.727,1.823,1.823,0,0,0-1.465-.617,2.07,2.07,0,0,0-1.539.648,2.943,2.943,0,0,0-.781,1.7ZM20.4,36.844h-.031V38H19.086V26.156h1.281v5.25H20.4a3.03,3.03,0,0,1,2.766-1.594,2.932,2.932,0,0,1,2.41,1.074,4.436,4.436,0,0,1,.871,2.879,4.959,4.959,0,0,1-.977,3.215A3.251,3.251,0,0,1,22.8,38.188,2.631,2.631,0,0,1,20.4,36.844Zm-.031-3.227v1.117a2.379,2.379,0,0,0,.645,1.684,2.3,2.3,0,0,0,3.461-.2,4.086,4.086,0,0,0,.66-2.477,3.225,3.225,0,0,0-.617-2.094,2.043,2.043,0,0,0-1.672-.758,2.27,2.27,0,0,0-1.8.777A2.854,2.854,0,0,0,20.367,33.617Zm14.555.7H29.273a2.992,2.992,0,0,0,.719,2.063,2.478,2.478,0,0,0,1.891.727,3.931,3.931,0,0,0,2.484-.891v1.2a4.643,4.643,0,0,1-2.789.766,3.381,3.381,0,0,1-2.664-1.09,4.461,4.461,0,0,1-.969-3.066A4.375,4.375,0,0,1,29,30.988a3.394,3.394,0,0,1,2.629-1.176,3.008,3.008,0,0,1,2.43,1.016,4.234,4.234,0,0,1,.859,2.82Zm-1.312-1.086a2.607,2.607,0,0,0-.535-1.727,1.823,1.823,0,0,0-1.465-.617,2.07,2.07,0,0,0-1.539.648,2.943,2.943,0,0,0-.781,1.7ZM43.5,38H42.219V33.438q0-2.547-1.859-2.547a2.017,2.017,0,0,0-1.59.723,2.679,2.679,0,0,0-.629,1.824V38H36.859V30h1.281v1.328h.031A2.887,2.887,0,0,1,40.8,29.813a2.448,2.448,0,0,1,2.008.848,3.776,3.776,0,0,1,.7,2.449Zm10.508-.078a2.47,2.47,0,0,1-1.2.25q-2.1,0-2.1-2.344V31.094H49.336V30h1.375V28.047l1.281-.414V30h2.016v1.094H51.992V35.6a1.869,1.869,0,0,0,.273,1.148,1.091,1.091,0,0,0,.906.344,1.347,1.347,0,0,0,.836-.266Zm8.141-3.6H56.5a2.992,2.992,0,0,0,.719,2.063,2.478,2.478,0,0,0,1.891.727,3.931,3.931,0,0,0,2.484-.891v1.2a4.643,4.643,0,0,1-2.789.766,3.381,3.381,0,0,1-2.664-1.09,4.461,4.461,0,0,1-.969-3.066,4.375,4.375,0,0,1,1.059-3.043,3.394,3.394,0,0,1,2.629-1.176,3.008,3.008,0,0,1,2.43,1.016,4.234,4.234,0,0,1,.859,2.82Zm-1.312-1.086a2.607,2.607,0,0,0-.535-1.727,1.823,1.823,0,0,0-1.465-.617,2.07,2.07,0,0,0-1.539.648,2.943,2.943,0,0,0-.781,1.7ZM70.727,38H69.445V33.438q0-2.547-1.859-2.547a2.017,2.017,0,0,0-1.59.723,2.679,2.679,0,0,0-.629,1.824V38H64.086V30h1.281v1.328H65.4a2.887,2.887,0,0,1,2.625-1.516,2.448,2.448,0,0,1,2.008.848,3.776,3.776,0,0,1,.7,2.449Zm8.844-3.68H73.922a2.992,2.992,0,0,0,.719,2.063,2.478,2.478,0,0,0,1.891.727,3.931,3.931,0,0,0,2.484-.891v1.2a4.643,4.643,0,0,1-2.789.766,3.381,3.381,0,0,1-2.664-1.09,4.461,4.461,0,0,1-.969-3.066,4.375,4.375,0,0,1,1.059-3.043,3.394,3.394,0,0,1,2.629-1.176,3.008,3.008,0,0,1,2.43,1.016,4.234,4.234,0,0,1,.859,2.82Zm-1.312-1.086a2.607,2.607,0,0,0-.535-1.727,1.823,1.823,0,0,0-1.465-.617,2.07,2.07,0,0,0-1.539.648,2.943,2.943,0,0,0-.781,1.7ZM85.68,31.3a1.567,1.567,0,0,0-.969-.258,1.635,1.635,0,0,0-1.371.773,3.576,3.576,0,0,0-.551,2.109V38H81.508V30h1.281v1.648h.031a2.793,2.793,0,0,1,.836-1.316,1.906,1.906,0,0,1,1.258-.473,2.092,2.092,0,0,1,.766.109Zm12.2,3.023H92.234a2.992,2.992,0,0,0,.719,2.063,2.478,2.478,0,0,0,1.891.727,3.931,3.931,0,0,0,2.484-.891v1.2a4.643,4.643,0,0,1-2.789.766,3.381,3.381,0,0,1-2.664-1.09,4.461,4.461,0,0,1-.969-3.066,4.375,4.375,0,0,1,1.059-3.043,3.394,3.394,0,0,1,2.629-1.176,3.008,3.008,0,0,1,2.43,1.016,4.234,4.234,0,0,1,.859,2.82ZM96.57,33.234a2.607,2.607,0,0,0-.535-1.727,1.823,1.823,0,0,0-1.465-.617,2.07,2.07,0,0,0-1.539.648,2.943,2.943,0,0,0-.781,1.7ZM106.461,38H105.18V33.438q0-2.547-1.859-2.547a2.017,2.017,0,0,0-1.59.723,2.679,2.679,0,0,0-.629,1.824V38H99.82V30H101.1v1.328h.031a2.887,2.887,0,0,1,2.625-1.516,2.448,2.448,0,0,1,2.008.848,3.776,3.776,0,0,1,.7,2.449Zm12.25-.367a4.163,4.163,0,0,1-2.187.555,3.622,3.622,0,0,1-2.762-1.113,4.035,4.035,0,0,1-1.051-2.887,4.435,4.435,0,0,1,1.133-3.176,3.963,3.963,0,0,1,3.023-1.2,4.209,4.209,0,0,1,1.859.391v1.313a3.258,3.258,0,0,0-1.906-.625,2.576,2.576,0,0,0-2.012.879,3.335,3.335,0,0,0-.785,2.309,3.176,3.176,0,0,0,.738,2.219,2.545,2.545,0,0,0,1.98.813,3.211,3.211,0,0,0,1.969-.7Zm8.406.367h-1.281V36.734H125.8a2.631,2.631,0,0,1-2.469,1.453q-2.859,0-2.859-3.406V30h1.273v4.578q0,2.531,1.938,2.531a1.96,1.96,0,0,0,1.543-.691,2.645,2.645,0,0,0,.605-1.809V30h1.281Zm9.016-3.68h-5.648a2.992,2.992,0,0,0,.719,2.063,2.478,2.478,0,0,0,1.891.727,3.931,3.931,0,0,0,2.484-.891v1.2a4.643,4.643,0,0,1-2.789.766,3.381,3.381,0,0,1-2.664-1.09,4.461,4.461,0,0,1-.969-3.066,4.374,4.374,0,0,1,1.059-3.043,3.394,3.394,0,0,1,2.629-1.176,3.008,3.008,0,0,1,2.43,1.016,4.234,4.234,0,0,1,.859,2.82Zm-1.312-1.086a2.607,2.607,0,0,0-.535-1.727,1.823,1.823,0,0,0-1.465-.617,2.07,2.07,0,0,0-1.539.648,2.943,2.943,0,0,0-.781,1.7ZM144.711,38H143.43V33.438q0-2.547-1.859-2.547a2.017,2.017,0,0,0-1.59.723,2.679,2.679,0,0,0-.629,1.824V38H138.07V30h1.281v1.328h.031a2.887,2.887,0,0,1,2.625-1.516,2.448,2.448,0,0,1,2.008.848,3.776,3.776,0,0,1,.7,2.449Zm6.125-.078a2.47,2.47,0,0,1-1.2.25q-2.1,0-2.1-2.344V31.094h-1.375V30h1.375V28.047l1.281-.414V30h2.016v1.094H148.82V35.6a1.869,1.869,0,0,0,.273,1.148,1.091,1.091,0,0,0,.906.344,1.347,1.347,0,0,0,.836-.266Zm7.438.078h-1.281V36.75h-.031a2.682,2.682,0,0,1-2.461,1.438,2.63,2.63,0,0,1-1.871-.633,2.192,2.192,0,0,1-.676-1.68q0-2.242,2.641-2.609l2.4-.336q0-2.039-1.648-2.039a3.938,3.938,0,0,0-2.609.984V30.563a4.958,4.958,0,0,1,2.719-.75q2.82,0,2.82,2.984Zm-1.281-4.047-1.93.266a3.133,3.133,0,0,0-1.344.441,1.273,1.273,0,0,0-.453,1.121,1.221,1.221,0,0,0,.418.957,1.615,1.615,0,0,0,1.113.371,2.056,2.056,0,0,0,1.574-.668,2.387,2.387,0,0,0,.621-1.691Zm12.18,4.188a.816.816,0,0,1-.605-.25.836.836,0,0,1-.246-.609.876.876,0,0,1,.246-.621.8.8,0,0,1,.605-.262.815.815,0,0,1,.605.262.862.862,0,0,1,.254.621.823.823,0,0,1-.254.609A.833.833,0,0,1,169.172,38.141Zm-3.922,0a.842.842,0,0,1-.613-.25.823.823,0,0,1-.254-.609.862.862,0,0,1,.254-.621.823.823,0,0,1,.613-.262.815.815,0,0,1,.605.262.862.862,0,0,1,.254.621.823.823,0,0,1-.254.609A.833.833,0,0,1,165.25,38.141Zm-3.922,0a.8.8,0,0,1-.6-.25.843.843,0,0,1-.242-.609.884.884,0,0,1,.242-.621.786.786,0,0,1,.6-.262.815.815,0,0,1,.605.262.862.862,0,0,1,.254.621.854.854,0,0,1-.859.859Z" transform="translate(-379.492 -436.787)" fill="#12263f"/>
  </g>
</svg>
