<svg xmlns="http://www.w3.org/2000/svg" width="1101.5" height="348.573" viewBox="0 0 1101.5 348.573">
  <g id="Grupo_963427" data-name="Grupo 963427" transform="translate(-249 -3950.917)">
    <g id="Grupo_963426" data-name="Grupo 963426">
      <path id="Trazado_702391" data-name="Trazado 702391" d="M-2521-7589.608l156.808,165.678,185.4-156.473L-1996-7429.19l176.177-151.213,176.2,156.473L-1471-7580.4" transform="translate(2806 11700)" fill="none" stroke="#eb6f2d" stroke-linecap="round" stroke-width="4" stroke-dasharray="1 10"/>
      <g id="Grupo_963383" data-name="Grupo 963383" transform="translate(69.5 -68.338)">
        <g id="Grupo_963374" data-name="Grupo 963374" transform="translate(1133.881 4015.596)">
          <g id="Grupo_948384" data-name="Grupo 948384" transform="translate(0 5.164)">
            <path id="Trazado_683514" data-name="Trazado 683514" d="M456.7,4499.944a73.56,73.56,0,1,1-73.56-73.56A73.556,73.556,0,0,1,456.7,4499.944Z" transform="translate(-309.584 -4426.385)" fill="#ffe8a4"/>
            <path id="Trazado_683515" data-name="Trazado 683515" d="M452.559,4524.073l-38.991-39.022-12.215,8.217-11.373-11.139-10.533,21.778-1.929,3.545-7,3.251-24.231,26.086,36.451,36.449c.31.008.614.024.92.024C415.648,4573.263,442.108,4553.449,452.559,4524.073Z" transform="translate(-309.521 -4426.29)" fill="#ffcb55"/>
            <g id="Grupo_948383" data-name="Grupo 948383" transform="translate(27.516 19.351)">
              <g id="Grupo_948382" data-name="Grupo 948382" transform="translate(34.63 10.876)">
                <path id="Trazado_683516" data-name="Trazado 683516" d="M396,4456.562h9.323v3.107H396Z" transform="translate(-371.582 -4456.562)" fill="#cad8ed"/>
                <path id="Trazado_683517" data-name="Trazado 683517" d="M383.587,4456.562h9.322v3.107h-9.322Z" transform="translate(-371.604 -4456.562)" fill="#cad8ed"/>
                <path id="Trazado_683518" data-name="Trazado 683518" d="M413.058,4478.276h3.107v9.323h-3.107Z" transform="translate(-371.553 -4456.524)" fill="#cad8ed"/>
                <path id="Trazado_683519" data-name="Trazado 683519" d="M413.058,4468.971h3.107v6.213h-3.107Z" transform="translate(-371.553 -4456.54)" fill="#cad8ed"/>
                <path id="Trazado_683520" data-name="Trazado 683520" d="M393.336,4490.237l2.2-2.2,11.652,11.651-2.2,2.2Z" transform="translate(-371.587 -4456.507)" fill="#cad8ed"/>
                <path id="Trazado_683521" data-name="Trazado 683521" d="M371.624,4468.521l2.2-2.2,9.321,9.32-2.2,2.2Z" transform="translate(-371.624 -4456.544)" fill="#cad8ed"/>
              </g>
              <path id="Trazado_683522" data-name="Trazado 683522" d="M386.731,4458.133a12.38,12.38,0,1,1,0-.1Z" transform="translate(-337.01 -4445.703)" fill="#4e96ed"/>
              <path id="Trazado_683523" data-name="Trazado 683523" d="M383.622,4462.771v3.562a12.433,12.433,0,0,1-20.2-2.2v-1.361a3.106,3.106,0,0,1,3.105-3.107h13.986a3.107,3.107,0,0,1,3.108,3.106Z" transform="translate(-337.008 -4445.68)" fill="#f5a431"/>
              <path id="Trazado_683524" data-name="Trazado 683524" d="M375.839,4458.112v5.438a2.33,2.33,0,0,1-4.661,0h0v-5.438Z" transform="translate(-336.995 -4445.682)" fill="#ffceb6"/>
              <path id="Trazado_683525" data-name="Trazado 683525" d="M375.836,4458.112v4.661a3.1,3.1,0,0,1-3.107-3.1v-1.562Z" transform="translate(-336.992 -4445.682)" fill="#ffbfa1"/>
              <path id="Trazado_683526" data-name="Trazado 683526" d="M377.393,4453.458v4.662a3.107,3.107,0,1,1-6.215,0v-4.662Z" transform="translate(-336.995 -4445.69)" fill="#ffceb6"/>
              <path id="Trazado_683527" data-name="Trazado 683527" d="M371.178,4456.572v-3.109a3.107,3.107,0,0,1,3.107-3.107h2.464a2.2,2.2,0,0,1,2.2,2.2h0a2.2,2.2,0,0,1-.643,1.554l-.911.91h-3.107Z" transform="translate(-336.995 -4445.696)" fill="#b36f42"/>
              <path id="Trazado_683528" data-name="Trazado 683528" d="M427.06,4458.133a12.38,12.38,0,1,1,0-.1Z" transform="translate(-336.942 -4445.703)" fill="#4e96ed"/>
              <path id="Trazado_683529" data-name="Trazado 683529" d="M423.95,4462.771v3.562a12.433,12.433,0,0,1-20.2-2.2v-1.361a3.107,3.107,0,0,1,3.106-3.107h13.985a3.107,3.107,0,0,1,3.108,3.106Z" transform="translate(-336.939 -4445.68)" fill="#5ebd92"/>
              <path id="Trazado_683530" data-name="Trazado 683530" d="M416.168,4458.112v5.438a2.33,2.33,0,0,1-4.661,0h0v-5.438Z" transform="translate(-336.926 -4445.682)" fill="#ffceb6"/>
              <path id="Trazado_683531" data-name="Trazado 683531" d="M416.165,4458.112v4.661a3.1,3.1,0,0,1-3.107-3.1v-1.562Z" transform="translate(-336.923 -4445.682)" fill="#ffbfa1"/>
              <path id="Trazado_683532" data-name="Trazado 683532" d="M417.722,4453.458v4.662a3.107,3.107,0,1,1-6.215,0v-4.662Z" transform="translate(-336.926 -4445.69)" fill="#ffceb6"/>
              <path id="Trazado_683533" data-name="Trazado 683533" d="M411.507,4456.572v-3.109a3.107,3.107,0,0,1,3.107-3.107h2.464a2.2,2.2,0,0,1,2.2,2.2h0a2.2,2.2,0,0,1-.643,1.554l-.911.91h-3.107Z" transform="translate(-336.926 -4445.696)" fill="#b36f42"/>
              <path id="Trazado_683534" data-name="Trazado 683534" d="M351.013,4529.463h21.753v7.77H351.013Z" transform="translate(-337.029 -4445.56)" fill="#445496"/>
              <path id="Trazado_683535" data-name="Trazado 683535" d="M391.551,4485.062l-1.694,2.542-1.266,10.13a6.21,6.21,0,0,1-2.01,3.85l-8.033,7.231-5.782,5.2v15.537H351.013V4504.7h18.645l10.877-9.322,5.827-18.937a1.787,1.787,0,0,1,3.5.525v2.874l1.305,1.305a3.109,3.109,0,0,1,.389,3.922Z" transform="translate(-337.029 -4445.653)" fill="#ffceb6"/>
              <path id="Trazado_683536" data-name="Trazado 683536" d="M378.548,4508.77l-5.782,5.2v15.538H351.013v-24.86h18.645l3.318-2.843Z" transform="translate(-337.029 -4445.607)" fill="#ed6445"/>
              <path id="Trazado_683537" data-name="Trazado 683537" d="M363.43,4510.851l1.554,10.876-3.107,3.107-3.107-3.107,1.554-10.876Z" transform="translate(-337.016 -4445.592)" fill="#f7c04a"/>
              <path id="Trazado_683538" data-name="Trazado 683538" d="M360.323,4510.858l-1.554-3.107,3.107-1.555,3.107,1.555-1.554,3.107Z" transform="translate(-337.016 -4445.6)" fill="#f5a431"/>
              <path id="Trazado_683539" data-name="Trazado 683539" d="M368.1,4509.307a1.555,1.555,0,0,1-2.156.431h0l-4.059-2.708-4.06,2.708a1.555,1.555,0,0,1-2.156-.431h0a1.554,1.554,0,0,1,.432-2.155l3.758-2.506h4.051l3.758,2.506A1.553,1.553,0,0,1,368.1,4509.307Z" transform="translate(-337.021 -4445.603)" fill="#de402f"/>
              <path id="Trazado_683540" data-name="Trazado 683540" d="M357.217,4493.786v7.77a4.66,4.66,0,0,0,4.661,4.661h0a4.661,4.661,0,0,0,4.662-4.661v-7.77Z" transform="translate(-337.018 -4445.621)" fill="#ffceb6"/>
              <path id="Trazado_683541" data-name="Trazado 683541" d="M360.327,4495.347l.455.455a3.753,3.753,0,0,0,2.653,1.1,4.662,4.662,0,0,0,4.661-4.663v-1.553h-7.756a4.329,4.329,0,0,0-3.872,6.266l.751,1.5Z" transform="translate(-337.02 -4445.626)" fill="#b36f42"/>
              <path id="Trazado_683542" data-name="Trazado 683542" d="M427.06,4496.912a12.38,12.38,0,1,1,0-.1Z" transform="translate(-336.942 -4445.637)" fill="#4e96ed"/>
              <path id="Trazado_683543" data-name="Trazado 683543" d="M423.95,4501.548v3.562a12.433,12.433,0,0,1-20.2-2.2v-1.361a3.107,3.107,0,0,1,3.106-3.107h13.985a3.107,3.107,0,0,1,3.108,3.105Z" transform="translate(-336.939 -4445.613)" fill="#e6b47c"/>
              <path id="Trazado_683544" data-name="Trazado 683544" d="M416.168,4496.891v5.438a2.33,2.33,0,0,1-4.661,0v-5.437Z" transform="translate(-336.926 -4445.616)" fill="#ffceb6"/>
              <path id="Trazado_683545" data-name="Trazado 683545" d="M416.165,4496.891v4.661a3.1,3.1,0,0,1-3.107-3.1v-1.561Z" transform="translate(-336.923 -4445.616)" fill="#ffbfa1"/>
              <path id="Trazado_683546" data-name="Trazado 683546" d="M417.722,4492.236v4.663a3.107,3.107,0,0,1-6.215,0v-4.663Z" transform="translate(-336.926 -4445.624)" fill="#ffceb6"/>
              <path id="Trazado_683547" data-name="Trazado 683547" d="M411.507,4495.35v-3.109a3.108,3.108,0,0,1,3.107-3.107h2.464a2.2,2.2,0,0,1,1.554,3.751l-.911.911h-3.107Z" transform="translate(-336.926 -4445.629)" fill="#b36f42"/>
              <path id="Trazado_683548" data-name="Trazado 683548" d="M355.7,4537.275h-9.322l-6.818-9.09a12.531,12.531,0,0,1-.6-14.157l1.063-1.7,2.977-4.763a6.216,6.216,0,0,1,5.271-2.921h2.77v7.769l-4.661,7.77Z" transform="translate(-337.053 -4445.603)" fill="#ffceb6"/>
              <path id="Trazado_683549" data-name="Trazado 683549" d="M352.585,4504.646v7.769h-1.554l-2.878,4.8-8.14-4.882,2.977-4.763a6.216,6.216,0,0,1,5.271-2.921Z" transform="translate(-337.048 -4445.603)" fill="#ed6445"/>
            </g>
          </g>
          <rect id="Rectángulo_337378" data-name="Rectángulo 337378" width="139" height="37" rx="18.5" transform="translate(7.619 156.775)" fill="#0387d0"/>
          <text id="Organización" transform="translate(18.972 164.952)" fill="#fff" font-size="17" font-family="SegoeUI-Bold, Segoe UI" font-weight="700"><tspan x="4.433" y="18">Organización</tspan></text>
        </g>
        <g id="Grupo_963373" data-name="Grupo 963373" transform="translate(987.919 4164.6)">
          <g id="Grupo_948386" data-name="Grupo 948386" transform="translate(0 9.73)">
            <path id="Trazado_683550" data-name="Trazado 683550" d="M944.719,4400.849a72.939,72.939,0,1,1-72.942-72.933A72.938,72.938,0,0,1,944.719,4400.849Z" transform="translate(-798.84 -4327.916)" fill="#ef9688"/>
            <path id="Trazado_683551" data-name="Trazado 683551" d="M941.582,4422.6l-39.046-39.027-12.516,8.418-22.982-22.977-19.47,19.477,18.029,18.035-7.17,3.331-31.8,19.758,44.319,44.316c.317.009.628.024.941.024A72.962,72.962,0,0,0,941.582,4422.6Z" transform="translate(-798.953 -4328.083)" fill="#ed5b4b"/>
            <g id="Grupo_948385" data-name="Grupo 948385" transform="translate(25.926 22.356)">
              <path id="Trazado_683552" data-name="Trazado 683552" d="M872.4,4350.362H862.155a12.4,12.4,0,0,0-12.395,12.4V4373a2.479,2.479,0,0,0,2.479,2.479H857.2a2.478,2.478,0,0,0,2.479-2.479v-10.246a2.479,2.479,0,0,1,2.479-2.479H872.4a2.479,2.479,0,0,1,2.479,2.479V4373a2.478,2.478,0,0,0,2.479,2.479h4.957a2.478,2.478,0,0,0,2.479-2.479v-10.246A12.394,12.394,0,0,0,872.4,4350.362Z" transform="translate(-824.972 -4350.362)" fill="#7a7780"/>
              <path id="Trazado_683553" data-name="Trazado 683553" d="M872.472,4350.362h-5.123v9.916h5.123a2.479,2.479,0,0,1,2.479,2.479V4373a2.478,2.478,0,0,0,2.479,2.479h4.957a2.478,2.478,0,0,0,2.479-2.479v-10.246A12.4,12.4,0,0,0,872.472,4350.362Z" transform="translate(-825.043 -4350.362)" fill="#57555c"/>
              <path id="Trazado_683554" data-name="Trazado 683554" d="M899.567,4370.854l-4.958,5.058-1.883,1.933-3.074-2.777-4.958-4.461H849.659l-4.957,4.363-2.628,2.329-2.329-2.081-4.958-4.363A12.4,12.4,0,0,0,824.871,4383v39.662a12.4,12.4,0,0,0,12.395,12.395h2.479l2.281-4.214,2.677,4.214h44.949l2.429-4.065,2.529,4.065h2.479a12.4,12.4,0,0,0,12.395-12.395V4383A12.4,12.4,0,0,0,899.567,4370.854Z" transform="translate(-824.871 -4350.445)" fill="#ffe8a4"/>
              <path id="Trazado_683555" data-name="Trazado 683555" d="M909.655,4383v39.662a12.4,12.4,0,0,1-12.395,12.395h-2.479l-2.529-4.065-2.429,4.065H867.349v-64.451h17.517l4.958,4.462,3.075,2.776,1.883-1.933,4.958-5.058A12.4,12.4,0,0,1,909.655,4383Z" transform="translate(-825.043 -4350.445)" fill="#ffcb55"/>
              <path id="Trazado_683556" data-name="Trazado 683556" d="M842.135,4377.316l2.628-2.329v60.087H839.8v-59.84Z" transform="translate(-824.931 -4350.462)" fill="#3c3b40"/>
              <path id="Trazado_683557" data-name="Trazado 683557" d="M892.989,4377.863l1.884-1.934v59.146h-4.958v-59.988Z" transform="translate(-825.134 -4350.463)" fill="#29292c"/>
              <path id="Trazado_683558" data-name="Trazado 683558" d="M882.316,4395.456H874.88v-7.437a2.454,2.454,0,0,0-2.479-2.479H862.155a2.454,2.454,0,0,0-2.479,2.479v7.437h-7.437a2.454,2.454,0,0,0-2.479,2.479v9.915a2.455,2.455,0,0,0,2.479,2.479h7.437v7.436a2.455,2.455,0,0,0,2.479,2.479H872.4a2.455,2.455,0,0,0,2.479-2.479v-7.436h7.436a2.455,2.455,0,0,0,2.479-2.479v-9.915A2.454,2.454,0,0,0,882.316,4395.456Z" transform="translate(-824.972 -4350.505)" fill="#ed5b4b"/>
              <path id="Trazado_683559" data-name="Trazado 683559" d="M837.306,4370.606a13.578,13.578,0,0,0-2.479.248v7.188a7.436,7.436,0,1,0,14.873,0v-7.437Z" transform="translate(-824.911 -4350.445)" fill="#7a7780"/>
              <path id="Trazado_683560" data-name="Trazado 683560" d="M897.332,4370.606H884.937v7.437a7.437,7.437,0,1,0,14.874,0v-7.188A13.579,13.579,0,0,0,897.332,4370.606Z" transform="translate(-825.114 -4350.445)" fill="#57555c"/>
              <path id="Trazado_683561" data-name="Trazado 683561" d="M884.866,4397.934v9.915a2.455,2.455,0,0,1-2.479,2.479h-7.436v7.436a2.455,2.455,0,0,1-2.479,2.479h-5.123v-34.7h5.123a2.454,2.454,0,0,1,2.479,2.479v7.437h7.436A2.454,2.454,0,0,1,884.866,4397.934Z" transform="translate(-825.043 -4350.505)" fill="#ed5b4b"/>
            </g>
          </g>
          <rect id="Rectángulo_337542" data-name="Rectángulo 337542" width="137.441" height="37.846" rx="18.923" transform="translate(6.717 165.381)" fill="#0387d0"/>
          <text id="El_botiquín" data-name="El botiquín" transform="translate(17.612 174.046)" fill="#fff" font-size="17" font-family="SegoeUI-Bold, Segoe UI" font-weight="700"><tspan x="13.331" y="18">El botiquín</tspan></text>
        </g>
        <g id="Grupo_963372" data-name="Grupo 963372" transform="translate(826.177 4026.14)">
          <g id="Grupo_948387" data-name="Grupo 948387" transform="translate(0 6.285)">
            <path id="Trazado_683562" data-name="Trazado 683562" d="M675.427,4173.27a72.786,72.786,0,1,1-72.788-72.782A72.791,72.791,0,0,1,675.427,4173.27Z" transform="translate(-529.854 -4100.487)" fill="#ef9688"/>
            <path id="Trazado_683563" data-name="Trazado 683563" d="M675.52,4176.93,656.3,4157.71l-14.857,3.449-18.63,11.379-31.593-31.6-21.3,21.306-1.422-1.38-19.176.3L560.157,4172l-.4.4,23.992,24-19.369,11.834,38.178,38.179h.252A72.79,72.79,0,0,0,675.52,4176.93Z" transform="translate(-530.025 -4100.844)" fill="#ed5b4b"/>
            <path id="Trazado_683564" data-name="Trazado 683564" d="M567.988,4157.87l-11.041-.011h-7.626v3.46h7.573c.431,26.067,20.822,47.068,45.916,47.068v-50.529Z" transform="translate(-530.025 -4100.992)" fill="#726d6d"/>
            <path id="Trazado_683565" data-name="Trazado 683565" d="M656.78,4157.859l-7.626.011H636.577l-33.292-.011v50.529c25.1,0,45.488-21,45.919-47.068h7.576Z" transform="translate(-530.501 -4100.992)" fill="#332f2f"/>
            <path id="Trazado_683566" data-name="Trazado 683566" d="M636.524,4175.239l-14.849-.009v31.731h14.849Z" transform="translate(-530.663 -4101.145)" fill="#ef9688"/>
            <path id="Trazado_683567" data-name="Trazado 683567" d="M636.524,4173.643H621.674v1.574l14.849.009Z" transform="translate(-530.663 -4101.131)" fill="#726d6d"/>
            <rect id="Rectángulo_337531" data-name="Rectángulo 337531" width="14.849" height="1.58" transform="translate(91.012 105.817)" fill="#726d6d"/>
            <rect id="Rectángulo_337532" data-name="Rectángulo 337532" width="14.841" height="31.723" transform="translate(105.861 74.094)" fill="#ed5b4b"/>
            <rect id="Rectángulo_337533" data-name="Rectángulo 337533" width="14.841" height="1.581" transform="translate(105.861 72.512)" fill="#332f2f"/>
            <rect id="Rectángulo_337534" data-name="Rectángulo 337534" width="14.841" height="1.58" transform="translate(105.861 105.817)" fill="#332f2f"/>
            <path id="Trazado_683568" data-name="Trazado 683568" d="M624.323,4190.75c0,5.241,5.471,9.5,12.223,9.5v-19.01C629.794,4181.243,624.323,4185.5,624.323,4190.75Z" transform="translate(-530.686 -4101.198)" fill="#fff"/>
            <path id="Trazado_683569" data-name="Trazado 683569" d="M648.871,4190.75c0-5.254-5.471-9.506-12.216-9.506v19.01C643.4,4200.253,648.871,4195.991,648.871,4190.75Z" transform="translate(-530.794 -4101.198)" fill="#dbd5d5"/>
            <path id="Trazado_683570" data-name="Trazado 683570" d="M631.052,4190.805a10.127,10.127,0,0,0-3.708-3.226l1.15,3.226Z" transform="translate(-530.712 -4101.254)" fill="#dbd5d5"/>
            <path id="Trazado_683571" data-name="Trazado 683571" d="M628.494,4190.834l-1.15,3.214a10.233,10.233,0,0,0,3.708-3.214Z" transform="translate(-530.712 -4101.282)" fill="#726d6d"/>
            <path id="Trazado_683572" data-name="Trazado 683572" d="M641.2,4187.687a7.969,7.969,0,0,0-2.707-.516,8.468,8.468,0,0,0-7.4,3.631H641.2Z" transform="translate(-530.745 -4101.25)" fill="#76b788"/>
            <path id="Trazado_683573" data-name="Trazado 683573" d="M631.085,4190.834a8.5,8.5,0,0,0,7.4,3.619,7.753,7.753,0,0,0,2.707-.517v-3.1Z" transform="translate(-530.745 -4101.282)" fill="#46916b"/>
            <path id="Trazado_683574" data-name="Trazado 683574" d="M645.918,4190.806a13.266,13.266,0,0,0-4.632-3.115v3.115Z" transform="translate(-530.835 -4101.255)" fill="#fff"/>
            <path id="Trazado_683575" data-name="Trazado 683575" d="M641.286,4190.834v3.1a13.336,13.336,0,0,0,4.632-3.1Z" transform="translate(-530.835 -4101.282)" fill="#726d6d"/>
            <path id="Trazado_683576" data-name="Trazado 683576" d="M642.547,4190.31a.555.555,0,1,1,.5-.553A.521.521,0,0,1,642.547,4190.31Z" transform="translate(-530.842 -4101.268)" fill="#726d6d"/>
            <path id="Trazado_683577" data-name="Trazado 683577" d="M589.58,4156.73c-4.709,5.657-11.7,7.6-15.613,4.336s-3.26-10.478,1.458-16.138,11.7-7.6,15.613-4.34S594.3,4151.07,589.58,4156.73Z" transform="translate(-530.22 -4100.827)" fill="#fff"/>
            <rect id="Rectángulo_337535" data-name="Rectángulo 337535" width="14.508" height="42.684" transform="translate(34.355 62.81)" fill="#ffe8a4"/>
            <rect id="Rectángulo_337536" data-name="Rectángulo 337536" width="14.508" height="1.973" transform="translate(34.355 60.836)" fill="#dbd5d5"/>
            <rect id="Rectángulo_337537" data-name="Rectángulo 337537" width="14.508" height="1.903" transform="translate(34.355 105.493)" fill="#726d6d"/>
            <rect id="Rectángulo_337538" data-name="Rectángulo 337538" width="14.511" height="42.684" transform="translate(48.863 62.81)" fill="#ffcb55"/>
            <rect id="Rectángulo_337539" data-name="Rectángulo 337539" width="14.511" height="1.973" transform="translate(48.863 60.836)" fill="#332f2f"/>
            <rect id="Rectángulo_337540" data-name="Rectángulo 337540" width="14.512" height="1.903" transform="translate(48.863 105.493)" fill="#332f2f"/>
            <path id="Trazado_683578" data-name="Trazado 683578" d="M566.578,4185.747c0,7.212,5.578,13.067,12.462,13.058v-26.117C572.164,4172.688,566.578,4178.535,566.578,4185.747Z" transform="translate(-530.177 -4101.123)" fill="#726d6d"/>
            <path id="Trazado_683579" data-name="Trazado 683579" d="M591.612,4185.747c0-7.212-5.578-13.059-12.461-13.059V4198.8C586.035,4198.8,591.612,4192.959,591.612,4185.747Z" transform="translate(-530.288 -4101.123)" fill="#332f2f"/>
            <path id="Trazado_683580" data-name="Trazado 683580" d="M581.227,4184.468l-1.242-1.241-6.345,6.357a1.24,1.24,0,1,0-.025,1.726Z" transform="translate(-530.221 -4101.216)" fill="#fff"/>
            <path id="Trazado_683581" data-name="Trazado 683581" d="M575.382,4191.317c-.022-.019,6.328-6.375,6.328-6.375l-.853-.853-7.226,7.228a1.238,1.238,0,1,0,1.751,1.751A1.232,1.232,0,0,0,575.382,4191.317Z" transform="translate(-530.236 -4101.223)" fill="#dbd5d5"/>
            <path id="Trazado_683582" data-name="Trazado 683582" d="M577.737,4181.017c-1.782,2.841-1.494,6.472-1.368,7.531l6.249-5.729,2.779-3.294C582.932,4177.251,579.612,4178.04,577.737,4181.017Z" transform="translate(-530.263 -4101.171)" fill="#ef9688"/>
            <path id="Trazado_683583" data-name="Trazado 683583" d="M583.906,4187.2a12.285,12.285,0,0,1-7.536,1.364l9.028-9.024C587.676,4182,586.884,4185.326,583.906,4187.2Z" transform="translate(-530.264 -4101.183)" fill="#ed5b4b"/>
          </g>
          <rect id="Rectángulo_337543" data-name="Rectángulo 337543" width="139.758" height="37.665" rx="18.833" transform="translate(3.697 156.661)" fill="#0387d0"/>
          <text id="Los_alimentos" data-name="Los alimentos" transform="translate(17.514 165.285)" fill="#fff" font-size="17" font-family="SegoeUI-Bold, Segoe UI" font-weight="700"><tspan x="1.73" y="18">Los alimentos</tspan></text>
        </g>
        <g id="Grupo_963371" data-name="Grupo 963371" transform="translate(664.633 4181.831)">
          <g id="Grupo_948391" data-name="Grupo 948391" transform="translate(3.814 0)">
            <path id="Trazado_683615" data-name="Trazado 683615" d="M965.658,4058.254a70.927,70.927,0,1,1-70.926-70.933A70.92,70.92,0,0,1,965.658,4058.254Z" transform="translate(-823.803 -3987.322)" fill="#ffe8a4"/>
            <path id="Trazado_683616" data-name="Trazado 683616" d="M966.267,4069.338l-42.2-40.488-7.629-.5-6.452,4.942,3.241,8.271,5.861-.1-53.026,55.918,32.988,32.993A70.942,70.942,0,0,0,966.267,4069.338Z" transform="translate(-825.098 -3988.579)" fill="#ffcb55"/>
            <g id="Grupo_948390" data-name="Grupo 948390" transform="translate(23.967 38.12)">
              <g id="Grupo_948389" data-name="Grupo 948389">
                <path id="Trazado_683617" data-name="Trazado 683617" d="M939.927,4075.006c-25.954,0-34.054,1.445-41.213,2.871-14.069,2.814-25.88,2.989-41.212,2.989l-2.929,2.929v14.649h88.283v-20.509Z" transform="translate(-848.713 -4028.129)" fill="#b37059"/>
                <path id="Trazado_683618" data-name="Trazado 683618" d="M944.252,4077.936l-2.929-2.929c-25.954,0-34.054,1.445-41.213,2.871v20.567h44.142Z" transform="translate(-850.109 -4028.129)" fill="#995a4d"/>
                <path id="Trazado_683619" data-name="Trazado 683619" d="M939.927,4053.85c-25.627,0-34.021,2.807-41.213,5.652-12.983,5.134-21.623,6.067-41.212,6.067l-2.929,2.929v14.649H857.5c15.876,0,27.536-.253,41.212-2.988,7.159-1.428,15.259-2.872,41.213-2.872h2.929v-20.508Z" transform="translate(-848.713 -4027.481)" fill="#995a4d"/>
                <path id="Trazado_683620" data-name="Trazado 683620" d="M944.252,4077.287v-20.508l-2.929-2.929c-25.627,0-34.021,2.807-41.213,5.652v20.658c7.159-1.428,15.258-2.872,41.213-2.872Z" transform="translate(-850.109 -4027.481)" fill="#804540"/>
                <path id="Trazado_683621" data-name="Trazado 683621" d="M898.714,4042.193c-5.66,4.061-13.789,7.866-44.141,8.078v17.579H857.5c17.527,0,27.326-.577,41.212-6.067,7.192-2.845,15.586-5.652,41.213-5.652h2.929v-23.438c-16.691.123-30.667-.165-44.142,9.5Z" transform="translate(-848.713 -4026.833)" fill="#b37059"/>
                <path id="Trazado_683622" data-name="Trazado 683622" d="M944.252,4056.13v-23.438c-16.691.124-30.667-.165-44.142,9.5v19.589c7.192-2.845,15.586-5.652,41.213-5.652Z" transform="translate(-850.109 -4026.833)" fill="#995a4d"/>
                <path id="Trazado_683623" data-name="Trazado 683623" d="M945.6,4026.647c-26.3,0-38.843,2.439-47.072,6.292a48.678,48.678,0,0,0-8.792,5.427c-3.479,2.609-8.006,5.86-38.279,5.86h-2.929v11.719h2.929c32.765,0,41.231-3.92,47.071-8.087.6-.428,1.184-.859,1.757-1.288,5.379-4.031,11.133-8.2,45.315-8.2h2.929v-11.72Z" transform="translate(-848.528 -4026.647)" fill="#a0e65c"/>
                <path id="Trazado_683624" data-name="Trazado 683624" d="M947.182,4038.366h2.929v-11.72h-2.929c-26.3,0-38.843,2.439-47.072,6.292v14.918c.6-.428,1.184-.859,1.757-1.288C907.246,4042.538,913,4038.366,947.182,4038.366Z" transform="translate(-850.109 -4026.647)" fill="#79cc52"/>
              </g>
            </g>
          </g>
          <rect id="Rectángulo_337544" data-name="Rectángulo 337544" width="146.095" height="36.835" rx="18.418" transform="translate(0 149.161)" fill="#0387d0"/>
          <text id="El_terreno" data-name="El terreno" transform="translate(22.93 157.594)" fill="#fff" font-size="17" font-family="SegoeUI-Bold, Segoe UI" font-weight="700"><tspan x="16.426" y="18">El terreno</tspan></text>
        </g>
        <g id="Grupo_963370" data-name="Grupo 963370" transform="translate(503.089 4023.434)">
          <g id="Grupo_948388" data-name="Grupo 948388" transform="translate(0 4.981)">
            <path id="Trazado_683584" data-name="Trazado 683584" d="M699.282,3914.962a72.623,72.623,0,1,1-72.623-72.625A72.625,72.625,0,0,1,699.282,3914.962Z" transform="translate(-554.036 -3842.337)" fill="#367547"/>
            <path id="Trazado_683585" data-name="Trazado 683585" d="M698.977,3925.016,650.462,3876.5l-2.311,4.295-14.188-14.19-12.57.447-2.523,6.025,19.741,25.472-14.974,27.858-1.361-1.351L594.3,3953.03l9.77,9.777-.56,1.041,23.955,23.959A72.632,72.632,0,0,0,698.977,3925.016Z" transform="translate(-554.412 -3842.564)" fill="#255232"/>
            <path id="Trazado_683586" data-name="Trazado 683586" d="M624.294,3864.915a5.569,5.569,0,0,0-5.563,5.567v3.15h2.9v-3.15a2.667,2.667,0,0,1,2.663-2.667h2.965v-2.9Z" transform="translate(-554.64 -3842.547)" fill="#726d6d"/>
            <path id="Trazado_683587" data-name="Trazado 683587" d="M632.961,3870.482v3.15h2.9v-3.15a5.573,5.573,0,0,0-5.57-5.567H627.34v2.9h2.951A2.671,2.671,0,0,1,632.961,3870.482Z" transform="translate(-554.721 -3842.547)" fill="#332f2f"/>
            <path id="Trazado_683588" data-name="Trazado 683588" d="M598.477,3955.34h28.554v-33.882H598.477a5.793,5.793,0,0,0-5.8,5.793v22.288A5.8,5.8,0,0,0,598.477,3955.34Z" transform="translate(-554.397 -3843.076)" fill="#ffe8a4"/>
            <path id="Trazado_683589" data-name="Trazado 683589" d="M593.4,3937.193a1.936,1.936,0,0,1-1.935-1.926v-1.455a1.931,1.931,0,0,1,1.935-1.928H627.02v5.309Z" transform="translate(-554.386 -3843.173)" fill="#ef9688"/>
            <path id="Trazado_683590" data-name="Trazado 683590" d="M615.881,3934.543a1.832,1.832,0,1,1-1.834-1.834A1.837,1.837,0,0,1,615.881,3934.543Z" transform="translate(-554.579 -3843.181)" fill="#fff"/>
            <path id="Trazado_683591" data-name="Trazado 683591" d="M607.749,3966.289h19.368V3955.66H601.949v5.31A5.579,5.579,0,0,0,607.749,3966.289Z" transform="translate(-554.484 -3843.396)" fill="#726d6d"/>
            <path id="Trazado_683592" data-name="Trazado 683592" d="M611.423,3896.492a11.922,11.922,0,0,1-11.134-7.435v32.1H627.1v-24.664Z" transform="translate(-554.468 -3842.773)" fill="#ef9688"/>
            <path id="Trazado_683593" data-name="Trazado 683593" d="M606.273,3874.608a11.582,11.582,0,0,0-5.984,10.148v4.166a11.788,11.788,0,0,0,6.724,6.61Q607.082,3885.073,606.273,3874.608Z" transform="translate(-554.468 -3842.638)" fill="#ffe8a4"/>
            <path id="Trazado_683594" data-name="Trazado 683594" d="M611.984,3873.142c-.19,0-.37.024-.561.034q.933,11.569.829,23.167h14.954v-23.2Z" transform="translate(-554.572 -3842.624)" fill="#ffe8a4"/>
            <path id="Trazado_683595" data-name="Trazado 683595" d="M611.322,3873.176a11.514,11.514,0,0,0-5.046,1.419q.808,10.456.74,20.923a250.484,250.484,0,0,1-6.364,54.354c1.672.379,3.331.767,5,1.153a255.6,255.6,0,0,0,6.5-54.682Q612.266,3884.75,611.322,3873.176Z" transform="translate(-554.471 -3842.625)" fill="#726d6d"/>
            <path id="Trazado_683596" data-name="Trazado 683596" d="M605.893,3901.147l-.263,7.445a2.054,2.054,0,0,0,2.082,2.013l2.778.1a2.054,2.054,0,0,0,2.221-1.85l.263-7.451a2.05,2.05,0,0,0-2.085-2.007l-2.775-.1A2.051,2.051,0,0,0,605.893,3901.147Zm3.255,8.109a1.905,1.905,0,0,1-1.816-2l.078-2.143a1.886,1.886,0,1,1,3.768.129l-.078,2.152A1.9,1.9,0,0,1,609.148,3909.256Z" transform="translate(-554.518 -3842.869)" fill="#dbd5d5"/>
            <path id="Trazado_683597" data-name="Trazado 683597" d="M610.613,3907.363l-2.786-.1a2.054,2.054,0,0,1-2.081-2.005l.148-4.106a2.051,2.051,0,0,1,2.221-1.85l2.775.1a2.05,2.05,0,0,1,2.085,2.007l-.144,4.1A2.053,2.053,0,0,1,610.613,3907.363Z" transform="translate(-554.519 -3842.869)" fill="#fff"/>
            <path id="Trazado_683598" data-name="Trazado 683598" d="M655.883,3955.34h-28.55v-33.882h28.55a5.789,5.789,0,0,1,5.792,5.793v22.288A5.8,5.8,0,0,1,655.883,3955.34Z" transform="translate(-554.721 -3843.076)" fill="#ffcb55"/>
            <path id="Trazado_683599" data-name="Trazado 683599" d="M660.955,3937.193a1.936,1.936,0,0,0,1.934-1.926v-1.455a1.931,1.931,0,0,0-1.934-1.928H627.333v5.309Z" transform="translate(-554.721 -3843.173)" fill="#ed5b4b"/>
            <path id="Trazado_683600" data-name="Trazado 683600" d="M638.775,3934.543a1.831,1.831,0,1,0,1.834-1.834A1.832,1.832,0,0,0,638.775,3934.543Z" transform="translate(-554.828 -3843.181)" fill="#dbd5d5"/>
            <path id="Trazado_683601" data-name="Trazado 683601" d="M646.7,3966.289H627.333V3955.66H652.5s0,2.376,0,5.31A5.579,5.579,0,0,1,646.7,3966.289Z" transform="translate(-554.721 -3843.396)" fill="#332f2f"/>
            <path id="Trazado_683602" data-name="Trazado 683602" d="M643.011,3896.492a11.949,11.949,0,0,0,11.145-7.435l-.011,32.1H627.333v-24.664Z" transform="translate(-554.721 -3842.773)" fill="#ed5b4b"/>
            <path id="Trazado_683603" data-name="Trazado 683603" d="M648.351,3874.608a11.574,11.574,0,0,1,5.984,10.148l.011,4.166a11.832,11.832,0,0,1-6.737,6.61Q647.544,3885.073,648.351,3874.608Z" transform="translate(-554.91 -3842.638)" fill="#ffcb55"/>
            <path id="Trazado_683604" data-name="Trazado 683604" d="M642.555,3873.142c.19,0,.373.024.557.024q-.932,11.583-.826,23.177H627.333v-23.2Z" transform="translate(-554.721 -3842.624)" fill="#ffcb55"/>
            <path id="Trazado_683605" data-name="Trazado 683605" d="M643.253,3873.167a11.654,11.654,0,0,1,5.049,1.429q-.8,10.455-.743,20.923a250.683,250.683,0,0,0,6.368,54.354q-2.508.569-5,1.153a255.6,255.6,0,0,1-6.5-54.682Q642.314,3884.751,643.253,3873.167Z" transform="translate(-554.862 -3842.625)" fill="#332f2f"/>
            <path id="Trazado_683606" data-name="Trazado 683606" d="M646.5,3899.3l-2.774.1a2.051,2.051,0,0,0-2.086,2.007l.259,7.451a2.058,2.058,0,0,0,2.222,1.85l2.782-.1a2.048,2.048,0,0,0,2.082-2.013l-.259-7.445A2.054,2.054,0,0,0,646.5,3899.3Zm-2.986,8.1-.072-2.152a1.883,1.883,0,1,1,3.762-.129l.075,2.143a1.885,1.885,0,1,1-3.765.138Z" transform="translate(-554.854 -3842.869)" fill="#dbd5d5"/>
            <path id="Trazado_683607" data-name="Trazado 683607" d="M644.01,3907.363l2.778-.1a2.051,2.051,0,0,0,2.086-2.005l-.144-4.106a2.054,2.054,0,0,0-2.226-1.85l-2.774.1a2.051,2.051,0,0,0-2.086,2.007l.152,4.1A2.041,2.041,0,0,0,644.01,3907.363Z" transform="translate(-554.854 -3842.869)" fill="#fff"/>
            <path id="Trazado_683608" data-name="Trazado 683608" d="M614.645,3898.936a.5.5,0,0,0,.215.68c.215.077.484-.1.6-.4,1.572-3.95,5.779-9,11.773-9.3v-.851C621.363,3889.365,616.611,3893.9,614.645,3898.936Z" transform="translate(-554.602 -3842.773)" fill="#726d6d"/>
            <path id="Trazado_683609" data-name="Trazado 683609" d="M619.369,3906.12a8.522,8.522,0,0,1,.272-7.281,9.089,9.089,0,0,1,7.624-5.568v-.844a9.909,9.909,0,0,0-8.407,6.059,9.325,9.325,0,0,0-.272,8,8.781,8.781,0,0,0,5.643,4.69,11.355,11.355,0,0,0,3.036.456v-.852a10.555,10.555,0,0,1-2.793-.422A7.925,7.925,0,0,1,619.369,3906.12Z" transform="translate(-554.632 -3842.805)" fill="#726d6d"/>
            <path id="Trazado_683610" data-name="Trazado 683610" d="M624.384,3912.154a10.338,10.338,0,0,1-6.655-5.121,9.6,9.6,0,0,1-.28-7.634c.991-2.624,4.63-7.5,9.8-7.84v-.852c-5.61.336-9.534,5.567-10.6,8.39a10.468,10.468,0,0,0,.323,8.315,11.094,11.094,0,0,0,7.175,5.559,10.119,10.119,0,0,0,3.1.406v-.853A9.6,9.6,0,0,1,624.384,3912.154Z" transform="translate(-554.614 -3842.789)" fill="#726d6d"/>
            <path id="Trazado_683611" data-name="Trazado 683611" d="M638.567,3904.832a12.631,12.631,0,0,0-.753-10.259,10.678,10.678,0,0,0-7.075-5.224,12.676,12.676,0,0,0-3.116-.311l-.268.026v.851a11.892,11.892,0,0,1,3.194.268,9.681,9.681,0,0,1,6.516,4.812,11.752,11.752,0,0,1,.7,9.561,11.6,11.6,0,0,1-10.409,7.952v.853A12.441,12.441,0,0,0,638.567,3904.832Z" transform="translate(-554.721 -3842.773)" fill="#332f2f"/>
            <path id="Trazado_683612" data-name="Trazado 683612" d="M630.1,3891.8a8.2,8.2,0,0,1,5.836,4.458,10.5,10.5,0,0,1,.051,8.175c-1.5,3.082-4.157,6.387-8.636,6.327v.852c3.941.035,7.214-2.305,9.4-6.807a11.423,11.423,0,0,0-.036-8.909,9.022,9.022,0,0,0-6.411-4.921,9.466,9.466,0,0,0-2.95-.267v.852A8.747,8.747,0,0,1,630.1,3891.8Z" transform="translate(-554.721 -3842.789)" fill="#332f2f"/>
            <path id="Trazado_683613" data-name="Trazado 683613" d="M629.523,3893.355a5.973,5.973,0,0,1,5.262,5.336c.05.311.265.542.5.517a.486.486,0,0,0,.352-.61,6.8,6.8,0,0,0-6-6.093,12.943,12.943,0,0,0-1.963-.1c-.111,0-.212.018-.319.025v.844A11.083,11.083,0,0,1,629.523,3893.355Z" transform="translate(-554.721 -3842.804)" fill="#332f2f"/>
            <path id="Trazado_683614" data-name="Trazado 683614" d="M627.08,3888.013l.571-.007a1.548,1.548,0,0,1,1.547,1.54l.011,4.037a1.532,1.532,0,0,1-1.533,1.54l-.567.008a1.538,1.538,0,0,1-1.543-1.53l-.015-4.045A1.54,1.54,0,0,1,627.08,3888.013Z" transform="translate(-554.704 -3842.763)" fill="#ed5b4b"/>
          </g>
          <rect id="Rectángulo_337545" data-name="Rectángulo 337545" width="139.683" height="37.645" rx="18.823" transform="translate(2.524 159.387)" fill="#0387d0"/>
          <text id="El_morral" data-name="El morral" transform="translate(16.333 168.006)" fill="#fff" font-size="17" font-family="SegoeUI-Bold, Segoe UI" font-weight="700"><tspan x="20.446" y="18">El morral</tspan></text>
        </g>
        <g id="Grupo_963369" data-name="Grupo 963369" transform="translate(341.544 4180.444)">
          <g id="Grupo_948395" data-name="Grupo 948395" transform="translate(0 0)">
            <path id="Trazado_683643" data-name="Trazado 683643" d="M868.494,3786.885a73.165,73.165,0,1,1-73.17-73.165A73.165,73.165,0,0,1,868.494,3786.885Z" transform="translate(-722.163 -3713.72)" fill="#ffe8a4"/>
            <path id="Trazado_683644" data-name="Trazado 683644" d="M867.2,3802.581l-45.033-45.549L803.3,3773.716l-18.312-18.311-18.519,18.522L783.65,3791.1l-33.944,25.621-.9,5.2,38.038,38.042a71.732,71.732,0,0,0,8.477.844C832.569,3862.229,864.815,3828.187,867.2,3802.581Z" transform="translate(-722.458 -3714.181)" fill="#ffcb55"/>
            <g id="Grupo_948394" data-name="Grupo 948394" transform="translate(23.914 14.282)">
              <path id="Trazado_683645" data-name="Trazado 683645" d="M747.256,3809.992c-1.5.715-1.1,4.692.887,8.873l2.728-1.3,2.729-1.3,35.194-16.766c-1.11-2.332-1.344-4.536-.523-4.923Z" transform="translate(-746.344 -3728.896)" fill="#726d6d"/>
              <path id="Trazado_683646" data-name="Trazado 683646" d="M788.814,3799.555l-35.194,16.766-2.729,1.3-2.728,1.3c1.994,4.186,4.831,6.995,6.343,6.283l37.8-22.138C791.489,3803.453,789.927,3801.882,788.814,3799.555Z" transform="translate(-746.364 -3728.951)" fill="#332f2f"/>
              <path id="Trazado_683647" data-name="Trazado 683647" d="M788.734,3794.576c-.821.387-.586,2.591.523,4.923s2.674,3.9,3.495,3.509.586-2.6-.523-4.927S789.551,3794.184,788.734,3794.576Z" transform="translate(-746.808 -3728.896)" fill="#726d6d"/>
              <path id="Trazado_683648" data-name="Trazado 683648" d="M840.835,3809.992c1.506.715,1.109,4.692-.885,8.873l-2.729-1.3-2.725-1.3L799.3,3799.5c1.11-2.332,1.344-4.536.526-4.923Z" transform="translate(-746.93 -3728.896)" fill="#726d6d"/>
              <path id="Trazado_683649" data-name="Trazado 683649" d="M799.26,3799.555l35.2,16.766,2.725,1.3,2.729,1.3c-1.992,4.186-4.833,6.995-6.339,6.283l-37.808-22.138C796.588,3803.456,798.147,3801.882,799.26,3799.555Z" transform="translate(-746.891 -3728.951)" fill="#332f2f"/>
              <path id="Trazado_683650" data-name="Trazado 683650" d="M799.781,3794.576c.818.387.583,2.591-.526,4.923s-2.672,3.9-3.5,3.509-.582-2.6.524-4.927S798.961,3794.184,799.781,3794.576Z" transform="translate(-746.885 -3728.896)" fill="#726d6d"/>
              <path id="Trazado_683651" data-name="Trazado 683651" d="M824.873,3830.821c.944,1.289-1.207,4.45-4.788,7.066l-1.7-2.336-1.711-2.336-22.006-30.15c1.992-1.46,3.2-3.207,2.681-3.907Z" transform="translate(-746.879 -3728.947)" fill="#726d6d"/>
              <path id="Trazado_683652" data-name="Trazado 683652" d="M794.614,3803.109l22.006,30.15,1.711,2.336,1.7,2.336c-3.588,2.618-7.253,3.7-8.2,2.4l-21.76-35.859C790.582,3805.178,792.615,3804.564,794.614,3803.109Z" transform="translate(-746.828 -3728.991)" fill="#332f2f"/>
              <path id="Trazado_683653" data-name="Trazado 683653" d="M797.294,3799.155c.517.7-.689,2.447-2.681,3.907s-4.032,2.069-4.542,1.363.682-2.456,2.679-3.911S796.783,3798.451,797.294,3799.155Z" transform="translate(-746.826 -3728.944)" fill="#726d6d"/>
              <path id="Trazado_683654" data-name="Trazado 683654" d="M764.038,3830.821c-.944,1.289,1.206,4.45,4.789,7.066l1.7-2.336,1.711-2.336,22.009-30.15c-1.995-1.46-3.2-3.207-2.681-3.907Z" transform="translate(-746.537 -3728.947)" fill="#726d6d"/>
              <path id="Trazado_683655" data-name="Trazado 683655" d="M794.3,3803.109l-22.009,30.15-1.711,2.336-1.7,2.336c3.588,2.618,7.256,3.7,8.205,2.4l21.757-35.859C798.335,3805.178,796.3,3804.564,794.3,3803.109Z" transform="translate(-746.594 -3728.991)" fill="#332f2f"/>
              <path id="Trazado_683656" data-name="Trazado 683656" d="M791.877,3799.155c-.52.7.686,2.447,2.681,3.907s4.03,2.069,4.539,1.363-.682-2.456-2.679-3.911S792.385,3798.451,791.877,3799.155Z" transform="translate(-746.846 -3728.944)" fill="#726d6d"/>
              <path id="Trazado_683657" data-name="Trazado 683657" d="M822,3751.861s.034,5.446-3.129,7.535c-1.066-14.89-18.5-26.136-18.5-26.136s5.122,12.036-2.511,21.147c1.095-21.632-21.6-26.245-21.6-26.245s9.486,11.2,6.815,26.381c-1.737-9.479-12.455-13.271-12.455-13.271s8.536,9.14.348,22.052c-12.707,20.037,10.066,35.294,21.292,41.29a56.859,56.859,0,0,0,5.411,2.5c1.1-4.242,4.035-9.143,10.942-13.116.469-.264.883-.537,1.381-.794C840.844,3777.33,822,3751.861,822,3751.861Z" transform="translate(-746.575 -3728.162)" fill="#ed5b4b"/>
              <path id="Trazado_683658" data-name="Trazado 683658" d="M821.7,3773.76a18.947,18.947,0,0,0-.106-8.671l-7.564,4.984c4.274-13.026-5.626-18.636-8.638-22.249,1.032,8.806-7.308,20.8-13.919,23.772,9.106-18.051-.547-26.335-2.947-29.33.837,4.119-.881,19.014-7.318,27.1l-2.608-7.845a30.143,30.143,0,0,1-2.769,5.483c-2.679,4.226-3.471,8.238-2.417,12.24,1.845,7.013,9.672,14.659,21.464,20.981a29.561,29.561,0,0,1,11.024-10.45l.4-.234c.389-.236.783-.472,1.212-.691C815.519,3784.732,820.292,3779.659,821.7,3773.76Z" transform="translate(-746.639 -3728.318)" fill="#ffcb55"/>
            </g>
          </g>
          <rect id="Rectángulo_337546" data-name="Rectángulo 337546" width="146.363" height="37.58" rx="18.79" transform="translate(0.416 149.804)" fill="#0387d0"/>
          <text id="La_fogata" data-name="La fogata" transform="translate(13.785 158.408)" fill="#fff" font-size="17" font-family="SegoeUI-Bold, Segoe UI" font-weight="700"><tspan x="22.603" y="18">La fogata</tspan></text>
        </g>
        <g id="Grupo_963368" data-name="Grupo 963368" transform="translate(180 4009.338)">
          <g id="Grupo_948393" data-name="Grupo 948393" transform="translate(0.284 9.916)">
            <path id="Trazado_683625" data-name="Trazado 683625" d="M708.73,3675.107a72.962,72.962,0,1,1-72.962-72.961A72.958,72.958,0,0,1,708.73,3675.107Z" transform="translate(-562.807 -3602.146)" fill="#ef9688"/>
            <path id="Trazado_683626" data-name="Trazado 683626" d="M704.752,3699.239l-38.673-38.705-12.116,8.15-22.247-22.243-18.848,18.854,17.454,17.458-6.941,3.225L592.6,3705.1l42.9,42.9c.307.008.609.023.912.023C668.141,3748.028,694.385,3728.376,704.752,3699.239Z" transform="translate(-562.878 -3602.25)" fill="#ed5b4b"/>
            <g id="Grupo_948392" data-name="Grupo 948392" transform="translate(13.793 20.406)">
              <path id="Trazado_683627" data-name="Trazado 683627" d="M654.287,3632.267l-18.346,7.24v-14.481Z" transform="translate(-576.774 -3622.606)" fill="#ffcb55"/>
              <path id="Trazado_683628" data-name="Trazado 683628" d="M636.89,3663.985v-40.147a.987.987,0,1,0-1.91,0v40.147Z" transform="translate(-576.771 -3622.6)" fill="#332f2f"/>
              <path id="Trazado_683629" data-name="Trazado 683629" d="M577.257,3701.618h1.283v-1.261Z" transform="translate(-576.635 -3622.785)"/>
              <path id="Trazado_683630" data-name="Trazado 683630" d="M693.338,3701.618h1.286l-1.286-1.261Z" transform="translate(-576.91 -3622.785)"/>
              <path id="Trazado_683631" data-name="Trazado 683631" d="M695.249,3702.234v-.613h-.621Z" transform="translate(-576.913 -3622.787)"/>
              <path id="Trazado_683632" data-name="Trazado 683632" d="M588.31,3693.132v8.358h47.518v-55.05Z" transform="translate(-576.661 -3622.656)" fill="#332f2f"/>
              <path id="Trazado_683633" data-name="Trazado 683633" d="M683.462,3693.132l-47.521-46.692v55.05h47.521Z" transform="translate(-576.774 -3622.656)" fill="#ffcb55"/>
              <path id="Trazado_683634" data-name="Trazado 683634" d="M588.31,3693.132v5.968a30.588,30.588,0,0,0,11.826,2.391c19.714,0,35.693-18.955,35.693-42.334V3646.44Z" transform="translate(-576.661 -3622.656)" fill="#ffe8a4"/>
              <path id="Trazado_683635" data-name="Trazado 683635" d="M635.829,3646.44,588.31,3693.1v8.355c18.914-14.7,46.437-38.2,47.519-48.247v-6.451A2.632,2.632,0,0,1,635.829,3646.44Z" transform="translate(-576.661 -3622.656)" fill="#726d6d"/>
              <path id="Trazado_683636" data-name="Trazado 683636" d="M635.942,3646.44l47.52,46.659v8.355c-18.914-14.7-46.438-38.2-47.52-48.247v-6.451A2.422,2.422,0,0,0,635.942,3646.44Z" transform="translate(-576.774 -3622.656)" fill="#332f2f"/>
              <path id="Trazado_683637" data-name="Trazado 683637" d="M588.287,3690.65l-9.743,9.573v1.261h1.545l8.2-8.358,47.518-46.692v-2.475Z" transform="translate(-576.637 -3622.651)" fill="#726d6d"/>
              <path id="Trazado_683638" data-name="Trazado 683638" d="M683.462,3690.65l-47.521-46.69v2.475l47.521,46.692,8.2,8.358H693.2v-1.261Z" transform="translate(-576.774 -3622.651)" fill="#332f2f"/>
              <path id="Trazado_683639" data-name="Trazado 683639" d="M576.633,3687.042v16.45h3.454v-16.45a1.235,1.235,0,0,0-1.237-1.233h-.981A1.236,1.236,0,0,0,576.633,3687.042Z" transform="translate(-576.633 -3622.75)" fill="#726d6d"/>
              <path id="Trazado_683640" data-name="Trazado 683640" d="M691.79,3687.042v16.45h3.452v-16.45a1.235,1.235,0,0,0-1.236-1.233h-.978A1.235,1.235,0,0,0,691.79,3687.042Z" transform="translate(-576.906 -3622.75)" fill="#332f2f"/>
              <path id="Trazado_683641" data-name="Trazado 683641" d="M588.283,3701.621h-11.65v1.908H635.8v-1.908Z" transform="translate(-576.633 -3622.787)" fill="#726d6d"/>
              <path id="Trazado_683642" data-name="Trazado 683642" d="M694.488,3701.621H635.941v1.908H695.11v-1.295Z" transform="translate(-576.774 -3622.787)" fill="#332f2f"/>
            </g>
          </g>
          <rect id="Rectángulo_337547" data-name="Rectángulo 337547" width="147" height="37" rx="18.5" transform="translate(-0.5 163.032)" fill="#0387d0"/>
          <text id="La_carpa" data-name="La carpa" transform="translate(7.982 169.291)" fill="#fff" font-size="17" font-family="SegoeUI-Bold, Segoe UI" font-weight="700"><tspan x="23.803" y="18">La carpa</tspan></text>
        </g>
      </g>
    </g>
  </g>
</svg>
