<svg id="Grupo_962331" data-name="Grupo 962331" xmlns="http://www.w3.org/2000/svg" xmlns:xlink="http://www.w3.org/1999/xlink" width="91.125" height="90.974" viewBox="0 0 91.125 90.974">
  <defs>
    <clipPath id="clip-path">
      <rect id="Rectángulo_40212" data-name="Rectángulo 40212" width="91.125" height="90.974" fill="none"/>
    </clipPath>
  </defs>
  <g id="Grupo_926809" data-name="Grupo 926809" transform="translate(0 0)">
    <circle id="Elipse_4803" data-name="Elipse 4803" cx="43.963" cy="43.963" r="43.963" transform="translate(1.599 1.494)" fill="#fff"/>
    <g id="Grupo_211670" data-name="Grupo 211670">
      <g id="Grupo_211669" data-name="Grupo 211669" clip-path="url(#clip-path)">
        <path id="Trazado_146009" data-name="Trazado 146009" d="M45.3,0A45.487,45.487,0,1,0,91.125,45.37,45.564,45.564,0,0,0,45.3,0M45.27,89.185A43.7,43.7,0,1,1,89.325,45.554,43.713,43.713,0,0,1,45.27,89.185" transform="translate(0 0)" fill="#406834"/>
      </g>
    </g>
  </g>
  <g id="acampar" transform="translate(19.831 18.542)">
    <path id="Trazado_700210" data-name="Trazado 700210" d="M41.687,26.754a8.771,8.771,0,0,0-7.227,3.809L26.69,18.009l3.68-5.152-1.3-.927-2.543,3.559V10h-1.6v5.489L22.391,11.93l-1.3.927,3.68,5.152L17.3,30.075l-2.179-1.937a2.9,2.9,0,0,0,.614-5.057l-1.3-.929a2.553,2.553,0,0,0,.922-1.956,2.584,2.584,0,0,0-.562-1.606l-2.3-2.88h0a2.458,2.458,0,0,0-3.838,0l-2.3,2.881a2.582,2.582,0,0,0-.562,1.605,2.555,2.555,0,0,0,.922,1.956l-1.3.93a2.9,2.9,0,0,0,.615,5.056L3.6,30.287a2.984,2.984,0,0,0,.611,4.889L1.894,37.5a3.054,3.054,0,0,0,2.16,5.214H8.18v2.1L4.31,51.065a.8.8,0,0,0,.679,1.217H46.474a.8.8,0,0,0,.679-1.218l-2.074-3.349c2.36-3.838,5.384-9.318,5.384-12.186a8.786,8.786,0,0,0-8.776-8.776Zm0,1.6a7.188,7.188,0,0,1,7.18,7.18c0,3.107-4.7,10.8-7.18,14.533-2.483-3.73-7.18-11.427-7.18-14.533A7.188,7.188,0,0,1,41.687,28.349ZM25.731,38.04l6.657,12.647H19.075ZM17.6,50.058l-2.724-3.269L23.052,39.7ZM28.411,39.7l8.173,7.084L33.86,50.058Zm9.713,7.729c.8,1.31,1.533,2.447,2.065,3.253H35.413Zm-1.694-2.89-9.9-8.581V20.782l7.052,11.392a8.731,8.731,0,0,0-.669,3.355C32.912,37.669,34.6,41.262,36.431,44.543ZM7.6,19.587l2.3-2.88a.861.861,0,0,1,1.347,0l2.3,2.879a.975.975,0,0,1-.761,1.584H8.356A.973.973,0,0,1,7.6,19.587ZM6.335,24.379l2.26-1.614h3.957l2.26,1.614a1.31,1.31,0,0,1-.761,2.375H7.1a1.31,1.31,0,0,1-.761-2.375Zm-1.672,7.1,3.521-3.131h4.78l3.49,3.1-1.537,2.483H5.6a1.4,1.4,0,0,1-.933-2.454ZM2.6,39.655a1.47,1.47,0,0,1,.427-1.032l3.095-3.095h7.81l-3.457,5.585H4.054A1.46,1.46,0,0,1,2.6,39.655ZM24.934,20.782v15.18L13.242,46.1a.8.8,0,0,0-.09,1.114l2.9,3.478H6.421ZM45.042,50.687H43.185c.27-.409.593-.9.949-1.465Z" transform="translate(0 -1.82)" fill="#406834"/>
    <path id="Trazado_700211" data-name="Trazado 700211" d="M50.787,45.573A4.787,4.787,0,1,0,46,40.787,4.792,4.792,0,0,0,50.787,45.573Zm0-7.978A3.191,3.191,0,1,1,47.6,40.787,3.194,3.194,0,0,1,50.787,37.6Z" transform="translate(-9.1 -7.077)" fill="#406834"/>
    <path id="Trazado_700212" data-name="Trazado 700212" d="M50.978,1a7.978,7.978,0,1,0,7.978,7.978A7.987,7.987,0,0,0,50.978,1Zm0,14.36A6.382,6.382,0,1,1,57.36,8.978,6.39,6.39,0,0,1,50.978,15.36Z" transform="translate(-8.493)" fill="#406834"/>
  </g>
</svg>
