<svg xmlns="http://www.w3.org/2000/svg" width="1162" height="505.342" viewBox="0 0 1162 505.342">
  <g id="Grupo_962311" data-name="Grupo 962311" transform="translate(-180 -6695)">
    <g id="Grupo_962119" data-name="Grupo 962119" transform="translate(180.001 6709.965)">
      <path id="Trazado_700047" data-name="Trazado 700047" d="M44.4,3376.4h1162v487.8H44.4V3376.4Z" transform="translate(-44.402 -3376.395)" fill="#f8ecd2" fill-rule="evenodd"/>
    </g>
    <g id="Grupo_962120" data-name="Grupo 962120" transform="translate(180.001 6712.545)">
      <path id="Trazado_700048" data-name="Trazado 700048" d="M44.4,3438.4l339.494.937c22.247.06,104.616.633,50.271,26.124-30.83,14.462-146.367,23.512-182.989,26.124-46.31,3.3,689.925,5.288,331.794,51.243-110.1,14.128,105.48,26.562,121.658,26.123,322.167-8.719,454.731,9.26,501.771-6.04V3479.56c-18.237,1.961-43.549-1.041-73.455-1.041-7.931,0-95.355.1-84.457-7.034,4.681-3.064,78.729-15.36,53.289-22.1-39.686-10.522-88.439-7.034-130.707-7.034-67.369,0-129.416-17.081-194.049-17.081-5.053,0-30.327-.544-28.152-4.019,7.5-12,82.807-10.61,99.538-8.038,117.126,18.006,241.53-2.817,357.993-5.7v-28.358H44.4V3438.4Z" transform="translate(-44.402 -3379.149)" fill="#f8e1b8" fill-rule="evenodd"/>
    </g>
    <g id="Grupo_962121" data-name="Grupo 962121" transform="translate(932.729 6771.629)">
      <path id="Trazado_700049" data-name="Trazado 700049" d="M994.453,3467.347c-5.961-14.484-25.9-25.149-49.639-25.149-18.28,0-34.3,6.335-43.439,15.853a62.68,62.68,0,0,0-11.914-1.144c-23.431,0-42.433,12.594-42.433,28.124s19,28.125,42.433,28.125c11.18,0,21.32-2.89,28.9-7.575a71.8,71.8,0,0,0,26.453,4.889,73.126,73.126,0,0,0,23.26-3.71c6.2,3.919,14.583,6.339,23.828,6.339,19.094,0,34.579-10.263,34.579-22.919C1026.48,3478.1,1012.352,3468.216,994.453,3467.347Z" transform="translate(-847.028 -3442.198)" fill="#fffcec" fill-rule="evenodd"/>
    </g>
    <g id="Grupo_962122" data-name="Grupo 962122" transform="translate(180.001 7096.506)">
      <rect id="Rect치ngulo_337719" data-name="Rect치ngulo 337719" width="1161.999" height="103.836" fill="#aed366"/>
    </g>
    <g id="Grupo_962124" data-name="Grupo 962124" transform="translate(180 6695)">
      <g id="Grupo_962123" data-name="Grupo 962123" transform="translate(0)">
        <rect id="Rect치ngulo_337720" data-name="Rect치ngulo 337720" width="1161.27" height="17.787" fill="#eb6f2d"/>
      </g>
    </g>
    <g id="Grupo_962125" data-name="Grupo 962125" transform="translate(830.01 7013.691)">
      <path id="Trazado_700050" data-name="Trazado 700050" d="M769.909,3700.51l30.6,28.822,18.794-14.662,42.391,48.412-27.748-12.334-28.11,11.031,22.071-18.213-13.165-4.271-16.013,6.76,6.406-9.607-34.872,21.35,20.994-23.129-13.521-11.031-18.147,6.4,9.607-15.656c-9.3,6.948-20.072,12.426-31.669,17.079l32.38-30.957Z" transform="translate(-737.529 -3700.51)" fill="#ecdaaf" fill-rule="evenodd"/>
    </g>
    <g id="Grupo_962134" data-name="Grupo 962134" transform="translate(189.631 6956.617)">
      <g id="Grupo_962126" data-name="Grupo 962126" transform="translate(255.569 26.497)">
        <path id="Trazado_700051" data-name="Trazado 700051" d="M327.4,3781.5l48.641-32.68,7.22,5.7,37.62-33.82,6.46,7.219,44.84-43.32,5.7,4.56,24.32-21.281,34.961,34.58,9.88-8.36,31.16,29.64,20.995-14.9,64.126,72.279-335.923.38Z" transform="translate(-327.402 -3667.88)" fill="#c1d5df" fill-rule="evenodd"/>
      </g>
      <g id="Grupo_962127" data-name="Grupo 962127" transform="translate(439.871 51.433)">
        <path id="Trazado_700052" data-name="Trazado 700052" d="M558.656,3694.49l32.68,30.78,20.071-15.658,45.271,51.7-29.633-13.172-30.02,11.78,23.572-19.451-14.06-4.561-17.1,7.221,6.841-10.26-37.241,22.8,22.42-24.7-14.44-11.78-19.38,6.84,10.26-16.72c-9.932,7.42-21.436,13.27-33.82,18.24l34.58-33.06Z" transform="translate(-524.076 -3694.49)" fill="#f3e5bc" fill-rule="evenodd"/>
      </g>
      <g id="Grupo_962128" data-name="Grupo 962128" transform="translate(315.61 26.139)">
        <path id="Trazado_700053" data-name="Trazado 700053" d="M504.714,3667.5l-21.66,21.281-7.22-5.321-44.08,42.941-7.22-6.46-33.06,30.021c32.062-22.037,33.414-11.935,48.26-16.34l-15.222,24.156c20.628-22.131,34.285-20.99,46.522-19.4l-18,25.269,41.04-47.121-12.16,2.28c1.947-4.806,8.947-11.634,18.24-19.38l-10.64,2.279,15.2-34.2Z" transform="translate(-391.473 -3667.498)" fill="#f3e5bc" fill-rule="evenodd"/>
      </g>
      <g id="Grupo_962129" data-name="Grupo 962129" transform="translate(467.32 33.725)">
        <path id="Trazado_700054" data-name="Trazado 700054" d="M553.367,3781.986l45.547-30.6,6.761,5.337,35.227-31.669,6.049,6.761,41.988-40.564,5.338,4.271,22.773-19.927,32.737,32.381,9.251-7.829,29.178,27.755,19.659-13.95,60.047,67.681-314.555.356Z" transform="translate(-553.367 -3675.593)" fill="#a4c2d1" fill-rule="evenodd"/>
      </g>
      <g id="Grupo_962130" data-name="Grupo 962130" transform="translate(523.541 33.391)">
        <path id="Trazado_700055" data-name="Trazado 700055" d="M719.4,3675.236l-20.284,19.926-6.76-4.982L651.08,3730.39l-6.76-6.05-30.958,28.111c30.023-20.635,31.29-11.175,45.191-15.3L644.3,3759.77c19.315-20.724,32.1-19.655,43.562-18.169l-16.855,23.661,38.43-44.123-11.387,2.136c1.823-4.5,8.378-10.895,17.08-18.148l-9.963,2.135,14.234-32.024Z" transform="translate(-613.362 -3675.236)" fill="#ecdaaf" fill-rule="evenodd"/>
      </g>
      <g id="Grupo_962131" data-name="Grupo 962131" transform="translate(0 0.439)">
        <path id="Trazado_700056" data-name="Trazado 700056" d="M54.678,3779.752l59.8-40.175,8.876,7.007,46.248-41.576,7.942,8.875,55.124-53.255,7.007,5.605,29.9-26.161,42.978,42.511,12.146-10.277L363,3708.744l25.809-18.314,78.833,88.854-412.963.467Z" transform="translate(-54.678 -3640.073)" fill="#a4c2d1" fill-rule="evenodd"/>
      </g>
      <g id="Grupo_962132" data-name="Grupo 962132" transform="translate(226.569 31.095)">
        <path id="Trazado_700057" data-name="Trazado 700057" d="M338.966,3672.786l40.175,37.839,24.674-19.248,55.653,63.558-36.429-16.193-36.9,14.482,28.977-23.912-17.285-5.606-21.022,8.875,8.409-12.613L339.434,3748,367,3717.633l-17.752-14.482-23.825,8.409L338.032,3691c-12.21,9.122-26.352,16.313-41.576,22.424l42.51-40.643Z" transform="translate(-296.456 -3672.786)" fill="#ecdaaf" fill-rule="evenodd"/>
      </g>
      <g id="Grupo_962133" data-name="Grupo 962133" transform="translate(73.81)">
        <path id="Trazado_700058" data-name="Trazado 700058" d="M272.654,3639.6l-26.629,26.161-8.875-6.54-54.19,52.789-8.875-7.942-40.642,36.906c39.415-27.091,41.078-14.672,59.328-20.088l-18.712,29.695c25.358-27.206,42.146-25.8,57.19-23.853l-22.128,31.063,50.452-57.927-14.949,2.8c2.394-5.908,11-14.3,22.423-23.824l-13.08,2.8,18.687-42.045Z" transform="translate(-133.443 -3639.604)" fill="#ecdaaf" fill-rule="evenodd"/>
      </g>
    </g>
    <g id="Grupo_962135" data-name="Grupo 962135" transform="translate(228.695 6749.684)">
      <path id="Trazado_700059" data-name="Trazado 700059" d="M243.788,3440.186a50.484,50.484,0,0,0-12.82,1.666c-9.835-13.853-27.07-23.072-46.738-23.072-25.542,0-46.994,15.522-53.407,36.6-19.258,1.265-34.46,15.644-34.46,33.232,0,18.419,16.661,33.356,37.2,33.356a39.4,39.4,0,0,0,25.637-9.226,60.586,60.586,0,0,0,53.487-1.716,48.4,48.4,0,0,0,31.1,11.023c25.21,0,45.654-18.329,45.654-40.932S269,3440.186,243.788,3440.186Z" transform="translate(-96.364 -3418.78)" fill="#fffcec" fill-rule="evenodd"/>
    </g>
    <g id="Grupo_962136" data-name="Grupo 962136" transform="translate(543.351 6844.163)">
      <path id="Trazado_700060" data-name="Trazado 700060" d="M582.8,3544.75c-6.1-14.484-26.521-25.149-50.828-25.149-18.719,0-35.121,6.335-44.481,15.854a65.584,65.584,0,0,0-12.2-1.145c-23.992,0-43.45,12.594-43.45,28.124s19.458,28.125,43.45,28.125c11.448,0,21.832-2.889,29.594-7.574a75.072,75.072,0,0,0,27.088,4.889,76.521,76.521,0,0,0,23.816-3.709c6.354,3.918,14.933,6.338,24.4,6.338,19.552,0,35.408-10.263,35.408-22.919C615.592,3555.5,601.124,3545.619,582.8,3544.75Z" transform="translate(-431.837 -3519.601)" fill="#fffcec" fill-rule="evenodd"/>
    </g>
    <g id="Grupo_962149" data-name="Grupo 962149" transform="translate(762.172 6740.006)">
      <g id="Grupo_962137" data-name="Grupo 962137" transform="translate(196.07 111.474)">
        <path id="Trazado_700061" data-name="Trazado 700061" d="M959.043,3666.87q10.815,16.267,21.63,32.537-3.109.163-6.22.331,6.951,12.72,14.916,24.822c-2.252,0-4.032-.049-5.569-.157l-1.117.751-1.822-2.075-1.116.751-.056-.014-1.145.514-1.708-1.971-1.145.515-3-.827q-.828-.237-1.762-.5c7.491,10.7,8.619,21.4,22.474,32.095q-3.768.9-7.535,1.8c4.313,12.167,13.908,18.548,22.882,28.708l-14.39-3.968-4.478,3.968-1.022,1.077-.47-.5h0l-2.049-1.154-1.8,2.008-4.488-2.728-1.8,2.01-.077-.013-.286-.047-.274-.044-.26-.042-.546-.089-.535-.087-1.807-1.893-1.431,1.5-1.493,1.377-4.352-7.458.128,5.772-1.515,1.2-1.8-1.927-.318-.34-1.087,1.75-.062-.04-2.121,1.782-3.739-4.2-2.12,1.78-2.072.3-1.777-2.767v20.583H935.491l.3-22.861H932.8l-1.484,1.371-3.157,2.3-1.431,1.372-4.292-3.421-2.195,4.278-3.484-2.929-2.048.857c-.654.207-6.146,3.186-10.1.1l-1.43,1.115h-1.664l-1.431,1.4-2.861-2.8-1.431,1.4h-1.754l-.929.72-.63-.344-1.446,1.223-2.467-2.958-1.448,1.22-1.118.092-.289.023-.262.024h-.086l-1.023.793-2.044-1.587-1.021.794h-7.206c11.837-9.94,18.5-20.837,23.493-29.85l-4.89,2.451.032-.056.038-.071-1.086-.14.828-1.286-.223-.77-.424-.053-.165-.031-.3-.051-.589-.105-.292-.051-.291-.051-.292-.052-.289-.05-.288-.05c-.5.009-1,.02-1.5.028l20.835-31.259c-1.508.347-2.779.629-3.9.861l-.277.056-.881,1.165-2.284-1.692-.881,1.166-.477.076-1,.722-2.092-1.257-1,.723-.593.028c-.573,0-1.188.009-1.85.009a252.716,252.716,0,0,0,14.77-23.458l-5.623.539,16.246-33.542c-6.006,1.527-7.187,1.865-13.194,1.865,3.957-10.578,14.467-20.006,17.707-27.718-.87.05-1.74.1-2.612.156l-2.628.152-.98.9L915,3641.894l-.981.9-.286.019-.285.017-.283.016-1.617.093q.87-1.018,1.681-2l1.182-1.45c11.78-14.665,13.255-22.839,16.243-31.967-.579.1-1.084.183-1.533.254l-.569.088-.828,1.226-2.358-1.609-.829,1.229-.433.116-.273.072-.267.069c-.593.2-1.287.439-2.134.75,14.281-26.945,15.859-53.643,19.97-82.3,2.85,37.972,3.824,62.093,16.837,81.222-1.6-.657-2.477-1-3.073-1.171l-1.1,1.021-1.882-2.388-1.1,1.02.467,2.656c4.624,9.111,6.366,16.479,14.409,27.666l.2.276.967,1.306.439.591q.994,1.31,2.107,2.688-1.316-.156-2.636-.319l-.1-.012-1.061.335-1.942-1.164-1.061.333-1.463-.175c-.6-.075-1.2-.153-1.8-.222,3.8,7.874,13.133,18.069,17.55,28.888q-.923,0-1.852-.049l-.882-.052-1.084.54-1.891-1.594-1.086.54-.588-.076-2.743-.492-1.154.586-1.694-2.09-1.154.586-.543-.126-.283-.065c-1.058-.26-2.118-.53-3.175-.8Z" transform="translate(-874.061 -3527.41)" fill="#51bbd1" fill-rule="evenodd"/>
      </g>
      <g id="Grupo_962138" data-name="Grupo 962138" transform="translate(103.067 150.468)">
        <path id="Trazado_700062" data-name="Trazado 700062" d="M834.4,3569.021a234.665,234.665,0,0,0,7.158,41.918l1.777,1.23-1.622,4.01,1.779,1.231,1.689,5.173c1.648,4.682,3.455,9.114,5.386,13.3.543,1.175-6.343-1.382-5.776-.24,3.8,7.641,8.744,19.135,13.5,25.241a19.766,19.766,0,0,1-4.469-2.17l-.7-.485-2.122.7-1.854-4.065-2.123.7.531,4.526c1.145,2.487,2.313,4.943,3.509,7.405l.789.554-.093,1.925.79.555.069.142,1.469,2.958c1.988,3.977,4.073,8.051,6.264,12.362.816,1.607-7.344-1.708-6.484-.015,2.438,4.808,7.523,11.343,12.682,18.345l1.775.454-.26,3.656,1.776.454,1.752.5-.3,3.635,1.753.5.1.154a79.928,79.928,0,0,1,5.681,9.865,58.52,58.52,0,0,1-6.515-.385l-4.7-.662-1.98,1.313-2.665-3.938-1.98,1.314-.1-.021-.955-.189-.6-.119c-1.1-.238-2.193-.483-3.289-.726,3.842,8.305,17.686,22.944,22.232,30.87,1.42,2.475-17.314-8.741-15.83-6.3,2.771,4.558,7.612,10.389,12.824,16.345l1.743.337.241,3.544,1.745.336,1.62,1.825c5.186,5.826,10.183,11.4,13.363,15.637-2.217,0-4.39-.114-6.532-.316l-1.887,1.273-2.91-3.507-1.888,1.272-1.928,1.07-2.775-3.431-1.928,1.067-3.67-.854c-.824-.2-1.654-.4-2.471-.6l-5.023-1.252-2,1.165-2.575-3.851-2,1.163-.9-.21-1.942,1.332-2.771-3.81-1.944,1.33-.133-.024-.612-.106-.912-.157c-.4-.05-4.115-.9-4.521-.944l2.167,31.261H828.2l.114-31.1c-3.425.432-8.169,1.935-11.686,2.605l-1.332,1.938-3.957-2.542-1.333,1.94-1.34,1.866-3.938-2.375-1.341,1.868-1.381,1.692-3.857-2.048-1.383,1.691-1.464,1.417-3.722-1.655-1.465,1.418-4.754.681a84.566,84.566,0,0,1-10.545.728c5.322-6.553,14.421-16.489,21.883-25.575l.912-1.117.039-1.755,3.394-.916.039-1.758.014-.017.159-.2.154-.2.088-.113.154-.2.087-.111.076-.1c1.773-2.36,3.315-4.574,4.5-6.547a30.782,30.782,0,0,1-5.235,1.765l-2.007.473-1.476,1.569-3.729-2.153-1.477,1.571-.248.036-.309.046-.934.139c-3.179.239-5.114.026-3.878-.728,11.494-7.008,22.648-19.157,26.012-26.775l-2.841.628-1.355,1.815-3.91-2.291-1.354,1.817-1.433,1.749-3.806-2.439-1.432,1.75-2.275.242c-1.561.133-3.119.206-4.667.206,4.537-10.584,16.435-22.632,20.207-30.52,1.257-2.626-10.254,2.938-9.075.525,2.641-5.405,5.458-11.192,8.159-16.861l-.6-1.839,3.605-1.409-.6-1.841,1.29-2.75c1.6-3.436,3.1-6.753,4.415-9.791l.887-2.063c.1-.246.21-.493.311-.734h0l-.131.018c-.047.005-.094.015-.139.021l-1.384,1.708-3.855-2.112-1.385,1.708-5.8,1.662q-1.037.33-2.195.7c3.408-5.613,7.444-11.479,11.244-17.408l-.3-2.167,4.146-1.416-.3-2.168,1.462-2.439a78.77,78.77,0,0,0,5.995-12.6c.546-1.542-7.3,1.559-6.789.007,5.337-16.114,12.562-36.237,15.274-52.735Z" transform="translate(-774.816 -3569.021)" fill="#51bbd1" fill-rule="evenodd"/>
      </g>
      <g id="Grupo_962139" data-name="Grupo 962139" transform="translate(473.488 83.705)">
        <path id="Trazado_700063" data-name="Trazado 700063" d="M1255.082,3637.238q10.684,16.063,21.359,32.127v.421l-5.948.318q2.884,5.281,5.948,10.449v13.2l-.659.441-.055-.008-1.144.511-1.711-1.972-1.144.515-3-.828-1.764-.5c4.009,5.723,6.194,11.443,9.48,17.166v44.361l-.358-.217-1.8,2.011-.079-.014-.284-.046-.273-.046-.26-.042-.546-.089-.534-.087-1.809-1.891-1.431,1.5-1.493,1.38-4.354-7.459.129,5.772-1.516,1.2-1.794-1.929-.319-.336-1.086,1.746-.061-.036-2.12,1.778-3.738-4.2-2.123,1.782-2.071.3-1.779-2.767v20.583h-15.21l.293-22.861h-2.987l-1.486,1.373-3.159,2.3-1.431,1.371-4.291-3.422-2.195,4.281-3.483-2.929-2.048.855c-.656.21-6.146,3.186-10.1.1l-1.43,1.116h-1.665l-1.43,1.4-2.861-2.8-1.432,1.4h-1.753l-.929.72-.631-.346-1.445,1.225-2.466-2.958-1.45,1.221-1.118.092-.288.024-.264.022h-.086l-1.022.794-2.044-1.586-1.021.792H1170.1c11.838-9.939,18.495-20.84,23.489-29.849l-4.885,2.448.031-.052.037-.074-1.083-.137.827-1.288-.225-.769-.425-.057-.164-.026-.3-.055-.589-.1-.294-.053-.289-.051-.293-.05-.288-.051-.287-.052c-.5.012-1,.023-1.5.031q10.419-15.63,20.834-31.26c-1.505.349-2.777.629-3.9.863l-.275.056-.883,1.163-2.283-1.69-.881,1.163-.478.075-1,.723-2.092-1.257-1,.72-.592.032c-.574,0-1.188.007-1.851.007a251.8,251.8,0,0,0,14.77-23.458q-2.808.266-5.622.538,8.122-16.768,16.246-33.543c-6.006,1.529-7.188,1.866-13.2,1.866,3.959-10.579,14.468-20.007,17.71-27.716-.871.048-1.742.1-2.615.152l-2.627.156-.978.9-2.125-1.555-.979.9-.285.021-.286.014-.282.017c-.539.029-1.08.062-1.618.093.579-.682,1.141-1.345,1.68-2l1.184-1.451c11.78-14.663,13.254-22.837,16.241-31.966-.577.1-1.083.183-1.534.256l-.568.085-.826,1.227-2.36-1.607-.829,1.224-.433.118-.273.071-.268.071c-.593.2-1.288.439-2.135.751,14.283-26.947,15.858-53.645,19.972-82.3,2.849,37.971,3.824,62.093,16.835,81.223-1.6-.658-2.477-1-3.072-1.172l-1.1,1.021-1.883-2.386-1.1,1.018.469,2.657c4.625,9.108,6.366,16.479,14.411,27.665l.2.276.967,1.307.439.592q1,1.308,2.106,2.689c-.878-.107-1.757-.21-2.634-.322l-.1-.013-1.062.337-1.94-1.165-1.062.334-1.462-.172c-.6-.077-1.2-.155-1.8-.224,3.8,7.874,13.134,18.068,17.551,28.888-.616,0-1.234-.021-1.851-.049l-.881-.055-1.086.543-1.893-1.594-1.085.541-.59-.077-2.739-.493-1.155.587-1.7-2.093-1.156.587-.54-.127-.284-.065c-1.058-.26-2.116-.531-3.175-.8Z" transform="translate(-1170.101 -3497.777)" fill="#3d9da0" fill-rule="evenodd"/>
      </g>
      <g id="Grupo_962140" data-name="Grupo 962140" transform="translate(129.202 90.489)">
        <path id="Trazado_700064" data-name="Trazado 700064" d="M893.409,3653.869q11.545,17.364,23.087,34.728l-6.639.354q7.419,13.575,15.921,26.494c-2.4,0-4.3-.052-5.945-.169l-1.192.8-1.944-2.214-1.193.8-.06-.014-1.222.549-1.824-2.1-1.222.549-3.206-.883q-.883-.252-1.88-.531c8,11.418,9.2,22.838,23.988,34.256l-8.043,1.918c4.6,12.987,14.845,19.8,24.424,30.642l-15.359-4.236-4.78,4.236-1.091,1.15-.5-.531h0l-2.187-1.231-1.924,2.144-4.79-2.912-1.924,2.146-.082-.015-.3-.05-.292-.048-.278-.045-.583-.095-.572-.093-1.928-2.02-1.527,1.6-1.594,1.47-4.645-7.961.137,6.161L900.617,3780l-1.916-2.058-.339-.363-1.161,1.869-.066-.044-2.263,1.9-3.99-4.479-2.264,1.9-2.211.318-1.9-2.953v21.968H868.273l.315-24.4H865.4l-1.586,1.464-3.369,2.457-1.527,1.465-4.581-3.651-2.342,4.565-3.72-3.126-2.185.916c-.7.22-6.56,3.4-10.783.1l-1.527,1.191H832l-1.527,1.5-3.054-2.991-1.527,1.5H824.02l-.991.769-.672-.367-1.544,1.3-2.634-3.158-1.544,1.3-1.193.1-.308.025-.281.025h-.092l-1.091.847-2.183-1.694-1.091.847h-7.691c12.634-10.61,19.741-22.242,25.074-31.861l-5.218,2.616.034-.061.041-.076-1.159-.148.884-1.372-.239-.821-.453-.057-.176-.033-.316-.055-.628-.113-.312-.055-.31-.054-.312-.053-.308-.054L819,3746.8l-1.6.032,22.238-33.365c-1.609.37-2.966.672-4.165.919l-.3.06-.941,1.243-2.437-1.807-.941,1.244-.51.081-1.064.77-2.231-1.342-1.066.771-.633.03c-.612.006-1.268.01-1.974.01a270.137,270.137,0,0,0,15.763-25.038l-6,.575,17.341-35.8c-6.411,1.631-7.671,1.99-14.083,1.99,4.224-11.291,15.441-21.354,18.9-29.584-.928.052-1.856.111-2.787.167l-2.8.162-1.047.957-2.265-1.66-1.046.958-.306.02-.3.018-.3.017-1.726.1q.929-1.087,1.795-2.135l1.26-1.547c12.574-15.652,14.148-24.377,17.336-34.121-.617.106-1.155.195-1.636.273l-.606.093-.883,1.309-2.519-1.718-.884,1.311-.463.124-.291.077-.285.075c-.633.208-1.373.469-2.277.8,15.244-28.76,16.928-57.257,21.314-87.847,3.043,40.53,4.082,66.275,17.972,86.693-1.71-.7-2.645-1.063-3.281-1.25l-1.169,1.089L886.093,3589l-1.17,1.087.5,2.835c4.935,9.725,6.793,17.589,15.379,29.53l.217.294,1.033,1.4.468.631q1.06,1.4,2.249,2.87-1.406-.167-2.814-.34l-.106-.013-1.132.359-2.073-1.243-1.132.357-1.561-.188c-.64-.081-1.282-.164-1.92-.237,4.059,8.405,14.018,19.286,18.733,30.833q-.987,0-1.976-.052l-.941-.056-1.157.576-2.019-1.7-1.158.576-.629-.081-2.927-.526-1.231.625-1.81-2.23-1.231.625-.579-.135-.3-.068c-1.129-.278-2.26-.567-3.389-.854Z" transform="translate(-802.705 -3505.016)" fill="#3d9da0" fill-rule="evenodd"/>
      </g>
      <g id="Grupo_962141" data-name="Grupo 962141" transform="translate(318.315 104.219)">
        <path id="Trazado_700065" data-name="Trazado 700065" d="M1054.215,3646.091q-10.815,14.748-21.63,29.5l6.22.3q-6.951,11.532-14.918,22.5c2.253,0,4.034-.044,5.571-.143l1.116.682,1.822-1.881,1.117.68.056-.012,1.144.467,1.709-1.787,1.145.466,3-.749q.827-.214,1.762-.452c-7.492,9.7-8.619,19.4-22.474,29.095q3.769.814,7.535,1.63c-4.313,11.031-13.908,16.813-22.882,26.024l14.39-3.6,4.478,3.6,1.022.977.47-.452v0l2.049-1.045,1.8,1.821,4.488-2.473,1.8,1.823.077-.012.285-.042.275-.04.261-.038.545-.081.536-.079,1.806-1.717,1.432,1.36,1.493,1.249,4.352-6.762-.128,5.234,1.514,1.09,1.8-1.748.317-.309,1.088,1.589.061-.038,2.122,1.616,3.738-3.8,2.121,1.615,2.071.27,1.778-2.508v18.659h15.212l-.294-20.726h2.988l1.485,1.244,3.157,2.087,1.43,1.243,4.293-3.1,2.194,3.877,3.485-2.656,2.049.779c.654.187,6.145,2.886,10.1.088l1.43,1.012h1.664l1.431,1.271,2.861-2.54,1.431,1.27h1.754l.928.653.631-.311,1.446,1.107,2.468-2.682,1.448,1.106,1.118.083.289.021.263.021h.086l1.022.72,2.044-1.439,1.022.719h7.205c-11.837-9.01-18.5-18.89-23.492-27.06l4.889,2.222-.031-.052-.038-.064,1.086-.127-.829-1.165.224-.7.424-.049.166-.028.3-.047.589-.095.292-.047.291-.047.292-.045.289-.047.288-.045,1.5.027q-10.419-14.17-20.835-28.339c1.508.316,2.779.571,3.9.781l.277.051.881,1.056,2.283-1.534.882,1.057.477.068,1,.654,2.092-1.139,1,.655.592.025c.574.006,1.188.008,1.85.008a227.057,227.057,0,0,1-14.769-21.266l5.624.488-16.247-30.407c6.007,1.385,7.188,1.691,13.2,1.691-3.958-9.589-14.468-18.135-17.707-25.126q1.3.067,2.612.141l2.628.137.979.814,2.122-1.41.982.813.286.016.285.015.282.015,1.618.084q-.872-.922-1.681-1.812l-1.182-1.315c-11.78-13.294-13.255-20.7-16.243-28.98.579.09,1.083.166,1.533.232l.569.078.827,1.112,2.359-1.458.828,1.112.434.1.273.066.266.064c.594.176,1.288.4,2.135.679-14.281-24.426-15.858-48.629-19.969-74.61-2.851,34.422-3.824,56.289-16.838,73.63,1.6-.6,2.478-.9,3.074-1.062l1.1.925,1.882-2.165,1.1.924-.468,2.408c-4.623,8.26-6.365,14.937-14.408,25.079l-.2.25-.966,1.186-.438.536q-.994,1.186-2.109,2.437,1.319-.143,2.637-.29l.1-.011,1.061.3,1.943-1.055,1.061.3,1.462-.16c.6-.068,1.2-.138,1.8-.2-3.8,7.139-13.134,16.38-17.551,26.188.617,0,1.234-.016,1.852-.044l.883-.048,1.084.489,1.891-1.445,1.085.489.589-.068,2.743-.446,1.154.531,1.694-1.895,1.154.531.543-.114.283-.058c1.058-.236,2.118-.482,3.176-.726Z" transform="translate(-1004.512 -3519.668)" fill="#3d9da0" fill-rule="evenodd"/>
      </g>
      <g id="Grupo_962142" data-name="Grupo 962142" transform="translate(60.176 135.088)">
        <path id="Trazado_700066" data-name="Trazado 700066" d="M787.445,3552.609a269.792,269.792,0,0,0,7.017,44.655l1.742,1.31-1.591,4.272,1.744,1.312,1.656,5.511c1.615,4.987,3.386,9.709,5.28,14.165.53,1.251-6.218-1.474-5.662-.259,3.73,8.14,8.572,20.385,13.235,26.891a18.859,18.859,0,0,1-4.381-2.312l-.683-.517-2.08.743-1.816-4.331-2.081.741.52,4.823c1.123,2.65,2.268,5.265,3.44,7.889l.774.589-.092,2.052.775.59.068.151,1.439,3.152c1.948,4.235,3.992,8.575,6.14,13.169.8,1.712-7.2-1.821-6.355-.016,2.39,5.121,7.374,12.083,12.431,19.543l1.738.484-.253,3.895,1.74.484,1.718.532-.293,3.872,1.718.533.095.165a87.232,87.232,0,0,1,5.568,10.509,52.808,52.808,0,0,1-6.386-.41l-4.609-.7-1.941,1.4-2.613-4.2-1.94,1.4-.1-.022-.937-.2-.589-.126c-1.073-.254-2.149-.516-3.223-.774,3.765,8.848,17.335,24.441,21.79,32.885,1.392,2.637-16.97-9.312-15.517-6.711,2.717,4.856,7.461,11.066,12.57,17.412l1.709.358.236,3.774,1.71.36,1.588,1.944c5.083,6.207,9.982,12.145,13.1,16.657a62.918,62.918,0,0,1-6.4-.335l-1.851,1.357-2.852-3.735-1.851,1.355L831,3780.03l-2.719-3.656-1.89,1.139-3.6-.91c-.808-.211-1.621-.426-2.422-.639l-4.924-1.333-1.962,1.24-2.525-4.1L809,3773.009l-.882-.224-1.9,1.419-2.716-4.059-1.905,1.417-.131-.026-.6-.113-.893-.168c-.394-.053-4.033-.959-4.431-1.006l2.122,33.3H781.371l.112-33.126c-3.358.46-8.007,2.061-11.454,2.775l-1.3,2.063-3.88-2.707-1.305,2.066-1.314,1.99-3.859-2.531-1.315,1.991-1.355,1.8-3.78-2.182-1.356,1.8-1.435,1.51-3.648-1.763-1.436,1.512-4.66.725a76.443,76.443,0,0,1-10.336.774c5.217-6.98,14.136-17.564,21.45-27.244l.894-1.189.038-1.871,3.327-.975.039-1.871.013-.019.156-.215.15-.208.086-.121.151-.209.086-.118.074-.1c1.738-2.514,3.25-4.875,4.414-6.974a28.8,28.8,0,0,1-5.13,1.88l-1.969.5-1.447,1.672-3.655-2.294-1.447,1.673-.245.038-.3.049-.916.148c-3.117.254-5.013.028-3.8-.776,11.266-7.466,22.2-20.407,25.5-28.523l-2.784.669L762.4,3716.1l-3.832-2.44-1.328,1.935-1.4,1.864-3.73-2.6-1.4,1.865-2.229.256c-1.53.142-3.058.22-4.575.22,4.447-11.274,16.109-24.109,19.807-32.513,1.231-2.8-10.051,3.13-8.9.559,2.587-5.759,5.35-11.923,8-17.962l-.59-1.958,3.533-1.5-.589-1.96,1.265-2.929c1.564-3.658,3.035-7.193,4.327-10.431l.87-2.2c.1-.262.205-.526.3-.783h0l-.128.02c-.046.006-.092.017-.136.023l-1.357,1.818-3.779-2.248-1.357,1.82-5.685,1.77q-1.015.353-2.15.743c3.341-5.981,7.3-12.229,11.021-18.545l-.3-2.31,4.064-1.508-.3-2.31,1.434-2.6a87.523,87.523,0,0,0,5.876-13.423c.535-1.643-7.159,1.661-6.655.008,5.232-17.167,12.313-38.6,14.971-56.178Z" transform="translate(-729.045 -3552.609)" fill="#3d9da0" fill-rule="evenodd"/>
      </g>
      <g id="Grupo_962143" data-name="Grupo 962143" transform="translate(225.769)">
        <path id="Trazado_700067" data-name="Trazado 700067" d="M970.457,3590q-14.079,21.177-28.158,42.357,4.048.212,8.1.429-9.051,16.559-19.419,32.314c2.932,0,5.25-.063,7.25-.206l1.454.979,2.37-2.7,1.454.977.074-.017,1.489.669,2.226-2.566,1.489.669,3.91-1.076q1.077-.308,2.294-.648c-9.752,13.926-11.221,27.853-29.258,41.781l9.81,2.339c-5.617,15.84-18.106,24.145-29.788,37.372l18.733-5.165,5.831,5.165,1.331,1.4.613-.648,0,0,2.667-1.5,2.346,2.615,5.843-3.552,2.346,2.617.1-.018.371-.06.356-.059.339-.054.711-.116.7-.112,2.351-2.465,1.863,1.952,1.944,1.793,5.666-9.709-.167,7.513,1.972,1.566,2.337-2.51.414-.444,1.416,2.279.08-.053,2.761,2.32,4.866-5.464,2.761,2.318,2.7.388,2.314-3.6v26.793h19.8l-.384-29.761h3.891l1.933,1.786,4.11,3,1.862,1.786,5.589-4.452,2.856,5.567,4.536-3.812,2.666,1.116c.852.269,8,4.146,13.15.128l1.863,1.452h2.166l1.863,1.824,3.725-3.649,1.863,1.824h2.283l1.21.938.819-.448,1.883,1.59,3.212-3.851,1.885,1.589,1.455.119.377.031.342.031h.112l1.331,1.033,2.661-2.067,1.331,1.033h9.38c-15.41-12.939-24.078-27.127-30.582-38.858l6.364,3.19-.04-.073-.051-.092,1.414-.183-1.079-1.673.292-1,.551-.07.216-.04.384-.068.767-.137.38-.067.379-.067.38-.066.377-.066.374-.064c.65.012,1.3.027,1.947.038q-13.562-20.348-27.122-40.694c1.961.452,3.617.819,5.08,1.121l.361.074,1.147,1.515,2.971-2.2,1.148,1.518.622.1,1.3.939,2.721-1.636,1.3.941.771.037c.748.008,1.547.012,2.407.012a329.265,329.265,0,0,1-19.225-30.538q3.66.35,7.32.7-10.573-21.834-21.149-43.665c7.819,1.988,9.357,2.427,17.177,2.427-5.153-13.771-18.833-26.045-23.052-36.082,1.132.065,2.266.135,3.4.2l3.42.2,1.275,1.169,2.762-2.026,1.278,1.169.372.023.369.022.369.021c.7.04,1.4.082,2.106.122q-1.133-1.324-2.188-2.6l-1.538-1.887c-15.336-19.091-17.256-29.732-21.145-41.615.752.127,1.41.237,2,.332l.739.113,1.078,1.6,3.071-2.094,1.079,1.6.564.151.355.094.348.092c.771.253,1.675.572,2.778.975-18.591-35.076-20.645-69.832-26-107.141-3.711,49.432-4.979,80.833-21.919,105.734,2.086-.855,3.225-1.3,4-1.525l1.426,1.329,2.45-3.108,1.427,1.327-.608,3.458c-6.019,11.861-8.286,21.452-18.757,36.014l-.265.359-1.258,1.7-.571.771q-1.293,1.7-2.743,3.5,1.714-.205,3.433-.415l.128-.017,1.381.438,2.527-1.515,1.381.436,1.9-.23c.781-.1,1.563-.2,2.342-.289-4.951,10.251-17.1,23.521-22.848,37.606q1.2,0,2.411-.064l1.148-.068,1.412.7,2.462-2.076,1.413.7.767-.1,3.571-.64,1.5.763,2.206-2.721,1.5.762.707-.165.368-.083c1.378-.339,2.757-.691,4.134-1.04Z" transform="translate(-905.754 -3408.453)" fill="#45804e" fill-rule="evenodd"/>
      </g>
      <g id="Grupo_962144" data-name="Grupo 962144" transform="translate(160.871 104.285)">
        <path id="Trazado_700068" data-name="Trazado 700068" d="M881.737,3646.666l-19.687,29.613,5.663.3q-6.328,11.577-13.577,22.592c2.049,0,3.67-.044,5.069-.143l1.017.684,1.658-1.888,1.017.684.052-.013,1.041.469,1.556-1.793,1.042.468,2.734-.753q.753-.215,1.6-.453c-6.818,9.736-7.845,19.474-20.455,29.211l6.859,1.636c-3.927,11.074-12.659,16.881-20.827,26.128l13.1-3.612,4.076,3.612.93.981.428-.454h0l1.866-1.05,1.64,1.828,4.084-2.483,1.641,1.829.069-.011.26-.042.25-.041.236-.038.5-.082.488-.078,1.645-1.723,1.3,1.364,1.36,1.254,3.959-6.788-.115,5.253,1.378,1.1,1.634-1.755.289-.309.99,1.593.056-.037,1.93,1.621,3.4-3.819,1.929,1.621,1.885.271,1.617-2.518v18.732h13.846l-.269-20.807h2.72l1.352,1.249,2.872,2.1,1.3,1.248,3.907-3.113,2,3.893,3.171-2.665,1.864.781c.6.188,5.593,2.9,9.195.089l1.3,1.016H934.1l1.3,1.275,2.6-2.551,1.3,1.275h1.6l.846.656.573-.313,1.316,1.112,2.246-2.692,1.318,1.112,1.018.082.263.023.239.021h.079l.93.723,1.86-1.445.931.722h6.559c-10.775-9.047-16.834-18.966-21.382-27.167l4.449,2.23-.029-.052-.035-.065.989-.127-.754-1.17.2-.7.385-.049.151-.028.269-.048.536-.095.265-.047.265-.047.265-.046.263-.046.261-.045c.454.007.909.019,1.362.026q-9.481-14.226-18.963-28.45c1.373.316,2.529.573,3.553.783l.252.052.8,1.06,2.078-1.54.8,1.06.434.069.907.657,1.9-1.144.908.658.539.025c.523.005,1.081.008,1.684.008a229.621,229.621,0,0,1-13.441-21.351l5.117.491q-7.392-15.264-14.786-30.529c5.466,1.391,6.542,1.7,12.009,1.7-3.6-9.627-13.167-18.208-16.116-25.227.791.045,1.584.095,2.377.141l2.391.139.891.817,1.931-1.416.893.816.26.016.259.016.258.015c.49.027.982.056,1.472.085q-.791-.928-1.529-1.821l-1.076-1.32c-10.721-13.346-12.064-20.787-14.783-29.094.527.089.986.166,1.4.231l.516.079.753,1.117,2.148-1.465.753,1.117.4.107.247.065.244.063c.539.178,1.17.4,1.942.682-13-24.523-14.434-48.823-18.175-74.907-2.595,34.559-3.481,56.513-15.324,73.924,1.458-.6,2.255-.908,2.8-1.066l1,.929,1.712-2.174,1,.929-.424,2.417c-4.209,8.292-5.793,15-13.115,25.179l-.185.252-.881,1.188-.4.539q-.905,1.191-1.918,2.448,1.2-.143,2.4-.291l.09-.012.965.306,1.767-1.061.965.305,1.332-.16c.546-.068,1.094-.14,1.637-.2-3.462,7.166-11.954,16.444-15.974,26.291.561,0,1.124-.016,1.686-.044l.8-.048.986.491,1.721-1.451.989.491.535-.068,2.5-.448,1.05.533,1.542-1.9,1.05.532.494-.115.258-.059c.963-.236,1.928-.483,2.891-.727Z" transform="translate(-836.5 -3519.738)" fill="#45804e" fill-rule="evenodd"/>
      </g>
      <g id="Grupo_962145" data-name="Grupo 962145" transform="translate(383.875 33.409)">
        <path id="Trazado_700069" data-name="Trazado 700069" d="M1185.1,3608.683l28.159,38.4-8.1.39q9.05,15.011,19.419,29.292c-2.932,0-5.25-.057-7.251-.186l-1.454.886-2.371-2.448-1.454.885-.074-.015-1.49.606-2.225-2.326-1.49.607-3.91-.975q-1.078-.28-2.294-.589c9.751,12.625,11.221,25.25,29.257,37.876q-4.906,1.059-9.809,2.121c5.615,14.359,18.106,21.888,29.787,33.88l-18.733-4.684-5.83,4.684-1.331,1.271-.614-.587h0l-2.667-1.361-2.346,2.37-5.841-3.219-2.347,2.372-.1-.016-.372-.054-.356-.054-.339-.05-.71-.1-.7-.1-2.352-2.234-1.863,1.77-1.944,1.625-5.665-8.8.166,6.812-1.971,1.419-2.338-2.274-.414-.4-1.415,2.066-.08-.047-2.761,2.1-4.867-4.953-2.76,2.1-2.7.351-2.314-3.266v24.29h-19.8l.384-26.979h-3.892l-1.933,1.619-4.109,2.717-1.863,1.619-5.587-4.037-2.857,5.047-4.537-3.456-2.666,1.012c-.851.244-8,3.759-13.151.116l-1.862,1.317H1110.2l-1.862,1.653-3.726-3.307-1.863,1.654h-2.283l-1.209.85-.82-.407-1.883,1.442-3.212-3.49-1.885,1.44-1.455.108-.376.028-.343.028h-.113l-1.331.936-2.661-1.873-1.33.937h-9.38c15.411-11.73,24.078-24.591,30.581-35.227l-6.364,2.893.041-.067.051-.084-1.414-.165,1.079-1.516-.292-.908-.552-.063-.215-.036-.384-.061-.767-.125-.38-.06-.38-.06-.378-.06-.377-.061-.374-.058c-.651.011-1.3.024-1.948.034l27.123-36.889c-1.962.409-3.617.741-5.081,1.016l-.36.067-1.147,1.375-2.973-2-1.148,1.376-.621.089-1.3.852-2.722-1.484-1.3.853-.772.033c-.748.008-1.547.011-2.408.011a295.778,295.778,0,0,0,19.225-27.683l-7.319.635q10.575-19.792,21.148-39.583c-7.819,1.8-9.357,2.2-17.177,2.2,5.153-12.484,18.834-23.609,23.052-32.709-1.131.058-2.265.122-3.4.184l-3.42.179-1.276,1.059-2.762-1.836-1.277,1.059-.372.021-.37.02-.368.019c-.7.036-1.4.075-2.107.111q1.135-1.2,2.189-2.36l1.538-1.711c15.336-17.306,17.256-26.954,21.144-37.726-.752.115-1.41.216-2,.3l-.739.1-1.078,1.448-3.071-1.9-1.079,1.448-.564.138-.355.084-.347.083c-.771.229-1.676.518-2.779.884,18.592-31.8,20.645-63.3,26-97.126,3.71,44.811,4.979,73.277,21.919,95.851-2.086-.776-3.225-1.176-4-1.382l-1.426,1.2-2.449-2.819-1.427,1.2.607,3.135c6.019,10.752,8.286,19.447,18.758,32.648l.264.326,1.26,1.542.571.7q1.292,1.545,2.743,3.173-1.714-.185-3.433-.376l-.128-.015-1.381.4-2.527-1.374-1.381.395-1.9-.208c-.781-.089-1.563-.181-2.341-.26,4.95,9.291,17.1,21.322,22.846,34.09q-1.2,0-2.411-.057l-1.148-.063-1.411.637-2.463-1.882-1.413.637-.767-.089-3.57-.581-1.5.692-2.206-2.467-1.5.69-.707-.149-.368-.076c-1.378-.308-2.757-.627-4.135-.943Z" transform="translate(-1074.473 -3444.105)" fill="#45804e" fill-rule="evenodd"/>
      </g>
      <g id="Grupo_962146" data-name="Grupo 962146" transform="translate(368.948 134.122)">
        <path id="Trazado_700070" data-name="Trazado 700070" d="M1110.507,3551.578a240.055,240.055,0,0,1-6.243,39.734l-1.551,1.166,1.415,3.8-1.551,1.167-1.473,4.9c-1.437,4.438-3.013,8.64-4.7,12.6-.473,1.114,5.533-1.311,5.038-.229-3.318,7.243-7.627,18.137-11.776,23.927a16.7,16.7,0,0,0,3.9-2.057l.607-.46,1.851.662,1.616-3.854,1.852.661-.462,4.29c-1,2.358-2.019,4.686-3.061,7.02l-.69.525.082,1.823-.689.527-.061.134-1.28,2.8c-1.734,3.77-3.553,7.631-5.464,11.718-.712,1.524,6.405-1.619,5.655-.013-2.127,4.557-6.561,10.751-11.061,17.389l-1.547.431.226,3.465-1.549.431-1.528.473.262,3.446-1.529.475-.084.146a77.573,77.573,0,0,0-4.954,9.351,46.94,46.94,0,0,0,5.683-.366l4.1-.626,1.727,1.244,2.325-3.732,1.726,1.245.088-.021.834-.179.524-.112c.955-.225,1.913-.459,2.869-.689-3.351,7.873-15.426,21.748-19.39,29.262-1.239,2.347,15.1-8.286,13.806-5.972-2.417,4.321-6.638,9.848-11.185,15.494l-1.521.319-.21,3.359-1.522.32-1.412,1.731c-4.523,5.522-8.883,10.806-11.656,14.821a56.15,56.15,0,0,0,5.7-.3l1.646,1.207,2.539-3.324,1.647,1.206,1.68,1.013,2.421-3.252,1.681,1.012,3.2-.809c.718-.189,1.442-.38,2.155-.569l4.381-1.187,1.746,1.1,2.246-3.649,1.747,1.1.785-.2,1.694,1.262,2.417-3.613,1.694,1.26.117-.022.533-.1.8-.15c.351-.048,3.588-.852,3.942-.895l-1.889,29.633h14.492l-.1-29.476c2.987.41,7.125,1.835,10.192,2.469l1.162,1.837,3.45-2.409,1.163,1.838,1.168,1.771,3.434-2.252,1.17,1.771,1.205,1.6,3.364-1.943,1.207,1.6,1.276,1.344,3.245-1.569,1.278,1.345,4.147.646a68.019,68.019,0,0,0,9.2.689c-4.642-6.212-12.578-15.629-19.087-24.242l-.8-1.059-.035-1.665-2.96-.867-.034-1.666-.012-.016-.139-.19-.134-.186-.078-.109-.133-.185-.076-.106-.067-.092c-1.546-2.237-2.892-4.336-3.928-6.206a25.5,25.5,0,0,0,4.565,1.673l1.751.448,1.288,1.488,3.254-2.042,1.288,1.489.216.034.269.043.815.132c2.773.226,4.46.024,3.382-.691-10.025-6.643-19.753-18.158-22.687-25.38l2.478.6,1.182,1.721,3.41-2.172,1.182,1.722,1.249,1.658,3.319-2.312,1.249,1.66,1.984.229c1.363.125,2.72.2,4.071.2-3.958-10.033-14.335-21.453-17.625-28.932-1.1-2.489,8.945,2.786,7.916.5-2.3-5.123-4.76-10.608-7.116-15.983l.525-1.743-3.145-1.336.525-1.745-1.125-2.607c-1.392-3.255-2.7-6.4-3.85-9.281l-.774-1.956c-.091-.233-.183-.467-.271-.7h0l.114.018c.04.006.081.015.12.02l1.207,1.618,3.363-2,1.208,1.62,5.058,1.575q.9.315,1.914.66c-2.973-5.321-6.493-10.88-9.808-16.5l.264-2.054-3.615-1.342.263-2.056-1.274-2.311a77.718,77.718,0,0,1-5.229-11.944c-.477-1.462,6.37,1.478,5.922.006-4.655-15.275-10.957-34.349-13.322-49.988Z" transform="translate(-1058.544 -3551.578)" fill="#81a546" fill-rule="evenodd"/>
      </g>
      <g id="Grupo_962147" data-name="Grupo 962147" transform="translate(0 195.688)">
        <path id="Trazado_700071" data-name="Trazado 700071" d="M705.733,3617.277a161.053,161.053,0,0,1-4.915,28.778l-1.219.844,1.113,2.754-1.221.844-1.16,3.552c-1.131,3.214-2.372,6.258-3.7,9.129-.372.807,4.356-.95,3.966-.166-2.613,5.246-6,13.137-9.27,17.331a13.585,13.585,0,0,0,3.068-1.491l.479-.333,1.456.479,1.273-2.792,1.457.479-.364,3.106c-.786,1.708-1.588,3.4-2.409,5.085l-.542.381.064,1.321-.543.381-.048.1-1.008,2.03c-1.365,2.731-2.8,5.528-4.3,8.488-.559,1.1,5.042-1.173,4.452-.01-1.674,3.3-5.165,7.787-8.707,12.594l-1.218.312.178,2.51-1.219.312-1.2.342.206,2.5-1.2.344-.066.106a54.851,54.851,0,0,0-3.9,6.772,40.24,40.24,0,0,0,4.473-.264l3.228-.455,1.359.9,1.83-2.7,1.359.9.07-.015.656-.129.412-.082c.752-.163,1.5-.333,2.257-.5-2.637,5.7-12.142,15.751-15.263,21.194-.975,1.7,11.886-6,10.868-4.326a92.707,92.707,0,0,1-8.8,11.221l-1.2.231-.165,2.433-1.2.232-1.111,1.252c-3.561,4-6.992,7.828-9.175,10.736,1.523,0,3.015-.079,4.485-.218l1.3.875,2-2.407,1.3.873,1.322.734,1.905-2.355,1.323.733,2.52-.587c.565-.136,1.136-.274,1.7-.411l3.449-.859,1.375.8,1.768-2.643,1.375.8.619-.144,1.333.915,1.9-2.616,1.334.913.092-.016.42-.072.627-.109c.276-.035,2.824-.618,3.1-.648L698.581,3779h11.407l-.079-21.349c2.352.3,5.609,1.328,8.023,1.788l.914,1.331,2.717-1.745.916,1.331.919,1.283,2.7-1.63.92,1.283.948,1.16,2.649-1.406.949,1.161,1,.973,2.555-1.137,1.005.975,3.264.468a58.1,58.1,0,0,0,7.24.5c-3.654-4.5-9.9-11.32-15.024-17.559l-.626-.766-.026-1.206-2.331-.628-.027-1.207-.009-.012-.11-.138-.1-.134-.061-.079-.1-.134-.06-.077-.052-.067c-1.217-1.62-2.276-3.14-3.091-4.494a21.234,21.234,0,0,0,3.593,1.212l1.378.325,1.014,1.077,2.56-1.478,1.013,1.079.172.023.211.032.642.1c2.182.163,3.511.017,2.662-.5-7.89-4.811-15.548-13.151-17.858-18.382.649.143,1.3.288,1.951.43l.93,1.247,2.684-1.573.931,1.248.984,1.2,2.612-1.674.984,1.2,1.561.166c1.072.091,2.141.142,3.2.142-3.116-7.266-11.284-15.538-13.874-20.954-.862-1.8,7.04,2.017,6.231.36-1.812-3.711-3.747-7.683-5.6-11.576l.413-1.263-2.475-.968.412-1.263-.886-1.887c-1.095-2.359-2.126-4.637-3.03-6.723l-.609-1.417c-.071-.168-.144-.338-.214-.5h0l.089.012c.032,0,.065.011.1.015l.949,1.172,2.648-1.448.951,1.172,3.981,1.141,1.506.479c-2.34-3.854-5.111-7.881-7.72-11.953l.208-1.487-2.846-.973.208-1.488-1-1.675a53.961,53.961,0,0,1-4.116-8.65c-.376-1.059,5.013,1.07,4.661.006-3.664-11.065-8.625-24.879-10.486-36.206Z" transform="translate(-664.83 -3617.277)" fill="#81a546" fill-rule="evenodd"/>
      </g>
      <g id="Grupo_962148" data-name="Grupo 962148" transform="translate(522.295 195.688)">
        <path id="Trazado_700072" data-name="Trazado 700072" d="M1263.087,3617.277a161.216,161.216,0,0,1-4.914,28.778l-1.221.844,1.114,2.754-1.221.844-1.16,3.552c-1.131,3.214-2.371,6.258-3.7,9.129-.372.807,4.356-.95,3.966-.166-2.612,5.246-6,13.137-9.27,17.331a13.637,13.637,0,0,0,3.069-1.491l.477-.333,1.458.479,1.272-2.792,1.458.479-.365,3.106c-.786,1.708-1.587,3.4-2.409,5.085l-.543.381.065,1.321-.543.381-.049.1-1.006,2.03c-1.366,2.731-2.8,5.528-4.3,8.488-.559,1.1,5.043-1.173,4.452-.01-1.674,3.3-5.164,7.787-8.707,12.594l-1.218.312.178,2.51-1.22.312-1.2.342.206,2.5-1.2.344-.066.106a54.868,54.868,0,0,0-3.9,6.772,40.242,40.242,0,0,0,4.473-.264l3.228-.455,1.36.9,1.829-2.7,1.36.9.069-.015.656-.129.412-.082c.751-.163,1.505-.333,2.258-.5-2.638,5.7-12.142,15.751-15.263,21.194-.975,1.7,11.887-6,10.868-4.326a92.6,92.6,0,0,1-8.805,11.221l-1.2.231-.165,2.433-1.2.232-1.112,1.252c-3.561,4-6.993,7.828-9.175,10.736,1.522,0,3.015-.079,4.485-.218l1.3.875,2-2.407,1.3.873,1.322.734,1.905-2.355,1.323.733,2.521-.587c.564-.136,1.134-.274,1.7-.411l3.448-.859,1.375.8,1.768-2.643,1.375.8.619-.144,1.333.915,1.9-2.616,1.334.913.093-.016.42-.072.626-.109c.276-.035,2.824-.618,3.1-.648L1255.935,3779h11.406l-.078-21.349c2.351.3,5.608,1.328,8.023,1.788l.914,1.331,2.717-1.745.8,1.164V3724.4a22.2,22.2,0,0,1-1.967-3.43l1.95.43.017.023V3702.4c-.091-.192-.084-.322,0-.4v-12.488l-1.433-.56.412-1.263-.885-1.887c-1.1-2.359-2.126-4.637-3.031-6.723l-.609-1.417c-.071-.168-.144-.338-.213-.5h0l.09.012c.031,0,.064.011.095.015l.95,1.172,2.647-1.448.95,1.172,1.023.293v-5.641c-1.085-1.649-2.183-3.313-3.255-4.986l.207-1.487-2.845-.973.207-1.488-1-1.675a54.035,54.035,0,0,1-4.116-8.65c-.375-1.059,5.014,1.07,4.661.006-3.664-11.065-8.624-24.879-10.486-36.206Z" transform="translate(-1222.184 -3617.277)" fill="#81a546" fill-rule="evenodd"/>
      </g>
    </g>
    <g id="Grupo_962236" data-name="Grupo 962236" transform="translate(741.092 6859.94)">
      <g id="Grupo_962150" data-name="Grupo 962150" transform="translate(361.105 105.928)">
        <path id="Trazado_700073" data-name="Trazado 700073" d="M1060.038,3661.422,1044,3650.9s-3.344-1.912-9.861-1.308c-2.766.258-6.607-.38-6.451.017,1.2,3.135,9.835,2.327,10.034,3.151.268,1.12-9.606.136-9.606.136s-.227,2.181,5.045,2.581c2.938.222,4.684.434,4.684.434l-8.339.438s-.7,1.13,4.625,2.078a32.133,32.133,0,0,0,5.871-.086l-8.414,1.018s.891,1.606,5.25,1.428c1.476-.06,4.453.147,4.453.147,4.455.235,4.471,2.324,7.828,4.074,3.6,1.879,10.6-.635,10.924-3.588Z" transform="translate(-1027.679 -3649.476)" fill="#ee9a93" fill-rule="evenodd"/>
      </g>
      <g id="Grupo_962151" data-name="Grupo 962151" transform="translate(373.022 81.089)">
        <path id="Trazado_700074" data-name="Trazado 700074" d="M1040.4,3622.97h3.494v161.813H1040.4V3622.97Z" transform="translate(-1040.396 -3622.97)" fill="#d0d2d3" fill-rule="evenodd"/>
      </g>
      <g id="Grupo_962152" data-name="Grupo 962152" transform="translate(413.488 72.354)">
        <path id="Trazado_700075" data-name="Trazado 700075" d="M1096.232,3623.267s-7.669,18.093-12.642,24.628c-.409.2,9.819,12.382,12.114,11.729,11.961-7.131,22.16-22.815,23.6-39.643-2.113-11.15-17.244-5.987-23.069,3.286Z" transform="translate(-1083.578 -3613.649)" fill="#59c6db" fill-rule="evenodd"/>
      </g>
      <g id="Grupo_962153" data-name="Grupo 962153" transform="translate(0 259.704)">
        <path id="Trazado_700076" data-name="Trazado 700076" d="M907.254,3813.575c146.295,0,264.916,7.342,264.916,16.4,0,23.028-118.624,16.4-264.919,16.4-146.271,0-264.916-7.349-264.916-16.4s118.643-16.4,264.919-16.4Z" transform="translate(-642.335 -3813.575)" fill="#81a546" fill-rule="evenodd"/>
      </g>
      <g id="Grupo_962154" data-name="Grupo 962154" transform="translate(451.302 245.822)">
        <path id="Trazado_700077" data-name="Trazado 700077" d="M1123.931,3800.322l2.5,7.871s7.8.474,7.978-.407-2.351-9.024-2.351-9.024l-6.749,1.336-1.377.225Z" transform="translate(-1123.931 -3798.761)" fill="#59c6db" fill-rule="evenodd"/>
      </g>
      <g id="Grupo_962155" data-name="Grupo 962155" transform="translate(486.723 246.096)">
        <path id="Trazado_700078" data-name="Trazado 700078" d="M1161.73,3800.116l1.119,8.1s7.8.474,7.98-.407-1.478-8.751-1.478-8.751l-7.621,1.063Z" transform="translate(-1161.73 -3799.053)" fill="#59c6db" fill-rule="evenodd"/>
      </g>
      <g id="Grupo_962156" data-name="Grupo 962156" transform="translate(431.155 131.12)">
        <path id="Trazado_700079" data-name="Trazado 700079" d="M1117.218,3679.875s-15.905,18.518-14.723,61.538c.535,19.409,19.46,53.295,19.46,53.295l10.835-1.043s-11.648-26.479-12.869-49.079c-1.273-23.472,10.362-41.335,11.084-41.818,1.42-.943,13.164.039,13.164.039s.6,21.086,2.834,42.551c2.527,24.246,9.418,49.345,9.538,49.975.239,1.181,11.251,0,11.251,0s-2.4-24.069-4.474-50.447c-2.237-28.348-1.542-59.166-1.42-64.058.234-9.464-44.68-.953-44.68-.953Z" transform="translate(-1102.432 -3676.359)" fill="#f3763e" fill-rule="evenodd"/>
      </g>
      <g id="Grupo_962157" data-name="Grupo 962157" transform="translate(440.621 157.123)">
        <path id="Trazado_700080" data-name="Trazado 700080" d="M1131.323,3704.519a2.5,2.5,0,0,1,.953-.27c-3.458-.18-7.736-.279-8.558.27-.72.477-12.355,18.345-11.088,41.812,1.229,22.6,15.169,49.707,15.169,49.707l5.626-.628s-11.968-26.473-13.189-49.079c-1.272-23.467,10.362-41.335,11.087-41.812Z" transform="translate(-1112.533 -3704.107)" fill="#cc4b27" fill-rule="evenodd"/>
      </g>
      <g id="Grupo_962158" data-name="Grupo 962158" transform="translate(440.363 135.085)">
        <path id="Trazado_700081" data-name="Trazado 700081" d="M1164.406,3749.714c-.437-10.3-2-55.9-2.218-62.449l.445-4.338-45.685-2.337-4.689,9.063,40.37,1.762c-.166,14.327.163,36.993,1.169,46.477,1.62,15.274,9.715,58.279,9.715,58.279l4.9-.573s-3.529-34.781-4-45.884Z" transform="translate(-1112.258 -3680.59)" fill="#cc4b27" fill-rule="evenodd"/>
      </g>
      <g id="Grupo_962159" data-name="Grupo 962159" transform="translate(425.335 251.992)">
        <path id="Trazado_700082" data-name="Trazado 700082" d="M1135.917,3805.345c-.054,9.56,5.518,11.791,2.713,19.919l-42.273-.321a7.01,7.01,0,0,1,2.287-6.5c2.866-.21,6.629-.467,10.559-.721,7.3-1.478,7.413-6.872,12.6-11.029,4.705-.439,9.406-.906,14.115-1.352Z" transform="translate(-1096.221 -3805.345)" fill="#4f96d1" fill-rule="evenodd"/>
      </g>
      <g id="Grupo_962160" data-name="Grupo 962160" transform="translate(446.298 252.534)">
        <path id="Trazado_700083" data-name="Trazado 700083" d="M1137.347,3806.838c.445,7.334,4.21,10.06,3.335,15.838l-22.091-10.622a24.765,24.765,0,0,1,4.619-5.321l8.369-.811,5.768.915Z" transform="translate(-1118.591 -3805.923)" fill="#3e7fa9" fill-rule="evenodd"/>
      </g>
      <g id="Grupo_962161" data-name="Grupo 962161" transform="translate(424.444 271.578)">
        <path id="Trazado_700084" data-name="Trazado 700084" d="M1140.031,3826.579l-44.738-.333-.023,2.763,44.74.331.021-2.761Z" transform="translate(-1095.27 -3826.246)" fill="#cca440" fill-rule="evenodd"/>
      </g>
      <g id="Grupo_962162" data-name="Grupo 962162" transform="translate(458.254 253.034)">
        <path id="Trazado_700085" data-name="Trazado 700085" d="M1171.046,3806.457c-.054,9.558,5.518,11.789,2.711,19.917l-42.272-.318a7.022,7.022,0,0,1,2.288-6.5c2.867-.209,6.629-.466,10.56-.72,7.3-1.479,7.412-6.869,12.6-11.026,4.7-.439,9.407-.906,14.115-1.353Z" transform="translate(-1131.349 -3806.457)" fill="#609dd4" fill-rule="evenodd"/>
      </g>
      <g id="Grupo_962163" data-name="Grupo 962163" transform="translate(479.215 253.574)">
        <path id="Trazado_700086" data-name="Trazado 700086" d="M1172.476,3807.951c.445,7.331,4.211,10.056,3.336,15.835l-22.094-10.619a24.7,24.7,0,0,1,4.621-5.321l8.368-.813,5.769.918Z" transform="translate(-1153.718 -3807.033)" fill="#4685b9" fill-rule="evenodd"/>
      </g>
      <g id="Grupo_962164" data-name="Grupo 962164" transform="translate(457.363 272.618)">
        <path id="Trazado_700087" data-name="Trazado 700087" d="M1175.159,3827.688l-44.738-.333-.022,2.767,44.741.331.019-2.764Z" transform="translate(-1130.399 -3827.355)" fill="#dfb847" fill-rule="evenodd"/>
      </g>
      <g id="Grupo_962165" data-name="Grupo 962165" transform="translate(448.898 246.598)">
        <path id="Trazado_700088" data-name="Trazado 700088" d="M1136.779,3800.757a1.4,1.4,0,0,1-1.142,1.625l-12.625,2.2a1.4,1.4,0,0,1-1.625-1.145h0a1.405,1.405,0,0,1,1.143-1.626l12.624-2.2a1.4,1.4,0,0,1,1.626,1.146Z" transform="translate(-1121.365 -3799.589)" fill="#ca2e27" fill-rule="evenodd"/>
      </g>
      <g id="Grupo_962166" data-name="Grupo 962166" transform="translate(483.294 247.649)">
        <path id="Trazado_700089" data-name="Trazado 700089" d="M1173.677,3802.042a1.409,1.409,0,0,1-1.33,1.481l-12.8.679a1.41,1.41,0,0,1-1.48-1.329h0a1.408,1.408,0,0,1,1.33-1.481l12.8-.679a1.407,1.407,0,0,1,1.478,1.329Z" transform="translate(-1158.071 -3800.711)" fill="#ca2e27" fill-rule="evenodd"/>
      </g>
      <g id="Grupo_962167" data-name="Grupo 962167" transform="translate(58.271 246.646)">
        <path id="Trazado_700090" data-name="Trazado 700090" d="M714.155,3800.77l-1.189,8.559s-8.245.5-8.434-.44,1.563-9.248,1.563-9.248l8.06,1.13Z" transform="translate(-704.517 -3799.64)" fill="#919396" fill-rule="evenodd"/>
      </g>
      <g id="Grupo_962168" data-name="Grupo 962168" transform="translate(94.268 246.646)">
        <path id="Trazado_700091" data-name="Trazado 700091" d="M752.567,3800.77l-1.186,8.559s-8.248.5-8.437-.44,1.566-9.248,1.566-9.248l8.057,1.13Z" transform="translate(-742.93 -3799.64)" fill="#919396" fill-rule="evenodd"/>
      </g>
      <g id="Grupo_962169" data-name="Grupo 962169" transform="translate(54.786 125.222)">
        <path id="Trazado_700092" data-name="Trazado 700092" d="M757.042,3673.622s4.25,15,3,60.5c-.568,20.525-6.253,62.247-6.253,62.247l-16.749-.5s3.957-23.344,5.251-47.245c1.345-24.817-.986-50.243-1.75-50.748-1.5-1-12,0-12,0s-.627,22.291-3,44.994c-2.67,25.64-7.119,52.085-7.248,52.747-.25,1.25-17.5.251-17.5.251a487.982,487.982,0,0,0,7.5-53.5c2.36-29.978,5.1-62.333,4.971-67.517-.253-10,43.773-1.23,43.773-1.23Z" transform="translate(-700.799 -3670.066)" fill="#008bc1" fill-rule="evenodd"/>
      </g>
      <g id="Grupo_962170" data-name="Grupo 962170" transform="translate(91.031 152.5)">
        <path id="Trazado_700093" data-name="Trazado 700093" d="M744.835,3797.067s3.956-23.341,5.249-47.247c1.345-24.817.655-34.53-.112-35.036-.035-3.809-4.226-15.62-7-15.4,2.459-.078-.655-.436,0,0,.765.506,3.094,25.934,1.75,50.751-1.292,23.9-5.251,47.243-5.251,47.243l16.75.5s.025-.165.065-.474l-11.455-.341Z" transform="translate(-739.476 -3699.175)" fill="#00a4d7" fill-rule="evenodd"/>
      </g>
      <g id="Grupo_962171" data-name="Grupo 962171" transform="translate(54.785 121.663)">
        <path id="Trazado_700094" data-name="Trazado 700094" d="M707.794,3746.514c.465-10.893,1.188-59.217,2.346-66.051,3.109-18.365,3.531-16.585,6.16-7.724,1.2,4.028,4.285,7.56,3.992,18.913-.392,15.141-.213,32.336-1.277,42.36-1.714,16.146-10.47,61.987-10.47,61.987l-7.748-.39s6.5-37.349,7-49.094Z" transform="translate(-700.797 -3666.268)" fill="#00a4d7" fill-rule="evenodd"/>
      </g>
      <g id="Grupo_962172" data-name="Grupo 962172" transform="translate(132.676 78.614)">
        <path id="Trazado_700095" data-name="Trazado 700095" d="M798.243,3667.249c8.8,10.3,30.548,8.074,30.548,8.074l3.708-10.63s-19.191-1.849-23.687-10.225-8.577-25.029-10.425-31.88c-2.47-5.985-13.888,1.818-13.888,1.818s-4.906,19.84,13.743,42.843Z" transform="translate(-783.917 -3620.329)" fill="#cc872f" fill-rule="evenodd"/>
      </g>
      <g id="Grupo_962173" data-name="Grupo 962173" transform="translate(143.734 78.629)">
        <path id="Trazado_700096" data-name="Trazado 700096" d="M833.245,3664.694c-3.731-1.993-19.664-2.728-23.69-10.226-4.494-8.376-8.314-25.363-10.161-32.208-1.619-3.927-.107-.895-3.677.953,3.933,8,1.513,15.469,10.508,32.7a32.02,32.02,0,0,0,25.843,12.133l1.177-3.356Z" transform="translate(-795.717 -3620.345)" fill="#ebae40" fill-rule="evenodd"/>
      </g>
      <g id="Grupo_962174" data-name="Grupo 962174" transform="translate(66.725 53.884)">
        <path id="Trazado_700097" data-name="Trazado 700097" d="M750.4,3594.741s-5.445,15.246-8.335,21.858-28.527,45.357-28.527,45.357c8.359,18.965,26.927,18.957,45.213,25.838,1.318-7.728,24.211-51.76,24.413-52.079s10.422-13.846,10.422-13.846c.638-1.27.252-9.926-15.522-20.292s-27.778-7.354-27.664-6.836Z" transform="translate(-713.539 -3593.938)" fill="#ebae40" fill-rule="evenodd"/>
      </g>
      <g id="Grupo_962175" data-name="Grupo 962175" transform="translate(72.477 68.489)">
        <path id="Trazado_700098" data-name="Trazado 700098" d="M719.677,3671.814c9.606,10.325,24.623,11.379,39.461,16.961,1.318-7.728,24.211-51.76,24.413-52.079.154-.24,4.584-9.446,7.426-13.209-1.573-2.008-1.321-3.007-9.289-8.239-15.775-10.367-29.941-3.587-29.828-3.07,0,0-5.8,9.888-8.683,16.5-1.345,3.084-20.479-4.6-14.107,26.011,1.089,5.227-6.638,12.937-9.393,17.125Z" transform="translate(-719.677 -3609.524)" fill="#cc872f" fill-rule="evenodd"/>
      </g>
      <g id="Grupo_962176" data-name="Grupo 962176" transform="translate(119.423 55.897)">
        <path id="Trazado_700099" data-name="Trazado 700099" d="M788.537,3607.1c-4.933,6.892-9.629,10.155-15.614,11.5.832-9.566-1.449-14.7-3.15-22.511,0,0,6.767,1.357,11.112,4.427,2.242,1.581,2.95,1.543,7.651,6.586Z" transform="translate(-769.774 -3596.087)" fill="#f9bcad" fill-rule="evenodd"/>
      </g>
      <g id="Grupo_962177" data-name="Grupo 962177" transform="translate(122.549 54.51)">
        <path id="Trazado_700100" data-name="Trazado 700100" d="M773.477,3603.482c-1.106,2.3.371,5.309,3.294,6.711s6.192.677,7.3-1.621l3.144-6.539c1.106-2.3-.368-5.307-3.294-6.711s-6.193-.677-7.3,1.619l-3.14,6.541Z" transform="translate(-773.11 -3594.607)" fill="#ee9a93" fill-rule="evenodd"/>
      </g>
      <g id="Grupo_962178" data-name="Grupo 962178" transform="translate(119.312 20.296)">
        <path id="Trazado_700101" data-name="Trazado 700101" d="M771.06,3559.739a5.062,5.062,0,0,0,.153,7.152c2.018,1.885,6.639,4.047,8.566,1.991s.44-7.574-1.577-9.462a5.06,5.06,0,0,0-7.142.319Z" transform="translate(-769.656 -3558.096)" fill="#f6a299" fill-rule="evenodd"/>
      </g>
      <g id="Grupo_962179" data-name="Grupo 962179" transform="translate(123.043 11.735)">
        <path id="Trazado_700102" data-name="Trazado 700102" d="M777.47,3563.109c-6.494,10.811-4.854,26.748,5.826,34.167,10.7,7.412,25.686,3.059,32.88-7.306s12.474-22.911,1.79-30.328-25.542-21.417-40.5,3.467Z" transform="translate(-773.637 -3548.961)" fill="#f6a299" fill-rule="evenodd"/>
      </g>
      <g id="Grupo_962180" data-name="Grupo 962180" transform="translate(123.043 11.735)">
        <path id="Trazado_700103" data-name="Trazado 700103" d="M777.47,3563.109c-4.842,8.058-5.162,18.968-.581,27.073.25.2.5.385.766.563,10.687,7.417,25.68,3.059,32.875-7.3,5.449-7.861,9.8-16.967,6.935-24.147-10.649-7.493-25.27-20.686-39.994,3.814Z" transform="translate(-773.637 -3548.961)" fill="#f9bcad" fill-rule="evenodd"/>
      </g>
      <g id="Grupo_962181" data-name="Grupo 962181" transform="translate(139.757 29.157)">
        <path id="Trazado_700104" data-name="Trazado 700104" d="M792.129,3570.46a.958.958,0,0,1-.273-1.675,6.234,6.234,0,0,1,8.71,1.262.962.962,0,0,1-.2,1.343.948.948,0,0,1-1.337-.2,4.311,4.311,0,0,0-6.03-.873.953.953,0,0,1-.873.141Zm23.66,15.54a.968.968,0,0,1-.651-1.015,4.324,4.324,0,0,0-3.806-4.752.958.958,0,0,1,.207-1.905,6.242,6.242,0,0,1,5.5,6.865.96.96,0,0,1-1.054.848,1.029,1.029,0,0,1-.2-.041Z" transform="translate(-791.474 -3567.552)" fill="#311612" fill-rule="evenodd"/>
      </g>
      <g id="Grupo_962182" data-name="Grupo 962182" transform="translate(120.612 22.313)">
        <path id="Trazado_700105" data-name="Trazado 700105" d="M773.368,3566.9l-.012,0a3.415,3.415,0,0,1,1.9-6.551.957.957,0,1,1-.441,1.863,1.5,1.5,0,0,0-.839,2.878.957.957,0,0,1-.611,1.814Z" transform="translate(-771.044 -3560.249)" fill="#ed7660" fill-rule="evenodd"/>
      </g>
      <g id="Grupo_962183" data-name="Grupo 962183" transform="translate(155.325 44.691)">
        <path id="Trazado_700106" data-name="Trazado 700106" d="M808.832,3585.724c-.942,1.355-1,2.944-.126,3.554s2.332-.01,3.278-1.368,1-2.945.129-3.547-2.342,0-3.282,1.361Z" transform="translate(-808.086 -3584.129)" fill="#3a1610" fill-rule="evenodd"/>
      </g>
      <g id="Grupo_962184" data-name="Grupo 962184" transform="translate(158.198 45.604)">
        <path id="Trazado_700107" data-name="Trazado 700107" d="M811.357,3585.554a.682.682,0,1,0,1.037-.362.791.791,0,0,0-1.037.362Z" transform="translate(-811.152 -3585.103)" fill="#fff" fill-rule="evenodd"/>
      </g>
      <g id="Grupo_962185" data-name="Grupo 962185" transform="translate(139.658 33.927)">
        <path id="Trazado_700108" data-name="Trazado 700108" d="M792.116,3574.241c-.945,1.353-1,2.942-.129,3.547s2.336,0,3.283-1.361,1-2.946.126-3.55-2.336,0-3.28,1.364Z" transform="translate(-791.368 -3572.642)" fill="#3a1610" fill-rule="evenodd"/>
      </g>
      <g id="Grupo_962186" data-name="Grupo 962186" transform="translate(142.399 35.073)">
        <path id="Trazado_700109" data-name="Trazado 700109" d="M794.493,3574.32a.681.681,0,1,0,1.039-.366c-.291-.205-.756-.04-1.039.366Z" transform="translate(-794.293 -3573.865)" fill="#fff" fill-rule="evenodd"/>
      </g>
      <g id="Grupo_962187" data-name="Grupo 962187" transform="translate(143.83 44.899)">
        <path id="Trazado_700110" data-name="Trazado 700110" d="M798.109,3588a3.483,3.483,0,0,1-.467-.191,3.392,3.392,0,0,1-1.8-2.288.958.958,0,0,1,.721-1.145.942.942,0,0,1,1.141.72,1.5,1.5,0,0,0,2.777.388.955.955,0,1,1,1.668.931,3.4,3.4,0,0,1-4.041,1.586Z" transform="translate(-795.819 -3584.351)" fill="#ed7660" fill-rule="evenodd"/>
      </g>
      <g id="Grupo_962188" data-name="Grupo 962188" transform="translate(125.739)">
        <path id="Trazado_700111" data-name="Trazado 700111" d="M786.667,3538.994a9.244,9.244,0,0,1,11.861-.758,31.524,31.524,0,0,0,3.155,2.081c.185.1.358.206.546.309.541.282,7.206-.047,12.07,1.224,1.119.3-.306,2.546.857,2.77,4.667.923,9.789.661,10.891,1.18,2.2,1.043-.634,6.3.6,6.646,1.365.379,11.316-.673,12.414-.364,1.786.5-1.569,5.914-5.794,11.726-.417.563.677,2.21.25,2.777a116.582,116.582,0,0,1-11.927,13.124s5.057-11.412-3.261-14.862c-3.921-1.631-10.024-2.054-14.554-6.99-2.352-2.56-5.087-5.815-7.163-7a7.827,7.827,0,0,0-8.5.563,8.257,8.257,0,0,0-1.564,1.459c-2.425,3.063-4.14,8.515-5.672,11.031-.631,1.046-2.935.813-3.005.8-1.3-.1.525-3.676.1-5.656-.488-2.217-1.452-2.09-1.452-2.09a33.41,33.41,0,0,1,5.568-12.713,34.09,34.09,0,0,1,4.584-5.26Z" transform="translate(-776.514 -3536.438)" fill="#2d1311" fill-rule="evenodd"/>
      </g>
      <g id="Grupo_962189" data-name="Grupo 962189" transform="translate(128.458 4.713)">
        <path id="Trazado_700112" data-name="Trazado 700112" d="M838.077,3552.993a21.907,21.907,0,0,1-7.046,6.4c-6.858,3.933-15.671,1.366-19.732-2.389-17.32-16.045-23.519-8.835-25.737-5.485s-6.145,11.046-6.145,11.046,8.665-31.89,24.576-17.26c19.1,17.548,34.084,7.685,34.084,7.685Z" transform="translate(-779.416 -3541.467)" fill="#54311a" fill-rule="evenodd"/>
      </g>
      <g id="Grupo_962190" data-name="Grupo 962190" transform="translate(86.546 253.298)">
        <path id="Trazado_700113" data-name="Trazado 700113" d="M738.281,3806.738c-.018,9.5-5.577,11.677-2.827,19.78h42.016a6.937,6.937,0,0,0-2.23-6.482c-2.84-.225-6.58-.506-10.492-.785-7.241-1.53-7.308-6.891-12.439-11.052-4.673-.487-9.336-.976-14.027-1.461Z" transform="translate(-734.69 -3806.738)" fill="#9857a2" fill-rule="evenodd"/>
      </g>
      <g id="Grupo_962191" data-name="Grupo 962191" transform="translate(86.551 253.887)">
        <path id="Trazado_700114" data-name="Trazado 700114" d="M738.248,3808.239c-.482,7.272-4.257,9.971-3.435,15.708l22.046-10.387a24.255,24.255,0,0,0-4.551-5.321l-8.316-.872-5.745.872Z" transform="translate(-734.696 -3807.367)" fill="#87499b" fill-rule="evenodd"/>
      </g>
      <g id="Grupo_962192" data-name="Grupo 962192" transform="translate(85.845 273.07)">
        <path id="Trazado_700115" data-name="Trazado 700115" d="M733.943,3827.838h44.483v2.757H733.943v-2.757Z" transform="translate(-733.943 -3827.838)" fill="#efcf78" fill-rule="evenodd"/>
      </g>
      <g id="Grupo_962193" data-name="Grupo 962193" transform="translate(51.817 254.629)">
        <path id="Trazado_700116" data-name="Trazado 700116" d="M701.219,3808.159c-.015,9.5-5.574,11.672-2.825,19.777h42.016a6.952,6.952,0,0,0-2.23-6.482c-2.843-.225-6.585-.506-10.495-.785-7.238-1.527-7.31-6.893-12.435-11.055-4.679-.482-9.336-.975-14.03-1.455Z" transform="translate(-697.631 -3808.159)" fill="#9857a2" fill-rule="evenodd"/>
      </g>
      <g id="Grupo_962194" data-name="Grupo 962194" transform="translate(51.816 255.215)">
        <path id="Trazado_700117" data-name="Trazado 700117" d="M701.188,3809.654c-.484,7.277-4.261,9.977-3.443,15.71L719.8,3814.98a24.6,24.6,0,0,0-4.552-5.326l-8.32-.87-5.742.87Z" transform="translate(-697.63 -3808.784)" fill="#87499b" fill-rule="evenodd"/>
      </g>
      <g id="Grupo_962195" data-name="Grupo 962195" transform="translate(51.114 274.399)">
        <path id="Trazado_700118" data-name="Trazado 700118" d="M696.88,3829.256h44.485v2.755H696.88v-2.755Z" transform="translate(-696.88 -3829.256)" fill="#efcf78" fill-rule="evenodd"/>
      </g>
      <g id="Grupo_962196" data-name="Grupo 962196" transform="translate(82.493 53.175)">
        <path id="Trazado_700119" data-name="Trazado 700119" d="M948.579,3618.337l46.095,67.872,88.1,129.726H730.365l88.1-129.726,46.095-67.872c11.31-16.652,25.51-25.156,42.008-25.155s30.7,8.5,42.007,25.155Z" transform="translate(-730.365 -3593.182)" fill="#166969" fill-rule="evenodd"/>
      </g>
      <g id="Grupo_962197" data-name="Grupo 962197" transform="translate(61.782 53.175)">
        <path id="Trazado_700120" data-name="Trazado 700120" d="M952.127,3616.126l51.512,61.906,98.46,118.323H708.264l98.459-118.323,51.514-61.906c12.639-15.188,28.507-22.945,46.945-22.944s34.306,7.756,46.945,22.944Z" transform="translate(-708.264 -3593.182)" fill="#0a9a9f" fill-rule="evenodd"/>
      </g>
      <g id="Grupo_962198" data-name="Grupo 962198" transform="translate(61.782 58.849)">
        <path id="Trazado_700121" data-name="Trazado 700121" d="M1023.927,3796.737H708.264l144.782-173.991c25.453-30.588,53.846-32.917,73.846,2.44l97.034,171.551Z" transform="translate(-708.264 -3599.237)" fill="#3bbdc1" fill-rule="evenodd"/>
      </g>
      <g id="Grupo_962199" data-name="Grupo 962199" transform="translate(172.14 105.237)">
        <path id="Trazado_700122" data-name="Trazado 700122" d="M940.116,3648.739l31.845,151.112H826.787l-.757-25.221,7.787-116.759,106.3-9.133Z" transform="translate(-826.03 -3648.739)" fill="#0a9a9f" fill-rule="evenodd"/>
      </g>
      <g id="Grupo_962200" data-name="Grupo 962200" transform="translate(183.359 112.001)">
        <path id="Trazado_700123" data-name="Trazado 700123" d="M882.33,3655.957c-20.188,0-39.731,26.917-43.642,60.106s9.287,60.107,29.474,60.107,39.731-26.916,43.643-60.107-9.288-60.106-29.475-60.106Z" transform="translate(-838.002 -3655.957)" fill="#166969" fill-rule="evenodd"/>
      </g>
      <g id="Grupo_962201" data-name="Grupo 962201" transform="translate(126.76 105.237)">
        <path id="Trazado_700124" data-name="Trazado 700124" d="M777.6,3658l46.137,141.847,14.628-151.112L777.6,3658Z" transform="translate(-777.604 -3648.739)" fill="#087d7c" fill-rule="evenodd"/>
      </g>
      <g id="Grupo_962202" data-name="Grupo 962202" transform="translate(127.018 114.116)">
        <path id="Trazado_700125" data-name="Trazado 700125" d="M777.879,3658.214h3.494v161.813h-3.494V3658.214Z" transform="translate(-777.879 -3658.214)" fill="#d0d2d3" fill-rule="evenodd"/>
      </g>
      <g id="Grupo_962203" data-name="Grupo 962203" transform="translate(226.143 114.116)">
        <path id="Trazado_700126" data-name="Trazado 700126" d="M883.658,3658.214h3.493v161.813h-3.493V3658.214Z" transform="translate(-883.658 -3658.214)" fill="#d0d2d3" fill-rule="evenodd"/>
      </g>
      <g id="Grupo_962204" data-name="Grupo 962204" transform="translate(226.645 105.237)">
        <path id="Trazado_700127" data-name="Trazado 700127" d="M884.194,3658l46.136,141.847,13.445-151.112L884.194,3658Z" transform="translate(-884.194 -3648.739)" fill="#087d7c" fill-rule="evenodd"/>
      </g>
      <g id="Grupo_962205" data-name="Grupo 962205" transform="translate(126.76 105.237)">
        <path id="Trazado_700128" data-name="Trazado 700128" d="M838.369,3648.739h98.7L877.488,3658H777.6l60.765-9.265Z" transform="translate(-777.604 -3648.739)" fill="#3bbdc1" fill-rule="evenodd"/>
      </g>
      <g id="Grupo_962206" data-name="Grupo 962206" transform="translate(132.929 108.531)">
        <path id="Trazado_700129" data-name="Trazado 700129" d="M791.567,3661.789c-.75.06-5.761-3.252-6.519-4.016s-.859-5.314-.859-5.314-.2-1.6,4.113,4.183c2.5,3.349,5.6,4.973,3.266,5.147Z" transform="translate(-784.186 -3652.254)" fill="#f9bcad" fill-rule="evenodd"/>
      </g>
      <g id="Grupo_962207" data-name="Grupo 962207" transform="translate(112.543 108.076)">
        <path id="Trazado_700130" data-name="Trazado 700130" d="M769.474,3652.417a35.74,35.74,0,0,1,4.7-.483,32,32,0,0,1,4.4.013s2.5-.148,4-.179,2.588,4.008,2.588,4.008,2.4,6.38,2.734,7.323-1.236.664-1.838-.058a18.884,18.884,0,0,1-2.906-4.847c-.356-1.208.625,3.429,1.137,4.922.374,1.081-1.442.64-2.5-1.655a27.037,27.037,0,0,0-2.63-4.367,9.263,9.263,0,0,1-2.145.534,43.173,43.173,0,0,0-5.973,1.562c-5.744,2.1-6.213-1.751-8.6-4.971l7.041-1.8Z" transform="translate(-762.433 -3651.769)" fill="#f9bcad" fill-rule="evenodd"/>
      </g>
      <g id="Grupo_962208" data-name="Grupo 962208" transform="translate(127.722 110.469)">
        <path id="Trazado_700131" data-name="Trazado 700131" d="M780.38,3662.687s-1.8-3.638-1.736-4.974c-.185-.765,1.39-3.3,1.39-3.3s.483-1.083.983,4.178c.293,3.046,1.3,5.447-.637,4.094Z" transform="translate(-778.63 -3654.322)" fill="#f9bcad" fill-rule="evenodd"/>
      </g>
      <g id="Grupo_962209" data-name="Grupo 962209" transform="translate(111.305 107.205)">
        <path id="Trazado_700132" data-name="Trazado 700132" d="M764.375,3650.839l-3.264,13.523,4.011,1.1,3.195-12.851-3.942-1.776Z" transform="translate(-761.112 -3650.839)" fill="#ffe161" fill-rule="evenodd"/>
      </g>
      <g id="Grupo_962210" data-name="Grupo 962210" transform="translate(81.204 54.686)">
        <path id="Trazado_700133" data-name="Trazado 700133" d="M728.99,3635.472c2.6,17.081,4.64,19.549,30.1,25.365l3.266-13.525s-17.421-4.117-17.07-13.624,6.533-19.834,11.151-23.768c1.679-2.476-5.063-15.126-5.063-15.126-3.785,1.442-21.936,21.222-22.383,40.677Z" transform="translate(-728.99 -3594.795)" fill="#ebae40" fill-rule="evenodd"/>
      </g>
      <g id="Grupo_962211" data-name="Grupo 962211" transform="translate(91.719 64.392)">
        <path id="Trazado_700134" data-name="Trazado 700134" d="M745.991,3634.34c.354-9.5,7.467-17,11.151-23.762,1.039-.888.006-3.042.152-5.426-7.618,7.355-21.844,15.681-15.494,31.721,2.679,6.772,3.77,8.842,4.192-2.534Z" transform="translate(-740.21 -3605.152)" fill="#cc872f" fill-rule="evenodd"/>
      </g>
      <g id="Grupo_962212" data-name="Grupo 962212" transform="translate(431.398 62.913)">
        <path id="Trazado_700135" data-name="Trazado 700135" d="M1167.25,3659.22c-.651,7.334-4.906,15.767-4.906,15.767a110.676,110.676,0,0,1-22.524,6.374,206.032,206.032,0,0,1-27.3,2.23s-10.888-16.986-7.024-48.274c.871-7.063-2.8-18.631-2.8-18.631s3.886-6.674,21.982-10.42c25.162-5.2,26.386-1.259,26.386-1.259s-2.252,15.431,7.143,21.955c7.9,5.489,9.773,24.141,9.049,32.258Z" transform="translate(-1102.691 -3603.574)" fill="#5288b2" fill-rule="evenodd"/>
      </g>
      <g id="Grupo_962213" data-name="Grupo 962213" transform="translate(450.074 62.777)">
        <path id="Trazado_700136" data-name="Trazado 700136" d="M1159.347,3626.818c-9.4-6.527-7.144-21.957-7.144-21.957s-1.225-3.945-26.385,1.26c-1.12.233-2.183.474-3.2.726,4.065.267,17.791-1.437,21.011,1.624s11.763,30.391,9.962,45.728a92.942,92.942,0,0,1-6.174,23.954c11.946-1.9,16.069-3.312,16.069-3.312s4.253-8.431,4.906-15.767c.723-8.117-1.149-26.769-9.049-32.257Z" transform="translate(-1122.621 -3603.429)" fill="#427899" fill-rule="evenodd"/>
      </g>
      <g id="Grupo_962214" data-name="Grupo 962214" transform="translate(444.794 63.149)">
        <path id="Trazado_700137" data-name="Trazado 700137" d="M1116.986,3608.529l12.928,31.615,8.759-36.3s-3.9-.276-11.7,1.453a60.725,60.725,0,0,0-9.983,3.234Z" transform="translate(-1116.986 -3603.826)" fill="#fff" fill-rule="evenodd"/>
      </g>
      <g id="Grupo_962215" data-name="Grupo 962215" transform="translate(449.103 59.373)">
        <path id="Trazado_700138" data-name="Trazado 700138" d="M1133.295,3610.5c.222,2.4-2.076,4.581-5.126,4.865h0c-3.059.282-5.714-1.437-5.939-3.842l-.63-6.823c-.226-2.409,2.07-4.583,5.128-4.87h0c3.05-.285,5.707,1.435,5.933,3.839l.634,6.831Z" transform="translate(-1121.585 -3599.796)" fill="#ee9a93" fill-rule="evenodd"/>
      </g>
      <g id="Grupo_962216" data-name="Grupo 962216" transform="translate(467.912 31.962)">
        <path id="Trazado_700139" data-name="Trazado 700139" d="M1153.309,3573.872a5.016,5.016,0,0,1-2.866,6.5c-2.562.963-7.631,1.19-8.616-1.434s2.484-7.12,5.055-8.082a5.021,5.021,0,0,1,6.427,3.018Z" transform="translate(-1141.656 -3570.545)" fill="#f6a299" fill-rule="evenodd"/>
      </g>
      <g id="Grupo_962217" data-name="Grupo 962217" transform="translate(425.247 15.094)">
        <path id="Trazado_700140" data-name="Trazado 700140" d="M1143.294,3574c1.839,12.4-5.743,26.4-18.378,29.126s-24.724-6.988-27.372-19.24-2.711-25.772,9.921-28.5,31.6-9.91,35.829,18.616Z" transform="translate(-1096.127 -3552.545)" fill="#f9bcad" fill-rule="evenodd"/>
      </g>
      <g id="Grupo_962218" data-name="Grupo 962218" transform="translate(436.145 14.287)">
        <path id="Trazado_700141" data-name="Trazado 700141" d="M1132.927,3551.684c3.138,3.253,4.305,11.776,5.52,19.969,1.841,12.393-4.49,27.2-17.237,29.358-5.186.875-10.772-.879-13.453-2.111,5.017,3.894,11.441,6.048,17.99,4.633,12.633-2.729,20.217-16.718,18.378-29.118-2.478-16.7-2.86-22.444-11.2-22.73Z" transform="translate(-1107.757 -3551.684)" fill="#f6a299" fill-rule="evenodd"/>
      </g>
      <g id="Grupo_962219" data-name="Grupo 962219" transform="translate(474.196 33.663)">
        <path id="Trazado_700142" data-name="Trazado 700142" d="M1149.254,3579.108a.948.948,0,0,1,.111-1.892,1.494,1.494,0,0,0,.331-2.966.951.951,0,0,1,.3-1.879,3.393,3.393,0,0,1,.188,6.669,3.334,3.334,0,0,1-.931.067Z" transform="translate(-1148.362 -3572.36)" fill="#ed7660" fill-rule="evenodd"/>
      </g>
      <g id="Grupo_962220" data-name="Grupo 962220" transform="translate(419.001 2.949)">
        <path id="Trazado_700143" data-name="Trazado 700143" d="M1143.5,3548.354a9.2,9.2,0,0,0-10.6-5.219,30.2,30.2,0,0,1-3.69.707c-.2.023-.4.057-.618.075-.6.052-6.6-2.792-11.544-3.477-1.13-.16-.685,2.444-1.84,2.214-4.625-.932-9.231-3.129-10.434-3.069-2.418.114-1.825,6.024-3.091,5.864-1.394-.168-10.121-4.927-11.251-5.062-1.828-.225-.817,6.022.849,12.963.167.683-1.465,1.768-1.291,2.461a121.818,121.818,0,0,0,5.712,16.358s-.061-12.166,8.885-12.169c4.218,0,9.984,1.94,16.018-.858,3.139-1.458,6.888-3.393,9.241-3.693a8.05,8.05,0,0,1,8.46,5.694c1.06,3.737.557,9.386,1,12.28.182,1.2,2.384,1.866,2.451,1.886,1.229.395.921-3.577,2.071-5.223,1.288-1.853,2.122-1.368,2.122-1.368a33.11,33.11,0,0,0-.257-13.789,34.524,34.524,0,0,0-2.2-6.574Z" transform="translate(-1089.462 -3539.585)" fill="#2d1311" fill-rule="evenodd"/>
      </g>
      <g id="Grupo_962221" data-name="Grupo 962221" transform="translate(420.545 4.987)">
        <path id="Trazado_700144" data-name="Trazado 700144" d="M1091.109,3541.76a21.914,21.914,0,0,0,4.027,8.561c4.794,6.219,13.855,7.225,19.019,5.323,22.006-8.109,24.946.87,25.7,4.783s1.426,12.482,1.426,12.482,4.213-32.561-15.963-25.207c-24.21,8.823-34.208-5.942-34.208-5.942Z" transform="translate(-1091.109 -3541.76)" fill="#54311a" fill-rule="evenodd"/>
      </g>
      <g id="Grupo_962222" data-name="Grupo 962222" transform="translate(441.03 99.109)">
        <path id="Trazado_700145" data-name="Trazado 700145" d="M1145.328,3654.146l-16.042-10.52s-3.344-1.912-9.862-1.309c-2.766.259-6.607-.38-6.45.018,1.2,3.135,9.835,2.327,10.034,3.151.267,1.121-9.606.136-9.606.136s-.227,2.18,5.045,2.581c2.938.223,4.684.434,4.684.434l-8.34.438s-.7,1.13,4.626,2.078a32.111,32.111,0,0,0,5.871-.086l-8.414,1.019s.891,1.6,5.25,1.428c1.476-.061,4.453.146,4.453.146,4.454.236,4.471,2.325,7.828,4.074,3.6,1.88,10.6-.634,10.925-3.587Z" transform="translate(-1112.969 -3642.2)" fill="#f6a399" fill-rule="evenodd"/>
      </g>
      <g id="Grupo_962223" data-name="Grupo 962223" transform="translate(438.613 131.503)">
        <path id="Trazado_700146" data-name="Trazado 700146" d="M1162.317,3684.611c-11.963,5.181-23.838,3.871-49.5,3.281-.53-.978-1.9-4.113-2.427-5.091,13.728,3.266,37.851,2.792,53.668-6.032-.366,1.384-1.374,6.457-1.74,7.843Z" transform="translate(-1110.39 -3676.768)" fill="#59c6db" fill-rule="evenodd"/>
      </g>
      <g id="Grupo_962224" data-name="Grupo 962224" transform="translate(466.908 93.245)">
        <path id="Trazado_700147" data-name="Trazado 700147" d="M1140.585,3660.9l2.346-11.349s16.852-2.1,21.914-7.636a18.961,18.961,0,0,1,10.254-5.974s11.969,1.7,8.6,11.916c-3.372,10.231-18.95,13.135-28.229,14.47s-14.879-1.428-14.879-1.428Z" transform="translate(-1140.585 -3635.942)" fill="#59c6db" fill-rule="evenodd"/>
      </g>
      <g id="Grupo_962225" data-name="Grupo 962225" transform="translate(134.945 49.014)">
        <path id="Trazado_700148" data-name="Trazado 700148" d="M793.2,3597.294a10.382,10.382,0,0,1-6.831-7.366.958.958,0,1,1,1.859-.459,8.463,8.463,0,0,0,10.23,6.182.959.959,0,0,1,.459,1.861,10.307,10.307,0,0,1-5.717-.218Z" transform="translate(-786.339 -3588.742)" fill="#ed7660" fill-rule="evenodd"/>
      </g>
      <g id="Grupo_962226" data-name="Grupo 962226" transform="translate(429.178 33.066)">
        <path id="Trazado_700149" data-name="Trazado 700149" d="M1129.119,3576.325a.96.96,0,0,0,.931-1.42,6.233,6.233,0,0,0-8.47-2.392.964.964,0,0,0-.367,1.306.949.949,0,0,0,1.3.365,4.311,4.311,0,0,1,5.864,1.655.952.952,0,0,0,.739.485Zm-27.936,4.568a.966.966,0,0,0,1.008-.662,4.323,4.323,0,0,1,5.409-2.793.958.958,0,0,0,.588-1.824,6.242,6.242,0,0,0-7.821,4.032.959.959,0,0,0,.619,1.2.866.866,0,0,0,.2.043Z" transform="translate(-1100.322 -3571.723)" fill="#311612" fill-rule="evenodd"/>
      </g>
      <g id="Grupo_962227" data-name="Grupo 962227" transform="translate(434.037 41.687)">
        <path id="Trazado_700150" data-name="Trazado 700150" d="M1109.356,3583.523c.309,1.62-.284,3.1-1.331,3.3s-2.126-.957-2.438-2.584.287-3.1,1.326-3.293,2.137.956,2.443,2.579Z" transform="translate(-1105.507 -3580.923)" fill="#3a1610" fill-rule="evenodd"/>
      </g>
      <g id="Grupo_962228" data-name="Grupo 962228" transform="translate(434.557 42.365)">
        <path id="Trazado_700151" data-name="Trazado 700151" d="M1107.355,3582.409c.091.488-.119.932-.469,1s-.711-.269-.8-.75.119-.935.472-1,.711.269.8.753Z" transform="translate(-1106.062 -3581.647)" fill="#fff" fill-rule="evenodd"/>
      </g>
      <g id="Grupo_962229" data-name="Grupo 962229" transform="translate(452.725 38.227)">
        <path id="Trazado_700152" data-name="Trazado 700152" d="M1129.3,3579.834c.313,1.621-.281,3.1-1.325,3.293s-2.132-.954-2.444-2.579.287-3.1,1.328-3.295,2.133.955,2.441,2.581Z" transform="translate(-1125.45 -3577.231)" fill="#3a1610" fill-rule="evenodd"/>
      </g>
      <g id="Grupo_962230" data-name="Grupo 962230" transform="translate(453.275 39.174)">
        <path id="Trazado_700153" data-name="Trazado 700153" d="M1127.331,3579.008c.086.482-.121.928-.475,1s-.7-.271-.8-.755.117-.935.473-1,.708.271.8.757Z" transform="translate(-1126.036 -3578.242)" fill="#fff" fill-rule="evenodd"/>
      </g>
      <g id="Grupo_962231" data-name="Grupo 962231" transform="translate(443.005 46.271)">
        <path id="Trazado_700154" data-name="Trazado 700154" d="M1118.126,3589.948a3.41,3.41,0,0,0,3.078-1.343.957.957,0,0,0-.192-1.339.942.942,0,0,0-1.334.193,1.506,1.506,0,0,1-1.136.594,1.488,1.488,0,0,1-1.558-1.37.956.956,0,1,0-1.9.173,3.4,3.4,0,0,0,3.046,3.093Z" transform="translate(-1115.077 -3585.815)" fill="#ed7660" fill-rule="evenodd"/>
      </g>
      <g id="Grupo_962232" data-name="Grupo 962232" transform="translate(440.651 54.903)">
        <path id="Trazado_700155" data-name="Trazado 700155" d="M1118.244,3600.519a10.377,10.377,0,0,0,9.236-3.95.957.957,0,1,0-1.51-1.176,8.462,8.462,0,0,1-11.861,1.484.958.958,0,0,0-1.175,1.513,10.285,10.285,0,0,0,5.311,2.128Z" transform="translate(-1112.565 -3595.026)" fill="#ed7660" fill-rule="evenodd"/>
      </g>
      <g id="Grupo_962233" data-name="Grupo 962233" transform="translate(473.332 63.432)">
        <path id="Trazado_700156" data-name="Trazado 700156" d="M1152.146,3627.13s11.91,6.863,16.478,13.687c.054.453,15.92,3.082,16.048.7-.694-12.883-12.7-30.453-28.148-37.273-11.233-1.62-11.26,14.369-4.377,22.888Z" transform="translate(-1147.44 -3604.128)" fill="#59c6db" fill-rule="evenodd"/>
      </g>
      <g id="Grupo_962234" data-name="Grupo 962234" transform="translate(386.983 100.628)">
        <path id="Trazado_700157" data-name="Trazado 700157" d="M1055.3,3668.215l2.346-11.349s19.107-1.533,24.17-7.073a18.965,18.965,0,0,1,10.255-5.973s9.711,1.137,6.339,11.353c-3.373,10.23-18.951,13.134-28.23,14.47s-14.879-1.427-14.879-1.427Z" transform="translate(-1055.295 -3643.82)" fill="#59c6db" fill-rule="evenodd"/>
      </g>
      <g id="Grupo_962235" data-name="Grupo 962235" transform="translate(371.182 106.918)">
        <path id="Trazado_700158" data-name="Trazado 700158" d="M1046.39,3661.655c.818.757,2.147.428,2.972-.723a2.709,2.709,0,0,0,.01-3.449l-8.159-6.136c-.811-.753-1.592-1.3-2.418-.152s-.1,2.182.712,2.928l6.882,7.531Z" transform="translate(-1038.433 -3650.533)" fill="#f9bcad" fill-rule="evenodd"/>
      </g>
    </g>
    <g id="Grupo_962252" data-name="Grupo 962252" transform="translate(243.78 6952.551)">
      <g id="Grupo_962241" data-name="Grupo 962241" transform="translate(0 142.921)">
        <path id="Trazado_700161" data-name="Trazado 700161" d="M295.79,3787.78c101.238,0,183.325,5.081,183.325,11.35,0,15.935-82.089,11.351-183.328,11.351-101.221,0-183.325-5.086-183.325-11.351s82.1-11.35,183.328-11.35Z" transform="translate(-112.462 -3787.78)" fill="#81a546" fill-rule="evenodd"/>
      </g>
      <g id="Grupo_962242" data-name="Grupo 962242" transform="translate(57.086)">
        <path id="Trazado_700162" data-name="Trazado 700162" d="M324.388,3652.673l31.9,46.968,60.969,89.773H173.38l60.968-89.773,31.9-46.968c7.826-11.524,17.652-17.409,29.07-17.408s21.244,5.884,29.07,17.408Z" transform="translate(-173.38 -3635.265)" fill="#a84433" fill-rule="evenodd"/>
      </g>
      <g id="Grupo_962243" data-name="Grupo 962243" transform="translate(42.754)">
        <path id="Trazado_700163" data-name="Trazado 700163" d="M326.842,3651.142l35.648,42.84,68.134,81.882H158.086l68.134-81.882,35.648-42.84c8.746-10.51,19.728-15.878,32.487-15.877s23.74,5.368,32.486,15.877Z" transform="translate(-158.086 -3635.265)" fill="#d2623e" fill-rule="evenodd"/>
      </g>
      <g id="Grupo_962244" data-name="Grupo 962244" transform="translate(42.754 3.927)">
        <path id="Trazado_700164" data-name="Trazado 700164" d="M376.529,3776.128H158.086l100.192-120.4c17.614-21.167,37.262-22.779,51.1,1.688l67.149,118.716Z" transform="translate(-158.086 -3639.455)" fill="#f48120" fill-rule="evenodd"/>
      </g>
      <g id="Grupo_962245" data-name="Grupo 962245" transform="translate(119.123 36.028)">
        <path id="Trazado_700165" data-name="Trazado 700165" d="M318.531,3673.711l22.038,104.572H240.105l-.524-17.453,5.389-80.8,73.56-6.32Z" transform="translate(-239.582 -3673.711)" fill="#d2623e" fill-rule="evenodd"/>
      </g>
      <g id="Grupo_962246" data-name="Grupo 962246" transform="translate(126.887 40.709)">
        <path id="Trazado_700166" data-name="Trazado 700166" d="M278.543,3678.707c-13.97,0-27.494,18.626-30.2,41.594s6.427,41.595,20.4,41.595,27.494-18.627,30.2-41.595-6.428-41.594-20.4-41.594Z" transform="translate(-247.866 -3678.707)" fill="#a84433" fill-rule="evenodd"/>
      </g>
      <g id="Grupo_962247" data-name="Grupo 962247" transform="translate(87.72 36.028)">
        <path id="Trazado_700167" data-name="Trazado 700167" d="M206.07,3680.123,238,3778.283l10.123-104.572-42.05,6.412Z" transform="translate(-206.07 -3673.711)" fill="#ba5339" fill-rule="evenodd"/>
      </g>
      <g id="Grupo_962248" data-name="Grupo 962248" transform="translate(87.898 42.172)">
        <path id="Trazado_700168" data-name="Trazado 700168" d="M206.261,3680.268h2.418v111.977h-2.418V3680.268Z" transform="translate(-206.261 -3680.268)" fill="#d0d2d3" fill-rule="evenodd"/>
      </g>
      <g id="Grupo_962249" data-name="Grupo 962249" transform="translate(156.494 42.172)">
        <path id="Trazado_700169" data-name="Trazado 700169" d="M279.461,3680.268h2.418v111.977h-2.418V3680.268Z" transform="translate(-279.461 -3680.268)" fill="#d0d2d3" fill-rule="evenodd"/>
      </g>
      <g id="Grupo_962250" data-name="Grupo 962250" transform="translate(156.842 36.028)">
        <path id="Trazado_700170" data-name="Trazado 700170" d="M279.832,3680.123l31.927,98.16,9.3-104.572-41.231,6.412Z" transform="translate(-279.832 -3673.711)" fill="#ba5339" fill-rule="evenodd"/>
      </g>
      <g id="Grupo_962251" data-name="Grupo 962251" transform="translate(87.72 36.028)">
        <path id="Trazado_700171" data-name="Trazado 700171" d="M248.121,3673.711h68.3l-41.231,6.412H206.07l42.05-6.412Z" transform="translate(-206.07 -3673.711)" fill="#f48120" fill-rule="evenodd"/>
      </g>
    </g>
    <g id="Grupo_962253" data-name="Grupo 962253" transform="translate(930.558 7067.447)">
      <path id="Trazado_700172" data-name="Trazado 700172" d="M847.081,3757.873c-1.255,0-2.273,1.631-2.273,3.641s1.019,3.641,2.273,3.641,2.273-1.63,2.273-3.641-1.019-3.641-2.273-3.641Z" transform="translate(-844.808 -3757.873)" fill="#f48120" fill-rule="evenodd"/>
    </g>
    <g id="Grupo_962254" data-name="Grupo 962254" transform="translate(924.764 7053.39)">
      <path id="Trazado_700173" data-name="Trazado 700173" d="M839.767,3742.873c-.628,0-1.137.815-1.137,1.82s.509,1.821,1.137,1.821,1.137-.814,1.137-1.821-.509-1.82-1.137-1.82Z" transform="translate(-838.63 -3742.873)" fill="#ee4023" fill-rule="evenodd"/>
    </g>
    <g id="Grupo_962255" data-name="Grupo 962255" transform="translate(935.935 7062.692)">
      <path id="Trazado_700174" data-name="Trazado 700174" d="M851.68,3752.8c-.628,0-1.137.814-1.137,1.82s.509,1.821,1.137,1.821,1.136-.814,1.136-1.821-.509-1.82-1.136-1.82Z" transform="translate(-850.543 -3752.8)" fill="#ee4023" fill-rule="evenodd"/>
    </g>
    <g id="Grupo_962256" data-name="Grupo 962256" transform="translate(910.061 7072.243)">
      <path id="Trazado_700175" data-name="Trazado 700175" d="M825.223,3762.991c-1.256,0-2.273,1.632-2.273,3.641s1.018,3.641,2.273,3.641,2.273-1.63,2.273-3.641-1.019-3.641-2.273-3.641Z" transform="translate(-822.95 -3762.991)" fill="#f48120" fill-rule="evenodd"/>
    </g>
    <g id="Grupo_962257" data-name="Grupo 962257" transform="translate(904.267 7058.187)">
      <path id="Trazado_700176" data-name="Trazado 700176" d="M817.909,3747.991c-.627,0-1.137.815-1.137,1.82s.51,1.821,1.137,1.821,1.137-.814,1.137-1.821-.51-1.82-1.137-1.82Z" transform="translate(-816.772 -3747.991)" fill="#ee4023" fill-rule="evenodd"/>
    </g>
    <g id="Grupo_962258" data-name="Grupo 962258" transform="translate(915.437 7067.489)">
      <path id="Trazado_700177" data-name="Trazado 700177" d="M829.822,3757.918c-.628,0-1.138.814-1.138,1.82s.51,1.821,1.138,1.821,1.137-.814,1.137-1.821-.51-1.82-1.137-1.82Z" transform="translate(-828.684 -3757.918)" fill="#ffca05" fill-rule="evenodd"/>
    </g>
    <g id="Grupo_962289" data-name="Grupo 962289" transform="translate(859.797 7064.045)">
      <g id="Grupo_962270" data-name="Grupo 962270" transform="translate(99.421 84.525)">
        <g id="Grupo_962259" data-name="Grupo 962259" transform="translate(5.883 2.332)">
          <path id="Trazado_700178" data-name="Trazado 700178" d="M884.489,3846.93c-1.556,0-2.82.289-2.82.644s1.263.646,2.82.646,2.82-.289,2.82-.646-1.263-.644-2.82-.644Z" transform="translate(-881.669 -3846.93)" fill="#fff" fill-rule="evenodd"/>
        </g>
        <g id="Grupo_962260" data-name="Grupo 962260" transform="translate(5.776 2.879)">
          <path id="Trazado_700179" data-name="Trazado 700179" d="M884.639,3848.032c-1.26-.5-2.594-.666-2.979-.378s.323.925,1.583,1.422,2.593.666,2.979.378-.323-.925-1.583-1.422Z" transform="translate(-881.555 -3847.513)" fill="#fff" fill-rule="evenodd"/>
        </g>
        <g id="Grupo_962261" data-name="Grupo 962261" transform="translate(5.277 3.039)">
          <path id="Trazado_700180" data-name="Trazado 700180" d="M883.578,3848.956a2.325,2.325,0,0,0-2-1.258c-.624.111-.739.852-.258,1.656a2.322,2.322,0,0,0,2,1.256c.624-.11.739-.851.259-1.655Z" transform="translate(-881.022 -3847.684)" fill="#fff" fill-rule="evenodd"/>
        </g>
        <g id="Grupo_962262" data-name="Grupo 962262" transform="translate(3.459 3.051)">
          <path id="Trazado_700181" data-name="Trazado 700181" d="M881.638,3849.366c.482-.8.365-1.545-.258-1.655a2.324,2.324,0,0,0-2,1.257c-.481.8-.365,1.545.259,1.655a2.321,2.321,0,0,0,2-1.257Z" transform="translate(-879.082 -3847.698)" fill="#fff" fill-rule="evenodd"/>
        </g>
        <g id="Grupo_962263" data-name="Grupo 962263" transform="translate(1.016 2.91)">
          <path id="Trazado_700182" data-name="Trazado 700182" d="M879.559,3849.108c1.259-.5,1.968-1.134,1.583-1.421s-1.72-.119-2.979.379-1.968,1.133-1.583,1.421,1.72.118,2.979-.379Z" transform="translate(-876.475 -3847.546)" fill="#fff" fill-rule="evenodd"/>
        </g>
        <g id="Grupo_962264" data-name="Grupo 962264" transform="translate(0 2.37)">
          <path id="Trazado_700183" data-name="Trazado 700183" d="M878.21,3848.259c1.557,0,2.82-.288,2.82-.645s-1.262-.645-2.82-.645-2.819.289-2.819.645,1.262.645,2.819.645Z" transform="translate(-875.391 -3846.97)" fill="#fff" fill-rule="evenodd"/>
        </g>
        <g id="Grupo_962265" data-name="Grupo 962265" transform="translate(0.975 1.031)">
          <path id="Trazado_700184" data-name="Trazado 700184" d="M878.119,3847.1c1.259.5,2.594.666,2.979.379s-.323-.925-1.583-1.422-2.594-.667-2.979-.379.323.925,1.583,1.422Z" transform="translate(-876.431 -3845.542)" fill="#fff" fill-rule="evenodd"/>
        </g>
        <g id="Grupo_962266" data-name="Grupo 962266" transform="translate(3.392 0.012)">
          <path id="Trazado_700185" data-name="Trazado 700185" d="M879.308,3846.123a2.327,2.327,0,0,0,2,1.258c.624-.111.739-.852.258-1.656a2.322,2.322,0,0,0-2-1.257c-.623.11-.738.851-.258,1.655Z" transform="translate(-879.011 -3844.454)" fill="#fff" fill-rule="evenodd"/>
        </g>
        <g id="Grupo_962267" data-name="Grupo 962267" transform="translate(5.211)">
          <path id="Trazado_700186" data-name="Trazado 700186" d="M881.248,3845.713c-.481.8-.365,1.545.259,1.655a2.323,2.323,0,0,0,2-1.257c.481-.8.365-1.545-.259-1.656a2.326,2.326,0,0,0-2,1.258Z" transform="translate(-880.952 -3844.442)" fill="#fff" fill-rule="evenodd"/>
        </g>
        <g id="Grupo_962268" data-name="Grupo 962268" transform="translate(5.735 1.001)">
          <path id="Trazado_700187" data-name="Trazado 700187" d="M883.2,3846.028c-1.259.5-1.969,1.134-1.583,1.422s1.72.118,2.979-.379,1.968-1.133,1.583-1.422-1.72-.118-2.979.379Z" transform="translate(-881.511 -3845.51)" fill="#fff" fill-rule="evenodd"/>
        </g>
        <g id="Grupo_962269" data-name="Grupo 962269" transform="translate(4.095 2.089)">
          <path id="Trazado_700188" data-name="Trazado 700188" d="M881.429,3846.671c-.921,0-1.668.405-1.668.905s.747.905,1.668.905,1.668-.406,1.668-.905-.748-.905-1.668-.905Z" transform="translate(-879.761 -3846.671)" fill="#ffca05" fill-rule="evenodd"/>
        </g>
      </g>
      <g id="Grupo_962271" data-name="Grupo 962271" transform="translate(9.538 21.924)">
        <path id="Trazado_700189" data-name="Trazado 700189" d="M835.665,3777.734c-13.654-.894-22.281,4.249-17.017,26.084,9.056,11.548,11.391,20.981,3.9,27.327l-11.168,3.194c5.416-19.3-.98-24.652-14-22.18,11.023,19.007-16.329,27.674-17.9,37.264l24.462-13.487q-.976,4.792-1.95,9.583c14.313.323,27.441-1.614,32.261-19.342l8.154,6.388q.71-7.631,1.419-15.26c6.428,13.151,13.591,23.613,24.285,21.115,5.5-1.213,7.091-7.955,6.913-17.212-10.164,6.625-18.555,6.744-23.043-7.453l9.749-6.565c-13.225-23.3-18.885-7.47-26.058.532-7.5-10-9.049-19.993,0-29.988Z" transform="translate(-779.474 -3777.638)" fill="#ffca05" fill-rule="evenodd"/>
      </g>
      <g id="Grupo_962272" data-name="Grupo 962272" transform="translate(6.076 16.39)">
        <path id="Trazado_700190" data-name="Trazado 700190" d="M851.832,3802.98c-11.164-.5-14.427,11.891-13.014,22.339-1.683-.945-3.819-2.371-6.889-8.607,1.182,20.228-14.527,27.229-27.827,24.74,2.137-3.133,7.653-11.133.676-16.493,2.8,9.826-13.885,12.229-23.68,21.907a23.251,23.251,0,0,1,8.132-8.63c9.075-6.012,20.111-15.375,9.851-24.788,11.207-3.806,16.994,12.425,9.533,20.91,8.289,2.1,16.231,1.133,19.49-8.343,2.613-7.588-.649-12.239-4.267-17.393-2.451-3.493-5.089-7.253-5.676-12.374a20.1,20.1,0,0,1,3.121-12.918c2.546-3.892,7.018-7.011,11.68-4.387-15.419,6.564,2.2,30.28,4.066,39.221.346-10.027,10.655-34.076,20.865-13.446-14.74-5.032-7.872,31.938,14.941,19.77-2.571,17.91-18.757,7.05-22.229.646-1.7-3.137-10.271-17.667,1.228-22.155Zm29.564,52.413c-14.534-8.517,2.547-28.189-8.712-42.281.353,6.036-1.942,9.993-10.594,10.068-12.505.092-8.608-24.039,3.84-5.659,2.719-21.636-20.747-34.72-29.007-14.06-4.478-6.456-11.286-26.043,4.829-19.559-2.627-13-13.521-18.064-23.62-2.631a23.951,23.951,0,0,0-3.711,15.405c.7,6.068,3.622,10.237,6.34,14.111,3.033,4.324,5.771,8.226,3.779,14.007-1.507,4.382-6.935,7.437-11.421,7.49,8.573-13.266-5.506-36.026-20.6-20.9,19.048,17.17-17.75,24.932-16.715,43.363l105.594.651Z" transform="translate(-775.78 -3771.733)" fill="#ee4023" fill-rule="evenodd"/>
      </g>
      <g id="Grupo_962273" data-name="Grupo 962273" transform="translate(75.733 12.006)">
        <path id="Trazado_700191" data-name="Trazado 700191" d="M854.887,3767.055c.987,18.093-4,14.609-4.774,23.209,6.967-6.75,11.273-5.741,4.774-23.209Z" transform="translate(-850.113 -3767.055)" fill="#ffca05" fill-rule="evenodd"/>
      </g>
      <g id="Grupo_962274" data-name="Grupo 962274" transform="translate(37.526)">
        <path id="Trazado_700192" data-name="Trazado 700192" d="M817.838,3754.243c-.419,10.515-14.653,19.486-5.345,33.729-1.887-11.732,13.482-17.562,5.345-33.729Z" transform="translate(-809.341 -3754.243)" fill="#f48120" fill-rule="evenodd"/>
      </g>
      <g id="Grupo_962275" data-name="Grupo 962275" transform="translate(29.712 27.415)">
        <path id="Trazado_700193" data-name="Trazado 700193" d="M802.618,3783.5c-.892,0-1.616,1.16-1.616,2.589s.724,2.59,1.616,2.59,1.617-1.16,1.617-2.59-.723-2.589-1.617-2.589Z" transform="translate(-801.002 -3783.498)" fill="#ffca05" fill-rule="evenodd"/>
      </g>
      <g id="Grupo_962276" data-name="Grupo 962276" transform="translate(23.257 43.207)">
        <path id="Trazado_700194" data-name="Trazado 700194" d="M795.252,3800.35c-.628,0-1.138.815-1.138,1.821s.51,1.82,1.138,1.82,1.137-.815,1.137-1.82-.51-1.821-1.137-1.821Z" transform="translate(-794.114 -3800.35)" fill="#f48120" fill-rule="evenodd"/>
      </g>
      <g id="Grupo_962277" data-name="Grupo 962277" transform="translate(18.557 73.077)">
        <path id="Trazado_700195" data-name="Trazado 700195" d="M789.13,3858.66c-.482-3.979,4.651-8.52,14.433-13.529-3.368,11.462,19.915,9.472,33.483-6.934,7.859,8.41,12.736-.734,13.47-5.972,4.842,11.881,14.463,16.7,21.168,13.485-1.091,6.358,3.014,10.6,4.81,13.489l-87.365-.539Z" transform="translate(-789.099 -3832.225)" fill="#f48120" fill-rule="evenodd"/>
      </g>
      <g id="Grupo_962278" data-name="Grupo 962278" transform="translate(71.169 86.045)">
        <path id="Trazado_700196" data-name="Trazado 700196" d="M847.516,3846.064c-1.256,0-2.274,1.63-2.274,3.64s1.019,3.641,2.274,3.641,2.272-1.629,2.272-3.641-1.019-3.64-2.272-3.64Z" transform="translate(-845.242 -3846.064)" fill="#ffca05" fill-rule="evenodd"/>
      </g>
      <g id="Grupo_962279" data-name="Grupo 962279" transform="translate(65.38 71.988)">
        <path id="Trazado_700197" data-name="Trazado 700197" d="M840.2,3831.063c-.628,0-1.137.815-1.137,1.821s.509,1.82,1.137,1.82,1.136-.815,1.136-1.82-.509-1.821-1.136-1.821Z" transform="translate(-839.065 -3831.063)" fill="#ffca05" fill-rule="evenodd"/>
      </g>
      <g id="Grupo_962280" data-name="Grupo 962280" transform="translate(76.543 81.29)">
        <path id="Trazado_700198" data-name="Trazado 700198" d="M852.114,3840.99c-.628,0-1.137.815-1.137,1.821s.509,1.82,1.137,1.82,1.137-.815,1.137-1.82-.51-1.821-1.137-1.821Z" transform="translate(-850.977 -3840.99)" fill="#ffca05" fill-rule="evenodd"/>
      </g>
      <g id="Grupo_962281" data-name="Grupo 962281" transform="translate(0 93.056)">
        <path id="Trazado_700199" data-name="Trazado 700199" d="M769.3,3853.545c24.111.491,45.7,3.8,72.335,1.47,4.864.033,5.73,8.021,0,7.912-25.917,2.386-56.983-1.142-71.849,1.389,0-3.128-.486-7.644-.486-10.771Z" transform="translate(-769.296 -3853.545)" fill="#6b342c" fill-rule="evenodd"/>
      </g>
      <g id="Grupo_962282" data-name="Grupo 962282" transform="translate(51.671 97.072)">
        <path id="Trazado_700200" data-name="Trazado 700200" d="M888.308,3857.831c-20.181.411-38.247,3.18-60.543,1.23-4.071.028-4.8,6.713,0,6.622,21.692,2,47.693-.955,60.135,1.163,0-2.617.408-6.4.408-9.015Z" transform="translate(-824.435 -3857.831)" fill="#863132" fill-rule="evenodd"/>
      </g>
      <g id="Grupo_962283" data-name="Grupo 962283" transform="translate(28.232 91.711)">
        <path id="Trazado_700201" data-name="Trazado 700201" d="M799.423,3859.719c12.4-2.4,24.149-1.755,37.19-7.2,8.024-2.431,8.694,6.859,1.8,7.7-12.66,5.417-29.293,5.69-36.29,9.928-.713-3.045-1.991-7.383-2.7-10.428Z" transform="translate(-799.423 -3852.111)" fill="#943736" fill-rule="evenodd"/>
      </g>
      <g id="Grupo_962284" data-name="Grupo 962284" transform="translate(26.577 98.557)">
        <path id="Trazado_700202" data-name="Trazado 700202" d="M801.933,3859.565a5.426,5.426,0,1,1-4.133,6.541,5.473,5.473,0,0,1,4.133-6.541Z" transform="translate(-797.657 -3859.416)" fill="#f3ac61" fill-rule="evenodd"/>
      </g>
      <g id="Grupo_962285" data-name="Grupo 962285" transform="translate(13.011 86.093)">
        <path id="Trazado_700203" data-name="Trazado 700203" d="M802.973,3846.115c-8.032,4.2-15.04,8.994-19.793,15.12q1.451-5.51,2.9-11.018l16.895-4.1Z" transform="translate(-783.18 -3846.115)" fill="#ee4023" fill-rule="evenodd"/>
      </g>
      <g id="Grupo_962286" data-name="Grupo 962286" transform="translate(81.508 89.157)">
        <path id="Trazado_700204" data-name="Trazado 700204" d="M856.275,3849.385c3.755,7.591,9.712,13.223,19.793,15.12q-5.956-6.979-2.9-11.019l-16.9-4.1Z" transform="translate(-856.275 -3849.385)" fill="#f48120" fill-rule="evenodd"/>
      </g>
      <g id="Grupo_962287" data-name="Grupo 962287" transform="translate(78.94 84.505)">
        <path id="Trazado_700205" data-name="Trazado 700205" d="M853.535,3844.421c.589,8,3.147,14.494,9.411,18.1q-2.215-7.8.854-11.167l-10.265-6.928Z" transform="translate(-853.535 -3844.421)" fill="#f48120" fill-rule="evenodd"/>
      </g>
      <g id="Grupo_962288" data-name="Grupo 962288" transform="translate(58.224 86.564)">
        <path id="Trazado_700206" data-name="Trazado 700206" d="M835.46,3846.618c6.427,4.8,4.89,5.469,4.552,12.687-1.387-7.135-5.588-7.788-8.583-7.273-.1-4.127,4.135-1.287,4.03-5.414Z" transform="translate(-831.428 -3846.618)" fill="#f48120" fill-rule="evenodd"/>
      </g>
    </g>
    <g id="Grupo_962299" data-name="Grupo 962299" transform="translate(270.109 6771.628)">
      <path id="Trazado_700208" data-name="Trazado 700208" d="M37.352,58.149h-20.7L12.713,69.957H.157L21.49,12.649H32.432L53.884,69.957H41.328ZM19.837,48.584H34.164l-7.2-21.451ZM82.42,38.036a30.9,30.9,0,0,0-4.093-.315q-6.455,0-8.462,4.369V69.957H58.489V27.369H69.234l.315,5.077q3.424-5.865,9.486-5.865a11.919,11.919,0,0,1,3.542.512ZM98.557,27.369l.354,4.763a14.967,14.967,0,0,1,12.241-5.55q8.226,0,11.3,6.494a14.623,14.623,0,0,1,12.792-6.494q6.927,0,10.312,4.034t3.385,12.143v27.2H137.524V42.736q0-3.629-1.417-5.306t-5-1.677a7.1,7.1,0,0,0-7.085,4.892l.039,29.312H112.687V42.775q0-3.708-1.456-5.365t-4.959-1.657a7.369,7.369,0,0,0-7.006,4.024v30.18H87.891V27.369Zm83.8,42.587a12.632,12.632,0,0,1-1.141-3.818,13.764,13.764,0,0,1-10.745,4.605A15.121,15.121,0,0,1,160.1,67.123a11.646,11.646,0,0,1-4.113-9.132q0-6.77,5.018-10.391t14.5-3.66h5.235V41.5a7.018,7.018,0,0,0-1.515-4.723,5.961,5.961,0,0,0-4.782-1.771,6.777,6.777,0,0,0-4.507,1.378,4.68,4.68,0,0,0-1.633,3.779H156.928a11.426,11.426,0,0,1,2.283-6.849,15.09,15.09,0,0,1,6.455-4.94,23.525,23.525,0,0,1,9.368-1.791q7.872,0,12.5,3.956t4.625,11.119v18.46q.039,6.061,1.692,9.171v.669Zm-9.407-7.911a9.8,9.8,0,0,0,4.644-1.122,7.368,7.368,0,0,0,3.149-3.011V50.592H176.49q-8.541,0-9.092,5.9l-.039.669a4.554,4.554,0,0,0,1.5,3.5A5.81,5.81,0,0,0,172.948,62.046Zm26.174-13.7q0-9.958,4.467-15.862a14.5,14.5,0,0,1,12.221-5.9,13.044,13.044,0,0,1,10.273,4.644V9.5H237.5V69.957H227.225l-.551-4.526a13.386,13.386,0,0,1-10.942,5.314,14.456,14.456,0,0,1-12.064-5.924Q199.122,58.9,199.122,48.348Zm11.375.809q0,6.01,2.086,9.213a6.79,6.79,0,0,0,6.061,3.2,7.609,7.609,0,0,0,7.439-4.468V40.221a7.5,7.5,0,0,0-7.36-4.468Q210.5,35.753,210.5,49.158Zm34.046-.888a25.257,25.257,0,0,1,2.44-11.3,17.864,17.864,0,0,1,7.026-7.675,20.5,20.5,0,0,1,10.647-2.716q8.62,0,14.071,5.274t6.081,14.327l.079,2.913q0,9.8-5.471,15.724t-14.681,5.924q-9.21,0-14.7-5.9t-5.491-16.059Zm11.375.807q0,6.071,2.283,9.283a8.2,8.2,0,0,0,12.989.039q2.322-3.173,2.322-10.151,0-5.953-2.322-9.224a7.549,7.549,0,0,0-6.534-3.272,7.426,7.426,0,0,0-6.455,3.252Q255.918,42.257,255.918,49.077Z" transform="translate(-0.157 -9.5)" fill="#12263f"/>
      <path id="Trazado_700207" data-name="Trazado 700207" d="M2.593,41.628Q4.287,33.1,7.953,28.891a11.868,11.868,0,0,1,9.364-4.2,10.178,10.178,0,0,1,5.421,1.432,9.259,9.259,0,0,1,3.573,4.02l3.912-19.56h3.542L24.155,58.632H21.013l.616-4.436a13.934,13.934,0,0,1-4.5,3.758,12,12,0,0,1-5.606,1.325,8.471,8.471,0,0,1-7.855-4.852q-2.649-4.852-1.2-12.152Zm3.481.648q-1.294,6.4.447,10.132t6.33,3.728A8.949,8.949,0,0,0,18.21,54.4,15.589,15.589,0,0,0,22.4,49.7l3.142-15.748a8.547,8.547,0,0,0-2.7-4.409,8.087,8.087,0,0,0-5.468-1.717,8.644,8.644,0,0,0-7.054,3.759A23.763,23.763,0,0,0,6.2,41.627Zm39.582,17a10.237,10.237,0,0,1-8.871-4.651Q33.55,49.976,34.69,42.953l.277-1.694a21.176,21.176,0,0,1,5.714-12q4.544-4.574,10.027-4.574,5.514,0,8.255,3.919t1.725,10.337L60.2,42.09H38.386l-.123.889q-.924,5.827,1.217,9.492a7.181,7.181,0,0,0,6.669,3.665,15.175,15.175,0,0,0,5.529-.962,13.56,13.56,0,0,0,4.359-2.7L57.146,55a15.364,15.364,0,0,1-4.929,3.127A17.436,17.436,0,0,1,45.656,59.278Zm4.559-31.45a9.3,9.3,0,0,0-6.7,3.142,16.875,16.875,0,0,0-4.3,7.793l.062.185H57.146l.154-.924q.708-4.528-1.14-7.362T50.215,27.828Zm32.528,30.8H79.2l9.611-48.053h3.542Zm29.325,0q.062-2.279.123-3.219a16.009,16.009,0,0,1,.308-2.141,18.7,18.7,0,0,1-5.391,4.3,13.953,13.953,0,0,1-6.715,1.71q-4.251,0-6.376-2.634T92.755,49.76a11.018,11.018,0,0,1,5.113-7.547,19.575,19.575,0,0,1,10.6-2.618h6.746l.832-4.128q.77-3.789-.909-5.714T109.6,27.828a10.569,10.569,0,0,0-6.161,1.971,7.456,7.456,0,0,0-3.358,4.713l-3.234-.031L96.79,34.3a10.256,10.256,0,0,1,4.466-6.808,15.073,15.073,0,0,1,9.118-2.8,9.919,9.919,0,0,1,7.547,2.849q2.711,2.849,1.694,7.994L116.35,51.916a27.61,27.61,0,0,0-.539,3.45,20.367,20.367,0,0,0-.015,3.265Zm-10.6-2.618a13.362,13.362,0,0,0,6.684-1.879,14.387,14.387,0,0,0,5.113-4.713l1.386-6.992h-6.838a13.607,13.607,0,0,0-7.608,2.172,8.256,8.256,0,0,0-3.943,5.283,5.144,5.144,0,0,0,.77,4.513Q98.392,56.013,101.472,56.013Zm49.9.123a10.641,10.641,0,0,0,6.238-2.1,8.415,8.415,0,0,0,3.558-5.784h3.142l.062.185a11.329,11.329,0,0,1-4.667,7.839,14.419,14.419,0,0,1-8.825,3q-6.1,0-8.948-4.713t-1.679-11.952l.216-1.294a22.723,22.723,0,0,1,5.36-12.09,13.661,13.661,0,0,1,10.535-4.544,10.157,10.157,0,0,1,7.916,3.265q2.957,3.265,2,8.5l-.062.154h-3.2q.678-4.158-1.4-6.469a7.335,7.335,0,0,0-5.745-2.31,9.562,9.562,0,0,0-7.824,3.892,20.41,20.41,0,0,0-4,9.585l-.216,1.292q-.986,6.123.77,9.831T151.374,56.136Zm37.919,2.5q.062-2.279.123-3.219a16.005,16.005,0,0,1,.308-2.141,18.7,18.7,0,0,1-5.391,4.3,13.953,13.953,0,0,1-6.715,1.71q-4.251,0-6.376-2.634t-1.263-6.885a11.018,11.018,0,0,1,5.113-7.547,19.575,19.575,0,0,1,10.6-2.618h6.746l.832-4.128q.77-3.789-.909-5.714t-5.529-1.925a10.569,10.569,0,0,0-6.161,1.971,7.456,7.456,0,0,0-3.358,4.713l-3.234-.031-.062-.185a10.256,10.256,0,0,1,4.466-6.808,15.073,15.073,0,0,1,9.118-2.8,9.919,9.919,0,0,1,7.547,2.849q2.711,2.849,1.694,7.994l-3.265,16.387a27.613,27.613,0,0,0-.539,3.45,20.369,20.369,0,0,0-.015,3.265Zm-10.6-2.618a13.362,13.362,0,0,0,6.684-1.879,14.387,14.387,0,0,0,5.113-4.713l1.386-6.992h-6.838a13.607,13.607,0,0,0-7.608,2.172,8.256,8.256,0,0,0-3.943,5.283,5.144,5.144,0,0,0,.77,4.513Q175.616,56.013,178.7,56.013Zm43.248-27.538-2.587-.185a8.51,8.51,0,0,0-5.529,2.064,15.605,15.605,0,0,0-4.143,5.545l-4.528,22.733h-3.573L208.237,25.3h3.142l-.678,5.514a14.7,14.7,0,0,1,4.466-4.528,10.461,10.461,0,0,1,5.668-1.6,7.5,7.5,0,0,1,1.232.108,7,7,0,0,1,1.017.231Zm28,15.032q-1.6,7.978-5.19,11.875a11.977,11.977,0,0,1-9.226,3.9A11.538,11.538,0,0,1,230,57.985a8.983,8.983,0,0,1-3.712-3.635l-3.419,17.1H219.3l9.21-46.144h3.019L231,30.046a14.5,14.5,0,0,1,4.544-3.958,11.682,11.682,0,0,1,5.683-1.4q5.267,0,7.839,5.19t1,12.984Zm-3.45-.692q1.325-6.692-.416-10.839a6.3,6.3,0,0,0-6.3-4.148,8.547,8.547,0,0,0-5.468,1.9,16.576,16.576,0,0,0-4.081,4.887L227,50.678a7.331,7.331,0,0,0,2.865,3.993,9.316,9.316,0,0,0,5.452,1.465,8.858,8.858,0,0,0,7.023-3.392,20.284,20.284,0,0,0,4.035-9.282Zm28,15.817q.062-2.279.123-3.219a16.005,16.005,0,0,1,.308-2.141,18.7,18.7,0,0,1-5.391,4.3,13.953,13.953,0,0,1-6.715,1.71q-4.251,0-6.376-2.634t-1.263-6.885a11.018,11.018,0,0,1,5.113-7.547,19.575,19.575,0,0,1,10.6-2.618h6.746l.832-4.128q.77-3.789-.909-5.714t-5.529-1.925A10.569,10.569,0,0,0,265.87,29.8a7.456,7.456,0,0,0-3.358,4.713l-3.234-.031-.062-.185a10.256,10.256,0,0,1,4.466-6.808,15.073,15.073,0,0,1,9.118-2.8,9.919,9.919,0,0,1,7.547,2.849q2.711,2.849,1.694,7.994l-3.265,16.387a27.616,27.616,0,0,0-.539,3.45,20.36,20.36,0,0,0-.015,3.265Zm-10.6-2.618a13.362,13.362,0,0,0,6.684-1.879,14.387,14.387,0,0,0,5.113-4.713l1.386-6.992h-6.838a13.607,13.607,0,0,0-7.608,2.172,8.256,8.256,0,0,0-3.943,5.283,5.144,5.144,0,0,0,.77,4.513Q260.818,56.013,263.9,56.013Z" transform="translate(1.198 64.42)" fill="#12263f"/>
    </g>
  </g>
</svg>
