<svg xmlns="http://www.w3.org/2000/svg" xmlns:xlink="http://www.w3.org/1999/xlink" width="389" height="470" viewBox="0 0 389 470">
  <defs>
    <clipPath id="clip-path">
      <rect id="Rectángulo_337559" data-name="Rectángulo 337559" width="389" height="470" transform="translate(234 6033)" fill="#fff" stroke="#707070" stroke-width="1"/>
    </clipPath>
  </defs>
  <g id="Enmascarar_grupo_927195" data-name="Enmascarar grupo 927195" transform="translate(-234 -6033)" clip-path="url(#clip-path)">
    <g id="Grupo_948531" data-name="Grupo 948531" transform="translate(-575.595 5966.792)">
      <g id="Grupo_948415" data-name="Grupo 948415" transform="translate(893.132 73.727)">
        <path id="Trazado_683675" data-name="Trazado 683675" d="M1012.6,151c1.59,4.676,3.233,9.512,4.8,14.637,4.985,16.337-10.741,18.4-10.741,18.4s5.05,11.128-2.892,20.033-17.987,4.127-17.987,4.127-3.641,4.847-13.209,5.449c-13.879.877-18.933-4.7-18.933-4.7l-14.505-2.6c-1.909,1.067-3.393,8.16-18.732,9.953-13.944,1.629-21.121-6.737-21.121-6.737-3.689,7.225-21.046,5.955-23.013-5.488-1.849-10.747,3.151-15.147,3.762-15.646-9.009,6.38-24.039-10.875-8.115-27.238,6.477-6.659,10.058-9.752,12.48-13.086-7.214,1.715-14.754-6.689-11.531-14.022,4.162-9.46,11.773-5.691,19.21-19.268,9.883-18.033,17.445-24.188,17.886-24.538l.013-.011c12.758-12.1,31.6-17.639,52.24-16.361,17.544,1.084,27.769,8.259,33.689,15.633a37.04,37.04,0,0,1,7.858,22.486q.055,2.563.285,5.056c2.456,5.963,7.484,16.54,13.423,19.752C1025.539,141.21,1021.021,152.8,1012.6,151Z" transform="translate(-864.919 -73.727)" fill="#32324c"/>
      </g>
      <g id="Grupo_948416" data-name="Grupo 948416" transform="translate(840.595 128.559)">
        <path id="Trazado_683676" data-name="Trazado 683676" d="M1187.166,593.894C1176.032,758.042,968.921,824.567,866.68,695.666c-20.881-26.324-25.875-89.806-20.467-123.29,21.806-134.96,91.016-148.748,39.344-234.116S829.084,97.911,971.739,99.121s50.694,229.22,148.962,292.994C1165.648,421.283,1192.966,508.4,1187.166,593.894Z" transform="translate(-836.423 -99.114)" fill="#32324c" opacity="0.1"/>
        <path id="Trazado_683677" data-name="Trazado 683677" d="M1001.839,263.061a21.763,21.763,0,0,1-23.994-6.9c-9.283-11.246-24.093-33.957-19.685-60.387,6.3-37.756,54.145-7.616,57.91,34.823C1017.952,251.817,1010.131,260.092,1001.839,263.061Z" transform="translate(-705.165 -6.962)" fill="#32324c" opacity="0.1"/>
        <path id="Trazado_683678" data-name="Trazado 683678" d="M958.507,196.045a11.351,11.351,0,0,1-7.691-10.508c-.238-7.6.907-21.7,11.167-31.192,14.657-13.56,24.765,14.151,12.762,32.858C968.743,196.554,962.875,197.468,958.507,196.045Z" transform="translate(-712.786 -39.237)" fill="#32324c" opacity="0.1"/>
        <path id="Trazado_683679" data-name="Trazado 683679" d="M851.295,282.2a11.351,11.351,0,0,1-9.469-8.942c-1.611-7.434-3.039-21.506,5.333-32.7,11.957-15.991,26.916,9.432,18.5,30C861.453,280.847,855.848,282.811,851.295,282.2Z" transform="translate(-840.595 59.106)" fill="#32324c" opacity="0.1"/>
      </g>
      <path id="Trazado_683680" data-name="Trazado 683680" d="M898.06,149.534s10.944.717,99.893,42.3c0,0,5.678,2.359,14,.564,15.7-3.391-1.728-30.082-1.728-30.082S947.356,120.693,898.06,149.534Z" transform="translate(66.651 76.122)" fill="#c11c57"/>
      <ellipse id="Elipse_5264" data-name="Elipse 5264" cx="131.681" cy="19.978" rx="131.681" ry="19.978" transform="translate(877.761 837.462)" fill="#32324c" opacity="0.1"/>
      <g id="Grupo_948492" data-name="Grupo 948492" transform="translate(933.985 445.424)">
        <g id="Grupo_948450" data-name="Grupo 948450" transform="translate(60.449 7.806)">
          <g id="Grupo_948417" data-name="Grupo 948417">
            <path id="Trazado_683681" data-name="Trazado 683681" d="M977.286,443.177,962.7,619.358H937c-5.948-68.661-18.767-159.537,1.3-183.967-35.529-82.908-25.03-166.8-25.03-166.8,19.616-8.981,50.294-19.158,50.294-19.158C974,308.695,977.286,443.177,977.286,443.177Z" transform="translate(-911.822 -249.435)" fill="#211931"/>
          </g>
          <g id="Grupo_948449" data-name="Grupo 948449" transform="translate(18.719 341.937)">
            <g id="Grupo_948419" data-name="Grupo 948419">
              <g id="Grupo_948418" data-name="Grupo 948418">
                <path id="Trazado_683682" data-name="Trazado 683682" d="M1012.329,477.264H928.277a7.785,7.785,0,0,1-7.765-8.38l3.415-44.147a49.145,49.145,0,0,1,8.4-2.771,8.516,8.516,0,0,0,6.233-5.654c.061-.209.115-.425.171-.641,1.929-8.495,14.179-11.2,16.443-2.9.294,1.073.549,2.117.765,3.121.054.246.108.5.153.741.363,1.784.626,3.43.812,4.866.006.03.006.063.015.093a47.4,47.4,0,0,1,.417,6q1.669,2.122,3.229,4.173c.533.678,1.043,1.359,1.553,2.022,1.1,1.436,2.177,2.836,3.235,4.179.486.633.972,1.244,1.46,1.847,1.166,1.458,2.315,2.842,3.467,4.132.518.587,1.035,1.158,1.568,1.706,4.333,4.557,8.7,7.67,13.873,8.389,9.112,1.25,24,2.255,31.195,15.631a4.839,4.839,0,0,1,.363.851A5.184,5.184,0,0,1,1012.329,477.264Z" transform="translate(-920.489 -407.75)" fill="#3555af"/>
              </g>
            </g>
            <g id="Grupo_948421" data-name="Grupo 948421" transform="translate(0.071 62.771)">
              <g id="Grupo_948420" data-name="Grupo 948420">
                <path id="Trazado_683683" data-name="Trazado 683683" d="M1012.292,443.554H928.239a7.784,7.784,0,0,1-7.717-6.741h96.714A5.184,5.184,0,0,1,1012.292,443.554Z" transform="translate(-920.522 -436.813)" fill="#3986d7"/>
              </g>
            </g>
            <g id="Grupo_948429" data-name="Grupo 948429" transform="translate(29.468 24.017)">
              <g id="Grupo_948424" data-name="Grupo 948424" transform="translate(2.246)">
                <g id="Grupo_948423" data-name="Grupo 948423">
                  <g id="Grupo_948422" data-name="Grupo 948422">
                    <path id="Trazado_683684" data-name="Trazado 683684" d="M945.082,420.892c-.974,1.43-2.959,3.16-6.959,4.758q-1.02.418-2.225.812l-.726-2.194q1.192-.392,2.162-.788c4.6-1.853,5.855-3.676,6.194-4.609C944.063,419.548,944.573,420.228,945.082,420.892Z" transform="translate(-935.173 -418.87)" fill="#fff"/>
                  </g>
                </g>
              </g>
              <g id="Grupo_948428" data-name="Grupo 948428" transform="translate(0 3.888)">
                <g id="Grupo_948427" data-name="Grupo 948427">
                  <g id="Grupo_948426" data-name="Grupo 948426">
                    <g id="Grupo_948425" data-name="Grupo 948425">
                      <path id="Trazado_683685" data-name="Trazado 683685" d="M939.347,423.277a2.607,2.607,0,1,1-2.607-2.607A2.609,2.609,0,0,1,939.347,423.277Z" transform="translate(-934.133 -420.67)" fill="#fff"/>
                    </g>
                  </g>
                </g>
              </g>
            </g>
            <g id="Grupo_948437" data-name="Grupo 948437" transform="translate(35.356 30.217)">
              <g id="Grupo_948432" data-name="Grupo 948432" transform="translate(1.819)">
                <g id="Grupo_948431" data-name="Grupo 948431">
                  <g id="Grupo_948430" data-name="Grupo 948430">
                    <path id="Trazado_683686" data-name="Trazado 683686" d="M946.846,423.588a16.507,16.507,0,0,1-5.754,3.622c-.8.348-1.685.672-2.665,1L937.7,426q1.367-.454,2.456-.9a13.267,13.267,0,0,0,5.229-3.361C945.872,422.374,946.358,422.985,946.846,423.588Z" transform="translate(-937.701 -421.741)" fill="#fff"/>
                  </g>
                </g>
              </g>
              <g id="Grupo_948436" data-name="Grupo 948436" transform="translate(0 2.76)">
                <g id="Grupo_948435" data-name="Grupo 948435">
                  <g id="Grupo_948434" data-name="Grupo 948434">
                    <g id="Grupo_948433" data-name="Grupo 948433">
                      <path id="Trazado_683687" data-name="Trazado 683687" d="M942.073,425.626a2.607,2.607,0,1,1-2.607-2.607A2.607,2.607,0,0,1,942.073,425.626Z" transform="translate(-936.859 -423.019)" fill="#fff"/>
                    </g>
                  </g>
                </g>
              </g>
            </g>
            <g id="Grupo_948445" data-name="Grupo 948445" transform="translate(40.57 36.196)">
              <g id="Grupo_948440" data-name="Grupo 948440" transform="translate(1.786)">
                <g id="Grupo_948439" data-name="Grupo 948439">
                  <g id="Grupo_948438" data-name="Grupo 948438">
                    <path id="Trazado_683688" data-name="Trazado 683688" d="M949.1,426.215a16.751,16.751,0,0,1-5.574,3.469c-.812.346-1.708.687-2.7,1.011l-.719-2.2c.92-.3,1.739-.611,2.473-.92a14.342,14.342,0,0,0,4.957-3.065C948.048,425.1,948.564,425.667,949.1,426.215Z" transform="translate(-940.1 -424.509)" fill="#fff"/>
                  </g>
                </g>
              </g>
              <g id="Grupo_948444" data-name="Grupo 948444" transform="translate(0 2.477)">
                <g id="Grupo_948443" data-name="Grupo 948443">
                  <g id="Grupo_948442" data-name="Grupo 948442">
                    <g id="Grupo_948441" data-name="Grupo 948441">
                      <path id="Trazado_683689" data-name="Trazado 683689" d="M944.487,428.263a2.607,2.607,0,1,1-2.607-2.607A2.609,2.609,0,0,1,944.487,428.263Z" transform="translate(-939.273 -425.656)" fill="#fff"/>
                    </g>
                  </g>
                </g>
              </g>
            </g>
            <g id="Grupo_948448" data-name="Grupo 948448" transform="translate(28.918 8.885)">
              <g id="Grupo_948447" data-name="Grupo 948447">
                <g id="Grupo_948446" data-name="Grupo 948446">
                  <path id="Trazado_683690" data-name="Trazado 683690" d="M941.37,416.73a58.943,58.943,0,0,0-7.492.425l.048-4.21a18.98,18.98,0,0,1,6.633-1.082C940.921,413.648,941.185,415.294,941.37,416.73Z" transform="translate(-933.878 -411.864)" fill="#fff"/>
                </g>
              </g>
            </g>
          </g>
        </g>
        <g id="Grupo_948491" data-name="Grupo 948491">
          <g id="Grupo_948489" data-name="Grupo 948489" transform="translate(0 19.542)">
            <g id="Grupo_948451" data-name="Grupo 948451">
              <path id="Trazado_683691" data-name="Trazado 683691" d="M953.3,262.29s-6.073,94.02-18.391,174.965c-2.633,17.3-5.868,128.174-13.862,175.8H895.309l-4.953-173.027s-13.905-110.45-1.108-185.159Z" transform="translate(-883.834 -254.869)" fill="#32324c"/>
            </g>
            <g id="Grupo_948488" data-name="Grupo 948488" transform="translate(0.982 335.241)">
              <g id="Grupo_948454" data-name="Grupo 948454">
                <g id="Grupo_948453" data-name="Grupo 948453">
                  <g id="Grupo_948452" data-name="Grupo 948452">
                    <path id="Trazado_683692" data-name="Trazado 683692" d="M943.063,468.684c-.741,14.81-47.046,9.708-54.452,5.266-2.858-1.719-4.058-5.028-4.281-9.035-.363-6.391,1.741-14.566,3.564-20.972,2.961-10.434,2.555-10.242,4.613-17.374,0,0-.533-11.6,14.639-16.024s20.734,24.445,23.326,30c2.372,5.089,11.59,12.05,12.544,24.57A28.274,28.274,0,0,1,943.063,468.684Z" transform="translate(-884.289 -410.084)" fill="#3555af"/>
                  </g>
                </g>
              </g>
              <g id="Grupo_948457" data-name="Grupo 948457" transform="translate(13.404 18.534)">
                <g id="Grupo_948456" data-name="Grupo 948456">
                  <g id="Grupo_948455" data-name="Grupo 948455">
                    <path id="Trazado_683693" data-name="Trazado 683693" d="M891.709,425.991l-1.214-1.862c.566-.367,13.955-8.955,25.607-3.845l-.892,2.037C904.646,417.688,891.838,425.906,891.709,425.991Z" transform="translate(-890.495 -418.665)" fill="#fff"/>
                  </g>
                </g>
              </g>
              <g id="Grupo_948460" data-name="Grupo 948460" transform="translate(14.726 31.422)">
                <g id="Grupo_948459" data-name="Grupo 948459">
                  <g id="Grupo_948458" data-name="Grupo 948458">
                    <path id="Trazado_683694" data-name="Trazado 683694" d="M892.319,431.957l-1.212-1.862c.564-.367,13.955-8.953,25.6-3.845l-.892,2.037C905.254,423.653,892.448,431.873,892.319,431.957Z" transform="translate(-891.107 -424.633)" fill="#fff"/>
                  </g>
                </g>
              </g>
              <g id="Grupo_948463" data-name="Grupo 948463" transform="translate(14.065 24.978)">
                <g id="Grupo_948462" data-name="Grupo 948462">
                  <g id="Grupo_948461" data-name="Grupo 948461">
                    <path id="Trazado_683695" data-name="Trazado 683695" d="M892.015,428.973l-1.214-1.862c.564-.367,13.955-8.953,25.6-3.842l-.892,2.035C904.95,420.668,892.142,428.888,892.015,428.973Z" transform="translate(-890.801 -421.649)" fill="#fff"/>
                  </g>
                </g>
              </g>
              <g id="Grupo_948466" data-name="Grupo 948466" transform="translate(11.38 22.777)">
                <g id="Grupo_948465" data-name="Grupo 948465">
                  <g id="Grupo_948464" data-name="Grupo 948464">
                    <path id="Trazado_683696" data-name="Trazado 683696" d="M894.556,423.129a2.5,2.5,0,1,1-2.5-2.5A2.5,2.5,0,0,1,894.556,423.129Z" transform="translate(-889.558 -420.63)" fill="#fff"/>
                  </g>
                </g>
              </g>
              <g id="Grupo_948469" data-name="Grupo 948469" transform="translate(11.512 28.883)">
                <g id="Grupo_948468" data-name="Grupo 948468">
                  <g id="Grupo_948467" data-name="Grupo 948467">
                    <path id="Trazado_683697" data-name="Trazado 683697" d="M894.617,425.958a2.5,2.5,0,1,1-2.5-2.5A2.5,2.5,0,0,1,894.617,425.958Z" transform="translate(-889.619 -423.457)" fill="#fff"/>
                  </g>
                </g>
              </g>
              <g id="Grupo_948472" data-name="Grupo 948472" transform="translate(12.834 34.991)">
                <g id="Grupo_948471" data-name="Grupo 948471">
                  <g id="Grupo_948470" data-name="Grupo 948470">
                    <path id="Trazado_683698" data-name="Trazado 683698" d="M895.229,428.784a2.5,2.5,0,1,1-2.5-2.5A2.5,2.5,0,0,1,895.229,428.784Z" transform="translate(-890.231 -426.285)" fill="#fff"/>
                  </g>
                </g>
              </g>
              <g id="Grupo_948475" data-name="Grupo 948475" transform="translate(37.385 31.384)">
                <g id="Grupo_948474" data-name="Grupo 948474">
                  <g id="Grupo_948473" data-name="Grupo 948473">
                    <path id="Trazado_683699" data-name="Trazado 683699" d="M906.6,427.112a2.5,2.5,0,1,1-2.5-2.5A2.5,2.5,0,0,1,906.6,427.112Z" transform="translate(-901.598 -424.615)" fill="#fff"/>
                  </g>
                </g>
              </g>
              <g id="Grupo_948478" data-name="Grupo 948478" transform="translate(36.726 24.719)">
                <g id="Grupo_948477" data-name="Grupo 948477">
                  <g id="Grupo_948476" data-name="Grupo 948476">
                    <path id="Trazado_683700" data-name="Trazado 683700" d="M906.291,424.028a2.5,2.5,0,1,1-2.5-2.5A2.5,2.5,0,0,1,906.291,424.028Z" transform="translate(-901.293 -421.529)" fill="#fff"/>
                  </g>
                </g>
              </g>
              <g id="Grupo_948481" data-name="Grupo 948481" transform="translate(36.065 18.053)">
                <g id="Grupo_948480" data-name="Grupo 948480">
                  <g id="Grupo_948479" data-name="Grupo 948479">
                    <path id="Trazado_683701" data-name="Trazado 683701" d="M905.985,420.942a2.5,2.5,0,1,1-2.5-2.5A2.5,2.5,0,0,1,905.985,420.942Z" transform="translate(-900.987 -418.443)" fill="#fff"/>
                  </g>
                </g>
              </g>
              <g id="Grupo_948484" data-name="Grupo 948484" transform="translate(0.041 54.831)">
                <g id="Grupo_948483" data-name="Grupo 948483">
                  <g id="Grupo_948482" data-name="Grupo 948482">
                    <path id="Trazado_683702" data-name="Trazado 683702" d="M943.041,439.24c-.741,14.81-47.046,9.708-54.452,5.266-2.858-1.719-4.058-5.028-4.281-9.035,4.866,2.775,13.441,6.235,26.244,6.464,15.708.281,27.037-2.9,32.443-6.266A28.274,28.274,0,0,1,943.041,439.24Z" transform="translate(-884.308 -435.471)" fill="#3986d7"/>
                  </g>
                </g>
              </g>
              <g id="Grupo_948487" data-name="Grupo 948487" transform="translate(16.378 4.964)">
                <g id="Grupo_948486" data-name="Grupo 948486">
                  <g id="Grupo_948485" data-name="Grupo 948485">
                    <path id="Trazado_683703" data-name="Trazado 683703" d="M904.9,412.453s-7.041-.741-13.026,2.592l.678,4.691s8.393-2.469,13.948-2.1A11.021,11.021,0,0,0,904.9,412.453Z" transform="translate(-891.872 -412.383)" fill="#fff"/>
                  </g>
                </g>
              </g>
            </g>
          </g>
          <g id="Grupo_948490" data-name="Grupo 948490" transform="translate(5.252)">
            <path id="Trazado_683704" data-name="Trazado 683704" d="M888.75,245.821c-2.54,13.423-4.756,35.847,2.02,58.394,0,0,47.27,11.741,80.515-14.659,21.752-17.277,22.776-37.495,22.516-43.735Z" transform="translate(-886.266 -245.821)" fill="#32324c"/>
          </g>
        </g>
      </g>
      <g id="Grupo_948497" data-name="Grupo 948497" transform="translate(882.254 224.759)">
        <g id="Grupo_948493" data-name="Grupo 948493" transform="translate(0 227.256)">
          <path id="Trazado_683705" data-name="Trazado 683705" d="M882.708,250.286s6.156,5.581,9.354,11.637,6.3,12.527,8.2,16.3c2.289,4.538-2.529,4.834-5.864,1.6-5.054-4.9-5.778-8.508-5.778-8.508s7.3,26.268,6.365,33.534c-.853,6.635-5.6-7.648-10.186-19.244,0,0,2.644,26.594-.937,29.389-4.7,3.672-7.81-28.555-7.81-28.555s-1.242,24.1-4.1,23.555c-3.19-.613-4.933-25.445-4.933-25.445s-2.32,16.484-4.084,15.443c-3.492-2.06-5.773-37.415,3.482-50.709C866.415,249.283,879.585,247.871,882.708,250.286Z" transform="translate(-859.883 -248.873)" fill="#ffaf82"/>
        </g>
        <g id="Grupo_948496" data-name="Grupo 948496" transform="translate(2.349)">
          <g id="Grupo_948495" data-name="Grupo 948495">
            <g id="Grupo_948494" data-name="Grupo 948494">
              <path id="Trazado_683706" data-name="Trazado 683706" d="M929.02,188.864c-13.086,41.981-30.251,70.478-36.285,79.774-.4,5.909-2.374,33.912-5.914,60.4a446.068,446.068,0,0,0-3.5,45.37,25.457,25.457,0,0,1-21.022,0c-3.052-44.869-.7-81.461,5.579-108.647-.382-35.447,36.648-122.1,36.648-122.1C922.212,156.654,929.02,188.864,929.02,188.864Z" transform="translate(-860.97 -143.654)" fill="#e63067"/>
            </g>
          </g>
        </g>
      </g>
      <g id="Grupo_948498" data-name="Grupo 948498" transform="translate(928.157 212.903)">
        <path id="Trazado_683707" data-name="Trazado 683707" d="M1004.107,373.156c-57.3,29.184-114.562,4.883-114.562,4.883,7.868-49.858,17.4-115.686,17.4-115.686-15.767-30.169-25.806-112.331-25.806-112.331,9.255-5.734,13.577-4.339,24.153-7.13,2.985-.788,5.728-1.451,8.074-1.989,4.795-1.1,7.9-1.659,7.9-1.659,14.458-1.965,29.493-.914,40.441.5.073.011.149.017.222.028,9.6,1.259,16.013,2.8,16.013,2.8s4.4,33.238,13.9,50.052,2.235,26.983,0,34.311a25.779,25.779,0,0,0-.836,5.5c-.629,9.181-1.41,52.4-1.41,52.4Z" transform="translate(-881.136 -138.165)" fill="#e63067"/>
        <path id="Trazado_683708" data-name="Trazado 683708" d="M933.3,171.448c-15.728.486-29.815-17.166-37.24-30.545,4.795-1.1,7.9-1.659,7.9-1.659,14.458-1.965,29.493-.914,40.441.5.073.011.149.017.222.028C946.537,153.23,949.852,170.934,933.3,171.448Z" transform="translate(-863.83 -138.165)" fill="#ffaf82"/>
        <path id="Trazado_683709" data-name="Trazado 683709" d="M963.21,179.267a25.588,25.588,0,0,0-.834,5.5c-27.778,14.283-56.56,6.136-56.56,6.136C943.2,190.265,963.21,179.267,963.21,179.267Z" transform="translate(-852.51 -90.493)" fill="#c11c57"/>
      </g>
      <path id="Trazado_683710" data-name="Trazado 683710" d="M970.424,214.469s39.19-8.138-25.253-94.344l-14.05,11.259a179.624,179.624,0,0,1,14.3,30.318,239.869,239.869,0,0,0,12.732,29.618S962,199.618,970.424,214.469Z" transform="translate(104.997 53.815)" fill="#c11c57"/>
      <g id="Grupo_948507" data-name="Grupo 948507" transform="translate(1005.659 135.263)">
        <g id="Grupo_948506" data-name="Grupo 948506">
          <g id="Grupo_948505" data-name="Grupo 948505">
            <g id="Grupo_948501" data-name="Grupo 948501" transform="translate(6.748 27.301)">
              <path id="Trazado_683711" data-name="Trazado 683711" d="M947.018,126.4l-5.631-9.6-9.991,5.5,6.475,10.29Z" transform="translate(-907.09 -112.608)" fill="#fb9988"/>
              <g id="Grupo_948500" data-name="Grupo 948500">
                <g id="Grupo_948499" data-name="Grupo 948499">
                  <path id="Trazado_683712" data-name="Trazado 683712" d="M949.659,135.694l1.266-.855,1.3-4.8s-.7-6.635-5.817-9.579a6.412,6.412,0,0,0-2.905-.715,18.655,18.655,0,0,0-4.248.346,49.672,49.672,0,0,0-8.441,2.462,65.277,65.277,0,0,0-7.223-6.6c-1.438-1.071-2.272-1.216-2.762-1.017-.711.285-.691,1.283-.691,1.283l7.965,15.475s11.2,5.454,17.369,6.832Z" transform="translate(-920.143 -114.858)" fill="#fdbd8e"/>
                </g>
              </g>
            </g>
            <g id="Grupo_948502" data-name="Grupo 948502">
              <path id="Rectángulo_337555" data-name="Rectángulo 337555" d="M.7,0H26.14a.7.7,0,0,1,.7.7V43.742a.7.7,0,0,1-.7.7H.7a.7.7,0,0,1-.7-.7V.7A.7.7,0,0,1,.7,0Z" transform="matrix(0.828, -0.56, 0.56, 0.828, 0, 15.038)" fill="#171228"/>
              <rect id="Rectángulo_337556" data-name="Rectángulo 337556" width="21.265" height="34.653" transform="translate(4.186 16.256) rotate(-34.082)" fill="#28b69a"/>
              <path id="Trazado_683713" data-name="Trazado 683713" d="M935.533,121.389a1.993,1.993,0,1,1-2.769-.533A2,2,0,0,1,935.533,121.389Z" transform="translate(-899.773 -80.999)" fill="#909aa3"/>
            </g>
            <g id="Grupo_948504" data-name="Grupo 948504" transform="translate(28.508 3.137)">
              <g id="Grupo_948503" data-name="Grupo 948503">
                <path id="Trazado_683714" data-name="Trazado 683714" d="M938.713,105.259a5.181,5.181,0,0,1-.475,3.5c-.624,1.259-1.227,2.562-1.961,3.762-.076.119-.149.238-.223.356a12.757,12.757,0,0,1-1.166,1.562c-.156.175-.318.343-.482.505a7.113,7.113,0,0,1-1.879,1.348,1.614,1.614,0,0,1-2.309-1.613,11.6,11.6,0,0,1,1.3-4.953,20.361,20.361,0,0,1,4.119-5.272C936.944,103.4,938.186,103.175,938.713,105.259Z" transform="translate(-930.218 -103.67)" fill="#fdbd8e"/>
                <path id="Trazado_683715" data-name="Trazado 683715" d="M939.593,108.422a5.2,5.2,0,0,1-.467,3.5c-.408.81-.8,1.646-1.238,2.462-.164.324-.341.644-.527.948a13.8,13.8,0,0,1-1.594,2.274c-.121.136-.246.266-.371.4a7.333,7.333,0,0,1-1.987,1.456,1.61,1.61,0,0,1-2.3-1.616,11.314,11.314,0,0,1,1.3-4.95,17.135,17.135,0,0,1,.972-1.613,24.337,24.337,0,0,1,1.544-2.045c.108-.13.214-.257.326-.378C936.958,106.94,938.91,105.672,939.593,108.422Z" transform="translate(-929.187 -100.001)" fill="#fdbd8e"/>
                <path id="Trazado_683716" data-name="Trazado 683716" d="M940.97,110.811a5.211,5.211,0,0,1-.469,3.5c-.505,1.019-1.011,2.078-1.572,3.082-.175.309-.354.622-.551.914a11.958,11.958,0,0,1-1.233,1.689,8.544,8.544,0,0,1-.881.866,6.815,6.815,0,0,1-1.477.987,1.613,1.613,0,0,1-2.3-1.618,11.352,11.352,0,0,1,1.3-4.953c.011-.015.013-.026.024-.041a22.3,22.3,0,0,1,2.127-3.177c.119-.145.24-.3.365-.441C938.074,109.506,940.24,107.878,940.97,110.811Z" transform="translate(-927.592 -97.235)" fill="#fdbd8e"/>
                <path id="Trazado_683717" data-name="Trazado 683717" d="M941.849,113.862a5.19,5.19,0,0,1-.467,3.5c-.084.171-.164.33-.246.5a22.775,22.775,0,0,1-3.112,5.186,7.671,7.671,0,0,1-2.361,1.853,1.613,1.613,0,0,1-2.3-1.62,11.441,11.441,0,0,1,1.3-4.95,10.622,10.622,0,0,1,.588-1.013,23.594,23.594,0,0,1,2.307-3.08c.121-.138.24-.264.359-.389C939.512,112.205,941.216,111.331,941.849,113.862Z" transform="translate(-926.573 -93.692)" fill="#fdbd8e"/>
              </g>
              <path id="Trazado_683718" data-name="Trazado 683718" d="M935.811,105.259a5.181,5.181,0,0,1-.475,3.5c-.624,1.259-1.227,2.562-1.961,3.762,1.713-1.916,3.665-3.184,4.348-.434a5.2,5.2,0,0,1-.467,3.5c-.408.81-.8,1.646-1.238,2.462,1.78-2.112,3.946-3.741,4.676-.808a5.211,5.211,0,0,1-.469,3.5c-.505,1.019-1.011,2.078-1.572,3.082,1.6-1.644,3.307-2.518,3.94.013a5.19,5.19,0,0,1-.467,3.5c-.084.171-.164.33-.246.5-.028-.117-.054-.225-.089-.337a4.75,4.75,0,0,0-1.27-2.3,2.239,2.239,0,0,0-2.419-.464l-.047.03c.082-.188.16-.367.24-.555a5.547,5.547,0,0,0,.51-3.674c-.436-1.4-2.419-2.3-3.417-1.222l.1-.318c.056-.164.11-.335.162-.508a6.376,6.376,0,0,0,.326-3.447,2.784,2.784,0,0,0-2.827-2.166c-.035.011-.071.011-.1.022a2.067,2.067,0,0,0-.328.1c.771-2.177,1.436-4.324.778-6.624a17.494,17.494,0,0,0-.767-1.924C934.042,103.4,935.284,103.175,935.811,105.259Z" transform="translate(-927.316 -103.67)" fill="#fb9988"/>
            </g>
          </g>
        </g>
      </g>
      <g id="Grupo_948530" data-name="Grupo 948530" transform="translate(929.016 79.266)">
        <g id="Grupo_948529" data-name="Grupo 948529">
          <g id="Grupo_948509" data-name="Grupo 948509" transform="translate(86.995 55.007)">
            <g id="Grupo_948508" data-name="Grupo 948508">
              <path id="Trazado_683719" data-name="Trazado 683719" d="M921.812,106.806s9.1-10.385,16.514-1.363c6.525,7.933,2.464,28.931-13.438,28.348Z" transform="translate(-921.812 -101.759)" fill="#f88968"/>
            </g>
          </g>
          <path id="Trazado_683720" data-name="Trazado 683720" d="M932.494,118.035a3.816,3.816,0,1,1-3.817-3.816A3.816,3.816,0,0,1,932.494,118.035Z" transform="translate(-831.28 -32.301)" fill="#fff"/>
          <g id="Grupo_948512" data-name="Grupo 948512" transform="translate(36.919 102.139)">
            <g id="Grupo_948510" data-name="Grupo 948510">
              <path id="Trazado_683721" data-name="Trazado 683721" d="M932.329,160.823c-.8,9.512-20.48,15.112-31.661-1.039l-1.177-20.873-.864-15.331,35.927,6.97-1.778,24.171Z" transform="translate(-898.627 -123.581)" fill="#ffaf82"/>
            </g>
            <g id="Grupo_948511" data-name="Grupo 948511">
              <path id="Trazado_683722" data-name="Trazado 683722" d="M932.562,157.637c-12.266.168-25.961-8.287-32.812-14.119l-1.123-19.937,35.927,6.97Z" transform="translate(-898.627 -123.581)" fill="#f88968"/>
            </g>
          </g>
          <g id="Grupo_948513" data-name="Grupo 948513" transform="translate(12.126 15.732)">
            <path id="Trazado_683723" data-name="Trazado 683723" d="M931.967,188.159c-37.92-8.674-44.81-58.378-44.81-58.378a55.027,55.027,0,0,1,.51-8.173,63.068,63.068,0,0,1,1.851-9.067c2.719-9.551,8.555-20.439,21.02-25.188q.586-.227,1.184-.436c20.676-7.331,50.91-3.9,60.1,23.475a45.425,45.425,0,0,1,1.4,5.3c.22,1.078.415,2.2.581,3.35C977.929,147.306,966.049,195.958,931.967,188.159Z" transform="translate(-887.148 -83.575)" fill="#ffaf82"/>
          </g>
          <g id="Grupo_948516" data-name="Grupo 948516" transform="translate(40.366 59.857)">
            <g id="Grupo_948515" data-name="Grupo 948515">
              <g id="Grupo_948514" data-name="Grupo 948514">
                <path id="Trazado_683724" data-name="Trazado 683724" d="M909.253,113.692a4.87,4.87,0,0,1-5.505-4.134,4.78,4.78,0,0,1,.378-2.667c-3.985-.467-3.9-2.886-3.9-2.886.622,1.035,5.274.432,7.2.136h.011c.238-.041.432-.071.574-.093l.024-.006a1.362,1.362,0,0,1,.229-.019,4.864,4.864,0,0,1,.989,9.67Z" transform="translate(-900.223 -104.005)" fill="#32324c"/>
              </g>
            </g>
          </g>
          <g id="Grupo_948517" data-name="Grupo 948517" transform="translate(0 60.724)">
            <path id="Trazado_683725" data-name="Trazado 683725" d="M900.2,106.632s-13.607-7.458-17.964,4.929c-3.834,10.892,8.551,31.5,25.119,24.756Z" transform="translate(-881.533 -104.406)" fill="#ffaf82"/>
          </g>
          <g id="Grupo_948520" data-name="Grupo 948520" transform="translate(51.956 90.402)">
            <g id="Grupo_948518" data-name="Grupo 948518">
              <path id="Trazado_683726" data-name="Trazado 683726" d="M933.378,126.955a13.079,13.079,0,0,1-2.4,3.646c-2.119,2.24-5.35,3.877-10.276,3.866-4.138-.011-7.382-2.3-9.789-5.052a28.1,28.1,0,0,1-3.752-5.648,29.041,29.041,0,0,1-1.57-3.6s19.849-.618,29.35-2.019l0,.006a19.792,19.792,0,0,1-.194,3.9A18.3,18.3,0,0,1,933.378,126.955Z" transform="translate(-905.589 -118.147)" fill="#920e08"/>
            </g>
            <g id="Grupo_948519" data-name="Grupo 948519">
              <path id="Trazado_683727" data-name="Trazado 683727" d="M934.747,122.052c-9.054,1.758-23.706,1.624-27.588,1.715a29.041,29.041,0,0,1-1.57-3.6s19.849-.618,29.35-2.019l0,.006A19.792,19.792,0,0,1,934.747,122.052Z" transform="translate(-905.589 -118.147)" fill="#fff"/>
            </g>
          </g>
          <g id="Grupo_948521" data-name="Grupo 948521" transform="translate(6.647 69.385)">
            <path id="Trazado_683728" data-name="Trazado 683728" d="M897.475,122.667c-1.179-3.583-4.542-10.961-12.864-14.251,0,0,8.892,8.382,9.568,14.868a1.615,1.615,0,0,0,1.641,1.482l.194-.006A1.592,1.592,0,0,0,897.475,122.667Z" transform="translate(-884.611 -108.416)" fill="#f88968"/>
          </g>
          <g id="Grupo_948523" data-name="Grupo 948523" transform="translate(57.278 100.262)">
            <g id="Grupo_948522" data-name="Grupo 948522">
              <path id="Trazado_683729" data-name="Trazado 683729" d="M928.118,125.306c-2.119,2.24-5.35,3.877-10.276,3.866-4.138-.011-7.382-2.3-9.789-5.052,1.318-.752,4.976-2.32,10.182-.59a8.507,8.507,0,0,1,5.084-.741A6.427,6.427,0,0,1,928.118,125.306Z" transform="translate(-908.053 -122.712)" fill="#f85c66"/>
            </g>
          </g>
          <g id="Grupo_948524" data-name="Grupo 948524" transform="translate(58.229 107.954)">
            <path id="Trazado_683730" data-name="Trazado 683730" d="M915.313,130.817a18.208,18.208,0,0,1-6.339-2.523,1.107,1.107,0,0,1,1.253-1.825c.3.2,7.117,4.739,14.324.907a1.107,1.107,0,1,1,1.041,1.955A15.279,15.279,0,0,1,915.313,130.817Z" transform="translate(-908.493 -126.274)" fill="#f88968"/>
          </g>
          <g id="Grupo_948525" data-name="Grupo 948525" transform="translate(63.041 65.306)">
            <path id="Trazado_683731" data-name="Trazado 683731" d="M917.661,127.109H911.9a1.183,1.183,0,1,1,0-2.365h5.756a.266.266,0,0,0,.255-.339l-4.78-16.363a1.182,1.182,0,0,1,2.27-.663l4.78,16.361a2.631,2.631,0,0,1-2.525,3.369Z" transform="translate(-910.721 -106.528)" fill="#f88968"/>
          </g>
          <path id="Trazado_683732" data-name="Trazado 683732" d="M917.825,100.231h0a2.261,2.261,0,0,1-2,2.678c-4.423.436-13.62,1.933-17.769,6.991,0,0,.905-8.309,17.1-11.469A2.273,2.273,0,0,1,917.825,100.231Z" transform="translate(-862.365 -50.661)" fill="#32324c"/>
          <path id="Trazado_683733" data-name="Trazado 683733" d="M915.663,100.378h0a2.263,2.263,0,0,0,2.43,2.292c4.434-.343,13.75-.475,18.717,3.78,0,0-2.339-8.022-18.834-8.307A2.271,2.271,0,0,0,915.663,100.378Z" transform="translate(-841.948 -50.948)" fill="#32324c"/>
          <g id="Grupo_948528" data-name="Grupo 948528" transform="translate(77.344 59.24)">
            <g id="Grupo_948527" data-name="Grupo 948527">
              <g id="Grupo_948526" data-name="Grupo 948526">
                <path id="Trazado_683734" data-name="Trazado 683734" d="M921.526,113.4a4.87,4.87,0,0,0,5.505-4.134,4.793,4.793,0,0,0-.38-2.665c3.987-.469,3.9-2.886,3.9-2.886-.62,1.035-5.274.43-7.2.136h-.013c-.235-.043-.432-.071-.572-.1l-.024-.006a1.689,1.689,0,0,0-.231-.017,4.862,4.862,0,0,0-.987,9.667Z" transform="translate(-917.343 -103.719)" fill="#32324c"/>
              </g>
            </g>
          </g>
          <path id="Trazado_683735" data-name="Trazado 683735" d="M917.771,98.019s-1.9,33.279-17.421,46.715c0,0-1.335-8.827-13.415-7.5,0,0-1.14-2.065-2.914-12.076s4.6-51.335,50.424-48.674c0,0,14.575-2.957,34.974,14.486s8.313,36.521,8.313,36.521S943.7,122.788,917.771,98.019Z" transform="translate(-878.947 -76.291)" fill="#32324c"/>
          <circle id="Elipse_5265" data-name="Elipse 5265" cx="3.816" cy="3.816" r="3.816" transform="translate(12.127 90.403)" fill="#fff"/>
        </g>
      </g>
    </g>
  </g>
</svg>
