<svg xmlns="http://www.w3.org/2000/svg" xmlns:xlink="http://www.w3.org/1999/xlink" width="1240" height="732" viewBox="0 0 1240 732">
  <defs>
    <clipPath id="clip-path">
      <path id="Rect치ngulo_335407" data-name="Rect치ngulo 335407" d="M73.5,52.134H1261.274a9.574,9.574,0,0,1,9.736,9.4V642.613a9.573,9.573,0,0,1-9.736,9.4H73.5a9.573,9.573,0,0,1-9.736-9.4V61.537A9.574,9.574,0,0,1,73.5,52.134Z" fill="none"/>
    </clipPath>
  </defs>
  <g id="Grupo_963428" data-name="Grupo 963428" transform="translate(-180 -5177)">
    <rect id="Rect치ngulo_335407-2" data-name="Rect치ngulo 335407" width="1240" height="732" rx="10" transform="translate(180 5177)" fill="#fff4e1"/>
    <g id="Grupo_930482" data-name="Grupo 930482" transform="translate(132.614 5241.866)">
      <g id="Grupo_930237" data-name="Grupo 930237">
        <g id="Grupo_930236" data-name="Grupo 930236" clip-path="url(#clip-path)">
          <g id="Grupo_930234" data-name="Grupo 930234" opacity="0.57">
            <path id="Trazado_639094" data-name="Trazado 639094" d="M1283.15,463.3c-45.563-22.964-90.22-35.891-148.361-38.771s-118.012,6.857-164.314,28.645c-49.721,23.4-81.019,58.469-118.821,89.348-31.561,25.78-70.006,49.744-118.863,60.989-69.9,16.087-147.7,3.74-220.693-6.775s-154.178-18.381-218.514,4.956c-21.363,7.749-53.57,31.079-63.186,48.585" fill="none" stroke="#fccf00" stroke-miterlimit="10" stroke-width="1" opacity="0.53" style="mix-blend-mode: multiply;isolation: isolate"/>
            <path id="Trazado_639095" data-name="Trazado 639095" d="M1281.138,474.433c-34.842-18.472-76.845-20.936-122.309-22.207-36.533-1.021-73.714-.443-108.548,6.252-35.376,6.8-66.847,19.613-96.825,33.084-91.016,40.9-180.055,91.2-291.814,99.593-97.164,7.3-201.489-18.47-291.18,5.582-35.413,9.5-91.107,33.265-109.554,54.367l1018.048,8.821Z" fill="#fccf00" opacity="0.53" style="mix-blend-mode: multiply;isolation: isolate"/>
            <path id="Trazado_639096" data-name="Trazado 639096" d="M1279.883,661.109l.109-9.268c.624-53.077-30.388-101.932-79.876-125.025l-1.023-.476c-24.847-11.548-51.67-22.028-81.532-27.006s-63.331-3.888-89.135,6.476c-58.021,23.3-54.048,79.608-103.187,109.806-38.051,23.383-99.02,25.2-151.377,17.472s-101.29-23.357-153.929-30.263c-93.665-12.288-195.694,5.609-264.635,46.42-1.207.714-.8,5.693,1.6,1.151" fill="#ffeacf" opacity="0.46" style="mix-blend-mode: screen;isolation: isolate"/>
            <path id="Trazado_639097" data-name="Trazado 639097" d="M706.29,619.773c-29.668-2.681-58.165-9.054-87.223-13.729a769.817,769.817,0,0,0-188.207-6.623c-23.554,2.077-47.328,5.364-67.635,13.006-22.344,8.408-38.993,21.506-54.174,34.742" fill="none" stroke="#ffd297" stroke-miterlimit="10" stroke-width="1.168" opacity="0.28" style="mix-blend-mode: screen;isolation: isolate"/>
            <path id="Trazado_639098" data-name="Trazado 639098" d="M1282.6,526.639c-12.808-17.4-35.734-31.517-62.315-41.1s-56.694-14.833-87.034-17.321c-23.729-1.946-48.033-2.238-71.29,1.056-25.877,3.665-49.563,11.619-72.343,20.036-12.583,4.65-82.752,85.322-85.219,94.343-19.541,71.454-167.328,17-184.858,44.64" fill="none" stroke="#ffd297" stroke-miterlimit="10" stroke-width="1.168" opacity="0.28" style="mix-blend-mode: screen;isolation: isolate"/>
          </g>
          <g id="Grupo_930235" data-name="Grupo 930235" opacity="0.57">
            <path id="Trazado_639099" data-name="Trazado 639099" d="M53.044,241.614c46,22.139,90.9,34.258,149.086,36.088s117.858-8.986,163.73-31.6c49.26-24.29,79.874-59.921,117.072-91.477,31.057-26.345,69.032-51,117.662-63.123,69.574-17.346,147.6-6.4,220.786,2.791s154.507,15.6,218.38-8.9c21.209-8.134,52.959-32.04,62.235-49.717" fill="none" stroke="#fccf00" stroke-miterlimit="10" stroke-width="1" opacity="0.53" style="mix-blend-mode: multiply;isolation: isolate"/>
            <path id="Trazado_639100" data-name="Trazado 639100" d="M54.841,230.448c35.193,17.84,77.236,19.545,122.716,19.995,36.547.362,73.711-.887,108.409-8.209,35.238-7.437,66.455-20.816,96.168-34.825,90.209-42.532,178.259-94.432,289.836-104.842,97.006-9.05,201.811,14.831,291.021-10.836,35.223-10.134,90.447-34.9,108.483-56.334L53.433,44.949Z" fill="#fccf00" opacity="0.53" style="mix-blend-mode: multiply;isolation: isolate"/>
            <path id="Trazado_639101" data-name="Trazado 639101" d="M52.484,43.781l.07,9.269c.4,53.079,32.355,101.365,82.281,123.561l1.031.458c25.067,11.1,52.088,21.092,82.041,25.53s63.4,2.744,88.994-8.083c57.56-24.346,52.5-80.57,101.045-111.649,37.591-24.066,98.515-26.983,151.012-20.2s101.724,21.526,154.488,27.48C807.332,100.741,909,81.006,977.137,38.959c1.193-.736.694-5.706-1.622-1.122" fill="#ffeacf" opacity="0.46" style="mix-blend-mode: screen;isolation: isolate"/>
            <path id="Trazado_639102" data-name="Trazado 639102" d="M626.776,74.76c29.715,2.145,58.33,8,87.473,12.152a769.9,769.9,0,0,0,188.3,3.226c23.509-2.5,47.216-6.217,67.371-14.224C992.1,67.1,1008.494,53.708,1023.416,40.2" fill="none" stroke="#ffd297" stroke-miterlimit="10" stroke-width="1.168" opacity="0.28" style="mix-blend-mode: screen;isolation: isolate"/>
            <path id="Trazado_639103" data-name="Trazado 639103" d="M52.372,178.277c13.141,17.161,36.337,30.867,63.1,39.966s56.971,13.807,87.354,15.748c23.763,1.517,48.068,1.371,71.257-2.342,25.8-4.131,49.33-12.512,71.942-21.339,12.492-4.876,81.088-86.8,83.38-95.864,18.155-71.794,166.969-20.012,183.961-47.968" fill="none" stroke="#ffd297" stroke-miterlimit="10" stroke-width="1.168" opacity="0.28" style="mix-blend-mode: screen;isolation: isolate"/>
          </g>
        </g>
      </g>
    </g>
  </g>
</svg>
