<svg xmlns="http://www.w3.org/2000/svg" xmlns:xlink="http://www.w3.org/1999/xlink" width="180" height="180" viewBox="0 0 180 180">
  <defs>
    <clipPath id="clip-path">
      <path id="Trazado_701811" data-name="Trazado 701811" d="M394.588,1531.173c.02,2.335,4.922,5.033,12.135,5.38,7.158.342,12.07-1.855,12.2-4.147.131-2.322-4.624-5.1-11.967-5.5q-.845-.045-1.646-.044c-6.488,0-10.742,2.127-10.722,4.309" transform="translate(-394.588 -1526.864)" fill="none"/>
    </clipPath>
  </defs>
  <g id="Grupo_963426" data-name="Grupo 963426" transform="translate(-1071 -5276.615)">
    <g id="Elipse_5359" data-name="Elipse 5359" transform="translate(1071 5276.615)" fill="#fff" stroke="#eb6f2d" stroke-width="7">
      <circle cx="90" cy="90" r="90" stroke="none"/>
      <circle cx="90" cy="90" r="86.5" fill="none"/>
    </g>
    <g id="Grupo_963337" data-name="Grupo 963337" transform="translate(763.67 3830.148)">
      <path id="Trazado_701786" data-name="Trazado 701786" d="M466.024,1517.375s-.427,6.054-1.32,7.265a13.834,13.834,0,0,1-3.368,2.607" transform="translate(-32.683 -10.288)" fill="none" stroke="#b17f49" stroke-linecap="round" stroke-miterlimit="10" stroke-width="5.327"/>
      <path id="Trazado_701787" data-name="Trazado 701787" d="M371.944,1569.658c1.243-3.272,3.584-5.434,5.331-4.984l.008-.019,71.128,27.989-4.677,12.283-71.128-27.99.008-.02c-1.593-.833-1.907-4-.67-7.258" transform="translate(-6.152 -24.19)" fill="#6c5953"/>
      <path id="Trazado_701788" data-name="Trazado 701788" d="M372.562,1569.138c1.282-2.977,3.466-4.891,5.118-4.465l.008-.019,71.128,27.99-2.14,5.622Z" transform="translate(-6.557 -24.19)" fill="#7e6c69"/>
      <path id="Trazado_701789" data-name="Trazado 701789" d="M472.487,1609.228c-1.286,3.391-.9,6.687.864,7.354s4.237-1.538,5.524-4.933.9-6.684-.865-7.353-4.234,1.54-5.522,4.932" transform="translate(-35.741 -35.833)" fill="#ceb679"/>
      <path id="Trazado_701790" data-name="Trazado 701790" d="M475.235,1610.891c-.387,1.023-.271,2.017.262,2.218s1.277-.464,1.662-1.487.271-2.018-.26-2.218S475.623,1609.867,475.235,1610.891Zm-1.229-.467c-.882,2.33-.617,4.593.592,5.051s2.908-1.056,3.79-3.387.616-4.593-.594-5.051S474.89,1608.095,474.007,1610.424Z" transform="translate(-36.259 -36.651)" fill="none" stroke="#6c5953" stroke-miterlimit="10" stroke-width="1.123"/>
      <path id="Trazado_701791" data-name="Trazado 701791" d="M410.055,1587.227c-2.17.176-4.286.36-6.346-.635-.92-.444-1.96-.537-2.847-1.033-1.216-.68-2.476-1.529-2.488-3.238a29.5,29.5,0,0,0,.195-3.935,8.6,8.6,0,0,0-.416-1.78,3.019,3.019,0,0,1-.336-1.018c.492.425.976.951,1.47,1.4s.849,1.83,1.461,1.934a7.111,7.111,0,0,1-.354-3.386,4.143,4.143,0,0,1,1.814-3.088,5.328,5.328,0,0,0,2.075-2.956c.162-.672.064-2.541.814-2.793.329,1.035-.334,3.111.478,3.87-.061-1.941,1.674-3.735,2.669-5.106.7-.964.52-1.9.879-2.97.345.345.423,1.33.755,1.828a20.355,20.355,0,0,1,1.773,2.857,8.216,8.216,0,0,1,.752,4.1c-.054.553-.54,2.157-.189,2.59.311-.326.332-1.551.476-2.054.172-.6.769-1.651.568-2.245a4.621,4.621,0,0,1,.158,1.708,15.284,15.284,0,0,0,.286,1.938,4.072,4.072,0,0,1-.438,2.48c-.217.493-.837,1.17-.854,1.718.716.115,1.483-.593,1.964-1.116.562-.61.677-1.756,1.215-2.269a11.12,11.12,0,0,1,.2,3.269c0,2.119,1.359,3.781.452,5.874-1.043,2.406-3.939,3.877-6.185,4.06" transform="translate(-13.99 -23.564)" fill="#f5a12f"/>
      <path id="Trazado_701792" data-name="Trazado 701792" d="M404.134,1586.884c-1.413.174-3.149-1.589-3.7-2.866a5.473,5.473,0,0,1-.57-2.094c-.022-.555.212-1-.105-1.466a8.181,8.181,0,0,0,2.888,2.953c.031.044.028.047-.008.008-.443-1.715-1.457-4.15-.718-5.92.81-1.938,2.844-2.532,3.84-4.185.588.428.488,1.331.745,1.994a24.535,24.535,0,0,1,3.411-7.579c.41,1.392.728,2.939,1.043,4.389a12.874,12.874,0,0,1,.377,3.36c-.049.68-.444,1.228-.365,1.9.777.107,1.478-1.1,1.982-1.67a15.725,15.725,0,0,1-.929,2.337c-.212.726-.1,1.657-.583,2.24a3.5,3.5,0,0,0,2.912-1.153c-.116,1.023.626,2.134.588,3.308-.063,1.907-.034,2.767-1.649,3.687a10.5,10.5,0,0,1-4.782,1.086c-1.092.055-3.649.406-4.571-.329Z" transform="translate(-14.562 -25.107)" fill="#ef802a"/>
      <path id="Trazado_701793" data-name="Trazado 701793" d="M415.985,1585.49c-.524.426-.673,1.694-1.224,2.269a9.142,9.142,0,0,1-2.428,1.641,4.848,4.848,0,0,1-5-.3c-.9-.757-.855-2.212-1.075-3.2a4.242,4.242,0,0,1,1.769-4.383c-.37,1.015.09,1.7.728,2.62-.473-.956,1.1-2.267,1.627-3.088a11.405,11.405,0,0,0,1.071-1.617c.212-.516.087-1.112.611-1.471-.646,2.6,2.8,5.214.86,7.582a14.606,14.606,0,0,0,1.611-3.27c.67.958.975,3.136-.078,4.043.55-.2,1.015-.579,1.542-.824.042-.044.038-.047-.01-.009" transform="translate(-16.443 -28.12)" fill="#de5525"/>
      <path id="Trazado_701794" data-name="Trazado 701794" d="M361.411,1486.429l78.139,30.193m-69.441-34.2s-.435,6.1-1.344,7.325a14.07,14.07,0,0,1-3.431,2.629m2.211,64.384V1495.76a3.69,3.69,0,0,0-3.414-3.689c-1.661-.119-3.435-.538-4.085-1.718a29.074,29.074,0,0,1-2.2-6.207" transform="translate(-2.225)" fill="none" stroke="#b17f49" stroke-linecap="round" stroke-miterlimit="10" stroke-width="5.327"/>
      <path id="Trazado_701795" data-name="Trazado 701795" d="M366.979,1558.356v-61.031a3.692,3.692,0,0,0-3.416-3.692c-1.661-.119-3.437-.539-4.088-1.72a29.066,29.066,0,0,1-2.2-6.211m3.066,2.641,78.184,30.212" transform="translate(-2.057 -0.966)" fill="none" stroke="#9a6a3d" stroke-linecap="round" stroke-miterlimit="10" stroke-width="2.663"/>
      <path id="Trazado_701796" data-name="Trazado 701796" d="M351.038,1583.33c1.243-3.273,3.584-5.434,5.331-4.984l.008-.019,71.128,27.99-4.677,12.282-71.128-27.99.008-.02c-1.592-.833-1.907-3.995-.67-7.258" transform="translate(0 -28.213)" fill="#6c5953"/>
      <path id="Trazado_701797" data-name="Trazado 701797" d="M351.656,1582.81c1.282-2.978,3.466-4.891,5.118-4.465l.008-.019,71.128,27.99-2.14,5.622Z" transform="translate(-0.405 -28.214)" fill="#7e6c69"/>
      <path id="Trazado_701798" data-name="Trazado 701798" d="M451.581,1622.9c-1.286,3.391-.9,6.686.864,7.353s4.237-1.539,5.524-4.932.9-6.685-.865-7.353-4.234,1.54-5.522,4.932" transform="translate(-29.589 -39.857)" fill="#ceb679"/>
      <path id="Trazado_701799" data-name="Trazado 701799" d="M454.329,1624.562c-.387,1.023-.271,2.017.262,2.218s1.277-.464,1.663-1.487.27-2.018-.261-2.218S454.717,1623.538,454.329,1624.562Zm-1.229-.467c-.882,2.33-.617,4.593.592,5.051s2.908-1.056,3.79-3.387.616-4.593-.594-5.051S453.984,1621.766,453.1,1624.1Z" transform="translate(-30.106 -40.674)" fill="none" stroke="#6c5953" stroke-miterlimit="10" stroke-width="1.123"/>
      <path id="Trazado_701800" data-name="Trazado 701800" d="M460.329,1592.432v-60.993a3.677,3.677,0,0,0-3.386-3.689c-1.646-.119-3.406-.538-4.051-1.719a29.244,29.244,0,0,1-2.185-6.207" transform="translate(-29.555 -11.009)" fill="none" stroke="#b17f49" stroke-linecap="round" stroke-miterlimit="10" stroke-width="5.327"/>
      <path id="Trazado_701801" data-name="Trazado 701801" d="M459.1,1592.446v-61.031a3.687,3.687,0,0,0-3.4-3.692c-1.654-.118-3.423-.538-4.071-1.719a29.188,29.188,0,0,1-2.2-6.212" transform="translate(-29.179 -10.999)" fill="none" stroke="#9a6a3d" stroke-linecap="round" stroke-miterlimit="10" stroke-width="2.663"/>
      <path id="Trazado_701802" data-name="Trazado 701802" d="M432.18,1536.61a6.576,6.576,0,0,1-2.621.243.961.961,0,0,1-.519-.1.094.094,0,0,1-.047-.045.129.129,0,0,1,.04-.12c.113-.14.256-.25.368-.393.018-.025.033-.052.049-.077a4.652,4.652,0,0,0,2.08-.037c.008,0,.016,0,.023,0,.472-.078.874-.643.478-1.07a1.955,1.955,0,0,0-1.248-.474,5.765,5.765,0,0,0-.931-.013c.021-.306.021-.641-.086-.647.531.028,1.066.056,1.593.118a3.56,3.56,0,0,1,1.263.322,1.029,1.029,0,0,1,.517.583,1.172,1.172,0,0,1-.027.682,1.617,1.617,0,0,1-.5.76,1.979,1.979,0,0,1-.429.268" transform="translate(-23.164 -15.144)" fill="#e7e8e9"/>
      <path id="Trazado_701803" data-name="Trazado 701803" d="M391.241,1534.552c-.447-.025-.893-.056-1.34-.065a3.309,3.309,0,0,1-1.545-.332c-.322-.168-.777-.492-.8-.908a.836.836,0,0,1,.21-.549,2.641,2.641,0,0,1,1.384-.861,3.78,3.78,0,0,1,1.972-.028c-.038.11-.079.222-.107.34-.01.034-.016.064-.023.1-.1,0-.227,0-.381,0a3.167,3.167,0,0,0-1.466.134c-.344.137-.812.42-.785.879a.7.7,0,0,0,.685.615,17.527,17.527,0,0,0,2.178.069.02.02,0,0,1,0,.011.372.372,0,0,0,.036.052c.108.161.219.321.335.474a.333.333,0,0,1-.085.06.651.651,0,0,1-.274.015" transform="translate(-10.97 -14.501)" fill="#e7e8e9"/>
      <path id="Trazado_701804" data-name="Trazado 701804" d="M406.356,1526.871c7.486.4,12.334,3.236,12.2,5.6-.133,2.338-5.14,4.576-12.437,4.228-7.353-.353-12.351-3.1-12.37-5.484-.023-2.408,5.058-4.749,12.607-4.347" transform="translate(-12.793 -13.069)" fill="#e7e8e9"/>
      <path id="Trazado_701805" data-name="Trazado 701805" d="M394.2,1536.823c2.167,2.025,6.625,3.517,11.869,3.767a25.55,25.55,0,0,0,7.833-.728,15.005,15.005,0,0,0,1.879-.638q.413-.172.815-.38c.243-.129.448-.337.73-.344.1,0,.989.071,1.023.066l-.809,14.232c-.033.557-.061,1.144-.09,1.711,0,.066-.006.132-.009.2a6.1,6.1,0,0,1-.136,1.5,1.983,1.983,0,0,1-.321.627,4.428,4.428,0,0,1-1.406,1.16,14.635,14.635,0,0,1-5.43,1.576,28.332,28.332,0,0,1-4.54.178,25.235,25.235,0,0,1-7.185-1.213,8.522,8.522,0,0,1-4.016-2.375c-.776-.985-.585-2.181-.609-3.322-.037-1.706-.035-3.426-.052-5.165l-.1-10.781c.172-.015.328-.033.461-.051a.369.369,0,0,0,.1-.021" transform="translate(-12.76 -16.011)" fill="#a7a9ab"/>
      <path id="Trazado_701806" data-name="Trazado 701806" d="M415.287,1549.438l.809-14.232c-.033,0-.927-.07-1.022-.066-.282.007-.487.215-.73.344-.268.137-.54.265-.816.379a14.971,14.971,0,0,1-1.879.639,25.567,25.567,0,0,1-7.832.728c-5.243-.25-9.7-1.742-11.869-3.767a.37.37,0,0,1-.1.021c-.132.018-.288.036-.461.052l.1,10.78c.016,1.739.014,3.459.051,5.165.025,1.141-.167,2.337.61,3.322a8.52,8.52,0,0,0,4.016,2.375,25.24,25.24,0,0,0,7.185,1.214,28.361,28.361,0,0,0,4.541-.179,14.623,14.623,0,0,0,5.43-1.576,4.428,4.428,0,0,0,1.406-1.16,1.975,1.975,0,0,0,.32-.627,6.073,6.073,0,0,0,.137-1.5c0-.069,0-.135.009-.2.028-.567.057-1.152.09-1.711m.988-17.382c.134-2.368-4.713-5.2-12.2-5.6-7.549-.4-12.63,1.94-12.607,4.347.02,2.381,5.018,5.132,12.37,5.484,7.3.349,12.3-1.89,12.437-4.227m.459-1.671c1.575.105,5.339.091,4.583,2.889-.512,1.9-2.553,2.056-4.334,1.983l-1,16.971a3.147,3.147,0,0,1-.829,2.048,9.164,9.164,0,0,1-4.534,2.282,25.734,25.734,0,0,1-7.281.676c-.785-.027-1.573-.084-2.358-.174a21.5,21.5,0,0,1-6.626-1.7,9.639,9.639,0,0,1-2.19-1.325c-1.473-1.243-1.461-2.989-1.5-4.749-.025-1.229-.03-2.466-.044-3.711l-.118-9.734c-.008-.742-.016-1.489-.027-2.236-1.835.074-4.375-.174-4.478-2.251-.052-1.069,1.081-1.784,1.881-2.132a4.717,4.717,0,0,1,3.116-.176.318.318,0,0,1,.092.035c1.071-1.673,3.219-2.437,5.006-2.915a25.731,25.731,0,0,1,8-.708c6.2.333,11.169,2.382,12.634,4.931m-25.969,1.7a17.672,17.672,0,0,1-2.178-.07.7.7,0,0,1-.685-.614c-.027-.46.441-.743.785-.88a3.164,3.164,0,0,1,1.466-.133c.153,0,.282.006.381,0,.007-.032.013-.062.022-.1.029-.118.069-.231.107-.341a3.8,3.8,0,0,0-1.972.027,2.635,2.635,0,0,0-1.383.862.836.836,0,0,0-.21.549c.021.415.476.739.8.907a3.326,3.326,0,0,0,1.545.332c.447.008.893.04,1.341.065a.646.646,0,0,0,.274-.016.353.353,0,0,0,.085-.059c-.117-.154-.227-.314-.335-.475a.4.4,0,0,1-.037-.052c0-.005,0-.008,0-.01m-.3-1.248c0,.017-.633-.032-.673-.032a5.051,5.051,0,0,0-.694.012c-.326.076-.588.217-.654.466,0,.014.008.028.013.039a.577.577,0,0,0,.071.1,2.6,2.6,0,0,0,.782.153c.313-.02.81-.047,1.073-.039a.124.124,0,0,1,.088-.027.521.521,0,0,1,.073.006c-.015-.052-.031-.107-.044-.163a1.739,1.739,0,0,1-.034-.516m28.411,2.749a4.651,4.651,0,0,1-2.08.037c-.016.025-.03.052-.048.077-.113.143-.256.253-.369.393a.129.129,0,0,0-.04.12.092.092,0,0,0,.047.045.956.956,0,0,0,.518.1,6.576,6.576,0,0,0,2.621-.243,1.962,1.962,0,0,0,.429-.268,1.626,1.626,0,0,0,.5-.76,1.178,1.178,0,0,0,.027-.682,1.029,1.029,0,0,0-.517-.583,3.556,3.556,0,0,0-1.263-.322c-.527-.062-1.061-.09-1.593-.118.108.006.108.341.086.647a5.789,5.789,0,0,1,.932.013,1.957,1.957,0,0,1,1.248.474c.4.427-.006.992-.478,1.07-.008,0-.016,0-.024,0m-.035-1.022a.928.928,0,0,0-.309-.039c-.1,0-1.379-.04-1.385,0a5.106,5.106,0,0,1-.152.716l1.37.034a.972.972,0,0,0,.481-.068.4.4,0,0,0,.214-.428.342.342,0,0,0-.219-.217" transform="translate(-10.511 -12.651)" fill="#221f1f"/>
      <path id="Trazado_701807" data-name="Trazado 701807" d="M400.6,1540.34q-.394-.126-.768-.263-.654,9.844-.8,19.061c.248.1.5.19.737.274q.165-9.223.831-19.072" transform="translate(-14.346 -16.969)" fill="#faf9f9"/>
      <path id="Trazado_701808" data-name="Trazado 701808" d="M397.13,1558.2q.068-9.239.627-19.105a12.982,12.982,0,0,1-2.045-1.092q-.521,9.731-.56,18.85a6.841,6.841,0,0,0,1.979,1.347" transform="translate(-13.205 -16.358)" fill="#faf9f9"/>
      <g id="Grupo_963336" data-name="Grupo 963336" transform="translate(381.549 1513.784)">
        <g id="Grupo_963335" data-name="Grupo 963335" clip-path="url(#clip-path)">
          <path id="Trazado_701809" data-name="Trazado 701809" d="M422.758,1532.935c-.264-.085-.522-.173-.773-.265q-.657,9.9-.8,19.169c.249.1.5.191.741.276q.165-9.276.836-19.18" transform="translate(-402.414 -1528.573)" fill="#c8c7c7"/>
          <path id="Trazado_701810" data-name="Trazado 701810" d="M419.273,1551.452c.045-6.194.382-12.948.761-19.565a15.025,15.025,0,0,0-2.188-.747c-.278,4.412-.534,12.842-.563,18.957a6.869,6.869,0,0,0,1.99,1.355" transform="translate(-401.267 -1528.122)" fill="#c8c7c7"/>
        </g>
      </g>
      <path id="Trazado_701812" data-name="Trazado 701812" d="M428.475,1516.7l-1.417-.538c2.378,6.051,1.584,13.465,1.57,13.576a.611.611,0,0,0,.536.678.573.573,0,0,0,.071,0,.611.611,0,0,0,.606-.539,35,35,0,0,0-.382-9.446,25.442,25.442,0,0,0-.984-3.736" transform="translate(-22.595 -9.932)" fill="#1d1d1b"/>
      <path id="Trazado_701813" data-name="Trazado 701813" d="M409.522,1504.091a11.41,11.41,0,0,0-9.406,1.917c-7.217,4.875-9.018,17.4-9.09,17.931a.61.61,0,0,0,.522.689.6.6,0,0,0,.689-.521c.017-.125,1.8-12.513,8.564-17.086a9.282,9.282,0,0,1,10.61-.805l3.354,1.3a11.042,11.042,0,0,0-5.242-3.426" transform="translate(-11.99 -6.281)" fill="#1d1d1b"/>
    </g>
  </g>
</svg>
