<svg xmlns="http://www.w3.org/2000/svg" xmlns:xlink="http://www.w3.org/1999/xlink" width="180" height="180" viewBox="0 0 180 180">
  <defs>
    <clipPath id="clip-path">
      <path id="Trazado_701754" data-name="Trazado 701754" d="M364.976,1345.143c.025,2.924,6.164,6.3,15.2,6.736,8.963.429,15.115-2.321,15.277-5.193.164-2.907-5.79-6.389-14.985-6.883q-1.059-.056-2.062-.056c-8.125,0-13.451,2.663-13.425,5.4" transform="translate(-364.976 -1339.748)" fill="none"/>
    </clipPath>
    <clipPath id="clip-path-2">
      <path id="Trazado_701782" data-name="Trazado 701782" d="M423.8,1367.11c.025,2.924,6.164,6.3,15.2,6.736,8.962.428,15.115-2.321,15.277-5.193.164-2.907-5.791-6.39-14.985-6.883q-1.057-.057-2.059-.056c-8.126,0-13.453,2.663-13.428,5.4" transform="translate(-423.8 -1361.714)" fill="none"/>
    </clipPath>
  </defs>
  <g id="Grupo_963334" data-name="Grupo 963334" transform="translate(-715 -5276.615)">
    <g id="Elipse_5358" data-name="Elipse 5358" transform="translate(715 5276.615)" fill="#fff" stroke="#eb6f2d" stroke-width="7">
      <circle cx="90" cy="90" r="90" stroke="none"/>
      <circle cx="90" cy="90" r="86.5" fill="none"/>
    </g>
    <g id="Grupo_963332" data-name="Grupo 963332" transform="translate(409.604 3988.359)">
      <path id="Trazado_701718" data-name="Trazado 701718" d="M481.026,1402.486a9.808,9.808,0,0,1-.214,1.385c-1,4.3-4.76,5.423-9.064,5.4-2.3-.015-5.485.136-7.414-1.359-1.192-.925-1.458-2.939-1.291-4.914a13.806,13.806,0,0,1,.893-3.9,18.961,18.961,0,0,1,1.838-3.346,9.607,9.607,0,0,1,2.358-2.5c4.008-2.667,7.423-.512,10.2,2.813a20.194,20.194,0,0,1,2.07,2.679,5.957,5.957,0,0,1,.621,3.751" transform="translate(-28.418 -11.623)" fill="#6a705e"/>
      <path id="Trazado_701719" data-name="Trazado 701719" d="M480.418,1398.735a10.1,10.1,0,0,1-4.768,5.634,11.932,11.932,0,0,1-9.484.742,6.092,6.092,0,0,1-3.112-2.117,13.806,13.806,0,0,1,.893-3.9,18.961,18.961,0,0,1,1.838-3.346,9.607,9.607,0,0,1,2.358-2.5c4.008-2.667,7.423-.512,10.2,2.813a20.194,20.194,0,0,1,2.07,2.679" transform="translate(-28.431 -11.623)" fill="#81857a"/>
      <path id="Trazado_701720" data-name="Trazado 701720" d="M471.759,1395.018c-.486-.533-1.3-.14-1.66.349a1.224,1.224,0,0,0,.2,1.511,1.457,1.457,0,0,0,1.633.243,2.274,2.274,0,0,0,1.072-1.744.824.824,0,0,0-.568-1,2.24,2.24,0,0,0-1.943.351c-.428.337-.949,1.134-.741,1.688a.776.776,0,0,0,.938.534,1.1,1.1,0,0,0,.672-.6c.035-.066.071-.131.109-.195.024-.041.049-.08.076-.119-.064.08-.067.084-.006.013.03-.035.191-.15.028-.037.082-.044.076-.046-.02-.006a1.1,1.1,0,0,1,.14-.042c.231-.061-.159,0,.111-.014a2.59,2.59,0,0,1,.418.02q-.392-.515-.785-1.031a3.221,3.221,0,0,1-.166.7c.058-.155-.054.076-.074.107.106-.164-.014,0-.056.042.191-.17-.152.035.111-.065-.191.072.129,0,.007.006s.206.052.013,0c-.064-.016.151.093-.023-.022.2.133.06.039.011,0-.139-.115.059.105,0,.011s.048.177.006,0c.016.063,0,.179.009.135s-.013.016-.038.047c.118-.145-.025.046.156-.141a1.393,1.393,0,0,0,.424-.552.2.2,0,0,0-.052-.2" transform="translate(-29.864 -12.11)" fill="#9a9d9a"/>
      <path id="Trazado_701721" data-name="Trazado 701721" d="M468.283,1398.9l-.05.016c.086-.027-.044.007-.075.014h.173a.512.512,0,0,0-.52.138,1.062,1.062,0,0,0-.1.129c.05-.056.062-.073.034-.048a.53.53,0,0,0-.136.233.78.78,0,0,0,.453.843.572.572,0,0,0,.684-.088,1.691,1.691,0,0,0,.417-.64.589.589,0,0,0-.151-.594.557.557,0,0,0-.857.115.532.532,0,0,0,.315.776l.007,0-.235-.137,0,0c-.046-.078-.093-.158-.138-.237v0l.054-.417c.086-.1.11-.128.071-.093a.434.434,0,0,0-.106.14,1.222,1.222,0,0,1-.064.106c-.027.045-.054.091-.083.135s-.025.036.03-.035c-.02.025-.041.049-.063.072l.684-.089a1.2,1.2,0,0,1-.111-.061c-.034-.022-.121-.1.013.014l.053.072a.52.52,0,0,0-.093-.126.578.578,0,0,0-.242-.14l.225.131-.02-.023.141.34c-.013-.115-.027.091-.008.012a.444.444,0,0,0-.115-.435l-.013-.01c.03.11.059.22.088.33a.682.682,0,0,0,.02-.133c0,.066.005,0,.012-.021a.247.247,0,0,0-.3-.3" transform="translate(-29.408 -13.067)" fill="#9a9d9a"/>
      <path id="Trazado_701722" data-name="Trazado 701722" d="M416.985,1374.857c.07,4.436-8.462,4.637-11.277,4.62-2.224-.015-5.306.132-7.171-1.314-2.018-1.565-1.292-6.357-.386-8.527a18.361,18.361,0,0,1,1.778-3.237,9.283,9.283,0,0,1,2.281-2.423c3.877-2.579,7.181-.5,9.87,2.721a46.178,46.178,0,0,1,3.4,4.28,7.8,7.8,0,0,1,1.5,3.88" transform="translate(-14.25 -5.325)" fill="#6a705e"/>
      <path id="Trazado_701723" data-name="Trazado 701723" d="M416.1,1370.977c-.517,3.017-2.382,4.129-5.882,4.469-2.576.249-5.876.726-8.009-1.117s-2.554-5.138-1.661-7.928a9.271,9.271,0,0,1,2.281-2.423c3.877-2.579,7.181-.5,9.87,2.721a46.139,46.139,0,0,1,3.4,4.279" transform="translate(-14.866 -5.325)" fill="#81857a"/>
      <path id="Trazado_701724" data-name="Trazado 701724" d="M406.712,1365.4c-.252-.264-.779-.122-1.065.013a1.81,1.81,0,0,0-.872,1.158.623.623,0,0,0,.286.7,2.006,2.006,0,0,0,1.9.222c.624-.294.88-1.13,1.072-1.728a.741.741,0,0,0-.519-.912,2.469,2.469,0,0,0-1.917.3c-.484.346-1.092,1.138-.841,1.769.148.372.617.7,1.01.411a1.325,1.325,0,0,0,.477-.653.882.882,0,0,1,.217-.279c-.088.082.109-.059.111-.06-.1.055.143-.038.137-.036a1.856,1.856,0,0,1,.61.005l-.715-.939a6.537,6.537,0,0,1-.221.7c.028-.073-.082.147-.071.126a1.405,1.405,0,0,1-.079.121c.042-.054.038-.052-.015.007.106-.111-.093.041.053-.019-.076.019-.077.024,0,.015a.956.956,0,0,1-.135,0c.106,0-.138-.029-.132-.027a2,2,0,0,1-.312-.1q.144.352.286.7a1.483,1.483,0,0,1,.413-.787c.157-.165.581-.446.323-.715" transform="translate(-15.856 -5.75)" fill="#9a9d9a"/>
      <path id="Trazado_701725" data-name="Trazado 701725" d="M409.856,1368.4a1.278,1.278,0,0,0-.238.253.514.514,0,0,0-.047.445.358.358,0,0,0,.69,0c0-.011.007-.021.011-.032l.006-.014q-.061.144.01-.026l.014-.1c0-.038,0-.017-.01.064a.247.247,0,0,1,.009-.034c-.038.112-.033.075-.014.044s.053-.069-.019.022c.031-.038.064-.075.1-.112a.359.359,0,1,0-.508-.508" transform="translate(-16.9 -6.506)" fill="#9a9d9a"/>
      <path id="Trazado_701726" data-name="Trazado 701726" d="M372.794,1368.6c1.557-4.1,4.488-6.8,6.675-6.242l.01-.024,89.067,35.048-5.857,15.381-89.067-35.05.011-.025c-1.994-1.044-2.388-5-.839-9.088" transform="translate(-8.777 -5.211)" fill="#6c5953"/>
      <path id="Trazado_701727" data-name="Trazado 701727" d="M373.395,1367.954c1.605-3.729,4.34-6.125,6.409-5.591l.01-.024,89.067,35.048-2.681,7.04Z" transform="translate(-9.111 -5.211)" fill="#7e6c69"/>
      <path id="Trazado_701728" data-name="Trazado 701728" d="M486.046,1413.177c-1.611,4.247-1.126,8.372,1.081,9.207s5.306-1.926,6.917-6.177,1.125-8.37-1.083-9.207-5.3,1.928-6.915,6.177" transform="translate(-33.18 -14.814)" fill="#ceb679"/>
      <path id="Trazado_701729" data-name="Trazado 701729" d="M489.266,1414.908c-.485,1.281-.339,2.526.327,2.777s1.6-.581,2.082-1.862.339-2.526-.327-2.777S489.752,1413.626,489.266,1414.908Zm-1.538-.584c-1.1,2.918-.774,5.751.741,6.325s3.642-1.323,4.746-4.242.771-5.751-.744-6.325S488.833,1411.408,487.728,1414.325Z" transform="translate(-33.607 -15.488)" fill="none" stroke="#6c5953" stroke-miterlimit="10" stroke-width="1.265"/>
      <path id="Trazado_701730" data-name="Trazado 701730" d="M364.263,1380.7c-2.6.212-5.135.432-7.6-.76-1.1-.533-2.349-.644-3.412-1.238-1.457-.814-2.967-1.831-2.98-3.88-.011-1.62.452-3.057.232-4.714a10.284,10.284,0,0,0-.5-2.133,3.621,3.621,0,0,1-.4-1.219c.59.508,1.169,1.139,1.761,1.673s1.017,2.192,1.75,2.317a8.522,8.522,0,0,1-.424-4.057,4.966,4.966,0,0,1,2.173-3.7,6.384,6.384,0,0,0,2.486-3.541c.194-.807.077-3.045.974-3.348.395,1.24-.4,3.728.573,4.637-.073-2.325,2.006-4.474,3.2-6.118.837-1.156.624-2.28,1.052-3.561.415.414.508,1.594.905,2.191a24.366,24.366,0,0,1,2.125,3.424,9.841,9.841,0,0,1,.9,4.912c-.065.663-.646,2.585-.227,3.1.374-.39.4-1.858.572-2.46.206-.719.921-1.979.679-2.691a5.523,5.523,0,0,1,.19,2.046,18.522,18.522,0,0,0,.343,2.324,4.872,4.872,0,0,1-.524,2.971c-.26.591-1,1.4-1.022,2.057.858.139,1.776-.71,2.353-1.335.673-.731.811-2.1,1.456-2.719a13.331,13.331,0,0,1,.24,3.917c0,2.538,1.628,4.53.541,7.038-1.25,2.882-4.72,4.646-7.411,4.865" transform="translate(-3.984 -2.792)" fill="#f5a12f"/>
      <path id="Trazado_701731" data-name="Trazado 701731" d="M356.933,1379.662c-1.693.209-3.773-1.9-4.431-3.434a6.572,6.572,0,0,1-.683-2.508c-.026-.666.255-1.2-.126-1.757a9.807,9.807,0,0,0,3.461,3.538c.038.053.034.057-.009.01-.53-2.055-1.745-4.972-.86-7.092.971-2.323,3.409-3.035,4.6-5.016.7.512.584,1.595.893,2.39.694-3.377,2.4-6.245,4.087-9.081.491,1.668.873,3.522,1.25,5.258a15.379,15.379,0,0,1,.451,4.026c-.058.814-.531,1.471-.437,2.277.931.127,1.771-1.32,2.375-2-.111.97-.832,1.836-1.113,2.8-.255.871-.115,1.986-.7,2.685a4.2,4.2,0,0,0,3.489-1.382c-.138,1.225.751,2.557.7,3.963-.075,2.284-.041,3.315-1.975,4.418a12.584,12.584,0,0,1-5.729,1.3c-1.309.067-4.374.486-5.478-.394Z" transform="translate(-4.435 -4.01)" fill="#ef802a"/>
      <path id="Trazado_701732" data-name="Trazado 701732" d="M370.365,1376.758c-.628.511-.806,2.03-1.467,2.718a11,11,0,0,1-2.91,1.968c-1.726.87-4.389,1-6-.357-1.074-.907-1.024-2.649-1.287-3.828a5.083,5.083,0,0,1,2.12-5.252c-.443,1.215.108,2.037.872,3.139-.566-1.145,1.316-2.716,1.95-3.7a13.671,13.671,0,0,0,1.283-1.938c.254-.618.1-1.331.732-1.764-.774,3.122,3.361,6.247,1.031,9.085a17.535,17.535,0,0,0,1.931-3.918c.8,1.148,1.167,3.758-.094,4.844.661-.237,1.217-.693,1.848-.987.049-.053.046-.056-.012-.01" transform="translate(-5.92 -6.387)" fill="#de5525"/>
      <path id="Trazado_701733" data-name="Trazado 701733" d="M367.515,1380.909c.52-1.368,1.5-2.272,2.229-2.084l0-.008,85.627,33.018-1.955,5.135-85.627-33.019,0-.009c-.665-.348-.8-1.67-.28-3.034" transform="translate(-7.776 -8.769)" fill="#925f36"/>
      <path id="Trazado_701734" data-name="Trazado 701734" d="M367.716,1380.692c.536-1.245,1.449-2.045,2.139-1.866l0-.008,85.626,33.018-.9,2.35Z" transform="translate(-7.887 -8.769)" fill="#b17f49"/>
      <path id="Trazado_701735" data-name="Trazado 701735" d="M476.568,1422.963c-.538,1.418-.376,2.8.361,3.074s1.771-.643,2.31-2.062.375-2.794-.362-3.074-1.77.643-2.308,2.062" transform="translate(-31.274 -17.83)" fill="#ceb679"/>
      <path id="Trazado_701736" data-name="Trazado 701736" d="M477.642,1423.54c-.162.428-.113.843.11.927s.533-.194.7-.621.113-.843-.109-.927S477.8,1423.113,477.642,1423.54Zm-.513-.195c-.369.974-.258,1.92.247,2.112s1.216-.443,1.585-1.417.257-1.92-.248-2.111S477.5,1422.372,477.129,1423.346Z" transform="translate(-31.417 -18.055)" fill="none" stroke="#6c5953" stroke-miterlimit="10" stroke-width="0.422"/>
      <path id="Trazado_701737" data-name="Trazado 701737" d="M359.565,1384.6c.519-1.368,1.5-2.272,2.229-2.084l0-.008,85.627,33.018-1.955,5.135-85.626-33.019,0-.009c-.665-.348-.8-1.67-.28-3.034" transform="translate(-6.063 -9.564)" fill="#925f36"/>
      <path id="Trazado_701738" data-name="Trazado 701738" d="M359.765,1384.382c.536-1.245,1.449-2.044,2.139-1.866l0-.008,85.626,33.018-.894,2.351Z" transform="translate(-6.174 -9.564)" fill="#b17f49"/>
      <path id="Trazado_701739" data-name="Trazado 701739" d="M468.617,1426.652c-.538,1.417-.376,2.8.361,3.074s1.771-.643,2.31-2.062.375-2.794-.362-3.074-1.771.643-2.309,2.062" transform="translate(-29.561 -18.625)" fill="#ceb679"/>
      <path id="Trazado_701740" data-name="Trazado 701740" d="M469.692,1427.229c-.162.428-.114.843.109.927s.533-.194.7-.621.113-.843-.109-.927S469.854,1426.8,469.692,1427.229Zm-.514-.195c-.369.974-.258,1.92.248,2.111s1.215-.442,1.584-1.416.258-1.92-.248-2.111S469.547,1426.061,469.178,1427.035Z" transform="translate(-29.704 -18.85)" fill="none" stroke="#6c5953" stroke-miterlimit="10" stroke-width="0.422"/>
      <path id="Trazado_701741" data-name="Trazado 701741" d="M333.95,1379.751c1.556-4.1,4.488-6.8,6.675-6.242l.01-.024,89.067,35.048-5.857,15.381-89.067-35.05.011-.025c-1.994-1.044-2.388-5-.839-9.088" transform="translate(-0.407 -7.613)" fill="#6c5953"/>
      <path id="Trazado_701742" data-name="Trazado 701742" d="M334.551,1379.1c1.605-3.729,4.34-6.125,6.409-5.591l.01-.024,89.067,35.049-2.681,7.039Z" transform="translate(-0.741 -7.613)" fill="#7e6c69"/>
      <path id="Trazado_701743" data-name="Trazado 701743" d="M447.2,1424.324c-1.611,4.247-1.125,8.372,1.081,9.207s5.306-1.927,6.917-6.176,1.125-8.37-1.083-9.207-5.3,1.928-6.915,6.177" transform="translate(-24.81 -17.216)" fill="#ceb679"/>
      <path id="Trazado_701744" data-name="Trazado 701744" d="M450.422,1426.055c-.485,1.281-.339,2.526.327,2.777s1.6-.581,2.082-1.862.339-2.526-.326-2.777S450.908,1424.773,450.422,1426.055Zm-1.538-.584c-1.1,2.918-.774,5.751.741,6.325s3.643-1.323,4.746-4.242.772-5.751-.744-6.325S449.989,1422.555,448.884,1425.472Z" transform="translate(-25.237 -17.89)" fill="none" stroke="#6c5953" stroke-miterlimit="10" stroke-width="1.265"/>
      <path id="Trazado_701745" data-name="Trazado 701745" d="M407.723,1351.07a8.245,8.245,0,0,1-3.282.3,1.191,1.191,0,0,1-.649-.122.117.117,0,0,1-.059-.057.162.162,0,0,1,.05-.151c.142-.175.321-.314.462-.492.022-.031.041-.065.06-.1a5.83,5.83,0,0,0,2.605-.046c.009,0,.02,0,.029,0,.591-.1,1.094-.806.6-1.341a2.453,2.453,0,0,0-1.563-.593,7.175,7.175,0,0,0-1.166-.017c.027-.384.027-.8-.108-.81.666.034,1.335.069,2,.147a4.482,4.482,0,0,1,1.581.4,1.289,1.289,0,0,1,.647.73,1.466,1.466,0,0,1-.035.853,2.025,2.025,0,0,1-.63.952,2.519,2.519,0,0,1-.537.336" transform="translate(-15.647 -2.057)" fill="#e7e8e9"/>
      <path id="Trazado_701746" data-name="Trazado 701746" d="M361.671,1348.767c-.56-.032-1.119-.071-1.679-.082a4.158,4.158,0,0,1-1.934-.417c-.4-.211-.974-.616-1-1.135a1.045,1.045,0,0,1,.263-.688,3.306,3.306,0,0,1,1.732-1.08,4.756,4.756,0,0,1,2.469-.035c-.048.138-.1.28-.134.427-.012.042-.019.079-.027.12-.123,0-.286,0-.478,0a3.967,3.967,0,0,0-1.836.166c-.431.171-1.016.526-.983,1.1a.882.882,0,0,0,.858.769,22.151,22.151,0,0,0,2.727.087s0,.006.005.013a.539.539,0,0,0,.046.064c.136.2.274.4.421.594a.427.427,0,0,1-.107.074.807.807,0,0,1-.343.021" transform="translate(-5.591 -1.526)" fill="#e7e8e9"/>
      <path id="Trazado_701747" data-name="Trazado 701747" d="M379.819,1339.761c9.373.5,15.444,4.053,15.276,7.017-.166,2.927-6.437,5.731-15.574,5.293-9.207-.441-15.465-3.886-15.49-6.866-.028-3.015,6.334-5.947,15.788-5.444" transform="translate(-7.093 -0.345)" fill="#e7e8e9"/>
      <path id="Trazado_701748" data-name="Trazado 701748" d="M364.606,1350.965c2.713,2.535,8.3,4.4,14.862,4.718a32.035,32.035,0,0,0,9.807-.912,18.8,18.8,0,0,0,2.354-.8c.345-.143.686-.3,1.021-.475.305-.161.561-.421.914-.431.12,0,1.239.089,1.28.083l-1.013,17.821c-.041.7-.077,1.433-.112,2.143,0,.082-.007.166-.011.251a7.643,7.643,0,0,1-.172,1.878,2.467,2.467,0,0,1-.4.785,5.542,5.542,0,0,1-1.76,1.452,18.3,18.3,0,0,1-6.8,1.973,35.458,35.458,0,0,1-5.686.224,31.626,31.626,0,0,1-9-1.52,10.673,10.673,0,0,1-5.029-2.973c-.973-1.234-.733-2.731-.763-4.16-.046-2.136-.043-4.291-.064-6.468l-.128-13.5c.216-.019.411-.042.577-.063a.459.459,0,0,0,.122-.026" transform="translate(-7.067 -2.771)" fill="#a7a9ab"/>
      <path id="Trazado_701749" data-name="Trazado 701749" d="M391.976,1368.2l1.013-17.821c-.042.007-1.161-.087-1.28-.084-.353.01-.61.271-.915.432-.335.173-.675.332-1.021.474a18.544,18.544,0,0,1-2.354.8,32,32,0,0,1-9.807.912c-6.566-.312-12.148-2.181-14.862-4.717a.412.412,0,0,1-.122.027c-.166.021-.36.045-.577.064l.129,13.5c.02,2.178.018,4.331.064,6.467.03,1.429-.21,2.927.763,4.16a10.674,10.674,0,0,0,5.029,2.974,31.621,31.621,0,0,0,9,1.519,35.465,35.465,0,0,0,5.686-.224,18.3,18.3,0,0,0,6.8-1.971,5.558,5.558,0,0,0,1.76-1.453,2.477,2.477,0,0,0,.4-.785,7.633,7.633,0,0,0,.171-1.877c0-.087.006-.169.011-.253.035-.708.072-1.443.113-2.142m1.237-21.766c.168-2.963-5.9-6.514-15.276-7.017-9.453-.5-15.815,2.43-15.788,5.444.026,2.981,6.284,6.425,15.49,6.867,9.137.437,15.408-2.367,15.574-5.294m.574-2.092c1.972.132,6.684.113,5.739,3.616-.642,2.383-3.2,2.576-5.427,2.484l-1.258,21.25a3.939,3.939,0,0,1-1.038,2.564,11.47,11.47,0,0,1-5.678,2.857,32.221,32.221,0,0,1-9.116.848c-.983-.034-1.97-.107-2.953-.219a26.859,26.859,0,0,1-8.3-2.135,12,12,0,0,1-2.742-1.659c-1.844-1.557-1.83-3.741-1.873-5.946-.031-1.539-.037-3.087-.055-4.646l-.148-12.188c-.009-.929-.02-1.866-.032-2.8-2.3.094-5.478-.217-5.608-2.818-.065-1.339,1.354-2.235,2.355-2.671a5.913,5.913,0,0,1,3.9-.22.415.415,0,0,1,.116.044c1.342-2.093,4.031-3.051,6.268-3.65a32.3,32.3,0,0,1,10.024-.886c7.765.418,13.986,2.984,15.821,6.176m-32.518,2.134a22.114,22.114,0,0,1-2.726-.088.881.881,0,0,1-.858-.768c-.034-.577.552-.932.983-1.1a3.962,3.962,0,0,1,1.836-.167c.192,0,.354.008.477,0,.009-.041.016-.078.028-.119.036-.147.086-.29.134-.428a4.754,4.754,0,0,0-2.469.035,3.3,3.3,0,0,0-1.732,1.079,1.044,1.044,0,0,0-.264.687c.027.519.6.925,1,1.135a4.141,4.141,0,0,0,1.935.417c.56.01,1.118.05,1.678.082a.8.8,0,0,0,.344-.02.413.413,0,0,0,.106-.073c-.147-.192-.285-.394-.42-.595a.6.6,0,0,1-.045-.064c0-.007,0-.01-.006-.013m-.37-1.564c0,.023-.792-.04-.843-.04a6.189,6.189,0,0,0-.871.016c-.408.094-.736.271-.819.584.007.017.01.034.016.048a.663.663,0,0,0,.089.126,3.181,3.181,0,0,0,.979.192c.391-.024,1.014-.058,1.344-.048a.149.149,0,0,1,.111-.035.523.523,0,0,1,.092.007c-.019-.065-.039-.135-.056-.2a2.16,2.16,0,0,1-.042-.646m35.576,3.444a5.852,5.852,0,0,1-2.605.045c-.02.031-.038.065-.06.1-.141.177-.32.316-.462.491a.162.162,0,0,0-.05.15.119.119,0,0,0,.059.057,1.184,1.184,0,0,0,.649.122,8.228,8.228,0,0,0,3.282-.3,2.5,2.5,0,0,0,.537-.337,2.026,2.026,0,0,0,.63-.951,1.473,1.473,0,0,0,.035-.853,1.29,1.29,0,0,0-.647-.73,4.465,4.465,0,0,0-1.582-.4c-.66-.078-1.328-.112-1.994-.147.135.007.135.427.108.81a7.259,7.259,0,0,1,1.166.017,2.45,2.45,0,0,1,1.562.594c.5.534-.007,1.242-.6,1.339-.009,0-.02,0-.029,0m-.044-1.281a1.168,1.168,0,0,0-.388-.048c-.121,0-1.726-.05-1.733,0a6.337,6.337,0,0,1-.191.9l1.716.042a1.224,1.224,0,0,0,.6-.086.5.5,0,0,0,.268-.536.432.432,0,0,0-.275-.272" transform="translate(-5.212)" fill="#221f1f"/>
      <path id="Trazado_701750" data-name="Trazado 701750" d="M371.94,1354.959q-.493-.158-.963-.329-.819,12.327-1,23.868c.311.123.62.237.923.343q.206-11.55,1.041-23.882" transform="translate(-8.374 -3.561)" fill="#faf9f9"/>
      <path id="Trazado_701751" data-name="Trazado 701751" d="M368.089,1377.584q.085-11.569.785-23.924a16.288,16.288,0,0,1-2.561-1.367q-.653,12.184-.7,23.6a8.562,8.562,0,0,0,2.478,1.687" transform="translate(-7.434 -3.057)" fill="#faf9f9"/>
      <g id="Grupo_963329" data-name="Grupo 963329" transform="translate(357.679 1339.394)">
        <g id="Grupo_963328" data-name="Grupo 963328" clip-path="url(#clip-path)">
          <path id="Trazado_701752" data-name="Trazado 701752" d="M396.444,1341.5q-.5-.159-.968-.331-.823,12.4-1.007,24c.312.124.624.239.928.345q.207-11.616,1.047-24.017" transform="translate(-371.331 -1340.055)" fill="#c8c7c7"/>
          <path id="Trazado_701753" data-name="Trazado 701753" d="M392.57,1364.881c.057-7.756.479-16.214.952-24.5a18.821,18.821,0,0,0-2.739-.935c-.348,5.525-.669,16.08-.706,23.738a8.626,8.626,0,0,0,2.492,1.7" transform="translate(-370.385 -1339.683)" fill="#c8c7c7"/>
        </g>
      </g>
      <path id="Trazado_701755" data-name="Trazado 701755" d="M350.853,1402.811c.07,4.436-8.462,4.637-11.277,4.62-2.224-.015-5.306.132-7.171-1.315-2.018-1.564-1.292-6.356-.386-8.526a18.306,18.306,0,0,1,1.778-3.237,9.28,9.28,0,0,1,2.281-2.423c3.877-2.579,7.181-.5,9.871,2.721a46.293,46.293,0,0,1,3.4,4.279,7.8,7.8,0,0,1,1.5,3.881" transform="translate(0 -11.349)" fill="#6a705e"/>
      <path id="Trazado_701756" data-name="Trazado 701756" d="M349.964,1398.93c-.516,3.017-2.382,4.129-5.882,4.469-2.576.249-5.876.727-8.009-1.117s-2.554-5.138-1.661-7.928a9.269,9.269,0,0,1,2.281-2.423c3.877-2.579,7.181-.5,9.871,2.721a46.291,46.291,0,0,1,3.4,4.279" transform="translate(-0.616 -11.348)" fill="#81857a"/>
      <path id="Trazado_701757" data-name="Trazado 701757" d="M340.58,1393.351c-.252-.264-.779-.122-1.065.013a1.81,1.81,0,0,0-.872,1.158.622.622,0,0,0,.286.7,2.006,2.006,0,0,0,1.9.222c.624-.294.88-1.13,1.072-1.727a.741.741,0,0,0-.519-.912,2.468,2.468,0,0,0-1.917.3c-.484.347-1.092,1.138-.841,1.769.148.372.617.7,1.01.411a1.325,1.325,0,0,0,.477-.653.882.882,0,0,1,.217-.279c-.088.082.109-.059.111-.06-.1.055.143-.037.137-.036a1.877,1.877,0,0,1,.61.006l-.716-.939a6.719,6.719,0,0,1-.22.7c.027-.073-.083.147-.071.126a1.229,1.229,0,0,1-.079.121c.042-.054.038-.052-.015.007.106-.111-.093.041.053-.019-.076.019-.076.024,0,.015a.955.955,0,0,1-.135,0c.106,0-.138-.029-.132-.027a1.931,1.931,0,0,1-.312-.1q.144.352.286.7a1.488,1.488,0,0,1,.413-.787c.157-.166.581-.446.323-.715" transform="translate(-1.606 -11.773)" fill="#9a9d9a"/>
      <path id="Trazado_701758" data-name="Trazado 701758" d="M343.725,1396.355a1.282,1.282,0,0,0-.238.253.515.515,0,0,0-.046.444.358.358,0,0,0,.69,0c0-.01.008-.021.011-.031l.005-.014.011-.026c0-.034.009-.068.013-.1s0-.017-.009.064a.17.17,0,0,1,.009-.034c-.039.112-.034.075-.014.044s.053-.069-.019.022c.031-.038.064-.074.1-.112a.359.359,0,0,0-.508-.508" transform="translate(-2.65 -12.53)" fill="#9a9d9a"/>
      <path id="Trazado_701759" data-name="Trazado 701759" d="M382.97,1422.142c-3.95,2.2-9.341-.048-13.01-1.861-4.671-2.31-4.986-6.537-1.251-10.236a17.212,17.212,0,0,1,5.376-3.653,4.968,4.968,0,0,1,.886-.233c3.71-.582,5.3,2.758,7.392,5.058.141.155.282.313.422.471a15.4,15.4,0,0,1,2.781,4.165c.9,2.26.58,4.522-2.6,6.289" transform="translate(-7.551 -14.65)" fill="#6a705e"/>
      <path id="Trazado_701760" data-name="Trazado 701760" d="M386.792,1415.853a3.258,3.258,0,0,1-.248,1.28c-.791,1.943-1.706,1.458-3.653,1.356-3.64-.191-8.014.7-10.294-3-1.82-2.954-.1-7.238,2.715-9.1a4.96,4.96,0,0,1,.885-.233c3.711-.581,5.3,2.758,7.392,5.059.141.155.283.312.423.471a15.4,15.4,0,0,1,2.78,4.164" transform="translate(-8.777 -14.65)" fill="#81857a"/>
      <path id="Trazado_701761" data-name="Trazado 701761" d="M378.535,1409.135a.306.306,0,0,1-.066-.016l.147.113c-.008.18,0,.239.011.176a.2.2,0,0,0,.02-.128.75.75,0,0,0-.038-.186.653.653,0,0,0-.621-.468c-.588.044-.919.585-1.177,1.053a.672.672,0,0,0,.573,1c.075.006.068,0-.024-.008.053.008.105.02.158.031.107.024.212.056.317.084a1.963,1.963,0,0,0,.86.079,1.488,1.488,0,0,0,.994-1.719,1.1,1.1,0,0,0-1.012-.947,1.517,1.517,0,0,0-1.064.464,2.709,2.709,0,0,0-1,1.687.949.949,0,0,0,1.236.91,2.356,2.356,0,0,0,1.272-1,.824.824,0,0,0-.128-.989.842.842,0,0,0-.989-.128l-.135.057a1,1,0,0,0-.237.17c-.061.054-.123.108-.187.161-.187.156.088-.063-.016.013-.04.029-.082.056-.125.082-.071.043-.22.092.087-.028-.14.055.242-.014.145-.015a.8.8,0,0,1,.792.781c-.015-.136-.054.275-.017.125.056-.227-.1.2,0-.005.038-.076.081-.148.125-.22s.1-.155.16-.231c-.192.257.038-.038.1-.1a1.881,1.881,0,0,1,.192-.177c-.3.24.254-.078-.132.073.078-.031.2-.02-.113.006a.922.922,0,0,1-.3-.088.819.819,0,0,1-.2-.206c.093.136-.067-.219-.019-.035.014.061.009.046-.014-.048,0,.056.006.114.006.171-.006.1,0,.1.01,0a.671.671,0,0,1-.03.11q.214-.3.089-.173a.353.353,0,0,1,.176-.107c-.076.017-.055.016.062,0a1.066,1.066,0,0,1-.141.005c-.042,0-.258-.037-.072,0l-.216-.042a2.987,2.987,0,0,0-.6-.069l.573,1c.1-.213.2-.427.309-.634.017-.031.035-.06.054-.089-.052.063-.058.073-.018.031-.023.024-.24.116-.122.08a1.959,1.959,0,0,0,.237-.077.312.312,0,0,0,.111-.086c.021-.026.042-.053.061-.079-.032.046-.216.109-.117.1.244-.024.342-.41.062-.461" transform="translate(-9.803 -15.103)" fill="#9a9d9a"/>
      <path id="Trazado_701762" data-name="Trazado 701762" d="M381.319,1412.032l0,.024c.006-.048.013-.1.02-.144-.014.1-.035.195-.046.294.006-.049.013-.1.02-.147a.3.3,0,0,1-.013.051l.055-.131c-.016.036-.04.067-.057.1a1.406,1.406,0,0,0-.089.267.453.453,0,0,0,.552.552,1.056,1.056,0,0,0,.281-.1.923.923,0,0,0,.26-.266.683.683,0,0,0,.093-.5.587.587,0,0,0-.157-.379.536.536,0,0,0-.758,0,.588.588,0,0,0-.157.379" transform="translate(-10.791 -15.814)" fill="#9a9d9a"/>
      <path id="Trazado_701763" data-name="Trazado 701763" d="M421.221,1428.952a9.814,9.814,0,0,1-.214,1.385c-1,4.3-4.76,5.423-9.064,5.4-2.3-.015-5.485.136-7.415-1.359-1.192-.925-1.458-2.939-1.291-4.914a13.806,13.806,0,0,1,.893-3.9,18.983,18.983,0,0,1,1.838-3.346,9.606,9.606,0,0,1,2.358-2.5c4.008-2.667,7.423-.512,10.2,2.813a20.2,20.2,0,0,1,2.07,2.679,5.963,5.963,0,0,1,.621,3.751" transform="translate(-15.532 -17.326)" fill="#6a705e"/>
      <path id="Trazado_701764" data-name="Trazado 701764" d="M420.612,1425.2a10.1,10.1,0,0,1-4.768,5.635,11.933,11.933,0,0,1-9.484.742,6.094,6.094,0,0,1-3.112-2.118,13.8,13.8,0,0,1,.894-3.9,18.9,18.9,0,0,1,1.837-3.346,9.593,9.593,0,0,1,2.358-2.5c4.008-2.667,7.423-.512,10.2,2.813a20.151,20.151,0,0,1,2.07,2.679" transform="translate(-15.544 -17.326)" fill="#81857a"/>
      <path id="Trazado_701765" data-name="Trazado 701765" d="M411.953,1421.484c-.486-.534-1.3-.14-1.66.349a1.224,1.224,0,0,0,.2,1.511,1.457,1.457,0,0,0,1.633.243,2.273,2.273,0,0,0,1.072-1.744.823.823,0,0,0-.568-1,2.241,2.241,0,0,0-1.943.351c-.428.337-.949,1.134-.742,1.688a.777.777,0,0,0,.939.533,1.1,1.1,0,0,0,.672-.6c.035-.066.071-.131.109-.195.024-.041.049-.08.076-.118-.064.079-.067.083-.005.013.031-.035.191-.15.028-.037.082-.044.076-.046-.02-.006a1.125,1.125,0,0,1,.14-.042c.231-.061-.159,0,.111-.014a2.5,2.5,0,0,1,.419.021l-.785-1.031a3.223,3.223,0,0,1-.166.7c.058-.155-.054.076-.074.107.106-.164-.014,0-.056.042.191-.17-.151.035.111-.065-.191.072.129,0,.006.006s.207.052.013,0c-.064-.016.151.093-.023-.022.2.133.06.039.011,0-.139-.115.059.105,0,.011s.048.177.006,0c.016.063,0,.178.009.135s-.014.016-.038.047c.118-.145-.025.046.156-.141a1.4,1.4,0,0,0,.424-.552.2.2,0,0,0-.052-.2" transform="translate(-16.977 -17.813)" fill="#9a9d9a"/>
      <path id="Trazado_701766" data-name="Trazado 701766" d="M408.478,1425.361l-.05.016c.085-.027-.044.008-.075.014h.173a.51.51,0,0,0-.519.138,1.067,1.067,0,0,0-.1.13c.05-.057.062-.073.035-.048a.531.531,0,0,0-.136.233.78.78,0,0,0,.453.843.572.572,0,0,0,.684-.088,1.691,1.691,0,0,0,.417-.64.591.591,0,0,0-.151-.594.558.558,0,0,0-.857.115.533.533,0,0,0,.316.776l.007,0-.235-.137,0,0-.137-.238v0l.054-.417c.086-.1.11-.129.071-.093a.436.436,0,0,0-.106.141c-.018.037-.042.071-.064.106s-.054.091-.084.135-.024.036.03-.035c-.02.025-.04.049-.062.072l.684-.089a1.175,1.175,0,0,1-.111-.061c-.035-.022-.122-.1.013.013l.053.073a.523.523,0,0,0-.093-.126.576.576,0,0,0-.242-.14l.225.131-.02-.023c.046.114.093.227.14.34-.012-.115-.026.091-.008.012a.442.442,0,0,0-.115-.435l-.013-.009.087.33a.629.629,0,0,0,.021-.133c0,.066.005,0,.012-.021a.247.247,0,0,0-.3-.3" transform="translate(-16.521 -18.77)" fill="#9a9d9a"/>
      <path id="Trazado_701767" data-name="Trazado 701767" d="M390.909,1426.416c-2.5-1.815-2.057-3.471-.57-4.454,1.988-1.318,5.84-1.436,7.007.854a4.011,4.011,0,0,1,.349.942c.726,3.268-4.423,4.374-6.786,2.657" transform="translate(-12.501 -17.867)" fill="#6a705e"/>
      <path id="Trazado_701768" data-name="Trazado 701768" d="M397.982,1423.759c-.386,1.964-3.822,1.512-5.292.89-1.13-.477-2.519-.835-2.175-2.331a2.516,2.516,0,0,1,.111-.356c1.988-1.318,5.839-1.436,7.007.854a3.978,3.978,0,0,1,.35.942" transform="translate(-12.789 -17.867)" fill="#81857a"/>
      <path id="Trazado_701769" data-name="Trazado 701769" d="M395.583,1422.727a.846.846,0,0,0,.4.533,1.959,1.959,0,0,0,.293.111.878.878,0,0,0,.439,0c.079-.033.158-.064.235-.1a.725.725,0,0,0,.364-.635.735.735,0,0,0-.364-.635,1.018,1.018,0,0,0-.533-.134c-.028,0-.056,0-.085,0a.871.871,0,0,0-.406.117l.169-.071a.379.379,0,0,1-.066.02.647.647,0,0,0-.451.795" transform="translate(-13.887 -18.049)" fill="#9a9d9a"/>
      <path id="Trazado_701770" data-name="Trazado 701770" d="M408.686,1394.192c-2.484.2-4.906.412-7.263-.726-1.053-.508-2.244-.614-3.259-1.182-1.392-.777-2.834-1.75-2.847-3.706-.009-1.549.432-2.922.223-4.5a9.861,9.861,0,0,0-.476-2.037,3.432,3.432,0,0,1-.384-1.164c.563.486,1.116,1.088,1.683,1.6s.971,2.094,1.671,2.213a8.143,8.143,0,0,1-.4-3.876,4.739,4.739,0,0,1,2.076-3.534,6.1,6.1,0,0,0,2.375-3.383c.185-.771.074-2.909.931-3.2.377,1.185-.382,3.561.547,4.43-.07-2.222,1.916-4.275,3.055-5.845.8-1.1.6-2.178,1-3.4.4.395.485,1.522.865,2.093a23.314,23.314,0,0,1,2.031,3.27,9.412,9.412,0,0,1,.86,4.692c-.063.634-.618,2.47-.217,2.965.357-.372.381-1.775.546-2.351.2-.686.88-1.89.65-2.57a5.272,5.272,0,0,1,.181,1.955,17.608,17.608,0,0,0,.328,2.219,4.657,4.657,0,0,1-.5,2.837c-.249.565-.959,1.34-.977,1.966.819.132,1.7-.678,2.247-1.276.643-.7.775-2.011,1.391-2.6a12.686,12.686,0,0,1,.229,3.742c0,2.424,1.556,4.326.517,6.722-1.194,2.754-4.509,4.438-7.08,4.647" transform="translate(-13.697 -5.984)" fill="#f5a12f"/>
      <path id="Trazado_701771" data-name="Trazado 701771" d="M401.684,1393.2c-1.617.2-3.6-1.819-4.233-3.281a6.287,6.287,0,0,1-.652-2.4c-.024-.635.244-1.148-.119-1.677a9.366,9.366,0,0,0,3.305,3.38c.036.051.033.054-.009.01-.507-1.963-1.667-4.75-.821-6.775.927-2.219,3.256-2.9,4.4-4.79.673.49.559,1.523.854,2.283.663-3.227,2.288-5.966,3.9-8.676.469,1.593.834,3.365,1.194,5.023a14.722,14.722,0,0,1,.431,3.846c-.056.778-.508,1.406-.417,2.176.889.121,1.692-1.261,2.268-1.913a17.959,17.959,0,0,1-1.063,2.675c-.243.831-.11,1.9-.668,2.564a4,4,0,0,0,3.333-1.32c-.132,1.17.717,2.444.673,3.786-.072,2.182-.038,3.168-1.887,4.221a12.038,12.038,0,0,1-5.474,1.243c-1.25.063-4.177.464-5.232-.376Z" transform="translate(-14.129 -7.147)" fill="#ef802a"/>
      <path id="Trazado_701772" data-name="Trazado 701772" d="M414.515,1390.423c-.6.488-.77,1.939-1.4,2.6a10.493,10.493,0,0,1-2.78,1.88c-1.649.832-4.194.956-5.729-.34-1.027-.867-.979-2.532-1.23-3.657a4.857,4.857,0,0,1,2.025-5.018c-.424,1.162.1,1.946.833,3-.541-1.094,1.257-2.6,1.863-3.535a13.045,13.045,0,0,0,1.225-1.851c.243-.591.1-1.272.7-1.684-.74,2.981,3.211,5.968.985,8.679a16.717,16.717,0,0,0,1.845-3.743c.766,1.1,1.114,3.59-.09,4.628.631-.228,1.163-.662,1.765-.944.048-.051.044-.054-.011-.01" transform="translate(-15.547 -9.418)" fill="#de5525"/>
      <path id="Trazado_701773" data-name="Trazado 701773" d="M466.547,1373.037a8.229,8.229,0,0,1-3.282.3,1.193,1.193,0,0,1-.649-.122.118.118,0,0,1-.059-.057.162.162,0,0,1,.05-.151c.142-.174.321-.313.462-.492.023-.031.041-.065.06-.1a5.829,5.829,0,0,0,2.605-.046c.01,0,.02,0,.029,0,.591-.1,1.094-.806.6-1.34a2.452,2.452,0,0,0-1.563-.594,7.176,7.176,0,0,0-1.166-.017c.027-.384.027-.8-.108-.81.666.035,1.334.069,2,.147a4.469,4.469,0,0,1,1.581.4,1.286,1.286,0,0,1,.647.73,1.469,1.469,0,0,1-.035.854,2.022,2.022,0,0,1-.63.952,2.509,2.509,0,0,1-.537.336" transform="translate(-28.322 -6.79)" fill="#e7e8e9"/>
      <path id="Trazado_701774" data-name="Trazado 701774" d="M420.494,1370.733c-.56-.032-1.119-.071-1.679-.082a4.155,4.155,0,0,1-1.934-.417c-.4-.211-.974-.617-1-1.135a1.046,1.046,0,0,1,.263-.688,3.307,3.307,0,0,1,1.733-1.08,4.752,4.752,0,0,1,2.469-.034c-.048.138-.1.28-.135.427-.012.042-.019.079-.027.12-.123,0-.286,0-.477,0a3.972,3.972,0,0,0-1.837.166c-.431.171-1.016.526-.983,1.1a.883.883,0,0,0,.858.769,22.108,22.108,0,0,0,2.727.087s0,.006.005.013a.487.487,0,0,0,.046.064c.135.2.273.4.42.595a.438.438,0,0,1-.107.074.812.812,0,0,1-.343.02" transform="translate(-18.266 -6.259)" fill="#e7e8e9"/>
      <path id="Trazado_701775" data-name="Trazado 701775" d="M438.643,1361.728c9.373.5,15.444,4.053,15.276,7.017-.166,2.927-6.437,5.731-15.574,5.293-9.207-.441-15.465-3.886-15.49-6.866-.028-3.015,6.334-5.947,15.788-5.444" transform="translate(-19.769 -5.078)" fill="#e7e8e9"/>
      <path id="Trazado_701776" data-name="Trazado 701776" d="M423.43,1372.932c2.713,2.535,8.3,4.4,14.862,4.717a32.023,32.023,0,0,0,9.807-.912,18.75,18.75,0,0,0,2.353-.8c.346-.143.686-.3,1.021-.474.3-.162.561-.422.915-.432.119,0,1.238.089,1.28.083l-1.013,17.821c-.041.7-.077,1.432-.113,2.142,0,.082-.006.166-.01.251a7.643,7.643,0,0,1-.172,1.878,2.46,2.46,0,0,1-.4.784,5.54,5.54,0,0,1-1.76,1.452,18.307,18.307,0,0,1-6.8,1.973,35.458,35.458,0,0,1-5.686.224,31.622,31.622,0,0,1-9-1.52,10.678,10.678,0,0,1-5.03-2.973c-.972-1.234-.732-2.731-.763-4.16-.046-2.136-.043-4.291-.064-6.468l-.128-13.5c.216-.019.411-.042.577-.064a.472.472,0,0,0,.122-.026" transform="translate(-19.742 -7.505)" fill="#a7a9ab"/>
      <path id="Trazado_701777" data-name="Trazado 701777" d="M450.8,1390.165l1.013-17.821c-.042.007-1.16-.087-1.28-.083-.353.009-.61.271-.914.432-.336.173-.676.332-1.021.475a18.717,18.717,0,0,1-2.353.8,32.008,32.008,0,0,1-9.808.912c-6.566-.312-12.148-2.182-14.861-4.717a.45.45,0,0,1-.122.026c-.166.022-.361.045-.577.064l.129,13.5c.02,2.178.018,4.331.064,6.468.031,1.429-.209,2.926.763,4.16a10.664,10.664,0,0,0,5.029,2.973,31.6,31.6,0,0,0,9,1.52,35.459,35.459,0,0,0,5.685-.224,18.3,18.3,0,0,0,6.8-1.972,5.562,5.562,0,0,0,1.761-1.452,2.489,2.489,0,0,0,.4-.785,7.641,7.641,0,0,0,.171-1.877c0-.086.006-.169.011-.252.036-.709.072-1.443.113-2.142m1.237-21.765c.168-2.964-5.9-6.514-15.276-7.017-9.453-.5-15.815,2.429-15.788,5.444.026,2.98,6.284,6.425,15.49,6.866,9.137.438,15.408-2.365,15.574-5.293m.574-2.092c1.972.132,6.685.114,5.739,3.617-.642,2.382-3.2,2.576-5.427,2.484l-1.258,21.25a3.932,3.932,0,0,1-1.038,2.565,11.47,11.47,0,0,1-5.677,2.857,32.166,32.166,0,0,1-9.117.847c-.983-.034-1.97-.105-2.953-.217a26.912,26.912,0,0,1-8.3-2.135,12.06,12.06,0,0,1-2.742-1.659c-1.844-1.557-1.83-3.742-1.873-5.947-.031-1.539-.037-3.087-.055-4.646l-.148-12.188c-.01-.929-.02-1.865-.033-2.8-2.3.093-5.478-.217-5.608-2.819-.065-1.339,1.354-2.234,2.355-2.67a5.9,5.9,0,0,1,3.9-.22.418.418,0,0,1,.116.044c1.341-2.094,4.031-3.052,6.268-3.65a32.273,32.273,0,0,1,10.024-.886c7.765.418,13.986,2.984,15.821,6.176m-32.518,2.134a22.1,22.1,0,0,1-2.726-.087.881.881,0,0,1-.858-.769c-.033-.577.552-.931.983-1.1a3.97,3.97,0,0,1,1.836-.166c.192,0,.354.007.477,0,.009-.041.016-.078.028-.12.036-.147.086-.289.134-.427a4.752,4.752,0,0,0-2.469.034,3.3,3.3,0,0,0-1.732,1.08,1.047,1.047,0,0,0-.264.688c.027.519.6.924,1,1.135a4.158,4.158,0,0,0,1.935.417c.56.01,1.119.049,1.678.082a.816.816,0,0,0,.344-.02.42.42,0,0,0,.106-.074c-.147-.192-.285-.393-.42-.595a.473.473,0,0,1-.046-.064c0-.007,0-.01-.006-.013m-.37-1.563c0,.022-.792-.04-.843-.04a6.33,6.33,0,0,0-.87.015c-.408.095-.737.272-.82.584.007.017.01.035.016.048a.667.667,0,0,0,.089.127,3.207,3.207,0,0,0,.979.192c.391-.024,1.014-.059,1.344-.049a.153.153,0,0,1,.111-.034.714.714,0,0,1,.092.007c-.019-.065-.039-.134-.056-.2a2.161,2.161,0,0,1-.042-.646m35.576,3.443a5.853,5.853,0,0,1-2.605.046c-.02.031-.038.065-.06.1-.141.178-.32.317-.462.492a.161.161,0,0,0-.05.15.124.124,0,0,0,.059.057,1.2,1.2,0,0,0,.649.122,8.23,8.23,0,0,0,3.282-.3,2.447,2.447,0,0,0,.537-.336,2.022,2.022,0,0,0,.63-.952,1.471,1.471,0,0,0,.035-.853,1.289,1.289,0,0,0-.647-.73,4.466,4.466,0,0,0-1.582-.4c-.66-.078-1.328-.112-1.994-.147.136.008.136.427.108.81a7.176,7.176,0,0,1,1.166.017,2.452,2.452,0,0,1,1.563.593c.5.534-.008,1.242-.6,1.34-.009,0-.02,0-.029,0m-.044-1.28a1.168,1.168,0,0,0-.388-.049c-.121,0-1.726-.049-1.733,0a6.29,6.29,0,0,1-.191.9c.573.013,1.145.03,1.716.043a1.222,1.222,0,0,0,.6-.085.5.5,0,0,0,.268-.537.429.429,0,0,0-.275-.272" transform="translate(-17.887 -4.733)" fill="#221f1f"/>
      <path id="Trazado_701778" data-name="Trazado 701778" d="M430.764,1376.926q-.493-.157-.963-.329-.819,12.327-1,23.867c.311.124.621.238.923.344q.206-11.55,1.041-23.882" transform="translate(-21.05 -8.294)" fill="#faf9f9"/>
      <path id="Trazado_701779" data-name="Trazado 701779" d="M426.913,1399.551q.085-11.569.785-23.924a16.321,16.321,0,0,1-2.561-1.367q-.652,12.185-.7,23.6a8.559,8.559,0,0,0,2.478,1.687" transform="translate(-20.109 -7.791)" fill="#faf9f9"/>
      <g id="Grupo_963331" data-name="Grupo 963331" transform="translate(403.827 1356.627)">
        <g id="Grupo_963330" data-name="Grupo 963330" clip-path="url(#clip-path-2)">
          <path id="Trazado_701780" data-name="Trazado 701780" d="M456.751,1364.023q-.5-.159-.968-.331-.824,12.4-1.007,24c.312.124.624.239.928.345q.206-11.616,1.047-24.017" transform="translate(-430.475 -1362.14)" fill="#c8c7c7"/>
          <path id="Trazado_701781" data-name="Trazado 701781" d="M452.877,1387.4c.057-7.757.479-16.214.952-24.5a18.819,18.819,0,0,0-2.74-.935c-.348,5.525-.668,16.08-.705,23.738a8.613,8.613,0,0,0,2.492,1.7" transform="translate(-429.528 -1361.769)" fill="#c8c7c7"/>
        </g>
      </g>
      <path id="Trazado_701783" data-name="Trazado 701783" d="M453.236,1410.649a15.118,15.118,0,0,1-5.613-.379c-.814-.266-1.735-.321-2.519-.617-1.076-.406-2.19-.913-2.2-1.935a11.939,11.939,0,0,0,.173-2.351,3.845,3.845,0,0,0-.368-1.064c-.1-.193-.31-.4-.3-.608.436.254.864.568,1.3.834s.751,1.094,1.292,1.156a2.975,2.975,0,0,1-.313-2.023c.1-.878.726-1.353,1.6-1.844a3.542,3.542,0,0,0,1.836-1.766c.144-.4.057-1.518.719-1.669.291.618-.3,1.859.423,2.312-.054-1.16,1.481-2.231,2.361-3.05.618-.576.461-1.137.777-1.775.306.206.374.795.668,1.092a12.633,12.633,0,0,1,1.569,1.707,3.565,3.565,0,0,1,.664,2.449c-.049.33-.477,1.289-.168,1.547.276-.194.3-.926.422-1.227.152-.358.68-.986.5-1.341.211.284.115.7.14,1.02a6.5,6.5,0,0,0,.253,1.159,1.771,1.771,0,0,1-.387,1.481c-.192.294-.741.7-.755,1.025a2.76,2.76,0,0,0,1.737-.666c.5-.364.6-1.049,1.075-1.355a4.529,4.529,0,0,1,.177,1.953c0,1.265,1.2,2.259.4,3.509-.923,1.437-3.485,2.317-5.472,2.426" transform="translate(-23.982 -12.447)" fill="#f5a12f"/>
      <path id="Trazado_701784" data-name="Trazado 701784" d="M447.825,1410.128a4.246,4.246,0,0,1-3.271-1.713,2.5,2.5,0,0,1-.5-1.25c-.02-.332.188-.6-.093-.875a6.547,6.547,0,0,0,2.554,1.764c.028.027.025.028-.007,0-.391-1.025-1.288-2.479-.634-3.536.716-1.159,2.516-1.513,3.4-2.5.52.256.432.8.659,1.192a13.086,13.086,0,0,1,3.018-4.527c.362.832.644,1.756.923,2.621a5.335,5.335,0,0,1,.333,2.008c-.043.406-.392.734-.322,1.136.687.063,1.307-.658,1.753-1-.082.484-.614.916-.821,1.4-.188.435-.085.99-.516,1.338a3.98,3.98,0,0,0,2.576-.689c-.1.611.554,1.276.52,1.976-.055,1.139-.03,1.653-1.458,2.2a13.146,13.146,0,0,1-4.231.649c-.966.033-3.228.242-4.043-.2Z" transform="translate(-24.316 -13.054)" fill="#ef802a"/>
      <path id="Trazado_701785" data-name="Trazado 701785" d="M457.742,1408.682c-.464.254-.6,1.012-1.083,1.356a9.056,9.056,0,0,1-2.149.981,6.087,6.087,0,0,1-4.428-.178c-.793-.452-.756-1.321-.951-1.909-.317-.959.22-1.932,1.566-2.619-.327.606.079,1.016.643,1.565-.417-.57.971-1.354,1.44-1.845a7.343,7.343,0,0,0,.947-.966c.188-.308.077-.664.541-.879-.572,1.556,2.481,3.115.761,4.53a8.079,8.079,0,0,0,1.425-1.953,1.564,1.564,0,0,1-.069,2.416c.487-.119.9-.345,1.364-.493.037-.027.034-.028-.009,0" transform="translate(-25.412 -14.239)" fill="#de5525"/>
    </g>
  </g>
</svg>
