<svg id="Grupo_963441" data-name="Grupo 963441" xmlns="http://www.w3.org/2000/svg" width="1064.658" height="810" viewBox="0 0 1064.658 810">
  <g id="Grupo_963426" data-name="Grupo 963426">
    <rect id="Rectángulo_335385" data-name="Rectángulo 335385" width="299" height="100" rx="31" transform="translate(418.991)" fill="#ffb338"/>
    <path id="Trazado_702393" data-name="Trazado 702393" d="M17.376,11.258a6.181,6.181,0,0,1-.715,3.012,4.926,4.926,0,0,1-2.043,2.02A6.39,6.39,0,0,1,11.556,17H6.814V5.8h4.641Q17.376,5.8,17.376,11.258Zm-3.586.031a3.224,3.224,0,0,0-.332-1.477A2.4,2.4,0,0,0,12.509,8.8a2.837,2.837,0,0,0-1.453-.359h-.867v5.922h.945a2.432,2.432,0,0,0,1.934-.832A3.3,3.3,0,0,0,13.791,11.289Zm8.383-4.445a1.429,1.429,0,0,1-.512,1.141,2,2,0,0,1-1.348.438,1.953,1.953,0,0,1-1.332-.453,1.433,1.433,0,0,1-.52-1.125,1.388,1.388,0,0,1,.5-1.113,2.346,2.346,0,0,1,2.7,0A1.379,1.379,0,0,1,22.173,6.844ZM18.65,17V9h3.328v8ZM29.6,11.852a3.2,3.2,0,0,0-1.039-.227q-1.648,0-1.648,1.906V17H23.58V9h3.328v1.406h.031a2.5,2.5,0,0,1,.867-1.152,2.228,2.228,0,0,1,1.313-.395,1.128,1.128,0,0,1,.477.094Zm3.828,2.094a1.124,1.124,0,0,0,.594.809,2.677,2.677,0,0,0,1.344.293,5.534,5.534,0,0,0,2.2-.445v2.109a7.918,7.918,0,0,1-2.937.484,4.635,4.635,0,0,1-3.258-1.07A3.8,3.8,0,0,1,30.2,13.18a4.859,4.859,0,0,1,.512-2.273,3.682,3.682,0,0,1,1.516-1.543A4.478,4.478,0,0,1,34.447,8.8a4.358,4.358,0,0,1,2.125.484,3.227,3.227,0,0,1,1.34,1.359,4.361,4.361,0,0,1,.457,2.047v1.25Zm2-1.742q0-1.383-.992-1.383a.84.84,0,0,0-.7.379,1.891,1.891,0,0,0-.328,1Zm10.688,4.57a3.137,3.137,0,0,1-1.008.3,9.528,9.528,0,0,1-1.586.117,4.878,4.878,0,0,1-2.262-.512,3.734,3.734,0,0,1-1.543-1.434,3.98,3.98,0,0,1-.547-2.07,4.534,4.534,0,0,1,.582-2.355,3.794,3.794,0,0,1,1.66-1.5,5.7,5.7,0,0,1,2.5-.52,8.746,8.746,0,0,1,1.4.1,2.143,2.143,0,0,1,.8.234v2.594a2.311,2.311,0,0,0-.719-.344,2.887,2.887,0,0,0-.867-.148,2.112,2.112,0,0,0-1.48.465,1.692,1.692,0,0,0-.5,1.309,1.66,1.66,0,0,0,.5,1.285,1.935,1.935,0,0,0,1.363.457,3.4,3.4,0,0,0,1.711-.445Zm7.922,0a3.137,3.137,0,0,1-1.008.3,9.528,9.528,0,0,1-1.586.117,4.878,4.878,0,0,1-2.262-.512,3.734,3.734,0,0,1-1.543-1.434,3.98,3.98,0,0,1-.547-2.07,4.534,4.534,0,0,1,.582-2.355,3.794,3.794,0,0,1,1.66-1.5,5.7,5.7,0,0,1,2.5-.52,8.746,8.746,0,0,1,1.4.1,2.143,2.143,0,0,1,.8.234v2.594a2.311,2.311,0,0,0-.719-.344,2.887,2.887,0,0,0-.867-.148,2.112,2.112,0,0,0-1.48.465,1.692,1.692,0,0,0-.5,1.309,1.66,1.66,0,0,0,.5,1.285,1.935,1.935,0,0,0,1.363.457,3.4,3.4,0,0,0,1.711-.445Zm4.852-9.93a1.429,1.429,0,0,1-.512,1.141,2,2,0,0,1-1.348.438,1.953,1.953,0,0,1-1.332-.453,1.433,1.433,0,0,1-.52-1.125,1.388,1.388,0,0,1,.5-1.113,2.346,2.346,0,0,1,2.7,0A1.379,1.379,0,0,1,58.884,6.844ZM55.361,17V9h3.328v8Zm13.828-4.141a4.166,4.166,0,0,1-1.223,3.18,5.649,5.649,0,0,1-6.812.027,4.041,4.041,0,0,1-1.215-3.113,4.171,4.171,0,0,1,.57-2.211A3.709,3.709,0,0,1,62.134,9.3a5.61,5.61,0,0,1,2.43-.5,5.434,5.434,0,0,1,2.465.523,3.81,3.81,0,0,1,1.6,1.453A3.957,3.957,0,0,1,69.189,12.859Zm-3.375.016q0-1.633-1.25-1.633t-1.25,1.711q0,1.8,1.266,1.8Q65.814,14.758,65.814,12.875Zm-.836-5.141H62.626l2.336-2.508h2.8ZM75.619,17V12.633a1.942,1.942,0,0,0-.223-1.066.814.814,0,0,0-.723-.324.782.782,0,0,0-.672.336,1.434,1.434,0,0,0-.242.859V17H70.431V9h3.328v1.25h.031a2.824,2.824,0,0,1,1.07-1.066A2.924,2.924,0,0,1,76.322,8.8q2.625,0,2.625,3.313V17Zm14.617,0v-.93H90.2a2.746,2.746,0,0,1-1.039.824,2.961,2.961,0,0,1-1.266.3,3.256,3.256,0,0,1-1.8-.5,3.06,3.06,0,0,1-1.168-1.41,5.427,5.427,0,0,1-.387-2.141A5.267,5.267,0,0,1,85,10.883a3.608,3.608,0,0,1,1.3-1.531A3.35,3.35,0,0,1,88.173,8.8a2.838,2.838,0,0,1,.91.141,2.462,2.462,0,0,1,.727.379A1.131,1.131,0,0,1,90.2,9.8h.031V5.156h3.328V17Zm.07-4.242a1.755,1.755,0,0,0-.316-1.117,1.068,1.068,0,0,0-1.734.1,2.3,2.3,0,0,0-.34,1.324q0,1.7,1.172,1.7a1.042,1.042,0,0,0,.887-.457,2.249,2.249,0,0,0,.332-1.332Zm7.727,1.188a1.124,1.124,0,0,0,.594.809,2.677,2.677,0,0,0,1.344.293,5.534,5.534,0,0,0,2.2-.445v2.109a7.918,7.918,0,0,1-2.937.484,4.635,4.635,0,0,1-3.258-1.07,3.8,3.8,0,0,1-1.164-2.945,4.859,4.859,0,0,1,.512-2.273,3.682,3.682,0,0,1,1.516-1.543A4.478,4.478,0,0,1,99.056,8.8a4.358,4.358,0,0,1,2.125.484,3.227,3.227,0,0,1,1.34,1.359,4.361,4.361,0,0,1,.457,2.047v1.25Zm2-1.742q0-1.383-.992-1.383a.84.84,0,0,0-.7.379,1.891,1.891,0,0,0-.328,1Zm15.039,2.141a2.444,2.444,0,0,1-1.035,2.105,4.866,4.866,0,0,1-2.887.746,10.037,10.037,0,0,1-1.332-.109,8.229,8.229,0,0,1-1.293-.266V14.484a6.366,6.366,0,0,0,2.469.656q.977,0,.977-.508a.4.4,0,0,0-.227-.348,8.008,8.008,0,0,0-1.187-.457,3.353,3.353,0,0,1-1.547-.891,2.118,2.118,0,0,1-.484-1.445,2.306,2.306,0,0,1,.988-1.965,4.637,4.637,0,0,1,2.777-.723,8.828,8.828,0,0,1,2.219.3v2.242A6.71,6.71,0,0,0,113.431,11a4.355,4.355,0,0,0-.984-.141,1.072,1.072,0,0,0-.523.109.336.336,0,0,0-.2.3.425.425,0,0,0,.211.367,3.731,3.731,0,0,0,.844.336,3.915,3.915,0,0,1,1.758.922A2.02,2.02,0,0,1,115.072,14.344ZM120.736,17V15.781H120.7a2.617,2.617,0,0,1-2.437,1.414,2.334,2.334,0,0,1-1.773-.672,2.5,2.5,0,0,1-.641-1.8q0-2.359,2.9-2.734l1.984-.258a.757.757,0,0,0-.352-.641,1.6,1.6,0,0,0-.945-.25,6.226,6.226,0,0,0-2.836.766V9.445a7.587,7.587,0,0,1,1.625-.461A9.457,9.457,0,0,1,119.9,8.8a4.2,4.2,0,0,1,2.957.871,3.883,3.883,0,0,1,.918,2.91V17Zm-1.969-2.719a.737.737,0,0,0,.207.539.789.789,0,0,0,.59.211,1.049,1.049,0,0,0,.848-.391,1.513,1.513,0,0,0,.324-1v-.3l-1.125.156Q118.767,13.633,118.767,14.281ZM125.275,17V5.156H128.6V17Zm8.453-10.156a1.429,1.429,0,0,1-.512,1.141,2,2,0,0,1-1.348.438,1.953,1.953,0,0,1-1.332-.453,1.433,1.433,0,0,1-.52-1.125,1.388,1.388,0,0,1,.5-1.113,2.346,2.346,0,0,1,2.7,0A1.379,1.379,0,0,1,133.728,6.844ZM130.2,17V9h3.328v8Zm10.273,0v-.93h-.031a2.746,2.746,0,0,1-1.039.824,2.961,2.961,0,0,1-1.266.3,3.256,3.256,0,0,1-1.8-.5,3.06,3.06,0,0,1-1.168-1.41,5.427,5.427,0,0,1-.387-2.141,5.267,5.267,0,0,1,.461-2.258,3.608,3.608,0,0,1,1.3-1.531,3.35,3.35,0,0,1,1.875-.547,2.838,2.838,0,0,1,.91.141,2.463,2.463,0,0,1,.727.379,1.131,1.131,0,0,1,.395.473h.031V5.156h3.328V17Zm.07-4.242a1.755,1.755,0,0,0-.316-1.117,1.068,1.068,0,0,0-1.734.1,2.3,2.3,0,0,0-.34,1.324q0,1.7,1.172,1.7a1.042,1.042,0,0,0,.887-.457,2.249,2.249,0,0,0,.332-1.332Zm9.3,4.242V15.781h-.031a2.617,2.617,0,0,1-2.437,1.414,2.334,2.334,0,0,1-1.773-.672,2.5,2.5,0,0,1-.641-1.8q0-2.359,2.9-2.734l1.984-.258a.757.757,0,0,0-.352-.641,1.6,1.6,0,0,0-.945-.25,6.226,6.226,0,0,0-2.836.766V9.445a7.587,7.587,0,0,1,1.625-.461,9.457,9.457,0,0,1,1.672-.18,4.2,4.2,0,0,1,2.957.871,3.883,3.883,0,0,1,.918,2.91V17Zm-1.969-2.719a.737.737,0,0,0,.207.539.789.789,0,0,0,.59.211,1.049,1.049,0,0,0,.848-.391,1.513,1.513,0,0,0,.324-1v-.3l-1.125.156Q147.876,13.633,147.876,14.281Zm13.008.063a2.444,2.444,0,0,1-1.035,2.105,4.866,4.866,0,0,1-2.887.746,10.037,10.037,0,0,1-1.332-.109,8.229,8.229,0,0,1-1.293-.266V14.484a6.366,6.366,0,0,0,2.469.656q.977,0,.977-.508a.4.4,0,0,0-.227-.348,8.008,8.008,0,0,0-1.187-.457,3.353,3.353,0,0,1-1.547-.891,2.118,2.118,0,0,1-.484-1.445,2.306,2.306,0,0,1,.988-1.965A4.637,4.637,0,0,1,158.1,8.8a8.828,8.828,0,0,1,2.219.3v2.242A6.71,6.71,0,0,0,159.244,11a4.355,4.355,0,0,0-.984-.141,1.071,1.071,0,0,0-.523.109.336.336,0,0,0-.2.3.425.425,0,0,0,.211.367,3.731,3.731,0,0,0,.844.336,3.915,3.915,0,0,1,1.758.922A2.02,2.02,0,0,1,160.884,14.344ZM171.9,17v-.93h-.031a2.746,2.746,0,0,1-1.039.824,2.961,2.961,0,0,1-1.266.3,3.256,3.256,0,0,1-1.8-.5,3.06,3.06,0,0,1-1.168-1.41,5.427,5.427,0,0,1-.387-2.141,5.267,5.267,0,0,1,.461-2.258,3.608,3.608,0,0,1,1.3-1.531,3.35,3.35,0,0,1,1.875-.547,2.838,2.838,0,0,1,.91.141,2.463,2.463,0,0,1,.727.379,1.131,1.131,0,0,1,.395.473h.031V5.156h3.328V17Zm.07-4.242a1.755,1.755,0,0,0-.316-1.117,1.068,1.068,0,0,0-1.734.1,2.3,2.3,0,0,0-.34,1.324q0,1.7,1.172,1.7a1.042,1.042,0,0,0,.887-.457,2.249,2.249,0,0,0,.332-1.332Zm7.727,1.188a1.124,1.124,0,0,0,.594.809,2.677,2.677,0,0,0,1.344.293,5.534,5.534,0,0,0,2.2-.445v2.109a7.918,7.918,0,0,1-2.937.484,4.635,4.635,0,0,1-3.258-1.07,3.8,3.8,0,0,1-1.164-2.945,4.86,4.86,0,0,1,.512-2.273,3.682,3.682,0,0,1,1.516-1.543A4.478,4.478,0,0,1,180.72,8.8a4.358,4.358,0,0,1,2.125.484,3.227,3.227,0,0,1,1.34,1.359,4.361,4.361,0,0,1,.457,2.047v1.25Zm2-1.742q0-1.383-.992-1.383a.84.84,0,0,0-.7.379,1.891,1.891,0,0,0-.328,1Zm15.133,4.57a3.137,3.137,0,0,1-1.008.3,9.528,9.528,0,0,1-1.586.117,4.878,4.878,0,0,1-2.262-.512,3.734,3.734,0,0,1-1.543-1.434,3.98,3.98,0,0,1-.547-2.07,4.534,4.534,0,0,1,.582-2.355,3.794,3.794,0,0,1,1.66-1.5,5.7,5.7,0,0,1,2.5-.52,8.746,8.746,0,0,1,1.4.1,2.143,2.143,0,0,1,.8.234v2.594a2.311,2.311,0,0,0-.719-.344,2.887,2.887,0,0,0-.867-.148,2.112,2.112,0,0,0-1.48.465,1.692,1.692,0,0,0-.5,1.309,1.66,1.66,0,0,0,.5,1.285,1.935,1.935,0,0,0,1.363.457,3.4,3.4,0,0,0,1.711-.445ZM202.6,17V15.781h-.031a2.617,2.617,0,0,1-2.437,1.414,2.334,2.334,0,0,1-1.773-.672,2.5,2.5,0,0,1-.641-1.8q0-2.359,2.9-2.734l1.984-.258a.757.757,0,0,0-.352-.641,1.6,1.6,0,0,0-.945-.25,6.226,6.226,0,0,0-2.836.766V9.445a7.587,7.587,0,0,1,1.625-.461,9.457,9.457,0,0,1,1.672-.18,4.2,4.2,0,0,1,2.957.871,3.883,3.883,0,0,1,.918,2.91V17Zm-1.969-2.719a.737.737,0,0,0,.207.539.789.789,0,0,0,.59.211,1.049,1.049,0,0,0,.848-.391,1.513,1.513,0,0,0,.324-1v-.3l-1.125.156Q200.626,13.633,200.626,14.281ZM217.509,17V12.391a1.47,1.47,0,0,0-.207-.863.778.778,0,0,0-.676-.285.844.844,0,0,0-.719.348,1.591,1.591,0,0,0-.258.965V17h-3.328V12.469q0-1.227-.836-1.227a.885.885,0,0,0-.766.355,1.719,1.719,0,0,0-.258,1.02V17h-3.328V9h3.328v1.266h.031a2.579,2.579,0,0,1,.6-.684,3.508,3.508,0,0,1,.926-.562,2.876,2.876,0,0,1,1.117-.215,2.828,2.828,0,0,1,1.434.336,2.605,2.605,0,0,1,.973,1.063,2.851,2.851,0,0,1,1.125-1.035,3.353,3.353,0,0,1,1.563-.363,2.351,2.351,0,0,1,1.93.82,3.653,3.653,0,0,1,.672,2.367V17Zm13.852-4.242a5.692,5.692,0,0,1-.445,2.32,3.6,3.6,0,0,1-1.258,1.563,3.168,3.168,0,0,1-1.828.555,2.449,2.449,0,0,1-2.133-1.023h-.031V20.68h-3.328V9h3.328v1.086h.031a2.819,2.819,0,0,1,1.031-.941,2.99,2.99,0,0,1,1.438-.34,2.858,2.858,0,0,1,2.371,1.031A4.576,4.576,0,0,1,231.361,12.758Zm-3.375.1a2.085,2.085,0,0,0-.293-1.187,1.1,1.1,0,0,0-1.762.023,2.081,2.081,0,0,0-.328,1.242v.156a2.277,2.277,0,0,0,.281,1.211.928.928,0,0,0,.844.453,1.051,1.051,0,0,0,.93-.5A2.533,2.533,0,0,0,227.986,12.859Zm13.523,0a4.166,4.166,0,0,1-1.223,3.18,5.649,5.649,0,0,1-6.812.027,4.041,4.041,0,0,1-1.215-3.113,4.171,4.171,0,0,1,.57-2.211A3.709,3.709,0,0,1,234.455,9.3a5.61,5.61,0,0,1,2.43-.5,5.434,5.434,0,0,1,2.465.523,3.81,3.81,0,0,1,1.6,1.453A3.957,3.957,0,0,1,241.509,12.859Zm-3.375.016q0-1.633-1.25-1.633t-1.25,1.711q0,1.8,1.266,1.8Q238.134,14.758,238.134,12.875ZM121.591,47.758a6.721,6.721,0,0,1-1.008-.082,4.89,4.89,0,0,1-.961-.238V44.93a2,2,0,0,0,.582.273,2.378,2.378,0,0,0,.73.125,1.2,1.2,0,0,0,1.234-.734l.258-.625L119.083,36h3.68l.969,3.859a9.582,9.582,0,0,1,.3,1.453h.031q.023-.172.066-.383T125.349,36h3.234l-2.945,8.227a6.109,6.109,0,0,1-1.645,2.711A3.618,3.618,0,0,1,121.591,47.758ZM44.451,70.891a3.242,3.242,0,0,1-.742.207,6.786,6.786,0,0,1-1.242.1,2.984,2.984,0,0,1-2.176-.766,2.906,2.906,0,0,1-.785-2.18V65.3H38.248V63h1.258V61.43l3.281-.906V63h1.664v2.3H42.787v2.4q0,1.055.836,1.055a2.268,2.268,0,0,0,.828-.172Zm3.906-2.945a1.124,1.124,0,0,0,.594.809,2.677,2.677,0,0,0,1.344.293,5.534,5.534,0,0,0,2.2-.445v2.109a7.918,7.918,0,0,1-2.937.484,4.635,4.635,0,0,1-3.258-1.07,3.8,3.8,0,0,1-1.164-2.945,4.859,4.859,0,0,1,.512-2.273,3.682,3.682,0,0,1,1.516-1.543A4.478,4.478,0,0,1,49.38,62.8a4.358,4.358,0,0,1,2.125.484,3.227,3.227,0,0,1,1.34,1.359A4.361,4.361,0,0,1,53.3,66.7v1.25Zm2-1.742q0-1.383-.992-1.383a.84.84,0,0,0-.7.379,1.891,1.891,0,0,0-.328,1Zm-.617-4.469H47.388l2.336-2.508h2.8Zm11.3,9.039a3.137,3.137,0,0,1-1.008.3,9.528,9.528,0,0,1-1.586.117,4.878,4.878,0,0,1-2.262-.512,3.734,3.734,0,0,1-1.543-1.434,3.98,3.98,0,0,1-.547-2.07,4.534,4.534,0,0,1,.582-2.355,3.794,3.794,0,0,1,1.66-1.5,5.7,5.7,0,0,1,2.5-.52,8.746,8.746,0,0,1,1.4.1,2.143,2.143,0,0,1,.8.234v2.594a2.311,2.311,0,0,0-.719-.344,2.887,2.887,0,0,0-.867-.148,2.112,2.112,0,0,0-1.48.465,1.692,1.692,0,0,0-.5,1.309,1.66,1.66,0,0,0,.5,1.285,1.935,1.935,0,0,0,1.363.457,3.4,3.4,0,0,0,1.711-.445ZM67.56,71V66.633a1.942,1.942,0,0,0-.223-1.066.814.814,0,0,0-.723-.324.782.782,0,0,0-.672.336,1.434,1.434,0,0,0-.242.859V71H62.373V63H65.7v1.25h.031a2.824,2.824,0,0,1,1.07-1.066,2.924,2.924,0,0,1,1.461-.379q2.625,0,2.625,3.313V71Zm8.352-10.156a1.429,1.429,0,0,1-.512,1.141,2,2,0,0,1-1.348.438,1.953,1.953,0,0,1-1.332-.453,1.433,1.433,0,0,1-.52-1.125,1.388,1.388,0,0,1,.5-1.113,2.346,2.346,0,0,1,2.7,0A1.379,1.379,0,0,1,75.912,60.844ZM72.388,71V63h3.328v8Zm11.523-.227a3.137,3.137,0,0,1-1.008.3,9.528,9.528,0,0,1-1.586.117,4.878,4.878,0,0,1-2.262-.512,3.734,3.734,0,0,1-1.543-1.434,3.98,3.98,0,0,1-.547-2.07,4.534,4.534,0,0,1,.582-2.355,3.794,3.794,0,0,1,1.66-1.5,5.7,5.7,0,0,1,2.5-.52,8.746,8.746,0,0,1,1.4.1,2.143,2.143,0,0,1,.8.234v2.594a2.311,2.311,0,0,0-.719-.344,2.887,2.887,0,0,0-.867-.148,2.112,2.112,0,0,0-1.48.465,1.692,1.692,0,0,0-.5,1.309,1.66,1.66,0,0,0,.5,1.285,1.935,1.935,0,0,0,1.363.457,3.4,3.4,0,0,0,1.711-.445ZM89.677,71V69.781h-.031A2.617,2.617,0,0,1,87.208,71.2a2.334,2.334,0,0,1-1.773-.672,2.5,2.5,0,0,1-.641-1.8q0-2.359,2.9-2.734l1.984-.258a.757.757,0,0,0-.352-.641,1.6,1.6,0,0,0-.945-.25,6.226,6.226,0,0,0-2.836.766V63.445a7.587,7.587,0,0,1,1.625-.461,9.457,9.457,0,0,1,1.672-.18,4.2,4.2,0,0,1,2.957.871,3.883,3.883,0,0,1,.918,2.91V71Zm-1.969-2.719a.737.737,0,0,0,.207.539.789.789,0,0,0,.59.211,1.049,1.049,0,0,0,.848-.391,1.513,1.513,0,0,0,.324-1v-.3l-1.125.156Q87.708,67.633,87.708,68.281Zm13.008.063a2.444,2.444,0,0,1-1.035,2.105,4.866,4.866,0,0,1-2.887.746,10.037,10.037,0,0,1-1.332-.109,8.229,8.229,0,0,1-1.293-.266V68.484a6.366,6.366,0,0,0,2.469.656q.977,0,.977-.508a.4.4,0,0,0-.227-.348,8.007,8.007,0,0,0-1.187-.457,3.353,3.353,0,0,1-1.547-.891,2.118,2.118,0,0,1-.484-1.445,2.306,2.306,0,0,1,.988-1.965,4.637,4.637,0,0,1,2.777-.723,8.828,8.828,0,0,1,2.219.3v2.242A6.71,6.71,0,0,0,99.076,65a4.354,4.354,0,0,0-.984-.141,1.072,1.072,0,0,0-.523.109.336.336,0,0,0-.2.3.425.425,0,0,0,.211.367,3.731,3.731,0,0,0,.844.336,3.915,3.915,0,0,1,1.758.922A2.02,2.02,0,0,1,100.716,68.344ZM111.732,71v-.93H111.7a2.746,2.746,0,0,1-1.039.824,2.961,2.961,0,0,1-1.266.3,3.256,3.256,0,0,1-1.8-.5,3.06,3.06,0,0,1-1.168-1.41,5.427,5.427,0,0,1-.387-2.141,5.267,5.267,0,0,1,.461-2.258,3.608,3.608,0,0,1,1.3-1.531,3.35,3.35,0,0,1,1.875-.547,2.838,2.838,0,0,1,.91.141,2.462,2.462,0,0,1,.727.379,1.131,1.131,0,0,1,.395.473h.031V59.156h3.328V71Zm.07-4.242a1.755,1.755,0,0,0-.316-1.117,1.068,1.068,0,0,0-1.734.1,2.3,2.3,0,0,0-.34,1.324q0,1.7,1.172,1.7a1.042,1.042,0,0,0,.887-.457,2.249,2.249,0,0,0,.332-1.332Zm7.727,1.188a1.124,1.124,0,0,0,.594.809,2.677,2.677,0,0,0,1.344.293,5.534,5.534,0,0,0,2.2-.445v2.109a7.918,7.918,0,0,1-2.937.484,4.635,4.635,0,0,1-3.258-1.07,3.8,3.8,0,0,1-1.164-2.945,4.859,4.859,0,0,1,.512-2.273,3.682,3.682,0,0,1,1.516-1.543,4.478,4.478,0,0,1,2.215-.559,4.358,4.358,0,0,1,2.125.484,3.227,3.227,0,0,1,1.34,1.359,4.361,4.361,0,0,1,.457,2.047v1.25Zm2-1.742q0-1.383-.992-1.383a.84.84,0,0,0-.7.379,1.891,1.891,0,0,0-.328,1Zm15.133,4.57a3.137,3.137,0,0,1-1.008.3,9.528,9.528,0,0,1-1.586.117,4.878,4.878,0,0,1-2.262-.512,3.734,3.734,0,0,1-1.543-1.434,3.98,3.98,0,0,1-.547-2.07,4.534,4.534,0,0,1,.582-2.355,3.794,3.794,0,0,1,1.66-1.5,5.7,5.7,0,0,1,2.5-.52,8.746,8.746,0,0,1,1.4.1,2.143,2.143,0,0,1,.8.234v2.594a2.311,2.311,0,0,0-.719-.344,2.887,2.887,0,0,0-.867-.148,2.111,2.111,0,0,0-1.48.465,1.692,1.692,0,0,0-.5,1.309,1.66,1.66,0,0,0,.5,1.285,1.935,1.935,0,0,0,1.363.457,3.4,3.4,0,0,0,1.711-.445Zm5.766.227V69.781H142.4a2.617,2.617,0,0,1-2.437,1.414,2.334,2.334,0,0,1-1.773-.672,2.5,2.5,0,0,1-.641-1.8q0-2.359,2.9-2.734l1.984-.258a.757.757,0,0,0-.352-.641,1.6,1.6,0,0,0-.945-.25,6.226,6.226,0,0,0-2.836.766V63.445a7.587,7.587,0,0,1,1.625-.461,9.457,9.457,0,0,1,1.672-.18,4.2,4.2,0,0,1,2.957.871,3.883,3.883,0,0,1,.918,2.91V71Zm-1.969-2.719a.737.737,0,0,0,.207.539.789.789,0,0,0,.59.211,1.049,1.049,0,0,0,.848-.391,1.513,1.513,0,0,0,.324-1v-.3l-1.125.156Q140.458,67.633,140.458,68.281ZM157.341,71V66.391a1.47,1.47,0,0,0-.207-.863.778.778,0,0,0-.676-.285.844.844,0,0,0-.719.348,1.591,1.591,0,0,0-.258.965V71h-3.328V66.469q0-1.227-.836-1.227a.885.885,0,0,0-.766.355,1.719,1.719,0,0,0-.258,1.02V71h-3.328V63h3.328v1.266h.031a2.579,2.579,0,0,1,.6-.684,3.508,3.508,0,0,1,.926-.562,2.876,2.876,0,0,1,1.117-.215,2.828,2.828,0,0,1,1.434.336,2.605,2.605,0,0,1,.973,1.063,2.851,2.851,0,0,1,1.125-1.035,3.353,3.353,0,0,1,1.563-.363,2.351,2.351,0,0,1,1.93.82,3.653,3.653,0,0,1,.672,2.367V71Zm13.852-4.242a5.692,5.692,0,0,1-.445,2.32,3.6,3.6,0,0,1-1.258,1.563,3.168,3.168,0,0,1-1.828.555,2.449,2.449,0,0,1-2.133-1.023H165.5V74.68h-3.328V63H165.5v1.086h.031a2.819,2.819,0,0,1,1.031-.941A2.99,2.99,0,0,1,168,62.8a2.858,2.858,0,0,1,2.371,1.031A4.576,4.576,0,0,1,171.193,66.758Zm-3.375.1a2.085,2.085,0,0,0-.293-1.187,1.1,1.1,0,0,0-1.762.023,2.081,2.081,0,0,0-.328,1.242v.156a2.277,2.277,0,0,0,.281,1.211.928.928,0,0,0,.844.453,1.051,1.051,0,0,0,.93-.5A2.533,2.533,0,0,0,167.818,66.859Zm8.148-6.016a1.429,1.429,0,0,1-.512,1.141,2,2,0,0,1-1.348.438,1.953,1.953,0,0,1-1.332-.453,1.433,1.433,0,0,1-.52-1.125,1.388,1.388,0,0,1,.5-1.113,2.346,2.346,0,0,1,2.7,0A1.379,1.379,0,0,1,175.966,60.844ZM172.443,71V63h3.328v8Zm11.43-2.656a2.444,2.444,0,0,1-1.035,2.105,4.866,4.866,0,0,1-2.887.746,10.037,10.037,0,0,1-1.332-.109,8.229,8.229,0,0,1-1.293-.266V68.484a6.366,6.366,0,0,0,2.469.656q.977,0,.977-.508a.4.4,0,0,0-.227-.348,8.008,8.008,0,0,0-1.187-.457,3.354,3.354,0,0,1-1.547-.891,2.118,2.118,0,0,1-.484-1.445,2.306,2.306,0,0,1,.988-1.965,4.637,4.637,0,0,1,2.777-.723,8.828,8.828,0,0,1,2.219.3v2.242A6.71,6.71,0,0,0,182.232,65a4.354,4.354,0,0,0-.984-.141,1.072,1.072,0,0,0-.523.109.336.336,0,0,0-.2.3.425.425,0,0,0,.211.367,3.731,3.731,0,0,0,.844.336,3.915,3.915,0,0,1,1.758.922A2.02,2.02,0,0,1,183.873,68.344ZM195.474,71V66.391a1.47,1.47,0,0,0-.207-.863.778.778,0,0,0-.676-.285.844.844,0,0,0-.719.348,1.591,1.591,0,0,0-.258.965V71h-3.328V66.469q0-1.227-.836-1.227a.885.885,0,0,0-.766.355,1.719,1.719,0,0,0-.258,1.02V71H185.1V63h3.328v1.266h.031a2.579,2.579,0,0,1,.6-.684,3.508,3.508,0,0,1,.926-.562A2.876,2.876,0,0,1,191.1,62.8a2.828,2.828,0,0,1,1.434.336,2.605,2.605,0,0,1,.973,1.063,2.851,2.851,0,0,1,1.125-1.035,3.353,3.353,0,0,1,1.563-.363,2.351,2.351,0,0,1,1.93.82,3.653,3.653,0,0,1,.672,2.367V71ZM209.2,66.859a4.166,4.166,0,0,1-1.223,3.18,5.649,5.649,0,0,1-6.812.027,4.041,4.041,0,0,1-1.215-3.113,4.171,4.171,0,0,1,.57-2.211,3.709,3.709,0,0,1,1.625-1.437,5.61,5.61,0,0,1,2.43-.5,5.434,5.434,0,0,1,2.465.523,3.81,3.81,0,0,1,1.6,1.453A3.957,3.957,0,0,1,209.2,66.859Zm-3.375.016q0-1.633-1.25-1.633t-1.25,1.711q0,1.8,1.266,1.8Q205.826,68.758,205.826,66.875Z" transform="translate(448.135 12.5)" fill="#12263f"/>
    <path id="Trazado_183765" data-name="Trazado 183765" d="M0,0H114.166L114.1,498.191" transform="translate(591.658 100) rotate(90)" fill="none" stroke="#707070" stroke-width="1"/>
    <rect id="Rectángulo_337980" data-name="Rectángulo 337980" width="108" height="30" transform="translate(510.991 100)" fill="#fff"/>
    <line id="Línea_216" data-name="Línea 216" y2="120" transform="translate(94 214.5)" fill="none" stroke="#707070" stroke-width="1"/>
    <line id="Línea_220" data-name="Línea 220" y2="203" transform="translate(924 214.5)" fill="none" stroke="#707070" stroke-width="1"/>
    <line id="Línea_218" data-name="Línea 218" y2="458" transform="translate(400.685 214.5)" fill="none" stroke="#707070" stroke-width="1"/>
    <line id="Línea_219" data-name="Línea 219" y2="458" transform="translate(569.524 214.5)" fill="none" stroke="#707070" stroke-width="1"/>
    <line id="Línea_217" data-name="Línea 217" y2="174" transform="translate(296.783 214.5)" fill="none" stroke="#707070" stroke-width="1"/>
    <rect id="Rectángulo_337982" data-name="Rectángulo 337982" width="108" height="30" transform="translate(39.991 248)" fill="#fff"/>
    <rect id="Rectángulo_337984" data-name="Rectángulo 337984" width="108" height="30" transform="translate(346.991 332)" fill="#fff"/>
    <rect id="Rectángulo_337989" data-name="Rectángulo 337989" width="108" height="51.834" transform="translate(514.886 332)" fill="#fff"/>
    <rect id="Rectángulo_337994" data-name="Rectángulo 337994" width="108" height="51.834" transform="translate(871.658 332)" fill="#fff"/>
    <rect id="Rectángulo_337988" data-name="Rectángulo 337988" width="88" height="30" transform="translate(356.991 627)" fill="#fff"/>
    <rect id="Rectángulo_335389" data-name="Rectángulo 335389" width="197" height="159" rx="14" transform="translate(0 325.707)" fill="#ffe4b9"/>
    <rect id="Rectángulo_337985" data-name="Rectángulo 337985" width="161.288" height="103.5" rx="14" transform="translate(214.677 388.5)" fill="#ffe4b9"/>
    <rect id="Rectángulo_337986" data-name="Rectángulo 337986" width="146" height="103.5" rx="14" transform="translate(328.474 509.5)" fill="#ffe4b9"/>
    <rect id="Rectángulo_337991" data-name="Rectángulo 337991" width="186.334" height="127.44" rx="14" transform="translate(477.491 401.957)" fill="#ffe4b9"/>
    <rect id="Rectángulo_337995" data-name="Rectángulo 337995" width="297.294" height="330.44" rx="14" transform="translate(767.364 407.957)" fill="#ffe4b9"/>
    <rect id="Rectángulo_337993" data-name="Rectángulo 337993" width="206.667" height="179.44" rx="14" transform="translate(476.976 627)" fill="#ffe4b9"/>
    <rect id="Rectángulo_337992" data-name="Rectángulo 337992" width="140.334" height="36.44" rx="10" transform="translate(500.579 559.521)" fill="#ffe4b9"/>
    <rect id="Rectángulo_337987" data-name="Rectángulo 337987" width="146" height="137.5" rx="14" transform="translate(328.474 672.5)" fill="#ffe4b9"/>
    <rect id="Rectángulo_337990" data-name="Rectángulo 337990" width="251" height="56" rx="19" transform="translate(443.118 188.722)" fill="#ffd667"/>
    <path id="Trazado_702395" data-name="Trazado 702395" d="M13.867,17l-.836-2.414a3,3,0,0,0-.629-1.117,1.148,1.148,0,0,0-.84-.406h-.133V17H8.054V5.8h4.484a6.218,6.218,0,0,1,3.473.77,2.614,2.614,0,0,1,1.121,2.309,2.921,2.921,0,0,1-.652,1.938,3.718,3.718,0,0,1-1.941,1.133v.031a2.712,2.712,0,0,1,1.184.711,4.4,4.4,0,0,1,.848,1.461L17.671,17Zm-.32-7.648a1.173,1.173,0,0,0-.344-.891,1.517,1.517,0,0,0-1.078-.328h-.7V10.7h.609a1.547,1.547,0,0,0,1.094-.383A1.254,1.254,0,0,0,13.546,9.352Zm7.984,4.594a1.124,1.124,0,0,0,.594.809,2.677,2.677,0,0,0,1.344.293,5.534,5.534,0,0,0,2.2-.445v2.109a7.918,7.918,0,0,1-2.937.484,4.635,4.635,0,0,1-3.258-1.07,3.8,3.8,0,0,1-1.164-2.945,4.859,4.859,0,0,1,.512-2.273,3.682,3.682,0,0,1,1.516-1.543A4.478,4.478,0,0,1,22.554,8.8a4.358,4.358,0,0,1,2.125.484,3.227,3.227,0,0,1,1.34,1.359,4.361,4.361,0,0,1,.457,2.047v1.25Zm2-1.742q0-1.383-.992-1.383a.84.84,0,0,0-.7.379,1.891,1.891,0,0,0-.328,1ZM32.062,17V15.781h-.031A2.617,2.617,0,0,1,29.593,17.2a2.334,2.334,0,0,1-1.773-.672,2.5,2.5,0,0,1-.641-1.8q0-2.359,2.9-2.734l1.984-.258a.757.757,0,0,0-.352-.641,1.6,1.6,0,0,0-.945-.25,6.226,6.226,0,0,0-2.836.766V9.445a7.587,7.587,0,0,1,1.625-.461,9.457,9.457,0,0,1,1.672-.18,4.2,4.2,0,0,1,2.957.871,3.883,3.883,0,0,1,.918,2.91V17Zm-1.969-2.719a.737.737,0,0,0,.207.539.789.789,0,0,0,.59.211,1.049,1.049,0,0,0,.848-.391,1.513,1.513,0,0,0,.324-1v-.3l-1.125.156Q30.093,13.633,30.093,14.281ZM36.6,17V5.156h3.328V17ZM45.054,6.844a1.429,1.429,0,0,1-.512,1.141,2,2,0,0,1-1.348.438,1.953,1.953,0,0,1-1.332-.453,1.433,1.433,0,0,1-.52-1.125,1.388,1.388,0,0,1,.5-1.113,2.346,2.346,0,0,1,2.7,0A1.379,1.379,0,0,1,45.054,6.844ZM41.531,17V9h3.328v8Zm8.7-2.3h3.3V17H45.859V15.461L49.453,11.3H46.195V9h7.258v1.891ZM59.039,17V15.781h-.031A2.617,2.617,0,0,1,56.57,17.2a2.334,2.334,0,0,1-1.773-.672,2.5,2.5,0,0,1-.641-1.8q0-2.359,2.9-2.734l1.984-.258a.757.757,0,0,0-.352-.641,1.6,1.6,0,0,0-.945-.25,6.226,6.226,0,0,0-2.836.766V9.445a7.587,7.587,0,0,1,1.625-.461A9.457,9.457,0,0,1,58.2,8.8a4.2,4.2,0,0,1,2.957.871,3.883,3.883,0,0,1,.918,2.91V17ZM57.07,14.281a.737.737,0,0,0,.207.539.789.789,0,0,0,.59.211,1.049,1.049,0,0,0,.848-.391,1.513,1.513,0,0,0,.324-1v-.3l-1.125.156Q57.07,13.633,57.07,14.281Zm12.523-2.43a3.2,3.2,0,0,0-1.039-.227q-1.648,0-1.648,1.906V17H63.578V9h3.328v1.406h.031A2.5,2.5,0,0,1,67.8,9.254a2.228,2.228,0,0,1,1.313-.395,1.128,1.128,0,0,1,.477.094ZM81.5,14.344a2.444,2.444,0,0,1-1.035,2.105,4.866,4.866,0,0,1-2.887.746,10.037,10.037,0,0,1-1.332-.109,8.229,8.229,0,0,1-1.293-.266V14.484a6.366,6.366,0,0,0,2.469.656q.977,0,.977-.508a.4.4,0,0,0-.227-.348,8.008,8.008,0,0,0-1.187-.457,3.353,3.353,0,0,1-1.547-.891,2.118,2.118,0,0,1-.484-1.445,2.306,2.306,0,0,1,.988-1.965A4.637,4.637,0,0,1,78.718,8.8a8.828,8.828,0,0,1,2.219.3v2.242A6.71,6.71,0,0,0,79.859,11a4.355,4.355,0,0,0-.984-.141,1.072,1.072,0,0,0-.523.109.336.336,0,0,0-.2.3.425.425,0,0,0,.211.367,3.731,3.731,0,0,0,.844.336,3.915,3.915,0,0,1,1.758.922A2.02,2.02,0,0,1,81.5,14.344ZM87.164,17V15.781h-.031A2.617,2.617,0,0,1,84.695,17.2a2.334,2.334,0,0,1-1.773-.672,2.5,2.5,0,0,1-.641-1.8q0-2.359,2.9-2.734l1.984-.258a.757.757,0,0,0-.352-.641,1.6,1.6,0,0,0-.945-.25,6.226,6.226,0,0,0-2.836.766V9.445a7.587,7.587,0,0,1,1.625-.461,9.457,9.457,0,0,1,1.672-.18,4.2,4.2,0,0,1,2.957.871,3.883,3.883,0,0,1,.918,2.91V17Zm-1.969-2.719a.737.737,0,0,0,.207.539.789.789,0,0,0,.59.211,1.049,1.049,0,0,0,.848-.391,1.513,1.513,0,0,0,.324-1v-.3l-1.125.156Q85.195,13.633,85.195,14.281ZM91.7,17V5.156h3.328V17Zm8.453-10.156a1.429,1.429,0,0,1-.512,1.141,2,2,0,0,1-1.348.438,1.953,1.953,0,0,1-1.332-.453,1.433,1.433,0,0,1-.52-1.125,1.388,1.388,0,0,1,.5-1.113,2.346,2.346,0,0,1,2.7,0A1.379,1.379,0,0,1,100.156,6.844ZM96.632,17V9H99.96v8Zm10.273,0v-.93h-.031a2.746,2.746,0,0,1-1.039.824,2.961,2.961,0,0,1-1.266.3,3.256,3.256,0,0,1-1.8-.5,3.06,3.06,0,0,1-1.168-1.41,5.427,5.427,0,0,1-.387-2.141,5.267,5.267,0,0,1,.461-2.258,3.608,3.608,0,0,1,1.3-1.531,3.35,3.35,0,0,1,1.875-.547,2.838,2.838,0,0,1,.91.141,2.462,2.462,0,0,1,.727.379,1.131,1.131,0,0,1,.395.473h.031V5.156h3.328V17Zm.07-4.242a1.755,1.755,0,0,0-.316-1.117,1.068,1.068,0,0,0-1.734.1,2.3,2.3,0,0,0-.34,1.324q0,1.7,1.172,1.7a1.042,1.042,0,0,0,.887-.457,2.249,2.249,0,0,0,.332-1.332Zm9.3,4.242V15.781h-.031A2.617,2.617,0,0,1,113.8,17.2a2.334,2.334,0,0,1-1.773-.672,2.5,2.5,0,0,1-.641-1.8q0-2.359,2.9-2.734l1.984-.258a.757.757,0,0,0-.352-.641,1.6,1.6,0,0,0-.945-.25,6.226,6.226,0,0,0-2.836.766V9.445a7.587,7.587,0,0,1,1.625-.461,9.457,9.457,0,0,1,1.672-.18,4.2,4.2,0,0,1,2.957.871,3.883,3.883,0,0,1,.918,2.91V17ZM114.3,14.281a.737.737,0,0,0,.207.539.789.789,0,0,0,.59.211,1.049,1.049,0,0,0,.848-.391,1.513,1.513,0,0,0,.324-1v-.3l-1.125.156Q114.3,13.633,114.3,14.281Zm13.008.063a2.444,2.444,0,0,1-1.035,2.105,4.866,4.866,0,0,1-2.887.746,10.037,10.037,0,0,1-1.332-.109,8.229,8.229,0,0,1-1.293-.266V14.484a6.366,6.366,0,0,0,2.469.656q.977,0,.977-.508a.4.4,0,0,0-.227-.348,8.008,8.008,0,0,0-1.187-.457,3.353,3.353,0,0,1-1.547-.891,2.118,2.118,0,0,1-.484-1.445,2.306,2.306,0,0,1,.988-1.965,4.637,4.637,0,0,1,2.777-.723,8.828,8.828,0,0,1,2.219.3v2.242A6.71,6.71,0,0,0,125.671,11a4.355,4.355,0,0,0-.984-.141,1.072,1.072,0,0,0-.523.109.336.336,0,0,0-.2.3.425.425,0,0,0,.211.367,3.731,3.731,0,0,0,.844.336,3.915,3.915,0,0,1,1.758.922A2.02,2.02,0,0,1,127.312,14.344ZM138.328,17v-.93H138.3a2.746,2.746,0,0,1-1.039.824,2.961,2.961,0,0,1-1.266.3,3.256,3.256,0,0,1-1.8-.5,3.06,3.06,0,0,1-1.168-1.41,5.427,5.427,0,0,1-.387-2.141,5.267,5.267,0,0,1,.461-2.258,3.608,3.608,0,0,1,1.3-1.531,3.35,3.35,0,0,1,1.875-.547,2.838,2.838,0,0,1,.91.141,2.463,2.463,0,0,1,.727.379,1.131,1.131,0,0,1,.395.473h.031V5.156h3.328V17Zm.07-4.242a1.755,1.755,0,0,0-.316-1.117,1.068,1.068,0,0,0-1.734.1,2.3,2.3,0,0,0-.34,1.324q0,1.7,1.172,1.7a1.042,1.042,0,0,0,.887-.457,2.249,2.249,0,0,0,.332-1.332Zm7.727,1.188a1.124,1.124,0,0,0,.594.809,2.677,2.677,0,0,0,1.344.293,5.534,5.534,0,0,0,2.2-.445v2.109a7.918,7.918,0,0,1-2.937.484,4.635,4.635,0,0,1-3.258-1.07,3.8,3.8,0,0,1-1.164-2.945,4.86,4.86,0,0,1,.512-2.273,3.682,3.682,0,0,1,1.516-1.543,4.478,4.478,0,0,1,2.215-.559,4.358,4.358,0,0,1,2.125.484,3.227,3.227,0,0,1,1.34,1.359,4.361,4.361,0,0,1,.457,2.047v1.25Zm2-1.742q0-1.383-.992-1.383a.84.84,0,0,0-.7.379,1.891,1.891,0,0,0-.328,1Zm15.133,4.57a3.137,3.137,0,0,1-1.008.3,9.528,9.528,0,0,1-1.586.117,4.878,4.878,0,0,1-2.262-.512,3.734,3.734,0,0,1-1.543-1.434,3.98,3.98,0,0,1-.547-2.07,4.534,4.534,0,0,1,.582-2.355,3.794,3.794,0,0,1,1.66-1.5,5.7,5.7,0,0,1,2.5-.52,8.746,8.746,0,0,1,1.4.1,2.143,2.143,0,0,1,.8.234v2.594a2.311,2.311,0,0,0-.719-.344,2.887,2.887,0,0,0-.867-.148,2.112,2.112,0,0,0-1.48.465,1.692,1.692,0,0,0-.5,1.309,1.66,1.66,0,0,0,.5,1.285,1.935,1.935,0,0,0,1.363.457,3.4,3.4,0,0,0,1.711-.445Zm5.766.227V15.781h-.031a2.617,2.617,0,0,1-2.437,1.414,2.334,2.334,0,0,1-1.773-.672,2.5,2.5,0,0,1-.641-1.8q0-2.359,2.9-2.734l1.984-.258a.757.757,0,0,0-.352-.641,1.6,1.6,0,0,0-.945-.25,6.226,6.226,0,0,0-2.836.766V9.445a7.587,7.587,0,0,1,1.625-.461,9.457,9.457,0,0,1,1.672-.18,4.2,4.2,0,0,1,2.957.871,3.883,3.883,0,0,1,.918,2.91V17Zm-1.969-2.719a.737.737,0,0,0,.207.539.789.789,0,0,0,.59.211,1.049,1.049,0,0,0,.848-.391,1.513,1.513,0,0,0,.324-1v-.3l-1.125.156Q167.054,13.633,167.054,14.281ZM183.937,17V12.391a1.47,1.47,0,0,0-.207-.863.778.778,0,0,0-.676-.285.844.844,0,0,0-.719.348,1.591,1.591,0,0,0-.258.965V17H178.75V12.469q0-1.227-.836-1.227a.885.885,0,0,0-.766.355,1.719,1.719,0,0,0-.258,1.02V17h-3.328V9h3.328v1.266h.031a2.579,2.579,0,0,1,.6-.684,3.508,3.508,0,0,1,.926-.562,2.876,2.876,0,0,1,1.117-.215A2.828,2.828,0,0,1,181,9.141a2.605,2.605,0,0,1,.973,1.063,2.851,2.851,0,0,1,1.125-1.035,3.353,3.353,0,0,1,1.563-.363,2.351,2.351,0,0,1,1.93.82,3.653,3.653,0,0,1,.672,2.367V17Zm13.852-4.242a5.692,5.692,0,0,1-.445,2.32,3.6,3.6,0,0,1-1.258,1.563,3.168,3.168,0,0,1-1.828.555,2.449,2.449,0,0,1-2.133-1.023h-.031V20.68h-3.328V9h3.328v1.086h.031a2.819,2.819,0,0,1,1.031-.941,2.99,2.99,0,0,1,1.438-.34,2.858,2.858,0,0,1,2.371,1.031A4.576,4.576,0,0,1,197.789,12.758Zm-3.375.1a2.085,2.085,0,0,0-.293-1.187,1.1,1.1,0,0,0-1.762.023,2.081,2.081,0,0,0-.328,1.242v.156a2.277,2.277,0,0,0,.281,1.211.928.928,0,0,0,.844.453,1.051,1.051,0,0,0,.93-.5A2.533,2.533,0,0,0,194.414,12.859Zm13.523,0a4.166,4.166,0,0,1-1.223,3.18,5.649,5.649,0,0,1-6.812.027,4.041,4.041,0,0,1-1.215-3.113,4.171,4.171,0,0,1,.57-2.211A3.709,3.709,0,0,1,200.882,9.3a5.61,5.61,0,0,1,2.43-.5,5.434,5.434,0,0,1,2.465.523,3.81,3.81,0,0,1,1.6,1.453A3.957,3.957,0,0,1,207.937,12.859Zm-3.375.016q0-1.633-1.25-1.633t-1.25,1.711q0,1.8,1.266,1.8Q204.562,14.758,204.562,12.875Z" transform="translate(458.656 203.722)" fill="#12263f"/>
    <line id="Línea_221" data-name="Línea 221" x2="259" transform="translate(664.991 215)" fill="none" stroke="#707070" stroke-width="1"/>
    <text id="Lograr_al_final" data-name="Lograr al final" transform="translate(520.991 122)" fill="#707070" font-size="16" font-family="SegoeUI, Segoe UI"><tspan x="0" y="0">Lograr al final</tspan></text>
    <text id="Puede_ser_realizada_por_una_persona_o_una_empresa" data-name="Puede ser 
realizada por
una persona
o una empresa" transform="translate(348.991 536)" fill="#707070" font-size="16" font-family="SegoeUI-Bold, Segoe UI" font-weight="700"><tspan x="0" y="0">Puede ser </tspan><tspan x="0" y="21">realizada por</tspan><tspan x="0" y="42">una persona</tspan><tspan x="0" y="63">o una empresa</tspan></text>
    <text id="Cumplir_con_los_permisos_obligatorios_y_respetar_la_comunidad_" data-name="Cumplir con 
los permisos
obligatorios y 
respetar la 
comunidad " transform="translate(353.991 708)" fill="#707070" font-size="16" font-family="SegoeUI-Bold, Segoe UI" font-weight="700"><tspan x="0" y="0">Cumplir con </tspan><tspan x="0" y="21">los permisos</tspan><tspan x="0" y="42">obligatorios y </tspan><tspan x="0" y="63">respetar la </tspan><tspan x="0" y="84">comunidad </tspan></text>
    <text id="Funciones" transform="translate(533.991 581)" fill="#707070" font-size="16" font-family="SegoeUI-Bold, Segoe UI" font-weight="700"><tspan x="0" y="0">Funciones</tspan></text>
    <text id="_-_Fechas_para_la_planeación_-_Los_lugares_-_El_acceso_-_El_montaje_y_desmontaje_-_La_alimentación_-_El_clima_y_las_características_hidrográficas_-_Las_población_y_su_cultura_-_El_terreno_y_su_topografía_-_La_duración_-_El_tipo_de_participantes_-_Tipo_d" data-name="- Fechas para la planeación
- Los lugares 
- El acceso
- El montaje y desmontaje
- La alimentación
- El clima y las características
   hidrográficas
- Las población y su cultura
- El terreno y su topografía
- La duración
- El tipo de participantes
- Tipo d" transform="translate(781.991 455)" fill="#707070" font-size="16" font-family="SegoeUI-Bold, Segoe UI" font-weight="700"><tspan x="0" y="0">- Fechas para la planeación</tspan><tspan x="0" y="21">- Los lugares </tspan><tspan x="0" y="42">- El acceso</tspan><tspan x="0" y="63">- El montaje y desmontaje</tspan><tspan x="0" y="84">- La alimentación</tspan><tspan x="0" y="105">- El clima y las características</tspan><tspan x="0" y="126" xml:space="preserve">   hidrográficas</tspan><tspan x="0" y="147">- Las población y su cultura</tspan><tspan x="0" y="168">- El terreno y su topografía</tspan><tspan x="0" y="189">- La duración</tspan><tspan x="0" y="210">- El tipo de participantes</tspan><tspan x="0" y="231">- Tipo de carpas</tspan><tspan x="0" y="252" xml:space="preserve">   Cercanía del apoyo asistencial, etc.</tspan></text>
    <text id="Debe" transform="translate(380.991 644)" fill="#707070" font-size="16" font-family="SegoeUI, Segoe UI"><tspan x="0" y="0">Debe</tspan></text>
  </g>
  <text id="Qué_es" data-name="Qué es" transform="translate(70.991 267)" fill="#707070" font-size="16" font-family="SegoeUI, Segoe UI"><tspan x="0" y="0">Qué es</tspan></text>
  <text id="Dónde_se_hace_" data-name="Dónde se hace " transform="translate(245.991 321)" fill="#707070" font-size="16" font-family="SegoeUI, Segoe UI"><tspan x="0" y="0">Dónde se hace </tspan></text>
  <text id="Quién_la_hace" data-name="Quién la hace" transform="translate(343.991 351)" fill="#707070" font-size="16" font-family="SegoeUI, Segoe UI"><tspan x="0" y="0">Quién la hace</tspan></text>
  <text id="Cómo_se_hace" data-name="Cómo se hace" transform="translate(522.991 362)" fill="#707070" font-size="16" font-family="SegoeUI, Segoe UI"><tspan x="0" y="0">Cómo se hace</tspan></text>
  <text id="Qué_se_debe_tener_en_cuenta" data-name="Qué se debe tener en cuenta" transform="translate(927.991 351)" fill="#707070" font-size="16" font-family="SegoeUI, Segoe UI"><tspan x="-67.254" y="0">Qué se debe tener </tspan><tspan x="-34.617" y="21">en cuenta</tspan></text>
  <text id="Es_una_actividad_que_se_realiza_al_aire_libre_en_medio_de_la_naturaleza_de_forma_individual_o_grupal" data-name="Es una actividad que se 
realiza al aire libre en
medio de la naturaleza
de forma individual o
grupal" transform="translate(10.991 372)" fill="#707070" font-size="16" font-family="SegoeUI-Bold, Segoe UI" font-weight="700"><tspan x="0" y="0">Es una actividad que se </tspan><tspan x="0" y="21">realiza al aire libre en</tspan><tspan x="0" y="42">medio de la naturaleza</tspan><tspan x="0" y="63">de forma individual o</tspan><tspan x="0" y="84">grupal</tspan></text>
  <text id="Se_puede_hacer_en_lugares_privados_o_estatales" data-name="Se puede hacer en
lugares privados o
estatales" transform="translate(228.991 425)" fill="#707070" font-size="16" font-family="SegoeUI-Bold, Segoe UI" font-weight="700"><tspan x="0" y="0">Se puede hacer en</tspan><tspan x="0" y="21">lugares privados o</tspan><tspan x="0" y="42">estatales</tspan></text>
  <text id="Empresa:_la_realiza_un_guía_y_un_equipo_tiene_dos_dimensiones:_una_ambiental_y_otra_sociocultural" data-name="Empresa: la realiza un
guía y un equipo tiene
dos dimensiones:
una ambiental y otra
sociocultural" transform="translate(488.991 428)" fill="#707070" font-size="16" font-family="SegoeUI-Bold, Segoe UI" font-weight="700"><tspan x="0" y="0">Empresa: la realiza un</tspan><tspan x="0" y="21">guía y un equipo tiene</tspan><tspan x="0" y="42">dos dimensiones:</tspan><tspan x="0" y="63">una ambiental y otra</tspan><tspan x="0" y="84">sociocultural</tspan></text>
  <text id="_-_Planear_-_Diseñar_-_Hacer_visitas_de_campo_-_Pedir_permisos_-_Hacer_la_planeación_de_los_equipos_necesarios" data-name="- Planear
- Diseñar
- Hacer visitas de campo
- Pedir permisos
- Hacer la planeación de
   los equipos necesarios" transform="translate(488.991 668)" fill="#707070" font-size="16" font-family="SegoeUI-Bold, Segoe UI" font-weight="700"><tspan x="0" y="0">- Planear</tspan><tspan x="0" y="21">- Diseñar</tspan><tspan x="0" y="42">- Hacer visitas de campo</tspan><tspan x="0" y="63">- Pedir permisos</tspan><tspan x="0" y="84">- Hacer la planeación de</tspan><tspan x="0" y="105" xml:space="preserve">   los equipos necesarios</tspan></text>
</svg>
