<svg xmlns="http://www.w3.org/2000/svg" width="210" height="177.064" viewBox="0 0 210 177.064">
  <g id="Grupo_963350" data-name="Grupo 963350" transform="translate(-870.302 -1498.605)">
    <path id="Trazado_702320" data-name="Trazado 702320" d="M957.665,1570.777c1.836-4.836,5.3-8.029,7.877-7.365l.012-.028,73.886,29.882-6.911,18.146-73.886-29.884.013-.031c-2.352-1.232-2.818-5.9-.99-10.722" transform="translate(38.45 27.527)" fill="#6c5953"/>
    <path id="Trazado_702321" data-name="Trazado 702321" d="M957.538,1570.01c1.894-4.4,5.121-7.226,7.562-6.6l.013-.028L1039,1593.268l-3.162,8.306Z" transform="translate(38.892 27.527)" fill="#7e6c69"/>
    <path id="Trazado_702322" data-name="Trazado 702322" d="M1008.591,1591.385c-1.9,5.01-1.327,9.878,1.277,10.864s6.259-2.273,8.16-7.287,1.327-9.876-1.278-10.864-6.256,2.274-8.159,7.287" transform="translate(61.153 36.71)" fill="#ceb679"/>
    <path id="Trazado_702323" data-name="Trazado 702323" d="M1011.321,1591.741c-.574,1.517-.4,2.987.387,3.285s1.893-.687,2.465-2.2.4-2.987-.386-3.283S1011.9,1590.226,1011.321,1591.741Zm-1.822-.69c-1.308,3.451-.917,6.8.878,7.479s4.313-1.564,5.62-5.016.914-6.8-.88-7.479S1010.809,1587.6,1009.5,1591.052Z" transform="translate(61.713 37.598)" fill="none" stroke="#6c5953" stroke-miterlimit="10" stroke-width="0.79"/>
    <line id="Línea_212" data-name="Línea 212" x1="33.412" y1="113.478" transform="translate(876.667 1529.156)" fill="none" stroke="#b17f49" stroke-linecap="round" stroke-miterlimit="10" stroke-width="4.821"/>
    <line id="Línea_213" data-name="Línea 213" x1="33.412" y1="113.478" transform="translate(879.151 1529.371)" fill="none" stroke="#9a6a3d" stroke-linecap="round" stroke-miterlimit="10" stroke-width="2.411"/>
    <line id="Línea_214" data-name="Línea 214" x1="29.632" y1="104.754" transform="translate(960.943 1501.581)" fill="none" stroke="#b17f49" stroke-linecap="round" stroke-miterlimit="10" stroke-width="4.821"/>
    <line id="Línea_215" data-name="Línea 215" x1="29.632" y1="104.754" transform="translate(963.427 1501.797)" fill="none" stroke="#9a6a3d" stroke-linecap="round" stroke-miterlimit="10" stroke-width="2.411"/>
    <path id="Trazado_702324" data-name="Trazado 702324" d="M997.476,1567.259c-1.836-4.836-5.3-8.029-7.877-7.365l-.012-.027-103.032,41.82,6.911,18.147L996.5,1578.011l-.013-.03c2.352-1.232,2.818-5.9.99-10.722" transform="translate(7.246 25.958)" fill="#6c5953"/>
    <path id="Trazado_702325" data-name="Trazado 702325" d="M997.16,1566.491c-1.894-4.4-5.121-7.226-7.562-6.6l-.013-.027-103.031,41.82,3.163,8.306Z" transform="translate(7.246 25.958)" fill="#7e6c69"/>
    <path id="Trazado_702326" data-name="Trazado 702326" d="M895.445,1596.124c1.9,5.01,1.327,9.878-1.275,10.864s-6.26-2.275-8.162-7.289-1.327-9.875,1.278-10.862,6.256,2.274,8.159,7.287" transform="translate(6.502 38.822)" fill="#ceb679"/>
    <path id="Trazado_702327" data-name="Trazado 702327" d="M891.593,1596.482c.574,1.515.4,2.985-.387,3.283s-1.894-.687-2.465-2.2-.4-2.987.386-3.283S891.019,1594.965,891.593,1596.482Zm1.822-.691c1.308,3.451.917,6.8-.878,7.479s-4.313-1.565-5.621-5.016-.912-6.8.882-7.479S892.1,1592.341,893.415,1595.791Z" transform="translate(7.063 39.711)" fill="none" stroke="#6c5953" stroke-miterlimit="10" stroke-width="0.79"/>
    <path id="Trazado_702328" data-name="Trazado 702328" d="M993.768,1554.157c-1.838-4.836-5.3-8.029-7.877-7.365l-.012-.027-103.032,41.82,6.911,18.146,103.032-41.822-.013-.03c2.352-1.232,2.816-5.9.99-10.722" transform="translate(5.594 20.117)" fill="#6c5953"/>
    <path id="Trazado_702329" data-name="Trazado 702329" d="M993.453,1553.389c-1.894-4.4-5.121-7.226-7.562-6.6l-.013-.027-103.031,41.82,3.162,8.306Z" transform="translate(5.594 20.117)" fill="#7e6c69"/>
    <path id="Trazado_702330" data-name="Trazado 702330" d="M891.738,1583.022c1.9,5.01,1.327,9.878-1.277,10.864s-6.259-2.273-8.16-7.287-1.327-9.876,1.278-10.864,6.256,2.274,8.159,7.287" transform="translate(4.85 32.981)" fill="#ceb679"/>
    <path id="Trazado_702331" data-name="Trazado 702331" d="M887.886,1583.379c.574,1.516.4,2.987-.388,3.285s-1.893-.687-2.465-2.2-.4-2.987.386-3.283S887.312,1581.863,887.886,1583.379Zm1.822-.69c1.308,3.451.917,6.8-.878,7.479s-4.313-1.564-5.62-5.016-.914-6.8.881-7.479S888.4,1579.239,889.707,1582.689Z" transform="translate(5.411 33.87)" fill="none" stroke="#6c5953" stroke-miterlimit="10" stroke-width="0.79"/>
    <path id="Trazado_702332" data-name="Trazado 702332" d="M990.966,1542.025c-1.836-4.837-5.3-8.029-7.877-7.364l-.012-.029-103.032,41.82,6.911,18.147,103.032-41.822-.013-.03c2.352-1.232,2.818-5.9.99-10.722" transform="translate(4.344 14.709)" fill="#6c5953"/>
    <path id="Trazado_702333" data-name="Trazado 702333" d="M990.651,1541.257c-1.894-4.4-5.121-7.226-7.562-6.6l-.013-.028-103.031,41.82,3.162,8.306Z" transform="translate(4.344 14.708)" fill="#7e6c69"/>
    <path id="Trazado_702334" data-name="Trazado 702334" d="M888.936,1570.89c1.9,5.01,1.327,9.878-1.277,10.864s-6.259-2.273-8.16-7.289-1.327-9.875,1.278-10.862,6.256,2.274,8.159,7.287" transform="translate(3.601 27.572)" fill="#ceb679"/>
    <path id="Trazado_702335" data-name="Trazado 702335" d="M885.084,1571.248c.574,1.515.4,2.985-.387,3.283s-1.893-.687-2.465-2.2-.4-2.987.386-3.283S884.51,1569.731,885.084,1571.248Zm1.822-.691c1.308,3.451.917,6.8-.878,7.479s-4.313-1.564-5.62-5.016-.914-6.8.88-7.479S885.6,1567.107,886.905,1570.557Z" transform="translate(4.162 28.461)" fill="none" stroke="#6c5953" stroke-miterlimit="10" stroke-width="0.79"/>
    <path id="Trazado_702336" data-name="Trazado 702336" d="M985.989,1529.469c-1.836-4.836-5.3-8.029-7.877-7.365l-.011-.028L875.068,1563.9l6.911,18.147,103.032-41.822-.013-.03c2.352-1.232,2.818-5.9.99-10.722" transform="translate(2.125 9.111)" fill="#6c5953"/>
    <path id="Trazado_702337" data-name="Trazado 702337" d="M985.673,1528.7c-1.894-4.4-5.121-7.226-7.562-6.6l-.011-.028L875.068,1563.9l3.163,8.306Z" transform="translate(2.125 9.111)" fill="#7e6c69"/>
    <path id="Trazado_702338" data-name="Trazado 702338" d="M883.958,1558.334c1.9,5.01,1.327,9.878-1.277,10.864s-6.259-2.273-8.16-7.288-1.327-9.875,1.278-10.862,6.256,2.274,8.159,7.287" transform="translate(1.381 21.975)" fill="#ceb679"/>
    <path id="Trazado_702339" data-name="Trazado 702339" d="M880.106,1558.691c.574,1.515.4,2.987-.387,3.285s-1.894-.687-2.465-2.2-.4-2.987.386-3.284S879.53,1557.175,880.106,1558.691Zm1.822-.69c1.308,3.451.917,6.8-.878,7.479s-4.313-1.564-5.62-5.016-.914-6.8.88-7.479S880.618,1554.551,881.928,1558Z" transform="translate(1.942 22.863)" fill="none" stroke="#6c5953" stroke-miterlimit="10" stroke-width="0.79"/>
    <path id="Trazado_702340" data-name="Trazado 702340" d="M982.891,1517.243c-1.836-4.836-5.3-8.029-7.877-7.365l-.011-.027-103.032,41.82,6.911,18.147L981.913,1528l-.013-.031c2.353-1.232,2.818-5.9.99-10.722" transform="translate(0.744 3.66)" fill="#6c5953"/>
    <path id="Trazado_702341" data-name="Trazado 702341" d="M982.576,1516.475c-1.894-4.4-5.121-7.226-7.562-6.6l-.013-.027-103.031,41.82,3.163,8.306Z" transform="translate(0.744 3.66)" fill="#7e6c69"/>
    <path id="Trazado_702342" data-name="Trazado 702342" d="M880.859,1546.108c1.9,5.01,1.327,9.878-1.275,10.864s-6.26-2.273-8.162-7.287-1.327-9.877,1.278-10.864,6.256,2.274,8.159,7.287" transform="translate(0 16.524)" fill="#ceb679"/>
    <path id="Trazado_702343" data-name="Trazado 702343" d="M877.009,1546.466c.574,1.514.4,2.986-.387,3.283s-1.894-.687-2.465-2.2-.4-2.987.386-3.283S876.435,1544.949,877.009,1546.466Zm1.822-.691c1.309,3.451.917,6.8-.878,7.479s-4.313-1.564-5.621-5.016-.912-6.8.882-7.479S877.521,1542.325,878.831,1545.775Z" transform="translate(0.561 17.413)" fill="none" stroke="#6c5953" stroke-miterlimit="10" stroke-width="0.79"/>
    <path id="Trazado_702344" data-name="Trazado 702344" d="M980.127,1637.639c-8.716,1.326-17.21,2.666-25.808-.771-3.841-1.534-8.069-1.615-11.792-3.366-5.1-2.4-10.433-5.474-10.961-12.378-.416-5.459.8-10.414-.327-15.948a34.975,34.975,0,0,0-2.183-7.073c-.555-1.271-1.6-2.633-1.645-4.014,2.108,1.574,4.209,3.562,6.333,5.222,2.078,1.625,3.944,7.15,6.446,7.4-2.125-3.377-2.423-9.606-2.387-13.579.055-5.966,2.672-9.382,6.453-12.982,3.684-3.508,6.615-6.992,7.544-12.524.466-2.765-.458-10.283,2.5-11.513,1.624,4.086-.469,12.66,3.025,15.5-.8-7.822,5.707-15.556,9.336-21.378,2.55-4.09,1.566-7.832,2.708-12.249,1.495,1.3,2.086,5.253,3.568,7.173,2.77,3.59,5.769,6.949,7.972,11.037a33.285,33.285,0,0,1,4.193,16.347c-.065,2.25-1.57,8.866-.033,10.514,1.167-1.4.906-6.356,1.346-8.429.523-2.469,2.639-6.885,1.657-9.229,1.1,1.855.857,4.711,1.124,6.852a61.959,61.959,0,0,0,1.7,7.752c.924,3.58.158,6.744-1.066,10.138-.74,2.051-3.051,4.962-2.962,7.176,2.925.265,5.819-2.814,7.615-5.058,2.1-2.623,2.238-7.287,4.268-9.508,1.553,3.654,1.447,9.083,1.732,13.148.6,8.554,6.557,14.885,3.483,23.6-3.534,10.011-14.814,16.773-23.836,18.146" transform="translate(25.461 16.229)" fill="#f5a12f"/>
    <path id="Trazado_702345" data-name="Trazado 702345" d="M951.367,1627.266c-5.658,1.1-13.167-5.526-15.746-10.531a22.165,22.165,0,0,1-2.892-8.294c-.244-2.238.575-4.11-.837-5.89,2.467,4.515,8.4,8.971,12.5,11.11.139.171.129.183-.029.036-2.273-6.8-7.054-16.349-4.57-23.7,2.722-8.061,10.771-11.033,14.328-17.99,2.494,1.56,2.348,5.235,3.573,7.843,1.544-11.549,6.6-21.617,11.637-31.575,2.049,5.505,3.772,11.665,5.452,17.429,1.174,4.032,2.48,9.2,2.471,13.465-.006,2.757-1.444,5.085-.935,7.78,3.168.208,5.659-4.868,7.531-7.309-.146,3.3-2.37,6.385-3.093,9.7-.652,2.993.082,6.719-1.72,9.211,4.877.006,8.014-1.758,11.432-5.481-.176,4.163,3.133,8.445,3.31,13.193.286,7.721.646,11.188-5.616,15.359-5.724,3.814-12.466,4.945-19.005,5.737-4.4.532-14.626,2.669-18.556-.037Z" transform="translate(27.459 20.816)" fill="#ef802a"/>
    <path id="Trazado_702346" data-name="Trazado 702346" d="M984.655,1597.677c-2,1.868-2.238,7.032-4.3,9.509-2.383,2.857-6,5.329-9.344,7.317-5.614,3.343-14.562,4.408-20.3.214-3.836-2.806-4.077-8.691-5.244-12.6-1.9-6.38.087-13.134,5.908-18.2-1.206,4.2.846,6.84,3.681,10.375-2.177-3.726,3.794-9.466,5.7-12.935,1.216-2.211,3.084-4.485,3.866-6.834.713-2.144.036-4.512,2.052-6.117-1.875,10.7,12.8,20.266,5.617,30.383a59.205,59.205,0,0,0,5.587-13.66c2.975,3.68,4.819,12.391.824,16.35,2.169-.956,3.938-2.623,6-3.764q.232-.289-.042-.031" transform="translate(33.198 29.79)" fill="#de5525"/>
    <path id="Trazado_702347" data-name="Trazado 702347" d="M893.722,1596.046c1.836-4.836,5.3-8.029,7.877-7.365l.012-.027,73.886,29.882-6.911,18.146L894.7,1606.8l.013-.031c-2.352-1.231-2.818-5.9-.99-10.722" transform="translate(9.942 38.792)" fill="#6c5953"/>
    <path id="Trazado_702348" data-name="Trazado 702348" d="M893.595,1595.278c1.894-4.4,5.121-7.226,7.562-6.6l.013-.027,73.885,29.882-3.163,8.306Z" transform="translate(10.385 38.792)" fill="#7e6c69"/>
    <path id="Trazado_702349" data-name="Trazado 702349" d="M944.648,1616.654c-1.9,5.01-1.327,9.878,1.277,10.864s6.259-2.274,8.16-7.288,1.327-9.875-1.278-10.862-6.256,2.274-8.159,7.287" transform="translate(32.645 47.975)" fill="#ceb679"/>
    <path id="Trazado_702350" data-name="Trazado 702350" d="M947.378,1617.011c-.574,1.516-.4,2.987.387,3.285s1.893-.687,2.465-2.2.4-2.987-.386-3.283S947.952,1615.5,947.378,1617.011Zm-1.822-.69c-1.308,3.451-.917,6.8.878,7.479s4.313-1.565,5.62-5.016.914-6.8-.88-7.479S946.866,1612.871,945.556,1616.321Z" transform="translate(33.206 48.863)" fill="none" stroke="#6c5953" stroke-miterlimit="10" stroke-width="0.79"/>
  </g>
</svg>
