<svg xmlns="http://www.w3.org/2000/svg" width="194.022" height="128.538" viewBox="0 0 194.022 128.538">
  <g id="Grupo_963347" data-name="Grupo 963347" transform="translate(-820.376 -1250.052)">
    <path id="Trazado_702233" data-name="Trazado 702233" d="M821.44,1265.755c1.746-4.6,5.034-7.633,7.487-7l.011-.026,70.235,28.406-6.569,17.249-70.235-28.407.012-.029c-2.237-1.171-2.678-5.611-.942-10.193" transform="translate(0 2.102)" fill="#6c5953"/>
    <path id="Trazado_702234" data-name="Trazado 702234" d="M821.472,1265.025c1.8-4.182,4.867-6.869,7.189-6.271l.011-.026,70.235,28.4-3.006,7.9Z" transform="translate(0.267 2.102)" fill="#7e6c69"/>
    <path id="Trazado_702235" data-name="Trazado 702235" d="M877.707,1288.523c-1.807,4.763-1.263,9.389,1.213,10.327s5.951-2.161,7.758-6.927,1.261-9.388-1.215-10.327-5.947,2.163-7.756,6.927" transform="translate(13.723 7.653)" fill="#ceb679"/>
    <path id="Trazado_702236" data-name="Trazado 702236" d="M880.5,1289.17c-.546,1.44-.382,2.839.368,3.122s1.8-.653,2.345-2.094.381-2.84-.368-3.122S881.042,1287.729,880.5,1289.17Zm-1.732-.657c-1.244,3.28-.871,6.465.835,7.11s4.1-1.488,5.343-4.768.868-6.466-.837-7.11S880.008,1285.235,878.764,1288.514Z" transform="translate(14.062 8.19)" fill="none" stroke="#6c5953" stroke-miterlimit="10" stroke-width="0.873"/>
    <path id="Trazado_702237" data-name="Trazado 702237" d="M990.74,1261.92c-1.746-4.6-5.034-7.633-7.487-7l-.012-.026L913.007,1283.3l6.569,17.249,70.235-28.407-.012-.029c2.237-1.17,2.678-5.611.942-10.192" transform="translate(22.594 1.167)" fill="#6c5953"/>
    <path id="Trazado_702238" data-name="Trazado 702238" d="M990.442,1261.191c-1.8-4.182-4.869-6.869-7.188-6.271l-.011-.026-70.235,28.4,3.007,7.9Z" transform="translate(22.594 1.167)" fill="#7e6c69"/>
    <path id="Trazado_702239" data-name="Trazado 702239" d="M921.2,1284.689c1.807,4.763,1.263,9.389-1.213,10.327s-5.951-2.161-7.758-6.927-1.261-9.388,1.215-10.327,5.947,2.163,7.756,6.927" transform="translate(22.144 6.718)" fill="#ceb679"/>
    <path id="Trazado_702240" data-name="Trazado 702240" d="M917.733,1285.336c.546,1.44.382,2.839-.369,3.122s-1.8-.653-2.344-2.094-.381-2.84.368-3.122S917.187,1283.895,917.733,1285.336Zm1.732-.657c1.244,3.28.871,6.464-.835,7.11s-4.1-1.488-5.343-4.768-.868-6.466.837-7.11S918.22,1281.4,919.464,1284.68Z" transform="translate(22.483 7.255)" fill="none" stroke="#6c5953" stroke-miterlimit="10" stroke-width="0.873"/>
    <path id="Trazado_702241" data-name="Trazado 702241" d="M906.444,1305.978c-4.906.4-9.689.814-14.345-1.435-2.08-1-4.431-1.213-6.436-2.333-2.749-1.536-5.6-3.456-5.622-7.32-.02-3.059.852-5.771.439-8.9a19.555,19.555,0,0,0-.94-4.024,6.807,6.807,0,0,1-.76-2.3c1.113.96,2.205,2.15,3.324,3.156,1.095.987,1.918,4.136,3.3,4.371-1.052-1.963-.975-5.443-.8-7.655.262-3.321,1.854-5.121,4.1-6.98,2.188-1.81,3.956-3.637,4.69-6.682.367-1.521.146-5.745,1.839-6.314.745,2.339-.754,7.033,1.081,8.749-.138-4.387,3.784-8.441,6.033-11.544,1.58-2.178,1.177-4.3,1.985-6.717.782.781.958,3.008,1.708,4.135a45.975,45.975,0,0,1,4.01,6.458,18.576,18.576,0,0,1,1.7,9.267c-.123,1.251-1.219,4.877-.428,5.855.705-.735.753-3.5,1.078-4.642.388-1.355,1.738-3.732,1.282-5.075.539,1.076.294,2.657.358,3.86a34.728,34.728,0,0,0,.647,4.385,9.192,9.192,0,0,1-.989,5.6c-.491,1.115-1.892,2.646-1.929,3.882,1.62.261,3.351-1.34,4.438-2.52,1.271-1.378,1.531-3.972,2.748-5.129.723,2.095.453,5.115.453,7.39,0,4.788,3.073,8.546,1.02,13.278-2.357,5.438-8.9,8.766-13.983,9.179" transform="translate(14.245 0)" fill="#f5a12f"/>
    <path id="Trazado_702242" data-name="Trazado 702242" d="M891.155,1300.073c-3.194.393-7.118-3.591-8.36-6.479a12.4,12.4,0,0,1-1.287-4.732c-.048-1.255.481-2.266-.236-3.314,1.2,2.611,4.33,5.325,6.528,6.676.071.1.065.107-.016.019-1-3.876-3.293-9.382-1.622-13.381,1.831-4.382,6.43-5.724,8.681-9.461,1.328.966,1.1,3.008,1.684,4.508,1.311-6.373,4.519-11.783,7.712-17.134.927,3.147,1.647,6.644,2.357,9.921a29.055,29.055,0,0,1,.852,7.6c-.111,1.535-1,2.775-.825,4.3,1.756.24,3.342-2.49,4.479-3.778-.209,1.831-1.569,3.464-2.1,5.283-.48,1.642-.216,3.746-1.317,5.064,2.715.193,4.531-.668,6.58-2.607-.26,2.311,1.417,4.825,1.33,7.477-.142,4.31-.076,6.256-3.726,8.335-3.337,1.9-7.136,2.268-10.811,2.454-2.468.124-8.25.917-10.333-.744Z" transform="translate(14.853 1.64)" fill="#ef802a"/>
    <path id="Trazado_702243" data-name="Trazado 702243" d="M911.7,1286.91c-1.186.963-1.52,3.83-2.768,5.129a20.728,20.728,0,0,1-5.489,3.712c-3.258,1.642-8.285,1.887-11.315-.673-2.029-1.711-1.933-5-2.431-7.223-.81-3.627.561-7.31,4-9.909-.837,2.294.2,3.844,1.646,5.922-1.07-2.159,2.482-5.124,3.679-6.982a25.656,25.656,0,0,0,2.419-3.656c.481-1.166.2-2.511,1.382-3.326-1.463,5.889,6.342,11.786,1.944,17.141a32.975,32.975,0,0,0,3.643-7.391c1.515,2.166,2.2,7.089-.177,9.139,1.244-.448,2.3-1.307,3.487-1.863.092-.1.086-.107-.022-.019" transform="translate(16.852 4.842)" fill="#de5525"/>
    <path id="Trazado_702244" data-name="Trazado 702244" d="M898.165,1293.4c4.971-1.062,9.639-.412,10.734,1.445l.03-.005,25.638,65.269-20.822,5.253-23.633-66.478.032-.006c-.442-2.008,3.044-4.412,8.021-5.478" transform="translate(17.008 10.447)" fill="#6c5953"/>
    <path id="Trazado_702245" data-name="Trazado 702245" d="M897.232,1293.24c4.657-.832,8.894-.157,9.929,1.6l.03,0,25.637,65.268-9.474,2.391Z" transform="translate(18.746 10.448)" fill="#7e6c69"/>
    <path id="Trazado_702246" data-name="Trazado 702246" d="M917.757,1345.477c-5.723,1.435-9.6,4.686-8.605,7.262,1,2.6,6.541,3.516,12.343,2.029,5.764-1.479,9.535-4.755,8.461-7.305-1.063-2.529-6.507-3.412-12.2-1.985" transform="translate(21.615 23.109)" fill="#ceb679"/>
    <path id="Trazado_702247" data-name="Trazado 702247" d="M918.4,1348.363c-1.735.439-2.9,1.424-2.585,2.2s1.973,1.052,3.713.608,2.891-1.432,2.572-2.206S920.13,1347.925,918.4,1348.363Zm-.716-1.78c-3.946.994-6.6,3.232-5.91,5s4.5,2.412,8.484,1.393c3.966-1.014,6.573-3.268,5.84-5.026S921.611,1345.595,917.682,1346.583Z" transform="translate(22.266 23.429)" fill="none" stroke="#6c5953" stroke-miterlimit="10" stroke-width="0.909"/>
  </g>
</svg>
