<svg xmlns="http://www.w3.org/2000/svg" xmlns:xlink="http://www.w3.org/1999/xlink" width="180" height="180" viewBox="0 0 180 180">
  <defs>
    <clipPath id="clip-path">
      <path id="Trazado_702160" data-name="Trazado 702160" d="M619.486,1519.072c-.774.009-1.567.02-2.373.012-7.989-.065-21.485.025-23.163,2.51-2.984,4.419,12.571,39.773-.22,48.252-1.733,1.149-14.2,1.105-26,1.06-11.086-.041-21.581-.083-22.031.865-2.556,5.37-2.507,13.62-2.241,17.291.368,5.083,85.283,0,85.283,0s3.667-53.474,3.263-59.916c-.584-9.318-4.969-10.089-10.757-10.089-.573,0-1.16.008-1.758.016" transform="translate(-543.335 -1519.056)" fill="none"/>
    </clipPath>
  </defs>
  <g id="Grupo_963345" data-name="Grupo 963345" transform="translate(-8814 6423.385)">
    <g id="Elipse_5364" data-name="Elipse 5364" transform="translate(8814 -6423.385)" fill="#fff" stroke="#eb6f2d" stroke-width="7">
      <circle cx="90" cy="90" r="90" stroke="none"/>
      <circle cx="90" cy="90" r="86.5" fill="none"/>
    </g>
    <g id="Grupo_963342" data-name="Grupo 963342" transform="translate(8316.315 -7861.736)">
      <path id="Trazado_702149" data-name="Trazado 702149" d="M567.936,1526.036a14.534,14.534,0,0,1-2.909-.51,1.986,1.986,0,0,0,.97,1.219,1.017,1.017,0,0,0,1.352-.461m-17.122,1.291a4.69,4.69,0,0,0,.189-1.546l-1.263.386a3.382,3.382,0,0,0,1.428.885m1.027,5.438q-1.806,1.238-3.645,2.427l1.223-3.364c.055-.151.135-.325.292-.355a.478.478,0,0,1,.331.109l1.9,1.219m6.625-8.025a5.7,5.7,0,0,1,.4-2.943A14.079,14.079,0,0,0,554.7,1523l3.621,1.092m7.4,10.056-5.089.6a29.068,29.068,0,0,1,2.763,2.224,5.366,5.366,0,0,1,2.093-2.305" transform="translate(-1.594 -14.698)" fill="none" stroke="#634e42" stroke-linecap="round" stroke-miterlimit="10" stroke-width="0.491"/>
      <path id="Trazado_702150" data-name="Trazado 702150" d="M552,1542.947c.089-.086-.091-.228-.191-.157a.382.382,0,0,0-.1.34m15.3-20.188a.352.352,0,0,0-.294.444.375.375,0,0,0,.278-.449m-11.642,7.565c-.05.333.059.827.388.759a.3.3,0,0,0,.055-.533.355.355,0,0,0-.482.323.432.432,0,0,0,.484.385m-7.831,9.666a1.009,1.009,0,0,0,.08-.824.3.3,0,1,0,.02.583m-.149,2.715a1.534,1.534,0,0,0-.416-.918c-.265-.219-.766-.157-.841.178l.781.3m17.5-1.594a.708.708,0,0,0-.081-.616l-.189.757.6.029m-2.31,2.336a.781.781,0,0,0-.99-.405l.457.275m-8.116-6.095a.933.933,0,0,0-.1-.726.437.437,0,0,0-.651-.079c-.163.193.083.565.3.439m-7.982-13.106a.555.555,0,0,0-.445-.589.326.326,0,0,0-.17.389.484.484,0,0,0,.451.056m16.544-.175a.426.426,0,0,0-.073-.435c-.3.315.165.932.55.73m-3.775,6.648a1.1,1.1,0,0,0-.295-.9,1.747,1.747,0,0,0-.326.9m9.771.472h-.158m-11.712,13.417a10.385,10.385,0,0,0-.686-2.209,4.348,4.348,0,0,1-1.111,1.607l1.7.342" transform="translate(-0.657 -15.087)" fill="none" stroke="#634e42" stroke-linecap="round" stroke-miterlimit="10" stroke-width="0.246"/>
      <path id="Trazado_702151" data-name="Trazado 702151" d="M568.322,1520.541s1.033,17.563.292,22.292-24.73,4.1-24.73,4.1-.8-20.983.405-25.514C544.813,1519.445,568.322,1520.541,568.322,1520.541Z" transform="translate(-0.1 -14.157)" fill="none" stroke="#634e42" stroke-linecap="round" stroke-miterlimit="10" stroke-width="2"/>
      <g id="Grupo_963341" data-name="Grupo 963341" transform="translate(543.335 1505.306)">
        <g id="Grupo_963340" data-name="Grupo 963340" clip-path="url(#clip-path)">
          <path id="Trazado_702152" data-name="Trazado 702152" d="M613.612,1614.3l.177-1.119a3.251,3.251,0,0,0-1.677.389,2.481,2.481,0,0,0,1.621,1.369l.244-1.115m33.2,4.188q-.023-.63-.046-1.259a3.4,3.4,0,0,0-2.356.5,3.071,3.071,0,0,0,2.856,1.156m-6.269-13.585a14.837,14.837,0,0,1-2.97-.521,2.029,2.029,0,0,0,.99,1.246,1.04,1.04,0,0,0,1.381-.471m-17.488,1.319a4.823,4.823,0,0,0,.193-1.58l-1.29.394a3.455,3.455,0,0,0,1.459.9m26.959,2.07a12.487,12.487,0,0,0-.413-3.091,11.385,11.385,0,0,1-3.288.943,10.9,10.9,0,0,0,4,2.229m3.574,16.935a6.81,6.81,0,0,1-1.923-3.222,7.61,7.61,0,0,0-3.029,3.363,17.1,17.1,0,0,0,4.414.38m-29.242-14.051q-1.845,1.265-3.724,2.479l1.25-3.436c.056-.155.138-.332.3-.363a.489.489,0,0,1,.338.112l1.938,1.245m-7.808,12.913a17.447,17.447,0,0,1,.069-4.748,2.391,2.391,0,0,1-1.243,1.187l-3.869,2.185a17.245,17.245,0,0,1,4.935,1.067m14.683-20.8a5.819,5.819,0,0,1,.409-3.006,14.357,14.357,0,0,0-4.113,1.215l3.7,1.116m7.555,10.273-5.2.616a29.761,29.761,0,0,1,2.822,2.272,5.483,5.483,0,0,1,2.137-2.355m-24.072-9.486q-.342-.948-.684-1.9a9.879,9.879,0,0,0-2.573,1.627,5.958,5.958,0,0,0,3.733,1.065" transform="translate(-566.824 -1547.11)" fill="none" stroke="#634e42" stroke-linecap="round" stroke-miterlimit="10" stroke-width="0.491"/>
          <path id="Trazado_702153" data-name="Trazado 702153" d="M624.879,1622.1c.091-.087-.092-.232-.2-.159a.388.388,0,0,0-.1.347m15.618-20.613a.359.359,0,0,0-.3.453.383.383,0,0,0,.283-.459m-31.594.974-.2-.651a.68.68,0,0,0-.089.947m2.93,5.608c-.128-.086-.012-.335.136-.291m16.928,1.137c-.052.34.06.845.4.775a.306.306,0,0,0,.056-.544.362.362,0,0,0-.492.329.44.44,0,0,0,.494.393m13.063,4.7a1.166,1.166,0,0,0,.778-.827m5.355-11.606a.35.35,0,0,0-.492-.094l.305.28m8.38,18.383a3.086,3.086,0,0,1-1-.417c-.235.2.078.671.355.53m-46.7-.462a.392.392,0,0,0-.464.275.532.532,0,0,0,.636-.106m.471-11.286a.286.286,0,0,0-.155-.33l-.475.208,0,.44a.673.673,0,0,0,.618-.484m6.633,9.021q-.026-.249-.05-.5a.425.425,0,0,0,.03.662m4.721,1.478a1.027,1.027,0,0,0,.082-.841.3.3,0,1,0,.02.594m-.153,2.772a1.563,1.563,0,0,0-.425-.938c-.27-.223-.782-.161-.858.181l.8.31m25.594-10.185a.353.353,0,0,0,.042-.478l-.472.033a.341.341,0,0,0,.127.467m7.742.486a3.5,3.5,0,0,0-.3-1.513.634.634,0,0,0-.1.812m-1.061-7.2c.163.013.164-.309,0-.3m-1.785,11.425a.384.384,0,0,0-.478-.137,1.941,1.941,0,0,0,.668.767.341.341,0,0,0,.121-.459m-12.237,4.653a.721.721,0,0,0-.083-.629l-.193.773.615.03m-2.358,2.385a.8.8,0,0,0-1.012-.415l.467.281m-8.287-6.224a.949.949,0,0,0-.1-.741.446.446,0,0,0-.665-.081c-.166.2.085.576.307.448m-10.422-6.791a.366.366,0,0,0,.127-.474.28.28,0,0,0,.052.456m2.093-6.572a.567.567,0,0,0-.454-.6.334.334,0,0,0-.174.4.493.493,0,0,0,.46.057m16.893-.178a.435.435,0,0,0-.075-.444c-.306.321.169.95.562.745m7.59.989c.048-.113.091-.259,0-.344s-.26.1-.143.137m-11.3,6.005a1.117,1.117,0,0,0-.3-.92,1.782,1.782,0,0,0-.332.923m9.977.482h-.161m-11.959,13.7a10.6,10.6,0,0,0-.7-2.256,4.434,4.434,0,0,1-1.135,1.64l1.732.349" transform="translate(-565.658 -1547.509)" fill="none" stroke="#634e42" stroke-linecap="round" stroke-miterlimit="10" stroke-width="0.246"/>
          <path id="Trazado_702154" data-name="Trazado 702154" d="M617.872,1537.608l.177-1.119a3.25,3.25,0,0,0-1.677.389,2.482,2.482,0,0,0,1.621,1.369l.244-1.115m33.2,4.188q-.023-.631-.046-1.26a3.4,3.4,0,0,0-2.355.5,3.069,3.069,0,0,0,2.855,1.156m-6.269-13.585a14.87,14.87,0,0,1-2.971-.522,2.028,2.028,0,0,0,.99,1.246,1.039,1.039,0,0,0,1.381-.471m-17.488,1.319a4.8,4.8,0,0,0,.193-1.58l-1.289.394a3.449,3.449,0,0,0,1.459.9m26.959,2.07a12.545,12.545,0,0,0-.413-3.091,11.4,11.4,0,0,1-3.289.943,10.9,10.9,0,0,0,4,2.229m3.575,16.935a6.811,6.811,0,0,1-1.923-3.222,7.605,7.605,0,0,0-3.029,3.363,17.1,17.1,0,0,0,4.413.38m-29.242-14.051q-1.845,1.265-3.723,2.48.624-1.719,1.25-3.437c.056-.155.138-.332.3-.363a.487.487,0,0,1,.338.111l1.938,1.245m-7.807,12.914a17.393,17.393,0,0,1,.069-4.748,2.4,2.4,0,0,1-1.244,1.187l-3.869,2.185a17.227,17.227,0,0,1,4.935,1.067m14.684-20.8a5.82,5.82,0,0,1,.408-3.007,14.362,14.362,0,0,0-4.113,1.215l3.7,1.116m7.554,10.273-5.2.616a29.724,29.724,0,0,1,2.822,2.272,5.486,5.486,0,0,1,2.137-2.355m-24.072-9.486q-.342-.948-.684-1.9a9.882,9.882,0,0,0-2.573,1.627,5.959,5.959,0,0,0,3.733,1.065" transform="translate(-568.291 -1520.695)" fill="none" stroke="#634e42" stroke-linecap="round" stroke-miterlimit="10" stroke-width="0.491"/>
          <path id="Trazado_702155" data-name="Trazado 702155" d="M629.14,1545.4c.091-.087-.092-.232-.2-.159a.386.386,0,0,0-.1.347m12.224,4.021c.013-.163-.309-.164-.3,0m3.689-24.634a.359.359,0,0,0-.3.453.382.382,0,0,0,.283-.458m-31.594.974-.2-.651a.68.68,0,0,0-.089.947m2.93,5.608c-.128-.086-.012-.335.136-.291m13.28,18.327a.623.623,0,0,0,.726.841m2.922-18.03c-.052.339.06.844.4.776a.307.307,0,0,0,.056-.544.362.362,0,0,0-.492.329.44.44,0,0,0,.494.393m13.063,4.7a1.166,1.166,0,0,0,.778-.827m5.355-11.606a.35.35,0,0,0-.492-.094l.306.28M648,1548.153l-.394.03c-.048.374.633.516.74.155m-35.3-4.2a.392.392,0,0,0-.464.275.532.532,0,0,0,.636-.106m.471-11.286a.286.286,0,0,0-.155-.33l-.475.208,0,.44a.673.673,0,0,0,.618-.484m6.633,9.021c-.017-.166-.033-.333-.05-.5a.426.426,0,0,0,.031.662m4.721,1.478a1.028,1.028,0,0,0,.082-.841.3.3,0,1,0,.02.595m-.153,2.772a1.563,1.563,0,0,0-.425-.937c-.27-.224-.782-.161-.858.181l.8.309m25.594-10.185a.354.354,0,0,0,.042-.478l-.472.034a.34.34,0,0,0,.127.467m7.742.486a3.518,3.518,0,0,0-.3-1.513.633.633,0,0,0-.1.812m-1.061-7.2c.163.013.164-.309,0-.3m-1.785,11.425a.383.383,0,0,0-.478-.137,1.944,1.944,0,0,0,.667.766.341.341,0,0,0,.121-.459m-12.237,4.653a.722.722,0,0,0-.083-.629l-.193.773.615.031m-2.358,2.384a.8.8,0,0,0-1.012-.414l.467.281m-8.287-6.223a.953.953,0,0,0-.1-.741.446.446,0,0,0-.665-.081c-.166.2.085.576.307.448m-10.422-6.791a.367.367,0,0,0,.127-.475.28.28,0,0,0,.052.456m2.093-6.572a.567.567,0,0,0-.454-.6.334.334,0,0,0-.174.4.493.493,0,0,0,.46.057m16.894-.178a.437.437,0,0,0-.075-.445c-.306.322.168.951.562.746m7.59.989c.048-.113.091-.259,0-.344s-.26.1-.144.137m-11.3,6.005a1.116,1.116,0,0,0-.3-.92,1.783,1.783,0,0,0-.332.922m9.977.483h-.161m-11.959,13.7a10.606,10.606,0,0,0-.7-2.256,4.433,4.433,0,0,1-1.135,1.64l1.732.349" transform="translate(-567.125 -1521.094)" fill="none" stroke="#634e42" stroke-linecap="round" stroke-miterlimit="10" stroke-width="0.246"/>
          <path id="Trazado_702156" data-name="Trazado 702156" d="M618.806,1578.693l.177-1.119a3.251,3.251,0,0,0-1.677.389,2.482,2.482,0,0,0,1.621,1.369l.244-1.115m33.2,4.188q-.024-.629-.046-1.259a3.4,3.4,0,0,0-2.355.5,3.07,3.07,0,0,0,2.855,1.156m-6.269-13.585a14.81,14.81,0,0,1-2.971-.521,2.028,2.028,0,0,0,.99,1.246,1.039,1.039,0,0,0,1.381-.471m-17.488,1.319a4.806,4.806,0,0,0,.193-1.58l-1.29.394a3.448,3.448,0,0,0,1.459.9m26.959,2.07a12.55,12.55,0,0,0-.413-3.091,11.393,11.393,0,0,1-3.289.943,10.905,10.905,0,0,0,4,2.229m3.575,16.935a6.812,6.812,0,0,1-1.923-3.222,7.606,7.606,0,0,0-3.029,3.363,17.1,17.1,0,0,0,4.413.379m-29.242-14.051q-1.845,1.265-3.723,2.479.624-1.718,1.25-3.436c.056-.155.138-.332.3-.363a.487.487,0,0,1,.338.112l1.938,1.245m-7.807,12.914a17.423,17.423,0,0,1,.069-4.748,2.391,2.391,0,0,1-1.244,1.187l-3.869,2.185a17.228,17.228,0,0,1,4.935,1.066m14.684-20.8a5.818,5.818,0,0,1,.408-3.006,14.383,14.383,0,0,0-4.113,1.215l3.7,1.116m7.554,10.273-5.2.616a29.762,29.762,0,0,1,2.822,2.272,5.487,5.487,0,0,1,2.137-2.355m-24.071-9.486q-.342-.948-.684-1.9a9.875,9.875,0,0,0-2.573,1.627,5.959,5.959,0,0,0,3.733,1.065" transform="translate(-568.613 -1534.845)" fill="none" stroke="#634e42" stroke-linecap="round" stroke-miterlimit="10" stroke-width="0.491"/>
          <path id="Trazado_702157" data-name="Trazado 702157" d="M630.073,1586.488c.091-.087-.092-.232-.2-.159a.387.387,0,0,0-.1.347M642,1590.7c.013-.163-.309-.164-.3,0m3.69-24.634a.36.36,0,0,0-.3.454.383.383,0,0,0,.283-.459m-31.594.974-.2-.651a.68.68,0,0,0-.089.947m2.93,5.609c-.128-.086-.012-.335.136-.291m13.28,18.327a.623.623,0,0,0,.726.84m2.922-18.03c-.052.34.06.845.4.776a.307.307,0,0,0,.056-.544.362.362,0,0,0-.492.329.44.44,0,0,0,.494.393m13.063,4.7a1.166,1.166,0,0,0,.778-.827M653.138,1567a.35.35,0,0,0-.492-.094l.305.28m-4.017,22.047-.394.03c-.048.374.633.517.74.155m-35.3-4.2a.392.392,0,0,0-.464.275.532.532,0,0,0,.636-.106m.471-11.286a.286.286,0,0,0-.155-.33l-.475.208,0,.44a.673.673,0,0,0,.618-.484m6.633,9.021q-.025-.249-.05-.5a.425.425,0,0,0,.03.662m4.721,1.478a1.028,1.028,0,0,0,.082-.841.3.3,0,1,0,.02.595m-.153,2.772a1.563,1.563,0,0,0-.425-.938c-.27-.224-.782-.161-.858.182l.8.309m25.594-10.185a.353.353,0,0,0,.042-.478l-.472.033a.34.34,0,0,0,.127.467m7.742.486a3.52,3.52,0,0,0-.3-1.513.634.634,0,0,0-.1.812m-1.061-7.2c.163.013.164-.309,0-.3m-1.785,11.425a.384.384,0,0,0-.478-.137,1.94,1.94,0,0,0,.668.766.341.341,0,0,0,.121-.459m-12.237,4.653a.721.721,0,0,0-.083-.629l-.193.774.615.03m-2.358,2.385a.8.8,0,0,0-1.012-.414l.467.28m-8.287-6.223a.953.953,0,0,0-.1-.741.447.447,0,0,0-.665-.081c-.166.2.085.576.307.448m-10.422-6.791a.366.366,0,0,0,.126-.474.28.28,0,0,0,.052.456m2.093-6.572a.567.567,0,0,0-.454-.6.334.334,0,0,0-.174.4.492.492,0,0,0,.46.057m16.894-.178a.435.435,0,0,0-.075-.445c-.306.321.168.951.562.745m7.59.989c.048-.113.09-.259,0-.344s-.26.1-.143.137m-11.3,6.005a1.118,1.118,0,0,0-.3-.921,1.784,1.784,0,0,0-.332.922m9.977.482h-.161m-11.959,13.7a10.575,10.575,0,0,0-.7-2.256,4.434,4.434,0,0,1-1.135,1.64l1.732.349" transform="translate(-567.447 -1535.244)" fill="none" stroke="#634e42" stroke-linecap="round" stroke-miterlimit="10" stroke-width="0.246"/>
          <path id="Trazado_702158" data-name="Trazado 702158" d="M550.992,1611.975l.177-1.119a3.251,3.251,0,0,0-1.677.39,2.485,2.485,0,0,0,1.621,1.369l.244-1.115m33.2,4.188q-.023-.63-.046-1.259a3.4,3.4,0,0,0-2.355.5,3.069,3.069,0,0,0,2.855,1.156m-6.269-13.586a14.826,14.826,0,0,1-2.971-.521,2.028,2.028,0,0,0,.99,1.245,1.039,1.039,0,0,0,1.381-.471m-17.488,1.319a4.805,4.805,0,0,0,.193-1.58l-1.289.394a3.448,3.448,0,0,0,1.459.9m26.959,2.07a12.542,12.542,0,0,0-.413-3.091,11.4,11.4,0,0,1-3.289.943,10.9,10.9,0,0,0,4,2.229m3.575,16.935a6.81,6.81,0,0,1-1.923-3.222,7.606,7.606,0,0,0-3.029,3.363,17.1,17.1,0,0,0,4.413.38m-29.242-14.051q-1.845,1.265-3.723,2.479.624-1.718,1.25-3.436c.056-.155.138-.332.3-.363a.486.486,0,0,1,.338.111l1.938,1.245m-7.807,12.914a17.419,17.419,0,0,1,.069-4.748,2.393,2.393,0,0,1-1.244,1.187l-3.869,2.185a17.231,17.231,0,0,1,4.935,1.067m14.684-20.8a5.817,5.817,0,0,1,.408-3.006,14.363,14.363,0,0,0-4.113,1.215l3.7,1.116m7.554,10.273-5.2.616a29.609,29.609,0,0,1,2.822,2.272,5.485,5.485,0,0,1,2.137-2.355m-24.072-9.486q-.342-.948-.684-1.9a9.893,9.893,0,0,0-2.572,1.627,5.958,5.958,0,0,0,3.733,1.065" transform="translate(-545.256 -1546.308)" fill="none" stroke="#634e42" stroke-linecap="round" stroke-miterlimit="10" stroke-width="0.491"/>
          <path id="Trazado_702159" data-name="Trazado 702159" d="M562.259,1619.77c.091-.087-.092-.232-.2-.159a.387.387,0,0,0-.1.347m15.618-20.613a.36.36,0,0,0-.3.454.383.383,0,0,0,.283-.459m-31.594.974-.2-.651a.68.68,0,0,0-.089.947m2.93,5.609c-.128-.086-.012-.335.136-.291m16.928,1.137c-.052.34.06.845.4.776a.307.307,0,0,0,.056-.544.362.362,0,0,0-.492.329.44.44,0,0,0,.494.393m13.064,4.7a1.166,1.166,0,0,0,.778-.827m5.355-11.606a.35.35,0,0,0-.492-.094l.306.28m8.38,18.383a3.091,3.091,0,0,1-1-.417c-.235.2.078.671.355.53m-11.749,3.551-.394.03c-.048.374.633.517.74.155m-35.3-4.2a.392.392,0,0,0-.464.275.532.532,0,0,0,.636-.106m.471-11.286a.286.286,0,0,0-.155-.33l-.475.208,0,.44a.673.673,0,0,0,.618-.484m6.633,9.021q-.026-.249-.05-.5a.425.425,0,0,0,.03.662m4.721,1.478a1.027,1.027,0,0,0,.082-.841.3.3,0,1,0,.02.595m-.153,2.772a1.562,1.562,0,0,0-.425-.938c-.27-.224-.782-.161-.858.181l.8.31m25.594-10.185a.355.355,0,0,0,.042-.479l-.472.034a.34.34,0,0,0,.127.467m7.742.486a3.521,3.521,0,0,0-.295-1.513.633.633,0,0,0-.1.812m-1.061-7.2c.163.013.164-.309,0-.3m-1.785,11.425a.384.384,0,0,0-.478-.137,1.938,1.938,0,0,0,.668.766.34.34,0,0,0,.12-.459m-12.236,4.653a.722.722,0,0,0-.083-.629l-.193.774.615.03m-2.359,2.385a.8.8,0,0,0-1.011-.414l.467.281m-8.287-6.223a.953.953,0,0,0-.1-.742.446.446,0,0,0-.665-.081c-.166.2.085.576.307.448m-10.422-6.791a.366.366,0,0,0,.127-.474.28.28,0,0,0,.052.456m2.093-6.572a.567.567,0,0,0-.454-.6.333.333,0,0,0-.174.4.492.492,0,0,0,.46.057m16.893-.178a.436.436,0,0,0-.075-.445c-.306.321.169.951.562.745m7.59.989c.048-.113.091-.259,0-.344s-.26.1-.143.137m-11.3,6.005a1.117,1.117,0,0,0-.3-.921,1.782,1.782,0,0,0-.332.922m9.977.483h-.161m-11.959,13.7a10.6,10.6,0,0,0-.7-2.256,4.432,4.432,0,0,1-1.135,1.64l1.732.349" transform="translate(-544.09 -1546.707)" fill="none" stroke="#634e42" stroke-linecap="round" stroke-miterlimit="10" stroke-width="0.246"/>
        </g>
      </g>
      <path id="Trazado_702161" data-name="Trazado 702161" d="M632,1529.163c-.717-11.431-7.152-9.995-14.885-10.058-7.986-.066-21.477.024-23.156,2.509-2.983,4.417,12.568,39.757-.22,48.235-3.36,2.228-47.087-.033-48.018,1.923-2.555,5.368-2.506,13.614-2.24,17.284.368,5.081,85.256,0,85.256,0S632.4,1535.6,632,1529.163Z" transform="translate(-0.007 -13.758)" fill="none" stroke="#634e42" stroke-miterlimit="10" stroke-width="2"/>
      <path id="Trazado_702162" data-name="Trazado 702162" d="M576.514,1505.381H608.5a1.432,1.432,0,0,0,1.432-1.432v-23.384a1.432,1.432,0,0,0-1.432-1.432h-31.99a1.432,1.432,0,0,0-1.432,1.432v23.384a1.432,1.432,0,0,0,1.432,1.432" transform="translate(-10.934 0)" fill="#a7a9ab"/>
      <rect id="Rectángulo_337973" data-name="Rectángulo 337973" width="34.853" height="26.248" rx="2.184" transform="translate(564.148 1479.133)" fill="none" stroke="#1d1d1b" stroke-miterlimit="10" stroke-width="0.983"/>
      <rect id="Rectángulo_337974" data-name="Rectángulo 337974" width="3.142" height="25.659" transform="translate(593.171 1479.436)" fill="#fff"/>
      <rect id="Rectángulo_337975" data-name="Rectángulo 337975" width="1.179" height="25.659" transform="translate(591.347 1479.436)" fill="#fff"/>
      <path id="Trazado_702163" data-name="Trazado 702163" d="M574.278,1484.208l-3.861-.58m37.339.58,3.861-.58" transform="translate(-9.328 -1.548)" fill="none" stroke="#1d1d1b" stroke-linecap="round" stroke-miterlimit="10" stroke-width="3.931"/>
      <path id="Trazado_702164" data-name="Trazado 702164" d="M596.565,1567.384c-2.65.385-5.232.774-7.837-.287-1.164-.474-2.448-.507-3.574-1.047-1.545-.74-3.158-1.684-3.3-3.781-.115-1.66.266-3.162-.066-4.844a10.61,10.61,0,0,0-.648-2.152,3.723,3.723,0,0,1-.492-1.223c.637.482,1.271,1.091,1.913,1.6s1.183,2.179,1.942,2.26a8.749,8.749,0,0,1-.7-4.129,5.094,5.094,0,0,1,1.987-3.929,6.555,6.555,0,0,0,2.317-3.789c.147-.838-.118-3.124.782-3.492.484,1.244-.168,3.844.886,4.713-.226-2.377,1.765-4.713,2.879-6.474.783-1.237.492-2.375.848-3.715.451.4.622,1.6,1.069,2.186a24.989,24.989,0,0,1,2.4,3.369,10.113,10.113,0,0,1,1.24,4.973c-.024.683-.5,2.689-.032,3.194.357-.424.289-1.929.426-2.557.164-.749.816-2.085.523-2.8a5.678,5.678,0,0,1,.327,2.083,18.847,18.847,0,0,0,.5,2.358,5.01,5.01,0,0,1-.345,3.077c-.229.621-.937,1.5-.915,2.173.888.087,1.773-.842,2.323-1.52.643-.792.695-2.208,1.316-2.878a13.641,13.641,0,0,1,.5,4c.165,2.6,1.961,4.535,1.01,7.174-1.094,3.033-4.534,5.063-7.277,5.462" transform="translate(-12.85 -19.963)" fill="#f5a12f"/>
      <path id="Trazado_702165" data-name="Trazado 702165" d="M589.468,1567.948c-1.72.323-3.988-1.706-4.761-3.231a6.738,6.738,0,0,1-.861-2.525c-.07-.68.183-1.247-.243-1.791a10.063,10.063,0,0,0,3.773,3.4c.042.052.039.056-.009.011-.676-2.07-2.108-4.98-1.339-7.209.844-2.442,3.294-3.328,4.388-5.435.755.479.7,1.6,1.069,2.39.493-3.5,2.049-6.552,3.6-9.567.611,1.677,1.122,3.551,1.621,5.306a15.807,15.807,0,0,1,.722,4.094c-.007.838-.449,1.542-.3,2.361.962.07,1.729-1.467,2.3-2.2-.051,1-.733,1.935-.959,2.94-.2.907.011,2.041-.541,2.794a4.3,4.3,0,0,0,3.484-1.641c-.062,1.264.934,2.571.977,4.014.072,2.345.174,3.4-1.737,4.653a12.926,12.926,0,0,1-5.784,1.7c-1.336.153-4.447.781-5.635-.05Z" transform="translate(-13.87 -22.339)" fill="#ef802a"/>
      <path id="Trazado_702166" data-name="Trazado 702166" d="M604.33,1566.414c-.61.564-.694,2.131-1.327,2.88a11.27,11.27,0,0,1-2.853,2.2c-1.712,1-4.432,1.308-6.166.022-1.16-.859-1.221-2.647-1.567-3.838a5.219,5.219,0,0,1,1.832-5.517c-.375,1.274.243,2.079,1.1,3.158-.654-1.136,1.171-2.867,1.758-3.916a14,14,0,0,0,1.189-2.068c.221-.65.02-1.371.636-1.854-.592,3.247,3.846,6.181,1.644,9.239a17.951,17.951,0,0,0,1.724-4.137c.9,1.124,1.438,3.773.217,4.967.661-.286,1.2-.788,1.829-1.13.048-.058.043-.061-.013-.01" transform="translate(-16.836 -26.986)" fill="#de5525"/>
      <path id="Trazado_702167" data-name="Trazado 702167" d="M584.542,1584.311c-.017,1.014,2.012,1.059,2.682,1.055a3.029,3.029,0,0,0,1.705-.3c.48-.357.307-1.452.092-1.948a4.112,4.112,0,0,0-.423-.74,2.157,2.157,0,0,0-.542-.553c-.922-.589-1.708-.113-2.348.621a10.62,10.62,0,0,0-.808.978,1.747,1.747,0,0,0-.358.887" transform="translate(-14.193 -35.278)" fill="#6a705e"/>
      <path id="Trazado_702168" data-name="Trazado 702168" d="M585.087,1583.424c.123.69.566.943,1.4,1.021a2.618,2.618,0,0,0,1.9-.255,1.667,1.667,0,0,0,.4-1.811,2.142,2.142,0,0,0-.543-.554c-.922-.589-1.708-.113-2.348.621a10.62,10.62,0,0,0-.808.978" transform="translate(-14.38 -35.278)" fill="#81857a"/>
      <path id="Trazado_702169" data-name="Trazado 702169" d="M588.682,1582.238c.06-.06.185-.028.253,0a.42.42,0,0,1,.208.265.141.141,0,0,1-.068.161.493.493,0,0,1-.452.051c-.148-.067-.209-.258-.254-.395a.169.169,0,0,1,.123-.208.608.608,0,0,1,.456.069c.115.079.26.26.2.4a.167.167,0,0,1-.24.094.3.3,0,0,1-.113-.149.2.2,0,0,0-.052-.064c.021.018-.026-.014-.026-.014.024.012-.033-.009-.033-.009a.453.453,0,0,0-.145,0l.171-.214a1.386,1.386,0,0,0,.052.161c-.007-.016.02.034.017.029a.272.272,0,0,0,.018.028c-.01-.012-.009-.012,0,0-.026-.026.022.009-.013,0,.018,0,.018.005,0,0a.187.187,0,0,0,.032,0c-.026,0,.033-.007.033-.007a.442.442,0,0,0,.073-.024c-.023.054-.045.108-.068.161a.334.334,0,0,0-.1-.18c-.037-.038-.138-.1-.077-.163" transform="translate(-15.508 -35.464)" fill="#9a9d9a"/>
      <path id="Trazado_702170" data-name="Trazado 702170" d="M588.013,1583.082a.277.277,0,0,1,.056.058.114.114,0,0,1,.011.1.086.086,0,0,1-.082.06.087.087,0,0,1-.082-.06l0-.007v0l0-.006c0-.008,0-.015,0-.023s0,0,0,.014l0-.008c.01.026.008.018,0,.01s-.013-.016,0,0l-.023-.026a.082.082,0,0,1,0-.116.089.089,0,0,1,.121,0" transform="translate(-15.338 -35.794)" fill="#9a9d9a"/>
      <path id="Trazado_702171" data-name="Trazado 702171" d="M581.856,1583.357a2.629,2.629,0,0,0,.2.311c.686.928,1.706.808,2.736.354a3.327,3.327,0,0,0,1.64-1.1,1.489,1.489,0,0,0-.2-1.314,3.607,3.607,0,0,0-.619-.844,4.965,4.965,0,0,0-.789-.613,2.5,2.5,0,0,0-.827-.356c-1.239-.224-1.836.648-2.157,1.735a5.212,5.212,0,0,0-.22.858,1.559,1.559,0,0,0,.241.965" transform="translate(-13.182 -34.66)" fill="#6a705e"/>
      <path id="Trazado_702172" data-name="Trazado 702172" d="M581.62,1582.392a2.646,2.646,0,0,0,1.73.858,3.123,3.123,0,0,0,2.354-.807,1.591,1.591,0,0,0,.527-.831,3.606,3.606,0,0,0-.62-.844,4.935,4.935,0,0,0-.789-.613,2.493,2.493,0,0,0-.826-.356c-1.239-.224-1.836.648-2.158,1.735a5.274,5.274,0,0,0-.219.858" transform="translate(-13.186 -34.66)" fill="#81857a"/>
      <path id="Trazado_702173" data-name="Trazado 702173" d="M584.489,1580.52c.062-.178.3-.168.435-.089a.32.32,0,0,1,.109.384.382.382,0,0,1-.367.228.6.6,0,0,1-.439-.307.216.216,0,0,1,.033-.3.586.586,0,0,1,.5-.117c.138.037.346.174.353.328a.2.2,0,0,1-.17.225.29.29,0,0,1-.224-.073l-.047-.035-.03-.02c.024.012.024.013,0,0s-.062-.016-.01-.006q-.036,0,0,0l-.038,0c-.062.009.039-.016-.028.008a.632.632,0,0,0-.1.048c.028-.109.054-.219.082-.328a.829.829,0,0,0,.112.15c-.03-.031.021.012.029.018-.043-.028,0,0,.018,0-.064-.021.04-.007-.033,0,.053,0-.031.014,0,0s-.045.034,0,0c.014-.01-.027.038,0-.007-.035.053-.01.015,0,0,.021-.042,0,.031,0,0s.007.047,0,0c0,.017.019.043.012.034s.005,0,.014.007c-.043-.023.011.009-.052-.018a.366.366,0,0,1-.159-.089.054.054,0,0,1-.008-.052" transform="translate(-14.069 -34.845)" fill="#9a9d9a"/>
      <path id="Trazado_702174" data-name="Trazado 702174" d="M586.121,1581.215h.014c-.024,0,.011,0,.02,0l-.042.018a.133.133,0,0,1,.139-.021.2.2,0,0,1,.037.021c-.018-.009-.022-.012-.013-.009a.143.143,0,0,1,.057.042.2.2,0,0,1-.021.25.15.15,0,0,1-.174.05.448.448,0,0,1-.166-.11.156.156,0,0,1-.026-.159.146.146,0,0,1,.218-.062.14.14,0,0,1,.005.219h0l.043-.057h0c0-.024.006-.047.009-.071h0l-.056-.094c-.031-.014-.04-.02-.027-.015a.111.111,0,0,1,.04.023c.008.007.018.012.026.019l.034.023-.01-.006.022.011-.174.05.02-.026c.006-.009.019-.037,0,0,0,.008,0,.015-.005.023a.123.123,0,0,1,.009-.04.161.161,0,0,1,.043-.059l-.04.055,0-.007,0,.1c-.009-.029.016.019,0,0a.116.116,0,0,1-.018-.117l0,0,.014.088a.154.154,0,0,1-.019-.029c.007.016,0,0,0,0a.065.065,0,0,1,.041-.1" transform="translate(-14.672 -35.153)" fill="#9a9d9a"/>
      <path id="Trazado_702175" data-name="Trazado 702175" d="M613.057,1580.352a3.343,3.343,0,0,0,.238.415c.844,1.245,2.18,1.142,3.546.606a4.337,4.337,0,0,0,2.193-1.341,1.944,1.944,0,0,0-.191-1.722,4.712,4.712,0,0,0-.762-1.131,6.471,6.471,0,0,0-.995-.84,3.269,3.269,0,0,0-1.058-.507c-1.6-.357-2.425.747-2.9,2.146a6.826,6.826,0,0,0-.33,1.106,2.03,2.03,0,0,0,.262,1.27" transform="translate(-23.917 -33.282)" fill="#6a705e"/>
      <path id="Trazado_702176" data-name="Trazado 702176" d="M612.8,1579.083a3.448,3.448,0,0,0,2.208,1.209,4.071,4.071,0,0,0,3.109-.926,2.078,2.078,0,0,0,.731-1.056,4.7,4.7,0,0,0-.762-1.132,6.446,6.446,0,0,0-.995-.84,3.282,3.282,0,0,0-1.058-.508c-1.6-.357-2.425.747-2.9,2.146a6.93,6.93,0,0,0-.33,1.107" transform="translate(-23.927 -33.282)" fill="#81857a"/>
      <path id="Trazado_702177" data-name="Trazado 702177" d="M616.706,1576.753c.089-.23.4-.2.571-.093a.418.418,0,0,1,.122.506.5.5,0,0,1-.49.277.777.777,0,0,1-.555-.423.28.28,0,0,1,.058-.388.764.764,0,0,1,.661-.127c.178.055.441.245.443.447a.266.266,0,0,1-.234.285.377.377,0,0,1-.286-.108c-.019-.017-.039-.033-.058-.048l-.039-.028c.03.017.031.018,0,0s-.079-.024-.014-.009c-.032,0-.03-.005.005,0a.408.408,0,0,0-.05,0c-.081.009.051-.019-.037.009a.866.866,0,0,0-.13.058l.123-.424a1.122,1.122,0,0,0,.138.2c-.037-.042.027.018.037.025-.054-.039,0,0,.023.007-.082-.031.052-.007-.043-.007.069,0-.041.016,0,0s-.059.042,0,0c.018-.013-.037.048,0-.009-.048.067-.014.02,0,0,.029-.054-.007.041,0,0s.007.062,0,0c0,.022.023.057.014.044s.006,0,.018.01c-.055-.032.014.012-.067-.026a.47.47,0,0,1-.2-.124.068.068,0,0,1-.008-.069" transform="translate(-25.132 -33.527)" fill="#9a9d9a"/>
      <path id="Trazado_702178" data-name="Trazado 702178" d="M618.8,1577.74h.018c-.031,0,.014,0,.025,0l-.054.021a.175.175,0,0,1,.182-.02.339.339,0,0,1,.047.03c-.023-.012-.029-.016-.017-.011a.184.184,0,0,1,.072.058.267.267,0,0,1-.041.324.2.2,0,0,1-.229.056.571.571,0,0,1-.211-.153.2.2,0,0,1-.025-.207.19.19,0,0,1,.287-.069.181.181,0,0,1-.005.286h0l.057-.072v0c.005-.031.01-.062.015-.093h0l-.069-.126c-.039-.021-.05-.028-.033-.021a.168.168,0,0,1,.05.031.377.377,0,0,0,.033.026l.043.033c.017.011.012.009-.014-.008l.028.016-.228.056a.337.337,0,0,0,.028-.033c.009-.011.026-.047,0,.006,0,.01-.006.02-.008.029a.2.2,0,0,1,.014-.051.194.194,0,0,1,.06-.074l-.056.069,0-.009c0,.042,0,.084,0,.125-.01-.038.02.026,0,0a.152.152,0,0,1-.017-.153l0,0c0,.039.008.077.013.115a.179.179,0,0,1-.023-.039c.007.021,0,0-.007-.006a.084.084,0,0,1,.059-.133" transform="translate(-25.905 -33.955)" fill="#9a9d9a"/>
      <path id="Trazado_702179" data-name="Trazado 702179" d="M593.33,1590.811c-.034,2.068,4.105,2.162,5.471,2.154,1.079-.008,2.574.061,3.479-.613.979-.729.627-2.963.187-3.975a8.508,8.508,0,0,0-.862-1.508,4.421,4.421,0,0,0-1.107-1.13c-1.881-1.2-3.483-.23-4.788,1.269A21.539,21.539,0,0,0,594.06,1589a3.555,3.555,0,0,0-.73,1.808" transform="translate(-17.219 -36.532)" fill="#6a705e"/>
      <path id="Trazado_702180" data-name="Trazado 702180" d="M594.444,1589c.25,1.406,1.155,1.925,2.853,2.083,1.25.116,2.851.338,3.886-.521a3.4,3.4,0,0,0,.806-3.7,4.422,4.422,0,0,0-1.107-1.13c-1.881-1.2-3.484-.23-4.788,1.269a21.5,21.5,0,0,0-1.649,1.994" transform="translate(-17.603 -36.532)" fill="#81857a"/>
      <path id="Trazado_702181" data-name="Trazado 702181" d="M601.777,1586.583c.123-.123.378-.057.517.006a.849.849,0,0,1,.423.54.285.285,0,0,1-.139.328,1.007,1.007,0,0,1-.922.1c-.3-.137-.427-.527-.52-.805a.344.344,0,0,1,.251-.425,1.235,1.235,0,0,1,.93.14c.235.161.53.53.408.825a.343.343,0,0,1-.49.192.624.624,0,0,1-.231-.3.407.407,0,0,0-.1-.13c.043.038-.053-.028-.054-.028.049.025-.069-.018-.067-.017a.938.938,0,0,0-.3,0l.347-.438a2.878,2.878,0,0,0,.107.328c-.014-.034.04.069.035.059a.612.612,0,0,0,.038.056c-.021-.026-.018-.024.007,0-.051-.052.045.019-.026-.009.037.008.037.011,0,.007a.392.392,0,0,0,.066,0c-.051,0,.067-.013.064-.012a1.011,1.011,0,0,0,.151-.048l-.138.328a.683.683,0,0,0-.2-.367c-.076-.077-.281-.208-.157-.333" transform="translate(-19.903 -36.911)" fill="#9a9d9a"/>
      <path id="Trazado_702182" data-name="Trazado 702182" d="M600.41,1588.3a.616.616,0,0,1,.115.118.234.234,0,0,1,.023.207.175.175,0,0,1-.167.123.177.177,0,0,1-.168-.123l-.005-.015,0-.007c.02.045.018.041-.005-.012,0-.016,0-.031-.007-.047s0-.009,0,.029a.067.067,0,0,0,0-.016c.019.052.016.035.007.021s-.026-.032.008.01c-.014-.018-.03-.035-.046-.052a.165.165,0,0,1,0-.237.182.182,0,0,1,.246,0" transform="translate(-19.556 -37.585)" fill="#9a9d9a"/>
      <path id="Trazado_702183" data-name="Trazado 702183" d="M564.916,1590.847c-.034,2.068,4.1,2.161,5.471,2.153,1.079-.007,2.574.061,3.479-.613.979-.729.627-2.963.187-3.974a8.486,8.486,0,0,0-.862-1.509,4.4,4.4,0,0,0-1.107-1.129c-1.881-1.2-3.483-.231-4.788,1.268a21.572,21.572,0,0,0-1.649,1.994,3.55,3.55,0,0,0-.73,1.809" transform="translate(-7.433 -36.544)" fill="#6a705e"/>
      <path id="Trazado_702184" data-name="Trazado 702184" d="M566.03,1589.038c.25,1.406,1.155,1.925,2.853,2.083,1.25.116,2.85.338,3.886-.521a3.4,3.4,0,0,0,.806-3.7,4.4,4.4,0,0,0-1.107-1.129c-1.881-1.2-3.484-.231-4.788,1.268a21.579,21.579,0,0,0-1.649,1.994" transform="translate(-7.817 -36.544)" fill="#81857a"/>
      <path id="Trazado_702185" data-name="Trazado 702185" d="M573.363,1586.618c.123-.123.378-.057.517.006a.85.85,0,0,1,.423.54.284.284,0,0,1-.139.327,1.008,1.008,0,0,1-.922.1c-.3-.137-.427-.526-.52-.805a.344.344,0,0,1,.251-.425,1.235,1.235,0,0,1,.93.14c.235.161.53.53.408.825a.342.342,0,0,1-.49.191.617.617,0,0,1-.231-.3.43.43,0,0,0-.106-.13c.043.038-.053-.028-.054-.028.049.025-.069-.018-.069-.018a.942.942,0,0,0-.294,0l.347-.438a2.927,2.927,0,0,0,.107.328c-.014-.034.04.069.035.059a.543.543,0,0,0,.038.056c-.02-.026-.018-.024.007,0-.051-.052.045.019-.026-.009.037.008.037.011,0,.007a.436.436,0,0,0,.066,0c-.051,0,.067-.013.064-.012a1,1,0,0,0,.152-.049c-.047.109-.093.218-.139.328a.683.683,0,0,0-.2-.367c-.076-.077-.281-.208-.157-.333" transform="translate(-10.117 -36.923)" fill="#9a9d9a"/>
      <path id="Trazado_702186" data-name="Trazado 702186" d="M572,1588.34a.644.644,0,0,1,.116.118.234.234,0,0,1,.022.207.176.176,0,0,1-.335,0l-.005-.015,0-.007c.02.045.018.041-.005-.012,0-.016,0-.031-.007-.047s0-.009,0,.029a.073.073,0,0,0,0-.016c.019.052.016.036.007.021s-.026-.032.009.01l-.047-.052a.165.165,0,0,1,0-.237.182.182,0,0,1,.246,0" transform="translate(-9.769 -37.597)" fill="#9a9d9a"/>
      <path id="Trazado_702187" data-name="Trazado 702187" d="M609.727,1591.084c2.542,1.413,6.01-.031,8.371-1.2,3.006-1.487,3.208-4.206.805-6.587a11.089,11.089,0,0,0-3.459-2.35,3.161,3.161,0,0,0-.57-.15c-2.388-.374-3.408,1.774-4.756,3.254-.091.1-.182.2-.271.3a9.892,9.892,0,0,0-1.79,2.68c-.582,1.454-.373,2.909,1.67,4.046" transform="translate(-22.194 -35.002)" fill="#6a705e"/>
      <path id="Trazado_702188" data-name="Trazado 702188" d="M608.205,1587.036a2.1,2.1,0,0,0,.16.824c.509,1.25,1.1.938,2.35.872,2.342-.123,5.156.454,6.624-1.93,1.17-1.9.066-4.657-1.747-5.854a3.229,3.229,0,0,0-.57-.15c-2.388-.374-3.408,1.775-4.756,3.255-.091.1-.182.2-.272.3a9.9,9.9,0,0,0-1.789,2.679" transform="translate(-22.343 -35.001)" fill="#81857a"/>
      <path id="Trazado_702189" data-name="Trazado 702189" d="M616.921,1582.979a.229.229,0,0,0,.043-.01l-.094.072c.005.116,0,.154-.007.114a.133.133,0,0,1-.013-.083.507.507,0,0,1,.024-.119.421.421,0,0,1,.4-.3c.378.028.591.376.757.677a.432.432,0,0,1-.369.643c-.048,0-.043,0,.016-.005-.034.005-.068.013-.1.021-.068.015-.136.036-.2.054a1.255,1.255,0,0,1-.553.051.958.958,0,0,1-.639-1.107.706.706,0,0,1,.651-.609.978.978,0,0,1,.684.3,1.739,1.739,0,0,1,.644,1.085.61.61,0,0,1-.8.586,1.52,1.52,0,0,1-.818-.643.53.53,0,0,1,.082-.636.541.541,0,0,1,.637-.083l.087.037a.642.642,0,0,1,.153.109q.059.053.12.1c.121.1-.056-.04.011.008a.931.931,0,0,0,.08.053c.045.028.142.059-.056-.018.089.035-.156-.009-.094-.01a.517.517,0,0,0-.509.5c.01-.088.035.177.011.081-.036-.146.065.127,0,0-.024-.048-.052-.1-.081-.142s-.066-.1-.1-.148c.123.165-.025-.025-.064-.066a1.254,1.254,0,0,0-.124-.114c.191.155-.164-.05.085.047-.05-.02-.129-.012.073,0a.586.586,0,0,0,.194-.057.531.531,0,0,0,.13-.132c-.06.087.043-.14.012-.022-.009.039-.006.03.009-.031,0,.037,0,.073,0,.11,0,.064,0,.064-.007,0a.44.44,0,0,0,.019.071c-.092-.13-.111-.167-.057-.111a.227.227,0,0,0-.113-.069c.048.011.035.011-.041,0a.688.688,0,0,0,.091,0c.028,0,.167-.023.047,0l.139-.028a1.96,1.96,0,0,1,.386-.045l-.369.643c-.064-.136-.128-.274-.2-.407a.642.642,0,0,0-.035-.057c.033.04.037.047.012.019.014.015.154.075.078.052a1.237,1.237,0,0,1-.153-.05.194.194,0,0,1-.071-.055l-.039-.051c.021.029.139.07.076.064-.157-.016-.22-.264-.041-.3" transform="translate(-25.086 -35.559)" fill="#9a9d9a"/>
      <path id="Trazado_702190" data-name="Trazado 702190" d="M615.186,1585.262l0,.015c0-.031-.009-.062-.013-.093.009.064.022.125.029.19,0-.031-.009-.063-.013-.094a.212.212,0,0,0,.009.033c-.012-.028-.024-.056-.036-.085.01.024.026.043.037.066a.917.917,0,0,1,.058.171.292.292,0,0,1-.355.356.679.679,0,0,1-.181-.066.575.575,0,0,1-.167-.171.44.44,0,0,1-.06-.322.383.383,0,0,1,.1-.244.345.345,0,0,1,.488,0,.379.379,0,0,1,.1.244" transform="translate(-24.508 -36.435)" fill="#9a9d9a"/>
      <path id="Trazado_702191" data-name="Trazado 702191" d="M578.576,1593.167c1.583.88,3.743-.019,5.214-.745,1.872-.926,2-2.62.5-4.1a6.907,6.907,0,0,0-2.155-1.464,1.94,1.94,0,0,0-.355-.093c-1.487-.234-2.123,1.1-2.962,2.027-.057.062-.114.125-.17.189a6.179,6.179,0,0,0-1.115,1.669,1.844,1.844,0,0,0,1.04,2.52" transform="translate(-11.719 -37.061)" fill="#6a705e"/>
      <path id="Trazado_702192" data-name="Trazado 702192" d="M577.629,1590.647a1.317,1.317,0,0,0,.1.513c.317.778.684.584,1.464.543,1.459-.076,3.211.283,4.125-1.2a2.888,2.888,0,0,0-1.088-3.646,2.012,2.012,0,0,0-.355-.093c-1.488-.234-2.123,1.105-2.963,2.027-.056.062-.113.125-.169.189a6.161,6.161,0,0,0-1.114,1.669" transform="translate(-11.812 -37.061)" fill="#81857a"/>
      <path id="Trazado_702193" data-name="Trazado 702193" d="M583.057,1588.12a.127.127,0,0,0,.027-.007l-.059.045c0,.073,0,.1,0,.071a.081.081,0,0,1-.008-.052.316.316,0,0,1,.015-.074.262.262,0,0,1,.249-.187c.235.018.368.235.471.422a.269.269,0,0,1-.229.4c-.031,0-.027,0,.01,0-.022,0-.043.008-.064.012-.043.01-.085.022-.127.034a.773.773,0,0,1-.344.032.6.6,0,0,1-.4-.689.441.441,0,0,1,.406-.38.608.608,0,0,1,.426.186,1.089,1.089,0,0,1,.4.676.38.38,0,0,1-.5.365.953.953,0,0,1-.509-.4.331.331,0,0,1,.051-.4.338.338,0,0,1,.4-.051l.054.022a.413.413,0,0,1,.1.069c.025.022.049.043.075.064.075.062-.035-.025.007.005l.05.033c.029.017.089.037-.035-.011.056.022-.1-.006-.058-.006a.321.321,0,0,0-.317.313c.006-.054.022.11.007.05-.022-.091.041.079,0,0-.015-.03-.032-.059-.05-.088s-.042-.063-.064-.093c.077.1-.015-.016-.039-.041a.706.706,0,0,0-.077-.071c.119.1-.1-.031.053.029-.031-.012-.081-.007.045,0a.358.358,0,0,0,.121-.035.333.333,0,0,0,.081-.082c-.037.054.027-.088.007-.014-.005.024,0,.018.006-.02,0,.023,0,.046,0,.069,0,.04,0,.04,0,0a.249.249,0,0,0,.012.044q-.086-.122-.035-.069a.139.139,0,0,0-.07-.043c.03.007.022.007-.026,0a.555.555,0,0,0,.057,0c.017,0,.1-.015.029,0l.087-.017a1.2,1.2,0,0,1,.241-.027l-.23.4c-.039-.085-.08-.171-.124-.254-.007-.012-.014-.023-.022-.035.021.026.024.029.007.012.009.009.1.047.049.032a.875.875,0,0,1-.1-.031.121.121,0,0,1-.045-.035l-.025-.032c.013.018.087.044.047.04-.1-.01-.137-.165-.025-.185" transform="translate(-13.52 -37.408)" fill="#9a9d9a"/>
      <path id="Trazado_702194" data-name="Trazado 702194" d="M581.976,1589.541v.009l-.008-.057c.006.039.014.078.018.118l-.008-.059a.129.129,0,0,0,.005.02c-.007-.018-.014-.035-.022-.053.007.015.016.027.024.041a.637.637,0,0,1,.036.107.182.182,0,0,1-.222.222.415.415,0,0,1-.113-.041.366.366,0,0,1-.1-.106.273.273,0,0,1-.037-.2.234.234,0,0,1,.063-.152.214.214,0,0,1,.3,0,.234.234,0,0,1,.063.152" transform="translate(-13.16 -37.953)" fill="#9a9d9a"/>
      <path id="Trazado_702195" data-name="Trazado 702195" d="M604.78,1583.257c.877,1.585,3.185,1.966,4.817,2.129,2.078.207,3.083-1.164,2.6-3.214a6.9,6.9,0,0,0-1.052-2.383,2.02,2.02,0,0,0-.251-.267c-1.138-.985-2.386-.187-3.587.15l-.244.071a6.165,6.165,0,0,0-1.829.825,1.843,1.843,0,0,0-.452,2.688" transform="translate(-21.034 -34.413)" fill="#6a705e"/>
      <path id="Trazado_702196" data-name="Trazado 702196" d="M605.554,1580.569a1.309,1.309,0,0,0-.188.488c-.144.828.271.858.954,1.236,1.278.708,2.575,1.94,4.136,1.166a2.888,2.888,0,0,0,1.008-3.669,2.016,2.016,0,0,0-.251-.267c-1.138-.985-2.386-.187-3.587.15l-.244.071a6.165,6.165,0,0,0-1.829.825" transform="translate(-21.355 -34.413)" fill="#81857a"/>
      <path id="Trazado_702197" data-name="Trazado 702197" d="M612.507,1580.446a.131.131,0,0,0,.026.008l-.073.007c-.036.063-.049.082-.041.058s0-.02.021-.048a.3.3,0,0,1,.052-.055.262.262,0,0,1,.311-.027.662.662,0,0,1,.176.608.269.269,0,0,1-.407.218c-.027-.014-.024-.013.01,0-.02-.009-.04-.016-.06-.023-.041-.014-.084-.026-.125-.039a.784.784,0,0,1-.31-.155.6.6,0,0,1,.028-.8.439.439,0,0,1,.544-.108.607.607,0,0,1,.263.384,1.082,1.082,0,0,1-.017.785.38.38,0,0,1-.614.047.946.946,0,0,1-.22-.61.331.331,0,0,1,.254-.309.338.338,0,0,1,.363.167l.033.048a.382.382,0,0,1,.045.109c.009.031.019.063.03.094.031.093-.016-.04,0,.009.008.018.016.036.025.054s.056.078-.023-.027c.035.048-.079-.056-.047-.036a.321.321,0,0,0-.435.1c.033-.043-.04.1-.021.046.03-.089-.007.089,0,0a.872.872,0,0,0,0-.1c0-.038,0-.075-.005-.113.01.128,0-.021-.012-.056a.867.867,0,0,0-.028-.1c.049.144-.07-.081.029.053-.02-.027-.064-.049.037.026a.368.368,0,0,0,.122.034.307.307,0,0,0,.112-.027c-.06.027.07-.06.014-.008-.018.018-.013.014.015-.013-.014.019-.026.037-.039.057-.019.035-.02.035,0,0a.358.358,0,0,0-.014.044c-.005-.1,0-.125.007-.077a.144.144,0,0,0-.036-.074c.022.022.014.017-.021-.014a.382.382,0,0,0,.047.031c.014.009.1.043.025.015l.082.031a1.186,1.186,0,0,1,.219.1l-.407.218c.012-.093.022-.187.029-.281,0-.014,0-.027,0-.041q.007.048,0,.014c0,.013.057.09.024.054a.886.886,0,0,1-.064-.077.135.135,0,0,1-.02-.053l0-.04c0,.022.05.083.019.058-.078-.06-.029-.212.077-.17" transform="translate(-23.631 -34.758)" fill="#9a9d9a"/>
      <path id="Trazado_702198" data-name="Trazado 702198" d="M610.932,1581.034l0,.008.024-.052c-.016.036-.029.073-.047.11l.025-.055a.185.185,0,0,0-.007.02c0-.019.007-.037.009-.056,0,.016,0,.031,0,.047a.614.614,0,0,1-.026.109.182.182,0,0,1-.3.071.429.429,0,0,1-.074-.094.374.374,0,0,1-.032-.146.274.274,0,0,1,.075-.19.236.236,0,0,1,.134-.1.216.216,0,0,1,.162.028.21.21,0,0,1,.1.134.234.234,0,0,1-.027.162" transform="translate(-23.131 -34.984)" fill="#9a9d9a"/>
      <path id="Trazado_702199" data-name="Trazado 702199" d="M587.34,1585.683a3.417,3.417,0,0,0,.073.473c.341,1.465,1.624,1.849,3.092,1.84a4.335,4.335,0,0,0,2.529-.463,1.943,1.943,0,0,0,.44-1.676,4.693,4.693,0,0,0-.3-1.33,6.468,6.468,0,0,0-.627-1.141,3.277,3.277,0,0,0-.8-.854c-1.367-.909-2.532-.174-3.48.959a6.851,6.851,0,0,0-.706.914,2.033,2.033,0,0,0-.212,1.279" transform="translate(-15.151 -35.472)" fill="#6a705e"/>
      <path id="Trazado_702200" data-name="Trazado 702200" d="M587.671,1584.4a3.447,3.447,0,0,0,1.626,1.922,4.069,4.069,0,0,0,3.235.253,2.075,2.075,0,0,0,1.061-.722,4.683,4.683,0,0,0-.3-1.33,6.451,6.451,0,0,0-.627-1.141,3.264,3.264,0,0,0-.8-.854c-1.367-.909-2.531-.174-3.48.959a6.852,6.852,0,0,0-.706.914" transform="translate(-15.27 -35.472)" fill="#81857a"/>
      <path id="Trazado_702201" data-name="Trazado 702201" d="M592.7,1583.287c.166-.181.444-.048.566.12a.416.416,0,0,1-.068.514.494.494,0,0,1-.557.083.776.776,0,0,1-.366-.594.282.282,0,0,1,.193-.342.761.761,0,0,1,.663.121c.146.114.324.386.253.576a.265.265,0,0,1-.32.182.381.381,0,0,1-.229-.2c-.012-.023-.024-.045-.037-.067a.462.462,0,0,0-.026-.04c.022.027.022.029,0,0s-.065-.05-.01-.012c-.028-.016-.026-.017.007,0a.261.261,0,0,0-.048-.015c-.078-.02.054,0-.037,0a.86.86,0,0,0-.143.007l.268-.351a1.069,1.069,0,0,0,.056.238c-.02-.054.018.026.025.036-.036-.056,0,0,.019.014-.065-.058.052.013-.037-.022.065.026-.044,0,0,0s-.07.018,0,0c.022-.005-.052.033.007-.007-.069.045-.02.014,0,0,.047-.039-.02.036,0,0s-.016.059,0,0c-.005.022,0,.062,0,.046s0,.007.013.017c-.04-.051.009.016-.053-.049a.476.476,0,0,1-.145-.188.069.069,0,0,1,.018-.067" transform="translate(-16.853 -35.789)" fill="#9a9d9a"/>
      <path id="Trazado_702202" data-name="Trazado 702202" d="M594.33,1584.907l.017.005c-.029-.009.015,0,.026.005h-.059a.175.175,0,0,1,.178.047.361.361,0,0,1,.033.044c-.017-.02-.021-.025-.012-.016a.176.176,0,0,1,.047.079.267.267,0,0,1-.154.288.2.2,0,0,1-.234-.03.578.578,0,0,1-.141-.218.2.2,0,0,1,.051-.2.19.19,0,0,1,.292.039.181.181,0,0,1-.108.264h0l.079-.047h0l.047-.081v0c-.007-.047-.012-.1-.019-.142q-.044-.05-.024-.032a.154.154,0,0,1,.036.048.345.345,0,0,0,.022.036c.009.016.018.031.028.046s.008.012-.01-.012l.021.025-.233-.03a.345.345,0,0,0,.037-.022c.012-.007.042-.034,0,.005l-.018.024a.174.174,0,0,1,.032-.043.2.2,0,0,1,.083-.048l-.077.044.007-.007c-.016.039-.032.077-.049.116,0-.039.009.031,0,0a.151.151,0,0,1,.039-.148l0,0c-.01.037-.02.075-.03.113a.188.188,0,0,1-.007-.045c0,.022,0,0,0-.007a.084.084,0,0,1,.1-.1" transform="translate(-17.457 -36.414)" fill="#9a9d9a"/>
      <path id="Trazado_702203" data-name="Trazado 702203" d="M585.71,1593.273a3.432,3.432,0,0,0,.073.473c.34,1.465,1.624,1.849,3.092,1.84a4.339,4.339,0,0,0,2.529-.464,1.943,1.943,0,0,0,.44-1.676,4.7,4.7,0,0,0-.3-1.33,6.485,6.485,0,0,0-.627-1.141,3.268,3.268,0,0,0-.8-.854c-1.367-.909-2.532-.174-3.48.959a6.86,6.86,0,0,0-.706.914,2.034,2.034,0,0,0-.212,1.279" transform="translate(-14.59 -38.086)" fill="#6a705e"/>
      <path id="Trazado_702204" data-name="Trazado 702204" d="M586.04,1591.994a3.447,3.447,0,0,0,1.626,1.922,4.069,4.069,0,0,0,3.235.253,2.075,2.075,0,0,0,1.061-.723,4.691,4.691,0,0,0-.3-1.33,6.472,6.472,0,0,0-.627-1.141,3.268,3.268,0,0,0-.8-.854c-1.367-.909-2.531-.174-3.48.959a6.854,6.854,0,0,0-.706.914" transform="translate(-14.709 -38.086)" fill="#81857a"/>
      <path id="Trazado_702205" data-name="Trazado 702205" d="M591.064,1590.878c.165-.182.444-.048.566.119a.417.417,0,0,1-.068.515.5.5,0,0,1-.557.083.775.775,0,0,1-.366-.595.281.281,0,0,1,.193-.342.763.763,0,0,1,.663.12c.146.115.324.387.253.576a.265.265,0,0,1-.321.182.375.375,0,0,1-.229-.2c-.012-.022-.024-.045-.037-.066s-.016-.028-.026-.041c.022.027.023.029,0,0s-.065-.051-.01-.012c-.028-.015-.026-.016.007,0a.405.405,0,0,0-.048-.015c-.078-.02.054,0-.037,0a.846.846,0,0,0-.143.007l.268-.351a1.106,1.106,0,0,0,.056.238c-.02-.053.018.026.025.036-.036-.056,0,0,.019.015-.065-.058.052.012-.037-.022.065.025-.044,0,0,0s-.07.018,0,0c.022-.006-.052.032.007-.007-.069.045-.02.013,0,0,.047-.039-.02.036,0,0s-.016.06,0,0c-.005.021,0,.061,0,.046s0,.006.013.016c-.04-.05.009.016-.053-.048a.471.471,0,0,1-.145-.188.07.07,0,0,1,.018-.067" transform="translate(-16.291 -38.404)" fill="#9a9d9a"/>
      <path id="Trazado_702206" data-name="Trazado 702206" d="M592.7,1592.5l.017.006c-.029-.009.015,0,.026.005h-.058a.173.173,0,0,1,.177.047.306.306,0,0,1,.034.045c-.017-.02-.021-.025-.012-.016a.17.17,0,0,1,.047.079.266.266,0,0,1-.154.287.194.194,0,0,1-.233-.03.573.573,0,0,1-.142-.218.2.2,0,0,1,.051-.2.19.19,0,0,1,.292.039.181.181,0,0,1-.107.264h0l.081-.047h0l.047-.081h0c-.007-.047-.012-.094-.019-.141-.029-.033-.037-.044-.024-.032a.154.154,0,0,1,.037.048c.006.013.014.024.022.036l.028.046c.012.016.009.013-.01-.012l.022.025-.233-.03a.27.27,0,0,0,.037-.022c.012-.007.042-.033,0,.006l-.018.024a.157.157,0,0,1,.032-.042.191.191,0,0,1,.083-.048l-.077.044.007-.006c-.016.039-.032.077-.048.115,0-.039.009.031,0,0a.15.15,0,0,1,.039-.148l0,0-.03.113a.189.189,0,0,1-.006-.046c0,.023,0,0,0-.007a.084.084,0,0,1,.1-.1" transform="translate(-16.895 -39.029)" fill="#9a9d9a"/>
      <path id="Trazado_702207" data-name="Trazado 702207" d="M574.017,1581.778a3.339,3.339,0,0,0,.074.473c.34,1.465,1.623,1.849,3.091,1.84a4.336,4.336,0,0,0,2.528-.463,1.942,1.942,0,0,0,.441-1.676,4.688,4.688,0,0,0-.3-1.33,6.467,6.467,0,0,0-.627-1.141,3.265,3.265,0,0,0-.8-.854c-1.367-.909-2.532-.174-3.48.959a6.861,6.861,0,0,0-.706.914,2.033,2.033,0,0,0-.212,1.279" transform="translate(-10.562 -34.127)" fill="#6a705e"/>
      <path id="Trazado_702208" data-name="Trazado 702208" d="M574.348,1580.5a3.446,3.446,0,0,0,1.626,1.921,4.069,4.069,0,0,0,3.235.253,2.08,2.08,0,0,0,1.061-.723,4.7,4.7,0,0,0-.3-1.33,6.449,6.449,0,0,0-.627-1.141,3.264,3.264,0,0,0-.8-.854c-1.367-.909-2.531-.174-3.48.959a6.926,6.926,0,0,0-.706.914" transform="translate(-10.682 -34.127)" fill="#81857a"/>
      <path id="Trazado_702209" data-name="Trazado 702209" d="M579.372,1579.383c.165-.182.444-.048.566.119a.417.417,0,0,1-.068.515.5.5,0,0,1-.557.083.775.775,0,0,1-.366-.595.281.281,0,0,1,.193-.342.763.763,0,0,1,.663.12c.146.115.324.387.253.576a.265.265,0,0,1-.321.182.376.376,0,0,1-.229-.2c-.012-.022-.024-.045-.037-.066a.477.477,0,0,0-.026-.041c.022.027.023.029,0,0s-.066-.051-.01-.013c-.028-.015-.026-.016.007,0a.3.3,0,0,0-.048-.014c-.078-.021.054,0-.037-.005a.846.846,0,0,0-.143.007l.267-.352a1.141,1.141,0,0,0,.057.238c-.02-.053.018.026.025.036-.036-.056,0,0,.019.014-.065-.057.052.012-.037-.022.065.025-.044,0,0,0s-.07.018,0,0c.022-.006-.052.032.007-.007-.069.045-.02.013,0,0,.048-.039-.02.036,0,0s-.016.06,0,0c-.006.022,0,.061,0,.046s0,.006.013.016c-.04-.05.009.016-.053-.048a.475.475,0,0,1-.145-.188.069.069,0,0,1,.018-.067" transform="translate(-12.264 -34.445)" fill="#9a9d9a"/>
      <path id="Trazado_702210" data-name="Trazado 702210" d="M581.007,1581l.017.005c-.029-.009.015,0,.026.005h-.059a.174.174,0,0,1,.177.047.352.352,0,0,1,.033.044c-.017-.02-.021-.025-.012-.016a.175.175,0,0,1,.046.079.266.266,0,0,1-.154.288.2.2,0,0,1-.233-.03.572.572,0,0,1-.142-.218.2.2,0,0,1,.052-.2.189.189,0,0,1,.292.039.181.181,0,0,1-.108.264h0l.081-.047h0l.047-.081h0c-.007-.047-.012-.094-.019-.142q-.044-.05-.024-.031a.146.146,0,0,1,.036.048.387.387,0,0,0,.022.036l.028.046q.018.025-.01-.012l.021.025-.233-.03.038-.021c.012-.007.041-.034,0,.005l-.018.024a.168.168,0,0,1,.032-.042.2.2,0,0,1,.083-.048l-.077.044.007-.007c-.016.039-.032.077-.049.116,0-.039.009.031,0,0a.151.151,0,0,1,.039-.148l0,0-.03.113a.23.23,0,0,1-.007-.045c0,.022,0,0,0-.007a.084.084,0,0,1,.1-.1" transform="translate(-12.868 -35.069)" fill="#9a9d9a"/>
      <path id="Trazado_702211" data-name="Trazado 702211" d="M602.991,1586.2a2.676,2.676,0,0,0,.057.371c.268,1.149,1.274,1.45,2.426,1.443a3.4,3.4,0,0,0,1.983-.363,1.525,1.525,0,0,0,.345-1.315,3.714,3.714,0,0,0-.239-1.043,5.109,5.109,0,0,0-.492-.9,2.57,2.57,0,0,0-.631-.67c-1.073-.713-1.986-.137-2.73.753a5.411,5.411,0,0,0-.554.717,1.6,1.6,0,0,0-.166,1" transform="translate(-20.543 -35.915)" fill="#6a705e"/>
      <path id="Trazado_702212" data-name="Trazado 702212" d="M603.251,1585.2a2.7,2.7,0,0,0,1.276,1.507,3.189,3.189,0,0,0,2.537.2,1.631,1.631,0,0,0,.833-.566,3.709,3.709,0,0,0-.239-1.044,5.115,5.115,0,0,0-.492-.895,2.561,2.561,0,0,0-.631-.67c-1.073-.713-1.986-.137-2.73.753a5.413,5.413,0,0,0-.554.717" transform="translate(-20.636 -35.915)" fill="#81857a"/>
      <path id="Trazado_702213" data-name="Trazado 702213" d="M607.192,1584.323c.13-.143.348-.037.444.094a.326.326,0,0,1-.053.4.389.389,0,0,1-.437.065.608.608,0,0,1-.287-.466.221.221,0,0,1,.152-.268.6.6,0,0,1,.52.094c.115.09.254.3.2.452a.207.207,0,0,1-.251.142.3.3,0,0,1-.18-.159c-.009-.018-.019-.035-.029-.052s-.014-.022-.021-.032c.018.022.018.022,0,0s-.051-.04-.008-.01c-.022-.012-.02-.013.005,0a.221.221,0,0,0-.037-.011c-.062-.016.043,0-.029,0a.7.7,0,0,0-.111.006l.21-.276a.874.874,0,0,0,.044.187c-.015-.042.014.02.02.028-.028-.043,0,0,.015.012-.051-.046.041.009-.03-.018.051.02-.034,0,0,0s-.056.014,0,0c.018,0-.041.025.007-.006-.054.036-.016.01,0,0,.037-.031-.016.028,0,0s-.012.047,0,0c0,.016,0,.048,0,.036s0,0,.011.012c-.031-.039.007.013-.042-.038a.365.365,0,0,1-.113-.147.052.052,0,0,1,.014-.052" transform="translate(-21.878 -36.164)" fill="#9a9d9a"/>
      <path id="Trazado_702214" data-name="Trazado 702214" d="M608.474,1585.594l.014,0c-.023-.007.012,0,.02,0h-.047a.136.136,0,0,1,.139.037.253.253,0,0,1,.026.034c-.013-.015-.016-.019-.009-.012a.137.137,0,0,1,.036.062.209.209,0,0,1-.121.226.153.153,0,0,1-.183-.024.442.442,0,0,1-.111-.171.157.157,0,0,1,.04-.159.149.149,0,0,1,.229.03.143.143,0,0,1-.085.208h0l.064-.037h0l.037-.063h0c0-.037-.01-.074-.014-.111-.023-.026-.03-.034-.019-.024a.109.109,0,0,1,.028.037c0,.01.012.019.017.028l.022.036c.009.013.007.01-.008-.009l.016.019-.183-.024.029-.016c.01-.006.033-.027,0,0l-.014.019a.128.128,0,0,1,.026-.033.15.15,0,0,1,.064-.037l-.06.035.005-.006-.037.091c0-.031.007.024,0,0a.119.119,0,0,1,.031-.117l0,0-.024.088a.24.24,0,0,1-.005-.036c0,.018,0,0,0-.005a.066.066,0,0,1,.081-.081" transform="translate(-22.352 -36.654)" fill="#9a9d9a"/>
      <path id="Trazado_702215" data-name="Trazado 702215" d="M576.366,1587.464a1.511,1.511,0,0,0,.035.224c.161.7.77.877,1.466.873a2.055,2.055,0,0,0,1.2-.22.921.921,0,0,0,.208-.8,2.213,2.213,0,0,0-.144-.63,3.065,3.065,0,0,0-.3-.542,1.547,1.547,0,0,0-.382-.405c-.649-.431-1.2-.083-1.651.455a3.341,3.341,0,0,0-.335.434.963.963,0,0,0-.1.607" transform="translate(-11.374 -36.73)" fill="#6a705e"/>
      <path id="Trazado_702216" data-name="Trazado 702216" d="M576.523,1586.857a1.634,1.634,0,0,0,.772.912,1.931,1.931,0,0,0,1.534.12.985.985,0,0,0,.5-.343,2.246,2.246,0,0,0-.144-.631,3.056,3.056,0,0,0-.3-.541,1.547,1.547,0,0,0-.382-.405c-.648-.431-1.2-.083-1.651.455a3.253,3.253,0,0,0-.335.433" transform="translate(-11.431 -36.73)" fill="#81857a"/>
      <path id="Trazado_702217" data-name="Trazado 702217" d="M578.907,1586.327c.079-.086.211-.023.269.056a.2.2,0,0,1-.033.245.234.234,0,0,1-.264.039.368.368,0,0,1-.174-.282.134.134,0,0,1,.092-.162.365.365,0,0,1,.315.056c.069.055.153.184.12.273a.126.126,0,0,1-.152.087.18.18,0,0,1-.109-.1.262.262,0,0,0-.018-.031l-.013-.02c.01.013.011.014,0,0s-.031-.024,0-.006c-.014-.007-.012-.007,0,0l-.023-.006c-.037-.01.026,0-.018,0a.475.475,0,0,0-.068,0l.127-.166a.511.511,0,0,0,.027.113c-.009-.025.009.013.012.017-.017-.026,0,0,.01.007-.031-.028.024.005-.018-.01.031.012-.021,0,0,0s-.033.009,0,0c.01,0-.024.015,0,0-.033.021-.01.006,0,0s-.01.017,0,0-.008.029,0,0c0,.01,0,.029,0,.022s0,0,.007.008c-.019-.024,0,.007-.026-.023a.231.231,0,0,1-.069-.089.032.032,0,0,1,.008-.032" transform="translate(-12.182 -36.881)" fill="#9a9d9a"/>
      <path id="Trazado_702218" data-name="Trazado 702218" d="M579.682,1587.1l.008,0c-.014,0,.007,0,.012,0h-.028a.084.084,0,0,1,.084.022.241.241,0,0,1,.016.021l-.006-.007a.085.085,0,0,1,.022.037.126.126,0,0,1-.073.136.093.093,0,0,1-.111-.014.277.277,0,0,1-.067-.1.094.094,0,0,1,.024-.1.09.09,0,0,1,.138.018.086.086,0,0,1-.05.126h0l.038-.022h0l.022-.038h0c0-.022-.006-.045-.009-.068s-.018-.021-.011-.015a.074.074,0,0,1,.017.023c0,.006.007.011.01.017l.013.022c.006.008,0,.006,0-.005l.01.011-.111-.014.018-.01c.005,0,.02-.016,0,0l-.009.012a.082.082,0,0,1,.016-.02.089.089,0,0,1,.039-.023l-.036.021,0,0-.023.055c0-.018,0,.014,0,0a.074.074,0,0,1,.018-.071h0l-.014.053a.083.083,0,0,1,0-.021c0,.01,0,0,0,0a.04.04,0,0,1,.048-.049" transform="translate(-12.468 -37.177)" fill="#9a9d9a"/>
      <path id="Trazado_702219" data-name="Trazado 702219" d="M595.668,1584.826a1.5,1.5,0,1,0,1.5-1.5,1.5,1.5,0,0,0-1.5,1.5" transform="translate(-18.025 -35.886)" fill="#c99d66"/>
      <path id="Trazado_702220" data-name="Trazado 702220" d="M596.805,1585.06a.592.592,0,1,1,.592.593A.592.592,0,0,1,596.805,1585.06Zm-.473.012a1.066,1.066,0,1,1,1.065,1.065A1.065,1.065,0,0,1,596.332,1585.072Z" transform="translate(-18.253 -36.121)" fill="none" stroke="#925f36" stroke-miterlimit="10" stroke-width="0.221"/>
      <path id="Trazado_702221" data-name="Trazado 702221" d="M592.077,1580.7a1.076,1.076,0,1,0,1.076-1.076,1.076,1.076,0,0,0-1.076,1.076" transform="translate(-16.788 -34.611)" fill="#c99d66"/>
      <path id="Trazado_702222" data-name="Trazado 702222" d="M592.892,1580.867a.424.424,0,1,1,.425.424A.425.425,0,0,1,592.892,1580.867Zm-.339.008a.764.764,0,1,1,.764.764A.764.764,0,0,1,592.553,1580.876Z" transform="translate(-16.952 -34.78)" fill="none" stroke="#925f36" stroke-miterlimit="10" stroke-width="0.158"/>
      <path id="Trazado_702223" data-name="Trazado 702223" d="M589.5,1581.537a.832.832,0,1,0,.832-.831.832.832,0,0,0-.832.831" transform="translate(-15.9 -34.984)" fill="#c99d66"/>
      <path id="Trazado_702224" data-name="Trazado 702224" d="M590.129,1581.667a.328.328,0,1,1,.328.328A.328.328,0,0,1,590.129,1581.667Zm-.262.007a.59.59,0,1,1,.591.591A.591.591,0,0,1,589.867,1581.674Z" transform="translate(-16.027 -35.114)" fill="none" stroke="#925f36" stroke-miterlimit="10" stroke-width="0.123"/>
      <path id="Trazado_702225" data-name="Trazado 702225" d="M595.672,1580.606a1.5,1.5,0,1,0,1.5-1.5,1.5,1.5,0,0,0-1.5,1.5" transform="translate(-18.026 -34.434)" fill="#c99d66"/>
      <path id="Trazado_702226" data-name="Trazado 702226" d="M596.807,1580.842a.591.591,0,1,1,.591.591A.591.591,0,0,1,596.807,1580.842Zm-.472.012a1.063,1.063,0,1,1,1.063,1.063A1.063,1.063,0,0,1,596.335,1580.853Z" transform="translate(-18.254 -34.669)" fill="none" stroke="#925f36" stroke-miterlimit="10" stroke-width="0.221"/>
      <path id="Trazado_702227" data-name="Trazado 702227" d="M593.256,1583.3a1.047,1.047,0,1,0,1.046-1.047,1.047,1.047,0,0,0-1.046,1.047" transform="translate(-17.194 -35.517)" fill="#c99d66"/>
      <path id="Trazado_702228" data-name="Trazado 702228" d="M594.049,1583.463a.413.413,0,1,1,.413.413A.413.413,0,0,1,594.049,1583.463Zm-.33.009a.743.743,0,1,1,.743.743A.743.743,0,0,1,593.719,1583.472Z" transform="translate(-17.353 -35.681)" fill="none" stroke="#925f36" stroke-miterlimit="10" stroke-width="0.154"/>
      <path id="Trazado_702229" data-name="Trazado 702229" d="M599.7,1581.769a2.151,2.151,0,1,0,2.151-2.152,2.151,2.151,0,0,0-2.151,2.152" transform="translate(-19.412 -34.609)" fill="#c99d66"/>
      <path id="Trazado_702230" data-name="Trazado 702230" d="M601.327,1582.1a.849.849,0,1,1,.85.85A.85.85,0,0,1,601.327,1582.1Zm-.678.018a1.527,1.527,0,1,1,1.528,1.528A1.527,1.527,0,0,1,600.649,1582.123Z" transform="translate(-19.74 -34.946)" fill="none" stroke="#925f36" stroke-miterlimit="10" stroke-width="0.317"/>
      <path id="Trazado_702231" data-name="Trazado 702231" d="M606.655,1580.411a1.826,1.826,0,1,0,1.826-1.827,1.826,1.826,0,0,0-1.826,1.827" transform="translate(-21.809 -34.254)" fill="#c99d66"/>
      <path id="Trazado_702232" data-name="Trazado 702232" d="M608.039,1580.7a.721.721,0,1,1,.721.721A.721.721,0,0,1,608.039,1580.7Zm-.576.015a1.3,1.3,0,1,1,1.3,1.3A1.3,1.3,0,0,1,607.463,1580.712Z" transform="translate(-22.087 -34.54)" fill="none" stroke="#925f36" stroke-miterlimit="10" stroke-width="0.269"/>
    </g>
  </g>
</svg>
