<svg xmlns="http://www.w3.org/2000/svg" xmlns:xlink="http://www.w3.org/1999/xlink" width="1147" height="470" viewBox="0 0 1147 470">
  <defs>
    <clipPath id="clip-path">
      <rect id="Rectángulo_337559" data-name="Rectángulo 337559" width="389" height="470" transform="translate(234 6033)" fill="#fff" stroke="#707070" stroke-width="1"/>
    </clipPath>
    <clipPath id="clip-path-2">
      <rect id="Rectángulo_337560" data-name="Rectángulo 337560" width="361" height="470" transform="translate(1020 6033)" fill="#fff" stroke="#707070" stroke-width="1"/>
    </clipPath>
  </defs>
  <g id="Grupo_963430" data-name="Grupo 963430" transform="translate(-234 -5414)">
    <g id="Enmascarar_grupo_927195" data-name="Enmascarar grupo 927195" transform="translate(0 -619)" clip-path="url(#clip-path)">
      <g id="Grupo_948531" data-name="Grupo 948531" transform="translate(-575.595 5966.792)">
        <g id="Grupo_948415" data-name="Grupo 948415" transform="translate(893.132 73.727)">
          <path id="Trazado_683675" data-name="Trazado 683675" d="M1012.6,151c1.59,4.676,3.233,9.512,4.8,14.637,4.985,16.337-10.741,18.4-10.741,18.4s5.05,11.128-2.892,20.033-17.987,4.127-17.987,4.127-3.641,4.847-13.209,5.449c-13.879.877-18.933-4.7-18.933-4.7l-14.505-2.6c-1.909,1.067-3.393,8.16-18.732,9.953-13.944,1.629-21.121-6.737-21.121-6.737-3.689,7.225-21.046,5.955-23.013-5.488-1.849-10.747,3.151-15.147,3.762-15.646-9.009,6.38-24.039-10.875-8.115-27.238,6.477-6.659,10.058-9.752,12.48-13.086-7.214,1.715-14.754-6.689-11.531-14.022,4.162-9.46,11.773-5.691,19.21-19.268,9.883-18.033,17.445-24.188,17.886-24.538l.013-.011c12.758-12.1,31.6-17.639,52.24-16.361,17.544,1.084,27.769,8.259,33.689,15.633a37.04,37.04,0,0,1,7.858,22.486q.055,2.563.285,5.056c2.456,5.963,7.484,16.54,13.423,19.752C1025.539,141.21,1021.021,152.8,1012.6,151Z" transform="translate(-864.919 -73.727)" fill="#32324c"/>
        </g>
        <g id="Grupo_948416" data-name="Grupo 948416" transform="translate(840.595 128.559)">
          <path id="Trazado_683676" data-name="Trazado 683676" d="M1187.166,593.894C1176.032,758.042,968.921,824.567,866.68,695.666c-20.881-26.324-25.875-89.806-20.467-123.29,21.806-134.96,91.016-148.748,39.344-234.116S829.084,97.911,971.739,99.121s50.694,229.22,148.962,292.994C1165.648,421.283,1192.966,508.4,1187.166,593.894Z" transform="translate(-836.423 -99.114)" fill="#32324c" opacity="0.1"/>
          <path id="Trazado_683677" data-name="Trazado 683677" d="M1001.839,263.061a21.763,21.763,0,0,1-23.994-6.9c-9.283-11.246-24.093-33.957-19.685-60.387,6.3-37.756,54.145-7.616,57.91,34.823C1017.952,251.817,1010.131,260.092,1001.839,263.061Z" transform="translate(-705.165 -6.962)" fill="#32324c" opacity="0.1"/>
          <path id="Trazado_683678" data-name="Trazado 683678" d="M958.507,196.045a11.351,11.351,0,0,1-7.691-10.508c-.238-7.6.907-21.7,11.167-31.192,14.657-13.56,24.765,14.151,12.762,32.858C968.743,196.554,962.875,197.468,958.507,196.045Z" transform="translate(-712.786 -39.237)" fill="#32324c" opacity="0.1"/>
          <path id="Trazado_683679" data-name="Trazado 683679" d="M851.295,282.2a11.351,11.351,0,0,1-9.469-8.942c-1.611-7.434-3.039-21.506,5.333-32.7,11.957-15.991,26.916,9.432,18.5,30C861.453,280.847,855.848,282.811,851.295,282.2Z" transform="translate(-840.595 59.106)" fill="#32324c" opacity="0.1"/>
        </g>
        <path id="Trazado_683680" data-name="Trazado 683680" d="M898.06,149.534s10.944.717,99.893,42.3c0,0,5.678,2.359,14,.564,15.7-3.391-1.728-30.082-1.728-30.082S947.356,120.693,898.06,149.534Z" transform="translate(66.651 76.122)" fill="#c11c57"/>
        <ellipse id="Elipse_5264" data-name="Elipse 5264" cx="131.681" cy="19.978" rx="131.681" ry="19.978" transform="translate(877.761 837.462)" fill="#32324c" opacity="0.1"/>
        <g id="Grupo_948492" data-name="Grupo 948492" transform="translate(933.985 445.424)">
          <g id="Grupo_948450" data-name="Grupo 948450" transform="translate(60.449 7.806)">
            <g id="Grupo_948417" data-name="Grupo 948417">
              <path id="Trazado_683681" data-name="Trazado 683681" d="M977.286,443.177,962.7,619.358H937c-5.948-68.661-18.767-159.537,1.3-183.967-35.529-82.908-25.03-166.8-25.03-166.8,19.616-8.981,50.294-19.158,50.294-19.158C974,308.695,977.286,443.177,977.286,443.177Z" transform="translate(-911.822 -249.435)" fill="#211931"/>
            </g>
            <g id="Grupo_948449" data-name="Grupo 948449" transform="translate(18.719 341.937)">
              <g id="Grupo_948419" data-name="Grupo 948419">
                <g id="Grupo_948418" data-name="Grupo 948418">
                  <path id="Trazado_683682" data-name="Trazado 683682" d="M1012.329,477.264H928.277a7.785,7.785,0,0,1-7.765-8.38l3.415-44.147a49.145,49.145,0,0,1,8.4-2.771,8.516,8.516,0,0,0,6.233-5.654c.061-.209.115-.425.171-.641,1.929-8.495,14.179-11.2,16.443-2.9.294,1.073.549,2.117.765,3.121.054.246.108.5.153.741.363,1.784.626,3.43.812,4.866.006.03.006.063.015.093a47.4,47.4,0,0,1,.417,6q1.669,2.122,3.229,4.173c.533.678,1.043,1.359,1.553,2.022,1.1,1.436,2.177,2.836,3.235,4.179.486.633.972,1.244,1.46,1.847,1.166,1.458,2.315,2.842,3.467,4.132.518.587,1.035,1.158,1.568,1.706,4.333,4.557,8.7,7.67,13.873,8.389,9.112,1.25,24,2.255,31.195,15.631a4.839,4.839,0,0,1,.363.851A5.184,5.184,0,0,1,1012.329,477.264Z" transform="translate(-920.489 -407.75)" fill="#3555af"/>
                </g>
              </g>
              <g id="Grupo_948421" data-name="Grupo 948421" transform="translate(0.071 62.771)">
                <g id="Grupo_948420" data-name="Grupo 948420">
                  <path id="Trazado_683683" data-name="Trazado 683683" d="M1012.292,443.554H928.239a7.784,7.784,0,0,1-7.717-6.741h96.714A5.184,5.184,0,0,1,1012.292,443.554Z" transform="translate(-920.522 -436.813)" fill="#3986d7"/>
                </g>
              </g>
              <g id="Grupo_948429" data-name="Grupo 948429" transform="translate(29.468 24.017)">
                <g id="Grupo_948424" data-name="Grupo 948424" transform="translate(2.246)">
                  <g id="Grupo_948423" data-name="Grupo 948423">
                    <g id="Grupo_948422" data-name="Grupo 948422">
                      <path id="Trazado_683684" data-name="Trazado 683684" d="M945.082,420.892c-.974,1.43-2.959,3.16-6.959,4.758q-1.02.418-2.225.812l-.726-2.194q1.192-.392,2.162-.788c4.6-1.853,5.855-3.676,6.194-4.609C944.063,419.548,944.573,420.228,945.082,420.892Z" transform="translate(-935.173 -418.87)" fill="#fff"/>
                    </g>
                  </g>
                </g>
                <g id="Grupo_948428" data-name="Grupo 948428" transform="translate(0 3.888)">
                  <g id="Grupo_948427" data-name="Grupo 948427">
                    <g id="Grupo_948426" data-name="Grupo 948426">
                      <g id="Grupo_948425" data-name="Grupo 948425">
                        <path id="Trazado_683685" data-name="Trazado 683685" d="M939.347,423.277a2.607,2.607,0,1,1-2.607-2.607A2.609,2.609,0,0,1,939.347,423.277Z" transform="translate(-934.133 -420.67)" fill="#fff"/>
                      </g>
                    </g>
                  </g>
                </g>
              </g>
              <g id="Grupo_948437" data-name="Grupo 948437" transform="translate(35.356 30.217)">
                <g id="Grupo_948432" data-name="Grupo 948432" transform="translate(1.819)">
                  <g id="Grupo_948431" data-name="Grupo 948431">
                    <g id="Grupo_948430" data-name="Grupo 948430">
                      <path id="Trazado_683686" data-name="Trazado 683686" d="M946.846,423.588a16.507,16.507,0,0,1-5.754,3.622c-.8.348-1.685.672-2.665,1L937.7,426q1.367-.454,2.456-.9a13.267,13.267,0,0,0,5.229-3.361C945.872,422.374,946.358,422.985,946.846,423.588Z" transform="translate(-937.701 -421.741)" fill="#fff"/>
                    </g>
                  </g>
                </g>
                <g id="Grupo_948436" data-name="Grupo 948436" transform="translate(0 2.76)">
                  <g id="Grupo_948435" data-name="Grupo 948435">
                    <g id="Grupo_948434" data-name="Grupo 948434">
                      <g id="Grupo_948433" data-name="Grupo 948433">
                        <path id="Trazado_683687" data-name="Trazado 683687" d="M942.073,425.626a2.607,2.607,0,1,1-2.607-2.607A2.607,2.607,0,0,1,942.073,425.626Z" transform="translate(-936.859 -423.019)" fill="#fff"/>
                      </g>
                    </g>
                  </g>
                </g>
              </g>
              <g id="Grupo_948445" data-name="Grupo 948445" transform="translate(40.57 36.196)">
                <g id="Grupo_948440" data-name="Grupo 948440" transform="translate(1.786)">
                  <g id="Grupo_948439" data-name="Grupo 948439">
                    <g id="Grupo_948438" data-name="Grupo 948438">
                      <path id="Trazado_683688" data-name="Trazado 683688" d="M949.1,426.215a16.751,16.751,0,0,1-5.574,3.469c-.812.346-1.708.687-2.7,1.011l-.719-2.2c.92-.3,1.739-.611,2.473-.92a14.342,14.342,0,0,0,4.957-3.065C948.048,425.1,948.564,425.667,949.1,426.215Z" transform="translate(-940.1 -424.509)" fill="#fff"/>
                    </g>
                  </g>
                </g>
                <g id="Grupo_948444" data-name="Grupo 948444" transform="translate(0 2.477)">
                  <g id="Grupo_948443" data-name="Grupo 948443">
                    <g id="Grupo_948442" data-name="Grupo 948442">
                      <g id="Grupo_948441" data-name="Grupo 948441">
                        <path id="Trazado_683689" data-name="Trazado 683689" d="M944.487,428.263a2.607,2.607,0,1,1-2.607-2.607A2.609,2.609,0,0,1,944.487,428.263Z" transform="translate(-939.273 -425.656)" fill="#fff"/>
                      </g>
                    </g>
                  </g>
                </g>
              </g>
              <g id="Grupo_948448" data-name="Grupo 948448" transform="translate(28.918 8.885)">
                <g id="Grupo_948447" data-name="Grupo 948447">
                  <g id="Grupo_948446" data-name="Grupo 948446">
                    <path id="Trazado_683690" data-name="Trazado 683690" d="M941.37,416.73a58.943,58.943,0,0,0-7.492.425l.048-4.21a18.98,18.98,0,0,1,6.633-1.082C940.921,413.648,941.185,415.294,941.37,416.73Z" transform="translate(-933.878 -411.864)" fill="#fff"/>
                  </g>
                </g>
              </g>
            </g>
          </g>
          <g id="Grupo_948491" data-name="Grupo 948491">
            <g id="Grupo_948489" data-name="Grupo 948489" transform="translate(0 19.542)">
              <g id="Grupo_948451" data-name="Grupo 948451">
                <path id="Trazado_683691" data-name="Trazado 683691" d="M953.3,262.29s-6.073,94.02-18.391,174.965c-2.633,17.3-5.868,128.174-13.862,175.8H895.309l-4.953-173.027s-13.905-110.45-1.108-185.159Z" transform="translate(-883.834 -254.869)" fill="#32324c"/>
              </g>
              <g id="Grupo_948488" data-name="Grupo 948488" transform="translate(0.982 335.241)">
                <g id="Grupo_948454" data-name="Grupo 948454">
                  <g id="Grupo_948453" data-name="Grupo 948453">
                    <g id="Grupo_948452" data-name="Grupo 948452">
                      <path id="Trazado_683692" data-name="Trazado 683692" d="M943.063,468.684c-.741,14.81-47.046,9.708-54.452,5.266-2.858-1.719-4.058-5.028-4.281-9.035-.363-6.391,1.741-14.566,3.564-20.972,2.961-10.434,2.555-10.242,4.613-17.374,0,0-.533-11.6,14.639-16.024s20.734,24.445,23.326,30c2.372,5.089,11.59,12.05,12.544,24.57A28.274,28.274,0,0,1,943.063,468.684Z" transform="translate(-884.289 -410.084)" fill="#3555af"/>
                    </g>
                  </g>
                </g>
                <g id="Grupo_948457" data-name="Grupo 948457" transform="translate(13.404 18.534)">
                  <g id="Grupo_948456" data-name="Grupo 948456">
                    <g id="Grupo_948455" data-name="Grupo 948455">
                      <path id="Trazado_683693" data-name="Trazado 683693" d="M891.709,425.991l-1.214-1.862c.566-.367,13.955-8.955,25.607-3.845l-.892,2.037C904.646,417.688,891.838,425.906,891.709,425.991Z" transform="translate(-890.495 -418.665)" fill="#fff"/>
                    </g>
                  </g>
                </g>
                <g id="Grupo_948460" data-name="Grupo 948460" transform="translate(14.726 31.422)">
                  <g id="Grupo_948459" data-name="Grupo 948459">
                    <g id="Grupo_948458" data-name="Grupo 948458">
                      <path id="Trazado_683694" data-name="Trazado 683694" d="M892.319,431.957l-1.212-1.862c.564-.367,13.955-8.953,25.6-3.845l-.892,2.037C905.254,423.653,892.448,431.873,892.319,431.957Z" transform="translate(-891.107 -424.633)" fill="#fff"/>
                    </g>
                  </g>
                </g>
                <g id="Grupo_948463" data-name="Grupo 948463" transform="translate(14.065 24.978)">
                  <g id="Grupo_948462" data-name="Grupo 948462">
                    <g id="Grupo_948461" data-name="Grupo 948461">
                      <path id="Trazado_683695" data-name="Trazado 683695" d="M892.015,428.973l-1.214-1.862c.564-.367,13.955-8.953,25.6-3.842l-.892,2.035C904.95,420.668,892.142,428.888,892.015,428.973Z" transform="translate(-890.801 -421.649)" fill="#fff"/>
                    </g>
                  </g>
                </g>
                <g id="Grupo_948466" data-name="Grupo 948466" transform="translate(11.38 22.777)">
                  <g id="Grupo_948465" data-name="Grupo 948465">
                    <g id="Grupo_948464" data-name="Grupo 948464">
                      <path id="Trazado_683696" data-name="Trazado 683696" d="M894.556,423.129a2.5,2.5,0,1,1-2.5-2.5A2.5,2.5,0,0,1,894.556,423.129Z" transform="translate(-889.558 -420.63)" fill="#fff"/>
                    </g>
                  </g>
                </g>
                <g id="Grupo_948469" data-name="Grupo 948469" transform="translate(11.512 28.883)">
                  <g id="Grupo_948468" data-name="Grupo 948468">
                    <g id="Grupo_948467" data-name="Grupo 948467">
                      <path id="Trazado_683697" data-name="Trazado 683697" d="M894.617,425.958a2.5,2.5,0,1,1-2.5-2.5A2.5,2.5,0,0,1,894.617,425.958Z" transform="translate(-889.619 -423.457)" fill="#fff"/>
                    </g>
                  </g>
                </g>
                <g id="Grupo_948472" data-name="Grupo 948472" transform="translate(12.834 34.991)">
                  <g id="Grupo_948471" data-name="Grupo 948471">
                    <g id="Grupo_948470" data-name="Grupo 948470">
                      <path id="Trazado_683698" data-name="Trazado 683698" d="M895.229,428.784a2.5,2.5,0,1,1-2.5-2.5A2.5,2.5,0,0,1,895.229,428.784Z" transform="translate(-890.231 -426.285)" fill="#fff"/>
                    </g>
                  </g>
                </g>
                <g id="Grupo_948475" data-name="Grupo 948475" transform="translate(37.385 31.384)">
                  <g id="Grupo_948474" data-name="Grupo 948474">
                    <g id="Grupo_948473" data-name="Grupo 948473">
                      <path id="Trazado_683699" data-name="Trazado 683699" d="M906.6,427.112a2.5,2.5,0,1,1-2.5-2.5A2.5,2.5,0,0,1,906.6,427.112Z" transform="translate(-901.598 -424.615)" fill="#fff"/>
                    </g>
                  </g>
                </g>
                <g id="Grupo_948478" data-name="Grupo 948478" transform="translate(36.726 24.719)">
                  <g id="Grupo_948477" data-name="Grupo 948477">
                    <g id="Grupo_948476" data-name="Grupo 948476">
                      <path id="Trazado_683700" data-name="Trazado 683700" d="M906.291,424.028a2.5,2.5,0,1,1-2.5-2.5A2.5,2.5,0,0,1,906.291,424.028Z" transform="translate(-901.293 -421.529)" fill="#fff"/>
                    </g>
                  </g>
                </g>
                <g id="Grupo_948481" data-name="Grupo 948481" transform="translate(36.065 18.053)">
                  <g id="Grupo_948480" data-name="Grupo 948480">
                    <g id="Grupo_948479" data-name="Grupo 948479">
                      <path id="Trazado_683701" data-name="Trazado 683701" d="M905.985,420.942a2.5,2.5,0,1,1-2.5-2.5A2.5,2.5,0,0,1,905.985,420.942Z" transform="translate(-900.987 -418.443)" fill="#fff"/>
                    </g>
                  </g>
                </g>
                <g id="Grupo_948484" data-name="Grupo 948484" transform="translate(0.041 54.831)">
                  <g id="Grupo_948483" data-name="Grupo 948483">
                    <g id="Grupo_948482" data-name="Grupo 948482">
                      <path id="Trazado_683702" data-name="Trazado 683702" d="M943.041,439.24c-.741,14.81-47.046,9.708-54.452,5.266-2.858-1.719-4.058-5.028-4.281-9.035,4.866,2.775,13.441,6.235,26.244,6.464,15.708.281,27.037-2.9,32.443-6.266A28.274,28.274,0,0,1,943.041,439.24Z" transform="translate(-884.308 -435.471)" fill="#3986d7"/>
                    </g>
                  </g>
                </g>
                <g id="Grupo_948487" data-name="Grupo 948487" transform="translate(16.378 4.964)">
                  <g id="Grupo_948486" data-name="Grupo 948486">
                    <g id="Grupo_948485" data-name="Grupo 948485">
                      <path id="Trazado_683703" data-name="Trazado 683703" d="M904.9,412.453s-7.041-.741-13.026,2.592l.678,4.691s8.393-2.469,13.948-2.1A11.021,11.021,0,0,0,904.9,412.453Z" transform="translate(-891.872 -412.383)" fill="#fff"/>
                    </g>
                  </g>
                </g>
              </g>
            </g>
            <g id="Grupo_948490" data-name="Grupo 948490" transform="translate(5.252)">
              <path id="Trazado_683704" data-name="Trazado 683704" d="M888.75,245.821c-2.54,13.423-4.756,35.847,2.02,58.394,0,0,47.27,11.741,80.515-14.659,21.752-17.277,22.776-37.495,22.516-43.735Z" transform="translate(-886.266 -245.821)" fill="#32324c"/>
            </g>
          </g>
        </g>
        <g id="Grupo_948497" data-name="Grupo 948497" transform="translate(882.254 224.759)">
          <g id="Grupo_948493" data-name="Grupo 948493" transform="translate(0 227.256)">
            <path id="Trazado_683705" data-name="Trazado 683705" d="M882.708,250.286s6.156,5.581,9.354,11.637,6.3,12.527,8.2,16.3c2.289,4.538-2.529,4.834-5.864,1.6-5.054-4.9-5.778-8.508-5.778-8.508s7.3,26.268,6.365,33.534c-.853,6.635-5.6-7.648-10.186-19.244,0,0,2.644,26.594-.937,29.389-4.7,3.672-7.81-28.555-7.81-28.555s-1.242,24.1-4.1,23.555c-3.19-.613-4.933-25.445-4.933-25.445s-2.32,16.484-4.084,15.443c-3.492-2.06-5.773-37.415,3.482-50.709C866.415,249.283,879.585,247.871,882.708,250.286Z" transform="translate(-859.883 -248.873)" fill="#ffaf82"/>
          </g>
          <g id="Grupo_948496" data-name="Grupo 948496" transform="translate(2.349)">
            <g id="Grupo_948495" data-name="Grupo 948495">
              <g id="Grupo_948494" data-name="Grupo 948494">
                <path id="Trazado_683706" data-name="Trazado 683706" d="M929.02,188.864c-13.086,41.981-30.251,70.478-36.285,79.774-.4,5.909-2.374,33.912-5.914,60.4a446.068,446.068,0,0,0-3.5,45.37,25.457,25.457,0,0,1-21.022,0c-3.052-44.869-.7-81.461,5.579-108.647-.382-35.447,36.648-122.1,36.648-122.1C922.212,156.654,929.02,188.864,929.02,188.864Z" transform="translate(-860.97 -143.654)" fill="#e63067"/>
              </g>
            </g>
          </g>
        </g>
        <g id="Grupo_948498" data-name="Grupo 948498" transform="translate(928.157 212.903)">
          <path id="Trazado_683707" data-name="Trazado 683707" d="M1004.107,373.156c-57.3,29.184-114.562,4.883-114.562,4.883,7.868-49.858,17.4-115.686,17.4-115.686-15.767-30.169-25.806-112.331-25.806-112.331,9.255-5.734,13.577-4.339,24.153-7.13,2.985-.788,5.728-1.451,8.074-1.989,4.795-1.1,7.9-1.659,7.9-1.659,14.458-1.965,29.493-.914,40.441.5.073.011.149.017.222.028,9.6,1.259,16.013,2.8,16.013,2.8s4.4,33.238,13.9,50.052,2.235,26.983,0,34.311a25.779,25.779,0,0,0-.836,5.5c-.629,9.181-1.41,52.4-1.41,52.4Z" transform="translate(-881.136 -138.165)" fill="#e63067"/>
          <path id="Trazado_683708" data-name="Trazado 683708" d="M933.3,171.448c-15.728.486-29.815-17.166-37.24-30.545,4.795-1.1,7.9-1.659,7.9-1.659,14.458-1.965,29.493-.914,40.441.5.073.011.149.017.222.028C946.537,153.23,949.852,170.934,933.3,171.448Z" transform="translate(-863.83 -138.165)" fill="#ffaf82"/>
          <path id="Trazado_683709" data-name="Trazado 683709" d="M963.21,179.267a25.588,25.588,0,0,0-.834,5.5c-27.778,14.283-56.56,6.136-56.56,6.136C943.2,190.265,963.21,179.267,963.21,179.267Z" transform="translate(-852.51 -90.493)" fill="#c11c57"/>
        </g>
        <path id="Trazado_683710" data-name="Trazado 683710" d="M970.424,214.469s39.19-8.138-25.253-94.344l-14.05,11.259a179.624,179.624,0,0,1,14.3,30.318,239.869,239.869,0,0,0,12.732,29.618S962,199.618,970.424,214.469Z" transform="translate(104.997 53.815)" fill="#c11c57"/>
        <g id="Grupo_948507" data-name="Grupo 948507" transform="translate(1005.659 135.263)">
          <g id="Grupo_948506" data-name="Grupo 948506">
            <g id="Grupo_948505" data-name="Grupo 948505">
              <g id="Grupo_948501" data-name="Grupo 948501" transform="translate(6.748 27.301)">
                <path id="Trazado_683711" data-name="Trazado 683711" d="M947.018,126.4l-5.631-9.6-9.991,5.5,6.475,10.29Z" transform="translate(-907.09 -112.608)" fill="#fb9988"/>
                <g id="Grupo_948500" data-name="Grupo 948500">
                  <g id="Grupo_948499" data-name="Grupo 948499">
                    <path id="Trazado_683712" data-name="Trazado 683712" d="M949.659,135.694l1.266-.855,1.3-4.8s-.7-6.635-5.817-9.579a6.412,6.412,0,0,0-2.905-.715,18.655,18.655,0,0,0-4.248.346,49.672,49.672,0,0,0-8.441,2.462,65.277,65.277,0,0,0-7.223-6.6c-1.438-1.071-2.272-1.216-2.762-1.017-.711.285-.691,1.283-.691,1.283l7.965,15.475s11.2,5.454,17.369,6.832Z" transform="translate(-920.143 -114.858)" fill="#fdbd8e"/>
                  </g>
                </g>
              </g>
              <g id="Grupo_948502" data-name="Grupo 948502">
                <path id="Rectángulo_337555" data-name="Rectángulo 337555" d="M.7,0H26.14a.7.7,0,0,1,.7.7V43.742a.7.7,0,0,1-.7.7H.7a.7.7,0,0,1-.7-.7V.7A.7.7,0,0,1,.7,0Z" transform="matrix(0.828, -0.56, 0.56, 0.828, 0, 15.038)" fill="#171228"/>
                <rect id="Rectángulo_337556" data-name="Rectángulo 337556" width="21.265" height="34.653" transform="translate(4.186 16.256) rotate(-34.082)" fill="#28b69a"/>
                <path id="Trazado_683713" data-name="Trazado 683713" d="M935.533,121.389a1.993,1.993,0,1,1-2.769-.533A2,2,0,0,1,935.533,121.389Z" transform="translate(-899.773 -80.999)" fill="#909aa3"/>
              </g>
              <g id="Grupo_948504" data-name="Grupo 948504" transform="translate(28.508 3.137)">
                <g id="Grupo_948503" data-name="Grupo 948503">
                  <path id="Trazado_683714" data-name="Trazado 683714" d="M938.713,105.259a5.181,5.181,0,0,1-.475,3.5c-.624,1.259-1.227,2.562-1.961,3.762-.076.119-.149.238-.223.356a12.757,12.757,0,0,1-1.166,1.562c-.156.175-.318.343-.482.505a7.113,7.113,0,0,1-1.879,1.348,1.614,1.614,0,0,1-2.309-1.613,11.6,11.6,0,0,1,1.3-4.953,20.361,20.361,0,0,1,4.119-5.272C936.944,103.4,938.186,103.175,938.713,105.259Z" transform="translate(-930.218 -103.67)" fill="#fdbd8e"/>
                  <path id="Trazado_683715" data-name="Trazado 683715" d="M939.593,108.422a5.2,5.2,0,0,1-.467,3.5c-.408.81-.8,1.646-1.238,2.462-.164.324-.341.644-.527.948a13.8,13.8,0,0,1-1.594,2.274c-.121.136-.246.266-.371.4a7.333,7.333,0,0,1-1.987,1.456,1.61,1.61,0,0,1-2.3-1.616,11.314,11.314,0,0,1,1.3-4.95,17.135,17.135,0,0,1,.972-1.613,24.337,24.337,0,0,1,1.544-2.045c.108-.13.214-.257.326-.378C936.958,106.94,938.91,105.672,939.593,108.422Z" transform="translate(-929.187 -100.001)" fill="#fdbd8e"/>
                  <path id="Trazado_683716" data-name="Trazado 683716" d="M940.97,110.811a5.211,5.211,0,0,1-.469,3.5c-.505,1.019-1.011,2.078-1.572,3.082-.175.309-.354.622-.551.914a11.958,11.958,0,0,1-1.233,1.689,8.544,8.544,0,0,1-.881.866,6.815,6.815,0,0,1-1.477.987,1.613,1.613,0,0,1-2.3-1.618,11.352,11.352,0,0,1,1.3-4.953c.011-.015.013-.026.024-.041a22.3,22.3,0,0,1,2.127-3.177c.119-.145.24-.3.365-.441C938.074,109.506,940.24,107.878,940.97,110.811Z" transform="translate(-927.592 -97.235)" fill="#fdbd8e"/>
                  <path id="Trazado_683717" data-name="Trazado 683717" d="M941.849,113.862a5.19,5.19,0,0,1-.467,3.5c-.084.171-.164.33-.246.5a22.775,22.775,0,0,1-3.112,5.186,7.671,7.671,0,0,1-2.361,1.853,1.613,1.613,0,0,1-2.3-1.62,11.441,11.441,0,0,1,1.3-4.95,10.622,10.622,0,0,1,.588-1.013,23.594,23.594,0,0,1,2.307-3.08c.121-.138.24-.264.359-.389C939.512,112.205,941.216,111.331,941.849,113.862Z" transform="translate(-926.573 -93.692)" fill="#fdbd8e"/>
                </g>
                <path id="Trazado_683718" data-name="Trazado 683718" d="M935.811,105.259a5.181,5.181,0,0,1-.475,3.5c-.624,1.259-1.227,2.562-1.961,3.762,1.713-1.916,3.665-3.184,4.348-.434a5.2,5.2,0,0,1-.467,3.5c-.408.81-.8,1.646-1.238,2.462,1.78-2.112,3.946-3.741,4.676-.808a5.211,5.211,0,0,1-.469,3.5c-.505,1.019-1.011,2.078-1.572,3.082,1.6-1.644,3.307-2.518,3.94.013a5.19,5.19,0,0,1-.467,3.5c-.084.171-.164.33-.246.5-.028-.117-.054-.225-.089-.337a4.75,4.75,0,0,0-1.27-2.3,2.239,2.239,0,0,0-2.419-.464l-.047.03c.082-.188.16-.367.24-.555a5.547,5.547,0,0,0,.51-3.674c-.436-1.4-2.419-2.3-3.417-1.222l.1-.318c.056-.164.11-.335.162-.508a6.376,6.376,0,0,0,.326-3.447,2.784,2.784,0,0,0-2.827-2.166c-.035.011-.071.011-.1.022a2.067,2.067,0,0,0-.328.1c.771-2.177,1.436-4.324.778-6.624a17.494,17.494,0,0,0-.767-1.924C934.042,103.4,935.284,103.175,935.811,105.259Z" transform="translate(-927.316 -103.67)" fill="#fb9988"/>
              </g>
            </g>
          </g>
        </g>
        <g id="Grupo_948530" data-name="Grupo 948530" transform="translate(929.016 79.266)">
          <g id="Grupo_948529" data-name="Grupo 948529">
            <g id="Grupo_948509" data-name="Grupo 948509" transform="translate(86.995 55.007)">
              <g id="Grupo_948508" data-name="Grupo 948508">
                <path id="Trazado_683719" data-name="Trazado 683719" d="M921.812,106.806s9.1-10.385,16.514-1.363c6.525,7.933,2.464,28.931-13.438,28.348Z" transform="translate(-921.812 -101.759)" fill="#f88968"/>
              </g>
            </g>
            <path id="Trazado_683720" data-name="Trazado 683720" d="M932.494,118.035a3.816,3.816,0,1,1-3.817-3.816A3.816,3.816,0,0,1,932.494,118.035Z" transform="translate(-831.28 -32.301)" fill="#fff"/>
            <g id="Grupo_948512" data-name="Grupo 948512" transform="translate(36.919 102.139)">
              <g id="Grupo_948510" data-name="Grupo 948510">
                <path id="Trazado_683721" data-name="Trazado 683721" d="M932.329,160.823c-.8,9.512-20.48,15.112-31.661-1.039l-1.177-20.873-.864-15.331,35.927,6.97-1.778,24.171Z" transform="translate(-898.627 -123.581)" fill="#ffaf82"/>
              </g>
              <g id="Grupo_948511" data-name="Grupo 948511">
                <path id="Trazado_683722" data-name="Trazado 683722" d="M932.562,157.637c-12.266.168-25.961-8.287-32.812-14.119l-1.123-19.937,35.927,6.97Z" transform="translate(-898.627 -123.581)" fill="#f88968"/>
              </g>
            </g>
            <g id="Grupo_948513" data-name="Grupo 948513" transform="translate(12.126 15.732)">
              <path id="Trazado_683723" data-name="Trazado 683723" d="M931.967,188.159c-37.92-8.674-44.81-58.378-44.81-58.378a55.027,55.027,0,0,1,.51-8.173,63.068,63.068,0,0,1,1.851-9.067c2.719-9.551,8.555-20.439,21.02-25.188q.586-.227,1.184-.436c20.676-7.331,50.91-3.9,60.1,23.475a45.425,45.425,0,0,1,1.4,5.3c.22,1.078.415,2.2.581,3.35C977.929,147.306,966.049,195.958,931.967,188.159Z" transform="translate(-887.148 -83.575)" fill="#ffaf82"/>
            </g>
            <g id="Grupo_948516" data-name="Grupo 948516" transform="translate(40.366 59.857)">
              <g id="Grupo_948515" data-name="Grupo 948515">
                <g id="Grupo_948514" data-name="Grupo 948514">
                  <path id="Trazado_683724" data-name="Trazado 683724" d="M909.253,113.692a4.87,4.87,0,0,1-5.505-4.134,4.78,4.78,0,0,1,.378-2.667c-3.985-.467-3.9-2.886-3.9-2.886.622,1.035,5.274.432,7.2.136h.011c.238-.041.432-.071.574-.093l.024-.006a1.362,1.362,0,0,1,.229-.019,4.864,4.864,0,0,1,.989,9.67Z" transform="translate(-900.223 -104.005)" fill="#32324c"/>
                </g>
              </g>
            </g>
            <g id="Grupo_948517" data-name="Grupo 948517" transform="translate(0 60.724)">
              <path id="Trazado_683725" data-name="Trazado 683725" d="M900.2,106.632s-13.607-7.458-17.964,4.929c-3.834,10.892,8.551,31.5,25.119,24.756Z" transform="translate(-881.533 -104.406)" fill="#ffaf82"/>
            </g>
            <g id="Grupo_948520" data-name="Grupo 948520" transform="translate(51.956 90.402)">
              <g id="Grupo_948518" data-name="Grupo 948518">
                <path id="Trazado_683726" data-name="Trazado 683726" d="M933.378,126.955a13.079,13.079,0,0,1-2.4,3.646c-2.119,2.24-5.35,3.877-10.276,3.866-4.138-.011-7.382-2.3-9.789-5.052a28.1,28.1,0,0,1-3.752-5.648,29.041,29.041,0,0,1-1.57-3.6s19.849-.618,29.35-2.019l0,.006a19.792,19.792,0,0,1-.194,3.9A18.3,18.3,0,0,1,933.378,126.955Z" transform="translate(-905.589 -118.147)" fill="#920e08"/>
              </g>
              <g id="Grupo_948519" data-name="Grupo 948519">
                <path id="Trazado_683727" data-name="Trazado 683727" d="M934.747,122.052c-9.054,1.758-23.706,1.624-27.588,1.715a29.041,29.041,0,0,1-1.57-3.6s19.849-.618,29.35-2.019l0,.006A19.792,19.792,0,0,1,934.747,122.052Z" transform="translate(-905.589 -118.147)" fill="#fff"/>
              </g>
            </g>
            <g id="Grupo_948521" data-name="Grupo 948521" transform="translate(6.647 69.385)">
              <path id="Trazado_683728" data-name="Trazado 683728" d="M897.475,122.667c-1.179-3.583-4.542-10.961-12.864-14.251,0,0,8.892,8.382,9.568,14.868a1.615,1.615,0,0,0,1.641,1.482l.194-.006A1.592,1.592,0,0,0,897.475,122.667Z" transform="translate(-884.611 -108.416)" fill="#f88968"/>
            </g>
            <g id="Grupo_948523" data-name="Grupo 948523" transform="translate(57.278 100.262)">
              <g id="Grupo_948522" data-name="Grupo 948522">
                <path id="Trazado_683729" data-name="Trazado 683729" d="M928.118,125.306c-2.119,2.24-5.35,3.877-10.276,3.866-4.138-.011-7.382-2.3-9.789-5.052,1.318-.752,4.976-2.32,10.182-.59a8.507,8.507,0,0,1,5.084-.741A6.427,6.427,0,0,1,928.118,125.306Z" transform="translate(-908.053 -122.712)" fill="#f85c66"/>
              </g>
            </g>
            <g id="Grupo_948524" data-name="Grupo 948524" transform="translate(58.229 107.954)">
              <path id="Trazado_683730" data-name="Trazado 683730" d="M915.313,130.817a18.208,18.208,0,0,1-6.339-2.523,1.107,1.107,0,0,1,1.253-1.825c.3.2,7.117,4.739,14.324.907a1.107,1.107,0,1,1,1.041,1.955A15.279,15.279,0,0,1,915.313,130.817Z" transform="translate(-908.493 -126.274)" fill="#f88968"/>
            </g>
            <g id="Grupo_948525" data-name="Grupo 948525" transform="translate(63.041 65.306)">
              <path id="Trazado_683731" data-name="Trazado 683731" d="M917.661,127.109H911.9a1.183,1.183,0,1,1,0-2.365h5.756a.266.266,0,0,0,.255-.339l-4.78-16.363a1.182,1.182,0,0,1,2.27-.663l4.78,16.361a2.631,2.631,0,0,1-2.525,3.369Z" transform="translate(-910.721 -106.528)" fill="#f88968"/>
            </g>
            <path id="Trazado_683732" data-name="Trazado 683732" d="M917.825,100.231h0a2.261,2.261,0,0,1-2,2.678c-4.423.436-13.62,1.933-17.769,6.991,0,0,.905-8.309,17.1-11.469A2.273,2.273,0,0,1,917.825,100.231Z" transform="translate(-862.365 -50.661)" fill="#32324c"/>
            <path id="Trazado_683733" data-name="Trazado 683733" d="M915.663,100.378h0a2.263,2.263,0,0,0,2.43,2.292c4.434-.343,13.75-.475,18.717,3.78,0,0-2.339-8.022-18.834-8.307A2.271,2.271,0,0,0,915.663,100.378Z" transform="translate(-841.948 -50.948)" fill="#32324c"/>
            <g id="Grupo_948528" data-name="Grupo 948528" transform="translate(77.344 59.24)">
              <g id="Grupo_948527" data-name="Grupo 948527">
                <g id="Grupo_948526" data-name="Grupo 948526">
                  <path id="Trazado_683734" data-name="Trazado 683734" d="M921.526,113.4a4.87,4.87,0,0,0,5.505-4.134,4.793,4.793,0,0,0-.38-2.665c3.987-.469,3.9-2.886,3.9-2.886-.62,1.035-5.274.43-7.2.136h-.013c-.235-.043-.432-.071-.572-.1l-.024-.006a1.689,1.689,0,0,0-.231-.017,4.862,4.862,0,0,0-.987,9.667Z" transform="translate(-917.343 -103.719)" fill="#32324c"/>
                </g>
              </g>
            </g>
            <path id="Trazado_683735" data-name="Trazado 683735" d="M917.771,98.019s-1.9,33.279-17.421,46.715c0,0-1.335-8.827-13.415-7.5,0,0-1.14-2.065-2.914-12.076s4.6-51.335,50.424-48.674c0,0,14.575-2.957,34.974,14.486s8.313,36.521,8.313,36.521S943.7,122.788,917.771,98.019Z" transform="translate(-878.947 -76.291)" fill="#32324c"/>
            <circle id="Elipse_5265" data-name="Elipse 5265" cx="3.816" cy="3.816" r="3.816" transform="translate(12.127 90.403)" fill="#fff"/>
          </g>
        </g>
      </g>
    </g>
    <g id="Enmascarar_grupo_927196" data-name="Enmascarar grupo 927196" transform="translate(0 -619)" clip-path="url(#clip-path-2)">
      <g id="Grupo_948570" data-name="Grupo 948570" transform="translate(-23.684 5962.835)">
        <g id="Grupo_948532" data-name="Grupo 948532" transform="translate(1055.618 127.91)">
          <path id="Trazado_683736" data-name="Trazado 683736" d="M1056.365,577.776c10.771,158.8,211.136,223.159,310.046,98.456,20.2-25.466,25.034-86.881,19.8-119.274-21.1-130.563-88.051-143.9-38.062-226.49S1402.783,97.95,1264.775,99.12s-49.042,221.753-144.11,283.449C1077.183,410.788,1050.755,495.072,1056.365,577.776Z" transform="translate(-1055.618 -99.114)" fill="#32324c" opacity="0.1"/>
          <path id="Trazado_683737" data-name="Trazado 683737" d="M1088.331,260.309a21.054,21.054,0,0,0,23.212-6.674c8.981-10.88,23.308-32.851,19.044-58.42-6.093-36.526-52.382-7.368-56.024,33.689C1072.744,249.431,1080.31,257.436,1088.331,260.309Z" transform="translate(-1035.276 -12.552)" fill="#32324c" opacity="0.1"/>
          <path id="Trazado_683738" data-name="Trazado 683738" d="M1115.47,194.569a10.981,10.981,0,0,0,7.441-10.165c.23-7.355-.878-20.993-10.8-30.176-14.179-13.118-23.956,13.69-12.347,31.787C1105.568,195.062,1111.245,195.946,1115.47,194.569Z" transform="translate(-1013.122 -42.87)" fill="#32324c" opacity="0.1"/>
          <path id="Trazado_683739" data-name="Trazado 683739" d="M1221.9,280.683a10.981,10.981,0,0,0,9.16-8.651c1.559-7.192,2.94-20.8-5.157-31.635-11.568-15.471-26.041,9.125-17.9,29.025C1212.073,279.371,1217.5,281.271,1221.9,280.683Z" transform="translate(-892.186 49.508)" fill="#32324c" opacity="0.1"/>
        </g>
        <g id="Grupo_948569" data-name="Grupo 948569" transform="translate(1102.718 72.683)">
          <path id="Trazado_683740" data-name="Trazado 683740" d="M1254.626,283.623l-80.862,9.97-8.812-58.338,4.128-.525,76.793-9.7,7.752,51.868Z" transform="translate(-983.6 93.303)" fill="#fff0e7"/>
          <g id="Grupo_948568" data-name="Grupo 948568">
            <g id="Grupo_948533" data-name="Grupo 948533" transform="translate(179.269 322.932)">
              <path id="Trazado_683741" data-name="Trazado 683741" d="M1253.629,285.821l-80.863,9.971-8.811-58.338,4.127-.525,76.793-9.7,7.752,51.87Z" transform="translate(-1163.956 -227.234)" fill="#006aab"/>
              <path id="Trazado_683742" data-name="Trazado 683742" d="M1253.628,280.766l-80.863,9.971-8.809-58.338,4.127-.525c2.156,12.871,14.47,47.484,84.545,42.174Z" transform="translate(-1163.955 -222.178)" fill="#005789"/>
            </g>
            <g id="Grupo_948535" data-name="Grupo 948535" transform="translate(193.512 361.866)">
              <g id="Grupo_948534" data-name="Grupo 948534">
                <path id="Trazado_683743" data-name="Trazado 683743" d="M1170.931,268.4a9.052,9.052,0,0,0,1.216,2,8.258,8.258,0,0,0,2.284,2.006s2.217,10.778,3.784,12.284,11.22-.972,13.214-1.7,11.459-5.077,14.075-8.063-2.447-29.071-2.447-29.071l-26.986.654S1169.7,265.583,1170.931,268.4Z" transform="translate(-1170.772 -245.867)" fill="#fdbd8e"/>
              </g>
              <path id="Trazado_683744" data-name="Trazado 683744" d="M1171.43,263.774a8.259,8.259,0,0,0,2.284,2.006s1.782-4.53,2.317-4.731a24.794,24.794,0,0,0,3.022-3s-1.085-6.122-1.619-6.1-2.113,2.654-2.113,2.654l-.445,4.183A28.062,28.062,0,0,0,1171.43,263.774Z" transform="translate(-1170.055 -239.233)" fill="#fb9988"/>
            </g>
            <g id="Grupo_948536" data-name="Grupo 948536" transform="translate(8.889 720.57)">
              <path id="Trazado_683745" data-name="Trazado 683745" d="M1086.388,453.2h28.952c6.252,0,19.171-11.06,19.171-11.06s3.753,7.5,7.087,10.838,4.271-35.444,4.271-35.444l-18.542,2.781-36.071,21.4-6.9,4.1a3.968,3.968,0,0,0,2.027,7.384Z" transform="translate(-1082.414 -417.538)" fill="#6c3509"/>
              <path id="Trazado_683746" data-name="Trazado 683746" d="M1086.646,441.724c39.521,12.951,54.613-24.186,54.613-24.186h-18.339Z" transform="translate(-1077.803 -417.538)" fill="#fdbd8e"/>
            </g>
            <g id="Grupo_948538" data-name="Grupo 948538" transform="translate(81.267 292.558)">
              <g id="Grupo_948537" data-name="Grupo 948537" transform="translate(115.486 399.585)">
                <path id="Trazado_683747" data-name="Trazado 683747" d="M1177.946,461.08l26.338-12.023c5.687-2.6,12.85-18.024,12.85-18.024s6.527,5.27,10.945,6.918-10.828-34.019-10.828-34.019l-15.717,10.23-23.925,34.449-4.574,6.588a3.971,3.971,0,0,0,4.91,5.88Z" transform="translate(-1172.323 -403.933)" fill="#6c3509"/>
                <path id="Trazado_683748" data-name="Trazado 683748" d="M1174.853,448.612c41.33-4.628,39.642-44.679,39.642-44.679l-16.685,7.616Z" transform="translate(-1169.566 -403.933)" fill="#fdbd8e"/>
              </g>
              <path id="Trazado_683749" data-name="Trazado 683749" d="M1120.146,212.7l-3.093,184.443L1254.9,622.817l27.41-8.953s-61.141-158.64-66.107-163.7-29.307-41.769-29.307-41.769l-.493-174.539Z" transform="translate(-1117.053 -212.697)" fill="#1f2123"/>
            </g>
            <path id="Trazado_683750" data-name="Trazado 683750" d="M1161.571,212.7s-48.374,169.031-49.376,180.7-13,247.309-13,247.309l32.443,2.781s36.664-203.407,35.62-236.751c-.276-8.765,55.718-67.622,58.683-114.025,3.021-47.3-9.764-76.684-9.764-76.684Z" transform="translate(-1055.241 79.861)" fill="#2e3032"/>
            <g id="Grupo_948567" data-name="Grupo 948567">
              <g id="Grupo_948550" data-name="Grupo 948550" transform="translate(0 60.972)">
                <g id="Grupo_948549" data-name="Grupo 948549">
                  <g id="Grupo_948546" data-name="Grupo 948546" transform="translate(43.439)">
                    <g id="Grupo_948545" data-name="Grupo 948545" transform="translate(0)">
                      <g id="Grupo_948541" data-name="Grupo 948541" transform="translate(0.517 31.187)">
                        <path id="Trazado_683751" data-name="Trazado 683751" d="M1099.2,130.048l6.432-10.969,11.413,6.283-7.4,11.755Z" transform="translate(-1099.196 -114.293)" fill="#fb9988"/>
                        <g id="Grupo_948540" data-name="Grupo 948540" transform="translate(8.958)">
                          <g id="Grupo_948539" data-name="Grupo 948539">
                            <path id="Trazado_683752" data-name="Trazado 683752" d="M1106.419,140.592l-1.446-.98-1.49-5.487s.8-7.579,6.644-10.943a7.361,7.361,0,0,1,3.318-.817,21.363,21.363,0,0,1,4.854.395,56.83,56.83,0,0,1,9.643,2.815,74.46,74.46,0,0,1,8.249-7.537c1.642-1.224,2.6-1.39,3.157-1.164.811.326.788,1.467.788,1.467l-9.1,17.677s-12.792,6.231-19.842,7.8Z" transform="translate(-1103.483 -116.789)" fill="#fdbd8e"/>
                          </g>
                        </g>
                      </g>
                      <g id="Grupo_948542" data-name="Grupo 948542">
                        <path id="Rectángulo_337557" data-name="Rectángulo 337557" d="M.7,0H29.959a.7.7,0,0,1,.7.7V50.067a.7.7,0,0,1-.7.7H.7a.7.7,0,0,1-.7-.7V.7A.7.7,0,0,1,.7,0Z" transform="matrix(-0.828, -0.56, 0.56, -0.828, 25.389, 59.222)" fill="#171228"/>
                        <rect id="Rectángulo_337558" data-name="Rectángulo 337558" width="24.292" height="39.585" transform="translate(26.871 51.356) rotate(-145.918)" fill="#28b69a"/>
                        <path id="Trazado_683753" data-name="Trazado 683753" d="M1105.366,124.466a2.278,2.278,0,1,0,3.164-.61A2.282,2.282,0,0,0,1105.366,124.466Z" transform="translate(-1092.382 -78.328)" fill="#909aa3"/>
                      </g>
                      <g id="Grupo_948544" data-name="Grupo 948544" transform="translate(3.674 3.583)">
                        <g id="Grupo_948543" data-name="Grupo 948543">
                          <path id="Trazado_683754" data-name="Trazado 683754" d="M1104.56,105.394a5.9,5.9,0,0,0,.543,4c.713,1.438,1.4,2.927,2.24,4.3.083.134.169.27.253.405a14.54,14.54,0,0,0,1.333,1.784c.177.2.361.391.549.577a8.1,8.1,0,0,0,2.146,1.538,1.842,1.842,0,0,0,2.637-1.841,13.236,13.236,0,0,0-1.479-5.658,23.289,23.289,0,0,0-4.706-6.022C1106.579,103.269,1105.16,103.012,1104.56,105.394Z" transform="translate(-1096.667 -103.578)" fill="#fdbd8e"/>
                          <path id="Trazado_683755" data-name="Trazado 683755" d="M1103.515,109.128a5.932,5.932,0,0,0,.535,4c.464.926.916,1.881,1.411,2.815.19.37.393.733.6,1.082a16.1,16.1,0,0,0,1.82,2.6c.138.157.282.3.424.451a8.434,8.434,0,0,0,2.269,1.663,1.838,1.838,0,0,0,2.631-1.847,12.93,12.93,0,0,0-1.477-5.654,20.4,20.4,0,0,0-1.112-1.843,27.787,27.787,0,0,0-1.766-2.336c-.123-.148-.242-.293-.37-.43C1106.526,107.436,1104.294,105.986,1103.515,109.128Z" transform="translate(-1097.807 -99.508)" fill="#fdbd8e"/>
                          <path id="Trazado_683756" data-name="Trazado 683756" d="M1101.89,111.948a5.939,5.939,0,0,0,.535,4c.577,1.166,1.153,2.376,1.8,3.523.2.353.4.71.627,1.043a14.039,14.039,0,0,0,1.408,1.931,9.99,9.99,0,0,0,1.007.988,7.756,7.756,0,0,0,1.691,1.126,1.842,1.842,0,0,0,2.63-1.847,12.972,12.972,0,0,0-1.482-5.658.245.245,0,0,0-.027-.046,25.422,25.422,0,0,0-2.43-3.629c-.134-.165-.272-.343-.418-.5C1105.2,110.458,1102.722,108.6,1101.89,111.948Z" transform="translate(-1099.576 -96.439)" fill="#fdbd8e"/>
                          <path id="Trazado_683757" data-name="Trazado 683757" d="M1100.853,115.551a5.925,5.925,0,0,0,.533,4c.1.194.186.376.28.57a25.938,25.938,0,0,0,3.556,5.924,8.682,8.682,0,0,0,2.7,2.117,1.84,1.84,0,0,0,2.631-1.849,13.025,13.025,0,0,0-1.481-5.654,11.612,11.612,0,0,0-.671-1.158,26.7,26.7,0,0,0-2.635-3.519c-.138-.157-.274-.3-.407-.443C1103.521,113.66,1101.576,112.659,1100.853,115.551Z" transform="translate(-1100.707 -92.51)" fill="#fdbd8e"/>
                        </g>
                        <path id="Trazado_683758" data-name="Trazado 683758" d="M1108.6,105.394a5.9,5.9,0,0,0,.543,4c.713,1.438,1.4,2.927,2.24,4.3-1.958-2.19-4.189-3.64-4.969-.5a5.932,5.932,0,0,0,.535,4c.464.926.915,1.881,1.41,2.815-2.031-2.415-4.507-4.275-5.339-.926a5.939,5.939,0,0,0,.535,4c.577,1.166,1.153,2.376,1.8,3.523-1.833-1.878-3.778-2.879-4.5.013a5.925,5.925,0,0,0,.533,4c.1.194.186.376.28.57.033-.132.063-.257.1-.384a5.415,5.415,0,0,1,1.45-2.626,2.558,2.558,0,0,1,2.762-.529l.057.033c-.094-.215-.184-.418-.276-.633a6.344,6.344,0,0,1-.583-4.2c.5-1.6,2.766-2.627,3.905-1.4-.04-.121-.079-.242-.119-.361-.065-.188-.125-.384-.186-.581a7.323,7.323,0,0,1-.372-3.939,3.181,3.181,0,0,1,3.23-2.474c.04.01.082.015.117.025a2.553,2.553,0,0,1,.378.117c-.882-2.486-1.645-4.937-.89-7.566a19.6,19.6,0,0,1,.875-2.2C1110.619,103.269,1109.2,103.012,1108.6,105.394Z" transform="translate(-1100.707 -103.578)" fill="#fb9988"/>
                      </g>
                    </g>
                  </g>
                  <g id="Grupo_948548" data-name="Grupo 948548" transform="translate(0 45.135)">
                    <g id="Grupo_948547" data-name="Grupo 948547">
                      <path id="Trazado_683759" data-name="Trazado 683759" d="M1175.666,219.708s-7.394,4.169-17.957,9.261l-.006.01c-21.7,10.452-56.771,24.823-68.608,15.028-36.121-29.867,28.57-114.913,31.47-120.542l1.551.919,24.5,14.478c-12.365,24.161-34.6,54.655-30.845,57.987,11.67-4.459,54.742-24.067,54.742-24.067Z" transform="translate(-1078.16 -123.464)" fill="#ff9300"/>
                    </g>
                  </g>
                </g>
                <path id="Trazado_683760" data-name="Trazado 683760" d="M1157.709,228.968l-.006.01c-21.7,10.452-56.771,24.823-68.608,15.028-36.121-29.867,28.57-114.913,31.47-120.542l1.551.919v.89s-55.8,93.676-31.913,111.909,67.01-16.306,67.01-16.306Z" transform="translate(-1078.16 -78.329)" fill="#cf691f"/>
              </g>
              <g id="Grupo_948566" data-name="Grupo 948566" transform="translate(75.719)">
                <g id="Grupo_948565" data-name="Grupo 948565">
                  <path id="Trazado_683761" data-name="Trazado 683761" d="M1226.906,165.767c-.856,3.926-2.618,10.5-4.975,22.75-1.828,9.461-4.235,20.157-6.828,31.046v.006c-7.871,33.114-17.4,68.117-17.182,76.243,0,0-42.316,25.41-76.578-3.335,0,0-.226-43.748-1.891-51.665s-10.955-67.958,9.885-85.466c9.781-8.21,17.374-12.213,22.667-14.129a34.791,34.791,0,0,1,3.343-1.034v-.008a19.814,19.814,0,0,1,5.061-.708.079.079,0,0,1,.042.008c.167,0,.3.008.4.017a.378.378,0,0,0,.092.008.66.66,0,0,1,.117.008h27.8a118.767,118.767,0,0,1,11.881,3.508c6.034,2.146,21.332,11.005,25.467,15.615a.117.117,0,0,0,.042.044,5.541,5.541,0,0,1,.808,1.13C1227.715,161.124,1227.609,162.558,1226.906,165.767Z" transform="translate(-1112.704 0.076)" fill="#ff9300"/>
                  <g id="Grupo_948551" data-name="Grupo 948551" transform="translate(14.188 221.294)">
                    <path id="Trazado_683762" data-name="Trazado 683762" d="M1121.188,184.446l2.85-.146,7.7-.483c6.452-.318,15.293-.811,24.236,1.582,2.278.6,4.563,1.31,6.864,1.933a56.787,56.787,0,0,0,6.83,1.435,53.03,53.03,0,0,0,11.781.378,20.117,20.117,0,0,0,4.57-.857,10.314,10.314,0,0,0,3.151-1.609,6.9,6.9,0,0,0,1.5-1.6c.259-.424.374-.648.374-.648s-.19.165-.552.483a7.224,7.224,0,0,1-1.766.995,14.654,14.654,0,0,1-7.217.391,85.479,85.479,0,0,1-10.872-2.234c-2.01-.547-4.045-1.191-6.216-1.941s-4.484-1.559-7-2.225a41.891,41.891,0,0,0-14.652-1.1,64.724,64.724,0,0,0-11.5,2.217c-3.178.9-5.688,1.784-7.416,2.413S1121.188,184.446,1121.188,184.446Z" transform="translate(-1121.188 -178.591)" fill="#cf691f"/>
                  </g>
                  <g id="Grupo_948564" data-name="Grupo 948564">
                    <path id="Trazado_683763" data-name="Trazado 683763" d="M1115.456,126.531c.127-.656.324-1.6.644-2.75a25.045,25.045,0,0,1,1.456-3.972,16.9,16.9,0,0,1,2.953-4.421,16.023,16.023,0,0,1,4.279-3.2,21.557,21.557,0,0,1,3.958-1.565c.5-.146.953-.259,1.368-.355.506-.476.809-.738.809-.738l-.264.618c.316-.067.606-.123.846-.167.66-.115,1.028-.161,1.028-.161s-.911.6-2.407,1.578c-.314.74-.711,1.67-1.177,2.762a49.091,49.091,0,0,0-3.439,10.888,64.474,64.474,0,0,0-.537,11.494c.013,1.546.025,2.806.029,3.68-.012.878-.021,1.367-.021,1.367l-.552-1.252c-.341-.811-.811-1.989-1.3-3.483a33.093,33.093,0,0,1-1.312-5.416,22.421,22.421,0,0,1,0-7.008,21.083,21.083,0,0,1,2.349-6.64,28.253,28.253,0,0,1,3.017-4.4,30.871,30.871,0,0,0-4.6,3.943,49.235,49.235,0,0,0-5.182,7.029c-.646.982-1.168,1.782-1.532,2.338l-.589.853S1115.341,127.187,1115.456,126.531Z" transform="translate(-1113.441 -32.541)" fill="#85441d"/>
                    <g id="Grupo_948552" data-name="Grupo 948552" transform="translate(87.77 9.434)">
                      <path id="Trazado_683764" data-name="Trazado 683764" d="M1160.475,181.2a54.469,54.469,0,0,0,7.677,12.7c6.828,8.63,16.39,15.972,27.368,16.691a37.811,37.811,0,0,1-14.472-9.706c.669.435,1.341.861,2.035,1.243a36.712,36.712,0,0,0,25.316,4.035,31.591,31.591,0,0,1-7.052-13.348,46.6,46.6,0,0,1-1.55-10.7c-.282-8.694,1.343-17.313,2.533-25.935,1.945-13.962,3.295-28.411,2.81-42.523-.385-11.321-4.06-23.609-12.654-31.436a19.283,19.283,0,0,0-28.776,3.176,18.1,18.1,0,0,0-1.693,2.886c-.717,1.542-1.107,2.733-.159,4.141a30.315,30.315,0,0,0,3.435,3.753,25.251,25.251,0,0,1,6.16,12.361,16.767,16.767,0,0,0-1.517,1.36,32.858,32.858,0,0,0-6.726,10.995,95.634,95.634,0,0,0-6.77,33.977C1156.206,163.808,1157.025,172.945,1160.475,181.2Z" transform="translate(-1156.403 -77.198)" fill="#85441d"/>
                      <path id="Trazado_683765" data-name="Trazado 683765" d="M1159.9,85.389a16.776,16.776,0,0,0,2.325,5.134c5.195-.215,9.921,3.569,12.255,8.214s2.718,10.011,2.766,15.211a139.5,139.5,0,0,1-1.726,23.308c-1.283,8.136-3.3,16.239-3.174,24.476s2.716,16.906,9.068,22.159a32.721,32.721,0,0,1,2.419-14.271,31.341,31.341,0,0,0,13.7,23.189,46.6,46.6,0,0,1-1.55-10.7,107.016,107.016,0,0,1,1.517-18.939c.343-2.336.692-4.662,1.016-7,1.945-13.962,3.295-28.411,2.81-42.523-.385-11.321-4.06-23.609-12.654-31.436a19.627,19.627,0,0,0-16.764-4.66,18.446,18.446,0,0,0-4.727,1.634A19.752,19.752,0,0,0,1159.9,85.389Z" transform="translate(-1152.594 -77.198)" fill="#965326"/>
                      <path id="Trazado_683766" data-name="Trazado 683766" d="M1163.387,79.188c5.192,3.583,10.446,7.152,13.053,12.763a33.9,33.9,0,0,1,2.219,8.011,76.444,76.444,0,0,1,1.567,11.221c.267,6.611-1.2,13.164-1.626,19.775a63.071,63.071,0,0,0,2.842,23.124,41,41,0,0,1,4.244-10.138c.334,7.094,3.761,13.412,8.02,19.225.343-2.336.692-4.662,1.016-7,1.945-13.962,3.295-28.411,2.81-42.523-.385-11.321-4.06-23.609-12.654-31.436a19.627,19.627,0,0,0-16.764-4.66A18.447,18.447,0,0,0,1163.387,79.188Z" transform="translate(-1148.795 -77.198)" fill="#b5693c"/>
                    </g>
                    <circle id="Elipse_5266" data-name="Elipse 5266" cx="11.252" cy="11.252" r="11.252" transform="translate(83.167 14.963)" fill="#fff0e7"/>
                    <g id="Grupo_948559" data-name="Grupo 948559" transform="translate(1.249)">
                      <path id="Trazado_683767" data-name="Trazado 683767" d="M1135.643,140.751l-3,33.737,14.848-7.551,7.745-9.587s.1-12.288.067-18.306h-10.6a.947.947,0,0,1-.117-.01.528.528,0,0,1-.094-.006c-.1,0-.232-.008-.4-.019a.068.068,0,0,0-.04-.008,19.941,19.941,0,0,0-5.061.71v.008A34.736,34.736,0,0,0,1135.643,140.751Z" transform="translate(-1095.77 -0.433)" fill="#fff0e7"/>
                      <g id="Grupo_948558" data-name="Grupo 948558">
                        <g id="Grupo_948553" data-name="Grupo 948553" transform="translate(42.969 100.568)">
                          <path id="Trazado_683768" data-name="Trazado 683768" d="M1144.313,186.747l25.009-27.888c-.042-4.143-.393-5.7-.767-15.955-.4-11.4-.817-22.09-.817-22.09l-32.178,12.719c3.592,8.045,5.211,17.215,5.75,25.951C1142.447,177.9,1144.313,186.747,1144.313,186.747Z" transform="translate(-1135.56 -120.813)" fill="#fdbd8e"/>
                          <path id="Trazado_683769" data-name="Trazado 683769" d="M1135.56,133.532c3.592,8.045,5.211,17.215,5.75,25.951,1.02.426,2.012.817,2.944,1.143,3.734,1.3,15.74-9.355,24.3-17.723-.4-11.4-.817-22.09-.817-22.09Z" transform="translate(-1135.56 -120.813)" fill="#fb9988"/>
                        </g>
                        <g id="Grupo_948557" data-name="Grupo 948557">
                          <g id="Grupo_948554" data-name="Grupo 948554">
                            <path id="Trazado_683770" data-name="Trazado 683770" d="M1120.44,136.94c.65,2.975,1.482,6.1,2.516,9.369,0,0-1.442,16.114.251,19.725s12.537,26.123,23.925,24.733c9.5-1.16,32.744-15.082,40.824-23.377,1.615-1.649,2.624-3.074,2.808-4.133,1.108-6.394,4.919-34.6,5.276-36.955.968-6.4,3.652-54.82-54.893-41.349a28.192,28.192,0,0,0-21.25,21.158C1118.17,113.73,1117.6,123.958,1120.44,136.94Z" transform="translate(-1111.224 -61.88)" fill="#fdbd8e"/>
                            <path id="Trazado_683771" data-name="Trazado 683771" d="M1115,117.643a24.8,24.8,0,0,0,1.542,7.537c1.645,4.927,3.926,9.879,8,13.086a82.387,82.387,0,0,1,.875-19.583c13.964,15.216,43.173,20.427,44.356,20.627-5.535-1.7-7.194-12.773-7.194-12.773,6.67,15.565,35.906,18.766,35.906,18.766,7-5.686,11.862,5.075,11.862,5.075,2.367-4.375,4.336-8.335,5.869-12.01.409-.961.784-1.9,1.126-2.81a39.95,39.95,0,0,0,2.008-7.535c3.892-23.367-13.58-46.267-36.09-52.805a.239.239,0,0,0-.065-.015c-21.275-6.154-46.424-.518-58.271,11.237a24.5,24.5,0,0,0-5.042,6.985c-.178.368-.334.75-.476,1.135-.05.117-.092.232-.134.349a18.105,18.105,0,0,0-1.149,6.893,23.948,23.948,0,0,0,.5,4.235A23.145,23.145,0,0,0,1115,117.643Z" transform="translate(-1114.996 -72.683)" fill="#85441d"/>
                            <path id="Trazado_683772" data-name="Trazado 683772" d="M1117.1,94.559a17.688,17.688,0,0,0,4,1.617c2.819.742,5.777.8,8.594,1.55a17.949,17.949,0,0,1,8.853,5.51c4.118,4.693,5.953,11.655,11.513,14.488,3.845,1.958,8.487,1.352,12.656.226s8.329-2.733,12.646-2.61c6.785.2,12.779,4.676,17.015,9.977a20.007,20.007,0,0,0,4.085,4.394c2.315,1.584,5.284,1.876,8.084,1.734a30.823,30.823,0,0,0,12.5-3.425,41.873,41.873,0,0,0-2.443-22.151,52.5,52.5,0,0,0-33.647-30.655.24.24,0,0,0-.065-.015,70.162,70.162,0,0,0-41.8,1.433,44.756,44.756,0,0,0-16.474,9.8,24.5,24.5,0,0,0-5.042,6.985C1117.4,93.792,1117.245,94.175,1117.1,94.559Z" transform="translate(-1112.7 -72.682)" fill="#965326"/>
                            <path id="Trazado_683773" data-name="Trazado 683773" d="M1127.628,76.636c6.87,5.621,10.378,15.448,18.688,18.54,4.827,1.8,10.171.848,15.283.265s10.763-.616,14.812,2.56c2.117,1.669,3.55,4.043,5.552,5.853,4.219,3.8,10.487,4.57,16.072,3.494a29.6,29.6,0,0,0,5.1-1.475,52.5,52.5,0,0,0-33.647-30.655.239.239,0,0,0-.065-.015A70.162,70.162,0,0,0,1127.628,76.636Z" transform="translate(-1101.233 -72.682)" fill="#b5693c"/>
                            <path id="Trazado_683774" data-name="Trazado 683774" d="M1121.922,117.974s-1.442,16.114.251,19.725,12.537,26.123,23.925,24.733c9.5-1.16,32.744-15.082,40.824-23.377-9.9,6.87-36.282,24.4-44.017,21.71-9.586-3.335-20.422-24.549-20.216-26.651s.833-15.855.833-15.855-1.935-4.344-4.116-9.653C1120.056,111.58,1120.887,114.706,1121.922,117.974Z" transform="translate(-1110.191 -33.546)" fill="#ffdaba"/>
                          </g>
                          <g id="Grupo_948556" data-name="Grupo 948556" transform="translate(76.919 68.865)">
                            <path id="Trazado_683775" data-name="Trazado 683775" d="M1151.808,137.341a22.387,22.387,0,0,0,15.567-8.59,18.513,18.513,0,0,0,1.55-2.309c2.1-3.809,2.7-17.008-2.7-20.078-3.789-2.148-6.544.967-7.855,3.028v.008a12.286,12.286,0,0,0-.855,1.561Z" transform="translate(-1151.808 -105.64)" fill="#ffdaba"/>
                            <path id="Trazado_683776" data-name="Trazado 683776" d="M1151.808,136.691a22.387,22.387,0,0,0,15.567-8.59c.246-.374.464-.727.65-1.064,2.1-3.807,2.7-17.01-2.7-20.074-3.067-1.743-5.458-.029-6.954,1.778v.008a12.286,12.286,0,0,0-.855,1.561Z" transform="translate(-1151.808 -104.99)" fill="#fdbd8e"/>
                            <path id="Trazado_683777" data-name="Trazado 683777" d="M1164.938,112.244a5.665,5.665,0,0,1-.249,3.2c-1.475,4.43-5.9,7.81-10.138,10.949a11.107,11.107,0,0,0,1.485-6.937c-.09-.821-.267-1.638-.276-2.464C1155.727,113.667,1163.335,106,1164.938,112.244Z" transform="translate(-1148.819 -101.033)" fill="#fb9988"/>
                            <g id="Grupo_948555" data-name="Grupo 948555" transform="translate(3.607 8.767)">
                              <path id="Trazado_683778" data-name="Trazado 683778" d="M1153.534,127.689l.24-.136c.152-.094.4-.217.681-.41a9.464,9.464,0,0,0,2.089-1.887,8.543,8.543,0,0,0,1.722-3.517,7.363,7.363,0,0,0-.535-4.655,4.262,4.262,0,0,0-.307-.581l-.086-.142-.011-.017,0,0,0,0h0s0,.006.013-.025l.069-.125.144-.251c.1-.169.19-.332.295-.5a19.6,19.6,0,0,1,1.277-1.824c.445-.566.9-1.087,1.36-1.565a12.206,12.206,0,0,1,1.339-1.245,2.956,2.956,0,0,1,1.373-.606,2.142,2.142,0,0,1,1.166.194,1.1,1.1,0,0,1,.52.47.772.772,0,0,1,.073.221.509.509,0,0,0-.015-.236,1.034,1.034,0,0,0-.434-.6,2.4,2.4,0,0,0-1.337-.42,3.745,3.745,0,0,0-1.816.518,11.637,11.637,0,0,0-1.651,1.185,17.393,17.393,0,0,0-1.628,1.527,15.994,15.994,0,0,0-1.507,1.866c-.117.169-.228.343-.338.516l-.163.267-.217.372-.151.263c.042.09.1.178.149.263l.215.376a3.46,3.46,0,0,1,.265.508,7.787,7.787,0,0,1,.683,4.114,8.8,8.8,0,0,1-1.122,3.36,9.673,9.673,0,0,1-1.6,2.041c-.226.228-.431.382-.556.5S1153.534,127.689,1153.534,127.689Z" transform="translate(-1153.534 -109.836)" fill="#fd7d6f"/>
                            </g>
                          </g>
                        </g>
                      </g>
                      <path id="Trazado_683779" data-name="Trazado 683779" d="M1139.748,166.913l19,14.846,17.892-39.228a118.031,118.031,0,0,0-11.879-3.51Z" transform="translate(-1088.028 -0.409)" fill="#fff0e7"/>
                    </g>
                    <path id="Trazado_683780" data-name="Trazado 683780" d="M1148.469,122.368c.127-.658.326-1.6.646-2.75a24.867,24.867,0,0,1,1.454-3.972,16.946,16.946,0,0,1,2.955-4.421,15.983,15.983,0,0,1,4.279-3.2,21.508,21.508,0,0,1,3.958-1.565c.5-.146.955-.259,1.37-.355.5-.476.8-.738.8-.738l-.261.616c.313-.065.606-.123.846-.165.66-.117,1.028-.159,1.028-.159s-.911.593-2.407,1.575c-.316.736-.712,1.669-1.178,2.76a49.238,49.238,0,0,0-3.439,10.89,65,65,0,0,0-.537,11.492c.012,1.548.027,2.808.033,3.682-.017.878-.023,1.367-.023,1.367s-.2-.449-.552-1.254-.813-1.987-1.3-3.481a32.869,32.869,0,0,1-1.312-5.416,22.414,22.414,0,0,1,0-7.008,21.086,21.086,0,0,1,2.348-6.64,28.188,28.188,0,0,1,3.015-4.4,30.712,30.712,0,0,0-4.6,3.943,49.12,49.12,0,0,0-5.184,7.029c-.644.982-1.166,1.782-1.53,2.338-.38.547-.589.853-.589.853S1148.354,123.024,1148.469,122.368Z" transform="translate(-1077.472 -37.077)" fill="#85441d"/>
                    <g id="Grupo_948563" data-name="Grupo 948563" transform="translate(5.15 53.55)">
                      <path id="Trazado_683781" data-name="Trazado 683781" d="M1116.865,106.691s7.474-10,11.64-6.043,2.294,4.375,2.294,4.375Z" transform="translate(-1116.86 -96.774)" fill="#965326"/>
                      <path id="Trazado_683782" data-name="Trazado 683782" d="M1156.236,109.76s-13.789-15.878-19.436-10.236c-3.295,3.291-1.005,5.533-1.005,5.533Z" transform="translate(-1097.08 -98.311)" fill="#965326"/>
                      <path id="Trazado_683783" data-name="Trazado 683783" d="M1136.341,104.572c.66,1.705,2.882,3.038,4.436,3.792a3.789,3.789,0,0,1,2.821-1.456c2.687,0,4.862,3.5,4.862,7.81s-2.175,7.808-4.862,7.808-4.862-3.5-4.862-7.808a11.705,11.705,0,0,1,.579-3.692C1137.264,109.223,1136.341,104.572,1136.341,104.572Z" transform="translate(-1095.641 -91.489)" fill="#161818"/>
                      <path id="Trazado_683784" data-name="Trazado 683784" d="M1149.961,107.457a10.014,10.014,0,0,1-10.732,4.346,10.007,10.007,0,0,1,10.732-4.346Z" transform="translate(-1092.494 -88.589)" fill="#fff0e7"/>
                      <path id="Trazado_683785" data-name="Trazado 683785" d="M1120.6,106.56c.455,1.168,1.962,2.089,3.04,2.618a2.73,2.73,0,0,1,1.9-.861c2.023,0,3.665,2.637,3.665,5.888s-1.642,5.886-3.665,5.886-3.667-2.637-3.667-5.886a8.574,8.574,0,0,1,.635-3.312C1121.195,109.546,1120.6,106.56,1120.6,106.56Z" transform="translate(-1112.794 -89.323)" fill="#161818"/>
                      <path id="Trazado_683786" data-name="Trazado 683786" d="M1119.7,108.889a8.083,8.083,0,0,0,7.633,3.09,8.078,8.078,0,0,0-7.633-3.09Z" transform="translate(-1113.769 -86.864)" fill="#fff0e7"/>
                      <g id="Grupo_948560" data-name="Grupo 948560" transform="translate(18.462 18.994)">
                        <path id="Trazado_683787" data-name="Trazado 683787" d="M1135.741,118.551a8.584,8.584,0,0,1,3.656-.959,12.2,12.2,0,0,1-6.634,6.4,1.391,1.391,0,0,1-1.532-.142,14.321,14.321,0,0,1-4.189-3.732,2.762,2.762,0,0,1-.541-1c-.29-1.231.556-.961,1.287-.673a11.385,11.385,0,0,0,7.953.107Z" transform="translate(-1124.886 -96.316)" fill="#fb9988"/>
                        <path id="Trazado_683788" data-name="Trazado 683788" d="M1133.314,134.368c-.75-.671-1.592-1.237-2.361-1.891a19.27,19.27,0,0,1-2.606-2.662c4-2.752,3.953-6.925,3.761-11.653a13.776,13.776,0,0,0-4.935-9.992,4.985,4.985,0,0,0-1.384-.769c.247.284.414.61.637.9a26.853,26.853,0,0,1,1.69,2.278,16.948,16.948,0,0,1,1.285,2.57,16.714,16.714,0,0,1,1.193,5.6,13.811,13.811,0,0,1-.9,5.535,10.9,10.9,0,0,1-4,5.157c-.015.01,2.731,3.182,3,3.439a14.038,14.038,0,0,0,2.265,1.786,4.975,4.975,0,0,0,2.691,1.068,1.582,1.582,0,0,0,.867-.259,2.981,2.981,0,0,1-.468-.376c-.063-.061-.123-.125-.182-.188C1133.693,134.717,1133.506,134.541,1133.314,134.368Z" transform="translate(-1125.698 -107.401)" fill="#fd7d6f"/>
                      </g>
                      <path id="Trazado_683789" data-name="Trazado 683789" d="M1131.132,122.355c-.641,1.709-4.331,1.906-8.245.443s-6.569-4.041-5.93-5.75,4.332-1.908,8.245-.441S1131.772,120.643,1131.132,122.355Z" transform="translate(-1116.862 -79.449)" fill="#fb9988"/>
                      <path id="Trazado_683790" data-name="Trazado 683790" d="M1158.438,116.414c.669,2.576-3.575,5.907-9.478,7.434s-11.231.681-11.9-1.9,3.575-5.907,9.478-7.436S1157.772,113.835,1158.438,116.414Z" transform="translate(-1094.93 -81.485)" fill="#fb9988"/>
                      <g id="Grupo_948562" data-name="Grupo 948562" transform="translate(21.604 47.325)">
                        <g id="Grupo_948561" data-name="Grupo 948561" transform="translate(10.123 13.856)">
                          <path id="Trazado_683791" data-name="Trazado 683791" d="M1132.047,128.694a14.388,14.388,0,0,0,11.933-1.1,6.192,6.192,0,0,1-5.078,3.6A10.235,10.235,0,0,1,1132.047,128.694Z" transform="translate(-1132.047 -127.591)" fill="#fd7d6f"/>
                        </g>
                        <path id="Trazado_683792" data-name="Trazado 683792" d="M1156.407,121.3a19.281,19.281,0,0,1-5.006,8.991,14.678,14.678,0,0,1-7.714,4.018,12.951,12.951,0,0,1-8.617-1.314,21.279,21.279,0,0,1-7.867-7.873c17.33-5.748,28.733-3.9,29.188-3.828Z" transform="translate(-1127.202 -120.96)" fill="#fc5b68"/>
                        <path id="Trazado_683793" data-name="Trazado 683793" d="M1156.407,121.3s-.265,1-2.754,2.359-20.178,3.583-22.257,3.335a10.162,10.162,0,0,1-4.194-1.872c17.33-5.748,28.733-3.9,29.188-3.828Z" transform="translate(-1127.202 -120.96)" fill="#fff0e7"/>
                        <path id="Trazado_683794" data-name="Trazado 683794" d="M1147.3,126.224a14.677,14.677,0,0,1-7.714,4.018,12.951,12.951,0,0,1-8.617-1.314C1134.038,126.654,1141.147,122.417,1147.3,126.224Z" transform="translate(-1123.1 -116.888)" fill="#cf4a57"/>
                      </g>
                    </g>
                    <path id="Trazado_683795" data-name="Trazado 683795" d="M1114.4,118.162a14.89,14.89,0,0,0,29.767.631c2.361-1.757,5.627-.577,6.937.027a16.293,16.293,0,1,0,32.2-4.217l21.154-3.456-.4-2.468-21.484,3.508a16.286,16.286,0,0,0-31.388,3.951,9.647,9.647,0,0,0-7.161-.155,14.891,14.891,0,0,0-29.623,2.177Zm39.163-.134a13.8,13.8,0,1,1,13.805,13.8A13.819,13.819,0,0,1,1153.561,118.028Zm-36.662.134a12.4,12.4,0,1,1,12.4,12.4A12.414,12.414,0,0,1,1116.9,118.162Z" transform="translate(-1114.398 -41.042)" fill="#fff0e7"/>
                  </g>
                </g>
              </g>
            </g>
            <path id="Trazado_683796" data-name="Trazado 683796" d="M1215.6,354.921h-32.786s1.11-59.155,1.11-60.823c0-1.367-14.338-62.1-19.549-84.114v-.006c-1.151-4.887-1.858-7.863-1.858-7.863V165.37l9.451-13.272,2.733-3.834s.278.274.777.784a.116.116,0,0,0,.042.044c4.266,4.35,23.8,24.564,24.4,30.776.675,6.968,15.124,101.442,15.681,116.731S1215.6,354.921,1215.6,354.921Z" transform="translate(-986.255 9.661)" fill="#ff9300"/>
            <path id="Trazado_683797" data-name="Trazado 683797" d="M1181.845,326.111s1.11-59.155,1.11-60.823c0-1.366-14.338-62.1-19.549-84.114v-.006l1.918-6.461s22.874,78.909,22.473,86.129c-.307,5.518,1.569,46.307,2.47,65.276Z" transform="translate(-985.286 38.471)" fill="#cf691f"/>
            <path id="Trazado_683798" data-name="Trazado 683798" d="M1222.12,362.655h-5.153c.184-16.072.535-53.213-.092-55.823-.79-3.333-11.985-101.7-16.99-119.232-1.983-6.943-9.192-15.673-17.188-23.684-1.383-1.392-2.8-2.758-4.21-4.085-10.976-10.387-21.956-18.665-21.956-18.665,6.034,2.146,21.332,11.005,25.467,15.615a.116.116,0,0,0,.042.044c4.266,4.35,23.8,24.564,24.4,30.776.675,6.968,15.124,101.442,15.681,116.731S1222.12,362.655,1222.12,362.655Z" transform="translate(-992.775 1.928)" fill="#ffb800"/>
          </g>
        </g>
        <ellipse id="Elipse_5267" data-name="Elipse 5267" cx="127.392" cy="19.327" rx="127.392" ry="19.327" transform="translate(1115.772 813.72)" fill="#32324c" opacity="0.1"/>
      </g>
    </g>
    <g id="Grupo_948571" data-name="Grupo 948571" transform="translate(72.697 5235.131)">
      <rect id="Rectángulo_335418" data-name="Rectángulo 335418" width="269.067" height="186.138" rx="13.129" transform="translate(448.236 186.387)" fill="#fff"/>
      <path id="Trazado_639247" data-name="Trazado 639247" d="M450.105,258.388s-6.546,17.249-15.789,24.359c0,0,21.243-.262,27.838-7.364A109.273,109.273,0,0,1,450.105,258.388Z" transform="translate(0 4.86)" fill="#fff"/>
    </g>
    <text id="Hola_Patricia_terminamos_el_semestre_y_tenemos_vacaciones_será_que_nos_vamos_de_vacaciones_a_acampar_en_un_parque_nacional_natural_de_los_muchos_que_tenemos_en_Colombia_qué_dices_" data-name="Hola Patricia, terminamos el semestre y tenemos vacaciones, será que nos vamos de vacaciones a acampar en un parque nacional natural de los muchos que tenemos en Colombia… qué dices…" transform="translate(535.008 5435.428)" fill="#12263f" font-size="16" font-family="SegoeUI, Segoe UI"><tspan x="0" y="17">Hola Patricia, terminamos el </tspan><tspan x="0" y="41">semestre y tenemos vacaciones, </tspan><tspan x="0" y="65">será que nos vamos de vacaciones </tspan><tspan x="0" y="89">a acampar en un parque nacional </tspan><tspan x="0" y="113">natural de los muchos que </tspan><tspan x="0" y="137">tenemos en Colombia… qué </tspan><tspan x="0" y="161">dices…</tspan></text>
    <g id="Grupo_948572" data-name="Grupo 948572" transform="translate(822.013 5421.518)">
      <rect id="Rectángulo_335418-2" data-name="Rectángulo 335418" width="269.067" height="125.139" rx="13.129" transform="translate(0 0)" fill="#fff"/>
      <path id="Trazado_639247-2" data-name="Trazado 639247" d="M446.365,258.388s6.546,17.249,15.789,24.359c0,0-21.243-.262-27.838-7.364A109.274,109.274,0,0,0,446.365,258.388Z" transform="translate(-179.167 -181.528)" fill="#fff"/>
    </g>
    <text id="Me_encantaría_la_verdad_estoy_cansada_y_necesito_ver_algo_diferente_creo_que_la_naturaleza_me_da_vida_" data-name="Me encantaría… la verdad estoy cansada y necesito ver algo diferente… creo que la naturaleza me da vida… " transform="translate(832.005 5435.428)" fill="#12263f" font-size="16" font-family="SegoeUI, Segoe UI"><tspan x="0" y="17">Me encantaría… la verdad estoy </tspan><tspan x="0" y="41">cansada y necesito ver algo </tspan><tspan x="0" y="65">diferente… creo que la naturaleza </tspan><tspan x="0" y="89">me da vida… </tspan></text>
  </g>
</svg>
