<svg xmlns="http://www.w3.org/2000/svg" width="500.744" height="549.906" viewBox="0 0 500.744 549.906">
  <g id="Grupo_963427" data-name="Grupo 963427" transform="translate(-550 -912.721)">
    <g id="Grupo_944321" data-name="Grupo 944321" transform="translate(754.196 1381.021)">
      <path id="Trazado_681434" data-name="Trazado 681434" d="M703.271,2738.806H676.4v-43.931a3.643,3.643,0,0,0-3.643-3.643H645.166a3.643,3.643,0,0,0-3.643,3.643v43.931H614.654c-1.739,0-2.531,1.8-1.2,2.729l20.8,14.517,23.508,16.407a2.1,2.1,0,0,0,2.4,0l23.509-16.407,20.8-14.517C705.8,2740.606,705.01,2738.806,703.271,2738.806Z" transform="translate(-612.786 -2691.232)" fill="#335329"/>
    </g>
    <g id="Grupo_946701" data-name="Grupo 946701" transform="translate(550 912.721)">
      <path id="Trazado_681436" data-name="Trazado 681436" d="M636.687,2171.844c-66.548,0-129.441,3.207-177.092,9.032-67.568,8.258-72.954,17.79-73.28,18.565.326.776,5.712,10.308,73.28,18.566,47.651,5.824,110.544,9.032,177.092,9.032s129.441-3.207,177.092-9.032c67.568-8.258,72.955-17.79,73.28-18.566-.325-.775-5.712-10.307-73.28-18.565C766.128,2175.051,703.235,2171.844,636.687,2171.844Z" transform="translate(-386.315 -2171.844)" fill="#fcc990"/>
    </g>
    <g id="Grupo_946707" data-name="Grupo 946707" transform="translate(611.821 917.495)">
      <rect id="Rectángulo_337476" data-name="Rectángulo 337476" width="142.012" height="127.073" rx="9.517" transform="matrix(0.951, -0.309, 0.309, 0.951, 0, 43.884)" fill="#0387d0"/>
      <text id="Afianzar_sus_conocimientos" data-name="Afianzar sus conocimientos" transform="translate(37.276 117.415) rotate(-19)" fill="#fff" font-size="16" font-family="SegoeUI-Bold, Segoe UI" font-weight="700"><tspan x="10.837" y="17">Afianzar sus </tspan><tspan x="1.517" y="36">conocimientos</tspan></text>
      <g id="pensamiento_1_" data-name="pensamiento(1)" transform="translate(49.327 46.689) rotate(-17)">
        <g id="Grupo_946704" data-name="Grupo 946704" transform="translate(0 0)">
          <g id="Grupo_946703" data-name="Grupo 946703" transform="translate(0 0)">
            <path id="Trazado_682793" data-name="Trazado 682793" d="M48.731,13.382a15.218,15.218,0,0,0-5.488-7.893C38.063,1.426,33.221-.258,27.557.032A61.524,61.524,0,0,0,18.677,1.3c-4.142.834-7.15,2.29-9.2,4.451a17.409,17.409,0,0,0-3.683,6,24.213,24.213,0,0,0-.83,2.989l-.077.332a11.621,11.621,0,0,1-.778,2.072c-.191.426-.381.852-.544,1.286a3.129,3.129,0,0,0-.247,1.545,3.5,3.5,0,0,0,1.339,2.045c.45.412.746.7.749.966a1.573,1.573,0,0,1-.161.392,35.525,35.525,0,0,1-4.018,6.536,3.829,3.829,0,0,0-1.21,2.7,2.844,2.844,0,0,0,1.33,1.712,6.768,6.768,0,0,0,.957.555c.4.2,1.06.54,1.105.782a1.56,1.56,0,0,1-.1.921c-.136.287-.278.536-.4.751-.337.6-.9,1.594-.05,2.308.2.175.537.442.847.679a2.315,2.315,0,0,0-.3,1.329,1.317,1.317,0,0,0,.541.892c.205.146.425.273.643.4.54.308.75.451.823.737a2.589,2.589,0,0,1-.1,1.113c-.053.241-.1.481-.137.722a5.36,5.36,0,0,0,.308,2.467,3.4,3.4,0,0,0,4,2.427,74.951,74.951,0,0,0,7.745-2.316C19.3,49.311,20.6,53,20.941,54.383a.92.92,0,0,0,.892.7H45.044a.918.918,0,0,0,.878-1.187,6.352,6.352,0,0,0-1.034-1.784,7.1,7.1,0,0,1-.662-1.01,18.106,18.106,0,0,1-1.037-2.626,30.433,30.433,0,0,1-1.082-5.429,15.522,15.522,0,0,1,1.2-8.059A20.617,20.617,0,0,1,45.8,31.055c.555-.746,1.128-1.518,1.644-2.332a14.118,14.118,0,0,0,2.247-7.545A27.466,27.466,0,0,0,48.731,13.382Zm-.876,7.77a12.316,12.316,0,0,1-1.963,6.589c-.48.756-1.032,1.5-1.566,2.22a22.384,22.384,0,0,0-2.7,4.293,17.356,17.356,0,0,0-1.34,9.014,32.206,32.206,0,0,0,1.15,5.75A20,20,0,0,0,42.573,51.9a8.594,8.594,0,0,0,.833,1.294l.037.051H22.528a14.653,14.653,0,0,0-3.236-5.865l.68-.238c.688-.241,1.206-.423,1.467-.5,3.936-1.235,5.9-3.024,5.851-5.316a.918.918,0,0,0-1.836.043c.022.946-.751,2.325-4.566,3.522-.271.086-.81.273-1.522.524-.658.23-1.468.514-2.355.817l-.005,0a76.318,76.318,0,0,1-7.887,2.381,1.625,1.625,0,0,1-1.893-1.231A3.556,3.556,0,0,1,7,45.759c.025-.19.068-.38.11-.57A4.063,4.063,0,0,0,7.2,43.228a3.03,3.03,0,0,0-1.692-1.88l-.2-.113a3.365,3.365,0,0,1,.351-.569.917.917,0,0,0-.177-1.3c-.221-.163-.745-.556-1.122-.857.047-.086.1-.179.148-.264.141-.249.3-.537.459-.866a3.4,3.4,0,0,0,.247-2.054C5,34.2,3.926,33.648,3.14,33.247a5.321,5.321,0,0,1-.763-.442,4.7,4.7,0,0,1-.541-.438c0-.138.146-.474.853-1.336a37.025,37.025,0,0,0,4.195-6.82,2.651,2.651,0,0,0,.36-1.245,3.2,3.2,0,0,0-1.345-2.3c-.371-.34-.722-.661-.761-.942a1.6,1.6,0,0,1,.147-.645c.151-.4.327-.792.5-1.184a13.149,13.149,0,0,0,.89-2.405l.078-.335a22.406,22.406,0,0,1,.764-2.766,15.6,15.6,0,0,1,3.293-5.376c1.779-1.877,4.47-3.158,8.227-3.914a59.927,59.927,0,0,1,8.612-1.235c5.2-.261,9.654,1.3,14.46,5.069a13.251,13.251,0,0,1,4.854,6.95A25.65,25.65,0,0,1,47.855,21.152Z" fill="#fff"/>
            <path id="Trazado_682794" data-name="Trazado 682794" d="M25.517,10.255h-1.9a10.5,10.5,0,0,0-.858-2.069L24.1,6.84a.918.918,0,0,0,.1-1.174,13.071,13.071,0,0,0-3.249-3.249.916.916,0,0,0-1.174.1L18.436,3.866a10.5,10.5,0,0,0-2.07-.858V1.1a.919.919,0,0,0-.757-.9,13.23,13.23,0,0,0-4.6,0,.919.919,0,0,0-.757.9v1.9a10.5,10.5,0,0,0-2.07.858L6.84,2.52a.916.916,0,0,0-1.174-.1A13.069,13.069,0,0,0,2.417,5.665a.918.918,0,0,0,.1,1.174L3.868,8.186a10.5,10.5,0,0,0-.858,2.069h-1.9a.918.918,0,0,0-.9.757,13.136,13.136,0,0,0,0,4.6.918.918,0,0,0,.9.757h1.9a10.5,10.5,0,0,0,.858,2.069L2.521,19.781a.918.918,0,0,0-.1,1.174A13.069,13.069,0,0,0,5.666,24.2a.919.919,0,0,0,1.174-.1l1.347-1.347a10.5,10.5,0,0,0,2.07.858v1.9a.919.919,0,0,0,.757.9,13.157,13.157,0,0,0,4.6,0,.919.919,0,0,0,.757-.9v-1.9a10.5,10.5,0,0,0,2.07-.858L19.783,24.1a.919.919,0,0,0,1.174.1,13.069,13.069,0,0,0,3.249-3.249.918.918,0,0,0-.1-1.174l-1.347-1.347a10.506,10.506,0,0,0,.858-2.069h1.9a.918.918,0,0,0,.9-.757,13.136,13.136,0,0,0,0-4.6A.918.918,0,0,0,25.517,10.255Zm-.8,4.274H22.9a.918.918,0,0,0-.9.721,8.678,8.678,0,0,1-1.174,2.833.917.917,0,0,0,.123,1.145l1.288,1.288a11.263,11.263,0,0,1-1.723,1.723L19.23,20.952a.918.918,0,0,0-1.145-.124A8.669,8.669,0,0,1,15.251,22a.918.918,0,0,0-.721.9v1.82a11.417,11.417,0,0,1-2.437,0V22.9a.918.918,0,0,0-.721-.9,8.669,8.669,0,0,1-2.835-1.175.916.916,0,0,0-1.145.124L6.1,22.24a11.264,11.264,0,0,1-1.723-1.723l1.288-1.288a.917.917,0,0,0,.123-1.145A8.677,8.677,0,0,1,4.618,15.25a.918.918,0,0,0-.9-.721H1.9a11.382,11.382,0,0,1,0-2.438h1.82a.918.918,0,0,0,.9-.721A8.677,8.677,0,0,1,5.792,8.537a.917.917,0,0,0-.123-1.145L4.381,6.1A11.263,11.263,0,0,1,6.1,4.381L7.393,5.668a.916.916,0,0,0,1.145.124,8.669,8.669,0,0,1,2.835-1.175.918.918,0,0,0,.721-.9V1.9a11.417,11.417,0,0,1,2.437,0V3.72a.918.918,0,0,0,.721.9,8.669,8.669,0,0,1,2.835,1.175.918.918,0,0,0,1.145-.124l1.288-1.288A11.263,11.263,0,0,1,22.242,6.1L20.953,7.392a.917.917,0,0,0-.123,1.145,8.677,8.677,0,0,1,1.174,2.833.918.918,0,0,0,.9.721h1.82A11.384,11.384,0,0,1,24.722,14.529Z" transform="translate(18.421 4.592)" fill="#fff"/>
            <path id="Trazado_682795" data-name="Trazado 682795" d="M10.1,4.59H9.05a3.624,3.624,0,0,0-.39-.936L9.4,2.911a.918.918,0,0,0-1.3-1.3l-.743.743a3.635,3.635,0,0,0-.935-.39V.918a.918.918,0,1,0-1.836,0V1.966a3.632,3.632,0,0,0-.935.39l-.743-.743a.918.918,0,0,0-1.3,1.3l.743.743a3.624,3.624,0,0,0-.39.936H.918a.918.918,0,0,0,0,1.836H1.966a3.624,3.624,0,0,0,.39.936L1.614,8.1a.918.918,0,0,0,1.3,1.3l.743-.743a3.635,3.635,0,0,0,.936.39V10.1a.918.918,0,1,0,1.836,0V9.05a3.633,3.633,0,0,0,.935-.39L8.1,9.4A.918.918,0,0,0,9.4,8.1L8.66,7.362a3.624,3.624,0,0,0,.39-.936H10.1a.918.918,0,1,0,0-1.836ZM5.508,7.344A1.836,1.836,0,1,1,7.344,5.508,1.836,1.836,0,0,1,5.508,7.344Z" transform="translate(9.241 22.033)" fill="#fff"/>
            <path id="Trazado_682796" data-name="Trazado 682796" d="M1.621,5.508a3.06,3.06,0,0,0,.221.533l-.5.5a.918.918,0,0,0,1.3,1.3l.5-.5a3.091,3.091,0,0,0,.531.22v.7a.918.918,0,1,0,1.836,0v-.7a3.073,3.073,0,0,0,.531-.22l.5.5a.918.918,0,0,0,1.3-1.3l-.5-.5a3.051,3.051,0,0,0,.221-.533h.7a.918.918,0,1,0,0-1.836h-.7a3.051,3.051,0,0,0-.221-.533l.5-.5a.918.918,0,0,0-1.3-1.3l-.5.5a3.081,3.081,0,0,0-.531-.22v-.7a.918.918,0,1,0-1.836,0v.7a3.081,3.081,0,0,0-.531.22l-.5-.5a.918.918,0,0,0-1.3,1.3l.5.5a3.053,3.053,0,0,0-.221.533h-.7a.918.918,0,1,0,0,1.836h.7Zm2.637-2.16A1.286,1.286,0,1,1,3.3,4.59,1.286,1.286,0,0,1,4.257,3.348Z" transform="translate(8.323 11.935)" fill="#fff"/>
            <path id="Trazado_682797" data-name="Trazado 682797" d="M5.967,0a5.967,5.967,0,1,0,5.967,5.967A5.967,5.967,0,0,0,5.967,0Zm0,10.1A4.131,4.131,0,1,1,10.1,5.967,4.131,4.131,0,0,1,5.967,10.1Z" transform="translate(25.765 11.935)" fill="#fff"/>
          </g>
        </g>
      </g>
    </g>
    <g id="Grupo_946706" data-name="Grupo 946706" transform="translate(803.281 942.733)">
      <rect id="Rectángulo_337477" data-name="Rectángulo 337477" width="142.012" height="127.073" rx="9.517" transform="translate(47.602 0) rotate(22)" fill="#0387d0"/>
      <text id="Aplicar_métodos_y_técnicas_de_observación" data-name="Aplicar métodos y técnicas de observación" transform="translate(28.751 61.841) rotate(23)" fill="#fff" font-size="16" font-family="SegoeUI-Bold, Segoe UI" font-weight="700"><tspan x="2.692" y="17">Aplicar métodos </tspan><tspan x="16.325" y="34">y técnicas de </tspan><tspan x="18.79" y="51">observación</tspan></text>
      <g id="observacion" transform="matrix(0.921, 0.391, -0.391, 0.921, 86.763, 27.94)">
        <g id="observation" transform="translate(0 0)">
          <path id="Trazado_682798" data-name="Trazado 682798" d="M44.228,0H12.895A3.348,3.348,0,0,0,9.552,3.343v8.149L6.589,14.484a3.13,3.13,0,0,0-.919,2.223V37.526L.835,41.864a2.908,2.908,0,0,0,.029,4.108L4.988,50.1a2.941,2.941,0,0,0,2.081.865A2.835,2.835,0,0,0,9.1,50.125l1.5-1.659H40.35a3.343,3.343,0,0,0,3.343-3.339h.535a3.348,3.348,0,0,0,3.343-3.343V3.343A3.348,3.348,0,0,0,44.228,0ZM16.042,7.313v6.8a1.1,1.1,0,0,1-1.095,1.095H8.223ZM7.9,48.959a1.234,1.234,0,0,1-1.73-.042L2.047,44.789A1.239,1.239,0,0,1,2,43.059l12.892-11.55,4.6,4.6ZM22.4,34.465l-.945.945a.209.209,0,0,1-.3,0h0l-5.6-5.6a.209.209,0,0,1,0-.3h0l.945-.945a.209.209,0,0,1,.3,0h0l5.6,5.6a.209.209,0,0,1,0,.3ZM17.525,23.381a10.054,10.054,0,1,1,5.387,8.909c-.021-.013-4.283-4.317-4.308-4.371A9.968,9.968,0,0,1,17.525,23.381Zm24.5,21.743a1.674,1.674,0,0,1-1.672,1.672H12.1l8.7-9.641a1.807,1.807,0,0,0,1.688-.414L23.722,35.5a1.617,1.617,0,0,0,.464-.89,11.709,11.709,0,1,0-7.835-7.835,1.675,1.675,0,0,0-.89.464l-1.237,1.237a1.672,1.672,0,0,0-.393,1.738L7.341,36.03V16.883h7.606a2.77,2.77,0,0,0,2.766-2.766V6.268H40.35A1.674,1.674,0,0,1,42.021,7.94ZM45.9,41.784a1.674,1.674,0,0,1-1.672,1.672h-.535V7.94A3.343,3.343,0,0,0,40.35,4.6H17.7a3.173,3.173,0,0,0-2.24.932L11.223,9.808V3.343a1.671,1.671,0,0,1,1.672-1.672H44.228A1.671,1.671,0,0,1,45.9,3.343Z" fill="#fff"/>
          <path id="Trazado_682799" data-name="Trazado 682799" d="M7.966,15.931a7.966,7.966,0,1,1,7.965-7.966h0a7.974,7.974,0,0,1-7.965,7.966Zm0-14.259A6.294,6.294,0,1,0,14.26,7.967h0A6.3,6.3,0,0,0,7.966,1.672Z" transform="translate(19.613 15.417)" fill="#fff"/>
        </g>
      </g>
    </g>
    <g id="Grupo_946705" data-name="Grupo 946705" transform="translate(710.735 1087.897)">
      <rect id="Rectángulo_337478" data-name="Rectángulo 337478" width="142.012" height="127.073" rx="9.517" transform="translate(47.602 0) rotate(22)" fill="#0387d0"/>
      <text id="Analizar_el_contexto" data-name="Analizar el contexto" transform="translate(34.588 76.744) rotate(23)" fill="#fff" font-size="16" font-family="SegoeUI-Bold, Segoe UI" font-weight="700"><tspan x="16.907" y="17">Analizar el </tspan><tspan x="22.981" y="35">contexto</tspan></text>
      <g id="contexto" transform="matrix(0.914, 0.407, -0.407, 0.914, 82.332, 31.192)">
        <path id="Trazado_682800" data-name="Trazado 682800" d="M0,0H7.028V1.668H0Z" transform="translate(41.446 20.012)" fill="#fff"/>
        <path id="Trazado_682801" data-name="Trazado 682801" d="M0,0H10.049V1.668H0Z" transform="translate(21.791 30.018)" fill="#fff"/>
        <path id="Trazado_682802" data-name="Trazado 682802" d="M0,0H10.049V1.668H0Z" transform="translate(21.791 25.015)" fill="#fff"/>
        <path id="Trazado_682803" data-name="Trazado 682803" d="M0,0H40.024V1.668H0Z" transform="translate(8.45 15.009)" fill="#fff"/>
        <path id="Trazado_682804" data-name="Trazado 682804" d="M0,0H5.36V1.668H0Z" transform="translate(43.113 25.015)" fill="#fff"/>
        <path id="Trazado_682805" data-name="Trazado 682805" d="M0,0H10.049V1.668H0Z" transform="translate(21.791 20.012)" fill="#fff"/>
        <path id="Trazado_682806" data-name="Trazado 682806" d="M0,0H20.055V1.668H0Z" transform="translate(8.45 35.021)" fill="#fff"/>
        <path id="Trazado_682807" data-name="Trazado 682807" d="M0,0H1.668V1.668H0Z" transform="translate(42.684 55.255)" fill="#fff"/>
        <path id="Trazado_682808" data-name="Trazado 682808" d="M54.422,0H2.5A2.5,2.5,0,0,0,0,2.5V5H1.668V2.5A.835.835,0,0,1,2.5,1.668h51.92a.835.835,0,0,1,.834.834V42.639a.835.835,0,0,1-.834.834h-.834v-10.1a3.134,3.134,0,0,0-4.94-2.563,3.133,3.133,0,0,0-4.6-1.151A3.133,3.133,0,0,0,39.778,28.3V21.48a3.135,3.135,0,0,0-6.271,0V32.385l-3.335,2.888v8.2H2.5a.835.835,0,0,1-.834-.834V6.671H0V42.639a2.5,2.5,0,0,0,2.5,2.5H30.678l5.07,4.707v7.076h5.267V55.255h-3.6v-4.83l2.231.273.2-1.655-2.9-.354-5.112-4.746V36.035l1.668-1.444v6.948h1.668V21.48a1.468,1.468,0,0,1,2.936,0V35.1h1.668V31.07a1.468,1.468,0,0,1,2.936,0v4.6h1.668V32.221a1.468,1.468,0,0,1,2.936,0v4.028h1.668V33.372a1.468,1.468,0,0,1,2.936,0V44.129l-2.038,4.584-2.7.33.2,1.655,2.231-.273v4.83h-3.6v1.668h5.267V49.66L53.3,45.14h1.126a2.5,2.5,0,0,0,2.5-2.5V2.5a2.5,2.5,0,0,0-2.5-2.5Z" transform="translate(0 0)" fill="#fff"/>
        <path id="Trazado_682809" data-name="Trazado 682809" d="M0,0H1.668V1.668H0Z" transform="translate(51.92 3.335)" fill="#fff"/>
        <path id="Trazado_682810" data-name="Trazado 682810" d="M0,0H1.668V1.668H0Z" transform="translate(51.92 6.671)" fill="#fff"/>
        <path id="Trazado_682811" data-name="Trazado 682811" d="M40.024,0H0V5H40.024ZM38.356,3.335H1.668V1.668H38.356Z" transform="translate(8.45 6.671)" fill="#fff"/>
        <path id="Trazado_682812" data-name="Trazado 682812" d="M0,11.674H11.674V0H0ZM1.668,1.668h8.338v8.338H1.668Z" transform="translate(8.45 20.012)" fill="#fff"/>
      </g>
    </g>
    <g id="Grupo_963366" data-name="Grupo 963366" transform="translate(552.696 952.813)" style="mix-blend-mode: multiply;isolation: isolate">
      <g id="Grupo_944322" data-name="Grupo 944322" transform="translate(0)">
        <path id="Trazado_681435" data-name="Trazado 681435" d="M636.981,2374.967c63.536,0,123.516-9.966,168.891-28.061q2.526-1.008,4.969-2.04a1.59,1.59,0,0,0,.761-.677l73.055-127.88a88.956,88.956,0,0,1-11.625,4.217c-13.065,3.882-31.676,7.358-55.317,10.329-48.305,6.072-112.491,9.415-180.734,9.415s-132.427-3.344-180.733-9.415c-23.641-2.971-42.253-6.447-55.318-10.329a89,89,0,0,1-11.625-4.217l73.052,127.874a1.593,1.593,0,0,0,.761.676q2.448,1.035,4.973,2.046C513.465,2365,573.445,2374.967,636.981,2374.967Z" transform="translate(-389.305 -2216.31)" fill="#ffeacf"/>
      </g>
      <g id="Grupo_944324" data-name="Grupo 944324" transform="translate(160.857 279.571)">
        <path id="Trazado_681437" data-name="Trazado 681437" d="M569.979,2526.539a1.585,1.585,0,0,0-2.053,2.221L646.6,2666.474h.01c1.2,2.523,4.287,4.323,7.918,4.323s6.719-1.8,7.918-4.323h.011l77.888-136.34a1.585,1.585,0,0,0-2.025-2.234c-24.39,10.973-52.939,16.875-82.695,16.875C624.661,2544.774,595,2538.385,569.979,2526.539Z" transform="translate(-567.71 -2526.379)" fill="#ffeacf"/>
      </g>
      <g id="Grupo_944325" data-name="Grupo 944325" transform="translate(82.337 142.126)">
        <path id="Trazado_681438" data-name="Trazado 681438" d="M480.84,2376.319l67.046,117.36a1.606,1.606,0,0,0,.523.553c26.7,17.219,61.647,26.691,98.652,26.691,35.429,0,68.975-8.681,95.2-24.533a1.61,1.61,0,0,0,.561-.576l68.265-119.5a1.586,1.586,0,0,0-1.918-2.278C764,2390.384,706.515,2399.33,645.963,2399.33s-118.038-8.946-163.206-25.289A1.585,1.585,0,0,0,480.84,2376.319Z" transform="translate(-480.624 -2373.941)" fill="#ffeacf"/>
      </g>
    </g>
  </g>
</svg>
