<svg xmlns="http://www.w3.org/2000/svg" xmlns:xlink="http://www.w3.org/1999/xlink" width="124.914" height="124.914" viewBox="0 0 124.914 124.914">
  <defs>
    <filter id="Elipse_5352" x="0" y="0" width="124.914" height="124.914" filterUnits="userSpaceOnUse">
      <feOffset dy="3" input="SourceAlpha"/>
      <feGaussianBlur stdDeviation="3" result="blur"/>
      <feFlood flood-opacity="0.161"/>
      <feComposite operator="in" in2="blur"/>
      <feComposite in="SourceGraphic"/>
    </filter>
  </defs>
  <g id="Grupo_963418" data-name="Grupo 963418" transform="translate(-936.658 -6193.418)">
    <g transform="matrix(1, 0, 0, 1, 936.66, 6193.42)" filter="url(#Elipse_5352)">
      <ellipse id="Elipse_5352-2" data-name="Elipse 5352" cx="53.457" cy="53.457" rx="53.457" ry="53.457" transform="translate(9 6)" fill="#fff"/>
    </g>
    <ellipse id="Elipse_5354" data-name="Elipse 5354" cx="44.912" cy="44.912" rx="44.912" ry="44.912" transform="translate(954.204 6207.963)" fill="none" stroke="#ffb338" stroke-miterlimit="10" stroke-width="1"/>
    <g id="vendaje" transform="translate(877.971 6161.035)">
      <path id="Trazado_701657" data-name="Trazado 701657" d="M135.816,67.706A44.732,44.732,0,0,0,121.145,65.5a44.726,44.726,0,0,0-14.672,2.206c-4.2,1.519-6.513,3.647-6.513,5.993V109.98c0,2.345,2.313,4.471,6.513,5.993a44.732,44.732,0,0,0,14.672,2.206,44.726,44.726,0,0,0,14.672-2.206c4.2-1.519,6.513-3.647,6.513-5.993V73.7c0-2.345-2.313-4.474-6.513-5.993Zm-14.672-.53c11.5,0,19.511,3.437,19.511,6.521s-8.012,6.521-19.511,6.521-19.511-3.437-19.511-6.521,8.011-6.52,19.508-6.52Zm-5.709,43.68v-7.871l5.709,2.431,5.709-2.431v7.871l-5.709-2.431Zm0-15.9V87.088l5.709,2.431,5.708-2.431v7.871l-5.709-2.431Zm-13.8,15.021v-4.654c.126.088.25.176.376.26l.7.468.936-1.4-.7-.468c-.272-.183-.548-.379-.817-.583l-.495-.373V95.664c.126.088.25.176.376.26l.7.468.936-1.4-.7-.468c-.272-.183-.546-.379-.817-.583l-.495-.372V86.137c.126.088.25.176.376.26l.7.468.936-1.4-.7-.468c-.272-.183-.548-.379-.817-.583l-.495-.373V77a14.383,14.383,0,0,0,4.836,2.691,43.936,43.936,0,0,0,13.833,2.2V87.34l-6.548-2.795v3.7l-.354-.027-.838-.068-.14,1.677.838.068.49.038v7.559L120.3,94.7v3.288h-1.045v1.677h1.051v3.578l-6.548-2.795v6.995l-.354-.027-.838-.068-.14,1.677.838.068.49.038V113.4L120.3,110.6v5.89c-11.046-.159-18.671-3.5-18.671-6.513Zm39.021,0c0,3.01-7.625,6.354-18.672,6.516v-5.89l6.548,2.795v-4.276l.465-.036.838-.068-.14-1.677-.838.068-.328.025v-6.987l-6.548,2.795V99.664H123V97.987h-1.017V94.709l6.548,2.795V89.935L129,89.9l.838-.068-.14-1.677-.838.068-.328.025V84.552l-6.548,2.795V81.9a43.923,43.923,0,0,0,13.833-2.2,14.393,14.393,0,0,0,4.836-2.691v7.028l-.521.393c-.271.2-.546.4-.817.583l-.7.468.936,1.4.7-.468c.14-.089.268-.183.4-.279v7.428l-.521.393c-.272.2-.548.4-.817.583l-.7.468.936,1.4.7-.468c.14-.089.268-.183.4-.279v7.575l-.521.393c-.271.2-.546.4-.817.583l-.7.468.936,1.4.7-.468c.14-.089.268-.183.4-.279Z" transform="translate(0)"/>
      <path id="Trazado_701658" data-name="Trazado 701658" d="M152.025,95.87c8.033,0,16.165-1.886,16.165-5.49s-8.138-5.49-16.165-5.49-16.165,1.886-16.165,5.49,8.132,5.49,16.165,5.49Zm0-9.3c8.845,0,14.489,2.258,14.489,3.813s-5.644,3.813-14.489,3.813-14.489-2.258-14.489-3.813,5.645-3.813,14.489-3.813Z" transform="translate(-30.884 -16.681)"/>
      <path id="Trazado_701659" data-name="Trazado 701659" d="M176.711,110.776a53.676,53.676,0,0,0,14.6,0c2.607-.428,3.671-1.009,3.671-2s-1.063-1.575-3.671-2a53.677,53.677,0,0,0-14.6,0c-2.607.428-3.671,1.009-3.671,2S174.1,110.349,176.711,110.776Zm7.3-2.828a34.692,34.692,0,0,1,8.652.824,34.692,34.692,0,0,1-8.652.824,34.692,34.692,0,0,1-8.652-.824,34.687,34.687,0,0,1,8.651-.824Z" transform="translate(-62.868 -35.073)"/>
      <path id="Trazado_701660" data-name="Trazado 701660" d="M336.216,355.105c-.591.2-1.22.384-1.871.538l-.815.189.386,1.632.816-.193c.7-.166,1.386-.362,2.029-.583l.794-.273-.545-1.586Z" transform="translate(-200.933 -248.902)"/>
      <path id="Trazado_701661" data-name="Trazado 701661" d="M141.947,355.122l-.792-.272-.545,1.586.794.272a20.724,20.724,0,0,0,2.029.583l.816.193.384-1.635-.816-.193A18.867,18.867,0,0,1,141.947,355.122Z" transform="translate(-34.97 -248.919)"/>
      <path id="Trazado_701662" data-name="Trazado 701662" d="M289.324,295.9c-.626.052-1.279.092-2,.126l-.838.039.077,1.677.838-.039c.736-.034,1.408-.075,2.055-.129l.838-.068-.14-1.677Z" transform="translate(-160.466 -198.146)"/>
      <path id="Trazado_701663" data-name="Trazado 701663" d="M336.207,285.981c-.591.2-1.22.384-1.871.538l-.816.193.386,1.632.816-.193c.7-.166,1.386-.362,2.029-.583l.794-.272L337,285.71Z" transform="translate(-200.924 -189.44)"/>
      <path id="Trazado_701664" data-name="Trazado 701664" d="M192.057,297.7l.838.039.077-1.677-.838-.039c-.717-.034-1.369-.074-2-.126l-.838-.068-.14,1.677.838.068C190.648,297.626,191.32,297.67,192.057,297.7Z" transform="translate(-76.736 -198.146)"/>
      <path id="Trazado_701665" data-name="Trazado 701665" d="M141.947,285.972l-.792-.272-.545,1.586.794.272a20.741,20.741,0,0,0,2.029.583l.816.193.386-1.632-.816-.193a19.18,19.18,0,0,1-1.871-.537Z" transform="translate(-34.97 -189.431)"/>
      <path id="Trazado_701666" data-name="Trazado 701666" d="M336.207,217.791c-.591.2-1.22.384-1.871.538l-.816.193.386,1.632.816-.193c.7-.166,1.386-.362,2.029-.583l.794-.272L337,217.52Z" transform="translate(-200.924 -130.778)"/>
      <path id="Trazado_701667" data-name="Trazado 701667" d="M141.947,217.792l-.792-.272-.545,1.586.794.272a20.737,20.737,0,0,0,2.029.583l.816.193.386-1.632-.816-.193C143.168,218.175,142.538,218,141.947,217.792Z" transform="translate(-34.97 -130.778)"/>
    </g>
  </g>
</svg>
