<svg xmlns="http://www.w3.org/2000/svg" width="73.38" height="103.399" viewBox="0 0 73.38 103.399">
  <g id="fotografo_2_" data-name="fotografo(2)" transform="translate(-10 -1)">
    <g id="Grupo_944319" data-name="Grupo 944319" transform="translate(11.668 2.668)">
      <g id="Grupo_944295" data-name="Grupo 944295" transform="translate(60.039 46.697)">
        <path id="Trazado_681409" data-name="Trazado 681409" d="M57.006,50.013v6.671H47V30a25.47,25.47,0,0,1,2.668,2.335c.217.217.45.45.65.684A24.824,24.824,0,0,1,57.006,50.013Z" transform="translate(-47 -30)" fill="#b4dd7f"/>
      </g>
      <g id="Grupo_944296" data-name="Grupo 944296" transform="translate(30.019 43.361)">
        <path id="Trazado_681410" data-name="Trazado 681410" d="M52.348,28V84.7H29a3.345,3.345,0,0,0,3.335-3.335V68.026a3.34,3.34,0,0,0-1.418-2.718,58.523,58.523,0,0,0,7.922-9.123c1.634-2.251,3.185-4.636,4.636-7.038C48.629,40.575,52.348,31.752,52.348,28Z" transform="translate(-29 -28)" fill="#b4dd7f"/>
      </g>
      <g id="Grupo_944297" data-name="Grupo 944297" transform="translate(23.348 41.693)">
        <path id="Trazado_681411" data-name="Trazado 681411" d="M46.6,27.25l.083-.25c.367,0,.734,0,1.1.033-1.167,4.236-4.019,10.49-7.688,16.744-1.418,2.4-2.952,4.82-4.57,7.1C32.171,55.668,28.5,59.921,25,62.556V28.434A24.747,24.747,0,0,1,33.339,27l.083.25A6.957,6.957,0,0,0,40.01,32a6.884,6.884,0,0,0,4.053-1.318A7.043,7.043,0,0,0,46.6,27.25Z" transform="translate(-25 -27)" fill="#b4dd7f"/>
      </g>
      <g id="Grupo_944298" data-name="Grupo 944298" transform="translate(6.671 46.697)">
        <path id="Trazado_681412" data-name="Trazado 681412" d="M25.006,30V56.684H15V50.013a24.824,24.824,0,0,1,6.688-16.994c.2-.233.434-.467.65-.684A25.47,25.47,0,0,1,25.006,30Z" transform="translate(-15 -30)" fill="#b4dd7f"/>
      </g>
      <g id="Grupo_944299" data-name="Grupo 944299" transform="translate(49.348 15.01)">
        <path id="Trazado_681413" data-name="Trazado 681413" d="M46.477,22.874a4.994,4.994,0,0,0-.067-7.138l.5-1a9.513,9.513,0,0,0,1-3.736h10.04a3.345,3.345,0,0,1,3.335,3.335V24.342a3.345,3.345,0,0,1-3.335,3.335H40.59a8.516,8.516,0,0,0,.684-3.335h1.668A4.991,4.991,0,0,0,46.477,22.874Z" transform="translate(-40.59 -11)" fill="#ffc729"/>
      </g>
      <g id="Grupo_944300" data-name="Grupo 944300" transform="translate(6.671 15.01)">
        <path id="Trazado_681414" data-name="Trazado 681414" d="M33.345,24.342h1.668a8.516,8.516,0,0,0,.684,3.335H18.335A3.345,3.345,0,0,1,15,24.342V14.335A3.345,3.345,0,0,1,18.335,11H28.342v.267A8.548,8.548,0,0,0,28.792,14l.7,2.135a5.011,5.011,0,0,0,3.852,8.205Z" transform="translate(-15 -11)" fill="#ffc729"/>
      </g>
      <g id="Grupo_944301" data-name="Grupo 944301" transform="translate(20.013 0)">
        <path id="Trazado_681415" data-name="Trazado 681415" d="M53,7l1.284.634a9.751,9.751,0,0,1,5.4,8.739,4.036,4.036,0,0,1-.033.634,9.513,9.513,0,0,1-1,3.736l-.5,1a4.977,4.977,0,0,0-3.469-1.4H53.019V17.01H47.132a31.477,31.477,0,0,1-14.126-3.335,6.026,6.026,0,0,0-3.335,5.4v1.267H28a5,5,0,0,0-3.852,1.8l-.7-2.135A8.548,8.548,0,0,1,23,17.276V17.01a8.373,8.373,0,0,1,2.435-5.77l.9-.9A8.313,8.313,0,0,1,34.674,2H48.166a4.847,4.847,0,0,1,4.853,4.853A.462.462,0,0,1,53,7Z" transform="translate(-23 -2)" fill="#656d78"/>
      </g>
      <g id="Grupo_944302" data-name="Grupo 944302" transform="translate(43.711 31.687)">
        <path id="Trazado_681416" data-name="Trazado 681416" d="M53.537,36.01l-6.671-3.569a24.243,24.243,0,0,0-7.238-1.4c-.367-.033-.734-.033-1.1-.033L37.21,25.753A8.269,8.269,0,0,0,42.83,21H56.873V39.012l-.017.017c-.2-.233-.434-.467-.65-.684A25.469,25.469,0,0,0,53.537,36.01Z" transform="translate(-37.21 -21)" fill="#fcd770"/>
      </g>
      <g id="Grupo_944303" data-name="Grupo 944303" transform="translate(13.342 31.687)">
        <path id="Trazado_681417" data-name="Trazado 681417" d="M29.006,32.441a25.171,25.171,0,0,0-6.671,3.569,25.469,25.469,0,0,0-2.668,2.335c-.217.217-.45.45-.65.684L19,39.012V21H33.042a8.269,8.269,0,0,0,5.62,4.753l-1.318,5.253A24.747,24.747,0,0,0,29.006,32.441Z" transform="translate(-19 -21)" fill="#fcd770"/>
      </g>
      <g id="Grupo_944304" data-name="Grupo 944304" transform="translate(53.368 43.128)">
        <path id="Trazado_681418" data-name="Trazado 681418" d="M43,27.86l6.671,3.569V84.8H43V27.86Z" transform="translate(-43 -27.86)" fill="#969faa"/>
      </g>
      <g id="Grupo_944305" data-name="Grupo 944305" transform="translate(16.677 43.128)">
        <path id="Trazado_681419" data-name="Trazado 681419" d="M27.671,61.982c-2.352,1.768-4.6,2.8-6.671,2.8V31.429a25.171,25.171,0,0,1,6.671-3.569Z" transform="translate(-21 -27.86)" fill="#969faa"/>
      </g>
      <g id="Grupo_944306" data-name="Grupo 944306" transform="translate(60.039 73.38)">
        <path id="Trazado_681420" data-name="Trazado 681420" d="M47,46H57.006V72.684H47Z" transform="translate(-47 -46)" fill="#f0d0b4"/>
      </g>
      <g id="Grupo_944307" data-name="Grupo 944307" transform="translate(6.671 73.38)">
        <path id="Trazado_681421" data-name="Trazado 681421" d="M25.006,46v6.671H15V46Z" transform="translate(-15 -46)" fill="#f0d0b4"/>
      </g>
      <g id="Grupo_944308" data-name="Grupo 944308" transform="translate(38.441 41.727)">
        <path id="Trazado_681422" data-name="Trazado 681422" d="M48.976,28.421v.233c0,3.752-3.719,12.575-8.872,21.147l-6.021-6.021-.033-.017c3.669-6.254,6.521-12.508,7.688-16.744A24.243,24.243,0,0,1,48.976,28.421Z" transform="translate(-34.05 -27.02)" fill="#cf9e76"/>
      </g>
      <g id="Grupo_944309" data-name="Grupo 944309" transform="translate(16.677 65.575)">
        <path id="Trazado_681423" data-name="Trazado 681423" d="M21,55.8c2.068,0,4.319-1.034,6.671-2.8,3.5-2.635,7.171-6.888,10.523-11.674h.017l5.97,5.971a58.524,58.524,0,0,1-7.922,9.123,3.212,3.212,0,0,0-1.918-.617H21Z" transform="translate(-21 -41.32)" fill="#cf9e76"/>
      </g>
      <g id="Grupo_944310" data-name="Grupo 944310" transform="translate(33.872 58.471)">
        <path id="Trazado_681424" data-name="Trazado 681424" d="M35.913,37.077,41.933,43.1c-1.451,2.4-3,4.786-4.636,7.038l-5.97-5.971H31.31c1.618-2.285,3.152-4.7,4.57-7.1Z" transform="translate(-31.31 -37.06)" fill="#ffeaa7"/>
      </g>
      <g id="Grupo_944311" data-name="Grupo 944311" transform="translate(23.348 80.051)">
        <path id="Trazado_681425" data-name="Trazado 681425" d="M25,50h6.671a3.212,3.212,0,0,1,1.918.617,3.34,3.34,0,0,1,1.418,2.718V66.677a3.345,3.345,0,0,1-3.335,3.335H25a3.345,3.345,0,0,0,3.335-3.335V53.335A3.345,3.345,0,0,0,25,50Z" transform="translate(-25 -50)" fill="#aab2bd"/>
      </g>
      <g id="Grupo_944312" data-name="Grupo 944312" transform="translate(6.671 80.051)">
        <path id="Trazado_681426" data-name="Trazado 681426" d="M25.006,50h6.671a3.345,3.345,0,0,1,3.335,3.335V66.677a3.345,3.345,0,0,1-3.335,3.335H18.335A3.345,3.345,0,0,1,15,66.677V63.342h6.671a6.671,6.671,0,0,0,0-13.342Z" transform="translate(-15 -50)" fill="#ccd1d9"/>
      </g>
      <g id="Grupo_944313" data-name="Grupo 944313" transform="translate(6.671 80.051)">
        <path id="Trazado_681427" data-name="Trazado 681427" d="M15,63.342A6.671,6.671,0,0,0,15,50h6.671a6.671,6.671,0,0,1,0,13.342Z" transform="translate(-15 -50)" fill="#4fc1e9"/>
      </g>
      <g id="Grupo_944314" data-name="Grupo 944314" transform="translate(0 80.051)">
        <ellipse id="Elipse_4831" data-name="Elipse 4831" cx="6.5" cy="7" rx="6.5" ry="7" transform="translate(0.333 -0.319)" fill="#69d6f4"/>
      </g>
      <g id="Grupo_944315" data-name="Grupo 944315" transform="translate(50.032 18.345)">
        <path id="Trazado_681428" data-name="Trazado 681428" d="M46.137,14.4a5,5,0,0,1-3.469,8.606H41V13h1.668a4.977,4.977,0,0,1,3.469,1.4Z" transform="translate(-41 -13)" fill="#f0d0b4"/>
      </g>
      <g id="Grupo_944316" data-name="Grupo 944316" transform="translate(31.687 36.44)">
        <path id="Trazado_681429" data-name="Trazado 681429" d="M42.024,23.85,43.342,29.1l-.083.25a7.043,7.043,0,0,1-2.535,3.436,6.884,6.884,0,0,1-4.053,1.318,6.957,6.957,0,0,1-6.588-4.753L30,29.1l1.318-5.253a8.06,8.06,0,0,0,2.018.25h6.671A8.06,8.06,0,0,0,42.024,23.85Z" transform="translate(-30 -23.85)" fill="#f0d0b4"/>
      </g>
      <g id="Grupo_944317" data-name="Grupo 944317" transform="translate(26.684 11.674)">
        <path id="Trazado_681430" data-name="Trazado 681430" d="M44.028,33.766a8.06,8.06,0,0,1-2.018.25H35.339a8.06,8.06,0,0,1-2.018-.25,8.269,8.269,0,0,1-5.62-4.753h-.017A8.516,8.516,0,0,1,27,25.677V14.4A6.026,6.026,0,0,1,30.335,9a31.477,31.477,0,0,0,14.126,3.335h5.887V25.677a8.516,8.516,0,0,1-.684,3.335h-.017a8.269,8.269,0,0,1-5.62,4.753Z" transform="translate(-27 -9)" fill="#f0d0b4"/>
      </g>
      <g id="Grupo_944318" data-name="Grupo 944318" transform="translate(20.013 18.345)">
        <path id="Trazado_681431" data-name="Trazado 681431" d="M29.671,13V23.006H28A5,5,0,1,1,28,13Z" transform="translate(-23 -13)" fill="#f0d0b4"/>
      </g>
    </g>
    <g id="Grupo_944320" data-name="Grupo 944320" transform="translate(10 1)">
      <ellipse id="Elipse_4832" data-name="Elipse 4832" cx="2" cy="1.5" rx="2" ry="1.5" transform="translate(33 20.399)"/>
      <ellipse id="Elipse_4833" data-name="Elipse 4833" cx="2" cy="1.5" rx="2" ry="1.5" transform="translate(43 20.399)"/>
      <path id="Trazado_681432" data-name="Trazado 681432" d="M37.671,19.668H31V23h6.671a5.009,5.009,0,0,0,5-5H39.339A1.668,1.668,0,0,1,37.671,19.668Z" transform="translate(4.022 10.352)"/>
      <ellipse id="Elipse_4834" data-name="Elipse 4834" cx="1.5" cy="2" rx="1.5" ry="2" transform="translate(7 86.399)"/>
      <path id="Trazado_681433" data-name="Trazado 681433" d="M78.377,36.022a5.009,5.009,0,0,0,5-5V21.013a5.009,5.009,0,0,0-5-5h-8.41a11.35,11.35,0,0,0-6.247-9.194l-.445-.222A6.5,6.5,0,0,0,56.855,1h-13.5a10.018,10.018,0,0,0-9.98,9.289l-.43.43a9.877,9.877,0,0,0-2.757,5.29H21.674a5.009,5.009,0,0,0-5,5V31.019a5.009,5.009,0,0,0,5,5h1.668V51.788a26.543,26.543,0,0,0-6.671,17.59V81.22a8.339,8.339,0,0,0,0,16.34V99.4a5.009,5.009,0,0,0,5,5H83.38V69.377a26.546,26.546,0,0,0-6.671-17.59V36.022Zm1.668-15.01V31.019a1.668,1.668,0,0,1-1.668,1.668H63.368a6.654,6.654,0,0,0,5.447-10.5l.017-.035a11.423,11.423,0,0,0,.956-2.808h8.591a1.671,1.671,0,0,1,1.668,1.669ZM63.368,22.681a3.335,3.335,0,0,1,0,6.671ZM35.3,13.078,36.684,11.7v-.69a6.678,6.678,0,0,1,6.671-6.671h13.5a3.178,3.178,0,0,1,1,6.194l-1.689.564,1.056,3.162,1.689-.564A6.49,6.49,0,0,0,62.8,10.136a8.034,8.034,0,0,1,3.9,6.9,8.121,8.121,0,0,1-.559,2.929,6.62,6.62,0,0,0-2.777-.624V16.01H55.816a30.056,30.056,0,0,1-13.382-3.16l-.747-.372-.745.374a7.648,7.648,0,0,0-4.231,6.494h-.027a6.586,6.586,0,0,0-2.994.742,7.287,7.287,0,0,1-.342-2.291A6.629,6.629,0,0,1,35.3,13.078Zm34.736,87.986H66.7V48.314a23.444,23.444,0,0,1,3.335,1.93ZM42.257,46.084A8.587,8.587,0,0,0,53.92,50.1c-3.784,8.649-10.744,19.931-17.236,26.208v-29.3A23.2,23.2,0,0,1,42.257,46.084Zm9.037,25.54-3.586-3.586c.944-1.384,1.858-2.8,2.733-4.224l3.592,3.592q-1.316,2.144-2.74,4.218ZM33.348,79.1a11.918,11.918,0,0,1-3.335,1.691V50.243a23.286,23.286,0,0,1,3.335-1.93Zm-6.671,1.955H20.006V77.716h6.671ZM25.01,84.387a5,5,0,1,1,0,10.006h-.043a8.17,8.17,0,0,0,0-10.006ZM36.2,81.051A52.138,52.138,0,0,0,45.753,70.8l3.574,3.574a55.941,55.941,0,0,1-6.047,6.963,4.941,4.941,0,0,0-1.593-.284Zm9.723,2.368c6.526-6.4,13.464-17.486,17.446-26.37v44.015H46.383A4.947,4.947,0,0,0,46.69,99.4V86.055A4.948,4.948,0,0,0,45.921,83.42Zm9.868-18.976L52.2,60.853A83.365,83.365,0,0,0,59,46.146a23.109,23.109,0,0,1,4.266.842C62.769,50.415,59.859,57.324,55.789,64.444Zm-.836-20.176a5.256,5.256,0,0,1-9.856,0l.819-3.279c.257.018.514.038.774.038h6.671c.26,0,.517-.02.774-.038ZM53.361,37.69H46.69a6.678,6.678,0,0,1-6.671-6.671V19.739a4.346,4.346,0,0,1,1.758-3.5,33.44,33.44,0,0,0,14.039,3.11h4.216V31.019A6.678,6.678,0,0,1,53.361,37.69ZM36.684,22.681v6.671a3.335,3.335,0,1,1,0-6.671ZM20.006,31.019V21.013a1.668,1.668,0,0,1,1.668-1.668h8.452a10.337,10.337,0,0,0,.417,1.863L31,22.572a6.635,6.635,0,0,0,5.685,10.115H21.674a1.668,1.668,0,0,1-1.668-1.668Zm18.032,5a10.062,10.062,0,0,0,4.643,4.159l-.635,2.543A26.526,26.526,0,0,0,26.677,48.6V36.022ZM26.677,53.068V74.38H20.006v-5A23.26,23.26,0,0,1,26.677,53.068ZM13.335,89.39a5,5,0,1,1,5,5A5.009,5.009,0,0,1,13.335,89.39Zm20.013,11.674H21.674A1.668,1.668,0,0,1,20.006,99.4V97.729h5a8.348,8.348,0,0,0,8.339-8.339,8.252,8.252,0,0,0-1.711-5h3.379a1.668,1.668,0,0,1,1.668,1.668V99.4a1.668,1.668,0,0,1-1.668,1.668Zm6.671,0h-.307a4.947,4.947,0,0,0,.307-1.668V86.055a4.947,4.947,0,0,0-.307-1.668h1.975a1.668,1.668,0,0,1,1.668,1.668V99.4a1.668,1.668,0,0,1-1.668,1.668Zm33.355,0V77.716h6.671v23.348ZM80.045,74.38H73.374V53.068a23.266,23.266,0,0,1,6.671,16.309ZM73.374,48.6a26.526,26.526,0,0,0-15.368-5.872l-.635-2.543a10.053,10.053,0,0,0,4.643-4.159H73.374Z" transform="translate(-10 -1)"/>
    </g>
  </g>
</svg>
