<svg xmlns="http://www.w3.org/2000/svg" xmlns:xlink="http://www.w3.org/1999/xlink" width="124.914" height="124.914" viewBox="0 0 124.914 124.914">
  <defs>
    <filter id="Elipse_5355" x="0" y="0" width="124.914" height="124.914" filterUnits="userSpaceOnUse">
      <feOffset dy="3" input="SourceAlpha"/>
      <feGaussianBlur stdDeviation="3" result="blur"/>
      <feFlood flood-opacity="0.161"/>
      <feComposite operator="in" in2="blur"/>
      <feComposite in="SourceGraphic"/>
    </filter>
  </defs>
  <g id="Grupo_963417" data-name="Grupo 963417" transform="translate(-767.987 -6369.19)">
    <g transform="matrix(1, 0, 0, 1, 767.99, 6369.19)" filter="url(#Elipse_5355)">
      <ellipse id="Elipse_5355-2" data-name="Elipse 5355" cx="53.457" cy="53.457" rx="53.457" ry="53.457" transform="translate(9 6)" fill="#fff"/>
    </g>
    <ellipse id="Elipse_5356" data-name="Elipse 5356" cx="44.912" cy="44.912" rx="44.912" ry="44.912" transform="translate(785.532 6383.735)" fill="none" stroke="#ffb338" stroke-miterlimit="10" stroke-width="1"/>
    <g id="sunscreen" transform="translate(787.942 6399.647)">
      <path id="Trazado_701653" data-name="Trazado 701653" d="M57.294,4.44a5.211,5.211,0,0,0-3.92-1.78H31.629a5.208,5.208,0,0,0-5.161,5.9l4.737,35.2a3.042,3.042,0,0,0,3,2.627h.081V53.2a2.143,2.143,0,0,0,2.14,2.14H48.574a2.143,2.143,0,0,0,2.14-2.14V46.383h.081a3.042,3.042,0,0,0,3-2.627l4.737-35.2A5.2,5.2,0,0,0,57.294,4.44ZM49,53.2a.428.428,0,0,1-.428.428H36.43A.428.428,0,0,1,36,53.2V50.859H49Zm-7.6-4.052a1.389,1.389,0,0,1,2.191,0Zm4.074,0a3.1,3.1,0,0,0-5.956,0H36V46.383H49v2.764ZM56.841,8.334,52.1,43.529a1.323,1.323,0,0,1-1.305,1.143H34.209A1.323,1.323,0,0,1,32.9,43.529l-4.741-35.2a3.5,3.5,0,0,1,3.466-3.962H53.375a3.5,3.5,0,0,1,3.466,3.962Z" transform="translate(0 0)"/>
      <path id="Trazado_701654" data-name="Trazado 701654" d="M59.906,26.985H56.932a5.807,5.807,0,0,0-1.1-2.636c.06-.047,1.356-1.339,1.356-1.339A.856.856,0,1,0,55.986,21.8s-1.279,1.3-1.331,1.369a5.782,5.782,0,0,0-2.649-1.1V19.086a.856.856,0,1,0-1.712,0v2.978a5.825,5.825,0,0,0-2.657,1.113c-.051-.077-1.322-1.378-1.322-1.378A.856.856,0,0,0,45.1,23.01s1.3,1.292,1.361,1.344a5.745,5.745,0,0,0-1.1,2.632H42.4a.856.856,0,1,0,0,1.712H45.37a5.783,5.783,0,0,0,1.1,2.64c-.073.056-1.365,1.339-1.365,1.339a.856.856,0,0,0,1.211,1.211s1.279-1.3,1.331-1.378a5.7,5.7,0,0,0,2.649,1.113V36.6a.856.856,0,1,0,1.712,0V33.622a5.724,5.724,0,0,0,2.64-1.1c.056.073,1.339,1.369,1.339,1.369a.856.856,0,1,0,1.207-1.211S55.9,31.4,55.824,31.345A5.761,5.761,0,0,0,56.932,28.7h2.974a.856.856,0,0,0,0-1.712Zm-8.755,4.989a4.131,4.131,0,1,1,4.134-4.133A4.131,4.131,0,0,1,51.151,31.974Z" transform="translate(-8.649 -8.907)"/>
      <path id="Trazado_701655" data-name="Trazado 701655" d="M68.4,85.479a1.613,1.613,0,1,1-1.613-1.609A1.613,1.613,0,0,1,68.4,85.479Z" transform="translate(-22.168 -46.46)"/>
      <path id="Trazado_701656" data-name="Trazado 701656" d="M58.516,85.479A1.613,1.613,0,1,1,56.9,83.87,1.613,1.613,0,0,1,58.516,85.479Z" transform="translate(-16.515 -46.46)"/>
    </g>
  </g>
</svg>
