<svg xmlns="http://www.w3.org/2000/svg" xmlns:xlink="http://www.w3.org/1999/xlink" width="124.914" height="124.914" viewBox="0 0 124.914 124.914">
  <defs>
    <filter id="Elipse_5318" x="0" y="0" width="124.914" height="124.914" filterUnits="userSpaceOnUse">
      <feOffset dy="3" input="SourceAlpha"/>
      <feGaussianBlur stdDeviation="3" result="blur"/>
      <feFlood flood-opacity="0.161"/>
      <feComposite operator="in" in2="blur"/>
      <feComposite in="SourceGraphic"/>
    </filter>
  </defs>
  <g id="Grupo_963426" data-name="Grupo 963426" transform="translate(-398.487 -6098.137)">
    <g transform="matrix(1, 0, 0, 1, 398.49, 6098.14)" filter="url(#Elipse_5318)">
      <ellipse id="Elipse_5318-2" data-name="Elipse 5318" cx="53.457" cy="53.457" rx="53.457" ry="53.457" transform="translate(9 6)" fill="#fff"/>
    </g>
    <ellipse id="Elipse_5319" data-name="Elipse 5319" cx="44.912" cy="44.912" rx="44.912" ry="44.912" transform="translate(416.032 6112.682)" fill="none" stroke="#ffb338" stroke-miterlimit="10" stroke-width="1"/>
    <g id="medicamento" transform="translate(427.299 6131.254)">
      <g id="Grupo_963285" data-name="Grupo 963285" transform="translate(25.99 12.964)">
        <g id="Grupo_963284" data-name="Grupo 963284">
          <path id="Trazado_701643" data-name="Trazado 701643" d="M116.725,125.994a1.029,1.029,0,1,0,1.029,1.029A1.029,1.029,0,0,0,116.725,125.994Z" transform="translate(-115.696 -125.994)"/>
        </g>
      </g>
      <g id="Grupo_963287" data-name="Grupo 963287" transform="translate(27.018 28.088)">
        <g id="Grupo_963286" data-name="Grupo 963286">
          <path id="Trazado_701644" data-name="Trazado 701644" d="M134.956,277.1h-3.086v-3.086a1.029,1.029,0,1,0-2.058,0V277.1h-3.087a1.029,1.029,0,1,0,0,2.058h3.087v3.086a1.029,1.029,0,1,0,2.058,0v-3.086h3.086a1.029,1.029,0,1,0,0-2.058Z" transform="translate(-125.696 -272.986)"/>
        </g>
      </g>
      <g id="Grupo_963289" data-name="Grupo 963289" transform="translate(15.701)">
        <g id="Grupo_963288" data-name="Grupo 963288" transform="translate(0)">
          <path id="Trazado_701645" data-name="Trazado 701645" d="M64.047,33.129A8.226,8.226,0,0,0,52.8,30.116l-4.179,2.413V23.595A5.181,5.181,0,0,0,47.6,20.508l-5.144-6.859V10.729a3.091,3.091,0,0,0,2.058-2.91V3.087A3.09,3.09,0,0,0,41.422,0H22.9a3.09,3.09,0,0,0-3.087,3.087V7.819a3.092,3.092,0,0,0,2.058,2.91V13.65l-5.145,6.859A5.181,5.181,0,0,0,15.7,23.595V43.52a5.15,5.15,0,0,0,5.144,5.144H37.38a8.222,8.222,0,0,0,11.18,2.91l12.474-7.2A8.237,8.237,0,0,0,64.047,33.129ZM21.874,3.087A1.03,1.03,0,0,1,22.9,2.058H41.422a1.03,1.03,0,0,1,1.029,1.029V7.819a1.03,1.03,0,0,1-1.029,1.029H22.9a1.03,1.03,0,0,1-1.029-1.029V3.087Zm-3.5,18.656,5.35-7.133a1.029,1.029,0,0,0,.206-.617V10.906H40.393v2.058h-9.26a1.029,1.029,0,0,0,0,2.058h9.774l5.041,6.721a3.113,3.113,0,0,1,.6,1.51H17.781A3.112,3.112,0,0,1,18.376,21.743Zm2.469,24.864a3.09,3.09,0,0,1-3.087-3.087V42.481H36.451a8.244,8.244,0,0,0,.049,4.126H20.845Zm16.413-6.173h-19.5V25.31H46.567v8.407l-6.237,3.6A8.17,8.17,0,0,0,37.258,40.434Zm10.273,9.358A6.173,6.173,0,1,1,41.359,39.1l5.585-3.224,6.173,10.692Zm12.474-7.2L54.9,45.539,48.725,34.847,53.832,31.9A6.173,6.173,0,1,1,60.005,42.59Z" transform="translate(-15.701)"/>
        </g>
      </g>
    </g>
  </g>
</svg>
