<svg xmlns="http://www.w3.org/2000/svg" width="180" height="180" viewBox="0 0 180 180">
  <g id="Grupo_963344" data-name="Grupo 963344" transform="translate(-8458 6423.385)">
    <g id="Elipse_5363" data-name="Elipse 5363" transform="translate(8458 -6423.385)" fill="#fff" stroke="#eb6f2d" stroke-width="7">
      <circle cx="90" cy="90" r="90" stroke="none"/>
      <circle cx="90" cy="90" r="86.5" fill="none"/>
    </g>
    <g id="Grupo_963339" data-name="Grupo 963339" transform="translate(7983.543 -7663.874)">
      <path id="Trazado_702060" data-name="Trazado 702060" d="M534.746,1403.174c-1.915-1.39-1.575-2.658-.436-3.411,1.522-1.009,4.471-1.1,5.365.654a3.057,3.057,0,0,1,.268.722c.556,2.5-3.387,3.349-5.2,2.035" transform="translate(-7.775 -47.819)" fill="#6a705e"/>
      <path id="Trazado_702061" data-name="Trazado 702061" d="M540.458,1401.139c-.3,1.5-2.926,1.158-4.052.682-.864-.365-1.928-.64-1.665-1.784a1.841,1.841,0,0,1,.085-.273c1.522-1.009,4.471-1.1,5.365.654a3.073,3.073,0,0,1,.267.722" transform="translate(-8.291 -47.819)" fill="#81857a"/>
      <path id="Trazado_702062" data-name="Trazado 702062" d="M539.748,1400.536a.645.645,0,0,0,.31.408,1.568,1.568,0,0,0,.224.086.672.672,0,0,0,.337,0c.061-.025.121-.049.18-.077a.554.554,0,0,0,.279-.486.565.565,0,0,0-.279-.486.772.772,0,0,0-.408-.1l-.064,0a.651.651,0,0,0-.312.089l.129-.055a.211.211,0,0,1-.05.016.5.5,0,0,0-.345.608" transform="translate(-10.259 -48.145)" fill="#9a9d9a"/>
      <path id="Trazado_702063" data-name="Trazado 702063" d="M563.2,1403.546c-1.915-1.39-1.575-2.658-.436-3.411,1.522-1.008,4.471-1.1,5.365.654a3.092,3.092,0,0,1,.268.722c.555,2.5-3.387,3.348-5.2,2.035" transform="translate(-18.911 -47.965)" fill="#6a705e"/>
      <path id="Trazado_702064" data-name="Trazado 702064" d="M568.908,1401.511c-.3,1.5-2.926,1.158-4.052.682-.864-.365-1.928-.64-1.665-1.784a1.857,1.857,0,0,1,.085-.273c1.522-1.008,4.471-1.1,5.365.654a3.059,3.059,0,0,1,.268.722" transform="translate(-19.427 -47.965)" fill="#81857a"/>
      <path id="Trazado_702065" data-name="Trazado 702065" d="M568.2,1400.907a.646.646,0,0,0,.31.408,1.606,1.606,0,0,0,.224.085.672.672,0,0,0,.337,0c.061-.025.121-.049.18-.077a.555.555,0,0,0,.279-.486.563.563,0,0,0-.279-.486.774.774,0,0,0-.408-.1l-.064,0a.666.666,0,0,0-.312.089l.13-.054a.266.266,0,0,1-.051.015.5.5,0,0,0-.345.609" transform="translate(-21.395 -48.291)" fill="#9a9d9a"/>
      <path id="Trazado_702066" data-name="Trazado 702066" d="M590.135,1362.59a9.007,9.007,0,0,0,4.863-.56c.7-.351,1.5-.434,2.173-.825.925-.536,1.883-1.2,1.872-2.513a22.713,22.713,0,0,1-.194-3.018,6.606,6.606,0,0,1,.3-1.371,2.322,2.322,0,0,0,.246-.784c-.372.331-.738.741-1.112,1.088s-.631,1.413-1.1,1.5a5.462,5.462,0,0,0,.232-2.6,3.18,3.18,0,0,0-1.427-2.349,4.083,4.083,0,0,1-1.626-2.245c-.132-.514-.078-1.949-.656-2.134-.241.8.291,2.384-.323,2.975.024-1.49-1.327-2.846-2.106-3.888-.547-.731-.421-1.454-.708-2.27-.261.269-.31,1.026-.559,1.412a15.512,15.512,0,0,0-1.328,2.213,6.3,6.3,0,0,0-.53,3.155c.049.423.439,1.649.175,1.985-.243-.246-.273-1.186-.389-1.57-.138-.458-.609-1.258-.461-1.717a3.554,3.554,0,0,0-.1,1.313,11.818,11.818,0,0,1-.2,1.491,3.116,3.116,0,0,0,.364,1.9c.172.375.655.888.674,1.308-.548.1-1.144-.438-1.52-.833-.438-.462-.54-1.341-.958-1.728a8.533,8.533,0,0,0-.116,2.511c.024,1.625-1,2.917-.279,4.513a5.922,5.922,0,0,0,4.793,3.045" transform="translate(-28.012 -26.115)" fill="#f5a12f"/>
      <path id="Trazado_702067" data-name="Trazado 702067" d="M595.3,1363.045c1.074.2,2.489-1.064,2.971-2.016a4.2,4.2,0,0,0,.537-1.576c.043-.424-.114-.778.151-1.117a6.278,6.278,0,0,1-2.355,2.122c-.026.032-.024.035.005.007.422-1.292,1.316-3.108.836-4.5-.526-1.524-2.056-2.078-2.739-3.392-.471.3-.439,1-.668,1.492a18.827,18.827,0,0,0-2.246-5.97c-.381,1.046-.7,2.216-1.011,3.311a9.864,9.864,0,0,0-.451,2.556c0,.523.28.962.187,1.473-.6.044-1.078-.915-1.436-1.376a12.027,12.027,0,0,0,.6,1.835c.128.567-.007,1.274.338,1.744a2.687,2.687,0,0,1-2.175-1.024c.039.789-.583,1.6-.61,2.505-.044,1.464-.108,2.121,1.084,2.9a8.073,8.073,0,0,0,3.61,1.063c.834.095,2.776.487,3.517-.031Z" transform="translate(-28.847 -27.877)" fill="#ef802a"/>
      <path id="Trazado_702068" data-name="Trazado 702068" d="M588.284,1362.738c.381.352.433,1.33.828,1.8a7.029,7.029,0,0,0,1.781,1.375,3.719,3.719,0,0,0,3.848.014c.724-.536.762-1.652.978-2.4a3.255,3.255,0,0,0-1.144-3.442c.234.795-.151,1.3-.684,1.971.408-.709-.732-1.789-1.1-2.444a8.72,8.72,0,0,1-.742-1.29c-.138-.407-.013-.856-.4-1.157.369,2.025-2.4,3.857-1.026,5.766a11.21,11.21,0,0,1-1.077-2.582c-.559.7-.9,2.355-.135,3.1-.413-.178-.75-.491-1.142-.705-.03-.036-.027-.038.008-.006" transform="translate(-29.253 -31.428)" fill="#de5525"/>
      <path id="Trazado_702069" data-name="Trazado 702069" d="M556.072,1389.991a7.1,7.1,0,1,1-7.1-7.1,7.1,7.1,0,0,1,7.1,7.1" transform="translate(-11.1 -41.497)" fill="#c99d66"/>
      <path id="Trazado_702070" data-name="Trazado 702070" d="M553.1,1391.352a2.8,2.8,0,1,0-2.8,2.8A2.8,2.8,0,0,0,553.1,1391.352Zm2.238.057a5.039,5.039,0,1,0-5.04,5.039A5.04,5.04,0,0,0,555.339,1391.409Z" transform="translate(-12.424 -42.858)" fill="none" stroke="#925f36" stroke-miterlimit="10" stroke-width="1.126"/>
      <path id="Trazado_702071" data-name="Trazado 702071" d="M613.931,1403.174c-1.915-1.39-1.575-2.658-.436-3.411,1.522-1.009,4.471-1.1,5.365.654a3.051,3.051,0,0,1,.268.722c.556,2.5-3.387,3.349-5.2,2.035" transform="translate(-38.769 -47.819)" fill="#6a705e"/>
      <path id="Trazado_702072" data-name="Trazado 702072" d="M619.643,1401.139c-.3,1.5-2.926,1.158-4.052.682-.864-.365-1.928-.64-1.665-1.784a1.841,1.841,0,0,1,.085-.273c1.522-1.009,4.471-1.1,5.365.654a3.065,3.065,0,0,1,.268.722" transform="translate(-39.285 -47.819)" fill="#81857a"/>
      <path id="Trazado_702073" data-name="Trazado 702073" d="M618.933,1400.536a.644.644,0,0,0,.31.408,1.558,1.558,0,0,0,.223.086.672.672,0,0,0,.337,0c.061-.025.121-.049.18-.077a.554.554,0,0,0,.279-.486.565.565,0,0,0-.279-.486.773.773,0,0,0-.408-.1l-.065,0a.653.653,0,0,0-.312.089l.13-.055a.229.229,0,0,1-.051.016.5.5,0,0,0-.346.608" transform="translate(-41.253 -48.145)" fill="#9a9d9a"/>
      <path id="Trazado_702074" data-name="Trazado 702074" d="M642.381,1403.546c-1.915-1.39-1.575-2.658-.436-3.411,1.522-1.008,4.471-1.1,5.365.654a3.06,3.06,0,0,1,.268.722c.556,2.5-3.387,3.348-5.2,2.035" transform="translate(-49.904 -47.965)" fill="#6a705e"/>
      <path id="Trazado_702075" data-name="Trazado 702075" d="M648.092,1401.511c-.3,1.5-2.926,1.158-4.052.682-.864-.365-1.928-.64-1.665-1.784a1.849,1.849,0,0,1,.085-.273c1.522-1.008,4.471-1.1,5.365.654a3.057,3.057,0,0,1,.268.722" transform="translate(-50.42 -47.965)" fill="#81857a"/>
      <path id="Trazado_702076" data-name="Trazado 702076" d="M647.383,1400.907a.644.644,0,0,0,.31.408,1.575,1.575,0,0,0,.224.085.672.672,0,0,0,.337,0c.06-.025.121-.049.18-.077a.554.554,0,0,0,.279-.486.563.563,0,0,0-.279-.486.775.775,0,0,0-.408-.1l-.065,0a.666.666,0,0,0-.311.089l.129-.054a.251.251,0,0,1-.051.015.5.5,0,0,0-.345.609" transform="translate(-52.388 -48.291)" fill="#9a9d9a"/>
      <path id="Trazado_702077" data-name="Trazado 702077" d="M635.258,1389.991a7.1,7.1,0,1,1-7.1-7.1,7.1,7.1,0,0,1,7.1,7.1" transform="translate(-42.094 -41.497)" fill="#c99d66"/>
      <path id="Trazado_702078" data-name="Trazado 702078" d="M632.285,1391.352a2.8,2.8,0,1,0-2.8,2.8A2.8,2.8,0,0,0,632.285,1391.352Zm2.238.057a5.039,5.039,0,1,0-5.04,5.039A5.039,5.039,0,0,0,634.523,1391.409Z" transform="translate(-43.417 -42.858)" fill="none" stroke="#925f36" stroke-miterlimit="10" stroke-width="1.126"/>
      <path id="Trazado_702079" data-name="Trazado 702079" d="M604.77,1368.779c.013.757-1.5.792-2,.789a2.26,2.26,0,0,1-1.274-.224c-.358-.267-.229-1.085-.069-1.455a3.087,3.087,0,0,1,.316-.553,1.613,1.613,0,0,1,.405-.414c.689-.44,1.276-.084,1.753.465a7.86,7.86,0,0,1,.6.73,1.3,1.3,0,0,1,.267.662" transform="translate(-34.344 -35.169)" fill="#6a705e"/>
      <path id="Trazado_702080" data-name="Trazado 702080" d="M604.759,1368.116c-.092.515-.423.7-1.045.763a1.952,1.952,0,0,1-1.423-.191,1.246,1.246,0,0,1-.3-1.353,1.62,1.62,0,0,1,.405-.413c.689-.441,1.276-.084,1.754.464a7.935,7.935,0,0,1,.6.73" transform="translate(-34.6 -35.168)" fill="#81857a"/>
      <path id="Trazado_702081" data-name="Trazado 702081" d="M603.327,1367.262c-.044-.044-.138-.02-.189,0a.313.313,0,0,0-.155.2.1.1,0,0,0,.051.12.368.368,0,0,0,.337.038c.111-.05.156-.193.19-.3a.126.126,0,0,0-.092-.156.455.455,0,0,0-.341.051c-.086.059-.194.195-.15.3a.126.126,0,0,0,.18.07.228.228,0,0,0,.085-.111.161.161,0,0,1,.039-.048c-.016.014.019-.01.019-.01-.017.009.026-.007.026-.007a.352.352,0,0,1,.107,0l-.127-.16a1.016,1.016,0,0,1-.039.12c0-.012-.015.026-.013.022l-.014.02c.007-.009.007-.009,0,0,.018-.019-.016.007.009,0-.013,0-.013,0,0,0h-.024c.018,0-.025,0-.025,0a.381.381,0,0,1-.054-.018l.051.12a.253.253,0,0,1,.074-.135c.028-.028.1-.076.057-.122" transform="translate(-35.012 -35.339)" fill="#9a9d9a"/>
      <path id="Trazado_702082" data-name="Trazado 702082" d="M604.135,1367.948a.212.212,0,0,0-.042.043.084.084,0,0,0-.009.076.064.064,0,0,0,.122,0l0-.006v0c-.007.016-.007.015,0,0l0-.018c0-.007,0,0,0,.011l0-.006c-.007.02-.005.013,0,.008l0,0,.016-.019a.061.061,0,0,0,0-.087.066.066,0,0,0-.09,0" transform="translate(-35.447 -35.641)" fill="#9a9d9a"/>
      <path id="Trazado_702083" data-name="Trazado 702083" d="M609.047,1371.166a1.865,1.865,0,0,1-.146.232c-.512.693-1.274.6-2.044.265a2.487,2.487,0,0,1-1.224-.818,1.113,1.113,0,0,1,.15-.982,2.713,2.713,0,0,1,.463-.63,3.708,3.708,0,0,1,.589-.458,1.853,1.853,0,0,1,.618-.266c.926-.167,1.371.484,1.611,1.3a3.915,3.915,0,0,1,.164.641,1.163,1.163,0,0,1-.18.721" transform="translate(-36.029 -35.857)" fill="#6a705e"/>
      <path id="Trazado_702084" data-name="Trazado 702084" d="M609.365,1370.445a1.974,1.974,0,0,1-1.292.641,2.332,2.332,0,0,1-1.759-.6,1.187,1.187,0,0,1-.394-.621,2.7,2.7,0,0,1,.462-.63,3.714,3.714,0,0,1,.589-.457,1.87,1.87,0,0,1,.618-.266c.926-.167,1.37.484,1.612,1.3a3.928,3.928,0,0,1,.164.641" transform="translate(-36.167 -35.857)" fill="#81857a"/>
      <path id="Trazado_702085" data-name="Trazado 702085" d="M608.84,1369.077c-.046-.133-.222-.126-.325-.066a.239.239,0,0,0-.081.286.284.284,0,0,0,.274.171.445.445,0,0,0,.327-.229.162.162,0,0,0-.024-.224.438.438,0,0,0-.375-.088c-.1.027-.259.13-.264.245a.151.151,0,0,0,.127.169.216.216,0,0,0,.167-.055l.035-.027.022-.015c-.018.009-.018.01,0,0s.046-.012.008,0c.018,0,.017,0,0,0l.028,0c.046.007-.029-.011.021.006a.507.507,0,0,1,.073.036c-.02-.082-.04-.164-.061-.246a.619.619,0,0,1-.083.113c.023-.024-.016.009-.022.013.032-.021,0,0-.013,0,.047-.016-.03-.005.026,0-.04,0,.023.01,0,0s.033.025,0,0c-.01-.008.02.029,0-.005.026.04.008.011,0,0-.016-.032,0,.023,0,0s0,.035,0,0c0,.012-.014.032-.009.025s0,0-.01.005c.032-.017-.008.006.039-.014a.272.272,0,0,0,.119-.066.04.04,0,0,0,.006-.039" transform="translate(-37.127 -36.026)" fill="#9a9d9a"/>
      <path id="Trazado_702086" data-name="Trazado 702086" d="M607.762,1369.648h-.01c.018,0-.009,0-.015,0l.031.013a.1.1,0,0,0-.1-.016.161.161,0,0,0-.028.016c.013-.007.016-.008.01-.006a.1.1,0,0,0-.043.031.154.154,0,0,0,.016.187.112.112,0,0,0,.13.037.322.322,0,0,0,.124-.083.115.115,0,0,0,.019-.118.109.109,0,0,0-.162-.046.1.1,0,0,0,0,.164h0l-.032-.043h0c0-.018,0-.035-.006-.053h0l.042-.07c.023-.01.03-.015.02-.011a.079.079,0,0,0-.03.017l-.019.014-.026.018c-.01.006-.007,0,.008,0l-.017.008.13.037-.015-.02c0-.007-.014-.027,0,0l0,.017a.107.107,0,0,0-.007-.03.12.12,0,0,0-.033-.044l.03.041,0-.005c0,.024,0,.048,0,.072.007-.021-.012.014,0,0a.089.089,0,0,0,.013-.087v0c0,.022-.007.044-.01.066a.1.1,0,0,0,.014-.022c0,.011,0,0,0,0a.048.048,0,0,0-.031-.077" transform="translate(-36.816 -36.307)" fill="#9a9d9a"/>
      <path id="Trazado_702087" data-name="Trazado 702087" d="M580.129,1367.916a2.488,2.488,0,0,1-.178.31c-.63.93-1.629.853-2.649.453a3.24,3.24,0,0,1-1.638-1,1.449,1.449,0,0,1,.142-1.286,3.51,3.51,0,0,1,.57-.845,4.807,4.807,0,0,1,.743-.627,2.454,2.454,0,0,1,.79-.379c1.2-.267,1.812.557,2.168,1.6a5.159,5.159,0,0,1,.247.827,1.518,1.518,0,0,1-.2.948" transform="translate(-24.285 -34.293)" fill="#6a705e"/>
      <path id="Trazado_702088" data-name="Trazado 702088" d="M580.482,1366.967a2.574,2.574,0,0,1-1.649.9,3.042,3.042,0,0,1-2.323-.692,1.55,1.55,0,0,1-.546-.789,3.509,3.509,0,0,1,.569-.845,4.876,4.876,0,0,1,.743-.627,2.456,2.456,0,0,1,.79-.379c1.2-.267,1.812.558,2.168,1.6a5.115,5.115,0,0,1,.247.826" transform="translate(-24.442 -34.293)" fill="#81857a"/>
      <path id="Trazado_702089" data-name="Trazado 702089" d="M579.689,1365.268c-.066-.171-.3-.152-.427-.069a.311.311,0,0,0-.091.377.37.37,0,0,0,.365.207.578.578,0,0,0,.415-.316.21.21,0,0,0-.043-.29.571.571,0,0,0-.494-.094c-.133.041-.33.182-.331.333a.2.2,0,0,0,.175.213.282.282,0,0,0,.214-.08c.014-.013.029-.024.043-.037l.029-.021c-.023.013-.023.013,0,0s.059-.018.01-.006c.023,0,.022,0,0,0l.037,0c.06.007-.038-.014.027.007a.633.633,0,0,1,.1.043l-.092-.317a.837.837,0,0,1-.1.151c.028-.032-.019.013-.027.019.04-.029,0,0-.017,0,.061-.023-.039-.006.032-.005-.052,0,.031.012,0,0s.044.032,0,0c-.014-.01.027.036,0-.007.036.05.01.015,0,0-.023-.04,0,.03,0,0s0,.046,0,0c0,.016-.017.043-.01.033s0,0-.013.008c.041-.024-.01.009.05-.02a.354.354,0,0,0,.152-.092.053.053,0,0,0,.005-.052" transform="translate(-25.663 -34.518)" fill="#9a9d9a"/>
      <path id="Trazado_702090" data-name="Trazado 702090" d="M578.309,1366.077H578.3c.022,0-.011,0-.019,0l.041.016a.13.13,0,0,0-.136-.015.217.217,0,0,0-.036.021c.017-.009.021-.012.013-.008a.135.135,0,0,0-.054.043.2.2,0,0,0,.03.242.146.146,0,0,0,.17.041.425.425,0,0,0,.158-.114.149.149,0,0,0,.018-.155.142.142,0,0,0-.214-.051.136.136,0,0,0,0,.214h0l-.043-.054h0l-.011-.069h0l.051-.094c.03-.015.038-.02.026-.015a.107.107,0,0,0-.038.024c-.007.007-.016.013-.024.019l-.032.024.01-.006-.022.012.171.042-.021-.025c-.006-.009-.019-.035,0,0l.006.022a.142.142,0,0,0-.011-.039.151.151,0,0,0-.044-.056l.041.052,0-.007c0,.031,0,.062,0,.094.007-.029-.015.019,0,0a.113.113,0,0,0,.012-.114l0,0-.009.087a.16.16,0,0,0,.016-.03c-.005.016,0,0,0,0a.063.063,0,0,0-.044-.1" transform="translate(-25.268 -34.909)" fill="#9a9d9a"/>
      <path id="Trazado_702091" data-name="Trazado 702091" d="M596.007,1375.5c.026,1.545-3.067,1.615-4.087,1.609a4.614,4.614,0,0,1-2.6-.458c-.731-.545-.468-2.213-.139-2.969a6.322,6.322,0,0,1,.644-1.127,3.317,3.317,0,0,1,.827-.844c1.4-.9,2.6-.172,3.577.948a16.11,16.11,0,0,1,1.232,1.49,2.66,2.66,0,0,1,.545,1.351" transform="translate(-29.487 -36.962)" fill="#6a705e"/>
      <path id="Trazado_702092" data-name="Trazado 702092" d="M595.984,1374.147c-.187,1.05-.863,1.438-2.131,1.556-.933.086-2.13.253-2.9-.39a2.539,2.539,0,0,1-.6-2.76,3.311,3.311,0,0,1,.827-.844c1.4-.9,2.6-.172,3.577.948a16.209,16.209,0,0,1,1.232,1.49" transform="translate(-30.009 -36.962)" fill="#81857a"/>
      <path id="Trazado_702093" data-name="Trazado 702093" d="M593.065,1372.4c-.091-.092-.282-.042-.386,0a.632.632,0,0,0-.316.4.213.213,0,0,0,.1.245.752.752,0,0,0,.689.077c.226-.1.319-.394.388-.6a.258.258,0,0,0-.187-.318.927.927,0,0,0-.7.1c-.176.12-.4.4-.3.616a.255.255,0,0,0,.366.143.464.464,0,0,0,.173-.227.322.322,0,0,1,.078-.1c-.032.029.039-.021.039-.021-.035.019.052-.013.052-.013a.717.717,0,0,1,.219,0l-.259-.327a2.183,2.183,0,0,1-.08.245c.01-.026-.03.051-.026.044a.376.376,0,0,1-.029.042c.015-.019.014-.018-.005,0,.038-.038-.034.015.019-.006-.027.006-.028.008,0,0a.324.324,0,0,1-.049,0c.038,0-.051-.01-.048-.009a.719.719,0,0,1-.113-.037l.1.245a.507.507,0,0,1,.15-.274c.057-.058.21-.155.117-.249" transform="translate(-30.85 -37.308)" fill="#9a9d9a"/>
      <path id="Trazado_702094" data-name="Trazado 702094" d="M594.712,1373.8a.462.462,0,0,0-.086.088.171.171,0,0,0-.016.154.131.131,0,0,0,.25,0l0-.011,0,0q-.022.05,0-.009l.006-.035c0-.013,0-.006,0,.022l0-.011c-.014.039-.011.027,0,.016s.02-.024-.007.007l.035-.039a.124.124,0,0,0,0-.177.137.137,0,0,0-.184,0" transform="translate(-31.736 -37.925)" fill="#9a9d9a"/>
      <path id="Trazado_702095" data-name="Trazado 702095" d="M618.871,1373.977c.026,1.545-3.067,1.615-4.087,1.609a4.613,4.613,0,0,1-2.6-.458c-.732-.545-.469-2.213-.14-2.969a6.3,6.3,0,0,1,.645-1.126,3.3,3.3,0,0,1,.826-.844c1.405-.9,2.6-.172,3.577.948a16.229,16.229,0,0,1,1.232,1.49,2.649,2.649,0,0,1,.545,1.35" transform="translate(-38.436 -36.367)" fill="#6a705e"/>
      <path id="Trazado_702096" data-name="Trazado 702096" d="M618.849,1372.626c-.187,1.05-.863,1.438-2.131,1.556-.934.087-2.129.253-2.9-.389a2.54,2.54,0,0,1-.6-2.761,3.313,3.313,0,0,1,.827-.844c1.4-.9,2.6-.172,3.577.948a16.117,16.117,0,0,1,1.232,1.49" transform="translate(-38.959 -36.367)" fill="#81857a"/>
      <path id="Trazado_702097" data-name="Trazado 702097" d="M615.93,1370.883c-.091-.092-.282-.043-.386,0a.635.635,0,0,0-.316.4.213.213,0,0,0,.1.245.752.752,0,0,0,.689.077c.226-.1.319-.393.388-.6a.258.258,0,0,0-.187-.318.927.927,0,0,0-.7.1c-.176.12-.4.4-.3.616a.255.255,0,0,0,.366.143.466.466,0,0,0,.172-.227.325.325,0,0,1,.078-.1c-.031.029.04-.021.04-.021-.036.019.052-.013.052-.013a.716.716,0,0,1,.219,0l-.259-.327a2.22,2.22,0,0,1-.08.245c.01-.025-.03.051-.026.044a.362.362,0,0,1-.029.042c.016-.019.014-.017-.005,0,.038-.038-.034.015.02-.007-.027.007-.027.009,0,.005a.341.341,0,0,1-.049,0c.038,0-.051-.01-.048-.01a.76.76,0,0,1-.113-.036l.1.245a.506.506,0,0,1,.15-.274c.057-.058.21-.155.117-.249" transform="translate(-39.799 -36.714)" fill="#9a9d9a"/>
      <path id="Trazado_702098" data-name="Trazado 702098" d="M617.577,1372.281a.45.45,0,0,0-.086.088.174.174,0,0,0-.017.155.131.131,0,0,0,.25,0l0-.011,0,0q-.022.05,0-.009c0-.012,0-.024,0-.035s0-.006,0,.022l0-.012c-.014.039-.012.027,0,.016s.02-.024-.007.007c.011-.013.023-.026.035-.039a.123.123,0,0,0,0-.177.136.136,0,0,0-.184,0" transform="translate(-40.685 -37.33)" fill="#9a9d9a"/>
      <path id="Trazado_702099" data-name="Trazado 702099" d="M581.39,1376.219c-1.9,1.056-4.49-.023-6.253-.895-2.245-1.11-2.4-3.142-.6-4.921a8.282,8.282,0,0,1,2.584-1.756,2.444,2.444,0,0,1,.425-.112c1.784-.279,2.546,1.326,3.553,2.432.068.074.136.15.2.226a7.388,7.388,0,0,1,1.336,2c.435,1.086.279,2.173-1.248,3.023" transform="translate(-23.402 -35.865)" fill="#6a705e"/>
      <path id="Trazado_702100" data-name="Trazado 702100" d="M584.018,1373.2a1.573,1.573,0,0,1-.119.615c-.38.934-.82.7-1.756.652-1.75-.092-3.852.338-4.948-1.442-.875-1.421-.049-3.479,1.305-4.373a2.444,2.444,0,0,1,.425-.112c1.784-.279,2.546,1.326,3.553,2.432q.1.111.2.226a7.413,7.413,0,0,1,1.336,2" transform="translate(-24.782 -35.865)" fill="#81857a"/>
      <path id="Trazado_702101" data-name="Trazado 702101" d="M580.71,1370.259a.134.134,0,0,1-.032-.007l.07.054c0,.086,0,.114.006.084a.1.1,0,0,0,.008-.062.331.331,0,0,0-.018-.089.313.313,0,0,0-.3-.224c-.282.021-.441.281-.566.506a.323.323,0,0,0,.276.48c.036,0,.032,0-.012,0,.026,0,.05.01.075.015.051.012.1.027.153.04a.936.936,0,0,0,.413.038.715.715,0,0,0,.478-.826.528.528,0,0,0-.486-.455.731.731,0,0,0-.511.224,1.3,1.3,0,0,0-.481.81.456.456,0,0,0,.595.438,1.134,1.134,0,0,0,.611-.48.4.4,0,0,0-.061-.476.407.407,0,0,0-.476-.061l-.065.027a.485.485,0,0,0-.114.082l-.09.077c-.09.075.043-.03-.008.007-.019.014-.039.027-.06.039s-.106.044.041-.013c-.067.026.116-.007.07-.007a.386.386,0,0,1,.38.376c-.007-.066-.026.132-.009.06.027-.109-.049.095,0,0,.018-.036.039-.071.06-.106s.05-.075.076-.111c-.092.124.019-.018.048-.049a.894.894,0,0,1,.093-.086c-.142.116.122-.037-.063.035.037-.015.1-.009-.054,0a.434.434,0,0,1-.145-.042.4.4,0,0,1-.1-.1c.045.065-.032-.1-.009-.016.007.029,0,.022-.007-.023q0,.041,0,.082c0,.048,0,.048,0,0a.315.315,0,0,1-.014.052c.069-.1.083-.125.043-.082a.17.17,0,0,1,.084-.052c-.036.009-.026.009.03,0a.6.6,0,0,1-.068,0c-.02,0-.124-.018-.035,0l-.1-.02a1.436,1.436,0,0,0-.288-.033l.276.481c.048-.1.1-.205.149-.3.008-.015.017-.029.026-.043q-.037.046-.009.015c-.011.012-.115.056-.058.039a.929.929,0,0,0,.115-.038.146.146,0,0,0,.053-.041c.01-.012.02-.025.029-.038-.015.021-.1.052-.056.047.117-.012.164-.2.03-.222" transform="translate(-25.937 -36.375)" fill="#9a9d9a"/>
      <path id="Trazado_702102" data-name="Trazado 702102" d="M582.686,1372.111v.011l.009-.069c-.007.047-.016.094-.022.142,0-.024.006-.048.01-.071a.18.18,0,0,1-.007.025c.009-.021.018-.042.027-.063-.008.018-.02.032-.028.049a.71.71,0,0,0-.043.128.218.218,0,0,0,.266.266.513.513,0,0,0,.135-.049.438.438,0,0,0,.125-.128.33.33,0,0,0,.045-.24.282.282,0,0,0-.076-.182.257.257,0,0,0-.364,0,.284.284,0,0,0-.075.182" transform="translate(-27.048 -37.177)" fill="#9a9d9a"/>
      <path id="Trazado_702103" data-name="Trazado 702103" d="M608.729,1376.572c-1.182.658-2.8-.015-3.9-.557-1.4-.692-1.492-1.957-.374-3.065a5.154,5.154,0,0,1,1.61-1.093,1.446,1.446,0,0,1,.265-.07c1.111-.174,1.586.825,2.213,1.514.043.046.085.094.127.141a4.614,4.614,0,0,1,.833,1.246,1.378,1.378,0,0,1-.777,1.883" transform="translate(-35.296 -37.143)" fill="#6a705e"/>
      <path id="Trazado_702104" data-name="Trazado 702104" d="M610.365,1374.69a.986.986,0,0,1-.074.384c-.237.581-.511.436-1.094.406-1.09-.057-2.4.211-3.082-.9a2.157,2.157,0,0,1,.813-2.723,1.448,1.448,0,0,1,.265-.07c1.111-.174,1.586.826,2.213,1.515.043.046.085.093.127.141a4.607,4.607,0,0,1,.833,1.247" transform="translate(-36.156 -37.143)" fill="#81857a"/>
      <path id="Trazado_702105" data-name="Trazado 702105" d="M608.306,1372.86l-.019-.005.044.034c0,.054,0,.071,0,.052a.054.054,0,0,0,.005-.038.208.208,0,0,0-.011-.055.2.2,0,0,0-.186-.14c-.176.013-.274.175-.352.315a.2.2,0,0,0,.172.3c.022,0,.02,0-.007,0l.047.01c.032.007.063.016.094.025a.59.59,0,0,0,.257.024.445.445,0,0,0,.3-.514.328.328,0,0,0-.3-.284.453.453,0,0,0-.319.139.81.81,0,0,0-.3.5.284.284,0,0,0,.37.273.707.707,0,0,0,.38-.3.246.246,0,0,0-.038-.3.253.253,0,0,0-.3-.038l-.04.017a.315.315,0,0,0-.071.05c-.018.017-.037.033-.056.048-.056.047.026-.018,0,0-.012.008-.024.017-.037.024s-.066.027.026-.008c-.041.016.072,0,.044,0a.24.24,0,0,1,.237.234c0-.041-.016.083,0,.038.016-.068-.03.059,0,0,.011-.022.024-.044.038-.066s.031-.047.047-.069c-.057.077.012-.012.03-.031a.571.571,0,0,1,.057-.053c-.088.072.077-.024-.039.022.023-.009.06-.006-.034,0a.271.271,0,0,1-.09-.027.232.232,0,0,1-.061-.062c.028.041-.02-.065-.005-.01,0,.019,0,.014,0-.014,0,.017,0,.034,0,.051s0,.03,0,0a.219.219,0,0,1-.009.033c.043-.061.051-.078.026-.052a.107.107,0,0,1,.053-.032c-.023,0-.016,0,.018,0a.242.242,0,0,1-.042,0c-.013,0-.077-.011-.022,0l-.064-.013a.891.891,0,0,0-.18-.021l.172.3c.029-.064.06-.128.093-.19a.246.246,0,0,1,.016-.027c-.016.019-.018.022-.005.009-.007.007-.072.035-.036.024a.609.609,0,0,0,.071-.023.1.1,0,0,0,.034-.026l.018-.024c-.01.013-.064.032-.035.03.073-.007.1-.123.019-.138" transform="translate(-36.875 -37.46)" fill="#9a9d9a"/>
      <path id="Trazado_702106" data-name="Trazado 702106" d="M609.535,1374.013v.006l.005-.043c0,.03-.01.058-.013.088,0-.015,0-.03.006-.044l0,.015.016-.039c0,.011-.012.02-.017.03a.384.384,0,0,0-.027.08.136.136,0,0,0,.165.166.318.318,0,0,0,.084-.03.279.279,0,0,0,.078-.08.2.2,0,0,0,.027-.15.171.171,0,0,0-.047-.113.159.159,0,0,0-.227,0,.177.177,0,0,0-.047.113" transform="translate(-37.567 -37.959)" fill="#9a9d9a"/>
      <path id="Trazado_702107" data-name="Trazado 702107" d="M587.616,1370.275c-.655,1.184-2.38,1.469-3.6,1.59-1.553.154-2.3-.869-1.941-2.4a5.153,5.153,0,0,1,.786-1.78,1.556,1.556,0,0,1,.188-.2c.85-.736,1.783-.139,2.679.113l.182.053a4.594,4.594,0,0,1,1.366.616,1.376,1.376,0,0,1,.338,2.008" transform="translate(-26.799 -35.327)" fill="#6a705e"/>
      <path id="Trazado_702108" data-name="Trazado 702108" d="M587.712,1368.266a.98.98,0,0,1,.14.365c.107.618-.2.641-.713.923-.954.529-1.923,1.45-3.09.871a2.158,2.158,0,0,1-.753-2.741,1.478,1.478,0,0,1,.188-.2c.85-.736,1.782-.14,2.679.112l.182.053a4.593,4.593,0,0,1,1.366.617" transform="translate(-27.234 -35.327)" fill="#81857a"/>
      <path id="Trazado_702109" data-name="Trazado 702109" d="M584.709,1368.233l-.019.007.055.005c.027.047.037.061.03.043s0-.015-.015-.036a.246.246,0,0,0-.039-.041.2.2,0,0,0-.232-.02.494.494,0,0,0-.132.454.2.2,0,0,0,.3.163c.02-.01.018-.01-.007,0,.015-.007.03-.011.045-.017l.094-.029a.584.584,0,0,0,.231-.116.445.445,0,0,0-.02-.594.329.329,0,0,0-.407-.08.457.457,0,0,0-.2.287.814.814,0,0,0,.013.587.284.284,0,0,0,.458.035.706.706,0,0,0,.164-.455.246.246,0,0,0-.189-.231.253.253,0,0,0-.271.125c.026-.037.018-.025-.025.036a.288.288,0,0,0-.033.081c-.007.023-.014.047-.022.07-.023.069.013-.03,0,.006l-.019.041c-.011.022-.041.058.018-.021-.027.036.059-.042.035-.027a.239.239,0,0,1,.324.073c-.025-.032.03.078.016.035-.022-.067.005.066,0,0a.612.612,0,0,1,0-.075c0-.028,0-.056,0-.084-.008.1,0-.016.009-.042a.611.611,0,0,1,.021-.076c-.037.108.052-.06-.022.04.015-.02.048-.036-.027.019a.266.266,0,0,1-.091.026.249.249,0,0,1-.084-.02c.045.019-.052-.045-.01-.006.013.013.01.01-.011-.01.01.014.02.028.029.042s.015.026,0,0a.187.187,0,0,1,.01.032c0-.074,0-.093,0-.058a.108.108,0,0,1,.027-.055c-.016.016-.011.013.016-.01a.293.293,0,0,1-.035.024c-.011.007-.071.032-.019.011l-.061.023a.94.94,0,0,0-.163.078l.3.163c-.008-.07-.016-.14-.021-.211a.26.26,0,0,1,0-.031q0,.036,0,.011c0,.01-.043.068-.018.04a.724.724,0,0,0,.047-.057.092.092,0,0,0,.015-.039c0-.01,0-.02,0-.029,0,.016-.037.061-.014.044.058-.045.022-.158-.057-.127" transform="translate(-27.725 -35.643)" fill="#9a9d9a"/>
      <path id="Trazado_702110" data-name="Trazado 702110" d="M586.242,1368.71l0,.006-.018-.039c.012.027.023.055.035.082l-.018-.04a.107.107,0,0,1,0,.015c0-.014,0-.028-.007-.042,0,.012,0,.023,0,.035a.417.417,0,0,0,.019.082.136.136,0,0,0,.228.052.3.3,0,0,0,.055-.071.256.256,0,0,0,.024-.108.2.2,0,0,0-.055-.142.18.18,0,0,0-.1-.072.163.163,0,0,0-.121.021.159.159,0,0,0-.071.1.172.172,0,0,0,.02.121" transform="translate(-28.456 -35.85)" fill="#9a9d9a"/>
      <path id="Trazado_702111" data-name="Trazado 702111" d="M569.429,1373.807a3.179,3.179,0,0,1-.071.46c-.331,1.427-1.581,1.8-3.01,1.792a4.23,4.23,0,0,1-2.462-.452,1.89,1.89,0,0,1-.429-1.632,4.584,4.584,0,0,1,.3-1.3,6.286,6.286,0,0,1,.61-1.111,3.191,3.191,0,0,1,.783-.832c1.331-.885,2.465-.17,3.389.934a6.712,6.712,0,0,1,.688.89,1.98,1.98,0,0,1,.206,1.246" transform="translate(-19.541 -36.584)" fill="#6a705e"/>
      <path id="Trazado_702112" data-name="Trazado 702112" d="M569.232,1372.561a3.354,3.354,0,0,1-1.583,1.871,3.963,3.963,0,0,1-3.149.247,2.024,2.024,0,0,1-1.033-.7,4.584,4.584,0,0,1,.3-1.3,6.289,6.289,0,0,1,.61-1.111,3.185,3.185,0,0,1,.783-.832c1.331-.885,2.465-.17,3.389.934a6.712,6.712,0,0,1,.688.89" transform="translate(-19.55 -36.584)" fill="#81857a"/>
      <path id="Trazado_702113" data-name="Trazado 702113" d="M566.995,1371.543c-.161-.177-.432-.046-.551.116a.406.406,0,0,0,.066.5.484.484,0,0,0,.542.081.757.757,0,0,0,.356-.579.273.273,0,0,0-.189-.332.741.741,0,0,0-.645.117c-.142.112-.315.377-.246.561a.258.258,0,0,0,.312.177.365.365,0,0,0,.223-.2c.012-.022.024-.043.036-.065l.025-.039c-.021.026-.022.028,0,0s.063-.05.01-.012c.027-.015.025-.015-.007,0a.3.3,0,0,1,.046-.014c.077-.02-.053,0,.036,0a.82.82,0,0,1,.139.006l-.261-.342a1.049,1.049,0,0,1-.055.232c.019-.052-.018.025-.024.035.035-.054,0,0-.019.014.064-.057-.05.012.037-.022-.064.024.043,0,0,0s.069.017,0,0c-.021-.005.051.031-.007-.007.067.044.019.013,0,0-.046-.038.02.035,0,0s.016.058,0,0c0,.021,0,.06,0,.045s0,.005-.012.016c.038-.049-.009.015.052-.047a.466.466,0,0,0,.141-.183.068.068,0,0,0-.018-.065" transform="translate(-20.664 -36.962)" fill="#9a9d9a"/>
      <path id="Trazado_702114" data-name="Trazado 702114" d="M565.638,1373.258l-.016.005c.028-.008-.015,0-.026,0h.058a.171.171,0,0,0-.173.046.349.349,0,0,0-.033.043c.017-.019.021-.024.012-.016a.181.181,0,0,0-.045.077.26.26,0,0,0,.15.281.191.191,0,0,0,.228-.03.57.57,0,0,0,.138-.212.2.2,0,0,0-.051-.2.185.185,0,0,0-.285.038.177.177,0,0,0,.105.258h0l-.078-.045h0l-.046-.079h0l.018-.137c.029-.033.036-.043.023-.031a.144.144,0,0,0-.035.047c-.006.011-.014.024-.021.035s-.018.03-.028.044-.008.012.01-.012l-.021.024.227-.03-.036-.02c-.012-.007-.041-.033,0,0l.018.024a.2.2,0,0,0-.032-.042.192.192,0,0,0-.08-.046l.074.043-.006-.007.047.113c0-.038-.009.03,0,0a.144.144,0,0,0-.038-.144l0,0,.029.11a.225.225,0,0,0,.007-.044c0,.022,0,0,0-.008a.082.082,0,0,0-.1-.1" transform="translate(-20.31 -37.707)" fill="#9a9d9a"/>
      <path id="Trazado_702115" data-name="Trazado 702115" d="M602.467,1372.264a2.516,2.516,0,0,1-.055.353c-.254,1.095-1.212,1.381-2.309,1.375a3.247,3.247,0,0,1-1.889-.346,1.451,1.451,0,0,1-.329-1.252,3.494,3.494,0,0,1,.228-.994,4.82,4.82,0,0,1,.468-.853,2.437,2.437,0,0,1,.6-.638c1.021-.679,1.891-.13,2.6.716a5.12,5.12,0,0,1,.527.683,1.517,1.517,0,0,1,.158.956" transform="translate(-33.018 -36.296)" fill="#6a705e"/>
      <path id="Trazado_702116" data-name="Trazado 702116" d="M602.316,1371.309a2.577,2.577,0,0,1-1.215,1.436,3.04,3.04,0,0,1-2.416.188,1.553,1.553,0,0,1-.792-.539,3.519,3.519,0,0,1,.227-.994,4.87,4.87,0,0,1,.469-.853,2.43,2.43,0,0,1,.6-.638c1.021-.679,1.891-.13,2.6.717a5.069,5.069,0,0,1,.528.682" transform="translate(-33.025 -36.296)" fill="#81857a"/>
      <path id="Trazado_702117" data-name="Trazado 702117" d="M600.6,1370.528c-.124-.136-.331-.036-.423.089a.313.313,0,0,0,.051.385.372.372,0,0,0,.416.061.579.579,0,0,0,.273-.444.211.211,0,0,0-.145-.255.574.574,0,0,0-.5.09c-.109.086-.242.289-.189.43a.2.2,0,0,0,.239.136.278.278,0,0,0,.171-.152l.028-.049c.006-.011.013-.021.019-.031-.016.02-.017.021,0,0s.049-.038.007-.01c.021-.011.019-.012-.005,0a.228.228,0,0,1,.036-.01c.058-.016-.041,0,.028,0a.637.637,0,0,1,.107.005l-.2-.263a.807.807,0,0,1-.043.178c.015-.04-.014.019-.019.027.027-.041,0,0-.014.011.049-.044-.039.009.028-.017-.049.019.033,0,0,0s.053.013,0,0c-.016,0,.039.024-.005-.006.051.034.015.01,0,0-.036-.03.015.027,0,0s.012.045,0,0c0,.016,0,.046,0,.035s0,0-.01.012c.03-.037-.007.012.04-.036a.36.36,0,0,0,.108-.141.052.052,0,0,0-.013-.05" transform="translate(-33.88 -36.586)" fill="#9a9d9a"/>
      <path id="Trazado_702118" data-name="Trazado 702118" d="M599.559,1371.843l-.013.005c.022-.007-.012,0-.019,0h.044a.13.13,0,0,0-.133.035c-.009.01-.017.022-.025.033.013-.014.016-.018.009-.012a.142.142,0,0,0-.035.06.2.2,0,0,0,.116.215.145.145,0,0,0,.174-.022.429.429,0,0,0,.107-.164.151.151,0,0,0-.039-.15.141.141,0,0,0-.218.029.135.135,0,0,0,.08.2h0l-.06-.034h0c-.012-.019-.024-.04-.035-.06h0c0-.035.009-.07.014-.105.022-.025.028-.033.018-.024a.122.122,0,0,0-.027.036c0,.009-.011.017-.016.027l-.021.034c-.009.013-.007.01.007-.009l-.016.018.174-.022a.246.246,0,0,1-.028-.016c-.008-.005-.031-.026,0,0l.014.018a.188.188,0,0,0-.024-.032.152.152,0,0,0-.062-.035l.058.033-.005-.006c.012.029.024.058.036.087,0-.03-.007.023,0,0a.113.113,0,0,0-.029-.111l0,0c.007.028.015.056.023.084a.227.227,0,0,0,0-.034c0,.017,0,0,0-.006a.063.063,0,0,0-.077-.077" transform="translate(-33.608 -37.158)" fill="#9a9d9a"/>
      <path id="Trazado_702119" data-name="Trazado 702119" d="M574.081,1368.84a2.493,2.493,0,0,1-.055.353c-.254,1.095-1.213,1.381-2.309,1.375a3.245,3.245,0,0,1-1.889-.346,1.45,1.45,0,0,1-.329-1.252,3.493,3.493,0,0,1,.228-.994,4.831,4.831,0,0,1,.468-.853,2.44,2.44,0,0,1,.6-.638c1.021-.679,1.891-.13,2.6.717a5.11,5.11,0,0,1,.528.682,1.516,1.516,0,0,1,.158.955" transform="translate(-21.907 -34.956)" fill="#6a705e"/>
      <path id="Trazado_702120" data-name="Trazado 702120" d="M573.93,1367.885a2.576,2.576,0,0,1-1.215,1.435,3.038,3.038,0,0,1-2.416.189,1.548,1.548,0,0,1-.792-.539,3.513,3.513,0,0,1,.227-.994,4.851,4.851,0,0,1,.469-.852,2.423,2.423,0,0,1,.6-.638c1.021-.679,1.891-.13,2.6.717a5.1,5.1,0,0,1,.528.682" transform="translate(-21.915 -34.956)" fill="#81857a"/>
      <path id="Trazado_702121" data-name="Trazado 702121" d="M572.214,1367.1c-.124-.136-.332-.036-.423.089a.313.313,0,0,0,.05.385.372.372,0,0,0,.416.062.58.58,0,0,0,.273-.444.211.211,0,0,0-.145-.256.571.571,0,0,0-.5.09c-.109.086-.242.288-.189.43a.2.2,0,0,0,.239.136.277.277,0,0,0,.171-.151l.028-.049c.006-.01.013-.021.019-.03-.016.02-.017.021,0,0s.049-.038.007-.01c.021-.011.019-.012-.005,0a.226.226,0,0,1,.036-.01c.058-.016-.041,0,.028,0a.6.6,0,0,1,.107.005l-.2-.263a.809.809,0,0,1-.043.178c.015-.04-.013.019-.019.027.027-.041,0,0-.014.011.049-.044-.038.008.028-.017-.049.019.033,0,0,0s.052.013,0,0c-.016,0,.039.024-.005-.005.051.034.015.01,0,0-.036-.03.015.027,0,0s.012.045,0,0a.262.262,0,0,1,0,.035c0-.01,0,0-.009.012.03-.037-.007.012.04-.036a.362.362,0,0,0,.108-.141.053.053,0,0,0-.013-.05" transform="translate(-22.769 -35.246)" fill="#9a9d9a"/>
      <path id="Trazado_702122" data-name="Trazado 702122" d="M571.173,1368.419l-.013.005c.022-.007-.012,0-.019,0h.044a.131.131,0,0,0-.133.035c-.009.01-.017.022-.025.033.013-.014.016-.018.009-.013a.139.139,0,0,0-.034.06.2.2,0,0,0,.115.215.145.145,0,0,0,.174-.023.421.421,0,0,0,.107-.163.148.148,0,0,0-.039-.15.14.14,0,0,0-.218.029.135.135,0,0,0,.08.2h0l-.06-.035h0l-.035-.06h0c0-.035.009-.069.014-.105.022-.024.028-.032.018-.024a.135.135,0,0,0-.027.037c0,.009-.011.018-.016.027l-.021.034c-.009.013-.007.01.007-.008l-.016.018.174-.023a.221.221,0,0,1-.028-.016c-.008,0-.031-.026,0,0l.014.018a.178.178,0,0,0-.024-.033.153.153,0,0,0-.062-.035l.058.033-.005-.007.036.087c0-.029-.007.023,0,0a.114.114,0,0,0-.029-.111l0,0,.022.084a.139.139,0,0,0,.006-.034c0,.018,0,0,0-.006a.063.063,0,0,0-.077-.077" transform="translate(-22.498 -35.818)" fill="#9a9d9a"/>
      <path id="Trazado_702123" data-name="Trazado 702123" d="M613.188,1366.985a2.6,2.6,0,0,1-.054.353c-.254,1.095-1.213,1.381-2.31,1.375a3.247,3.247,0,0,1-1.889-.346,1.451,1.451,0,0,1-.329-1.252,3.537,3.537,0,0,1,.227-.994,4.875,4.875,0,0,1,.469-.853,2.442,2.442,0,0,1,.6-.638c1.021-.679,1.891-.13,2.6.717a5.114,5.114,0,0,1,.527.682,1.517,1.517,0,0,1,.158.955" transform="translate(-37.214 -34.23)" fill="#6a705e"/>
      <path id="Trazado_702124" data-name="Trazado 702124" d="M613.038,1366.03a2.577,2.577,0,0,1-1.215,1.436,3.042,3.042,0,0,1-2.416.189,1.558,1.558,0,0,1-.793-.539,3.534,3.534,0,0,1,.228-.994,4.906,4.906,0,0,1,.468-.853,2.442,2.442,0,0,1,.6-.638c1.021-.679,1.891-.13,2.6.716a5.166,5.166,0,0,1,.528.683" transform="translate(-37.221 -34.23)" fill="#81857a"/>
      <path id="Trazado_702125" data-name="Trazado 702125" d="M611.321,1365.249c-.124-.136-.331-.036-.423.089a.311.311,0,0,0,.051.385.37.37,0,0,0,.416.062.578.578,0,0,0,.273-.444.21.21,0,0,0-.145-.255.57.57,0,0,0-.495.09c-.11.086-.242.288-.189.43a.2.2,0,0,0,.239.136.282.282,0,0,0,.172-.151c.008-.017.018-.033.027-.049s.013-.021.019-.031c-.016.02-.017.021,0,0s.049-.037.007-.009q.031-.016-.005,0a.255.255,0,0,1,.036-.01c.058-.016-.04,0,.028,0a.65.65,0,0,1,.107.005l-.2-.263a.808.808,0,0,1-.043.178c.015-.04-.013.02-.018.027.027-.041,0,0-.015.011.049-.044-.038.009.029-.017-.049.019.032,0,0,0s.053.014,0,0c-.016,0,.039.024-.005-.006.052.034.015.01,0,0-.036-.03.015.027,0,0s.012.045,0,0c0,.016,0,.046,0,.035s0,0-.01.012c.03-.037-.007.012.04-.036a.346.346,0,0,0,.108-.141.052.052,0,0,0-.013-.05" transform="translate(-38.076 -34.52)" fill="#9a9d9a"/>
      <path id="Trazado_702126" data-name="Trazado 702126" d="M610.28,1366.564l-.013,0c.021-.007-.012,0-.02,0h.044a.131.131,0,0,0-.133.035.312.312,0,0,0-.025.033c.012-.014.016-.018.009-.012a.137.137,0,0,0-.034.06.2.2,0,0,0,.115.215.145.145,0,0,0,.174-.023.419.419,0,0,0,.106-.163.149.149,0,0,0-.038-.151.142.142,0,0,0-.219.029.136.136,0,0,0,.081.2h0l-.06-.035h0l-.035-.06h0c0-.036.009-.071.014-.106.022-.025.028-.033.018-.024a.113.113,0,0,0-.027.036c0,.009-.011.018-.016.027l-.021.034c-.009.013-.007.01.007-.009l-.016.018.174-.022-.028-.016c-.009-.005-.031-.026,0,0l.014.018a.174.174,0,0,0-.024-.032.155.155,0,0,0-.062-.035l.058.033-.005-.006c.012.029.024.058.036.087,0-.029-.007.023,0,0a.112.112,0,0,0-.029-.11l0,0,.022.085a.182.182,0,0,0,.005-.034c0,.017,0,0,0-.005a.063.063,0,0,0-.077-.077" transform="translate(-37.805 -35.091)" fill="#9a9d9a"/>
      <path id="Trazado_702127" data-name="Trazado 702127" d="M590.511,1372.727a2.028,2.028,0,0,1-.042.277c-.2.859-.952,1.084-1.812,1.078a2.545,2.545,0,0,1-1.482-.271,1.14,1.14,0,0,1-.258-.982,2.754,2.754,0,0,1,.178-.78,3.805,3.805,0,0,1,.367-.669,1.931,1.931,0,0,1,.471-.5c.8-.533,1.484-.1,2.039.562a4.037,4.037,0,0,1,.414.535,1.192,1.192,0,0,1,.124.75" transform="translate(-28.726 -36.701)" fill="#6a705e"/>
      <path id="Trazado_702128" data-name="Trazado 702128" d="M590.393,1371.977a2.018,2.018,0,0,1-.953,1.126,2.382,2.382,0,0,1-1.9.148,1.216,1.216,0,0,1-.622-.423,2.753,2.753,0,0,1,.178-.78,3.819,3.819,0,0,1,.368-.669,1.919,1.919,0,0,1,.471-.5c.8-.533,1.484-.1,2.039.562a4.034,4.034,0,0,1,.414.536" transform="translate(-28.731 -36.701)" fill="#81857a"/>
      <path id="Trazado_702129" data-name="Trazado 702129" d="M589.047,1371.364c-.1-.107-.26-.028-.332.07a.245.245,0,0,0,.04.3.292.292,0,0,0,.326.049.455.455,0,0,0,.215-.349.166.166,0,0,0-.114-.2.447.447,0,0,0-.388.071c-.086.067-.19.226-.149.337a.155.155,0,0,0,.188.106.219.219,0,0,0,.134-.119c.007-.014.015-.026.022-.039l.015-.024c-.013.016-.013.016,0,0s.038-.03.006-.007c.016-.009.015-.009,0,0l.028-.008c.046-.012-.032,0,.022,0a.553.553,0,0,1,.084,0l-.157-.206a.674.674,0,0,1-.033.139c.012-.031-.011.015-.015.021.021-.033,0,0-.011.009.038-.034-.03.007.022-.013-.038.014.026,0,0,0s.041.01,0,0c-.013,0,.03.019,0,0,.04.027.012.008,0,0-.028-.022.011.021,0,0s.01.035,0,0c0,.013,0,.036,0,.027s0,0-.008.009c.024-.029,0,.009.031-.028a.281.281,0,0,0,.085-.11.041.041,0,0,0-.01-.039" transform="translate(-29.402 -36.929)" fill="#9a9d9a"/>
      <path id="Trazado_702130" data-name="Trazado 702130" d="M588.23,1372.4l-.01,0c.017-.005-.008,0-.015,0h.035a.1.1,0,0,0-.1.027.177.177,0,0,0-.019.026c.01-.011.012-.015.007-.01a.1.1,0,0,0-.027.046.157.157,0,0,0,.091.169.112.112,0,0,0,.136-.018.325.325,0,0,0,.083-.128.118.118,0,0,0-.03-.119.112.112,0,0,0-.172.023.107.107,0,0,0,.063.155h0l-.047-.028h0l-.027-.047h0l.011-.083c.017-.019.022-.026.014-.018a.1.1,0,0,0-.021.028c0,.007-.009.014-.013.021s-.01.018-.016.027,0,.007.006-.007l-.013.014.137-.017-.023-.012c-.007,0-.024-.02,0,0l.01.014a.106.106,0,0,0-.018-.025.117.117,0,0,0-.049-.028l.045.026,0,0,.029.068c0-.022-.005.018,0,0a.089.089,0,0,0-.023-.087l0,0,.017.066a.135.135,0,0,0,0-.026c0,.014,0,0,0,0a.05.05,0,0,0-.06-.06" transform="translate(-29.189 -37.377)" fill="#9a9d9a"/>
      <path id="Trazado_702131" data-name="Trazado 702131" d="M612.854,1372.256a1.222,1.222,0,0,1-.026.167c-.121.52-.576.655-1.1.652a1.538,1.538,0,0,1-.9-.165.689.689,0,0,1-.156-.594,1.665,1.665,0,0,1,.108-.472,2.277,2.277,0,0,1,.222-.4,1.166,1.166,0,0,1,.285-.3c.484-.322.9-.061,1.234.34a2.54,2.54,0,0,1,.25.324.724.724,0,0,1,.075.453" transform="translate(-38.028 -36.84)" fill="#6a705e"/>
      <path id="Trazado_702132" data-name="Trazado 702132" d="M612.782,1371.8a1.221,1.221,0,0,1-.576.681,1.44,1.44,0,0,1-1.146.089.735.735,0,0,1-.376-.255,1.664,1.664,0,0,1,.108-.472,2.325,2.325,0,0,1,.222-.4,1.167,1.167,0,0,1,.285-.3c.484-.322.9-.061,1.234.34a2.45,2.45,0,0,1,.25.324" transform="translate(-38.032 -36.84)" fill="#81857a"/>
      <path id="Trazado_702133" data-name="Trazado 702133" d="M611.968,1371.433c-.058-.065-.157-.017-.2.042a.148.148,0,0,0,.024.182.176.176,0,0,0,.2.03.275.275,0,0,0,.13-.211.1.1,0,0,0-.069-.121.271.271,0,0,0-.234.042c-.052.041-.115.138-.09.2a.094.094,0,0,0,.114.064.132.132,0,0,0,.081-.072.264.264,0,0,1,.013-.023l.009-.015c-.008.01-.008.01,0,0s.023-.018,0-.005c.01,0,.009-.005,0,0l.017-.005c.028-.007-.019,0,.013,0a.267.267,0,0,1,.051,0l-.095-.125a.4.4,0,0,1-.019.085c.007-.019-.007.009-.009.013.013-.02,0,0-.007.005.023-.021-.019,0,.013-.008-.023.008.015,0,0,0s.025.006,0,0c-.008,0,.018.011,0,0,.024.016.007,0,0,0s.007.013,0,0,.005.021,0,0c0,.007,0,.021,0,.016s0,0,0,.006c.014-.018,0,.006.019-.017a.162.162,0,0,0,.051-.067.024.024,0,0,0-.006-.024" transform="translate(-38.437 -36.978)" fill="#9a9d9a"/>
      <path id="Trazado_702134" data-name="Trazado 702134" d="M611.474,1372.057l-.006,0c.01,0-.005,0-.009,0h.021a.063.063,0,0,0-.063.017l-.012.016c.006-.007.008-.008,0-.006a.063.063,0,0,0-.017.029.1.1,0,0,0,.055.1.069.069,0,0,0,.083-.01.211.211,0,0,0,.051-.077.072.072,0,0,0-.018-.072.067.067,0,0,0-.1.014.064.064,0,0,0,.038.094h0l-.029-.016h0c-.006-.009-.012-.019-.017-.029h0c0-.016,0-.033.006-.05s.013-.016.008-.012a.057.057,0,0,0-.013.017.122.122,0,0,1-.007.013l-.01.016,0,0-.007.009.083-.01-.014-.008,0,0,.007.008a.108.108,0,0,0-.012-.015.067.067,0,0,0-.029-.016l.027.016,0,0,.017.041c0-.014,0,.011,0,0a.052.052,0,0,0-.014-.052h0l.01.039a.046.046,0,0,0,0-.016c0,.008,0,0,0,0a.03.03,0,0,0-.037-.036" transform="translate(-38.308 -37.249)" fill="#9a9d9a"/>
      <path id="Trazado_702135" data-name="Trazado 702135" d="M574.089,1377.115c.012.758-1.5.792-2,.789a2.258,2.258,0,0,1-1.274-.225c-.358-.267-.23-1.085-.069-1.455a3.1,3.1,0,0,1,.316-.553,1.6,1.6,0,0,1,.405-.413c.689-.441,1.276-.085,1.753.464a7.906,7.906,0,0,1,.6.73,1.3,1.3,0,0,1,.267.661" transform="translate(-22.336 -38.432)" fill="#6a705e"/>
      <path id="Trazado_702136" data-name="Trazado 702136" d="M574.078,1376.452c-.092.515-.423.7-1.045.763a1.951,1.951,0,0,1-1.423-.191,1.246,1.246,0,0,1-.3-1.354,1.621,1.621,0,0,1,.405-.413c.689-.44,1.276-.084,1.754.464a7.972,7.972,0,0,1,.6.73" transform="translate(-22.592 -38.431)" fill="#81857a"/>
      <path id="Trazado_702137" data-name="Trazado 702137" d="M572.647,1375.6c-.045-.045-.139-.021-.189,0a.311.311,0,0,0-.155.2.1.1,0,0,0,.051.121.371.371,0,0,0,.338.038c.111-.051.156-.193.191-.3a.127.127,0,0,0-.092-.156.455.455,0,0,0-.341.051c-.086.059-.194.195-.15.3a.125.125,0,0,0,.179.07.228.228,0,0,0,.085-.111.152.152,0,0,1,.039-.048c-.016.014.019-.01.019-.01-.017.009.026-.007.025-.006a.343.343,0,0,1,.108,0l-.127-.16a1.042,1.042,0,0,1-.039.12c0-.012-.015.026-.013.022l-.014.021c.007-.01.007-.009,0,0,.019-.02-.016.007.01,0-.013,0-.013,0,0,0h-.024c.019,0-.024,0-.024,0a.361.361,0,0,1-.055-.018l.051.12a.252.252,0,0,1,.074-.134c.027-.028.1-.076.057-.122" transform="translate(-23.004 -38.601)" fill="#9a9d9a"/>
      <path id="Trazado_702138" data-name="Trazado 702138" d="M573.454,1376.284a.234.234,0,0,0-.043.043.086.086,0,0,0-.008.076.064.064,0,0,0,.122,0l0-.005v0l0,0,0-.018c0-.007,0,0,0,.011l0-.006c-.007.02-.006.014,0,.008l0,0a.161.161,0,0,1,.017-.019.061.061,0,0,0,0-.087.067.067,0,0,0-.091,0" transform="translate(-23.438 -38.904)" fill="#9a9d9a"/>
      <path id="Trazado_702139" data-name="Trazado 702139" d="M604.051,1377.543c.012.757-1.5.792-2,.789a2.26,2.26,0,0,1-1.274-.224c-.359-.267-.229-1.085-.069-1.455a3.088,3.088,0,0,1,.316-.552,1.6,1.6,0,0,1,.405-.413c.689-.441,1.276-.084,1.753.464a7.825,7.825,0,0,1,.6.73,1.3,1.3,0,0,1,.267.662" transform="translate(-34.063 -38.599)" fill="#6a705e"/>
      <path id="Trazado_702140" data-name="Trazado 702140" d="M604.039,1376.881c-.092.515-.424.7-1.045.762a1.952,1.952,0,0,1-1.423-.19,1.245,1.245,0,0,1-.3-1.354,1.62,1.62,0,0,1,.405-.413c.689-.44,1.276-.084,1.753.464a7.825,7.825,0,0,1,.6.73" transform="translate(-34.319 -38.599)" fill="#81857a"/>
      <path id="Trazado_702141" data-name="Trazado 702141" d="M602.608,1376.026c-.045-.045-.138-.021-.189,0a.313.313,0,0,0-.155.2.1.1,0,0,0,.051.12.369.369,0,0,0,.338.038c.111-.051.156-.193.191-.3a.127.127,0,0,0-.092-.156.456.456,0,0,0-.341.051c-.086.059-.194.194-.15.3a.125.125,0,0,0,.18.071.232.232,0,0,0,.085-.111.146.146,0,0,1,.038-.048c-.016.014.019-.01.019-.01-.018.009.026-.007.026-.007a.33.33,0,0,1,.107,0l-.127-.16a1.094,1.094,0,0,1-.039.12c0-.012-.015.026-.013.022l-.014.02c.007-.009.007-.009,0,0,.019-.019-.016.007.01,0-.013,0-.013,0,0,0h-.024c.018,0-.025,0-.025,0a.373.373,0,0,1-.054-.018c.016.04.034.08.05.12a.253.253,0,0,1,.074-.134c.027-.028.1-.076.057-.122" transform="translate(-34.731 -38.769)" fill="#9a9d9a"/>
      <path id="Trazado_702142" data-name="Trazado 702142" d="M603.415,1376.712a.238.238,0,0,0-.043.044.086.086,0,0,0-.008.076.065.065,0,0,0,.122,0l0-.006v0l0,0,0-.018c0-.006,0,0,0,.011l0-.006c-.007.019-.006.013,0,.008s.009-.011,0,0l.017-.019a.061.061,0,0,0,0-.087.068.068,0,0,0-.09,0" transform="translate(-35.165 -39.071)" fill="#9a9d9a"/>
      <path id="Trazado_702143" data-name="Trazado 702143" d="M561.332,1419.715q-.08-.427-.161-.855a3.424,3.424,0,0,1,1.524.3,2.195,2.195,0,0,1-1.473,1.046q-.111-.426-.221-.853m-30.182,3.2.042-.962a3.578,3.578,0,0,1,2.141.386,3.066,3.066,0,0,1-2.6.883m5.7-10.382a15.819,15.819,0,0,0,2.7-.4,1.631,1.631,0,0,1-.9.952,1.033,1.033,0,0,1-1.256-.36m15.9,1.008a3.128,3.128,0,0,1-.175-1.208l1.173.3a3.28,3.28,0,0,1-1.327.692m-24.509,1.582a8.187,8.187,0,0,1,.375-2.363,11.9,11.9,0,0,0,2.99.721,10.551,10.551,0,0,1-3.635,1.7m-3.25,12.942a5.125,5.125,0,0,0,1.749-2.462,6.308,6.308,0,0,1,2.754,2.57,18.4,18.4,0,0,1-4.012.29m26.585-10.738q1.677.966,3.385,1.895l-1.137-2.626c-.051-.118-.125-.253-.271-.278a.5.5,0,0,0-.307.085l-1.762.952m7.1,9.869a11.237,11.237,0,0,0-.063-3.628,2.052,2.052,0,0,0,1.13.907l3.517,1.67a18.269,18.269,0,0,0-4.486.815m-13.349-15.9a3.81,3.81,0,0,0-.371-2.3,14.988,14.988,0,0,1,3.739.929l-3.362.853m-6.868,7.851,4.726.471a26.829,26.829,0,0,0-2.566,1.736,4.557,4.557,0,0,0-1.943-1.8m21.884-7.249.622-1.448a9.378,9.378,0,0,1,2.338,1.243,6.185,6.185,0,0,1-3.394.815" transform="translate(-4.178 -51.783)" fill="none" stroke="#634e42" stroke-linecap="round" stroke-miterlimit="10" stroke-width="0.451"/>
      <path id="Trazado_702144" data-name="Trazado 702144" d="M548.37,1425.741c-.083-.066.083-.177.177-.122a.267.267,0,0,1,.094.265m-11.115,3.073c-.012-.124.281-.125.27,0m-3.355-18.83c.19.012.334.2.273.346a.294.294,0,0,1-.258-.35m28.727.745c.06-.166.12-.333.18-.5a.464.464,0,0,1,.081.724m-2.664,4.286c.117-.065.011-.255-.123-.223m-12.075,14.009c.215.32-.251.774-.66.643m-2.657-13.782c.047.259-.055.646-.36.592a.22.22,0,0,1-.052-.415.33.33,0,0,1,.448.252c0,.181-.236.325-.45.3m-11.878,3.6a.978.978,0,0,1-.708-.632m-4.869-8.871a.357.357,0,0,1,.448-.071l-.278.214m-7.62,14.052a3.11,3.11,0,0,0,.912-.319c.214.155-.07.512-.322.405m10.683,2.714.358.023c.044.285-.576.4-.672.118m32.1-3.208a.367.367,0,0,1,.422.21.553.553,0,0,1-.579-.082m-.428-8.626a.21.21,0,0,1,.141-.253l.431.159,0,.336a.6.6,0,0,1-.561-.369m-6.031,6.9.046-.382a.294.294,0,0,1-.028.505m-4.293,1.131a.679.679,0,0,1-.075-.643.278.278,0,0,1,.327.237.283.283,0,0,1-.344.217m.138,2.12a1.123,1.123,0,0,1,.386-.717c.246-.17.711-.123.78.139l-.725.236m-23.273-7.785a.242.242,0,0,1-.038-.366l.43.025a.24.24,0,0,1-.116.358m-7.04.371a2.319,2.319,0,0,1,.269-1.156.43.43,0,0,1,.091.62m.965-5.5c-.148.01-.148-.237,0-.227m1.623,8.733a.388.388,0,0,1,.435-.1,1.6,1.6,0,0,1-.607.585.238.238,0,0,1-.11-.35m11.126,3.557a.478.478,0,0,1,.075-.48l.176.591-.559.023m2.145,1.823a.783.783,0,0,1,.92-.316l-.425.214m7.535-4.756a.631.631,0,0,1,.094-.568.457.457,0,0,1,.6-.061c.151.15-.077.44-.279.341m9.476-5.19a.256.256,0,0,1-.115-.363.2.2,0,0,1-.047.349m-1.9-5.023a.453.453,0,0,1,.413-.46.242.242,0,0,1,.158.3.522.522,0,0,1-.418.044m-15.36-.137a.292.292,0,0,1,.068-.339c.278.246-.153.727-.511.57m-6.9.755c-.044-.085-.083-.2,0-.263s.237.077.131.105m10.278,4.59a.771.771,0,0,1,.274-.7,1.234,1.234,0,0,1,.3.7m-9.072.37h.147m10.874,10.471a7.229,7.229,0,0,1,.637-1.725,3.436,3.436,0,0,0,1.032,1.255l-1.574.266" transform="translate(-2.517 -52.156)" fill="none" stroke="#634e42" stroke-linecap="round" stroke-miterlimit="10" stroke-width="0.225"/>
      <path id="Trazado_702145" data-name="Trazado 702145" d="M633.337,1419.715q-.08-.427-.161-.855a3.424,3.424,0,0,1,1.524.3,2.195,2.195,0,0,1-1.473,1.046q-.111-.426-.222-.853m-30.182,3.2.042-.962a3.578,3.578,0,0,1,2.141.386,3.066,3.066,0,0,1-2.6.883m5.7-10.382a15.82,15.82,0,0,0,2.7-.4,1.631,1.631,0,0,1-.9.952,1.033,1.033,0,0,1-1.256-.36m15.9,1.008a3.126,3.126,0,0,1-.175-1.208l1.173.3a3.28,3.28,0,0,1-1.327.692m-24.509,1.582a8.183,8.183,0,0,1,.375-2.363,11.9,11.9,0,0,0,2.99.721,10.551,10.551,0,0,1-3.635,1.7m-3.25,12.942a5.117,5.117,0,0,0,1.748-2.462,6.307,6.307,0,0,1,2.754,2.57,18.4,18.4,0,0,1-4.012.29m26.585-10.738q1.677.966,3.384,1.895l-1.136-2.626c-.051-.118-.125-.253-.272-.278a.5.5,0,0,0-.307.085l-1.762.952m7.1,9.869a11.24,11.24,0,0,0-.063-3.628,2.052,2.052,0,0,0,1.13.907l3.517,1.67a18.27,18.27,0,0,0-4.486.815m-13.349-15.9a3.81,3.81,0,0,0-.371-2.3,14.987,14.987,0,0,1,3.739.929l-3.362.853m-6.867,7.851,4.726.471a26.852,26.852,0,0,0-2.566,1.736,4.557,4.557,0,0,0-1.943-1.8m21.884-7.249.622-1.448a9.391,9.391,0,0,1,2.339,1.243,6.188,6.188,0,0,1-3.394.815" transform="translate(-32.361 -51.783)" fill="none" stroke="#634e42" stroke-linecap="round" stroke-miterlimit="10" stroke-width="0.451"/>
      <path id="Trazado_702146" data-name="Trazado 702146" d="M620.375,1425.741c-.083-.066.083-.177.177-.122a.267.267,0,0,1,.094.265m-11.115,3.073c-.012-.124.281-.125.27,0m-3.355-18.83c.19.012.334.2.273.346a.294.294,0,0,1-.257-.35m28.727.745c.06-.166.12-.333.18-.5a.464.464,0,0,1,.081.724m-2.664,4.286c.117-.065.011-.255-.124-.223m-12.075,14.009c.215.32-.251.774-.66.643m-2.657-13.782c.047.259-.055.646-.36.592a.22.22,0,0,1-.052-.415.329.329,0,0,1,.448.252c0,.181-.235.325-.45.3m-11.878,3.6a.977.977,0,0,1-.708-.632m-4.869-8.871a.357.357,0,0,1,.448-.071l-.277.214m-7.62,14.052a3.11,3.11,0,0,0,.912-.319c.214.155-.07.512-.322.405m10.683,2.714.358.023c.044.285-.576.4-.672.118m32.1-3.208a.366.366,0,0,1,.422.21.552.552,0,0,1-.578-.082m-.428-8.626a.21.21,0,0,1,.141-.253l.431.159,0,.336a.6.6,0,0,1-.561-.369m-6.031,6.9.046-.382a.294.294,0,0,1-.028.505m-4.293,1.131a.677.677,0,0,1-.074-.643.277.277,0,0,1,.326.237.283.283,0,0,1-.344.217m.138,2.12a1.123,1.123,0,0,1,.386-.717c.246-.17.711-.123.78.139l-.725.236m-23.273-7.785a.242.242,0,0,1-.038-.366l.43.025a.24.24,0,0,1-.115.358m-7.04.371a2.318,2.318,0,0,1,.268-1.156.43.43,0,0,1,.091.62m.965-5.5c-.148.01-.148-.237,0-.227m1.624,8.733a.387.387,0,0,1,.434-.1,1.6,1.6,0,0,1-.607.585.238.238,0,0,1-.11-.35m11.126,3.557a.477.477,0,0,1,.075-.48q.089.3.176.591l-.559.023m2.145,1.823a.783.783,0,0,1,.92-.316l-.425.214m7.535-4.756a.631.631,0,0,1,.094-.568.458.458,0,0,1,.6-.061c.15.15-.078.44-.28.341m9.476-5.19a.256.256,0,0,1-.115-.363.2.2,0,0,1-.047.349m-1.9-5.023a.453.453,0,0,1,.413-.46.242.242,0,0,1,.158.3.522.522,0,0,1-.418.044m-15.36-.137a.292.292,0,0,1,.068-.339c.278.246-.153.727-.511.57m-6.9.755c-.044-.085-.083-.2,0-.263s.237.077.131.105m10.278,4.59a.771.771,0,0,1,.274-.7,1.234,1.234,0,0,1,.3.7m-9.072.37h.147m10.874,10.471a7.227,7.227,0,0,1,.637-1.725,3.436,3.436,0,0,0,1.032,1.255l-1.574.266" transform="translate(-30.7 -52.156)" fill="none" stroke="#634e42" stroke-linecap="round" stroke-miterlimit="10" stroke-width="0.225"/>
      <line id="Línea_202" data-name="Línea 202" x2="72.718" y2="0.056" transform="translate(544.678 1285.274)" fill="none" stroke="#b17f49" stroke-linecap="round" stroke-miterlimit="10" stroke-width="5.897"/>
      <line id="Línea_203" data-name="Línea 203" x2="72.755" y2="0.093" transform="translate(544.199 1286.426)" fill="none" stroke="#9a6a3d" stroke-linecap="round" stroke-miterlimit="10" stroke-width="2.949"/>
      <line id="Línea_204" data-name="Línea 204" x1="0.056" y2="80.335" transform="translate(609.858 1277.35)" fill="none" stroke="#b17f49" stroke-linecap="round" stroke-miterlimit="10" stroke-width="5.897"/>
      <line id="Línea_205" data-name="Línea 205" x1="0.093" y2="80.372" transform="translate(608.669 1276.872)" fill="none" stroke="#9a6a3d" stroke-linecap="round" stroke-miterlimit="10" stroke-width="2.949"/>
      <line id="Línea_206" data-name="Línea 206" x2="97.939" transform="translate(513.517 1356.195)" fill="none" stroke="#634e42" stroke-miterlimit="10" stroke-width="0.983"/>
      <line id="Línea_207" data-name="Línea 207" x2="67.511" transform="translate(528.413 1340.063)" fill="none" stroke="#1d1d1b" stroke-linecap="round" stroke-miterlimit="10" stroke-width="3.931"/>
      <line id="Línea_208" data-name="Línea 208" x2="23.661" y2="21.057" transform="translate(591.468 1279.738)" fill="none" stroke="#b17f49" stroke-linecap="round" stroke-miterlimit="10" stroke-width="5.897"/>
      <line id="Línea_209" data-name="Línea 209" x2="23.698" y2="21.094" transform="translate(590.33 1280.292)" fill="none" stroke="#9a6a3d" stroke-linecap="round" stroke-miterlimit="10" stroke-width="2.949"/>
      <path id="Trazado_702147" data-name="Trazado 702147" d="M598.131,1325.621H578.2a.892.892,0,0,1-.892-.892v-14.568a.892.892,0,0,1,.892-.892h19.928a.892.892,0,0,1,.892.892v14.568a.892.892,0,0,1-.892.892" transform="translate(-24.969 -12.681)" fill="#a7a9ab"/>
      <rect id="Rectángulo_337970" data-name="Rectángulo 337970" width="21.712" height="16.351" rx="1.465" transform="translate(552.342 1296.589)" fill="none" stroke="#1d1d1b" stroke-miterlimit="10" stroke-width="0.66"/>
      <rect id="Rectángulo_337971" data-name="Rectángulo 337971" width="1.957" height="15.984" transform="translate(554.017 1296.778)" fill="#fff"/>
      <rect id="Rectángulo_337972" data-name="Rectángulo 337972" width="0.735" height="15.984" transform="translate(556.375 1296.778)" fill="#fff"/>
      <line id="Línea_210" data-name="Línea 210" x2="5.923" y2="0.015" transform="translate(560.237 1300.703)" fill="none" stroke="#1d1d1b" stroke-linecap="round" stroke-miterlimit="10" stroke-width="2.638"/>
      <line id="Línea_211" data-name="Línea 211" y1="15.802" transform="translate(563.192 1282.589)" fill="none" stroke="#1d1d1b" stroke-linecap="round" stroke-miterlimit="10" stroke-width="2.949"/>
      <path id="Trazado_702148" data-name="Trazado 702148" d="M658.4,1291.6l3.705-3.606m-3.705-.293,4.193,3.9m-4.485,9.65,4.192-2.073m-4-3.093,4.095,8.869M642.7,1287.506l11.159,4.191m-5.017-4.191-1.365,4.386" transform="translate(-50.563 -4.162)" fill="none" stroke="#634e42" stroke-linecap="round" stroke-miterlimit="10" stroke-width="2.638"/>
    </g>
  </g>
</svg>
