<svg xmlns="http://www.w3.org/2000/svg" width="173.78" height="150.448" viewBox="0 0 173.78 150.448">
  <g id="Grupo_962446" data-name="Grupo 962446" transform="translate(-180 -935.276)">
    <path id="Trazado_700382" data-name="Trazado 700382" d="M353.01-203.592c0,38.3-19.234,69.34-61.566,69.34S179.23-161.586,179.23-199.882s74.065-84.818,116.4-84.818S353.01-241.887,353.01-203.592Z" transform="translate(0.77 1219.976)" fill="#ffe6a1"/>
    <g id="lima" transform="translate(207.885 948.162)">
      <path id="Trazado_700383" data-name="Trazado 700383" d="M194.828,218.5l23.384-23.384,6.149,6.149-23.385,23.384Zm0,0" transform="translate(-140.066 -139.015)" fill="#d36c4f"/>
      <path id="Trazado_700384" data-name="Trazado 700384" d="M202.977,226.642l23.384-23.385L229.8,206.7l-23.384,23.385Zm0,0" transform="translate(-145.661 -144.585)" fill="#c1573e"/>
      <path id="Trazado_700385" data-name="Trazado 700385" d="M252.984,240.486l-10.938-10.938L229.274,242.32l10.938,10.938c2.28,2.28,7.267,8.727,7.746,11.684A14.954,14.954,0,0,0,252.3,273l9.939,9.939a14.769,14.769,0,0,0,20.072,1.008,14.443,14.443,0,0,0,.7-21.083l-10.289-10.289a14.947,14.947,0,0,0-8.059-4.347c-2.958-.476-9.407-5.462-11.685-7.743Zm0,0" transform="translate(-169.236 -167.337)" fill="#f9ad6a"/>
      <path id="Trazado_700386" data-name="Trazado 700386" d="M229.262,242.325l12.774-12.774,3.791,3.791-12.774,12.774Zm0,0" transform="translate(-163.52 -162.406)" fill="#ea8c46"/>
      <path id="Trazado_700387" data-name="Trazado 700387" d="M290.055,309.88a16.674,16.674,0,0,0,2.812,3.7l9.939,9.939a14.769,14.769,0,0,0,20.072,1.008,14.443,14.443,0,0,0,.7-21.083l-10.29-10.289a16.655,16.655,0,0,0-3.7-2.812Zm0,0" transform="translate(-209.801 -207.912)" fill="#d36c4f"/>
      <path id="Trazado_700388" data-name="Trazado 700388" d="M340.3,320.855l-4.421-4.421a14.445,14.445,0,0,1-.7,21.083A14.767,14.767,0,0,1,315.1,336.51l4.42,4.42a14.769,14.769,0,0,0,20.072,1.008,14.444,14.444,0,0,0,.7-21.083Zm0,0" transform="translate(-226.517 -225.325)" fill="#c1573e"/>
      <path id="Trazado_700389" data-name="Trazado 700389" d="M314.477,318.051l3.292-3.294,16.107,16.107-3.292,3.294Zm0,0" transform="translate(-226.1 -224.206)" fill="#c1573e"/>
      <path id="Trazado_700390" data-name="Trazado 700390" d="M48.441,69.154,0,20.713,20.424.289,68.865,48.722a10.608,10.608,0,0,1,0,15l-5.424,5.424a10.607,10.607,0,0,1-15,.007Zm0,0" transform="translate(0 -0.289)" fill="#274d59"/>
      <g id="Grupo_962445" data-name="Grupo 962445" transform="translate(0 8.026)">
        <path id="Trazado_700391" data-name="Trazado 700391" d="M192.74,187.609l-5.424,5.424a10.677,10.677,0,0,1-1.706,1.388l10.5,10.5,8.515-8.514-10.5-10.5a10.571,10.571,0,0,1-1.385,1.7Zm0,0" transform="translate(-123.875 -132.194)" fill="#1b3c44"/>
        <path id="Trazado_700392" data-name="Trazado 700392" d="M1.648,56.535l.382-.382H42.115L37.459,51.5H3.391L0,54.888Zm0,0" transform="translate(0 -42.49)" fill="#1b3c44"/>
        <path id="Trazado_700393" data-name="Trazado 700393" d="M48.642,29.074l-4.656-4.656H27.934l-4.656,4.656Zm0,0" transform="translate(-15.535 -24.418)" fill="#1b3c44"/>
        <path id="Trazado_700394" data-name="Trazado 700394" d="M125.195,186.887l4.656,4.656h19.291l3.279-3.279a10.586,10.586,0,0,0,1.149-1.377Zm0,0" transform="translate(-83.555 -132.849)" fill="#1b3c44"/>
        <path id="Trazado_700395" data-name="Trazado 700395" d="M46.289,105.656H43.961l4.656,4.656H89.467l-4.656-4.656Zm0,0" transform="translate(-29.339 -78.636)" fill="#1b3c44"/>
        <path id="Trazado_700396" data-name="Trazado 700396" d="M100.445,159.813H98.117l4.656,4.656H137.3a10.64,10.64,0,0,0-.246-4.656Zm0,0" transform="translate(-65.483 -114.78)" fill="#1b3c44"/>
        <path id="Trazado_700397" data-name="Trazado 700397" d="M114.226,137.386h2.306c-.083-.087-.156-.182-.243-.266l-4.39-4.39H71.055l4.656,4.656Zm0,0" transform="translate(-47.422 -96.705)" fill="#1b3c44"/>
        <path id="Trazado_700398" data-name="Trazado 700398" d="M60.056,83.231h2.328l-4.656-4.656H16.879l4.656,4.656Zm0,0" transform="translate(-11.265 -60.562)" fill="#1b3c44"/>
      </g>
    </g>
  </g>
</svg>
