<svg xmlns="http://www.w3.org/2000/svg" xmlns:xlink="http://www.w3.org/1999/xlink" width="182" height="182" viewBox="0 0 182 182">
  <defs>
    <clipPath id="clip-path">
      <path id="Trazado_701717" data-name="Trazado 701717" d="M376.879,1181.785c.048,5.623,11.852,12.12,29.218,12.952,17.235.825,29.062-4.462,29.375-9.984.317-5.591-11.134-12.287-28.814-13.236q-2.036-.109-3.967-.107c-15.622,0-25.863,5.121-25.813,10.375" transform="translate(-376.879 -1171.41)" fill="none"/>
    </clipPath>
  </defs>
  <g id="Grupo_963333" data-name="Grupo 963333" transform="translate(-360 -5275.615)">
    <g id="Elipse_5357" data-name="Elipse 5357" transform="translate(360 5275.615)" fill="#fff" stroke="#eb6f2d" stroke-width="7">
      <circle cx="91" cy="91" r="91" stroke="none"/>
      <circle cx="91" cy="91" r="87.5" fill="none"/>
    </g>
    <g id="Grupo_963327" data-name="Grupo 963327" transform="translate(49.981 4146.655)">
      <path id="Trazado_701690" data-name="Trazado 701690" d="M381.3,1263.131c-5.7,3.173-13.49-.069-18.789-2.687-6.745-3.337-7.2-9.441-1.806-14.784a24.862,24.862,0,0,1,7.765-5.276,7.169,7.169,0,0,1,1.278-.337c5.359-.84,7.65,3.983,10.676,7.305.2.223.408.452.609.681a22.229,22.229,0,0,1,4.017,6.015c1.306,3.264.838,6.53-3.749,9.082" transform="translate(0 -9.148)" fill="#6a705e"/>
      <path id="Trazado_701691" data-name="Trazado 701691" d="M386,1254.048a4.729,4.729,0,0,1-.358,1.849c-1.141,2.806-2.464,2.106-5.276,1.957-5.256-.275-11.573,1.017-14.868-4.331-2.627-4.268-.147-10.453,3.922-13.14a7.231,7.231,0,0,1,1.279-.337c5.358-.84,7.65,3.984,10.675,7.305.2.224.409.452.61.681a22.25,22.25,0,0,1,4.016,6.015" transform="translate(-0.948 -9.148)" fill="#81857a"/>
      <path id="Trazado_701692" data-name="Trazado 701692" d="M373.387,1244.041a.493.493,0,0,1-.1-.023c.07.055.14.109.211.163q-.016.391.017.254a.29.29,0,0,0,.028-.185,1.122,1.122,0,0,0-.054-.268.945.945,0,0,0-.9-.675c-.848.064-1.326.845-1.7,1.52a.971.971,0,0,0,.828,1.444c.11.009.1,0-.035-.012.077.011.153.029.228.046.154.035.306.08.459.121a2.823,2.823,0,0,0,1.241.114,2.15,2.15,0,0,0,1.436-2.483,1.586,1.586,0,0,0-1.461-1.367,2.184,2.184,0,0,0-1.536.671,3.907,3.907,0,0,0-1.446,2.435,1.371,1.371,0,0,0,1.786,1.315,3.406,3.406,0,0,0,1.837-1.444,1.191,1.191,0,0,0-.184-1.429,1.217,1.217,0,0,0-1.43-.184l-.194.082a1.412,1.412,0,0,0-.342.246c-.089.079-.179.156-.269.232-.27.226.126-.091-.024.02-.058.042-.119.08-.18.118-.1.062-.318.132.125-.041-.2.079.35-.021.211-.021a1.159,1.159,0,0,1,1.142,1.127c-.022-.2-.078.4-.025.181.081-.328-.146.285,0-.008a3.347,3.347,0,0,1,.18-.318c.071-.115.149-.225.23-.333-.276.371.056-.056.142-.148a2.988,2.988,0,0,1,.278-.256c-.428.347.367-.112-.19.105.112-.043.29-.028-.163.01a1.329,1.329,0,0,1-.435-.127,1.173,1.173,0,0,1-.293-.3c.135.2-.1-.316-.027-.051.02.089.014.066-.021-.069.006.082.01.165.01.248-.01.143-.005.145.014,0a1.01,1.01,0,0,1-.042.159q.309-.439.126-.249a.522.522,0,0,1,.254-.155c-.109.025-.078.025.091,0a1.469,1.469,0,0,1-.2.007c-.061,0-.372-.052-.1,0-.1-.018-.207-.041-.31-.061a4.334,4.334,0,0,0-.867-.1q.415.722.828,1.444c.143-.308.289-.616.447-.916.024-.043.05-.086.078-.128-.075.091-.084.105-.026.044-.033.034-.346.168-.176.117a2.974,2.974,0,0,0,.343-.112.452.452,0,0,0,.16-.123c.031-.037.059-.076.088-.114-.046.065-.311.158-.17.144.354-.035.494-.592.091-.666" transform="translate(-1.741 -9.498)" fill="#9a9d9a"/>
      <path id="Trazado_701693" data-name="Trazado 701693" d="M376.744,1247.748l0,.034c.009-.069.018-.139.028-.208-.02.143-.049.282-.065.426l.029-.213a.506.506,0,0,1-.02.073l.079-.188c-.023.052-.058.1-.083.147a2.062,2.062,0,0,0-.129.385.655.655,0,0,0,.8.8,1.53,1.53,0,0,0,.405-.148,1.3,1.3,0,0,0,.376-.384.983.983,0,0,0,.134-.723.845.845,0,0,0-.227-.548.773.773,0,0,0-1.094,0,.849.849,0,0,0-.227.548" transform="translate(-2.504 -10.048)" fill="#9a9d9a"/>
      <path id="Trazado_701694" data-name="Trazado 701694" d="M451.513,1252.535a15.5,15.5,0,0,1-.335,2.17c-1.563,6.728-7.455,8.491-14.195,8.448-3.6-.024-8.589.215-11.61-2.127-1.866-1.448-2.283-4.6-2.022-7.695a21.618,21.618,0,0,1,1.4-6.107,29.716,29.716,0,0,1,2.878-5.24,15.042,15.042,0,0,1,3.694-3.922c6.275-4.174,11.623-.8,15.978,4.4a31.538,31.538,0,0,1,3.242,4.2,9.328,9.328,0,0,1,.972,5.873" transform="translate(-8.492 -8.665)" fill="#6a705e"/>
      <path id="Trazado_701695" data-name="Trazado 701695" d="M450.553,1246.661a15.825,15.825,0,0,1-7.466,8.823,18.69,18.69,0,0,1-14.85,1.162,9.544,9.544,0,0,1-4.873-3.317,21.624,21.624,0,0,1,1.4-6.107,29.689,29.689,0,0,1,2.878-5.24,15.04,15.04,0,0,1,3.693-3.922c6.276-4.174,11.624-.8,15.978,4.4a31.545,31.545,0,0,1,3.242,4.2" transform="translate(-8.502 -8.665)" fill="#81857a"/>
      <path id="Trazado_701696" data-name="Trazado 701696" d="M435.951,1240.486c-.76-.835-2.037-.219-2.6.548a1.911,1.911,0,0,0,.312,2.364,2.279,2.279,0,0,0,2.555.382,3.567,3.567,0,0,0,1.681-2.731,1.293,1.293,0,0,0-.891-1.568,3.5,3.5,0,0,0-3.042.551c-.671.527-1.487,1.776-1.162,2.643a1.216,1.216,0,0,0,1.471.835,1.727,1.727,0,0,0,1.052-.932c.053-.1.111-.2.17-.306.038-.063.078-.125.12-.185-.1.124-.1.131-.01.02.048-.054.3-.235.044-.058.129-.07.119-.072-.031-.01a1.766,1.766,0,0,1,.219-.066c.361-.095-.249.005.173-.022a3.853,3.853,0,0,1,.656.033l-1.229-1.615a5.054,5.054,0,0,1-.259,1.093c.091-.243-.085.12-.115.167.165-.256-.022.007-.089.067.3-.268-.237.053.173-.1-.3.113.2,0,.01.01s.324.081.019,0c-.1-.026.238.146-.035-.034.316.209.093.061.017,0-.218-.18.092.165,0,.017s.075.276.01.006c.024.1,0,.28.013.212s-.021.026-.059.074c.183-.228-.039.072.244-.222a2.193,2.193,0,0,0,.665-.863.321.321,0,0,0-.082-.309" transform="translate(-9.703 -9.073)" fill="#9a9d9a"/>
      <path id="Trazado_701697" data-name="Trazado 701697" d="M430.84,1245.861l-.079.024c.134-.042-.068.012-.118.022h.271a.8.8,0,0,0-.813.216,1.665,1.665,0,0,0-.155.2c.078-.089.1-.114.055-.075a.821.821,0,0,0-.214.365,1.224,1.224,0,0,0,.709,1.321.9.9,0,0,0,1.072-.139,2.642,2.642,0,0,0,.652-1,.923.923,0,0,0-.236-.929.873.873,0,0,0-1.343.179.834.834,0,0,0,.494,1.215l.011,0-.369-.215.006,0-.217-.371,0,.008c.028-.218.057-.435.085-.653.134-.153.172-.2.11-.145a.686.686,0,0,0-.166.22c-.028.058-.066.112-.1.167-.042.072-.085.141-.131.21s-.038.058.046-.055c-.03.039-.064.077-.1.113l1.072-.138a1.719,1.719,0,0,1-.173-.1c-.054-.034-.19-.156.02.023l.083.112a.839.839,0,0,0-.146-.2.912.912,0,0,0-.379-.219l.352.206-.031-.036.221.534c-.018-.18-.041.141-.012.017a.693.693,0,0,0-.18-.682l-.018-.015.136.517a.946.946,0,0,0,.032-.209c0,.1.01,0,.019-.032a.386.386,0,0,0-.472-.472" transform="translate(-9.321 -9.876)" fill="#9a9d9a"/>
      <path id="Trazado_701698" data-name="Trazado 701698" d="M381.518,1274.564c-2.78-2.017-2.286-3.857-.634-4.95,2.209-1.464,6.489-1.6,7.786.95a4.423,4.423,0,0,1,.389,1.047c.806,3.632-4.916,4.861-7.542,2.953" transform="translate(-2.886 -12.815)" fill="#6a705e"/>
      <path id="Trazado_701699" data-name="Trazado 701699" d="M389.231,1271.611c-.43,2.182-4.247,1.681-5.881.989-1.255-.529-2.8-.928-2.417-2.589a2.582,2.582,0,0,1,.122-.4c2.209-1.465,6.489-1.6,7.786.95a4.422,4.422,0,0,1,.389,1.047" transform="translate(-3.057 -12.815)" fill="#81857a"/>
      <path id="Trazado_701700" data-name="Trazado 701700" d="M386,1270.369a.94.94,0,0,0,.45.592,2.148,2.148,0,0,0,.325.123.974.974,0,0,0,.488,0c.088-.037.176-.072.262-.112a.806.806,0,0,0,.4-.706.818.818,0,0,0-.4-.705,1.132,1.132,0,0,0-.592-.149c-.031,0-.063,0-.094,0a.967.967,0,0,0-.452.13l.187-.079a.429.429,0,0,1-.073.023.719.719,0,0,0-.5.883" transform="translate(-3.71 -12.923)" fill="#9a9d9a"/>
      <path id="Trazado_701701" data-name="Trazado 701701" d="M411.019,1265.235c-4.595.29-9.073.593-13.433-1.045-1.948-.731-4.15-.884-6.027-1.7-2.575-1.119-5.242-2.515-5.266-5.33-.018-2.227.8-4.2.411-6.477a11.6,11.6,0,0,0-.881-2.93c-.243-.531-.74-1.113-.711-1.675,1.042.7,2.065,1.565,3.112,2.3,1.025.718,1.8,3.011,3.092,3.183-.985-1.43-.914-3.964-.75-5.575.246-2.418,1.736-3.729,3.84-5.081,2.05-1.318,3.705-2.649,4.392-4.866.343-1.108.136-4.182,1.721-4.6.7,1.7-.705,5.121,1.012,6.371-.129-3.2,3.544-6.147,5.65-8.4,1.479-1.587,1.1-3.133,1.86-4.891.732.568.9,2.189,1.6,3.01a33.441,33.441,0,0,1,3.755,4.7,10.951,10.951,0,0,1,1.59,6.748c-.115.91-1.142,3.551-.4,4.263.66-.535.705-2.552,1.01-3.38.363-.987,1.628-2.718,1.2-3.7.5.783.275,1.935.336,2.811a20.051,20.051,0,0,0,.606,3.192,5.439,5.439,0,0,1-.926,4.081c-.46.811-1.772,1.926-1.807,2.827,1.515.19,3.138-.976,4.156-1.835,1.189-1,1.433-2.892,2.573-3.734.677,1.526.424,3.724.424,5.38,0,3.487,2.877,6.223.956,9.669-2.208,3.959-8.338,6.382-13.094,6.683" transform="translate(-3.6 -7.17)" fill="#f5a12f"/>
      <path id="Trazado_701702" data-name="Trazado 701702" d="M397.7,1263.024c-2.99.287-6.666-2.615-7.829-4.718a7.531,7.531,0,0,1-1.2-3.446c-.046-.915.45-1.65-.221-2.412,1.122,1.9,4.054,3.876,6.113,4.86.066.074.06.078-.017.014-.937-2.822-3.083-6.83-1.519-9.742,1.715-3.191,6.022-4.168,8.129-6.889,1.245.7,1.035,2.19,1.578,3.282,1.228-4.64,4.232-8.58,7.221-12.475.868,2.291,1.542,4.838,2.208,7.223a16.712,16.712,0,0,1,.8,5.531c-.1,1.118-.939,2.021-.772,3.128,1.644.174,3.129-1.813,4.194-2.751-.2,1.333-1.469,2.523-1.966,3.847-.45,1.2-.2,2.727-1.235,3.687a8.623,8.623,0,0,0,6.163-1.9c-.244,1.683,1.326,3.513,1.245,5.444-.133,3.139-.071,4.556-3.489,6.069-3.125,1.385-6.683,1.652-10.123,1.787-2.312.091-7.725.668-9.676-.542Z" transform="translate(-4.027 -8.065)" fill="#ef802a"/>
      <path id="Trazado_701703" data-name="Trazado 701703" d="M420.21,1257.519c-1.109.7-1.424,2.788-2.592,3.734a20.367,20.367,0,0,1-5.14,2.7c-3.05,1.2-7.757,1.374-10.6-.49-1.9-1.247-1.81-3.64-2.276-5.259-.759-2.642.525-5.324,3.746-7.215-.783,1.67.191,2.8,1.541,4.312-1-1.573,2.324-3.731,3.446-5.084a19.053,19.053,0,0,0,2.265-2.662c.451-.849.185-1.829,1.295-2.422-1.37,4.288,5.937,8.582,1.82,12.481a22.428,22.428,0,0,0,3.412-5.381c1.418,1.576,2.062,5.161-.166,6.654,1.166-.327,2.149-.952,3.265-1.357.087-.073.08-.078-.021-.014" transform="translate(-5.43 -9.812)" fill="#de5525"/>
      <path id="Trazado_701704" data-name="Trazado 701704" d="M425.558,1275.017c.113,7.181-13.7,7.507-18.254,7.479-3.6-.024-8.589.214-11.61-2.127-3.266-2.534-2.092-10.29-.624-13.8a29.734,29.734,0,0,1,2.877-5.24,15.039,15.039,0,0,1,3.694-3.922c6.276-4.175,11.624-.8,15.978,4.4a74.6,74.6,0,0,1,5.5,6.927,12.629,12.629,0,0,1,2.436,6.282" transform="translate(-4.688 -11.144)" fill="#6a705e"/>
      <path id="Trazado_701705" data-name="Trazado 701705" d="M423.655,1268.736c-.836,4.884-3.856,6.685-9.521,7.233-4.168.4-9.512,1.176-12.964-1.808s-4.133-8.317-2.689-12.834a15.027,15.027,0,0,1,3.693-3.922c6.276-4.175,11.623-.8,15.978,4.4a74.875,74.875,0,0,1,5.5,6.927" transform="translate(-5.222 -11.144)" fill="#81857a"/>
      <path id="Trazado_701706" data-name="Trazado 701706" d="M407.719,1259.384c-.408-.426-1.262-.2-1.724.02a2.929,2.929,0,0,0-1.411,1.875,1,1,0,0,0,.463,1.138,3.244,3.244,0,0,0,3.077.358c1.01-.476,1.425-1.828,1.734-2.8a1.2,1.2,0,0,0-.839-1.477,4,4,0,0,0-3.1.485c-.785.561-1.768,1.843-1.362,2.864.24.6,1,1.13,1.635.665a2.143,2.143,0,0,0,.772-1.057,1.465,1.465,0,0,1,.351-.452c-.141.132.177-.1.18-.1-.162.089.231-.06.222-.058a3.034,3.034,0,0,1,.987.009l-1.158-1.52a10.882,10.882,0,0,1-.358,1.14c.046-.119-.134.239-.114.2-.04.067-.082.133-.128.2.069-.088.06-.084-.024.011.172-.18-.149.065.086-.031q-.184.045,0,.024a1.494,1.494,0,0,1-.218,0c.171,0-.224-.047-.214-.045a3.209,3.209,0,0,1-.506-.168l.463,1.138a2.4,2.4,0,0,1,.669-1.274c.254-.268.94-.722.523-1.157" transform="translate(-6.08 -11.512)" fill="#9a9d9a"/>
      <path id="Trazado_701707" data-name="Trazado 701707" d="M412.023,1263.678a2.1,2.1,0,0,0-.385.41.837.837,0,0,0-.076.721.58.58,0,0,0,1.117,0l.018-.052.009-.023c-.066.154-.06.141.017-.042.008-.055.016-.11.023-.165s0-.028-.016.1a.329.329,0,0,1,.016-.055c-.064.181-.055.123-.023.072s.085-.112-.031.034c.049-.061.1-.121.155-.181a.582.582,0,1,0-.824-.823" transform="translate(-6.984 -12.167)" fill="#9a9d9a"/>
      <path id="Trazado_701708" data-name="Trazado 701708" d="M451.611,1191.66c-1.917.875-4.376.567-6.311.584a2.3,2.3,0,0,1-1.248-.235.226.226,0,0,1-.113-.109.313.313,0,0,1,.1-.289c.273-.336.616-.6.888-.946.043-.06.078-.126.116-.185,1.11.171,3.532.5,5.01-.088.018,0,.038,0,.057,0,1.136-.188,2.1-1.549,1.15-2.577a4.717,4.717,0,0,0-3-1.141,13.984,13.984,0,0,0-2.242-.033c.051-.738.051-1.543-.208-1.557,1.281.067,2.567.133,3.835.283a8.567,8.567,0,0,1,3.04.775,2.473,2.473,0,0,1,1.245,1.4,2.825,2.825,0,0,1-.066,1.64,3.9,3.9,0,0,1-1.211,1.831,4.807,4.807,0,0,1-1.034.645" transform="translate(-11.137 -2.116)" fill="#e7e8e9"/>
      <path id="Trazado_701709" data-name="Trazado 701709" d="M372.047,1187.706c-1.078-.061-2.152-.137-3.228-.157a8,8,0,0,1-3.72-.8c-.776-.406-1.872-1.186-1.922-2.184a2.006,2.006,0,0,1,.506-1.323,6.353,6.353,0,0,1,3.331-2.075,9.126,9.126,0,0,1,4.747-.066c-.092.265-.189.538-.259.82-.023.08-.036.152-.052.231-.237.008-.549,0-.918-.005a7.622,7.622,0,0,0-3.531.32c-.827.33-1.954,1.01-1.89,2.12a1.7,1.7,0,0,0,1.651,1.478,42.432,42.432,0,0,0,5.242.167c.008.006.009.012.011.026a.875.875,0,0,0,.088.124c.26.388.526.774.807,1.143a.825.825,0,0,1-.2.142,1.561,1.561,0,0,1-.659.039" transform="translate(-0.789 -1.57)" fill="#e7e8e9"/>
      <path id="Trazado_701710" data-name="Trazado 701710" d="M405.6,1171.444c18.024.967,29.7,7.792,29.374,13.493-.319,5.629-12.378,11.019-29.946,10.179-17.7-.848-29.737-7.473-29.786-13.2-.054-5.8,12.18-11.435,30.358-10.467" transform="translate(-2.336 -0.355)" fill="#e7e8e9"/>
      <path id="Trazado_701711" data-name="Trazado 701711" d="M376.372,1190.819c5.217,4.875,15.952,8.469,28.577,9.071a61.581,61.581,0,0,0,18.859-1.753,36.173,36.173,0,0,0,4.525-1.537c.664-.275,1.318-.582,1.963-.913.586-.309,1.079-.811,1.758-.829.23-.009,2.383.173,2.462.16l-1.948,34.269c-.078,1.344-.148,2.755-.217,4.119-.009.16-.012.318-.02.484a14.755,14.755,0,0,1-.33,3.611,4.772,4.772,0,0,1-.772,1.509,10.663,10.663,0,0,1-3.385,2.792c-3.963,2.256-8.623,3.241-13.073,3.794a68.214,68.214,0,0,1-10.934.43,60.787,60.787,0,0,1-17.3-2.922c-3.377-1.141-7.339-2.766-9.67-5.718-1.87-2.372-1.409-5.25-1.467-8-.088-4.107-.084-8.25-.124-12.437l-.247-25.958c.416-.037.792-.081,1.11-.123a.911.911,0,0,0,.234-.05" transform="translate(-2.308 -2.852)" fill="#a7a9ab"/>
      <path id="Trazado_701712" data-name="Trazado 701712" d="M430.661,1226.434l1.948-34.269c-.08.012-2.232-.168-2.462-.16-.679.017-1.173.52-1.758.828-.645.332-1.3.638-1.963.913a36.1,36.1,0,0,1-4.526,1.538,61.573,61.573,0,0,1-18.858,1.753c-12.626-.6-23.361-4.2-28.577-9.071a.911.911,0,0,1-.235.05c-.318.042-.694.086-1.109.123l.247,25.957c.04,4.188.036,8.331.124,12.438.058,2.748-.4,5.626,1.466,8,2.331,2.951,6.293,4.576,9.671,5.718a60.787,60.787,0,0,0,17.3,2.922,68.2,68.2,0,0,0,10.933-.43c4.451-.554,9.111-1.538,13.073-3.794a10.663,10.663,0,0,0,3.385-2.792,4.774,4.774,0,0,0,.772-1.509,14.716,14.716,0,0,0,.329-3.611c.009-.166.011-.324.021-.484.069-1.364.138-2.775.217-4.119m2.379-41.852c.323-5.7-11.35-12.526-29.374-13.493-18.178-.968-30.412,4.67-30.358,10.467.049,5.732,12.083,12.355,29.786,13.2,17.569.841,29.627-4.549,29.946-10.178m1.1-4.025c3.793.255,12.854.219,11.036,6.956-1.235,4.58-6.146,4.951-10.435,4.775l-2.419,40.863a7.569,7.569,0,0,1-2,4.931c-2.79,3.028-7.086,4.521-10.917,5.494a61.9,61.9,0,0,1-17.53,1.629c-1.89-.066-3.787-.2-5.677-.418a51.756,51.756,0,0,1-15.954-4.1,23.186,23.186,0,0,1-5.273-3.191c-3.548-2.994-3.52-7.2-3.6-11.435-.061-2.96-.071-5.936-.106-8.934l-.284-23.436c-.018-1.786-.038-3.587-.063-5.386-4.419.18-10.535-.418-10.782-5.42-.126-2.574,2.6-4.3,4.527-5.133a11.354,11.354,0,0,1,7.5-.425.778.778,0,0,1,.223.085c2.581-4.028,7.752-5.869,12.053-7.019a61.976,61.976,0,0,1,19.274-1.7c14.932.8,26.895,5.736,30.421,11.874m-62.529,4.1a42.605,42.605,0,0,1-5.242-.167,1.7,1.7,0,0,1-1.651-1.478c-.064-1.109,1.063-1.791,1.89-2.12a7.647,7.647,0,0,1,3.531-.32c.37.006.681.014.918.005.017-.079.03-.151.053-.231.069-.282.166-.555.258-.82a9.125,9.125,0,0,0-4.747.067,6.344,6.344,0,0,0-3.331,2.074,2.01,2.01,0,0,0-.506,1.323c.051,1,1.147,1.778,1.923,2.183a7.981,7.981,0,0,0,3.719.8c1.077.02,2.151.1,3.228.158a1.551,1.551,0,0,0,.66-.04.833.833,0,0,0,.2-.141c-.282-.37-.548-.756-.807-1.143a.955.955,0,0,1-.088-.125c0-.013,0-.02-.011-.025m-.712-3.006c0,.042-1.524-.078-1.621-.077a12.189,12.189,0,0,0-1.673.028c-.785.183-1.415.523-1.575,1.125.013.032.02.066.031.092a1.351,1.351,0,0,0,.17.244,6.21,6.21,0,0,0,1.883.369c.752-.046,1.949-.113,2.584-.093a.3.3,0,0,1,.213-.067,1.546,1.546,0,0,1,.176.015c-.037-.126-.075-.259-.106-.392a4.169,4.169,0,0,1-.082-1.243m68.41,6.62c-1.478.589-3.9.259-5.011.088-.037.059-.072.125-.115.185-.272.344-.616.61-.889.946a.317.317,0,0,0-.1.289.231.231,0,0,0,.114.109,2.3,2.3,0,0,0,1.248.235c1.935-.017,4.394.29,6.311-.584a4.78,4.78,0,0,0,1.033-.645,3.907,3.907,0,0,0,1.212-1.831,2.825,2.825,0,0,0,.066-1.64,2.479,2.479,0,0,0-1.245-1.4,8.571,8.571,0,0,0-3.04-.775c-1.269-.15-2.555-.216-3.835-.283.26.014.26.819.208,1.557a13.984,13.984,0,0,1,2.242.033,4.719,4.719,0,0,1,3,1.141c.954,1.028-.015,2.389-1.151,2.577-.018,0-.037,0-.056,0m-.085-2.461a2.245,2.245,0,0,0-.745-.094c-.233,0-3.319-.1-3.333.008a12.186,12.186,0,0,1-.367,1.724c1.1.025,2.2.057,3.3.083a2.338,2.338,0,0,0,1.158-.165.953.953,0,0,0,.516-1.032.822.822,0,0,0-.529-.523" transform="translate(-0.4 0)" fill="#221f1f"/>
      <path id="Trazado_701713" data-name="Trazado 701713" d="M389.306,1197.795q-.948-.3-1.85-.633-1.575,23.7-1.925,45.9c.6.237,1.192.457,1.773.66q.4-22.21,2-45.922" transform="translate(-3.654 -3.664)" fill="#faf9f9"/>
      <path id="Trazado_701714" data-name="Trazado 701714" d="M382.742,1241.748q.163-22.245,1.508-46a31.3,31.3,0,0,1-4.924-2.629q-1.254,23.431-1.35,45.389a16.457,16.457,0,0,0,4.766,3.243" transform="translate(-2.686 -3.146)" fill="#faf9f9"/>
      <g id="Grupo_963326" data-name="Grupo 963326" transform="translate(374.334 1171.046)">
        <g id="Grupo_963325" data-name="Grupo 963325" transform="translate(0 0)" clip-path="url(#clip-path)">
          <path id="Trazado_701715" data-name="Trazado 701715" d="M434.195,1171.413q-.953-.306-1.861-.637-1.584,23.838-1.936,46.157c.6.239,1.2.459,1.784.664q.4-22.336,2.013-46.183" transform="translate(-383.737 -1171.329)" fill="#c8c7c7"/>
          <path id="Trazado_701716" data-name="Trazado 701716" d="M427.594,1216.7c.109-14.915.92-31.177,1.831-47.11a36.326,36.326,0,0,0-5.267-1.8c-.669,10.624-1.285,30.922-1.357,45.646a16.546,16.546,0,0,0,4.793,3.263" transform="translate(-382.764 -1170.947)" fill="#c8c7c7"/>
        </g>
      </g>
    </g>
  </g>
</svg>
