<svg xmlns="http://www.w3.org/2000/svg" width="186.298" height="115.172" viewBox="0 0 186.298 115.172">
  <g id="Grupo_963348" data-name="Grupo 963348" transform="translate(-842.977 -1372.676)">
    <path id="Trazado_702248" data-name="Trazado 702248" d="M891.286,1394.245c1.666-5.189,5.166-8.751,7.965-8.21l.011-.03,115.678,37.683-6.271,19.475-115.677-37.684.011-.032c-2.589-1.153-3.373-6.03-1.717-11.2" transform="translate(11.415 3.201)" fill="#6c5953"/>
    <path id="Trazado_702249" data-name="Trazado 702249" d="M891.35,1393.42c1.754-4.734,5.028-7.9,7.676-7.385l.012-.03,115.677,37.683-2.87,8.915Z" transform="translate(11.64 3.201)" fill="#7e6c69"/>
    <path id="Trazado_702250" data-name="Trazado 702250" d="M984.3,1424.557c-1.723,5.377-.811,10.453,2.031,11.332s6.551-2.765,8.275-8.146.81-10.452-2.035-11.332-6.546,2.767-8.271,8.146" transform="translate(33.798 10.493)" fill="#ceb679"/>
    <path id="Trazado_702251" data-name="Trazado 702251" d="M987.518,1425.077c-.529,1.64-.249,3.188.627,3.455s2.015-.842,2.542-2.483.249-3.188-.626-3.455S988.047,1423.436,987.518,1425.077Zm-2.022-.62c-1.206,3.735-.571,7.26,1.422,7.87s4.588-1.921,5.794-5.657.567-7.26-1.424-7.869S986.7,1420.723,985.5,1424.457Z" transform="translate(34.148 11.077)" fill="none" stroke="#6c5953" stroke-miterlimit="10" stroke-width="0.873"/>
    <path id="Trazado_702252" data-name="Trazado 702252" d="M845.449,1422.161c1.966-5.086,5.67-8.446,8.431-7.748l.014-.029,113.285,44.148-7.4,19.09L846.5,1433.473l.014-.031c-2.518-1.3-3.016-6.209-1.061-11.28" transform="translate(0.307 10.021)" fill="#6c5953"/>
    <path id="Trazado_702253" data-name="Trazado 702253" d="M845.488,1421.354c2.028-4.627,5.482-7.6,8.1-6.94l.014-.029,113.284,44.148-3.386,8.738Z" transform="translate(0.604 10.022)" fill="#7e6c69"/>
    <path id="Trazado_702254" data-name="Trazado 702254" d="M936.54,1457.671c-2.035,5.27-1.422,10.39,1.366,11.427s6.7-2.391,8.737-7.666,1.42-10.388-1.368-11.428-6.7,2.393-8.734,7.666" transform="translate(22.225 18.564)" fill="#ceb679"/>
    <path id="Trazado_702255" data-name="Trazado 702255" d="M939.673,1458.4c-.624,1.609-.435,3.171.422,3.486s2.061-.728,2.682-2.336.437-3.171-.421-3.486S940.3,1456.792,939.673,1458.4Zm-1.981-.732c-1.423,3.662-1,7.218.955,7.938s4.692-1.661,6.114-5.324.994-7.218-.958-7.938S939.116,1454.007,937.692,1457.668Z" transform="translate(22.589 19.14)" fill="none" stroke="#6c5953" stroke-miterlimit="10" stroke-width="0.873"/>
    <path id="Trazado_702256" data-name="Trazado 702256" d="M955.8,1378.6c3.13,4.489,3.825,9.394,1.665,11.224l.016.029L855.952,1456.1l-11.734-16.862,101.528-66.24.019.03c2.52-1.294,6.91,1.108,10.032,5.579" transform="translate(0.299)" fill="#6c5953"/>
    <path id="Trazado_702257" data-name="Trazado 702257" d="M955.045,1378.044c2.712,4.276,3.226,8.761,1.182,10.492l.017.027L854.718,1454.8l-5.372-7.718Z" transform="translate(1.533 1.292)" fill="#7e6c69"/>
    <path id="Trazado_702258" data-name="Trazado 702258" d="M854.806,1431.864c-3.244-4.65-7.873-7.075-10.331-5.418s-1.825,6.773,1.423,11.425,7.873,7.073,10.332,5.415,1.82-6.77-1.424-11.422" transform="translate(0 12.814)" fill="#ceb679"/>
    <path id="Trazado_702259" data-name="Trazado 702259" d="M851.288,1433.422c-.995-1.419-2.414-2.16-3.167-1.652s-.561,2.067.435,3.485,2.414,2.16,3.167,1.652S852.283,1434.841,851.288,1433.422Zm1.743-1.171c-2.265-3.232-5.495-4.92-7.211-3.767s-1.275,4.711.991,7.943,5.5,4.918,7.212,3.763S855.294,1435.483,853.031,1432.251Z" transform="translate(0.432 13.342)" fill="none" stroke="#6c5953" stroke-miterlimit="10" stroke-width="0.873"/>
    <path id="Trazado_702260" data-name="Trazado 702260" d="M972.537,1384.56c3.13,4.489,3.825,9.394,1.665,11.224l.016.029-101.527,66.24-11.734-16.86,101.53-66.24.019.029c2.52-1.294,6.91,1.108,10.032,5.579" transform="translate(4.327 1.433)" fill="#6c5953"/>
    <path id="Trazado_702261" data-name="Trazado 702261" d="M971.786,1384c2.711,4.277,3.226,8.761,1.182,10.492l.016.027L871.458,1460.76l-5.371-7.718Z" transform="translate(5.561 2.725)" fill="#7e6c69"/>
    <path id="Trazado_702262" data-name="Trazado 702262" d="M871.547,1437.82c-3.244-4.649-7.873-7.075-10.331-5.418s-1.825,6.773,1.423,11.425,7.872,7.073,10.332,5.415,1.82-6.77-1.424-11.423" transform="translate(4.028 14.247)" fill="#ceb679"/>
    <path id="Trazado_702263" data-name="Trazado 702263" d="M868.027,1439.378c-1-1.419-2.414-2.16-3.167-1.653s-.561,2.067.436,3.485,2.414,2.16,3.167,1.653S869.021,1440.8,868.027,1439.378Zm1.743-1.171c-2.267-3.232-5.495-4.92-7.211-3.765s-1.275,4.709.991,7.941,5.5,4.918,7.212,3.763S872.034,1441.439,869.771,1438.207Z" transform="translate(4.46 14.775)" fill="none" stroke="#6c5953" stroke-miterlimit="10" stroke-width="0.873"/>
    <path id="Trazado_702264" data-name="Trazado 702264" d="M991.092,1392.027c3.13,4.489,3.825,9.394,1.665,11.224l.016.029-101.527,66.24-11.734-16.86,101.53-66.241.019.03c2.52-1.294,6.91,1.108,10.032,5.579" transform="translate(8.792 3.23)" fill="#6c5953"/>
    <path id="Trazado_702265" data-name="Trazado 702265" d="M990.34,1391.468c2.711,4.276,3.226,8.761,1.181,10.492l.019.027-101.529,66.241-5.371-7.718Z" transform="translate(10.026 4.522)" fill="#7e6c69"/>
    <path id="Trazado_702266" data-name="Trazado 702266" d="M890.1,1445.288c-3.244-4.649-7.873-7.075-10.331-5.418s-1.825,6.773,1.423,11.425,7.872,7.073,10.332,5.415,1.82-6.77-1.424-11.423" transform="translate(8.493 16.044)" fill="#ceb679"/>
    <path id="Trazado_702267" data-name="Trazado 702267" d="M886.581,1446.846c-.995-1.419-2.413-2.16-3.167-1.652s-.561,2.068.435,3.485,2.414,2.16,3.167,1.652S887.576,1448.266,886.581,1446.846Zm1.743-1.171c-2.265-3.232-5.495-4.921-7.211-3.767s-1.274,4.711.991,7.943,5.5,4.918,7.213,3.764S890.589,1448.907,888.324,1445.675Z" transform="translate(8.925 16.572)" fill="none" stroke="#6c5953" stroke-miterlimit="10" stroke-width="0.873"/>
    <path id="Trazado_702268" data-name="Trazado 702268" d="M1008.028,1400.9c3.13,4.488,3.825,9.394,1.665,11.224l.016.029L908.183,1478.4l-11.735-16.861,101.53-66.239.019.028c2.52-1.294,6.91,1.108,10.032,5.579" transform="translate(12.867 5.366)" fill="#6c5953"/>
    <path id="Trazado_702269" data-name="Trazado 702269" d="M1007.277,1400.344c2.711,4.276,3.224,8.761,1.181,10.492l.016.027L906.949,1477.1l-5.371-7.718Z" transform="translate(14.102 6.658)" fill="#7e6c69"/>
    <path id="Trazado_702270" data-name="Trazado 702270" d="M907.037,1454.164c-3.244-4.649-7.873-7.075-10.331-5.418s-1.825,6.773,1.423,11.425,7.872,7.073,10.332,5.415,1.82-6.77-1.424-11.423" transform="translate(12.569 18.18)" fill="#ceb679"/>
    <path id="Trazado_702271" data-name="Trazado 702271" d="M903.518,1455.722c-.995-1.419-2.413-2.16-3.167-1.652s-.56,2.068.435,3.485,2.414,2.16,3.167,1.653S904.513,1457.141,903.518,1455.722Zm1.743-1.171c-2.265-3.232-5.495-4.92-7.21-3.767s-1.274,4.711.992,7.943,5.5,4.918,7.212,3.764S907.526,1457.783,905.261,1454.551Z" transform="translate(13.001 18.708)" fill="none" stroke="#6c5953" stroke-miterlimit="10" stroke-width="0.873"/>
    <path id="Trazado_702272" data-name="Trazado 702272" d="M884.12,1387.557c1.279-3.716,3.855-6.232,5.863-5.8l.009-.021,102.055,34.9-4.81,13.942-102.056-34.905.009-.022c-1.849-.867-2.34-4.393-1.069-8.1" transform="translate(9.73 2.174)" fill="#6c5953"/>
    <path id="Trazado_702273" data-name="Trazado 702273" d="M884.161,1386.967c1.335-3.386,3.742-5.618,5.642-5.209l.008-.022,102.056,34.9-2.2,6.382Z" transform="translate(9.91 2.174)" fill="#7e6c69"/>
    <path id="Trazado_702274" data-name="Trazado 702274" d="M966.22,1415.643c-1.322,3.85-.742,7.521,1.293,8.195s4.763-1.9,6.085-5.749.741-7.519-1.3-8.2-4.759,1.9-6.083,5.75" transform="translate(29.486 8.93)" fill="#ceb679"/>
    <path id="Trazado_702275" data-name="Trazado 702275" d="M968.518,1416.072c-.406,1.173-.228,2.294.4,2.5s1.464-.578,1.868-1.752.228-2.3-.4-2.5S968.925,1414.9,968.518,1416.072Zm-1.448-.476c-.925,2.675-.521,5.224.906,5.692s3.335-1.319,4.259-3.993.52-5.224-.907-5.692S968,1412.922,967.07,1415.6Z" transform="translate(29.741 9.349)" fill="none" stroke="#6c5953" stroke-miterlimit="10" stroke-width="0.629"/>
    <path id="Trazado_702276" data-name="Trazado 702276" d="M875.7,1395.888c1.278-3.716,3.853-6.232,5.862-5.8l.009-.021,102.056,34.9-4.81,13.942-102.056-34.905.009-.022c-1.849-.867-2.341-4.393-1.069-8.1" transform="translate(7.705 4.178)" fill="#6c5953"/>
    <path id="Trazado_702277" data-name="Trazado 702277" d="M875.744,1395.3c1.335-3.386,3.743-5.617,5.642-5.209l.009-.022,102.056,34.9-2.2,6.382Z" transform="translate(7.885 4.178)" fill="#7e6c69"/>
    <path id="Trazado_702278" data-name="Trazado 702278" d="M957.8,1423.974c-1.323,3.85-.742,7.521,1.294,8.194s4.762-1.9,6.084-5.749.742-7.52-1.3-8.194-4.759,1.9-6.083,5.749" transform="translate(27.46 10.935)" fill="#ceb679"/>
    <path id="Trazado_702279" data-name="Trazado 702279" d="M960.1,1424.4c-.406,1.174-.228,2.294.4,2.5s1.464-.578,1.868-1.752.227-2.3-.4-2.5S960.508,1423.228,960.1,1424.4Zm-1.448-.476c-.925,2.675-.521,5.224.9,5.692s3.335-1.319,4.26-3.992.519-5.224-.907-5.692S959.58,1421.253,958.653,1423.927Z" transform="translate(27.716 11.354)" fill="none" stroke="#6c5953" stroke-miterlimit="10" stroke-width="0.629"/>
    <path id="Trazado_702280" data-name="Trazado 702280" d="M867.8,1402.149c1.278-3.716,3.853-6.232,5.862-5.8l.009-.021,102.056,34.9-4.811,13.942-102.055-34.905.009-.022c-1.85-.869-2.341-4.393-1.069-8.1" transform="translate(5.802 5.685)" fill="#6c5953"/>
    <path id="Trazado_702281" data-name="Trazado 702281" d="M867.838,1401.559c1.335-3.386,3.742-5.618,5.641-5.209l.009-.021,102.056,34.9-2.2,6.382Z" transform="translate(5.982 5.685)" fill="#7e6c69"/>
    <path id="Trazado_702282" data-name="Trazado 702282" d="M949.9,1430.235c-1.323,3.85-.742,7.521,1.293,8.194s4.763-1.9,6.085-5.749.741-7.519-1.3-8.2-4.759,1.9-6.083,5.75" transform="translate(25.558 12.441)" fill="#ceb679"/>
    <path id="Trazado_702283" data-name="Trazado 702283" d="M952.194,1430.664c-.4,1.174-.228,2.294.4,2.5s1.463-.578,1.868-1.752.227-2.3-.4-2.5S952.6,1429.489,952.194,1430.664Zm-1.447-.476c-.925,2.675-.522,5.224.9,5.692s3.337-1.319,4.262-3.992.519-5.224-.908-5.692S951.674,1427.514,950.747,1430.188Z" transform="translate(25.814 12.861)" fill="none" stroke="#6c5953" stroke-miterlimit="10" stroke-width="0.629"/>
    <path id="Trazado_702284" data-name="Trazado 702284" d="M856.843,1409.926c1.278-3.716,3.853-6.23,5.862-5.8l.009-.021,102.056,34.9-4.811,13.943L857.9,1418.045l.009-.022c-1.85-.866-2.341-4.392-1.069-8.1" transform="translate(3.166 7.557)" fill="#6c5953"/>
    <path id="Trazado_702285" data-name="Trazado 702285" d="M856.884,1409.337c1.335-3.386,3.742-5.618,5.642-5.209l.007-.022,102.057,34.9-2.2,6.382Z" transform="translate(3.347 7.557)" fill="#7e6c69"/>
    <path id="Trazado_702286" data-name="Trazado 702286" d="M938.943,1438.012c-1.323,3.85-.742,7.521,1.294,8.194s4.761-1.9,6.084-5.749.741-7.52-1.3-8.195-4.759,1.9-6.083,5.749" transform="translate(22.922 14.313)" fill="#ceb679"/>
    <path id="Trazado_702287" data-name="Trazado 702287" d="M941.241,1438.441c-.406,1.175-.228,2.294.4,2.5s1.464-.579,1.868-1.752.228-2.3-.4-2.5S941.648,1437.267,941.241,1438.441Zm-1.448-.476c-.925,2.675-.521,5.225.9,5.693s3.335-1.319,4.26-3.992.519-5.224-.907-5.692S940.72,1435.291,939.793,1437.965Z" transform="translate(23.178 14.732)" fill="none" stroke="#6c5953" stroke-miterlimit="10" stroke-width="0.629"/>
    <path id="Trazado_702288" data-name="Trazado 702288" d="M947.827,1380.319c-1.707-2.584-4.165-4.007-5.609-3.3l-.011-.014-70.786,46.049,6.418,9.694,70.786-46.05-.011-.016c1.236-1.014.913-3.792-.786-6.367" transform="translate(6.845 1.002)" fill="#6c5953"/>
    <path id="Trazado_702289" data-name="Trazado 702289" d="M947.543,1379.911c-1.685-2.321-3.959-3.562-5.325-2.889l-.011-.012-70.786,46.047,2.938,4.438Z" transform="translate(6.845 1.002)" fill="#7e6c69"/>
    <path id="Trazado_702290" data-name="Trazado 702290" d="M877.357,1417.369c1.768,2.677,2.052,5.583.635,6.485s-4-.536-5.768-3.216-2.051-5.582-.634-6.485,4,.537,5.766,3.216" transform="translate(6.669 9.916)" fill="#ceb679"/>
    <path id="Trazado_702291" data-name="Trazado 702291" d="M875.338,1418.2c.542.817.629,1.7.194,1.979s-1.226-.161-1.767-.98-.629-1.7-.194-1.979S874.8,1417.383,875.338,1418.2Zm1-.638c1.234,1.862,1.433,3.882.444,4.508s-2.794-.373-4.028-2.236-1.432-3.881-.442-4.507S875.109,1415.7,876.343,1417.563Z" transform="translate(6.909 10.219)" fill="none" stroke="#6c5953" stroke-miterlimit="10" stroke-width="0.494"/>
    <path id="Trazado_702292" data-name="Trazado 702292" d="M955.881,1385.054c-1.707-2.584-4.166-4.007-5.609-3.3l-.011-.014-70.786,46.049,6.418,9.694,70.786-46.05-.011-.016c1.236-1.014.913-3.792-.787-6.367" transform="translate(8.783 2.141)" fill="#6c5953"/>
    <path id="Trazado_702293" data-name="Trazado 702293" d="M955.6,1384.647c-1.686-2.323-3.959-3.562-5.325-2.889l-.011-.014-70.786,46.049,2.938,4.438Z" transform="translate(8.783 2.142)" fill="#7e6c69"/>
    <path id="Trazado_702294" data-name="Trazado 702294" d="M885.411,1422.1c1.768,2.677,2.052,5.583.635,6.485s-4-.536-5.768-3.216-2.051-5.582-.634-6.485,4,.537,5.766,3.216" transform="translate(8.607 11.055)" fill="#ceb679"/>
    <path id="Trazado_702295" data-name="Trazado 702295" d="M883.392,1422.936c.541.818.629,1.7.194,1.979s-1.227-.163-1.767-.98-.629-1.7-.195-1.98S882.85,1422.118,883.392,1422.936Zm1-.638c1.234,1.862,1.433,3.881.443,4.507s-2.793-.372-4.027-2.234-1.432-3.881-.442-4.507S883.163,1420.438,884.4,1422.3Z" transform="translate(8.847 11.358)" fill="none" stroke="#6c5953" stroke-miterlimit="10" stroke-width="0.494"/>
    <path id="Trazado_702296" data-name="Trazado 702296" d="M963.138,1388.31c-1.707-2.584-4.165-4.007-5.609-3.3l-.011-.015-70.786,46.05,6.418,9.694,70.785-46.05-.011-.016c1.236-1.014.913-3.791-.787-6.367" transform="translate(10.529 2.925)" fill="#6c5953"/>
    <path id="Trazado_702297" data-name="Trazado 702297" d="M962.852,1387.9c-1.685-2.322-3.959-3.562-5.325-2.89l-.01-.014-70.786,46.049,2.937,4.438Z" transform="translate(10.529 2.925)" fill="#7e6c69"/>
    <path id="Trazado_702298" data-name="Trazado 702298" d="M892.667,1425.36c1.768,2.677,2.052,5.583.635,6.485s-4-.536-5.768-3.216-2.051-5.582-.634-6.485,4,.537,5.766,3.216" transform="translate(10.353 11.839)" fill="#ceb679"/>
    <path id="Trazado_702299" data-name="Trazado 702299" d="M890.648,1426.193c.541.818.629,1.7.194,1.979s-1.227-.162-1.767-.98-.629-1.7-.195-1.98S890.106,1425.374,890.648,1426.193Zm1-.638c1.233,1.862,1.433,3.881.443,4.507s-2.794-.372-4.027-2.234-1.432-3.881-.442-4.507S890.419,1423.694,891.653,1425.555Z" transform="translate(10.593 12.142)" fill="none" stroke="#6c5953" stroke-miterlimit="10" stroke-width="0.494"/>
    <path id="Trazado_702300" data-name="Trazado 702300" d="M973.013,1392.14c-1.707-2.584-4.166-4.007-5.609-3.3l-.011-.015-70.786,46.05,6.418,9.695,70.785-46.05-.011-.016c1.236-1.014.913-3.791-.787-6.367" transform="translate(12.905 3.847)" fill="#6c5953"/>
    <path id="Trazado_702301" data-name="Trazado 702301" d="M972.729,1391.733c-1.685-2.322-3.959-3.562-5.325-2.888l-.01-.015-70.787,46.049,2.938,4.438Z" transform="translate(12.905 3.847)" fill="#7e6c69"/>
    <path id="Trazado_702302" data-name="Trazado 702302" d="M902.543,1429.19c1.768,2.677,2.052,5.583.635,6.485s-4-.536-5.768-3.216-2.051-5.582-.634-6.485,4,.537,5.766,3.216" transform="translate(12.729 12.761)" fill="#ceb679"/>
    <path id="Trazado_702303" data-name="Trazado 702303" d="M900.524,1430.022c.542.818.629,1.7.193,1.979s-1.226-.163-1.767-.98-.629-1.7-.193-1.98S899.982,1429.2,900.524,1430.022Zm1-.638c1.234,1.862,1.433,3.88.444,4.507s-2.794-.372-4.028-2.234-1.432-3.881-.442-4.507S900.295,1427.524,901.529,1429.385Z" transform="translate(12.969 13.063)" fill="none" stroke="#6c5953" stroke-miterlimit="10" stroke-width="0.494"/>
    <path id="Trazado_702304" data-name="Trazado 702304" d="M893.556,1386.787c.8-2.193,2.352-3.662,3.541-3.387l.005-.013,60.253,21.727-3,8.232L894.1,1391.62l0-.014c-1.088-.533-1.345-2.633-.552-4.819" transform="translate(12.06 2.573)" fill="#6c5953"/>
    <path id="Trazado_702305" data-name="Trazado 702305" d="M893.578,1386.439c.828-2,2.279-3.3,3.4-3.038l.005-.013,60.253,21.726-1.372,3.769Z" transform="translate(12.176 2.573)" fill="#7e6c69"/>
    <path id="Trazado_702306" data-name="Trazado 702306" d="M942.027,1404.27c-.825,2.273-.517,4.459.685,4.879s2.847-1.08,3.671-3.354.517-4.459-.686-4.879-2.845,1.08-3.67,3.355" transform="translate(23.723 6.779)" fill="#ceb679"/>
    <path id="Trazado_702307" data-name="Trazado 702307" d="M943.382,1404.551c-.253.693-.159,1.361.211,1.489s.876-.329,1.128-1.022.159-1.361-.211-1.489S943.635,1403.858,943.382,1404.551Zm-.855-.3c-.577,1.58-.362,3.1.479,3.39s1.994-.751,2.57-2.33.361-3.1-.481-3.389S943.1,1402.676,942.527,1404.254Z" transform="translate(23.877 7.026)" fill="none" stroke="#6c5953" stroke-miterlimit="10" stroke-width="0.374"/>
    <path id="Trazado_702308" data-name="Trazado 702308" d="M888.474,1391.652c.8-2.193,2.352-3.662,3.541-3.387l0-.012,60.253,21.727-3,8.231-60.253-21.727.006-.014c-1.089-.534-1.346-2.633-.553-4.819" transform="translate(10.837 3.744)" fill="#6c5953"/>
    <path id="Trazado_702309" data-name="Trazado 702309" d="M888.5,1391.3c.827-2,2.279-3.3,3.4-3.037l0-.014,60.253,21.727-1.372,3.768Z" transform="translate(10.953 3.744)" fill="#7e6c69"/>
    <path id="Trazado_702310" data-name="Trazado 702310" d="M936.945,1409.135c-.825,2.273-.517,4.459.685,4.88s2.847-1.081,3.671-3.355.516-4.459-.686-4.879-2.845,1.081-3.67,3.355" transform="translate(22.5 7.949)" fill="#ceb679"/>
    <path id="Trazado_702311" data-name="Trazado 702311" d="M938.3,1409.416c-.253.693-.159,1.361.211,1.489s.876-.329,1.128-1.022.159-1.361-.211-1.489S938.552,1408.723,938.3,1409.416Zm-.855-.3c-.577,1.579-.362,3.1.479,3.389s1.994-.75,2.57-2.33.361-3.1-.481-3.389S938.021,1407.541,937.444,1409.12Z" transform="translate(22.654 8.197)" fill="none" stroke="#6c5953" stroke-miterlimit="10" stroke-width="0.374"/>
    <path id="Trazado_702312" data-name="Trazado 702312" d="M883.714,1395.293c.8-2.193,2.352-3.662,3.541-3.387l0-.013,60.253,21.727-3,8.232-60.253-21.727.006-.014c-1.089-.534-1.346-2.633-.553-4.819" transform="translate(9.692 4.619)" fill="#6c5953"/>
    <path id="Trazado_702313" data-name="Trazado 702313" d="M883.736,1394.945c.827-2,2.279-3.3,3.4-3.038l0-.013L947.4,1413.62l-1.372,3.769Z" transform="translate(9.808 4.619)" fill="#7e6c69"/>
    <path id="Trazado_702314" data-name="Trazado 702314" d="M932.186,1412.775c-.825,2.273-.517,4.46.685,4.881s2.847-1.081,3.671-3.356.517-4.459-.686-4.878-2.845,1.081-3.67,3.353" transform="translate(21.355 8.825)" fill="#ceb679"/>
    <path id="Trazado_702315" data-name="Trazado 702315" d="M933.54,1413.056c-.253.693-.159,1.362.212,1.489s.875-.33,1.127-1.022.159-1.361-.211-1.489S933.793,1412.362,933.54,1413.056Zm-.855-.3c-.577,1.579-.362,3.1.479,3.389s1.994-.75,2.571-2.33.361-3.1-.48-3.389S933.262,1411.181,932.685,1412.759Z" transform="translate(21.509 9.073)" fill="none" stroke="#6c5953" stroke-miterlimit="10" stroke-width="0.374"/>
    <path id="Trazado_702316" data-name="Trazado 702316" d="M877.131,1399.8c.8-2.192,2.352-3.662,3.541-3.386l.005-.012,60.253,21.726-3,8.233-60.253-21.727.006-.015c-1.089-.533-1.346-2.631-.553-4.819" transform="translate(8.107 5.705)" fill="#6c5953"/>
    <path id="Trazado_702317" data-name="Trazado 702317" d="M877.152,1399.457c.827-2,2.279-3.3,3.4-3.038l.006-.014,60.251,21.727-1.372,3.769Z" transform="translate(8.224 5.705)" fill="#7e6c69"/>
    <path id="Trazado_702318" data-name="Trazado 702318" d="M925.6,1417.287c-.825,2.273-.517,4.459.685,4.879s2.847-1.081,3.671-3.356.517-4.458-.686-4.878-2.845,1.081-3.67,3.355" transform="translate(19.771 9.911)" fill="#ceb679"/>
    <path id="Trazado_702319" data-name="Trazado 702319" d="M926.957,1417.568c-.254.694-.16,1.361.211,1.489s.875-.33,1.127-1.022.16-1.361-.211-1.489S927.209,1416.875,926.957,1417.568Zm-.855-.3c-.578,1.579-.364,3.1.478,3.389s1.995-.751,2.571-2.33.362-3.1-.481-3.389S926.679,1415.693,926.1,1417.272Z" transform="translate(19.924 10.159)" fill="none" stroke="#6c5953" stroke-miterlimit="10" stroke-width="0.374"/>
  </g>
</svg>
