<svg xmlns="http://www.w3.org/2000/svg" xmlns:xlink="http://www.w3.org/1999/xlink" width="182" height="182" viewBox="0 0 182 182">
  <defs>
    <clipPath id="clip-path">
      <rect id="Rectángulo_337965" data-name="Rectángulo 337965" width="116" height="114" transform="translate(8179.763 -6607.126)" fill="#fff" stroke="#707070" stroke-width="1"/>
    </clipPath>
  </defs>
  <g id="Grupo_963343" data-name="Grupo 963343" transform="translate(-8103 6424.385)">
    <g id="Elipse_5367" data-name="Elipse 5367" transform="translate(8103 -6424.385)" fill="#fff" stroke="#eb6f2d" stroke-width="7">
      <circle cx="91" cy="91" r="91" stroke="none"/>
      <circle cx="91" cy="91" r="87.5" fill="none"/>
    </g>
    <g id="Enmascarar_grupo_927261" data-name="Enmascarar grupo 927261" transform="translate(-42.763 217.126)" clip-path="url(#clip-path)">
      <g id="Grupo_963338" data-name="Grupo 963338" transform="translate(8142.676 -6599.002)">
        <path id="Trazado_701814" data-name="Trazado 701814" d="M612.175,1218.068c.019,1.106-2.2,1.157-2.925,1.153a3.292,3.292,0,0,1-1.86-.329c-.523-.389-.335-1.584-.1-2.124a4.482,4.482,0,0,1,.461-.807,2.355,2.355,0,0,1,.592-.6c1.006-.642,1.863-.123,2.56.679a11.443,11.443,0,0,1,.882,1.067,1.9,1.9,0,0,1,.39.966" transform="translate(-504.092 -1131.6)" fill="#6a705e"/>
        <path id="Trazado_701815" data-name="Trazado 701815" d="M611.858,1217.1c-.134.752-.618,1.029-1.526,1.114a2.852,2.852,0,0,1-2.078-.278,1.819,1.819,0,0,1-.431-1.976,2.366,2.366,0,0,1,.592-.6c1.006-.642,1.863-.123,2.561.678a11.59,11.59,0,0,1,.882,1.066" transform="translate(-504.165 -1131.6)" fill="#81857a"/>
        <path id="Trazado_701816" data-name="Trazado 701816" d="M609.285,1215.653c-.065-.066-.2-.03-.276,0a.454.454,0,0,0-.226.288.154.154,0,0,0,.074.176.542.542,0,0,0,.493.055c.162-.074.228-.282.278-.431a.185.185,0,0,0-.134-.228.664.664,0,0,0-.5.075c-.126.087-.284.284-.219.442a.183.183,0,0,0,.262.1.331.331,0,0,0,.124-.163.248.248,0,0,1,.057-.07c-.023.02.028-.014.028-.014-.026.013.037-.01.037-.01a.515.515,0,0,1,.156,0l-.185-.234a1.833,1.833,0,0,1-.058.175c.007-.018-.022.037-.019.032a.327.327,0,0,1-.02.029c.012-.013.01-.012,0,0,.028-.028-.023.011.014,0-.02,0-.02.006,0,0a.225.225,0,0,1-.035,0c.027,0-.036-.007-.036-.007a.569.569,0,0,1-.079-.026c.024.059.049.116.074.175a.368.368,0,0,1,.107-.2c.04-.041.15-.111.084-.178" transform="translate(-504.283 -1131.648)" fill="#9a9d9a"/>
        <path id="Trazado_701817" data-name="Trazado 701817" d="M609.953,1216.3a.35.35,0,0,0-.062.063.126.126,0,0,0-.012.111.094.094,0,0,0,.179,0l0-.008v0c-.011.024-.01.021,0-.006l0-.026c0-.01,0,0,0,.016l0-.009c-.01.028-.009.02,0,.011s.013-.017,0,.005a.3.3,0,0,1,.024-.027.088.088,0,0,0,0-.127.1.1,0,0,0-.132,0" transform="translate(-504.406 -1131.734)" fill="#9a9d9a"/>
        <path id="Trazado_701818" data-name="Trazado 701818" d="M616.44,1220.745a2.8,2.8,0,0,1-.213.339c-.747,1.012-1.861.882-2.985.387a3.636,3.636,0,0,1-1.788-1.2,1.626,1.626,0,0,1,.219-1.433,3.919,3.919,0,0,1,.675-.921,5.425,5.425,0,0,1,.86-.668,2.737,2.737,0,0,1,.9-.389c1.351-.245,2,.707,2.353,1.893a5.725,5.725,0,0,1,.239.936,1.7,1.7,0,0,1-.262,1.053" transform="translate(-504.572 -1131.796)" fill="#6a705e"/>
        <path id="Trazado_701819" data-name="Trazado 701819" d="M616.742,1219.692a2.882,2.882,0,0,1-1.887.936,3.4,3.4,0,0,1-2.568-.88,1.734,1.734,0,0,1-.575-.907,3.931,3.931,0,0,1,.675-.92,5.376,5.376,0,0,1,.86-.668,2.737,2.737,0,0,1,.9-.389c1.351-.245,2,.706,2.353,1.892a5.706,5.706,0,0,1,.239.937" transform="translate(-504.611 -1131.796)" fill="#81857a"/>
        <path id="Trazado_701820" data-name="Trazado 701820" d="M614.848,1217.5c-.067-.195-.324-.184-.475-.1a.348.348,0,0,0-.118.418.415.415,0,0,0,.4.249.649.649,0,0,0,.479-.335.236.236,0,0,0-.036-.327.639.639,0,0,0-.548-.128c-.151.04-.378.189-.386.358a.221.221,0,0,0,.186.246.314.314,0,0,0,.244-.08l.05-.039.034-.022c-.026.013-.027.015,0,0s.067-.017.011-.006c.027,0,.025,0,0,0a.332.332,0,0,1,.041,0c.068.011-.042-.017.031.009a.689.689,0,0,1,.107.053c-.029-.12-.059-.239-.089-.359a.953.953,0,0,1-.122.163c.033-.034-.023.014-.032.021.046-.031,0,0-.02,0,.069-.023-.044-.008.036,0-.058,0,.034.014,0,0s.049.037,0,0c-.015-.012.029.042,0-.008.038.058.012.017,0,0-.024-.046,0,.034,0,0s-.007.052,0,0c0,.018-.02.046-.013.036s-.005,0-.015.008c.047-.025-.011.009.057-.02a.4.4,0,0,0,.173-.1.059.059,0,0,0,.009-.058" transform="translate(-504.884 -1131.844)" fill="#9a9d9a"/>
        <path id="Trazado_701821" data-name="Trazado 701821" d="M613.638,1218l-.015,0c.026,0-.012,0-.021,0l.045.02a.146.146,0,0,0-.152-.023.4.4,0,0,0-.041.023c.02-.01.025-.012.015-.009a.146.146,0,0,0-.062.046.223.223,0,0,0,.023.272.164.164,0,0,0,.189.054.481.481,0,0,0,.181-.12.169.169,0,0,0,.028-.173.158.158,0,0,0-.237-.067.152.152,0,0,0-.005.239h0c-.015-.021-.03-.042-.046-.062h0c0-.026-.006-.052-.01-.077h0l.061-.1c.034-.015.044-.021.029-.016a.12.12,0,0,0-.044.025c-.009.008-.02.013-.029.02l-.036.026c-.015.009-.011.007.012-.006l-.025.012.189.054-.022-.028c-.006-.01-.02-.04,0,0l.005.026a.154.154,0,0,0-.01-.044.185.185,0,0,0-.048-.064c.014.02.029.04.044.06l0-.008c0,.035,0,.07,0,.1.01-.031-.017.02,0,0a.127.127,0,0,0,.02-.127l0,0c-.005.032-.011.064-.015.1a.142.142,0,0,0,.02-.032c-.007.018,0,0,.005,0a.07.07,0,0,0-.044-.113" transform="translate(-504.796 -1131.924)" fill="#9a9d9a"/>
        <path id="Trazado_701822" data-name="Trazado 701822" d="M594.511,1218.016a4.479,4.479,0,0,1-.462.438c-1.554,1.266-3.22.624-4.758-.584-.822-.645-2.008-1.476-2.286-2.55a2.587,2.587,0,0,1,.9-2.125,6.226,6.226,0,0,1,1.406-1.153,8.6,8.6,0,0,1,1.591-.691,4.387,4.387,0,0,1,1.544-.244c2.182.157,2.809,1.881,2.883,3.85a9.224,9.224,0,0,1,0,1.538,2.709,2.709,0,0,1-.821,1.521" transform="translate(-501.856 -1131.158)" fill="#6a705e"/>
        <path id="Trazado_701823" data-name="Trazado 701823" d="M595.45,1216.5a4.592,4.592,0,0,1-3.281.7,5.421,5.421,0,0,1-3.613-2.372,2.767,2.767,0,0,1-.529-1.627,6.293,6.293,0,0,1,1.406-1.153,8.586,8.586,0,0,1,1.592-.69,4.338,4.338,0,0,1,1.544-.244c2.182.157,2.809,1.881,2.884,3.85a9.214,9.214,0,0,1,0,1.538" transform="translate(-501.974 -1131.158)" fill="#81857a"/>
        <path id="Trazado_701824" data-name="Trazado 701824" d="M593.474,1212.256c-.026-.327-.428-.412-.694-.336a.556.556,0,0,0-.348.6.663.663,0,0,0,.519.541,1.035,1.035,0,0,0,.871-.328.375.375,0,0,0,.074-.518,1.017,1.017,0,0,0-.8-.414c-.248,0-.657.143-.737.4a.353.353,0,0,0,.189.453.5.5,0,0,0,.407-.027l.093-.04c.02-.008.04-.015.06-.021-.045.011-.047.011-.006,0,.021,0,.111,0,.021-.005.042.007.04,0-.005-.007a.4.4,0,0,1,.061.024c.1.042-.058-.044.044.025a1.208,1.208,0,0,1,.145.124c0-.2,0-.393,0-.589a1.444,1.444,0,0,1-.253.205c.064-.04-.041.012-.056.018.084-.029-.006,0-.032,0,.116-.008-.065-.029.058.007-.089-.026.045.036,0,0s.06.076,0,0c-.018-.024.028.077,0-.013.036.1.011.03,0,0-.018-.08-.008.054,0,0s-.032.077,0,0c-.012.027-.051.064-.035.051s-.01,0-.027.006c.083-.019-.022.01.1-.007a.639.639,0,0,0,.306-.08.091.091,0,0,0,.036-.085" transform="translate(-502.454 -1131.236)" fill="#9a9d9a"/>
        <path id="Trazado_701825" data-name="Trazado 701825" d="M591.42,1212.538l-.022-.008c.038.014-.018-.01-.031-.016l.062.048a.231.231,0,0,0-.225-.095.377.377,0,0,0-.072.02c.034-.007.043-.01.026-.008a.234.234,0,0,0-.114.046.354.354,0,0,0-.072.428.26.26,0,0,0,.27.159.771.771,0,0,0,.328-.115.268.268,0,0,0,.111-.255.254.254,0,0,0-.34-.2.242.242,0,0,0-.1.367l0,0-.046-.115v0l.016-.124v0l.135-.134c.058-.012.076-.016.052-.014a.2.2,0,0,0-.077.021c-.017.008-.035.013-.052.021s-.044.018-.068.025-.019.006.02,0l-.043.009.271.159c-.009-.018-.016-.035-.023-.053s-.015-.07,0,.009v.04a.268.268,0,0,0,0-.071.277.277,0,0,0-.048-.117c.014.036.029.073.044.11v-.014c-.015.054-.03.108-.044.162.028-.044-.035.025-.006,0a.2.2,0,0,0,.08-.188l0-.006c-.02.047-.04.1-.06.142a.284.284,0,0,0,.044-.042c-.018.024,0,0,.011,0a.112.112,0,0,0-.025-.192" transform="translate(-502.297 -1131.31)" fill="#9a9d9a"/>
        <path id="Trazado_701826" data-name="Trazado 701826" d="M609.807,1216.388a4.392,4.392,0,0,1-.463.438c-1.553,1.266-3.219.624-4.758-.584-.822-.645-2.008-1.476-2.285-2.55a2.586,2.586,0,0,1,.9-2.125,6.249,6.249,0,0,1,1.406-1.153,8.647,8.647,0,0,1,1.592-.691,4.387,4.387,0,0,1,1.544-.244c2.181.157,2.809,1.881,2.883,3.85a9.115,9.115,0,0,1,0,1.538,2.7,2.7,0,0,1-.82,1.521" transform="translate(-503.559 -1130.977)" fill="#6a705e"/>
        <path id="Trazado_701827" data-name="Trazado 701827" d="M610.746,1214.867a4.588,4.588,0,0,1-3.281.7,5.417,5.417,0,0,1-3.613-2.371,2.766,2.766,0,0,1-.529-1.626,6.282,6.282,0,0,1,1.406-1.153,8.6,8.6,0,0,1,1.591-.69,4.365,4.365,0,0,1,1.544-.244c2.182.157,2.809,1.881,2.884,3.85a9.2,9.2,0,0,1,0,1.537" transform="translate(-503.677 -1130.977)" fill="#81857a"/>
        <path id="Trazado_701828" data-name="Trazado 701828" d="M608.77,1210.627c-.027-.327-.428-.412-.694-.336a.556.556,0,0,0-.348.6.663.663,0,0,0,.519.541,1.033,1.033,0,0,0,.87-.328.374.374,0,0,0,.075-.518,1.016,1.016,0,0,0-.8-.414c-.247,0-.657.143-.736.4a.353.353,0,0,0,.189.453.5.5,0,0,0,.407-.027q.045-.021.093-.04c.02-.008.04-.015.06-.021-.045.011-.047.011-.006,0,.021,0,.11,0,.02-.005.042.007.041.005-.005-.007a.4.4,0,0,1,.062.024c.1.042-.058-.043.044.025a1.213,1.213,0,0,1,.145.124q0-.295,0-.589a1.414,1.414,0,0,1-.254.205c.065-.04-.04.012-.056.018.084-.029-.006,0-.032,0,.116-.008-.064-.029.059.008-.089-.027.045.036,0,0s.06.076,0,0c-.019-.023.028.077,0-.013.036.1.011.03,0,0-.018-.08-.008.054,0,0s-.032.076,0,0c-.012.027-.051.064-.035.051s-.01,0-.027.006c.082-.02-.022.01.1-.007a.629.629,0,0,0,.306-.08.1.1,0,0,0,.036-.085" transform="translate(-504.158 -1131.055)" fill="#9a9d9a"/>
        <path id="Trazado_701829" data-name="Trazado 701829" d="M606.716,1210.91l-.022-.008c.038.014-.018-.01-.031-.016l.062.048a.231.231,0,0,0-.225-.1.479.479,0,0,0-.072.019c.034-.006.043-.009.026-.007a.231.231,0,0,0-.114.046.354.354,0,0,0-.072.428.261.261,0,0,0,.27.159.77.77,0,0,0,.328-.115.268.268,0,0,0,.111-.255.254.254,0,0,0-.34-.2.242.242,0,0,0-.1.367l0,0-.046-.115v0c.006-.041.012-.083.017-.123h0l.135-.133c.058-.012.075-.016.052-.014a.2.2,0,0,0-.077.021c-.017.008-.035.013-.052.02s-.044.018-.068.025-.019.006.02,0l-.042.009.27.159a.457.457,0,0,1-.023-.053c-.006-.018-.015-.07,0,.008v.041a.272.272,0,0,0,0-.071.268.268,0,0,0-.049-.117c.015.036.03.073.044.11v-.014c-.015.054-.03.108-.044.162.028-.044-.035.025-.006,0a.2.2,0,0,0,.08-.188l0-.006c-.02.047-.04.1-.06.142a.287.287,0,0,0,.045-.042c-.018.024,0,0,.011,0a.113.113,0,0,0-.025-.192" transform="translate(-504.001 -1131.129)" fill="#9a9d9a"/>
        <path id="Trazado_701830" data-name="Trazado 701830" d="M588.023,1217.837a3.665,3.665,0,0,1-.259.452c-.922,1.358-2.378,1.246-3.868.661a4.738,4.738,0,0,1-2.392-1.463,2.119,2.119,0,0,1,.209-1.879,5.107,5.107,0,0,1,.832-1.234,7.01,7.01,0,0,1,1.085-.916,3.579,3.579,0,0,1,1.153-.554c1.748-.39,2.646.814,3.166,2.341a7.54,7.54,0,0,1,.361,1.206,2.22,2.22,0,0,1-.286,1.385" transform="translate(-501.231 -1131.351)" fill="#6a705e"/>
        <path id="Trazado_701831" data-name="Trazado 701831" d="M588.352,1216.452a3.759,3.759,0,0,1-2.408,1.319,4.439,4.439,0,0,1-3.391-1.01,2.262,2.262,0,0,1-.8-1.152,5.145,5.145,0,0,1,.831-1.234,7.066,7.066,0,0,1,1.085-.915,3.563,3.563,0,0,1,1.154-.555c1.748-.389,2.646.815,3.166,2.341a7.482,7.482,0,0,1,.361,1.207" transform="translate(-501.276 -1131.351)" fill="#81857a"/>
        <path id="Trazado_701832" data-name="Trazado 701832" d="M585.759,1213.707c-.1-.249-.433-.222-.623-.1a.454.454,0,0,0-.132.551.541.541,0,0,0,.534.3.843.843,0,0,0,.605-.462.306.306,0,0,0-.063-.423.827.827,0,0,0-.722-.138c-.194.059-.482.266-.483.487a.289.289,0,0,0,.255.31.412.412,0,0,0,.313-.117c.02-.019.042-.035.064-.053l.042-.031c-.033.02-.034.021,0,0,.015-.008.086-.026.015-.008.035,0,.032-.006-.006-.005a.271.271,0,0,1,.054,0c.088.009-.056-.021.04.009a.864.864,0,0,1,.143.064c-.045-.155-.091-.309-.135-.463a1.209,1.209,0,0,1-.151.22c.041-.046-.028.02-.04.028.059-.044-.005,0-.025.007.089-.034-.058-.01.047-.008-.076,0,.044.017,0,0s.065.046,0,0c-.02-.015.041.052,0-.011.052.073.015.022,0,0-.032-.058.007.045,0,0s-.007.068,0,0c0,.024-.025.062-.015.047s-.007.005-.02.011c.06-.035-.015.013.073-.027a.523.523,0,0,0,.221-.134.079.079,0,0,0,.008-.076" transform="translate(-501.623 -1131.415)" fill="#9a9d9a"/>
        <path id="Trazado_701833" data-name="Trazado 701833" d="M584.208,1214.429l-.02,0c.033,0-.016,0-.028,0l.06.023a.19.19,0,0,0-.2-.021.355.355,0,0,0-.052.031c.025-.012.031-.017.019-.012a.2.2,0,0,0-.078.062.29.29,0,0,0,.044.354.211.211,0,0,0,.249.06.619.619,0,0,0,.23-.166.216.216,0,0,0,.027-.226.207.207,0,0,0-.313-.075.2.2,0,0,0,.006.312h0c-.02-.026-.041-.052-.062-.078v0l-.016-.1v0l.075-.138c.044-.022.055-.029.037-.022a.16.16,0,0,0-.056.035c-.011.011-.024.019-.036.028l-.047.035.015-.009-.032.017.25.061c-.011-.011-.021-.024-.03-.036s-.028-.051,0,.006l.009.033a.2.2,0,0,0-.081-.138l.06.076,0-.01c0,.045,0,.091,0,.137.011-.042-.021.028,0,0a.165.165,0,0,0,.018-.166l0-.005c0,.043-.009.084-.014.126a.236.236,0,0,0,.026-.044c-.009.024,0,0,.006-.005a.091.091,0,0,0-.064-.145" transform="translate(-501.511 -1131.526)" fill="#9a9d9a"/>
        <path id="Trazado_701834" data-name="Trazado 701834" d="M605.091,1225.771c.037,2.255-4.478,2.358-5.967,2.349-1.177-.007-2.807.067-3.8-.668-1.067-.8-.683-3.232-.2-4.335a9.187,9.187,0,0,1,.941-1.646,4.824,4.824,0,0,1,1.207-1.232c2.052-1.311,3.8-.251,5.224,1.384a23.59,23.59,0,0,1,1.8,2.175,3.883,3.883,0,0,1,.8,1.973" transform="translate(-502.711 -1132.11)" fill="#6a705e"/>
        <path id="Trazado_701835" data-name="Trazado 701835" d="M604.444,1223.8c-.274,1.534-1.26,2.1-3.112,2.271-1.363.127-3.109.37-4.238-.568a3.706,3.706,0,0,1-.879-4.031,4.824,4.824,0,0,1,1.207-1.232c2.052-1.311,3.8-.251,5.224,1.384a23.723,23.723,0,0,1,1.8,2.175" transform="translate(-502.859 -1132.11)" fill="#81857a"/>
        <path id="Trazado_701836" data-name="Trazado 701836" d="M599.193,1220.844c-.133-.134-.412-.062-.563.006a.924.924,0,0,0-.461.589.311.311,0,0,0,.151.357,1.1,1.1,0,0,0,1.006.113c.331-.149.466-.575.567-.879a.376.376,0,0,0-.274-.464,1.354,1.354,0,0,0-1.015.153c-.257.176-.578.578-.445.9a.373.373,0,0,0,.534.209.677.677,0,0,0,.252-.332.473.473,0,0,1,.115-.142c-.046.042.058-.03.059-.03-.052.028.076-.02.073-.019a1.039,1.039,0,0,1,.323,0l-.379-.477a3.229,3.229,0,0,1-.117.358c.015-.037-.044.075-.037.064a.577.577,0,0,1-.042.061c.023-.028.02-.026-.008,0,.056-.056-.049.021.028-.01-.04.01-.041.012,0,.008a.477.477,0,0,1-.071,0c.056,0-.074-.014-.07-.014a1.049,1.049,0,0,1-.165-.052l.152.357a.745.745,0,0,1,.218-.4c.084-.084.307-.227.172-.363" transform="translate(-503.098 -1132.209)" fill="#9a9d9a"/>
        <path id="Trazado_701837" data-name="Trazado 701837" d="M600.556,1222.162a.685.685,0,0,0-.126.129.256.256,0,0,0-.025.226.191.191,0,0,0,.365,0l.006-.016,0-.007c-.021.049-.02.045.006-.013,0-.017,0-.035.007-.052s0-.009-.005.033a.072.072,0,0,1,.005-.018c-.021.058-.018.039-.008.023s.028-.036-.01.011c.016-.02.034-.038.051-.057a.18.18,0,0,0,0-.259.2.2,0,0,0-.269,0" transform="translate(-503.35 -1132.384)" fill="#9a9d9a"/>
        <path id="Trazado_701838" data-name="Trazado 701838" d="M627.956,1224.25c.037,2.256-4.478,2.358-5.967,2.349-1.177-.007-2.807.067-3.8-.668-1.067-.8-.683-3.231-.2-4.335a9.226,9.226,0,0,1,.94-1.646,4.835,4.835,0,0,1,1.208-1.232c2.051-1.311,3.8-.251,5.223,1.384a23.521,23.521,0,0,1,1.8,2.176,3.885,3.885,0,0,1,.8,1.973" transform="translate(-505.257 -1131.941)" fill="#6a705e"/>
        <path id="Trazado_701839" data-name="Trazado 701839" d="M627.309,1222.277c-.274,1.534-1.26,2.1-3.112,2.271-1.363.127-3.109.37-4.238-.568a3.706,3.706,0,0,1-.879-4.031,4.817,4.817,0,0,1,1.207-1.232c2.052-1.311,3.8-.251,5.224,1.384a23.806,23.806,0,0,1,1.8,2.176" transform="translate(-505.405 -1131.941)" fill="#81857a"/>
        <path id="Trazado_701840" data-name="Trazado 701840" d="M622.057,1219.323c-.133-.134-.412-.062-.563.006a.924.924,0,0,0-.461.589.311.311,0,0,0,.151.357,1.1,1.1,0,0,0,1.006.113c.331-.149.466-.575.567-.879a.376.376,0,0,0-.274-.464,1.354,1.354,0,0,0-1.015.153c-.257.176-.578.579-.445.9a.372.372,0,0,0,.534.209.671.671,0,0,0,.252-.332.477.477,0,0,1,.115-.142c-.046.042.058-.03.058-.03-.052.028.076-.02.076-.02a1.047,1.047,0,0,1,.32,0l-.379-.477a3.427,3.427,0,0,1-.116.358c.014-.037-.044.075-.038.064a.586.586,0,0,1-.042.061c.023-.027.02-.026-.008,0,.056-.056-.049.021.028-.009-.04.009-.041.011,0,.007a.477.477,0,0,1-.071,0c.056,0-.074-.014-.07-.013a1.226,1.226,0,0,1-.165-.053l.152.357a.74.74,0,0,1,.219-.4c.083-.084.307-.227.171-.363" transform="translate(-505.644 -1132.039)" fill="#9a9d9a"/>
        <path id="Trazado_701841" data-name="Trazado 701841" d="M623.421,1220.641a.666.666,0,0,0-.126.129.251.251,0,0,0-.025.226.192.192,0,0,0,.365,0l.006-.016,0-.007q-.032.073.005-.013c0-.017.005-.035.007-.052s0-.009,0,.032l0-.017c-.02.057-.018.039-.007.022s.028-.035-.01.012c.016-.02.033-.038.051-.057a.181.181,0,0,0,0-.259.2.2,0,0,0-.269,0" transform="translate(-505.896 -1132.215)" fill="#9a9d9a"/>
        <path id="Trazado_701842" data-name="Trazado 701842" d="M590.9,1228.114c-2.773,1.542-6.556-.034-9.131-1.306-3.278-1.621-3.5-4.588-.878-7.185a12.1,12.1,0,0,1,3.773-2.564,3.556,3.556,0,0,1,.621-.163c2.6-.408,3.718,1.935,5.188,3.55.1.109.2.219.3.331a10.805,10.805,0,0,1,1.951,2.923c.635,1.586.407,3.173-1.822,4.414" transform="translate(-500.98 -1131.798)" fill="#6a705e"/>
        <path id="Trazado_701843" data-name="Trazado 701843" d="M593.116,1223.7a2.3,2.3,0,0,1-.174.9c-.555,1.363-1.2,1.024-2.564.952-2.555-.134-5.624.494-7.226-2.105-1.277-2.074-.071-5.08,1.906-6.386a3.482,3.482,0,0,1,.621-.163c2.6-.408,3.718,1.935,5.188,3.55.1.109.2.219.3.331a10.805,10.805,0,0,1,1.951,2.923" transform="translate(-501.372 -1131.798)" fill="#81857a"/>
        <path id="Trazado_701844" data-name="Trazado 701844" d="M586.929,1218.811a.213.213,0,0,1-.046-.011c.035.026.068.052.1.079,0,.126,0,.167.009.123a.145.145,0,0,0,.013-.09.515.515,0,0,0-.027-.13.457.457,0,0,0-.436-.328c-.412.03-.644.41-.826.739a.471.471,0,0,0,.4.7c.053,0,.047,0-.017-.005.037.005.074.014.11.022.076.017.149.039.223.059a1.371,1.371,0,0,0,.6.056,1.044,1.044,0,0,0,.7-1.207.77.77,0,0,0-.709-.665,1.068,1.068,0,0,0-.747.326,1.906,1.906,0,0,0-.7,1.184.665.665,0,0,0,.867.639,1.659,1.659,0,0,0,.893-.7.58.58,0,0,0-.09-.7.592.592,0,0,0-.695-.09q.148-.061-.094.04a.712.712,0,0,0-.166.12l-.131.113c-.131.109.062-.044-.012.009-.029.02-.058.04-.087.058-.05.03-.155.065.06-.02-.1.038.17-.011.1-.011a.564.564,0,0,1,.555.548c-.011-.1-.038.193-.012.088.039-.16-.071.139,0,0,.026-.052.057-.1.088-.155s.073-.109.112-.162c-.134.18.027-.027.069-.071a1.288,1.288,0,0,1,.135-.125c-.208.169.179-.054-.092.052.054-.021.14-.013-.079,0a.644.644,0,0,1-.212-.061.562.562,0,0,1-.142-.145c.065.1-.048-.153-.013-.024.01.043.006.032-.011-.034,0,.04,0,.08.005.12,0,.07,0,.07.007,0a.575.575,0,0,1-.02.077c.1-.141.12-.182.061-.121a.252.252,0,0,1,.123-.076c-.053.013-.038.013.044,0a.92.92,0,0,1-.1,0c-.029,0-.18-.026-.051,0-.051-.009-.1-.02-.151-.029a2.1,2.1,0,0,0-.421-.049l.4.7c.069-.149.14-.3.217-.445.012-.021.025-.042.038-.062q-.055.067-.013.021c-.015.017-.168.082-.085.057a1.308,1.308,0,0,0,.167-.055.208.208,0,0,0,.077-.06l.044-.055c-.023.031-.152.076-.083.069.172-.017.24-.288.044-.323" transform="translate(-501.701 -1131.943)" fill="#9a9d9a"/>
        <path id="Trazado_701845" data-name="Trazado 701845" d="M588.506,1220.574l0,.016.013-.1c-.01.069-.024.137-.032.207,0-.035.01-.069.013-.1a.177.177,0,0,1-.009.036c.012-.031.026-.061.039-.092-.012.026-.029.047-.041.072a1.032,1.032,0,0,0-.063.187.318.318,0,0,0,.387.388.732.732,0,0,0,.2-.072.632.632,0,0,0,.183-.187.478.478,0,0,0,.065-.351.406.406,0,0,0-.11-.266.375.375,0,0,0-.531,0,.416.416,0,0,0-.11.266" transform="translate(-502.017 -1132.171)" fill="#9a9d9a"/>
        <path id="Trazado_701846" data-name="Trazado 701846" d="M616.837,1227.127c-1.727.961-4.083-.021-5.687-.813-2.041-1.01-2.179-2.858-.547-4.475a7.548,7.548,0,0,1,2.35-1.6,2.214,2.214,0,0,1,.387-.1c1.622-.254,2.316,1.205,3.231,2.211.062.068.124.137.185.206a6.743,6.743,0,0,1,1.216,1.821,2.011,2.011,0,0,1-1.135,2.749" transform="translate(-504.363 -1132.161)" fill="#6a705e"/>
        <path id="Trazado_701847" data-name="Trazado 701847" d="M618.216,1224.377a1.439,1.439,0,0,1-.108.56c-.346.849-.746.637-1.6.593-1.591-.084-3.5.307-4.5-1.312-.8-1.291-.045-3.164,1.186-3.977a2.165,2.165,0,0,1,.387-.1c1.622-.254,2.315,1.206,3.23,2.212.062.068.124.136.185.205a6.729,6.729,0,0,1,1.216,1.821" transform="translate(-504.608 -1132.161)" fill="#81857a"/>
        <path id="Trazado_701848" data-name="Trazado 701848" d="M614.363,1221.333a.128.128,0,0,1-.029-.007l.064.05c0,.079,0,.1.005.076a.087.087,0,0,0,.009-.056.343.343,0,0,0-.017-.081.285.285,0,0,0-.272-.2c-.257.02-.4.256-.515.46a.3.3,0,0,0,.252.437c.033,0,.029,0-.011,0a.633.633,0,0,1,.068.013c.047.011.092.025.139.037a.843.843,0,0,0,.376.034.649.649,0,0,0,.435-.751.48.48,0,0,0-.442-.414.66.66,0,0,0-.466.2,1.182,1.182,0,0,0-.437.737.414.414,0,0,0,.54.4,1.028,1.028,0,0,0,.555-.437.358.358,0,0,0-.055-.432.368.368,0,0,0-.433-.056l-.059.025a.428.428,0,0,0-.1.075l-.082.07c-.082.067.038-.028-.007.005a.518.518,0,0,1-.054.036c-.031.02-.1.041.038-.011-.061.023.106-.007.063-.007a.351.351,0,0,1,.346.341c-.006-.06-.023.121-.007.055.024-.1-.044.086,0,0,.017-.033.036-.065.055-.1s.045-.068.069-.1c-.083.113.017-.016.044-.044a.88.88,0,0,1,.083-.077c-.129.1.111-.034-.058.032.035-.013.088-.009-.049,0a.407.407,0,0,1-.132-.038.367.367,0,0,1-.089-.09c.041.059-.029-.1-.008-.016.006.027,0,.02-.006-.021q0,.037,0,.075c0,.043,0,.043,0,0a.314.314,0,0,1-.012.048c.062-.089.075-.114.038-.075a.156.156,0,0,1,.076-.047c-.033.008-.023.007.028,0a.4.4,0,0,1-.061,0c-.019,0-.114-.016-.032,0l-.094-.019a1.282,1.282,0,0,0-.262-.03l.251.437c.043-.093.087-.187.135-.277a.429.429,0,0,1,.024-.039c-.023.028-.026.032-.009.013-.01.011-.1.051-.052.036a.89.89,0,0,0,.1-.034.136.136,0,0,0,.049-.037l.027-.035c-.014.02-.094.048-.052.043.107-.01.149-.179.028-.2" transform="translate(-504.813 -1132.252)" fill="#9a9d9a"/>
        <path id="Trazado_701849" data-name="Trazado 701849" d="M615.346,1222.431l0,.01c0-.02.006-.041.009-.062-.006.043-.015.085-.02.129l.008-.065a.185.185,0,0,1-.005.022l.024-.057c-.007.016-.018.029-.025.045a.6.6,0,0,0-.04.116.2.2,0,0,0,.242.241.464.464,0,0,0,.123-.044.384.384,0,0,0,.114-.116.3.3,0,0,0,.041-.219.257.257,0,0,0-.068-.165.233.233,0,0,0-.332,0,.257.257,0,0,0-.068.165" transform="translate(-505.009 -1132.394)" fill="#9a9d9a"/>
        <path id="Trazado_701850" data-name="Trazado 701850" d="M604.339,1218.162c-.956,1.729-3.475,2.145-5.255,2.322-2.267.225-3.362-1.269-2.834-3.506a7.542,7.542,0,0,1,1.147-2.6,2.294,2.294,0,0,1,.275-.292c1.241-1.074,2.6-.2,3.912.164.089.025.178.051.266.077a6.729,6.729,0,0,1,2,.9,2.01,2.01,0,0,1,.493,2.933" transform="translate(-502.875 -1131.433)" fill="#6a705e"/>
        <path id="Trazado_701851" data-name="Trazado 701851" d="M603.97,1215.229a1.431,1.431,0,0,1,.2.532c.156.9-.3.936-1.041,1.348-1.393.772-2.808,2.117-4.512,1.272-1.359-.675-1.713-2.66-1.1-4a2.127,2.127,0,0,1,.275-.292c1.241-1.075,2.6-.2,3.912.164l.266.077a6.713,6.713,0,0,1,2,.9" transform="translate(-502.999 -1131.433)" fill="#81857a"/>
        <path id="Trazado_701852" data-name="Trazado 701852" d="M599.007,1214.809a.149.149,0,0,1-.028.01l.081.008c.039.068.053.089.044.062s0-.021-.022-.052a.367.367,0,0,0-.057-.06.285.285,0,0,0-.339-.029.722.722,0,0,0-.193.663.294.294,0,0,0,.444.237c.029-.015.026-.014-.011,0,.021-.01.044-.017.066-.025.045-.015.091-.028.137-.042a.856.856,0,0,0,.337-.17.652.652,0,0,0-.029-.868.481.481,0,0,0-.594-.116.666.666,0,0,0-.287.418,1.189,1.189,0,0,0,.02.858.414.414,0,0,0,.669.051,1.034,1.034,0,0,0,.24-.665.36.36,0,0,0-.276-.338.368.368,0,0,0-.4.182l-.036.052a.424.424,0,0,0-.049.118c-.01.034-.02.068-.032.1-.033.1.018-.043,0,.009-.009.02-.018.04-.028.06s-.06.084.026-.031c-.039.052.086-.061.051-.039a.35.35,0,0,1,.474.107c-.036-.047.044.115.023.051-.032-.1.008.1,0,0,0-.036,0-.074,0-.11s0-.082.005-.123c-.012.14.005-.023.013-.061a.989.989,0,0,1,.03-.11c-.054.158.076-.088-.032.058.021-.029.07-.053-.04.029a.392.392,0,0,1-.132.037.362.362,0,0,1-.123-.029c.066.028-.076-.066-.015-.009.02.02.014.015-.016-.014.014.021.029.041.042.062.02.038.022.037,0,0a.284.284,0,0,1,.014.047c.006-.109,0-.136-.007-.084a.155.155,0,0,1,.04-.081c-.024.024-.016.02.023-.015a.4.4,0,0,1-.052.035c-.016.01-.1.046-.027.016l-.09.034a1.3,1.3,0,0,0-.238.114l.443.237c-.012-.1-.024-.2-.031-.307a.386.386,0,0,1,0-.045q-.007.053,0,.016c0,.014-.062.1-.026.058a1.05,1.05,0,0,0,.069-.084.134.134,0,0,0,.021-.058c0-.014,0-.028,0-.043,0,.024-.055.09-.02.064.084-.066.032-.232-.084-.186" transform="translate(-503.138 -1131.523)" fill="#9a9d9a"/>
        <path id="Trazado_701853" data-name="Trazado 701853" d="M600.388,1215.262l0,.01-.026-.058c.018.04.032.08.051.119l-.027-.059a.094.094,0,0,1,.007.022c0-.02-.007-.041-.01-.061,0,.017,0,.034,0,.051a.767.767,0,0,0,.028.12.2.2,0,0,0,.333.076.5.5,0,0,0,.081-.1.41.41,0,0,0,.035-.159.3.3,0,0,0-.082-.207.254.254,0,0,0-.146-.1.234.234,0,0,0-.281.175.251.251,0,0,0,.029.177" transform="translate(-503.346 -1131.582)" fill="#9a9d9a"/>
        <path id="Trazado_701854" data-name="Trazado 701854" d="M577.977,1223.747a4.675,4.675,0,0,1-.1.672c-.483,2.084-2.309,2.63-4.4,2.617-1.115-.008-2.661.066-3.6-.659a2.76,2.76,0,0,1-.627-2.383,6.691,6.691,0,0,1,.433-1.891,9.24,9.24,0,0,1,.891-1.623,4.661,4.661,0,0,1,1.144-1.215c1.944-1.292,3.6-.248,4.948,1.364a9.769,9.769,0,0,1,1,1.3,2.892,2.892,0,0,1,.3,1.819" transform="translate(-499.881 -1132.003)" fill="#6a705e"/>
        <path id="Trazado_701855" data-name="Trazado 701855" d="M577.679,1221.927a4.9,4.9,0,0,1-2.312,2.733,5.788,5.788,0,0,1-4.6.36,2.955,2.955,0,0,1-1.509-1.027,6.693,6.693,0,0,1,.433-1.891,9.122,9.122,0,0,1,.891-1.623,4.643,4.643,0,0,1,1.144-1.215c1.943-1.293,3.6-.248,4.948,1.364a9.794,9.794,0,0,1,1,1.3" transform="translate(-499.884 -1132.003)" fill="#81857a"/>
        <path id="Trazado_701856" data-name="Trazado 701856" d="M573.1,1220c-.235-.259-.631-.068-.805.17a.593.593,0,0,0,.1.732.706.706,0,0,0,.792.118,1.107,1.107,0,0,0,.52-.846.4.4,0,0,0-.275-.485,1.082,1.082,0,0,0-.942.171c-.209.164-.461.55-.36.818a.376.376,0,0,0,.455.259.533.533,0,0,0,.326-.289c.017-.032.035-.063.052-.094s.024-.039.037-.058c-.031.038-.032.041,0,.006.014-.017.092-.072.013-.018.04-.021.037-.022-.009,0a.429.429,0,0,1,.068-.021c.111-.03-.077,0,.053-.007a1.112,1.112,0,0,1,.2.011q-.189-.25-.38-.5a1.576,1.576,0,0,1-.08.339c.028-.075-.027.036-.036.052.051-.079-.007,0-.028.021.092-.083-.074.017.053-.032-.092.036.062,0,0,0s.1.025.006,0c-.031-.008.074.045-.012-.01.1.064.029.019.005,0-.067-.056.029.051,0,.005s.023.085,0,0c.007.03,0,.087,0,.066s-.006.008-.019.023c.057-.071-.012.022.076-.069a.681.681,0,0,0,.205-.267.1.1,0,0,0-.025-.1" transform="translate(-500.201 -1132.11)" fill="#9a9d9a"/>
        <path id="Trazado_701857" data-name="Trazado 701857" d="M571.537,1221.624l-.025.008c.042-.013-.021,0-.036.006h.084a.25.25,0,0,0-.252.067.549.549,0,0,0-.048.062c.025-.028.03-.035.018-.023a.261.261,0,0,0-.067.113.379.379,0,0,0,.219.41.277.277,0,0,0,.331-.044.811.811,0,0,0,.2-.31.287.287,0,0,0-.074-.288.271.271,0,0,0-.416.056.258.258,0,0,0,.154.376l0,0-.115-.067h0l-.067-.115v0l.027-.2c.042-.047.053-.062.034-.045a.213.213,0,0,0-.051.068.5.5,0,0,1-.031.052c-.013.022-.026.044-.041.065s-.012.018.015-.017l-.03.036.332-.043c-.019-.01-.036-.02-.053-.03s-.06-.049.005.007l.027.035a.3.3,0,0,0-.045-.061.285.285,0,0,0-.118-.068l.109.063-.009-.011.068.165c-.006-.056-.013.044,0,.005a.214.214,0,0,0-.056-.211l-.006,0c.014.052.029.106.042.16a.287.287,0,0,0,.011-.065c0,.032,0,0,.005-.011a.119.119,0,0,0-.146-.146" transform="translate(-500.1 -1132.322)" fill="#9a9d9a"/>
        <path id="Trazado_701858" data-name="Trazado 701858" d="M610.373,1221.832a3.643,3.643,0,0,1-.08.516c-.371,1.6-1.77,2.017-3.372,2.007a4.734,4.734,0,0,1-2.757-.506,2.116,2.116,0,0,1-.481-1.828,5.1,5.1,0,0,1,.332-1.451,7.005,7.005,0,0,1,.683-1.244,3.556,3.556,0,0,1,.877-.932c1.491-.992,2.762-.19,3.8,1.047a7.437,7.437,0,0,1,.77,1,2.215,2.215,0,0,1,.231,1.4" transform="translate(-503.715 -1131.921)" fill="#6a705e"/>
        <path id="Trazado_701859" data-name="Trazado 701859" d="M610.145,1220.437a3.762,3.762,0,0,1-1.774,2.1,4.438,4.438,0,0,1-3.528.275,2.267,2.267,0,0,1-1.157-.787,5.13,5.13,0,0,1,.332-1.451,7.073,7.073,0,0,1,.684-1.244,3.557,3.557,0,0,1,.877-.932c1.491-.992,2.761-.19,3.8,1.046a7.441,7.441,0,0,1,.771,1" transform="translate(-503.717 -1131.921)" fill="#81857a"/>
        <path id="Trazado_701860" data-name="Trazado 701860" d="M606.633,1218.956c-.18-.2-.484-.052-.618.13a.455.455,0,0,0,.074.562.543.543,0,0,0,.608.091.847.847,0,0,0,.4-.648.308.308,0,0,0-.211-.373.834.834,0,0,0-.723.132c-.159.125-.353.421-.276.627a.288.288,0,0,0,.349.2.408.408,0,0,0,.25-.221c.013-.025.027-.048.041-.072s.019-.03.028-.044q-.036.044,0,.005c.012-.013.072-.056.011-.014.031-.017.029-.017-.007,0a.349.349,0,0,1,.052-.015c.085-.023-.06,0,.041-.005a.911.911,0,0,1,.156.008l-.292-.384a1.125,1.125,0,0,1-.061.26c.021-.058-.02.028-.028.04.04-.06,0,0-.02.016.071-.064-.057.012.041-.025-.071.028.048,0,0,0s.076.02,0,0c-.024-.006.057.036-.008-.008.075.05.022.015,0,0-.052-.044.021.039,0,0s.018.066,0,0c.005.023,0,.067,0,.051s0,.006-.013.017c.044-.054-.01.018.058-.052a.525.525,0,0,0,.158-.205.077.077,0,0,0-.02-.073" transform="translate(-503.96 -1132.003)" fill="#9a9d9a"/>
        <path id="Trazado_701861" data-name="Trazado 701861" d="M605.433,1220.2l-.019.005c.032-.01-.017,0-.028.006h.065a.19.19,0,0,0-.194.051.447.447,0,0,0-.036.048c.019-.02.023-.026.012-.018a.2.2,0,0,0-.05.087.289.289,0,0,0,.168.314.211.211,0,0,0,.254-.033.616.616,0,0,0,.155-.238.217.217,0,0,0-.056-.22.207.207,0,0,0-.319.043.2.2,0,0,0,.118.289h0l-.087-.051h0c-.018-.029-.035-.059-.052-.088v0c.007-.052.013-.1.02-.155.032-.036.041-.048.026-.035a.166.166,0,0,0-.039.052c-.006.013-.016.026-.023.039s-.02.034-.031.05-.01.014.011-.012l-.023.027.254-.033a.365.365,0,0,1-.041-.023c-.012-.008-.045-.037,0,.005l.02.027a.231.231,0,0,0-.036-.047.217.217,0,0,0-.09-.052l.084.049-.008-.009.053.127c-.005-.043-.011.034,0,0a.167.167,0,0,0-.043-.163l0,0c.011.042.021.083.032.123a.243.243,0,0,0,.008-.049c0,.025,0,0,0-.008a.092.092,0,0,0-.112-.112" transform="translate(-503.883 -1132.166)" fill="#9a9d9a"/>
        <path id="Trazado_701862" data-name="Trazado 701862" d="M587.482,1213.108a3.661,3.661,0,0,1-.08.516c-.371,1.6-1.771,2.017-3.372,2.007a4.738,4.738,0,0,1-2.758-.506,2.117,2.117,0,0,1-.48-1.828,5.14,5.14,0,0,1,.331-1.451,7.118,7.118,0,0,1,.684-1.245,3.569,3.569,0,0,1,.877-.931c1.491-.992,2.761-.19,3.8,1.047a7.464,7.464,0,0,1,.77,1,2.22,2.22,0,0,1,.231,1.4" transform="translate(-501.167 -1130.949)" fill="#6a705e"/>
        <path id="Trazado_701863" data-name="Trazado 701863" d="M587.253,1211.713a3.761,3.761,0,0,1-1.774,2.1,4.438,4.438,0,0,1-3.528.276,2.268,2.268,0,0,1-1.157-.787,5.136,5.136,0,0,1,.331-1.451,7.118,7.118,0,0,1,.684-1.245,3.567,3.567,0,0,1,.877-.931c1.491-.992,2.761-.19,3.8,1.047a7.465,7.465,0,0,1,.77,1" transform="translate(-501.169 -1130.949)" fill="#81857a"/>
        <path id="Trazado_701864" data-name="Trazado 701864" d="M583.742,1210.233c-.18-.2-.483-.052-.618.13a.455.455,0,0,0,.075.562.541.541,0,0,0,.607.091.847.847,0,0,0,.4-.648.307.307,0,0,0-.211-.373.835.835,0,0,0-.722.132c-.16.125-.354.421-.276.627a.288.288,0,0,0,.349.2.412.412,0,0,0,.251-.221c.012-.025.026-.048.04-.072s.019-.03.028-.044c-.024.029-.025.031,0,.005s.071-.056.011-.014c.03-.016.028-.017-.008,0a.287.287,0,0,1,.052-.016c.085-.023-.06,0,.041-.005a.924.924,0,0,1,.156.008l-.292-.384a1.166,1.166,0,0,1-.062.259c.022-.058-.02.028-.027.04.039-.06-.005,0-.021.016.071-.064-.056.012.041-.025-.07.028.048,0,0,0s.077.02,0,0c-.023-.007.057.035-.008-.009.075.05.022.015,0,0-.052-.044.021.039,0,0s.018.066,0,0c.006.023,0,.067,0,.051s-.005.006-.014.017c.044-.053-.009.018.058-.052a.508.508,0,0,0,.158-.205.077.077,0,0,0-.02-.073" transform="translate(-501.412 -1131.032)" fill="#9a9d9a"/>
        <path id="Trazado_701865" data-name="Trazado 701865" d="M582.542,1211.481l-.019.006c.032-.011-.017,0-.028.005h.064a.191.191,0,0,0-.194.051.375.375,0,0,0-.036.049c.019-.021.022-.028.012-.019a.21.21,0,0,0-.051.087.291.291,0,0,0,.169.314.211.211,0,0,0,.254-.033.614.614,0,0,0,.155-.238.219.219,0,0,0-.056-.22.206.206,0,0,0-.318.042.2.2,0,0,0,.117.289h0l-.088-.052h0l-.051-.088v0c.007-.052.013-.1.02-.155.032-.036.041-.048.026-.035a.165.165,0,0,0-.039.052c-.006.013-.016.026-.023.039s-.02.034-.031.05-.01.014.011-.012l-.023.027.254-.033a.442.442,0,0,1-.041-.023c-.012-.008-.045-.037,0,.005l.02.027a.228.228,0,0,0-.036-.047.214.214,0,0,0-.09-.052l.084.049-.008-.009c.018.042.036.084.052.127,0-.043-.009.034,0,0a.167.167,0,0,0-.043-.163l0,0,.032.124a.2.2,0,0,0,.008-.05c0,.025,0,0,0-.008a.092.092,0,0,0-.112-.112" transform="translate(-501.334 -1131.195)" fill="#9a9d9a"/>
        <path id="Trazado_701866" data-name="Trazado 701866" d="M581.987,1218.408a3.642,3.642,0,0,1-.079.515c-.371,1.6-1.771,2.017-3.372,2.007a4.734,4.734,0,0,1-2.757-.506,2.117,2.117,0,0,1-.481-1.828,5.133,5.133,0,0,1,.332-1.451,7.045,7.045,0,0,1,.683-1.245,3.552,3.552,0,0,1,.878-.931c1.49-.992,2.761-.19,3.8,1.046a7.5,7.5,0,0,1,.77,1,2.216,2.216,0,0,1,.231,1.4" transform="translate(-500.555 -1131.54)" fill="#6a705e"/>
        <path id="Trazado_701867" data-name="Trazado 701867" d="M581.758,1217.013a3.761,3.761,0,0,1-1.774,2.1,4.437,4.437,0,0,1-3.528.276,2.274,2.274,0,0,1-1.158-.787,5.163,5.163,0,0,1,.332-1.451,7.113,7.113,0,0,1,.684-1.245,3.549,3.549,0,0,1,.877-.931c1.491-.992,2.761-.19,3.8,1.047a7.468,7.468,0,0,1,.77,1" transform="translate(-500.557 -1131.54)" fill="#81857a"/>
        <path id="Trazado_701868" data-name="Trazado 701868" d="M578.247,1215.532c-.18-.2-.483-.052-.618.13a.455.455,0,0,0,.075.562.541.541,0,0,0,.607.091.845.845,0,0,0,.4-.648.307.307,0,0,0-.212-.373.835.835,0,0,0-.722.132c-.16.125-.354.421-.276.627a.289.289,0,0,0,.349.2.41.41,0,0,0,.251-.221c.012-.025.027-.048.04-.072s.019-.03.028-.044c-.024.029-.025.031,0,.005s.071-.056.011-.014c.03-.016.029-.017-.007,0a.248.248,0,0,1,.052-.016c.086-.023-.059,0,.041-.005a.9.9,0,0,1,.156.008l-.292-.384a1.165,1.165,0,0,1-.062.26c.022-.058-.02.028-.027.04.039-.06-.005,0-.021.016.071-.064-.056.012.042-.025-.071.028.047,0,0,0s.077.02,0,0c-.024-.007.057.035-.008-.009.076.05.022.015,0,0-.052-.044.021.039,0,0s.018.066,0,0c.006.023,0,.067,0,.051s-.005.006-.014.017c.044-.053-.01.018.058-.052a.508.508,0,0,0,.158-.205.075.075,0,0,0-.02-.073" transform="translate(-500.8 -1131.622)" fill="#9a9d9a"/>
        <path id="Trazado_701869" data-name="Trazado 701869" d="M577.047,1216.78l-.019.006c.032-.011-.017,0-.028.005h.065a.19.19,0,0,0-.194.051.373.373,0,0,0-.036.049c.019-.021.023-.028.012-.019a.2.2,0,0,0-.05.087.289.289,0,0,0,.168.314.211.211,0,0,0,.254-.033.627.627,0,0,0,.156-.238.217.217,0,0,0-.057-.22.206.206,0,0,0-.318.043.2.2,0,0,0,.117.289h0l-.088-.052h0c-.016-.029-.034-.059-.051-.088h0c.007-.051.013-.1.02-.154.032-.036.041-.048.026-.035a.165.165,0,0,0-.039.052c-.006.013-.016.026-.023.039s-.02.034-.031.05-.01.014.011-.012l-.023.027.254-.033a.432.432,0,0,1-.041-.023c-.012-.008-.044-.037,0,.005l.02.027a.261.261,0,0,0-.035-.047.225.225,0,0,0-.091-.052l.084.049-.008-.009c.018.043.036.084.052.127,0-.043-.01.034,0,0a.167.167,0,0,0-.043-.163l0,0,.032.124a.252.252,0,0,0,.008-.05c0,.025,0,0,0-.008a.092.092,0,0,0-.112-.112" transform="translate(-500.723 -1131.784)" fill="#9a9d9a"/>
        <path id="Trazado_701870" data-name="Trazado 701870" d="M621.094,1216.553a3.782,3.782,0,0,1-.079.515c-.371,1.6-1.772,2.017-3.372,2.007a4.734,4.734,0,0,1-2.758-.506,2.114,2.114,0,0,1-.481-1.828,5.1,5.1,0,0,1,.332-1.451,7.045,7.045,0,0,1,.683-1.245,3.563,3.563,0,0,1,.877-.931c1.491-.992,2.761-.19,3.8,1.046a7.451,7.451,0,0,1,.771,1,2.216,2.216,0,0,1,.231,1.4" transform="translate(-504.909 -1131.333)" fill="#6a705e"/>
        <path id="Trazado_701871" data-name="Trazado 701871" d="M620.865,1215.158a3.761,3.761,0,0,1-1.774,2.1,4.438,4.438,0,0,1-3.528.276,2.262,2.262,0,0,1-1.157-.787,5.133,5.133,0,0,1,.331-1.451,7.113,7.113,0,0,1,.684-1.245,3.549,3.549,0,0,1,.877-.931c1.491-.992,2.761-.19,3.8,1.047a7.4,7.4,0,0,1,.771,1" transform="translate(-504.911 -1131.333)" fill="#81857a"/>
        <path id="Trazado_701872" data-name="Trazado 701872" d="M617.354,1213.677c-.18-.2-.483-.052-.618.13a.457.457,0,0,0,.074.563.546.546,0,0,0,.608.091.85.85,0,0,0,.4-.649.306.306,0,0,0-.212-.373.834.834,0,0,0-.722.132c-.16.125-.354.421-.276.627a.289.289,0,0,0,.349.2.4.4,0,0,0,.25-.221l.041-.072c.009-.015.019-.03.029-.044-.024.029-.025.031,0,.005s.071-.056.011-.014q.045-.024-.008,0a.352.352,0,0,1,.052-.015c.085-.023-.06,0,.041-.005a.905.905,0,0,1,.156.008l-.292-.384a1.185,1.185,0,0,1-.062.26c.022-.058-.02.028-.028.039.04-.06,0,0-.02.016.071-.064-.056.012.041-.025-.07.028.048,0,0,0s.077.02,0,0c-.024-.007.057.035-.008-.009.075.05.022.015,0,0-.052-.044.021.039,0,0s.018.066,0,0c.006.024,0,.067,0,.051s-.005.006-.014.018c.044-.054-.01.017.058-.053a.523.523,0,0,0,.158-.205.076.076,0,0,0-.02-.073" transform="translate(-505.154 -1131.416)" fill="#9a9d9a"/>
        <path id="Trazado_701873" data-name="Trazado 701873" d="M616.154,1214.925l-.019.005c.032-.01-.016,0-.028.006h.064a.19.19,0,0,0-.194.051.5.5,0,0,0-.036.049c.019-.021.023-.028.013-.019a.187.187,0,0,0-.051.087.29.29,0,0,0,.168.314.212.212,0,0,0,.255-.033.622.622,0,0,0,.155-.238.217.217,0,0,0-.057-.22.206.206,0,0,0-.318.043.2.2,0,0,0,.117.288h0l-.088-.051h0l-.052-.088h0c.007-.051.013-.1.02-.154.032-.036.041-.048.026-.035a.167.167,0,0,0-.039.052c-.006.013-.016.026-.023.039s-.02.034-.031.05-.01.014.011-.012l-.023.027.255-.033a.293.293,0,0,1-.042-.023c-.013-.008-.045-.037,0,.005l.02.027a.262.262,0,0,0-.035-.047.217.217,0,0,0-.091-.052l.084.049-.008-.009.053.127c-.005-.043-.01.034,0,0a.167.167,0,0,0-.043-.163l0,0c.011.042.021.083.033.124a.259.259,0,0,0,.007-.05c0,.025,0,0,0-.008a.091.091,0,0,0-.112-.112" transform="translate(-505.077 -1131.578)" fill="#9a9d9a"/>
        <path id="Trazado_701874" data-name="Trazado 701874" d="M597.07,1220.977a2.959,2.959,0,0,1-.062.4c-.292,1.254-1.39,1.583-2.646,1.575a3.715,3.715,0,0,1-2.164-.4,1.666,1.666,0,0,1-.377-1.434,4.056,4.056,0,0,1,.26-1.138,5.6,5.6,0,0,1,.537-.977,2.817,2.817,0,0,1,.688-.73c1.17-.778,2.167-.149,2.978.821a5.857,5.857,0,0,1,.6.781,1.735,1.735,0,0,1,.181,1.095" transform="translate(-502.395 -1131.919)" fill="#6a705e"/>
        <path id="Trazado_701875" data-name="Trazado 701875" d="M596.89,1219.882a2.948,2.948,0,0,1-1.392,1.644,3.482,3.482,0,0,1-2.767.217,1.773,1.773,0,0,1-.908-.618,4.018,4.018,0,0,1,.26-1.138,5.562,5.562,0,0,1,.537-.977,2.8,2.8,0,0,1,.688-.73c1.169-.778,2.167-.15,2.978.82a5.865,5.865,0,0,1,.6.782" transform="translate(-502.397 -1131.919)" fill="#81857a"/>
        <path id="Trazado_701876" data-name="Trazado 701876" d="M594.136,1218.721c-.141-.156-.379-.041-.484.1a.356.356,0,0,0,.059.441.425.425,0,0,0,.475.071.665.665,0,0,0,.314-.509.241.241,0,0,0-.166-.292.653.653,0,0,0-.567.1c-.125.1-.277.331-.217.492a.227.227,0,0,0,.275.156.32.32,0,0,0,.2-.173l.032-.057.022-.035c-.019.023-.02.024,0,0s.056-.044.009-.011c.024-.012.022-.013-.006,0a.337.337,0,0,1,.041-.012c.068-.018-.046,0,.032,0a.808.808,0,0,1,.123.005l-.229-.3a.984.984,0,0,1-.048.2c.017-.045-.016.022-.021.031.03-.048,0,0-.017.012.056-.05-.044.01.032-.019-.055.021.038,0,0,0s.06.015,0,0c-.019-.005.044.027-.007-.006.06.039.018.012,0,0-.041-.034.017.031,0,0s.014.052,0,0c0,.019,0,.052,0,.04s0,0-.011.013c.034-.042-.008.013.045-.041a.4.4,0,0,0,.124-.161.058.058,0,0,0-.015-.058" transform="translate(-502.587 -1131.983)" fill="#9a9d9a"/>
        <path id="Trazado_701877" data-name="Trazado 701877" d="M593.195,1219.7l-.015,0c.026-.008-.012,0-.021,0h.051a.15.15,0,0,0-.152.04.3.3,0,0,0-.028.038c.014-.017.018-.021.01-.014a.144.144,0,0,0-.04.068.227.227,0,0,0,.132.245.166.166,0,0,0,.2-.026.485.485,0,0,0,.121-.187.172.172,0,0,0-.044-.173.164.164,0,0,0-.251.034.156.156,0,0,0,.092.227h0c-.022-.013-.045-.028-.068-.04h0l-.04-.068h0l.016-.122c.025-.028.032-.037.02-.027a.15.15,0,0,0-.031.041c-.005.011-.012.02-.019.031a.363.363,0,0,1-.024.039c-.011.014-.007.011.009-.011l-.019.021.2-.026a.278.278,0,0,1-.032-.018c-.011-.006-.036-.029,0,0l.015.02a.155.155,0,0,0-.027-.036.169.169,0,0,0-.071-.041l.066.038-.005-.006c.013.033.027.066.041.1,0-.034-.008.026,0,0a.131.131,0,0,0-.033-.127l0,0c.008.032.017.064.025.1a.2.2,0,0,0,.006-.038c0,.02,0,0,0-.006a.072.072,0,0,0-.088-.088" transform="translate(-502.527 -1132.111)" fill="#9a9d9a"/>
        <path id="Trazado_701878" data-name="Trazado 701878" d="M575.3,1216.944a2.838,2.838,0,0,1-.062.4c-.292,1.254-1.39,1.583-2.646,1.575a3.71,3.71,0,0,1-2.163-.4,1.663,1.663,0,0,1-.378-1.434,4.028,4.028,0,0,1,.261-1.138,5.525,5.525,0,0,1,.536-.977,2.8,2.8,0,0,1,.689-.73c1.169-.778,2.166-.149,2.977.821a5.856,5.856,0,0,1,.6.781,1.735,1.735,0,0,1,.181,1.095" transform="translate(-499.971 -1131.47)" fill="#6a705e"/>
        <path id="Trazado_701879" data-name="Trazado 701879" d="M575.123,1215.85a2.95,2.95,0,0,1-1.392,1.644,3.481,3.481,0,0,1-2.767.217,1.773,1.773,0,0,1-.908-.618,4.017,4.017,0,0,1,.26-1.138,5.554,5.554,0,0,1,.537-.977,2.82,2.82,0,0,1,.688-.731c1.169-.778,2.167-.149,2.978.821a5.857,5.857,0,0,1,.6.782" transform="translate(-499.973 -1131.47)" fill="#81857a"/>
        <path id="Trazado_701880" data-name="Trazado 701880" d="M572.369,1214.688c-.142-.156-.379-.041-.484.1a.357.357,0,0,0,.058.441.427.427,0,0,0,.476.071.667.667,0,0,0,.314-.509.241.241,0,0,0-.166-.292.653.653,0,0,0-.567.1c-.125.1-.277.331-.217.492a.227.227,0,0,0,.275.156.324.324,0,0,0,.2-.173c.01-.02.02-.038.031-.057l.022-.035c-.019.023-.02.024,0,0s.056-.043.009-.011c.024-.012.022-.013-.006,0a.3.3,0,0,1,.041-.012c.068-.018-.046,0,.032,0a.842.842,0,0,1,.123.005l-.229-.3a.984.984,0,0,1-.048.2c.017-.045-.016.022-.022.031.031-.048,0,0-.016.013.056-.05-.044.01.032-.02-.055.021.038,0,0,0s.06.015,0,0c-.02-.005.043.028-.007-.006.06.039.018.012,0,0-.041-.034.017.031,0,0s.014.052,0,0c0,.019,0,.052,0,.04s0,0-.012.013c.035-.043-.007.013.046-.041a.407.407,0,0,0,.123-.161.06.06,0,0,0-.015-.058" transform="translate(-500.164 -1131.534)" fill="#9a9d9a"/>
        <path id="Trazado_701881" data-name="Trazado 701881" d="M571.428,1215.668l-.015,0c.025-.008-.012,0-.021,0h.05a.149.149,0,0,0-.151.04.317.317,0,0,0-.028.038c.014-.017.018-.021.01-.014a.153.153,0,0,0-.04.068.228.228,0,0,0,.132.245.165.165,0,0,0,.2-.026.494.494,0,0,0,.121-.187.172.172,0,0,0-.044-.173.163.163,0,0,0-.251.034.155.155,0,0,0,.092.227h0l-.068-.04h0l-.04-.068h0l.016-.122c.025-.028.032-.037.021-.027a.125.125,0,0,0-.031.041.269.269,0,0,1-.019.031.349.349,0,0,1-.024.039c-.011.014-.007.011.009-.011l-.019.021.2-.026-.032-.018c-.011-.006-.036-.029,0,0l.015.021a.153.153,0,0,0-.027-.036.168.168,0,0,0-.071-.041l.066.038-.005-.006c.013.033.027.066.041.1,0-.033-.008.027,0,0a.129.129,0,0,0-.034-.127l0,0c.008.032.017.064.025.1a.205.205,0,0,0,.006-.038c0,.02,0,0,0-.006a.072.072,0,0,0-.088-.088" transform="translate(-500.103 -1131.662)" fill="#9a9d9a"/>
        <path id="Trazado_701882" data-name="Trazado 701882" d="M600.779,1212.683a2.959,2.959,0,0,1-.062.4c-.292,1.254-1.39,1.583-2.646,1.575a3.714,3.714,0,0,1-2.164-.4,1.665,1.665,0,0,1-.377-1.434,4.028,4.028,0,0,1,.261-1.138,5.521,5.521,0,0,1,.536-.977,2.8,2.8,0,0,1,.689-.73c1.169-.778,2.166-.149,2.977.821a5.869,5.869,0,0,1,.6.781,1.736,1.736,0,0,1,.181,1.095" transform="translate(-502.808 -1130.995)" fill="#6a705e"/>
        <path id="Trazado_701883" data-name="Trazado 701883" d="M600.6,1211.588a2.947,2.947,0,0,1-1.392,1.644,3.481,3.481,0,0,1-2.767.217,1.777,1.777,0,0,1-.908-.618,3.983,3.983,0,0,1,.261-1.138,5.492,5.492,0,0,1,.536-.977,2.8,2.8,0,0,1,.688-.73c1.17-.778,2.167-.15,2.978.82a5.925,5.925,0,0,1,.6.782" transform="translate(-502.81 -1130.995)" fill="#81857a"/>
        <path id="Trazado_701884" data-name="Trazado 701884" d="M597.845,1210.427c-.141-.156-.379-.041-.484.1a.358.358,0,0,0,.058.441.427.427,0,0,0,.476.071.664.664,0,0,0,.314-.509.242.242,0,0,0-.166-.292.653.653,0,0,0-.567.1c-.125.1-.277.33-.217.492a.227.227,0,0,0,.275.156.32.32,0,0,0,.2-.173l.032-.057c.007-.012.014-.023.022-.035-.019.023-.02.024,0,0s.056-.044.009-.011c.024-.013.021-.013-.006,0a.348.348,0,0,1,.041-.013c.068-.018-.046,0,.032,0a.808.808,0,0,1,.123.005l-.229-.3a.982.982,0,0,1-.048.2c.017-.045-.016.022-.022.031.031-.048,0,0-.016.012.056-.05-.044.01.033-.019-.056.02.037,0,0,0s.061.015,0,0c-.02-.005.044.027-.007-.006.059.039.018.011,0,0-.041-.034.017.031,0,0s.014.052,0,0c0,.019,0,.052,0,.04s0,0-.012.013c.035-.043-.007.013.046-.041a.417.417,0,0,0,.124-.161.058.058,0,0,0-.015-.058" transform="translate(-503 -1131.06)" fill="#9a9d9a"/>
        <path id="Trazado_701885" data-name="Trazado 701885" d="M596.9,1211.406l-.015,0c.025-.008-.012,0-.021,0h.051a.15.15,0,0,0-.152.04.234.234,0,0,0-.028.038c.014-.017.018-.021.01-.014a.149.149,0,0,0-.04.068.229.229,0,0,0,.132.246.167.167,0,0,0,.2-.026.485.485,0,0,0,.122-.187.173.173,0,0,0-.044-.173.164.164,0,0,0-.251.034.155.155,0,0,0,.092.227h0c-.023-.013-.045-.028-.068-.04h0l-.04-.069h0l.016-.122c.025-.028.032-.037.02-.027a.138.138,0,0,0-.031.041c-.005.011-.012.021-.019.031s-.015.027-.024.039-.007.011.009-.01l-.019.021.2-.026a.361.361,0,0,1-.033-.018c-.01-.006-.035-.029,0,0l.015.021a.154.154,0,0,0-.027-.036.168.168,0,0,0-.071-.041l.066.038-.005-.006c.013.033.028.066.041.1,0-.034-.008.026,0,0a.131.131,0,0,0-.033-.127l0,0c.008.032.017.064.025.1a.2.2,0,0,0,.006-.038c0,.02,0,0,0-.006a.072.072,0,0,0-.088-.088" transform="translate(-502.94 -1131.187)" fill="#9a9d9a"/>
        <path id="Trazado_701886" data-name="Trazado 701886" d="M619.649,1221.181a1.771,1.771,0,0,1-.038.244c-.176.759-.84.957-1.6.953a2.245,2.245,0,0,1-1.308-.24,1,1,0,0,1-.228-.867,2.438,2.438,0,0,1,.158-.689,3.278,3.278,0,0,1,.324-.59,1.694,1.694,0,0,1,.416-.442c.707-.47,1.31-.09,1.8.5a3.555,3.555,0,0,1,.365.473,1.051,1.051,0,0,1,.11.662" transform="translate(-505.141 -1132.076)" fill="#6a705e"/>
        <path id="Trazado_701887" data-name="Trazado 701887" d="M619.54,1220.519a1.783,1.783,0,0,1-.842.994,2.1,2.1,0,0,1-1.673.131,1.07,1.07,0,0,1-.549-.373,2.44,2.44,0,0,1,.157-.689,3.391,3.391,0,0,1,.324-.59,1.684,1.684,0,0,1,.417-.442c.707-.47,1.31-.09,1.8.5a3.5,3.5,0,0,1,.365.473" transform="translate(-505.142 -1132.076)" fill="#81857a"/>
        <path id="Trazado_701888" data-name="Trazado 701888" d="M617.875,1219.816c-.085-.094-.229-.025-.293.061a.217.217,0,0,0,.036.267.256.256,0,0,0,.288.043.4.4,0,0,0,.189-.308.146.146,0,0,0-.1-.177.4.4,0,0,0-.343.062c-.076.059-.167.2-.131.3a.138.138,0,0,0,.166.094.2.2,0,0,0,.118-.106c.006-.012.012-.023.02-.034a.145.145,0,0,1,.013-.021c-.012.014-.012.015,0,0s.034-.026,0-.007c.015-.007.013-.008,0,0l.025-.007c.041-.011-.028,0,.02,0a.411.411,0,0,1,.074,0l-.139-.182a.534.534,0,0,1-.029.124c.011-.028-.009.013-.013.019.019-.029,0,0-.011.008.035-.03-.027.005.02-.012-.034.013.022,0,0,0s.036.009,0,0c-.011,0,.028.017,0,0,.036.023.011.006,0,0-.024-.02.011.018,0,0s.008.031,0,0c0,.012,0,.032,0,.024s0,0-.007.009c.02-.026,0,.008.028-.025a.246.246,0,0,0,.075-.1.036.036,0,0,0-.009-.035" transform="translate(-505.257 -1132.115)" fill="#9a9d9a"/>
        <path id="Trazado_701889" data-name="Trazado 701889" d="M617.3,1220.409l-.009,0c.015,0-.008,0-.013,0h.031a.091.091,0,0,0-.092.024.243.243,0,0,0-.017.023c.009-.01.011-.012.006-.009a.09.09,0,0,0-.024.042.136.136,0,0,0,.08.148.1.1,0,0,0,.12-.015.3.3,0,0,0,.074-.113.1.1,0,0,0-.027-.1.1.1,0,0,0-.151.021.094.094,0,0,0,.056.137h0l-.042-.024h0l-.025-.042h0c0-.024.006-.049.009-.073s.02-.023.012-.017a.1.1,0,0,0-.019.025.121.121,0,0,1-.011.019l-.015.024c-.006.008,0,.006.005-.006l-.011.012.121-.015-.02-.012c-.006,0-.022-.017,0,0l.01.013a.086.086,0,0,0-.017-.023.1.1,0,0,0-.043-.024l.04.023,0,0c.008.021.017.04.025.06,0-.02,0,.016,0,0a.078.078,0,0,0-.02-.077l0,0c.005.02.011.039.015.058a.072.072,0,0,0,0-.023c0,.012,0,0,0,0a.044.044,0,0,0-.053-.053" transform="translate(-505.22 -1132.192)" fill="#9a9d9a"/>
        <path id="Trazado_701890" data-name="Trazado 701890" d="M681,1180.8H621.062a6.362,6.362,0,0,0-6.363,6.361v33.071M494.068,1180.8H554.01a6.362,6.362,0,0,1,6.363,6.361v33.071" transform="translate(-491.512 -1127.785)" fill="none" stroke="#634e42" stroke-miterlimit="10" stroke-width="1.224"/>
        <path id="Trazado_701891" data-name="Trazado 701891" d="M579.835,1210.606a3.957,3.957,0,1,1-3.957-3.957,3.958,3.958,0,0,1,3.957,3.957" transform="translate(-500.181 -1130.663)" fill="#c99d66"/>
        <path id="Trazado_701892" data-name="Trazado 701892" d="M577.584,1210.754a1.562,1.562,0,1,0-1.562,1.562A1.562,1.562,0,0,0,577.584,1210.754Zm1.248.032a2.81,2.81,0,1,0-2.81,2.81A2.81,2.81,0,0,0,578.832,1210.786Z" transform="translate(-500.324 -1130.81)" fill="none" stroke="#925f36" stroke-miterlimit="10" stroke-width="0.43"/>
        <path id="Trazado_701893" data-name="Trazado 701893" d="M588.33,1207.368a3.858,3.858,0,1,1-3.858-3.858,3.857,3.857,0,0,1,3.858,3.858" transform="translate(-501.149 -1130.313)" fill="#c99d66"/>
        <path id="Trazado_701894" data-name="Trazado 701894" d="M586.135,1207.512a1.523,1.523,0,1,0-1.522,1.523A1.523,1.523,0,0,0,586.135,1207.512Zm1.217.031a2.739,2.739,0,1,0-2.739,2.739A2.739,2.739,0,0,0,587.352,1207.543Z" transform="translate(-501.289 -1130.457)" fill="none" stroke="#925f36" stroke-miterlimit="10" stroke-width="0.419"/>
        <path id="Trazado_701895" data-name="Trazado 701895" d="M596.419,1208.185a4.048,4.048,0,1,1-4.048-4.048,4.048,4.048,0,0,1,4.048,4.048" transform="translate(-502.007 -1130.383)" fill="#c99d66"/>
        <path id="Trazado_701896" data-name="Trazado 701896" d="M594.115,1208.335a1.6,1.6,0,1,0-1.6,1.6A1.6,1.6,0,0,0,594.115,1208.335Zm1.276.033a2.874,2.874,0,1,0-2.874,2.874A2.874,2.874,0,0,0,595.391,1208.368Z" transform="translate(-502.154 -1130.534)" fill="none" stroke="#925f36" stroke-miterlimit="10" stroke-width="0.44"/>
        <path id="Trazado_701897" data-name="Trazado 701897" d="M605.194,1208.145a4.009,4.009,0,1,1-4.009-4.009,4.009,4.009,0,0,1,4.009,4.009" transform="translate(-502.993 -1130.383)" fill="#c99d66"/>
        <path id="Trazado_701898" data-name="Trazado 701898" d="M602.914,1208.3a1.582,1.582,0,1,0-1.583,1.582A1.582,1.582,0,0,0,602.914,1208.3Zm1.264.032a2.846,2.846,0,1,0-2.846,2.846A2.846,2.846,0,0,0,604.178,1208.327Z" transform="translate(-503.138 -1130.533)" fill="none" stroke="#925f36" stroke-miterlimit="10" stroke-width="0.436"/>
        <path id="Trazado_701899" data-name="Trazado 701899" d="M617.093,1211.12a2.916,2.916,0,1,1-2.916-2.917,2.916,2.916,0,0,1,2.916,2.917" transform="translate(-504.561 -1130.836)" fill="#c99d66"/>
        <path id="Trazado_701900" data-name="Trazado 701900" d="M615.434,1211.229a1.151,1.151,0,1,0-1.152,1.151A1.152,1.152,0,0,0,615.434,1211.229Zm.919.023a2.071,2.071,0,1,0-2.071,2.071A2.07,2.07,0,0,0,616.353,1211.253Z" transform="translate(-504.667 -1130.945)" fill="none" stroke="#925f36" stroke-miterlimit="10" stroke-width="0.317"/>
        <path id="Trazado_701901" data-name="Trazado 701901" d="M622.475,1209.109a2.916,2.916,0,1,1-2.917-2.917,2.917,2.917,0,0,1,2.917,2.917" transform="translate(-505.16 -1130.612)" fill="#c99d66"/>
        <path id="Trazado_701902" data-name="Trazado 701902" d="M620.815,1209.217a1.151,1.151,0,1,0-1.151,1.152A1.151,1.151,0,0,0,620.815,1209.217Zm.92.024a2.071,2.071,0,1,0-2.071,2.071A2.07,2.07,0,0,0,621.735,1209.241Z" transform="translate(-505.266 -1130.721)" fill="none" stroke="#925f36" stroke-miterlimit="10" stroke-width="0.317"/>
        <path id="Trazado_701903" data-name="Trazado 701903" d="M616.064,1205.888a2.3,2.3,0,1,1-2.305-2.3,2.305,2.305,0,0,1,2.305,2.3" transform="translate(-504.583 -1130.321)" fill="#c99d66"/>
        <path id="Trazado_701904" data-name="Trazado 701904" d="M614.754,1205.974a.91.91,0,1,0-.911.91A.911.911,0,0,0,614.754,1205.974Zm.726.019a1.636,1.636,0,1,0-1.637,1.637A1.637,1.637,0,0,0,615.48,1205.993Z" transform="translate(-504.666 -1130.407)" fill="none" stroke="#925f36" stroke-miterlimit="10" stroke-width="0.25"/>
        <path id="Trazado_701905" data-name="Trazado 701905" d="M627.311,1214.062a3.993,3.993,0,1,1-3.994-3.994,3.994,3.994,0,0,1,3.994,3.994" transform="translate(-505.459 -1131.043)" fill="#c99d66"/>
        <path id="Trazado_701906" data-name="Trazado 701906" d="M625.039,1214.212a1.576,1.576,0,1,0-1.576,1.577A1.576,1.576,0,0,0,625.039,1214.212Zm1.259.032a2.835,2.835,0,1,0-2.835,2.835A2.834,2.834,0,0,0,626.3,1214.244Z" transform="translate(-505.604 -1131.193)" fill="none" stroke="#925f36" stroke-miterlimit="10" stroke-width="0.434"/>
        <path id="Trazado_701907" data-name="Trazado 701907" d="M611.312,1208.363a2.916,2.916,0,1,1-2.917-2.917,2.917,2.917,0,0,1,2.917,2.917" transform="translate(-503.917 -1130.529)" fill="#c99d66"/>
        <path id="Trazado_701908" data-name="Trazado 701908" d="M609.654,1208.472a1.151,1.151,0,1,0-1.152,1.152A1.152,1.152,0,0,0,609.654,1208.472Zm.919.024a2.071,2.071,0,1,0-2.071,2.07A2.07,2.07,0,0,0,610.573,1208.5Z" transform="translate(-504.023 -1130.638)" fill="none" stroke="#925f36" stroke-miterlimit="10" stroke-width="0.317"/>
        <path id="Trazado_701909" data-name="Trazado 701909" d="M581.5,1226.4c.019,1.105-2.2,1.155-2.926,1.152a3.3,3.3,0,0,1-1.86-.328c-.523-.39-.335-1.584-.1-2.125a4.487,4.487,0,0,1,.461-.807,2.356,2.356,0,0,1,.592-.6c1.006-.642,1.863-.123,2.56.679a11.449,11.449,0,0,1,.882,1.066,1.9,1.9,0,0,1,.39.967" transform="translate(-500.676 -1132.528)" fill="#6a705e"/>
        <path id="Trazado_701910" data-name="Trazado 701910" d="M581.177,1225.437c-.134.752-.618,1.029-1.526,1.113a2.851,2.851,0,0,1-2.078-.278,1.819,1.819,0,0,1-.431-1.976,2.365,2.365,0,0,1,.592-.6c1.006-.643,1.863-.124,2.561.678a11.6,11.6,0,0,1,.881,1.066" transform="translate(-500.749 -1132.528)" fill="#81857a"/>
        <path id="Trazado_701911" data-name="Trazado 701911" d="M578.6,1223.989c-.066-.066-.2-.03-.276,0a.458.458,0,0,0-.226.289.152.152,0,0,0,.074.176.542.542,0,0,0,.493.055c.162-.074.228-.282.278-.431a.184.184,0,0,0-.135-.227.663.663,0,0,0-.5.075c-.126.086-.283.284-.219.442a.183.183,0,0,0,.262.1.336.336,0,0,0,.123-.163.22.22,0,0,1,.057-.07c-.023.021.028-.014.028-.014-.025.013.037-.01.036-.01a.523.523,0,0,1,.158,0l-.186-.234a1.6,1.6,0,0,1-.057.175c.007-.018-.022.037-.019.032-.006.01-.013.02-.02.029.011-.013.01-.012,0,0,.028-.028-.024.011.014,0-.02,0-.02.006,0,0a.233.233,0,0,1-.036,0c.028,0-.036-.007-.036-.007a.583.583,0,0,1-.08-.026l.075.175a.368.368,0,0,1,.108-.2c.04-.041.15-.111.083-.178" transform="translate(-500.866 -1132.576)" fill="#9a9d9a"/>
        <path id="Trazado_701912" data-name="Trazado 701912" d="M579.272,1224.635a.353.353,0,0,0-.062.064.126.126,0,0,0-.012.111.094.094,0,0,0,.179,0l0-.008v0c-.011.024-.01.02,0-.006l0-.027c0-.009,0,0,0,.017l0-.009c-.01.029-.009.019,0,.012l0,.005c.007-.01.016-.019.024-.028a.089.089,0,0,0,0-.128.1.1,0,0,0-.132,0" transform="translate(-500.99 -1132.662)" fill="#9a9d9a"/>
        <path id="Trazado_701913" data-name="Trazado 701913" d="M611.456,1226.833c.019,1.106-2.2,1.156-2.925,1.152a3.3,3.3,0,0,1-1.86-.328c-.523-.39-.335-1.584-.1-2.125a4.516,4.516,0,0,1,.461-.807,2.339,2.339,0,0,1,.592-.6c1.006-.643,1.863-.123,2.56.678a11.449,11.449,0,0,1,.882,1.066,1.9,1.9,0,0,1,.39.967" transform="translate(-504.012 -1132.576)" fill="#6a705e"/>
        <path id="Trazado_701914" data-name="Trazado 701914" d="M611.139,1225.866c-.134.752-.618,1.029-1.526,1.114a2.851,2.851,0,0,1-2.078-.278,1.819,1.819,0,0,1-.431-1.976,2.368,2.368,0,0,1,.592-.6c1.006-.642,1.863-.123,2.561.678a11.59,11.59,0,0,1,.882,1.066" transform="translate(-504.085 -1132.576)" fill="#81857a"/>
        <path id="Trazado_701915" data-name="Trazado 701915" d="M608.565,1224.418c-.066-.066-.2-.03-.276,0a.454.454,0,0,0-.226.288.152.152,0,0,0,.074.176.542.542,0,0,0,.493.055c.162-.074.228-.281.278-.431a.185.185,0,0,0-.134-.228.665.665,0,0,0-.5.075c-.126.087-.283.284-.219.442a.183.183,0,0,0,.262.1.336.336,0,0,0,.123-.163.223.223,0,0,1,.057-.07c-.023.021.028-.014.028-.014-.025.013.037-.01.037-.01a.525.525,0,0,1,.157,0c-.062-.078-.123-.156-.186-.234a1.678,1.678,0,0,1-.057.175c.007-.018-.022.037-.019.032l-.02.03c.011-.014.01-.013,0,0,.028-.029-.024.01.014-.005-.019,0-.019.006,0,0a.235.235,0,0,1-.035,0c.028,0-.036-.007-.036-.007a.564.564,0,0,1-.08-.026l.075.175a.368.368,0,0,1,.108-.2c.04-.041.15-.111.083-.178" transform="translate(-504.202 -1132.624)" fill="#9a9d9a"/>
        <path id="Trazado_701916" data-name="Trazado 701916" d="M609.233,1225.064a.353.353,0,0,0-.062.063.126.126,0,0,0-.012.111.094.094,0,0,0,.179,0l0-.008v0l0-.006,0-.026q0-.015,0,.016l0-.009c-.01.028-.009.02,0,.011s.014-.017,0,.005a.331.331,0,0,1,.024-.027.088.088,0,0,0,0-.127.1.1,0,0,0-.132,0" transform="translate(-504.326 -1132.71)" fill="#9a9d9a"/>
        <path id="Trazado_701917" data-name="Trazado 701917" d="M615.61,1217.537c.018,1.105-2.2,1.156-2.925,1.152a3.3,3.3,0,0,1-1.86-.328c-.523-.39-.336-1.584-.1-2.125a4.546,4.546,0,0,1,.461-.807,2.336,2.336,0,0,1,.592-.6c1.006-.643,1.863-.124,2.56.678a11.753,11.753,0,0,1,.882,1.066,1.9,1.9,0,0,1,.39.967" transform="translate(-504.475 -1131.541)" fill="#6a705e"/>
        <path id="Trazado_701918" data-name="Trazado 701918" d="M615.292,1216.57c-.134.752-.618,1.029-1.526,1.114a2.851,2.851,0,0,1-2.078-.278,1.819,1.819,0,0,1-.431-1.976,2.382,2.382,0,0,1,.592-.6c1.006-.642,1.863-.124,2.561.678a11.607,11.607,0,0,1,.882,1.066" transform="translate(-504.548 -1131.541)" fill="#81857a"/>
        <path id="Trazado_701919" data-name="Trazado 701919" d="M612.719,1215.122c-.066-.066-.2-.03-.276,0a.454.454,0,0,0-.226.288.152.152,0,0,0,.074.176.542.542,0,0,0,.493.055c.162-.074.228-.282.278-.431a.185.185,0,0,0-.134-.228.665.665,0,0,0-.5.075c-.126.087-.283.284-.219.442a.183.183,0,0,0,.262.1.331.331,0,0,0,.123-.163.219.219,0,0,1,.057-.07c-.023.02.028-.014.028-.014-.025.013.037-.01.037-.01a.525.525,0,0,1,.157,0l-.186-.234a1.626,1.626,0,0,1-.057.175c.007-.018-.022.037-.019.032a.354.354,0,0,1-.02.029c.011-.013.01-.013,0,0,.028-.028-.023.011.014,0-.02,0-.02.006,0,0a.235.235,0,0,1-.035,0c.028,0-.036-.007-.034-.007a.518.518,0,0,1-.082-.026l.075.175a.368.368,0,0,1,.108-.2c.04-.041.15-.111.083-.178" transform="translate(-504.665 -1131.589)" fill="#9a9d9a"/>
        <path id="Trazado_701920" data-name="Trazado 701920" d="M613.387,1215.768a.345.345,0,0,0-.062.064.125.125,0,0,0-.012.111.093.093,0,0,0,.09.065.1.1,0,0,0,.089-.065l0-.008v0c-.011.024-.01.021,0-.006l0-.027q0-.013,0,.016l0-.008c-.01.028-.009.019,0,.011l0,.005c.007-.01.016-.019.025-.029a.09.09,0,0,0,0-.127.1.1,0,0,0-.132,0" transform="translate(-504.788 -1131.675)" fill="#9a9d9a"/>
        <path id="Trazado_701921" data-name="Trazado 701921" d="M586.213,1204.969c-2.678.285-5.288.577-7.87-.477-1.153-.471-2.444-.536-3.558-1.067-1.529-.728-3.117-1.646-3.192-3.595-.059-1.542.375-2.924.1-4.493a9.225,9.225,0,0,0-.578-2.013,3.249,3.249,0,0,1-.452-1.147c.624.466,1.241,1.046,1.868,1.535s1.115,2.053,1.876,2.147a7.515,7.515,0,0,1-.56-3.846,4.676,4.676,0,0,1,2.133-3.589,6.106,6.106,0,0,0,2.46-3.45c.177-.774-.011-2.9.906-3.216.444,1.167-.3,3.559.73,4.393-.145-2.21,1.936-4.322,3.117-5.924.83-1.125.576-2.189.98-3.42.44.38.571,1.5,1,2.055a23.067,23.067,0,0,1,2.3,3.188,8.737,8.737,0,0,1,1.075,4.644c-.047.633-.59,2.48-.141,2.959.374-.382.356-1.78.516-2.359.191-.69.892-1.912.621-2.582a4.869,4.869,0,0,1,.258,1.94,16.263,16.263,0,0,0,.423,2.2,4.332,4.332,0,0,1-.452,2.844c-.251.57-.994,1.366-.994,1.99.89.1,1.813-.733,2.389-1.347.673-.716.774-2.028,1.422-2.633a11.708,11.708,0,0,1,.364,3.719c.076,2.414,1.816,4.256.769,6.677-1.2,2.782-4.733,4.572-7.5,4.868" transform="translate(-500.04 -1127.34)" fill="#f5a12f"/>
        <path id="Trazado_701922" data-name="Trazado 701922" d="M578.341,1203.6c-1.741.253-3.951-1.688-4.676-3.124a5.879,5.879,0,0,1-.779-2.364c-.046-.632.227-1.151-.181-1.666a9.743,9.743,0,0,0,3.677,3.253c.04.05.036.052-.01.01-.609-1.937-1.949-4.673-1.1-6.718.932-2.242,3.427-3,4.6-4.92.743.465.652,1.5.993,2.245.616-3.236,2.286-6.019,3.947-8.772.557,1.571,1.006,3.322,1.447,4.962a13.555,13.555,0,0,1,.586,3.815c-.036.776-.5,1.417-.383,2.181.964.091,1.789-1.313,2.391-1.982-.085.927-.8,1.774-1.066,2.7-.236.836-.059,1.893-.641,2.576a4.53,4.53,0,0,0,3.56-1.427c-.107,1.169.85,2.408.845,3.747-.01,2.175.057,3.156-1.907,4.266a13.94,13.94,0,0,1-5.874,1.424c-1.349.1-4.5.6-5.665-.2Z" transform="translate(-500.268 -1127.867)" fill="#ef802a"/>
        <path id="Trazado_701923" data-name="Trazado 701923" d="M591.22,1199.219c-.633.506-.771,1.957-1.433,2.634a11.428,11.428,0,0,1-2.944,1.966c-1.756.884-4.5,1.094-6.2-.145-1.136-.829-1.136-2.487-1.443-3.6a4.669,4.669,0,0,1,2.031-5.065c-.421,1.171.172,1.935.994,2.958-.618-1.071,1.276-2.627,1.9-3.584a12.922,12.922,0,0,0,1.265-1.885c.244-.6.068-1.27.7-1.7-.706,2.994,3.656,5.834,1.336,8.609a16.17,16.17,0,0,0,1.876-3.789c.863,1.066,1.316,3.537.048,4.611.674-.248,1.234-.7,1.878-1,.05-.052.045-.055-.013-.009" transform="translate(-500.973 -1128.898)" fill="#de5525"/>
        <path id="Trazado_701924" data-name="Trazado 701924" d="M603.264,1202.843c-2.33.3-4.6.611-6.86-.608-1.009-.544-2.133-.629-3.108-1.242-1.337-.839-2.729-1.9-2.81-4.11-.065-1.751.3-3.318.049-5.1a13.113,13.113,0,0,0-.52-2.292,4.432,4.432,0,0,1-.4-1.306c.547.533,1.089,1.2,1.64,1.759s.988,2.341,1.652,2.454a10.958,10.958,0,0,1-.519-4.374,5.639,5.639,0,0,1,1.827-4.06,7.021,7.021,0,0,0,2.114-3.9c.148-.877-.034-3.293.763-3.645.4,1.328-.233,4.041.672,5-.145-2.512,1.651-4.894,2.666-6.7.714-1.272.484-2.482.826-3.878.387.435.51,1.708.888,2.343a27.681,27.681,0,0,1,2.027,3.641,12.565,12.565,0,0,1,.976,5.285c-.036.718-.494,2.812-.1,3.36.323-.431.3-2.019.431-2.676.16-.782.761-2.164.52-2.926a7.16,7.16,0,0,1,.24,2.206,23.544,23.544,0,0,0,.387,2.5,6.208,6.208,0,0,1-.37,3.226,8.53,8.53,0,0,0-.85,2.253c.776.125,1.572-.818,2.069-1.511.58-.809.658-2.3,1.217-2.98a17.231,17.231,0,0,1,.348,4.228c.087,2.743,1.617,4.85.725,7.592a8.386,8.386,0,0,1-6.5,5.468" transform="translate(-502.15 -1126.675)" fill="#f5a12f"/>
        <path id="Trazado_701925" data-name="Trazado 701925" d="M596.4,1201.218c-1.514.274-3.456-1.951-4.1-3.588a8.282,8.282,0,0,1-.7-2.692c-.045-.719.188-1.305-.172-1.895a9.968,9.968,0,0,0,3.23,3.727c.036.056.033.06-.008.011-.547-2.206-1.736-5.326-1.013-7.642.794-2.539,2.96-3.376,3.965-5.552.651.534.58,1.707.884,2.558a35.229,35.229,0,0,1,3.365-9.932c.5,1.789.9,3.781,1.3,5.648a19.92,19.92,0,0,1,.542,4.339,15.382,15.382,0,0,0-.315,2.474c.841.111,1.547-1.477,2.066-2.231a23.048,23.048,0,0,1-.906,3.058c-.2.948-.036,2.149-.537,2.921a3.467,3.467,0,0,0,3.088-1.593c-.083,1.329.762,2.744.768,4.265.01,2.471.076,3.585-1.625,4.831a9.779,9.779,0,0,1-5.105,1.568c-1.174.109-3.914.649-4.936-.272Z" transform="translate(-502.352 -1127.274)" fill="#ef802a"/>
        <path id="Trazado_701926" data-name="Trazado 701926" d="M607.569,1196.345c-.547.57-.656,2.217-1.226,2.98a10,10,0,0,1-2.549,2.209,4.493,4.493,0,0,1-5.4-.217c-1-.95-1.01-2.835-1.288-4.1a6.069,6.069,0,0,1,1.728-5.737c-.357,1.327.166,2.2.89,3.369-.548-1.222,1.089-2.974,1.627-4.055a15.33,15.33,0,0,0,1.087-2.131c.208-.676.048-1.442.6-1.927-.59,3.4,3.233,6.658,1.234,9.791a20.734,20.734,0,0,0,1.6-4.289c.76,1.218,1.176,4.028.08,5.239.585-.276,1.07-.784,1.627-1.12q.064-.088-.011-.011" transform="translate(-502.968 -1128.445)" fill="#de5525"/>
        <path id="Trazado_701927" data-name="Trazado 701927" d="M620.782,1205.088c-1.767.229-3.489.464-5.2-.46-.765-.413-1.617-.477-2.357-.942a3.7,3.7,0,0,1-2.131-3.117,34.869,34.869,0,0,0,.037-3.869,9.932,9.932,0,0,0-.395-1.738,3.377,3.377,0,0,1-.306-.991c.415.4.826.909,1.243,1.334s.75,1.775,1.253,1.862a8.312,8.312,0,0,1-.394-3.317,4.278,4.278,0,0,1,1.385-3.078,5.326,5.326,0,0,0,1.6-2.956c.112-.665-.026-2.5.579-2.765.3,1.008-.177,3.065.509,3.789-.109-1.9,1.252-3.711,2.022-5.083.541-.965.367-1.882.626-2.942.292.331.387,1.3.673,1.777a20.991,20.991,0,0,1,1.537,2.76,9.531,9.531,0,0,1,.739,4.007c-.028.545-.374,2.133-.075,2.549a8.417,8.417,0,0,0,.326-2.029c.121-.594.577-1.641.394-2.22a5.391,5.391,0,0,1,.182,1.673,18,18,0,0,0,.293,1.9,4.7,4.7,0,0,1-.281,2.446,6.54,6.54,0,0,0-.644,1.708c.589.1,1.193-.62,1.569-1.145.44-.613.5-1.743.922-2.259a13.07,13.07,0,0,1,.265,3.205c.066,2.08,1.225,3.678.549,5.757a6.36,6.36,0,0,1-4.926,4.146" transform="translate(-504.468 -1127.786)" fill="#f5a12f"/>
        <path id="Trazado_701928" data-name="Trazado 701928" d="M615.574,1203.855c-1.148.207-2.62-1.479-3.109-2.72a6.263,6.263,0,0,1-.53-2.041c-.035-.545.143-.99-.13-1.437a7.545,7.545,0,0,0,2.449,2.826c.027.044.024.046-.006.009-.415-1.673-1.317-4.039-.769-5.795.6-1.925,2.245-2.56,3.007-4.21.493.405.44,1.295.67,1.94a26.73,26.73,0,0,1,2.552-7.531c.378,1.357.685,2.868.987,4.283a15.1,15.1,0,0,1,.411,3.291,11.713,11.713,0,0,0-.239,1.876c.638.084,1.173-1.12,1.567-1.692a17.367,17.367,0,0,1-.687,2.319c-.15.719-.027,1.63-.407,2.215a2.632,2.632,0,0,0,2.342-1.208c-.063,1.007.577,2.08.582,3.234.008,1.874.058,2.718-1.233,3.663a7.417,7.417,0,0,1-3.871,1.189c-.89.083-2.968.492-3.743-.206Z" transform="translate(-504.622 -1128.241)" fill="#ef802a"/>
        <path id="Trazado_701929" data-name="Trazado 701929" d="M624.048,1200.16c-.415.432-.5,1.681-.93,2.26a7.57,7.57,0,0,1-1.933,1.674,3.407,3.407,0,0,1-4.1-.164c-.755-.721-.766-2.15-.976-3.111a4.6,4.6,0,0,1,1.31-4.35,2.977,2.977,0,0,0,.675,2.554c-.416-.926.826-2.254,1.233-3.075a11.616,11.616,0,0,0,.825-1.616c.157-.512.036-1.094.453-1.461-.448,2.574,2.452,5.048.937,7.425a15.715,15.715,0,0,0,1.215-3.252c.577.924.892,3.055.061,3.972.443-.209.811-.594,1.234-.849.032-.044.029-.047-.009-.008" transform="translate(-505.089 -1129.129)" fill="#de5525"/>
        <path id="Trazado_701930" data-name="Trazado 701930" d="M550.91,1178.856v-9.72a4.743,4.743,0,0,1,4.747-4.739h72.566a4.744,4.744,0,0,1,4.747,4.739v9.828" transform="translate(-497.841 -1125.958)" fill="none" stroke="#1d1d1b" stroke-miterlimit="10" stroke-width="3.931"/>
        <path id="Trazado_701931" data-name="Trazado 701931" d="M615.125,1156.722H571.762a1.941,1.941,0,0,1-1.941-1.941v-31.7a1.941,1.941,0,0,1,1.941-1.941h43.363a1.941,1.941,0,0,1,1.941,1.941v31.7a1.941,1.941,0,0,1-1.941,1.941" transform="translate(-499.947 -1121.142)" fill="#a7a9ab"/>
        <rect id="Rectángulo_337962" data-name="Rectángulo 337962" width="47.245" height="35.58" rx="2.184" transform="translate(69.874 0)" fill="none" stroke="#1d1d1b" stroke-miterlimit="10" stroke-width="0.983"/>
        <rect id="Rectángulo_337963" data-name="Rectángulo 337963" width="4.259" height="34.781" transform="translate(73.518 0.412)" fill="#fff"/>
        <rect id="Rectángulo_337964" data-name="Rectángulo 337964" width="1.599" height="34.781" transform="translate(78.65 0.412)" fill="#fff"/>
        <path id="Trazado_701932" data-name="Trazado 701932" d="M615.419,1126.424l5.233-.786m-50.614.786-5.233-.786" transform="translate(-499.388 -1121.643)" fill="none" stroke="#1d1d1b" stroke-linecap="round" stroke-miterlimit="10" stroke-width="3.931"/>
        <path id="Trazado_701933" data-name="Trazado 701933" d="M549.668,1204.266q-.117-.742-.236-1.485a4.309,4.309,0,0,1,2.226.517,3.292,3.292,0,0,1-2.152,1.817q-.161-.74-.323-1.481m-44.07,5.559.061-1.672a4.52,4.52,0,0,1,3.126.671,4.077,4.077,0,0,1-3.791,1.534m8.322-18.033a19.677,19.677,0,0,0,3.944-.692,2.694,2.694,0,0,1-1.315,1.654,1.38,1.38,0,0,1-1.833-.625m23.216,1.751a6.39,6.39,0,0,1-.256-2.1l1.712.523a4.586,4.586,0,0,1-1.937,1.2m-35.788,2.747a16.7,16.7,0,0,1,.548-4.1,15.118,15.118,0,0,0,4.366,1.251,14.477,14.477,0,0,1-5.307,2.959m-4.745,22.479a9.044,9.044,0,0,0,2.553-4.277,10.1,10.1,0,0,1,4.021,4.465,22.687,22.687,0,0,1-5.859.5m38.819-18.65q2.449,1.678,4.942,3.292-.829-2.281-1.659-4.562c-.074-.205-.182-.44-.4-.482a.646.646,0,0,0-.449.148l-2.573,1.653m10.365,17.141a23.172,23.172,0,0,0-.091-6.3,3.175,3.175,0,0,0,1.65,1.576l5.135,2.9a22.871,22.871,0,0,0-6.55,1.416m-19.493-27.612a7.717,7.717,0,0,0-.541-3.991,19.1,19.1,0,0,1,5.46,1.612l-4.909,1.481m-10.029,13.636,6.9.818a39.453,39.453,0,0,0-3.747,3.016,7.276,7.276,0,0,0-2.837-3.126m31.954-12.591.908-2.516a13.174,13.174,0,0,1,3.414,2.159,7.9,7.9,0,0,1-4.955,1.414" transform="translate(-491.665 -1128.359)" fill="none" stroke="#634e42" stroke-linecap="round" stroke-miterlimit="10" stroke-width="0.491"/>
        <path id="Trazado_701934" data-name="Trazado 701934" d="M532.694,1214.211c-.122-.116.122-.308.259-.212a.515.515,0,0,1,.138.461m-16.23,5.338c-.018-.216.41-.217.394,0m-4.9-32.7a.478.478,0,0,1,.4.6.508.508,0,0,1-.377-.609m41.946,1.294.264-.865a.9.9,0,0,1,.118,1.258m-3.891,7.445c.17-.114.016-.444-.18-.387M533,1220.163a.828.828,0,0,1-.963,1.116m-3.88-23.937c.068.451-.08,1.121-.526,1.029a.407.407,0,0,1-.076-.722.482.482,0,0,1,.654.437.586.586,0,0,1-.657.522m-17.344,6.243a1.548,1.548,0,0,1-1.033-1.1m-7.109-15.408a.466.466,0,0,1,.654-.124l-.405.371M491.192,1213a4.091,4.091,0,0,0,1.332-.554c.313.269-.1.89-.471.7m15.6,4.714.523.039c.064.5-.84.686-.981.206m46.867-5.573a.521.521,0,0,1,.616.365.707.707,0,0,1-.844-.141m-.625-14.983a.38.38,0,0,1,.205-.438l.631.276,0,.584a.893.893,0,0,1-.819-.642m-8.807,11.976q.033-.332.066-.662a.564.564,0,0,1-.041.879m-6.268,1.962a1.37,1.37,0,0,1-.109-1.117.4.4,0,1,1-.027.79m.2,3.68a2.079,2.079,0,0,1,.564-1.245c.359-.3,1.038-.213,1.139.241l-1.059.411m-33.98-13.522a.47.47,0,0,1-.056-.635l.626.045a.452.452,0,0,1-.168.619m-10.28.645a4.656,4.656,0,0,1,.392-2.008.842.842,0,0,1,.132,1.078m1.409-9.56c-.216.017-.217-.411,0-.395m2.371,15.167a.509.509,0,0,1,.635-.181,2.581,2.581,0,0,1-.887,1.018.453.453,0,0,1-.161-.61m16.246,6.177a.958.958,0,0,1,.109-.834q.129.513.257,1.027l-.817.04m3.132,3.166a1.059,1.059,0,0,1,1.343-.549l-.62.373m11-8.262a1.263,1.263,0,0,1,.138-.985.593.593,0,0,1,.882-.108c.22.261-.113.765-.408.595m13.836-9.015a.487.487,0,0,1-.168-.63.371.371,0,0,1-.069.6M541,1189.006a.753.753,0,0,1,.6-.8.442.442,0,0,1,.23.528.652.652,0,0,1-.61.075m-22.429-.236a.576.576,0,0,1,.1-.59c.405.427-.225,1.262-.746.99m-10.077,1.313c-.064-.15-.121-.344,0-.458s.345.132.19.182m15.008,7.972a1.481,1.481,0,0,1,.4-1.222,2.363,2.363,0,0,1,.441,1.225m-13.246.641h.214m15.878,18.187a14.076,14.076,0,0,1,.93-2.995,5.894,5.894,0,0,0,1.506,2.178l-2.3.464" transform="translate(-491.192 -1128.485)" fill="none" stroke="#634e42" stroke-linecap="round" stroke-miterlimit="10" stroke-width="0.246"/>
        <path id="Trazado_701935" data-name="Trazado 701935" d="M692.681,1203.37q-.117-.742-.236-1.485a4.309,4.309,0,0,1,2.226.517,3.292,3.292,0,0,1-2.151,1.817q-.161-.74-.323-1.48m-44.071,5.559.061-1.672a4.525,4.525,0,0,1,3.126.67,4.076,4.076,0,0,1-3.791,1.535m8.322-18.033a19.677,19.677,0,0,0,3.944-.692,2.692,2.692,0,0,1-1.314,1.654,1.38,1.38,0,0,1-1.833-.625m23.215,1.751a6.388,6.388,0,0,1-.256-2.1l1.712.523a4.594,4.594,0,0,1-1.937,1.2m-35.787,2.747a16.611,16.611,0,0,1,.548-4.1,15.1,15.1,0,0,0,4.365,1.251,14.47,14.47,0,0,1-5.307,2.959m-4.745,22.479a9.035,9.035,0,0,0,2.552-4.277,10.1,10.1,0,0,1,4.022,4.465,22.7,22.7,0,0,1-5.86.5m38.819-18.65q2.449,1.678,4.943,3.292-.83-2.281-1.659-4.562c-.075-.205-.183-.44-.4-.482a.642.642,0,0,0-.448.148l-2.574,1.653m10.365,17.141a23.172,23.172,0,0,0-.091-6.3,3.174,3.174,0,0,0,1.65,1.576l5.136,2.9a22.9,22.9,0,0,0-6.55,1.417m-19.492-27.613a7.738,7.738,0,0,0-.541-3.991,19.112,19.112,0,0,1,5.459,1.613l-4.909,1.481m-10.028,13.636,6.9.818a39.5,39.5,0,0,0-3.746,3.015,7.287,7.287,0,0,0-2.837-3.125m31.954-12.591q.455-1.258.908-2.516a13.177,13.177,0,0,1,3.415,2.159,7.906,7.906,0,0,1-4.956,1.414" transform="translate(-507.588 -1128.259)" fill="none" stroke="#634e42" stroke-linecap="round" stroke-miterlimit="10" stroke-width="0.491"/>
        <path id="Trazado_701936" data-name="Trazado 701936" d="M675.707,1213.315c-.122-.116.122-.308.259-.212a.515.515,0,0,1,.138.461m-16.229,5.338c-.018-.216.41-.217.394,0m-4.9-32.7a.478.478,0,0,1,.4.6.508.508,0,0,1-.377-.609m41.946,1.294c.089-.288.176-.577.264-.865a.9.9,0,0,1,.118,1.258m-3.891,7.444c.17-.113.016-.443-.18-.386m-17.631,24.331a.829.829,0,0,1-.964,1.116m-3.88-23.937c.068.451-.08,1.121-.526,1.028a.406.406,0,0,1-.075-.722.481.481,0,0,1,.653.437.585.585,0,0,1-.657.521m-17.344,6.244a1.546,1.546,0,0,1-1.034-1.1m-7.109-15.408a.467.467,0,0,1,.655-.123l-.406.371m-11.126,24.4a4.062,4.062,0,0,0,1.332-.554c.313.269-.1.89-.471.7m15.6,4.714.523.039c.064.5-.84.686-.981.206m46.867-5.573a.521.521,0,0,1,.616.365.707.707,0,0,1-.844-.141m-.625-14.983a.381.381,0,0,1,.206-.439l.63.277,0,.584a.892.892,0,0,1-.819-.642m-8.807,11.976c.022-.221.044-.442.066-.662a.564.564,0,0,1-.04.879m-6.269,1.962a1.371,1.371,0,0,1-.109-1.117.4.4,0,1,1-.026.79m.2,3.68a2.079,2.079,0,0,1,.564-1.245c.359-.3,1.038-.213,1.139.241l-1.058.411m-33.981-13.522a.471.471,0,0,1-.057-.635l.627.044a.451.451,0,0,1-.168.62m-10.28.645a4.663,4.663,0,0,1,.392-2.009.841.841,0,0,1,.132,1.078m1.409-9.56c-.216.018-.217-.41,0-.394m2.371,15.168a.51.51,0,0,1,.635-.182,2.585,2.585,0,0,1-.887,1.018.453.453,0,0,1-.161-.61m16.246,6.177a.961.961,0,0,1,.109-.834q.129.513.257,1.026l-.817.04m3.132,3.166a1.059,1.059,0,0,1,1.343-.549l-.62.372m11-8.261a1.266,1.266,0,0,1,.138-.986.593.593,0,0,1,.882-.107c.22.261-.113.765-.408.594m13.836-9.015a.486.486,0,0,1-.168-.63.371.371,0,0,1-.069.6m-2.778-8.725a.753.753,0,0,1,.6-.8.441.441,0,0,1,.23.528.652.652,0,0,1-.61.075m-22.429-.236a.577.577,0,0,1,.1-.59c.406.427-.224,1.262-.746.989m-10.077,1.314c-.064-.15-.121-.344,0-.458s.345.132.19.182m15.008,7.972a1.481,1.481,0,0,1,.4-1.222,2.362,2.362,0,0,1,.441,1.225m-13.245.641h.213m15.878,18.187a14.073,14.073,0,0,1,.93-2.995,5.893,5.893,0,0,0,1.506,2.178l-2.3.464" transform="translate(-507.116 -1128.385)" fill="none" stroke="#634e42" stroke-linecap="round" stroke-miterlimit="10" stroke-width="0.246"/>
      </g>
    </g>
  </g>
</svg>
